<?xml version="1.0" encoding="utf-8"?>
<!-- Generator: Adobe Illustrator 24.1.3, SVG Export Plug-In . SVG Version: 6.00 Build 0)  -->
<svg version="1.1" id="Layer_1" xmlns="http://www.w3.org/2000/svg" xmlns:xlink="http://www.w3.org/1999/xlink" x="0px" y="0px"
	 viewBox="0 0 675.6 452" style="enable-background:new 0 0 675.6 452;" xml:space="preserve">
<style type="text/css">
	.st0{fill:#E0E0E0;}
	.st1{fill:#EBEBEB;}
	.st2{fill:#263238;}
	.st3{fill:#455A64;}
	.st4{fill:#FFFFFF;}
	.st5{fill:#0061F2;}
	.st6{opacity:0.4;}
	.st7{opacity:0.3;enable-background:new    ;}
	.st8{fill:#FAFAFA;}
	.st9{opacity:0.2;enable-background:new    ;}
	.st10{fill:#FFBE9D;}
	.st11{fill:#EB996E;}
	.st12{opacity:0.3;}
</style>
<g id="background-complete--inject-34">
	<path class="st0" d="M554.1,98.2c-6.7,1.2-13.2-3.3-14.4-10.1c-0.4-2.1-0.2-4.3,0.6-6.4l24.3-67.2c1.5-4.2,5.1-7.2,9.5-8l0,0
		c4.4-0.8,8.8,0.8,11.6,4.2l46.1,54.6c4.4,5.2,3.7,13.1-1.5,17.5c-1.7,1.4-3.7,2.3-5.8,2.7L554.1,98.2L554.1,98.2z M574.8,10.2
		L574.8,10.2c-3.1,0.5-5.6,2.7-6.6,5.6L543.8,83c-1.6,4.5,0.7,9.5,5.2,11.1c1.4,0.5,3,0.6,4.5,0.4l0,0l70.3-12.6
		c4.7-0.8,7.9-5.4,7-10.1c-0.3-1.5-0.9-2.9-1.9-4.1l-46.1-54.6C580.9,10.8,577.8,9.6,574.8,10.2L574.8,10.2z"/>
	<path class="st0" d="M580.8,73.1c-0.4-2.5,1.2-4.9,3.7-5.3c0.1,0,0.1,0,0.2,0c2.4-0.7,5,0.8,5.6,3.2c0.7,2.4-0.8,5-3.2,5.6
		c-0.2,0.1-0.5,0.1-0.7,0.1c-2.5,0.5-5-1-5.5-3.5C580.8,73.2,580.8,73.2,580.8,73.1z M574.5,36.4l8.6-1.6l3.5,27.6l-5.8,1
		L574.5,36.4z"/>
	<path class="st1" d="M554,349.2c-13.9-19.8-9.4-45.5-0.8-67c1.4-3.6,2.4-7.6,5.3-10.1s7.7-3.3,10.4-0.6c2.2,2.2,2.3,5.8,2.8,9
		c0.8,4.2,2.7,8.1,5.6,11.2c1.9,2,4.5,3.8,7.2,3.4c3.8-0.6,5.7-4.8,7-8.4l7.2-20.2c1.3-3.6,2.6-7.3,5-10.3c2.4-3,6-5.3,9.8-5
		s7.3,3.8,6.8,7.6c-0.2,1.6-1.1,3-1.5,4.5c-0.4,1.5-0.3,3.5,0.9,4.4c1.3,0.9,3.1,0.5,4.6-0.2c5-2.3,9.3-6.1,13.3-9.9
		c4.1-3.8,8.1-7.8,12.9-10.5c4.8-2.8,10.7-4.2,15.9-2.6c5.3,1.6,9.6,6.8,9.1,12.3c-0.5,5.6-5.4,9.6-10.1,12.6
		c-7,4.4-14.6,7.7-22.6,9.9c-1.4,0.4-3,0.8-3.9,2c-1.7,2.1-0.2,5.3,1.8,7c2.4,1.9,5.4,2.6,8.1,4c2.7,1.4,5.3,3.7,5.4,6.8
		c0.1,4.2-4.3,7-8.3,8.4c-7.9,2.9-16.3,4.3-24.7,4.4c-3,0-6.1-0.2-8.9,0.9c-2.8,1.1-5.3,3.9-4.9,6.9s3.4,5,6.4,5.5s6-0.1,9-0.2
		c5.6-0.1,11.9,2.6,13.5,8c1.1,3.6-0.2,7.6-2.4,10.5c-2.4,2.9-5.4,5.2-8.7,6.9c-11.3,6.4-24.2,10.3-37.2,10.1
		C575,360.4,563.9,357.5,554,349.2"/>
	<path class="st0" d="M564.5,337.7c7.9-10.5,16.4-20.6,25.5-30.2l7.1-7.6c2.3-2.5,4.6-4.9,7-7.2c4.6-4.3,9.5-8.4,14.6-12.2
		c4.8-3.7,9.5-7,14-10c4.4-3,8.6-5.8,12.5-8.1c6.2-3.7,12.7-7,19.4-9.7c2.4-1,4.2-1.6,5.5-2.1l1.5-0.5c0.2-0.1,0.3-0.1,0.5-0.1
		l-0.5,0.2l-1.4,0.6c-1.2,0.5-3.1,1.2-5.4,2.2c-6.6,2.8-13,6.1-19.2,9.9c-3.9,2.4-8.1,5.1-12.5,8.2c-4.4,3.1-9.1,6.4-13.9,10
		c-5.1,3.8-9.9,7.9-14.5,12.2c-2.4,2.3-4.7,4.7-7,7.2l-7.1,7.6c-9,9.5-17.5,19.6-25.5,30.1"/>
	<path class="st0" d="M604.3,292.8c0-0.6,0.1-1.1,0.2-1.7c0.2-1.1,0.5-2.6,0.9-4.5c0.8-3.8,2.1-9,3.5-14.7
		c1.4-5.7,2.6-10.9,3.4-14.7c0.4-1.9,0.7-3.4,0.8-4.5c0.1-0.6,0.2-1.1,0.4-1.6c0,0.6,0,1.1-0.1,1.7c-0.1,1.1-0.3,2.6-0.6,4.5
		c-0.6,3.8-1.7,9-3.2,14.8l-3.7,14.6c-0.4,1.8-0.8,3.2-1.1,4.4C604.7,291.7,604.6,292.2,604.3,292.8z"/>
	<path class="st0" d="M653.9,300.9c-0.7-0.1-1.3-0.2-1.9-0.5c-1.2-0.3-3-0.8-5.2-1.3c-4.4-1.1-10.6-2.4-17.4-3.5s-13.1-1.8-17.6-2.2
		c-2.3-0.2-4.1-0.4-5.4-0.4c-0.7,0-1.3-0.1-2-0.2c0.7-0.1,1.3-0.1,2-0.1c1.3,0,3.1,0.1,5.4,0.2c4.6,0.3,10.8,0.9,17.7,2
		c5.9,0.9,11.7,2.2,17.4,3.7c2.2,0.6,4,1.1,5.2,1.5C652.7,300.4,653.3,300.6,653.9,300.9z"/>
	<path class="st0" d="M565.4,337c-0.1-0.2-0.1-0.4-0.1-0.7c0-0.5-0.1-1.2-0.2-2c-0.2-1.7-0.3-4.2-0.5-7.2c-0.3-6.1-0.5-14.6-0.5-24
		s-0.1-17.8-0.3-24c-0.1-3-0.2-5.4-0.2-7.3c0-0.8,0-1.4-0.1-2c0-0.2,0-0.5,0-0.7c0.1,0.2,0.1,0.4,0.1,0.7c0.1,0.5,0.1,1.2,0.2,2
		c0.2,1.7,0.3,4.2,0.5,7.2c0.3,6.1,0.5,14.6,0.5,24s0.1,17.8,0.3,24c0.1,3,0.2,5.4,0.2,7.2c0,0.8,0,1.4,0,2
		C565.5,336.5,565.5,336.8,565.4,337z"/>
	<path class="st0" d="M634.3,339.5c-0.2,0-0.5,0-0.7,0l-2,0l-7.4-0.3c-6.2-0.2-14.8-0.4-24.4-0.6s-18.1-0.5-24.4-0.8
		c-3.1-0.2-5.6-0.3-7.4-0.5l-2-0.2c-0.2,0-0.5,0-0.7-0.1c0.2,0,0.5,0,0.7,0l2,0l7.4,0.2c6.2,0.2,14.8,0.4,24.4,0.6
		c9.5,0.2,18.1,0.5,24.4,0.8c3.1,0.2,5.6,0.3,7.4,0.5l2,0.2C633.9,339.4,634.1,339.4,634.3,339.5z"/>
	<path class="st1" d="M17.4,59.2c0,0-9.4,3.8,1.4,23.8s18.3,29.8,18.3,29.8s2,4.6-2,5.5s-12.7-0.3-14.3,4.6
		c-1.7,5.1,2.1,9.7,9.6,13.7s23.6,13.2,25.1,14.1s2.9,3,0.3,4s-22.1,3.5-20.3,12.7s24.5,16.8,26.9,17.7s3.1,1.9,2.9,3.2
		s-6.8,1.6-12.3,2.5s-11.8,3-10.3,8.2s15.1,15.9,47.5,18.2l15.1,0.1l7.9-13c15.2-28.7,13.3-45.9,9.6-49.9s-8.7,0.2-12.4,4.4
		s-7.4,9.7-8.7,9.1s-1.8-1.6-1.2-4.2s6.1-25.8-0.8-32.2S80.2,140.4,78,142s-3.3-0.7-3.2-2.4s0.7-20.2,1.3-28.7s-1.3-14.1-6.5-15.3
		c-5-1.2-8.6,6.8-11.4,9.7s-5.7-1.2-5.7-1.2S48,92.7,36.8,72.9S17.2,59.3,17.2,59.3"/>
	<path class="st0" d="M106,220.8c-8.2-14.6-22.3-40.6-34.5-63s-23.3-42.5-31.4-57.1l-9.6-17.3L28,78.7l-0.7-1.2
		c-0.2-0.3-0.2-0.4-0.2-0.4c0.1,0.1,0.2,0.3,0.3,0.4l0.7,1.2l2.7,4.7c2.3,4,5.7,9.9,9.7,17.2c8.2,14.5,19.3,34.7,31.5,57.1
		s26.3,48.5,34.4,63"/>
	<path class="st0" d="M33,124.9c0.4,0,0.7,0.1,1.1,0.3c0.7,0.2,1.6,0.5,2.8,0.9c2.4,0.8,5.6,2,9.2,3.4l9.1,3.6l2.8,1.1
		c0.3,0.1,0.7,0.3,1,0.4c-0.4,0-0.7-0.1-1.1-0.3c-0.7-0.2-1.6-0.5-2.8-0.9c-2.4-0.8-5.6-2.1-9.2-3.4l-9.1-3.5l-2.8-1
		C33.6,125.3,33.3,125.1,33,124.9z"/>
	<path class="st0" d="M59.9,133.5c-0.1,0,2-6.9,4.8-15.2s5.2-15.1,5.3-15.1s-2,6.9-4.8,15.2S60.1,133.5,59.9,133.5z"/>
	<path class="st0" d="M77.2,168.7c0.2-0.3,0.4-0.7,0.6-0.9l1.7-2.5c1.4-2.1,3.4-5,5.5-8.3s3.9-6.3,5.2-8.6c0.6-1,1.1-1.9,1.5-2.6
		c0.2-0.3,0.4-0.6,0.6-0.9c-0.1,0.3-0.3,0.7-0.4,1c-0.3,0.6-0.8,1.6-1.4,2.7c-1.2,2.3-3,5.3-5.1,8.6s-4.1,6.2-5.7,8.3
		c-0.8,1-1.4,1.9-1.8,2.4C77.7,168.1,77.4,168.4,77.2,168.7z"/>
	<path class="st0" d="M51,166.2c0.3,0,0.7,0,1,0l2.8,0.1c2.4,0.1,5.6,0.4,9.2,0.7s6.8,0.6,9.2,0.8l2.8,0.3c0.3,0,0.7,0.1,1,0.2
		c-0.3,0-0.7,0-1,0l-2.8-0.1c-2.4-0.1-5.6-0.4-9.2-0.7s-6.8-0.6-9.2-0.8l-2.8-0.3C51.7,166.4,51.4,166.3,51,166.2z"/>
	<path class="st0" d="M62.3,199.2c0.4,0,0.9,0,1.3,0l3.6,0.2c3,0.2,7.2,0.4,11.8,0.8s8.8,0.6,11.8,0.9l3.6,0.3
		c0.4,0,0.9,0.1,1.3,0.2c-0.4,0-0.9,0-1.3,0l-3.6-0.2c-3-0.2-7.2-0.4-11.8-0.8s-8.8-0.6-11.8-0.9l-3.5-0.3
		C63.2,199.4,62.7,199.3,62.3,199.2z"/>
	<path class="st0" d="M94.9,201.3c0.2-0.4,0.4-0.8,0.7-1.2c0.5-0.8,1.2-1.9,2.1-3.2c1.7-2.7,4.1-6.5,6.7-10.8s4.7-8.2,6.3-11
		l1.9-3.4c0.2-0.4,0.5-0.8,0.7-1.2c-0.1,0.5-0.3,0.9-0.6,1.3c-0.4,0.8-1,2-1.7,3.4c-1.5,2.9-3.6,6.8-6.2,11.1s-5,8-6.8,10.7
		c-0.9,1.4-1.7,2.4-2.2,3.2C95.5,200.5,95.2,200.9,94.9,201.3z"/>
</g>
<g id="Device--inject-34">
	<path class="st2" d="M545.4,76H120.5c-7.3,0-13.3,5.9-13.3,13.3v300.1c0,7.3,5.9,13.3,13.3,13.3l0,0h163.1c0,0,10.4,32.1-21.8,48.7
		h152.5c0,0-36.3-12.5-27-48.7h158.1c7.3,0,13.3-5.9,13.3-13.2c0,0,0,0,0-0.1V89.2C558.6,81.9,552.7,76,545.4,76
		C545.4,76,545.4,76,545.4,76z"/>
	<path class="st3" d="M338.6,370.3c5.8,8.3-3.3,17.3-11.5,11.5c-0.3-0.2-0.5-0.4-0.7-0.7c-5.8-8.2,3.3-17.3,11.5-11.5
		C338.2,369.8,338.4,370,338.6,370.3z"/>
	<path class="st4" d="M124.2,80.7h417.4c5.4,0,9.7,4.3,9.7,9.7v0V347l0,0H114.5l0,0V90.4C114.5,85.1,118.9,80.7,124.2,80.7z"/>
	<path class="st1" d="M123.6,80.7h420.2c4.2,0,7.5,3.4,7.5,7.5c0,0,0,0,0,0v14.6l0,0H114.5l0,0v-13
		C114.5,84.8,118.6,80.7,123.6,80.7z"/>
	<circle class="st3" cx="128.4" cy="92.3" r="3.1"/>
	<circle class="st3" cx="137.6" cy="92.3" r="3.1"/>
	<path class="st3" d="M149.3,92.3c0,1.7-1.4,3.1-3.1,3.1c-1.7,0-3.1-1.4-3.1-3.1c0-1.7,1.4-3.1,3.1-3.1S149.3,90.6,149.3,92.3
		L149.3,92.3z"/>
	<path class="st3" d="M469.4,401.9c0,0.1-60.5,0.3-135,0.3s-135-0.1-135-0.3s60.5-0.2,135-0.2S469.4,401.8,469.4,401.9z"/>
</g>
<g id="error-400--inject-34">
	<path class="st2" d="M311.1,302.1v1.8h-10.7v-14.7h10.4v1.8h-8.3v4.5h7.4v1.8h-7.4v4.8L311.1,302.1z"/>
	<path class="st2" d="M324.4,303.9l-3.2-4.5c-0.3,0-0.6,0-0.9,0h-3.7v4.5h-2.1v-14.7h5.8c3.8,0,6.1,1.9,6.1,5.1
		c0.1,2.1-1.2,4-3.2,4.6l3.5,5L324.4,303.9z M324.3,294.3c0-2.1-1.4-3.3-4.1-3.3h-3.6v6.6h3.6C322.9,297.7,324.3,296.4,324.3,294.3
		L324.3,294.3z"/>
	<path class="st2" d="M339.7,303.9l-3.2-4.5c-0.3,0-0.6,0-0.9,0H332v4.5h-2.1v-14.7h5.8c3.8,0,6.1,1.9,6.1,5.1
		c0.1,2.1-1.2,4-3.2,4.6l3.5,5L339.7,303.9z M339.6,294.4c0-2.1-1.4-3.3-4.1-3.3h-3.6v6.6h3.6C338.2,297.7,339.6,296.4,339.6,294.4z
		"/>
	<path class="st2" d="M344,296.6c-0.2-4.3,3.2-8,7.5-8.2c4.3-0.2,8,3.2,8.2,7.5c0.2,4.3-3.2,8-7.5,8.2c-0.1,0-0.2,0-0.3,0
		c-4.1,0.2-7.6-3-7.9-7.1C344,296.9,344,296.7,344,296.6z M357.5,296.6c0-3.2-2.5-5.8-5.7-5.8c-3.2,0-5.8,2.5-5.8,5.7
		s2.5,5.8,5.7,5.8c0,0,0.1,0,0.1,0c3.1,0.1,5.6-2.3,5.7-5.3C357.5,296.8,357.5,296.7,357.5,296.6z"/>
	<path class="st2" d="M372.7,303.9l-3.2-4.5c-0.3,0-0.6,0-0.9,0H365v4.5h-2.1v-14.7h5.8c3.8,0,6.1,1.9,6.1,5.1
		c0.1,2.1-1.2,4-3.2,4.6l3.5,5L372.7,303.9z M372.6,294.4c0-2.1-1.4-3.3-4.1-3.3h-3.6v6.6h3.6C371.3,297.7,372.6,296.4,372.6,294.4z
		"/>
	<path class="st0" d="M538.9,230.5c-3.6,22.8-11.5,39.4-23.7,49.7c-12.2,10.3-27.1,14.1-44.8,11.3c-17.7-2.8-30.8-11-39.3-24.6
		c-8.5-13.6-10.9-31.8-7.2-54.6l6.4-40.1c3.6-22.7,11.5-39.3,23.7-49.7c12.2-10.4,27.2-14.2,44.9-11.4c17.7,2.8,30.7,11.1,39.2,24.8
		c8.4,13.7,10.8,31.9,7.2,54.6L538.9,230.5z M516.8,181.2c2.3-14.4,1.6-25.4-2.2-33c-3.7-7.6-10.2-12.2-19.4-13.7
		c-9.2-1.5-16.8,0.9-22.7,7s-9.9,16.4-12.2,30.8l-7.8,48.7c-2.3,14.4-1.6,25.5,2.2,33.2c3.8,7.7,10.2,12.3,19.5,13.8
		c9.2,1.5,16.8-0.9,22.6-7c5.8-6.1,9.9-16.5,12.2-31L516.8,181.2z"/>
	<path class="st5" d="M551.1,222.9c-3.6,22.8-11.5,39.4-23.7,49.7c-12.2,10.3-27.1,14.1-44.8,11.3c-17.7-2.8-30.8-11-39.3-24.6
		c-8.5-13.6-10.9-31.8-7.2-54.6l6.4-40.1c3.6-22.7,11.5-39.3,23.7-49.7c12.2-10.4,27.2-14.2,44.9-11.4c17.7,2.8,30.7,11.1,39.2,24.8
		s10.9,31.9,7.2,54.6L551.1,222.9z M528.9,173.6c2.3-14.4,1.6-25.4-2.2-33s-10.2-12.2-19.4-13.7c-9.2-1.5-16.8,0.9-22.7,7
		s-10,16.4-12.2,30.7l-7.8,48.7c-2.3,14.4-1.6,25.5,2.2,33.2c3.8,7.7,10.2,12.3,19.5,13.8c9.2,1.5,16.8-0.9,22.6-7
		c5.8-6.1,9.9-16.5,12.2-31L528.9,173.6z"/>
	<g class="st6">
		<path d="M551.1,222.9c-3.6,22.8-11.5,39.4-23.7,49.7c-12.2,10.3-27.1,14.1-44.8,11.3c-17.7-2.8-30.8-11-39.3-24.6
			c-8.5-13.6-10.9-31.8-7.2-54.6l6.4-40.1c3.6-22.7,11.5-39.3,23.7-49.7c12.2-10.4,27.2-14.2,44.9-11.4
			c17.7,2.8,30.7,11.1,39.2,24.8s10.9,31.9,7.2,54.6L551.1,222.9z M528.9,173.6c2.3-14.4,1.6-25.4-2.2-33s-10.2-12.2-19.4-13.7
			c-9.2-1.5-16.8,0.9-22.7,7s-10,16.4-12.2,30.7l-7.8,48.7c-2.3,14.4-1.6,25.5,2.2,33.2c3.8,7.7,10.2,12.3,19.5,13.8
			c9.2,1.5,16.8-0.9,22.6-7c5.8-6.1,9.9-16.5,12.2-31L528.9,173.6z"/>
	</g>
	<path class="st5" d="M568,225.6c-3.6,22.8-11.5,39.4-23.7,49.7s-27.1,14.1-44.8,11.3c-17.7-2.8-30.8-11-39.3-24.6
		c-8.5-13.6-10.9-31.8-7.2-54.6l6.4-40.1c3.6-22.7,11.5-39.3,23.7-49.7c12.2-10.4,27.2-14.2,44.9-11.4c17.7,2.8,30.7,11.1,39.2,24.8
		s10.9,31.9,7.2,54.6L568,225.6z M545.8,176.3c2.3-14.4,1.6-25.4-2.2-33s-10.2-12.2-19.4-13.7c-9.2-1.5-16.8,0.9-22.7,7
		c-5.9,6.1-10,16.4-12.2,30.7l-7.8,48.7c-2.3,14.4-1.6,25.5,2.2,33.2c3.7,7.7,10.2,12.3,19.5,13.8c9.2,1.5,16.8-0.9,22.6-7
		c5.8-6.1,9.9-16.5,12.2-31L545.8,176.3z"/>
	<path class="st5" d="M459,169.6c0,0.1-4.1,1-9.3,2s-9.4,1.7-9.4,1.6s4.1-1,9.3-2S459,169.5,459,169.6z"/>
	<path class="st5" d="M457.3,185.6c0,0.1-4.1,1-9.3,2s-9.4,1.7-9.4,1.6s4.1-1,9.3-2S457.3,185.4,457.3,185.6z"/>
	<path class="st5" d="M455.6,201.5c0,0.1-4.1,1-9.3,2s-9.4,1.7-9.4,1.6s4.1-1,9.3-2S455.6,201.4,455.6,201.5z"/>
	<path class="st5" d="M453.9,217.5c0,0.1-4.1,1-9.3,2s-9.4,1.7-9.4,1.6s4.1-1,9.3-2S453.9,217.4,453.9,217.5z"/>
	<path class="st5" d="M452.2,233.5c-0.8,0.3-1.6,0.5-2.5,0.6c-1.5,0.3-3.6,0.8-6,1.2s-4.5,0.9-6,1.1c-0.8,0.2-1.7,0.3-2.5,0.3
		c0.8-0.3,1.6-0.5,2.5-0.6c1.5-0.3,3.6-0.8,6-1.2s4.5-0.9,6-1.1C450.5,233.7,451.4,233.6,452.2,233.5z"/>
	<path class="st5" d="M454.3,248.8c-0.7,0.3-1.4,0.5-2.1,0.6c-1.3,0.3-3.2,0.7-5.2,1.1s-3.9,0.7-5.3,1c-0.7,0.2-1.5,0.3-2.2,0.3
		c0.7-0.3,1.4-0.5,2.1-0.6c1.3-0.3,3.2-0.7,5.2-1.1s3.9-0.7,5.3-1C452.8,248.9,453.6,248.8,454.3,248.8z"/>
	<path class="st5" d="M461.7,263.7c-0.6,0.2-1.3,0.4-1.9,0.5c-1.2,0.3-2.8,0.6-4.7,1s-3.5,0.6-4.7,0.8c-0.7,0.2-1.3,0.2-2,0.2
		c0.6-0.2,1.3-0.4,1.9-0.5c1.2-0.3,2.8-0.6,4.7-1s3.5-0.6,4.7-0.9C460.4,263.7,461.1,263.7,461.7,263.7z"/>
	<path class="st5" d="M476.3,275.1c-0.6,0.2-1.3,0.4-1.9,0.5c-1.2,0.3-2.8,0.6-4.7,1s-3.5,0.6-4.7,0.8c-0.7,0.2-1.3,0.2-2,0.2
		c0.6-0.3,1.2-0.4,1.9-0.5c1.2-0.3,2.8-0.6,4.7-1s3.5-0.6,4.7-0.9C475,275.2,475.7,275.1,476.3,275.1z"/>
	<path class="st5" d="M530.5,249.5c0,0.1-5.4,1.6-12.1,3.4c-6.7,1.8-12.2,3.1-12.2,2.9s5.4-1.6,12.1-3.4
		C525,250.7,530.5,249.4,530.5,249.5z"/>
	<path class="st5" d="M536.1,236.5c0,0.1-4.4,1.4-10,2.8c-5.6,1.4-10.1,2.5-10.1,2.4s4.4-1.4,10-2.8
		C531.6,237.5,536.1,236.4,536.1,236.5z"/>
	<path class="st5" d="M540.2,221.5c0,0.1-4.4,1.4-10,2.8c-5.6,1.4-10.1,2.5-10.1,2.4s4.4-1.4,10-2.8
		C535.7,222.5,540.2,221.4,540.2,221.5z"/>
	<path class="st5" d="M544.3,206.6c0,0.1-4.4,1.4-10,2.8c-5.6,1.4-10.1,2.5-10.1,2.4s4.4-1.4,10-2.8
		C539.8,207.5,544.2,206.5,544.3,206.6z"/>
	<path class="st5" d="M548.4,191.6c0,0.1-4.4,1.4-10,2.8c-5.6,1.4-10,2.5-10.1,2.4c-0.1-0.1,4.4-1.4,10-2.8
		C543.8,192.5,548.3,191.5,548.4,191.6z"/>
	<path class="st5" d="M547.6,177.5c0,0.1-4.4,1.4-10,2.8c-5.6,1.4-10,2.5-10.1,2.4c-0.1-0.1,4.4-1.4,10-2.8
		C543.1,178.5,547.6,177.4,547.6,177.5z"/>
	<path class="st5" d="M550.1,162.9c0,0.1-4.4,1.4-10,2.8c-5.6,1.4-10.1,2.5-10.1,2.4s4.4-1.4,10-2.8
		C545.6,163.9,550.1,162.8,550.1,162.9z"/>
	<path class="st5" d="M550.9,148.9c0,0.1-4.4,1.4-10,2.8c-5.6,1.4-10.1,2.5-10.1,2.4s4.4-1.4,10-2.8
		C546.4,149.9,550.9,148.8,550.9,148.9z"/>
	<path class="st5" d="M539.5,137.1c-4,1.4-8.1,2.4-12.2,3.2c2-0.7,4-1.3,6-1.8C535.3,137.9,537.4,137.5,539.5,137.1z"/>
	<path class="st5" d="M533.5,130.1c-2,0.7-4,1.3-6.1,1.8c-2,0.6-4.1,1.1-6.2,1.4c2-0.7,4-1.4,6-1.8
		C529.3,130.9,531.4,130.4,533.5,130.1z"/>
	<path class="st5" d="M463,150.5c0,0.1-4.1,1-9.3,2s-9.4,1.7-9.4,1.6s4.1-1,9.3-2S463,150.4,463,150.5z"/>
	<path class="st5" d="M471.2,131.6c0,0.1-4.5,1.1-10.1,2.2s-10.1,1.9-10.2,1.8s4.5-1.1,10.1-2.2S471.2,131.5,471.2,131.6z"/>
	<path class="st5" d="M487.2,114.2c0,0.1-5.7,1.3-12.8,2.7s-12.8,2.4-12.8,2.3s5.7-1.3,12.8-2.7S487.2,114.1,487.2,114.2z"/>
	<path class="st0" d="M230.1,223l22.4-1.7l1.8,23.7l-22.4,1.7l3.1,39.4l-29.4,2.3l-3.1-39.4l-61.6,4.8l0.1-26l49.9-116.3l30.4-2.4
		L230.1,223z M153.1,229l47.5-3.7l-5.6-71.8l-0.8-0.2l-2,5.4L153.1,229z"/>
	<path class="st5" d="M216.4,211.5l22.4-1.7l1.9,23.7l-22.4,1.7l3.1,39.4l-29.4,2.3l-3.1-39.4l-76,5.9l-2.1-18l66.4-125.5l30.4-2.4
		L216.4,211.5z M139.4,217.5l47.5-3.7l-5.6-71.8l-0.8-0.2l-2,5.4L139.4,217.5z"/>
	<g class="st6">
		<path d="M216.4,211.5l22.4-1.7l1.9,23.7l-22.4,1.7l3.1,39.4l-29.4,2.3l-3.1-39.4l-76,5.9l-2.1-18l66.4-125.5l30.4-2.4L216.4,211.5
			z M139.4,217.5l47.5-3.7l-5.6-71.8l-0.8-0.2l-2,5.4L139.4,217.5z"/>
	</g>
	<path class="st5" d="M196.9,213l22.4-1.7l1.8,23.7l-22.4,1.7l3.1,39.4l-29.4,2.3l-3.1-39.4l-76,5.9l-2.1-18l66.4-125.5L188,99
		L196.9,213z M119.9,219l47.5-3.7l-5.5-71.9l-0.8-0.2l-2,5.4L119.9,219z"/>
	<path class="st5" d="M148.6,202c-0.3,0.2-0.6,0.4-0.9,0.5c-0.6,0.3-1.5,0.8-2.6,1.3c-2.2,1.1-5.3,2.6-8.8,4.1s-6.6,3-8.9,3.9
		c-1.1,0.5-2.1,0.9-2.7,1.1c-0.3,0.2-0.7,0.3-1,0.4c0.3-0.2,0.7-0.3,1-0.5l2.7-1.2l8.8-4l8.8-4.1l2.6-1.3
		C148,202.2,148.3,202.1,148.6,202z"/>
	<path class="st5" d="M159.3,182.9c-0.3,0.2-0.7,0.4-1,0.5c-0.6,0.3-1.6,0.8-2.7,1.3c-2.3,1.1-5.4,2.5-8.9,4s-6.7,2.8-9,3.8
		c-1.2,0.5-2.1,0.8-2.8,1.1c-0.3,0.1-0.7,0.3-1,0.3c0.3-0.2,0.7-0.3,1-0.5l2.7-1.2l9-3.9l9-3.9l2.7-1.2
		C158.6,183.1,158.9,183,159.3,182.9z"/>
	<path class="st5" d="M214.9,199.7c-0.2,0.2-0.4,0.3-0.7,0.5c-0.5,0.3-1.1,0.7-1.9,1.1c-1.6,0.9-3.9,2.2-6.5,3.6s-4.9,2.5-6.6,3.3
		l-2,1c-0.2,0.1-0.5,0.2-0.8,0.3c0.2-0.2,0.5-0.3,0.7-0.4l2-1.1l6.6-3.4l6.6-3.5l2-1.1C214.4,200,214.6,199.8,214.9,199.7z"/>
	<path class="st5" d="M238.7,213.1c-0.2,0.2-0.4,0.3-0.7,0.5c-0.5,0.3-1.1,0.7-1.9,1.1c-1.6,0.9-4,2.2-6.5,3.6s-4.9,2.5-6.6,3.3
		c-0.9,0.4-1.6,0.7-2,0.9c-0.2,0.1-0.5,0.2-0.8,0.3c0.2-0.2,0.5-0.3,0.7-0.4l2-1.1l6.6-3.4l6.6-3.5l2-1.1
		C238.2,213.3,238.5,213.1,238.7,213.1z"/>
	<path class="st5" d="M239.8,225c-0.2,0.2-0.4,0.3-0.7,0.5c-0.5,0.3-1.1,0.7-1.9,1.1c-1.6,1-4,2.2-6.5,3.6s-4.9,2.5-6.6,3.3
		c-0.9,0.4-1.6,0.7-2,1c-0.2,0.1-0.5,0.2-0.8,0.3c0.2-0.2,0.5-0.3,0.7-0.4l2-1l6.6-3.4l6.6-3.5l2-1.1
		C239.3,225.2,239.5,225.1,239.8,225z"/>
	<path class="st5" d="M218.2,235.7c-0.2,0.2-0.4,0.3-0.7,0.5c-0.4,0.3-1.1,0.7-1.9,1.1c-1.6,0.9-3.8,2.2-6.3,3.5s-4.8,2.5-6.4,3.3
		c-0.8,0.4-1.5,0.7-2,0.9c-0.2,0.1-0.5,0.2-0.8,0.3c0.2-0.2,0.4-0.3,0.7-0.4c0.5-0.3,1.2-0.6,1.9-1l6.4-3.4l6.4-3.5l1.9-1
		C217.7,235.9,217.9,235.8,218.2,235.7z"/>
	<path class="st5" d="M219.1,248.5c-0.2,0.2-0.4,0.3-0.7,0.5c-0.4,0.3-1.1,0.7-1.9,1.1c-1.6,0.9-3.8,2.2-6.3,3.5s-4.8,2.5-6.4,3.3
		c-0.8,0.4-1.5,0.7-2,0.9c-0.2,0.1-0.5,0.2-0.8,0.3c0.2-0.2,0.4-0.3,0.7-0.4l1.9-1l6.4-3.4l6.4-3.5l1.9-1
		C218.6,248.8,218.9,248.6,219.1,248.5z"/>
	<path class="st5" d="M220.1,261.4c-0.2,0.2-0.4,0.3-0.7,0.5c-0.4,0.3-1.1,0.7-1.9,1.1c-1.6,0.9-3.8,2.2-6.3,3.5s-4.8,2.5-6.4,3.3
		c-0.8,0.4-1.5,0.7-2,0.9c-0.2,0.1-0.5,0.2-0.8,0.3c0.2-0.2,0.4-0.3,0.7-0.4l1.9-1l6.4-3.4l6.3-3.5l1.9-1
		C219.6,261.6,219.8,261.5,220.1,261.4z"/>
	<path class="st5" d="M213.9,186.1c-0.2,0.2-0.4,0.3-0.7,0.5c-0.4,0.3-1.1,0.7-1.9,1.1c-1.6,1-3.9,2.2-6.5,3.6s-4.9,2.5-6.6,3.3
		l-2,0.9c-0.2,0.1-0.5,0.2-0.8,0.3c0.2-0.2,0.5-0.3,0.7-0.4l2-1l6.6-3.4l6.6-3.5l2-1.1C213.4,186.4,213.6,186.2,213.9,186.1z"/>
	<path class="st5" d="M212.9,172.5c-0.2,0.2-0.4,0.3-0.7,0.5c-0.4,0.3-1.1,0.7-1.9,1.1c-1.6,0.9-3.9,2.2-6.5,3.6s-4.9,2.5-6.6,3.3
		l-2,1c-0.2,0.1-0.5,0.2-0.8,0.3c0.2-0.2,0.5-0.3,0.7-0.4l2-1.1l6.6-3.4l6.6-3.5l2-1.1C212.4,172.7,212.6,172.6,212.9,172.5z"/>
	<path class="st5" d="M211.4,156.6c-0.2,0.2-0.4,0.3-0.7,0.4c-0.4,0.3-1.1,0.6-1.8,1.1c-1.6,0.9-3.8,2.1-6.2,3.4s-4.7,2.4-6.3,3.2
		c-0.8,0.4-1.5,0.7-1.9,0.9c-0.2,0.1-0.5,0.2-0.7,0.3c0.2-0.2,0.4-0.3,0.7-0.4l1.9-1l6.3-3.2l6.2-3.3c0.8-0.4,1.4-0.7,1.9-1
		C210.9,156.8,211.1,156.7,211.4,156.6z"/>
	<path class="st5" d="M210.5,140.1c-0.2,0.2-0.4,0.3-0.6,0.4c-0.4,0.3-1.1,0.6-1.9,1.1c-1.6,0.9-3.8,2.1-6.2,3.4s-4.7,2.4-6.3,3.2
		c-0.8,0.4-1.5,0.7-1.9,0.9c-0.2,0.1-0.5,0.2-0.7,0.3c0.2-0.2,0.4-0.3,0.7-0.4l1.9-1l6.3-3.2l6.2-3.3c0.8-0.4,1.4-0.7,1.9-1
		C210,140.2,210.3,140.1,210.5,140.1z"/>
	<path class="st5" d="M209.4,123.1c-0.2,0.2-0.4,0.4-0.7,0.5l-1.9,1.2c-1.6,1-3.9,2.3-6.5,3.8s-4.9,2.7-6.7,3.5
		c-0.9,0.4-1.6,0.8-2.1,1c-0.2,0.1-0.5,0.2-0.8,0.3c0.2-0.2,0.5-0.3,0.7-0.4l2-1.1l6.6-3.6l6.6-3.7l2-1.1
		C208.9,123.3,209.2,123.2,209.4,123.1z"/>
	<path class="st5" d="M208.8,106.9c-0.2,0.2-0.5,0.3-0.7,0.4c-0.5,0.3-1.1,0.6-2,1.1c-1.7,0.9-4.1,2.1-6.8,3.5s-5.1,2.4-6.9,3.2
		c-0.9,0.4-1.6,0.7-2.1,0.9c-0.3,0.1-0.5,0.2-0.8,0.3c0.2-0.2,0.5-0.3,0.7-0.4l2.1-1l6.8-3.3l6.8-3.4l2.1-1
		C208.2,107.1,208.5,107,208.8,106.9z"/>
	<path class="st5" d="M164.1,165.2c0.1,0.1-4.4,2.4-10,5.2s-10.1,4.9-10.2,4.8s4.4-2.4,10-5.2S164,165.1,164.1,165.2z"/>
	<path class="st5" d="M162.4,151.4c-1,0.9-2.1,1.6-3.3,2.1c-1.2,0.7-2.4,1.1-3.7,1.4c1.1-0.7,2.3-1.3,3.5-1.8
		C160,152.5,161.2,151.9,162.4,151.4z"/>
	<path class="st0" d="M257.9,226c6.6,14.7,13.8,24.3,29.5,37.4c19,15.9,46.3,21.1,70,13.7s45.6-27.3,52.3-51.1"/>
	<circle class="st5" cx="333.7" cy="183.3" r="87"/>
	<path class="st7" d="M306.7,100.8c-2.8,2.3,1.3,6.9,4,9.3s6.1,5.1,5.7,8.8c-8.9,1.5-18.1,3.2-25.5,8.4c-11,7.7-15.6,21.2-21.4,33.3
		c-3.5,7.4-7.7,14.4-10.9,21.9s-5.4,15.6-4.9,23.7s4.2,16.3,10.9,21c6.7,4.7,16.5,5,22.7-0.2c0.2,2.3,0.4,4.6,0.6,6.9l-2,22.3
		l50.5,3.7l5.8-151.8V96.7C342.3,96.7,312.5,96.2,306.7,100.8z"/>
	<path class="st2" d="M409.9,183.6c-3.6-2.1-7.8-2.5-11.9-2.4c-4.1,0.2-8.2,0.9-12.2,2.2c-3.4,0.9-6.6,2.3-9.6,4.1l0.4,1.2
		c11.1,2.9,22.9,1.6,33.2-3.7c0.3-0.1,1.1-0.5,1.1-0.8S410.1,183.7,409.9,183.6z"/>
	<path class="st2" d="M265,186.2c-0.9,1.4-0.4,3.3,0.3,4.8c0.8,1.4,1.9,2.6,3.2,3.6c3.8,3.1,8.4,5.6,13.4,5.9s10.2-2.1,12.4-6.6
		c0.5-1.1,1.5-2.8,1.5-2.8c-1.2-0.7-2.5-1.4-3.8-1.9c-4.5-1.7-8.6-3.7-13.3-4.5C274,183.9,269.3,184.4,265,186.2"/>
	<path class="st3" d="M393,133c-2.7-3-36.2-15.9-36.2-15.9l-31.7,2.2c0,0-15.5,4-27.1,8.2c-7.1,2.6-12.8,8-15.6,15L265,186.2
		c0,0,2.6-1.5,10-1.4c7.7,0.1,20.7,6.2,20.7,6.2l-8.3,65.7c25.6,17.2,56.3,18.8,86.1,3.8l0.2-9.4l3.2-62.8
		c3.3-4.5,21.4-10.4,33.9-4.2C410.9,184.3,398.7,139.2,393,133z"/>
	<path class="st2" d="M374,148.4c0-0.3,0-0.5,0.1-0.8c0.2-0.7,0.4-1.4,0.6-2.1c0.9-2.2,2.1-4.3,3.7-6.1c1.6-1.8,3.5-3.3,5.6-4.4
		c0.6-0.3,1.3-0.6,2-0.9c0.2-0.1,0.5-0.2,0.8-0.2c0,0.1-1,0.5-2.6,1.4c-4.1,2.4-7.3,6-9.2,10.4C374.4,147.3,374.1,148.4,374,148.4z"
		/>
	<path class="st2" d="M374.1,187.8c-0.1,0-0.2-8.1-0.3-18.2s0-18.2,0.2-18.2s0.2,8.2,0.3,18.2S374.2,187.8,374.1,187.8z"/>
	<path class="st2" d="M299.8,152.4c0.1,0-0.7,8.6-1.8,19.1s-2.2,19-2.3,19s0.7-8.6,1.8-19.1S299.6,152.4,299.8,152.4z"/>
	<path class="st2" d="M361.2,118.8c0,0.2,0,0.4,0,0.6c0,0.6,0,1.2-0.1,1.8c-0.2,2.2-0.8,4.4-1.8,6.4c-1.4,3-3.5,5.7-6.1,7.7
		c-6.7,5-15.8,5.5-23,1.1c-2.8-1.8-5.2-4.2-6.9-7.1c-1.1-1.9-1.9-4-2.4-6.2c-0.1-0.6-0.2-1.2-0.2-1.8c0-0.2,0-0.4,0-0.6
		c0.1,0,0.1,0.9,0.5,2.4c0.5,2.2,1.3,4.2,2.5,6.1c1.7,2.8,4,5.2,6.8,6.9c7,4.2,15.9,3.8,22.5-1.1c2.6-2,4.7-4.6,6.1-7.5
		c0.9-2,1.6-4.1,1.9-6.3C361.1,119.7,361.1,118.8,361.2,118.8z"/>
	<path class="st8" d="M296.2,176.5c-0.3-0.1-0.6-0.2-1-0.3c-0.6-0.2-1.5-0.6-2.5-1c-5.6-2.1-11.4-3.6-17.4-4.3
		c-1.1-0.1-2.1-0.2-2.7-0.3c-0.3,0-0.7-0.1-1-0.1c0.3,0,0.7,0,1,0c0.6,0,1.6,0.1,2.7,0.2c6,0.6,11.9,2,17.4,4.3
		c1.1,0.4,1.9,0.8,2.5,1.1C295.6,176.1,295.9,176.3,296.2,176.5z"/>
	<path class="st8" d="M373.6,173c0,0.1-17-0.3-37.9-1s-37.9-1.3-37.9-1.4s17,0.3,37.9,1S373.6,172.9,373.6,173z"/>
	<path class="st8" d="M403.6,161.3c-0.4,0-0.8,0-1.2,0c-0.8,0-1.9-0.1-3.2-0.1c-7.1,0-14.1,1.6-20.6,4.5c-1.2,0.6-2.2,1-2.9,1.4
		c-0.3,0.2-0.7,0.4-1.1,0.5c0.3-0.2,0.6-0.5,1-0.6c0.6-0.4,1.6-0.9,2.9-1.5c3.2-1.5,6.6-2.7,10.1-3.5c3.5-0.7,7.1-1.1,10.6-1
		c1.1,0,2.2,0.1,3.2,0.2C402.9,161.2,403.2,161.2,403.6,161.3z"/>
	<path class="st8" d="M299.6,149.1c0,0.1-0.9-0.6-2.4-1.5c-1.9-1.2-3.9-2.1-6-2.8c-2.1-0.7-4.3-1.1-6.5-1.4
		c-1.7-0.1-2.8-0.1-2.8-0.2c0.2-0.1,0.5-0.1,0.8-0.1c0.7,0,1.4,0,2,0c2.3,0.1,4.5,0.5,6.6,1.2c2.1,0.7,4.2,1.7,6.1,3
		c0.6,0.4,1.1,0.8,1.6,1.2C299.3,148.7,299.5,148.9,299.6,149.1z"/>
	<path class="st8" d="M368.3,147.6c-0.2,0-0.4,0-0.6,0l-1.9-0.1L359,147c-5.7-0.4-13.7-0.9-22.5-1.2s-16.7-0.5-22.5-0.5l-6.8-0.1
		h-1.9c-0.2,0-0.4,0-0.6,0c0.2,0,0.4,0,0.6,0l1.9-0.1c1.6-0.1,3.9-0.1,6.8-0.1c5.8,0,13.7,0,22.5,0.4s16.7,0.9,22.5,1.4
		c2.9,0.2,5.2,0.5,6.8,0.6l1.9,0.2C367.9,147.6,368.1,147.6,368.3,147.6z"/>
	<path class="st8" d="M320,126.8c-2.5,0.1-5,0-7.5-0.3c-2.5-0.1-5-0.3-7.5-0.7c2.5-0.1,5,0,7.5,0.3C315,126.2,317.5,126.4,320,126.8
		z"/>
	<path class="st8" d="M379.7,125.9c0,0.1-4.4,0.2-9.7,0.2s-9.7-0.1-9.7-0.2s4.4-0.2,9.7-0.2S379.7,125.8,379.7,125.9z"/>
	<path class="st8" d="M374.7,205c0,0-0.1,0-0.2,0h-0.6h-2.3c-2,0-4.9,0-8.5-0.1c-7.2-0.1-17.2-0.5-28.2-1.2s-20.9-1.6-28.1-2.4
		c-3.6-0.4-6.5-0.8-8.5-1l-2.3-0.3l-0.6-0.1l-0.2-0.1h0.2l0.6,0.1l2.3,0.2l8.5,0.9c7.2,0.7,17.1,1.6,28.1,2.3s21,1.1,28.2,1.3
		l8.5,0.2l2.3,0.1h0.6L374.7,205z"/>
	<path class="st8" d="M375.3,232.9l-0.2,0.1l-0.6,0.1l-2.4,0.5c-1.1,0.2-2.4,0.5-3.9,0.7s-3.2,0.5-5.1,0.8s-4,0.5-6.2,0.7
		s-4.7,0.4-7.2,0.5c-5.1,0.3-10.7,0.4-16.5,0.2s-11.4-0.7-16.4-1.4c-2.5-0.4-4.9-0.7-7.1-1.1s-4.3-0.8-6.2-1.2s-3.6-0.8-5.1-1.1
		s-2.8-0.7-3.8-1l-2.4-0.7l-0.6-0.2c-0.1,0-0.1,0-0.2-0.1h0.2l0.6,0.1l2.4,0.6c1,0.3,2.3,0.6,3.8,0.9s3.2,0.7,5.1,1.1s4,0.8,6.2,1.1
		s4.6,0.7,7.1,1c5,0.6,10.6,1.1,16.4,1.3s11.4,0.1,16.5-0.1c2.5-0.2,4.9-0.3,7.2-0.5s4.3-0.4,6.2-0.6s3.6-0.5,5.1-0.7
		s2.8-0.4,3.9-0.6l2.4-0.4l0.6-0.1C375.2,232.9,375.3,232.9,375.3,232.9z"/>
	<path class="st8" d="M373.6,256.8l-0.2,0.1l-0.6,0.2l-2.4,0.7c-0.5,0.1-1.1,0.3-1.8,0.5l-2.1,0.5l-2.5,0.5
		c-0.9,0.2-1.8,0.3-2.8,0.5s-2,0.3-3,0.5l-3.3,0.4l-1.8,0.2l-1.8,0.1l-3.8,0.3c-5.7,0.3-11.3,0.2-17-0.1c-6-0.4-11.7-1.1-16.9-2
		l-3.7-0.7l-1.8-0.4l-1.7-0.4l-3.3-0.8l-3-0.8c-4.1-1.1-8.1-2.5-12-4.2c0.1,0,0.2,0,0.2,0.1l0.6,0.2l2.4,0.9
		c0.5,0.2,1.1,0.4,1.7,0.6l2.1,0.6l2.4,0.8c0.9,0.3,1.8,0.5,2.7,0.8l3,0.8l3.3,0.8l1.7,0.4l1.8,0.3l3.7,0.7c5.1,0.8,10.8,1.5,16.8,2
		c5.6,0.3,11.3,0.4,16.9,0.1l3.8-0.3l1.8-0.1l1.8-0.2l3.3-0.4c1.1-0.1,2.1-0.3,3-0.5s1.9-0.3,2.8-0.5l2.5-0.5l2.1-0.4
		c0.6-0.1,1.2-0.3,1.8-0.5l2.5-0.6l0.6-0.1L373.6,256.8z"/>
	<path class="st9" d="M291.5,223.4c14.4-2.8,27.8-9.3,39-18.8c2-1.7,4.1-3.5,6.7-3.6c2.9-0.1,5.3,2.1,7.5,4
		c8.8,7.5,19.4,12.6,30.8,14.8c1.6-2.6,0.9-6.1-0.9-8.5s-4.5-4-7.1-5.6l-24.6-14.3c-1.9-1.1-3.9-2.2-6-1.9c-1.4,0.3-2.7,1-3.8,1.9
		l-38.4,27c-1.7,1.2-3.6,3.2-2.5,5"/>
	<path class="st10" d="M267.4,185.7c0,0-5.8,17.1-6.6,20.1c-1.6,5.7-0.1,20.7,13.8,20.7c16.9,0,78.6-39.8,78.6-39.8l-12.6-7.6
		l-50,16.3l1.9-5.6C292.6,189.8,278.7,182.6,267.4,185.7z"/>
	<path class="st10" d="M340.9,179.7c0,0,16.5-21.4,16.5-21.7s9.8-8.7,9.8-8.7s2.2,0.1,2,1.5s-3.7,6.4-3.7,6.4
		c-0.4,1.1-1,2.2-1.7,3.1c-1,1.4-5.8,10-5.8,10s4.6-4.4,5.5-4c0.9,0.3,1.4,1.3,1.1,2.3c0,0.1,0,0.1-0.1,0.2
		c-0.5,1.4-4.8,5.7-4.8,5.7s-2.5,8.9-5.4,11.5l-7.1,4.7L340.9,179.7z"/>
	<path class="st11" d="M356.2,174c0.1,0.9-0.1,1.9-0.7,2.6c-0.6,0.8-1.2,1.6-1.8,2.4c-0.7,0.9-1.3,2-1.7,3.1
		c-0.4,1.2-0.7,2.4-1.1,3.5c-0.4,1-0.9,1.8-1.6,2.6c-0.5,0.5-1,0.9-1.7,1.2c-0.2,0.1-0.5,0.2-0.7,0.2c0.8-0.4,1.6-0.9,2.2-1.6
		c0.6-0.8,1.1-1.6,1.4-2.5c0.4-1,0.7-2.2,1.1-3.5c0.4-1.2,1-2.3,1.8-3.3c0.7-0.9,1.4-1.6,1.9-2.3C355.8,175.7,356.1,174.9,356.2,174
		z"/>
	<path class="st11" d="M365.5,157.7c0,0-0.2-0.2-0.5-0.4c-0.5-0.3-1.1-0.4-1.7-0.4c-0.9,0.2-1.7,0.6-2.3,1.3
		c-0.7,0.8-1.4,1.7-2.1,2.7c-1.5,1.9-2.9,3.7-3.9,4.9c-0.5,0.7-1.1,1.4-1.7,2c0.4-0.8,0.9-1.5,1.5-2.1c1-1.3,2.3-3.1,3.8-5
		c0.8-1,1.4-1.9,2.2-2.7c0.7-0.7,1.6-1.2,2.5-1.3c0.7-0.1,1.3,0.1,1.9,0.5C365.4,157.4,365.5,157.7,365.5,157.7z"/>
	<path class="st11" d="M356.4,179c-0.1-0.1,0.5-2,1-4.4s0.6-4.4,0.7-4.4c0.2,1.5,0.1,3-0.3,4.5C357.6,176.2,357.1,177.7,356.4,179z"
		/>
	<path class="st10" d="M404.3,182.2c0,0,6.1,17.3,6.9,20.3c1.3,4.6,0.1,20.7-13.8,20.7c-16.9,0-78.6-39.8-78.6-39.8l11.6-7.9
		l51,16.6l-2-5.8C387,182.2,395.8,180.8,404.3,182.2z"/>
	<path class="st10" d="M331.1,176.3c0,0-16.5-21.4-16.5-21.7s-9.8-8.6-9.8-8.6s-2.2,0.1-2,1.5s3.7,6.4,3.7,6.4
		c0.4,1.1,1,2.2,1.7,3.1c1,1.4,5.8,9.9,5.8,9.9s-4.6-4.4-5.5-3.9c-0.9,0.3-1.4,1.4-1.1,2.3c0,0.1,0,0.1,0.1,0.2
		c0.5,1.4,4.8,5.7,4.8,5.7s2.5,8.9,5.4,11.5l7,4.7L331.1,176.3z"/>
	<path class="st11" d="M315.8,170.6c0.1,0.9,0.5,1.7,1,2.5c0.5,0.7,1.2,1.4,1.9,2.3c0.8,1,1.4,2.1,1.8,3.2c0.4,1.2,0.7,2.4,1.1,3.5
		c0.3,0.9,0.8,1.8,1.4,2.5c0.6,0.7,1.3,1.2,2.2,1.6c-0.3,0-0.5-0.1-0.7-0.2c-0.6-0.3-1.2-0.7-1.7-1.2c-0.7-0.8-1.2-1.6-1.6-2.6
		c-0.4-1.1-0.7-2.3-1.1-3.5c-0.4-1.1-0.9-2.2-1.7-3.1c-0.7-0.8-1.3-1.5-1.8-2.4C315.9,172.5,315.7,171.6,315.8,170.6z"/>
	<path class="st11" d="M306.5,154.4c0,0,0.1-0.3,0.4-0.6c0.5-0.4,1.2-0.6,1.9-0.5c1,0.1,1.9,0.6,2.5,1.4c0.8,0.9,1.5,1.8,2.2,2.7
		c1.5,1.9,2.8,3.7,3.8,5c0.6,0.7,1,1.4,1.5,2.2c-0.6-0.6-1.2-1.3-1.7-2c-1-1.2-2.4-3-3.9-4.9c-0.8-1-1.4-1.9-2.1-2.7
		c-0.6-0.7-1.4-1.2-2.3-1.3c-0.6-0.1-1.2,0-1.7,0.3C306.7,154.2,306.6,154.4,306.5,154.4z"/>
	<path class="st11" d="M315.6,175.7c-1.3-2.7-1.9-5.8-1.7-8.8c0.1,0,0.2,2,0.7,4.4S315.8,175.6,315.6,175.7z"/>
	<path class="st11" d="M345.5,199.6c-0.1,0.1-6.3-3.6-14-8.3s-13.8-8.6-13.8-8.7s6.3,3.6,14,8.3S345.6,199.5,345.5,199.6z"/>
	<path class="st11" d="M382.4,192.5c-0.2,0-0.4-0.1-0.5-0.1l-1.5-0.4l-5.6-1.7c-4.7-1.5-11.2-3.6-18.4-5.9s-13.7-4.5-18.4-6.1
		c-2.3-0.8-4.2-1.5-5.5-2l-1.5-0.6c-0.2-0.1-0.4-0.1-0.5-0.2c0.2,0,0.4,0.1,0.5,0.1l1.5,0.5l5.6,1.8l18.4,6l18.4,6l5.6,1.9l1.5,0.5
		C382.1,192.3,382.3,192.4,382.4,192.5z"/>
	<path class="st10" d="M335.2,43.6L335.2,43.6c-13,0-23.6,10.3-24,23.2c-0.4,11.6-0.7,24.3-0.3,30.5c0.8,12.8,13.7,14.2,13.7,14.2
		v7.8c0,9.1,7.4,16.6,16.5,16.6c0,0,0,0,0,0l0,0c9,0,16.4-7.2,16.5-16.2l1-51.4c0.5-13.1-9.7-24.1-22.8-24.6
		C335.6,43.6,335.4,43.6,335.2,43.6z"/>
	<path class="st11" d="M324.5,111.5c5.9-0.2,11.7-2.1,16.5-5.5c0,0-3.6,9.5-16.5,9V111.5z"/>
	<path class="st2" d="M315.1,74.2c0.2,0.2,1.6-0.8,3.6-0.8s3.4,1,3.6,0.7s-0.1-0.5-0.8-1c-0.9-0.6-1.9-0.9-2.9-0.9
		c-1,0-2,0.3-2.9,0.9C315.2,73.6,315,74.1,315.1,74.2z"/>
	<path class="st2" d="M334.6,73.8c0.2,0.2,1.6-0.8,3.6-0.9s3.4,0.9,3.6,0.7s-0.1-0.5-0.8-1c-0.9-0.6-1.9-0.9-2.9-0.8
		c-1,0-2,0.4-2.8,1C334.6,73.3,334.5,73.7,334.6,73.8z"/>
	<path class="st2" d="M327.2,87.5c-1.1-0.3-2.1-0.4-3.2-0.4c-0.5,0-1-0.1-1.1-0.4c-0.1-0.5,0-1,0.3-1.5c0.4-1.2,0.9-2.5,1.3-3.9
		c1.8-5.6,3.1-10.1,2.9-10.2s-1.9,4.4-3.7,9.9c-0.4,1.4-0.9,2.7-1.2,3.9c-0.3,0.6-0.3,1.3-0.2,2c0.2,0.3,0.5,0.6,0.9,0.7
		c0.3,0.1,0.6,0.1,0.9,0.1C325,87.7,326.1,87.6,327.2,87.5z"/>
	<path class="st2" d="M333.3,69.3c0.3,0.5,2.2-0.2,4.5-0.4s4.3,0,4.5-0.6c0.1-0.2-0.4-0.7-1.2-1c-2.3-0.8-4.8-0.5-6.8,0.8
		C333.5,68.5,333.2,69,333.3,69.3z"/>
	<path class="st2" d="M314.4,69.2c0.2,0.5,1.8,0.4,3.5,0.9s3.1,1.1,3.5,0.7c0.2-0.2,0.1-0.7-0.4-1.2c-1.5-1.5-3.7-2-5.7-1.3
		C314.6,68.5,314.3,68.9,314.4,69.2z"/>
	<path class="st2" d="M334.7,91.7c-0.1,0.1-0.5-0.2-1.3-0.4c-1-0.3-2-0.3-3,0c-1,0.3-1.8,0.9-2.5,1.6c-0.5,0.6-0.8,1.1-0.9,1
		s-0.1-0.6,0.4-1.4c0.6-1,1.6-1.8,2.8-2.1c1.2-0.3,2.4-0.2,3.5,0.3C334.5,91.1,334.8,91.6,334.7,91.7z"/>
	<path class="st2" d="M316.9,75.9c0,1,0.8,1.8,1.8,1.7c1,0,1.8-0.7,1.8-1.7c0,0,0,0,0,0c0-1-0.9-1.8-1.9-1.8
		C317.7,74.2,316.9,74.9,316.9,75.9C316.9,75.9,316.9,75.9,316.9,75.9z"/>
	<path class="st2" d="M336.4,75.4c0,1,0.8,1.8,1.8,1.7c1,0,1.8-0.7,1.8-1.7c0,0,0,0,0-0.1c0-1-0.8-1.8-1.8-1.7
		C337.2,73.6,336.4,74.4,336.4,75.4C336.4,75.4,336.4,75.4,336.4,75.4z"/>
	<path class="st2" d="M366.9,67.6c0.6-0.7,0.9-1.6,0.8-2.6c-0.3-1-1.4-1.6-1.8-2.6s0-2.1,0-3.2c-0.2-1.5-0.9-2.8-2.1-3.8
		c-0.1-0.1-0.2-0.2-0.4-0.3c-0.9-2-2.1-3.9-3.4-5.7l3.3,3.1c1.2-3.2-3.6-8.9-7.5-10.6c-2.7-1-5.6-1-8.3,0c0,0-9.8-7.4-19.4-5
		c-5.9,1.5-11.8,4-15.8,9.9c-1.6,0.9-2.9,2.4-3.4,4.2c-0.7,2.2-0.9,4.6-2,6.6c-0.8,1.5-2.1,3-1.7,4.6c0.3,1.3,1.8,2.2,2.2,3.5
		s-0.2,2.7-0.1,4.1c0.1,2.2,1.7,4,3.8,4.4c0.6-3.5,1-7,1.2-10.5c1.7,1.1,5.2,2.2,12.1-0.2l8.9-5c0,0-4.4,3.8-2.2,4.4
		c1.8,0.6,11.4-4.6,14.2-6.2c0.8-0.5,1.8-0.7,2.8-0.6c1.3,0.1,2.8,0.9,3.1,3.4c0.3,2.2-1,22.6,0.9,22.6c1.1,0,5.1-1.8,5.8-2.2v9.9
		c0.4-0.2,0.7-0.5,0.9-0.9l4.3-6.1c1-1.4,1.9-2.8,2.6-4.4c0.7-1.6,0.9-3.3,0.5-5c-0.3-1.1-1-2.2-0.8-3.4
		C365.8,69.1,366.3,68.3,366.9,67.6z"/>
	<path class="st2" d="M342.9,35.8c0.1-0.3,0.8-0.3,1.7,0.1c2.3,1.2,3.9,3.5,4.1,6.1c0,1-0.2,1.6-0.5,1.6c-0.6,0-1.2-2-2.6-4
		S342.6,36.4,342.9,35.8z"/>
	<path class="st3" d="M310.7,50.2c0.2,0.5,0.6,0.9,1,1.3c1.2,0.9,2.8,1.1,4.2,0.6c1-0.3,1.9-0.8,2.8-1.4c1-0.6,1.9-1.3,3.1-1.9
		c1.2-0.7,2.6-1,4-0.9c1.4,0.3,2.8,0.7,4.1,1.4c1.2,0.7,2.6,1.2,4,1.3c1.3,0.1,2.6-0.3,3.6-1c2.1-1.4,3.5-3.2,5.1-4.4
		c1.2-1,2.7-1.6,4.2-1.8c0.4,0,0.8,0,1.2,0.1c0.3,0.1,0.4,0.2,0.4,0.2c-0.5-0.1-1.1-0.2-1.6-0.1c-1.5,0.2-2.9,0.8-4,1.8
		c-1.5,1.1-2.9,3-5.1,4.5c-1.1,0.8-2.5,1.2-3.9,1.1c-1.4-0.2-2.8-0.7-4.1-1.4c-1.2-0.7-2.6-1.2-4-1.4c-1.3-0.1-2.6,0.2-3.7,0.8
		c-1.1,0.6-2.1,1.3-3.1,1.9c-0.9,0.6-1.9,1-2.9,1.4c-1.5,0.5-3.2,0.2-4.4-0.8c-0.3-0.3-0.6-0.6-0.8-1
		C310.8,50.5,310.7,50.3,310.7,50.2z"/>
	<path class="st3" d="M365.5,59.7c0,0,0,0.1-0.1,0.2c-0.1,0.2-0.3,0.4-0.5,0.6c-0.7,0.6-1.6,0.9-2.5,0.9c-1.3,0-2.6-0.5-3.6-1.4
		c-1.2-1-2.3-2.2-3.3-3.4c-1.8-2.2-3.3-4.6-4.6-7.2c-0.5-1-0.8-1.8-1-2.4c-0.1-0.3-0.2-0.6-0.3-0.9c0.1,0,0.6,1.2,1.6,3.2
		c1.3,2.5,2.9,4.9,4.6,7.1c0.9,1.2,2,2.3,3.2,3.4c0.9,0.8,2.1,1.3,3.4,1.4c0.8,0,1.7-0.2,2.4-0.7C365.1,60.1,365.3,59.9,365.5,59.7z
		"/>
	<path class="st3" d="M365.6,71.4c0,0-0.2,0.1-0.6,0.3c-0.6,0.2-1.2,0.3-1.8,0.3c-2,0-4-0.6-5.6-1.8c-1.6-1.1-3.1-2.5-4.3-4.1
		c-0.5-0.6-1-1.3-1.4-2c0.6,0.5,1.2,1.1,1.7,1.8c1.3,1.5,2.7,2.8,4.3,3.9c1.6,1.1,3.5,1.7,5.4,1.8C364.1,71.6,364.8,71.5,365.6,71.4
		z"/>
	<path class="st10" d="M354.6,74.4c0.2-0.1,8.7-3,8.8,5.8s-8.7,7.1-8.7,6.8S354.6,74.4,354.6,74.4z"/>
	<path class="st11" d="M357.3,83.7c0,0,0.1,0.1,0.4,0.2c0.4,0.1,0.8,0.1,1.1,0c0.9-0.3,1.7-1.8,1.7-3.4c0-0.8-0.1-1.5-0.5-2.2
		c-0.2-0.6-0.6-1-1.2-1.2c-0.4-0.1-0.7,0.1-0.9,0.4c-0.1,0.2-0.1,0.4-0.1,0.4s-0.2-0.1-0.1-0.5c0-0.2,0.2-0.4,0.3-0.6
		c0.2-0.2,0.5-0.3,0.8-0.2c0.7,0.1,1.3,0.6,1.6,1.3c0.4,0.8,0.6,1.6,0.6,2.4c0,1.8-0.9,3.4-2.2,3.8c-0.5,0.1-1,0.1-1.4-0.2
		C357.3,83.9,357.3,83.7,357.3,83.7z"/>
	<path class="st5" d="M271.9,324.7c0,2.5-1.9,3.9-5.5,3.9h-6.9v-14.5h6.5c3.3,0,5.2,1.4,5.2,3.8c0.1,1.4-0.7,2.6-1.9,3.2
		C270.8,321.5,272,323,271.9,324.7z M261.5,315.8v4.6h4.2c2.1,0,3.3-0.8,3.3-2.3s-1.2-2.3-3.3-2.3L261.5,315.8z M269.8,324.5
		c0-1.7-1.2-2.4-3.5-2.4h-4.8v4.8h4.8C268.6,326.9,269.8,326.2,269.8,324.5z"/>
	<path class="st5" d="M284.3,325h-7.7l-1.6,3.6h-2.1l6.5-14.5h2l6.6,14.5h-2.2L284.3,325z M283.6,323.3l-3.1-7.1l-3.1,7.1H283.6z"/>
	<path class="st5" d="M290.2,314.1h6.1c4.6,0,7.8,2.9,7.8,7.2s-3.2,7.2-7.8,7.2h-6.1V314.1z M296.2,326.8c3.6,0,5.9-2.2,5.9-5.4
		s-2.3-5.4-5.9-5.4h-3.9v10.9H296.2z"/>
	<path class="st5" d="M322.5,328.6l-3.1-4.5c-0.3,0-0.6,0-0.9,0h-3.6v4.4h-2.1v-14.4h5.6c3.8,0,6,1.9,6,5c0.1,2.1-1.2,3.9-3.2,4.6
		l3.4,4.9L322.5,328.6z M322.5,319.2c0-2.1-1.4-3.2-4-3.2H315v6.5h3.5C321.1,322.4,322.5,321.2,322.5,319.2L322.5,319.2z"/>
	<path class="st5" d="M338.4,326.8v1.8h-10.5v-14.5h10.2v1.8H330v4.5h7.3v1.8H330v4.7L338.4,326.8z"/>
	<path class="st5" d="M356.6,329.9c-0.9,1.1-2.2,1.7-3.6,1.7c-1.8,0-3.2-0.8-5.3-2.9c-4.1-0.4-7-4.1-6.6-8.2s4.1-7,8.2-6.6
		c3.8,0.4,6.6,3.6,6.6,7.4c0.1,3.4-2.3,6.5-5.7,7.2c0.7,0.9,1.7,1.4,2.8,1.4c1,0,2-0.5,2.6-1.2L356.6,329.9z M348.3,326.9
		c3.1,0,5.5-2.6,5.5-5.6c0-3.1-2.6-5.5-5.6-5.5c-3,0-5.5,2.5-5.5,5.6c-0.1,3,2.3,5.5,5.3,5.6C348,326.9,348.1,326.9,348.3,326.9
		L348.3,326.9z"/>
	<path class="st5" d="M358.9,322.4v-8.2h2.1v8.1c0,3.2,1.5,4.6,4.1,4.6s4.1-1.4,4.1-4.6v-8.1h2v8.2c0,4.2-2.3,6.4-6.1,6.4
		S358.9,326.5,358.9,322.4z"/>
	<path class="st5" d="M385.9,326.8v1.8h-10.5v-14.5h10.2v1.8h-8.1v4.5h7.2v1.8h-7.2v4.7L385.9,326.8z"/>
	<path class="st5" d="M387.9,326.9l0.8-1.6c1.3,1.1,3,1.7,4.8,1.7c2.5,0,3.6-1,3.6-2.2c0-3.5-8.8-1.3-8.8-6.7c0-2.2,1.7-4.1,5.5-4.1
		c1.6,0,3.3,0.4,4.6,1.3l-0.7,1.6c-1.2-0.8-2.6-1.2-4-1.2c-2.5,0-3.5,1-3.5,2.3c0,3.5,8.8,1.3,8.8,6.6c0,2.2-1.8,4.1-5.6,4.1
		C391.4,328.8,389.5,328.2,387.9,326.9z"/>
	<path class="st5" d="M404.7,315.9h-5v-1.8h12v1.8h-5v12.7h-2L404.7,315.9z"/>
</g>
<g id="speech-bubble--inject-34">
	<path class="st8" d="M294.1,87.3l-9.7-17.2c13.3-21.6,6.6-50-15.1-63.3s-50-6.6-63.3,15.1s-6.6,50,15.1,63.3
		c16.3,10,37.1,8.9,52.3-2.8l0,0L294.1,87.3z"/>
	<path class="st2" d="M294.1,87.3l-20.8-4.8c-0.1,0-0.1-0.1-0.1-0.1c0,0,0,0,0,0l0,0l0,0l0.2,0.2c-2.9,2.3-6.1,4.2-9.5,5.7
		c-4,1.8-8.2,3-12.6,3.6c-2.4,0.3-4.8,0.5-7.3,0.4c-1.2-0.1-2.5-0.1-3.8-0.2l-3.9-0.6c-11.6-2.3-21.8-8.9-28.7-18.4
		c-3.8-5.3-6.5-11.3-7.8-17.7c-1.3-6.8-1.1-13.7,0.5-20.4c1.7-7,5.1-13.5,9.8-18.9l1.9-2.1c0.6-0.7,1.4-1.3,2-1.9
		c0.7-0.6,1.4-1.2,2.1-1.8l2.2-1.7c0.7-0.6,1.5-1.1,2.3-1.5l2.3-1.4l2.5-1.2c0.8-0.4,1.6-0.8,2.5-1.1c6.5-2.6,13.5-3.7,20.5-3.2
		c6.6,0.5,13.1,2.4,18.9,5.6c10.4,5.8,18.2,15.4,21.8,26.8c1.4,4.8,2.1,9.9,2,14.9c-0.1,4.4-0.8,8.8-2.2,12.9
		c-1.1,3.5-2.7,6.8-4.6,9.9v-0.1C290.7,81.2,293.7,86.6,294.1,87.3l-9.8-17.1c0,0,0-0.1,0-0.1c1.9-3.1,3.4-6.4,4.5-9.8
		c1.3-4.2,2.1-8.5,2.2-12.9c0.1-5-0.6-10-2-14.8c-3.6-11.3-11.3-20.8-21.7-26.5c-5.8-3.2-12.1-5.1-18.7-5.5
		c-6.9-0.5-13.9,0.6-20.4,3.1c-0.8,0.3-1.6,0.7-2.4,1.1L223.4,6l-2.3,1.4c-0.8,0.4-1.5,0.9-2.3,1.5l-2.2,1.6
		c-0.7,0.6-1.4,1.2-2.1,1.8c-0.7,0.6-1.4,1.2-2,1.9l-1.9,2c-4.7,5.4-8,11.8-9.7,18.7c-1.7,6.6-1.9,13.5-0.6,20.2
		c1.3,6.3,3.9,12.3,7.7,17.6c6.8,9.5,16.9,16,28.4,18.3l3.8,0.6c1.3,0.1,2.5,0.1,3.8,0.2c2.4,0.1,4.8,0,7.2-0.3
		c8-1.1,15.6-4.2,21.9-9.1c0.1,0,0.1,0,0.2,0c0,0,0,0.1,0,0.2l0,0l-0.1-0.2L294.1,87.3z"/>
	<rect x="227" y="42.5" transform="matrix(0.7161 -0.698 0.698 0.7161 37.0778 183.9609)" class="st5" width="35.4" height="7.9"/>
	
		<rect x="240.7" y="28.7" transform="matrix(0.7161 -0.698 0.698 0.7161 37.0731 183.9439)" class="st5" width="7.9" height="35.4"/>
</g>
<g id="Floor--inject-34">
	<path class="st2" d="M674.3,451.7c0,0.1-151,0.3-337.1,0.3S0,451.8,0,451.7s150.9-0.3,337.2-0.3S674.3,451.5,674.3,451.7z"/>
</g>
<g id="Plants--inject-34">
	<path class="st5" d="M47.8,392.3v-11.2c-14,0-11.6-8.6-11.6-37.4c0-19.8,0.6-30.2-7.3-30.2c-7.3,0-9,5.1-9,27.6
		C19.8,382.7,25.4,392.3,47.8,392.3z"/>
	<path class="st5" d="M62.4,427v-11.2c14,0,11.6-8.6,11.6-37.4c0-19.8-0.6-30.2,7.3-30.2c7.3,0,9,5.1,9,27.6
		C90.3,417.4,84.8,427,62.4,427z"/>
	<g class="st12">
		<polygon points="67.2,415.3 69.4,426.6 65.6,426.9 65.1,415.7 		"/>
	</g>
	<path class="st5" d="M55.4,278c-11.1,0-10.2,14.5-10.2,32.2v141.1h20.5V310.2C65.7,292.5,66.5,278,55.4,278z"/>
	<path class="st5" d="M55.4,278c-11.1,0-10.2,14.5-10.2,32.2v141.1h20.5V310.2C65.7,292.5,66.5,278,55.4,278z"/>
	<path class="st2" d="M49.5,451.7c0-0.1,0-0.3,0-0.5c0-0.3,0-0.8,0-1.3v-5.1c0-4.5,0.1-10.8,0.1-18.7c0.2-15.8,0.3-37.6,0.6-61.7
		s0.6-45.9,0.7-61.7c0-4,0.1-7.5,0.3-10.7c0.2-2.7,0.6-5.4,1.2-8c0.4-1.7,0.9-3.3,1.5-4.9c0.2-0.5,0.4-0.9,0.5-1.2s0.2-0.4,0.2-0.4
		l-0.2,0.4c-0.1,0.3-0.3,0.7-0.5,1.2c-0.6,1.6-1,3.2-1.4,4.9c-0.5,2.6-0.9,5.3-1,8c-0.2,3.1-0.2,6.7-0.2,10.6
		c-0.2,15.8-0.3,37.6-0.6,61.8s-0.6,45.9-0.7,61.7c-0.1,7.9-0.2,14.3-0.3,18.7c0,2.2-0.1,3.9-0.1,5.1c0,0.6,0,1,0,1.3
		S49.5,451.7,49.5,451.7z"/>
	<path class="st2" d="M58.7,451.5c0,0,0-0.2,0-0.5s0-0.8,0-1.3c0-1.2,0-2.9,0-5.1c0-4.4,0-10.8,0.1-18.6c0.1-15.8,0.3-37.5,0.5-61.5
		s0.5-45.7,0.6-61.5c0-3.9,0.1-7.5,0-10.6c-0.1-2.7-0.3-5.3-0.7-8c-0.2-1.7-0.6-3.3-1-5c-0.2-0.5-0.3-1-0.3-1.3s-0.1-0.4-0.1-0.4
		c0.8,2.1,1.4,4.4,1.7,6.6c0.4,2.6,0.7,5.3,0.8,8c0.2,3.1,0.2,6.7,0.1,10.6c-0.1,15.8-0.3,37.5-0.5,61.5s-0.5,45.7-0.6,61.5
		c-0.1,7.9-0.2,14.2-0.2,18.6c0,2.2-0.1,3.9-0.1,5.1c0,0.6,0,1,0,1.3S58.7,451.5,58.7,451.5z"/>
	<path class="st2" d="M65.9,426.8c-0.3-1.9-0.5-3.8-0.5-5.7c-0.2-1.9-0.1-3.8,0.1-5.7c0.3,1.9,0.5,3.8,0.4,5.7
		C66.1,423,66.1,424.9,65.9,426.8z"/>
	<path class="st2" d="M81.8,348.3c0,0.3,0.1,0.5,0.1,0.8v2.3c0,2.1,0.1,5,0.1,8.5c0,7.2,0.1,17.2,0.2,28.1c0,5.5,0,10.8-1,15.5
		c-0.7,4.2-2.5,8.2-5.2,11.5c-1.8,2.2-4.1,4-6.8,5.1c-1,0.4-2,0.7-3,0.8c1-0.3,2-0.6,2.9-1c2.6-1.2,4.8-3,6.6-5.2
		c2.6-3.3,4.3-7.2,5-11.3c0.9-4.6,1-9.9,0.9-15.4v-28.1c0-3.6,0-6.5,0.1-8.5c0-1,0-1.7,0-2.3C81.7,348.8,81.7,348.5,81.8,348.3z"/>
	<path class="st2" d="M45.2,380.7c0.3,4.3,0.3,8.6,0,12.9C44.8,389.3,44.8,385,45.2,380.7z"/>
	<path class="st2" d="M28.3,313.5c0,0.3,0,0.5,0,0.8v2.4c-0.1,2.1-0.1,5-0.2,8.7c-0.2,7.3-0.6,17.4-0.5,28.6
		c0.1,5.6,0.1,10.9,1.2,15.6c0.9,4.2,2.7,8.1,5.4,11.4c1.9,2.2,4.3,3.9,7,4.8c1,0.3,2,0.5,3.1,0.7c-1.1,0-2.1-0.1-3.2-0.5
		c-2.8-0.9-5.3-2.5-7.2-4.8c-2.8-3.3-4.7-7.3-5.6-11.5c-1.2-4.8-1.2-10.1-1.3-15.7c-0.1-11.2,0.3-21.3,0.7-28.6
		c0.2-3.6,0.3-6.5,0.4-8.6l0.1-2.4C28.2,314,28.3,313.7,28.3,313.5z"/>
	<g class="st12">
		<path d="M42.4,392.1l0.4-11.5l2.4,0.4v11.3C45.2,392.3,42.8,392.1,42.4,392.1z"/>
	</g>
	<path class="st2" d="M22,351.5c-0.8,0.4-1.6,0.6-2.4,0.6c-0.8,0.2-1.7,0.3-2.5,0.1c0.8-0.4,1.6-0.6,2.4-0.6
		C20.3,351.4,21.2,351.4,22,351.5z"/>
	<path class="st2" d="M21.8,340.4c-0.9,0.1-1.7,0-2.5-0.2c-0.9-0.1-1.7-0.3-2.4-0.8c0.9-0.1,1.7,0,2.5,0.2
		C20.2,339.7,21,340,21.8,340.4z"/>
	<path class="st2" d="M17.3,322.6c0.9,0.1,1.8,0.5,2.5,1.1c1.3,0.8,2.1,1.8,2,1.9c-0.8-0.4-1.6-0.9-2.2-1.5
		C18.8,323.7,18,323.1,17.3,322.6z"/>
	<path class="st2" d="M24.5,311.2c0.6,0.7,1,1.5,1.2,2.4c0.4,0.8,0.7,1.7,0.8,2.6C25.5,314.6,24.8,312.9,24.5,311.2L24.5,311.2z"/>
	<path class="st2" d="M34.7,311.9c-0.3,1.1-0.8,2.1-1.4,3.1c-0.5,1-1.1,2-1.8,2.8C32.2,315.7,33.3,313.7,34.7,311.9z"/>
	<path class="st2" d="M38.1,325.3c-0.7,0.4-1.4,0.7-2.2,0.9c-0.7,0.3-1.5,0.4-2.3,0.4c0.7-0.4,1.4-0.7,2.2-0.9
		C36.6,325.4,37.3,325.2,38.1,325.3z"/>
	<path class="st2" d="M32.4,339.7c-0.1,0.1-0.7-0.4-1.4-1.2s-1.2-1.4-1-1.5s0.8,0.4,1.4,1.2S32.5,339.6,32.4,339.7z"/>
	<path class="st2" d="M37.1,354c-0.1,0.1-1-0.6-2-1.5s-1.8-1.8-1.7-1.9s1,0.6,2,1.5S37.2,353.9,37.1,354z"/>
	<path class="st2" d="M23.3,360.2c0.1,0.1-0.7,1-1.8,2c-0.6,0.7-1.3,1.3-2.2,1.7c-0.1-0.1,0.7-1,1.8-2
		C21.7,361.2,22.4,360.6,23.3,360.2z"/>
	<path class="st2" d="M25,372.8c-0.1,0,0-0.9,0.4-1.9s0.7-1.8,0.9-1.8s0,0.9-0.4,1.9S25.1,372.9,25,372.8z"/>
	<path class="st2" d="M26.3,387.5c0.2-1.1,0.6-2.1,1.1-3.1c0.4-1,0.9-2,1.6-2.9c-0.2,1.1-0.6,2.1-1.1,3.1
		C27.5,385.6,26.9,386.6,26.3,387.5z"/>
	<path class="st2" d="M34.7,394.1c-0.1-1,0-1.9,0.2-2.9c0.1-1,0.3-1.9,0.8-2.8c0.1,1,0,1.9-0.2,2.9
		C35.4,392.3,35.1,393.3,34.7,394.1z"/>
	<path class="st2" d="M39.1,372c-0.8,0.1-1.6,0-2.4-0.3c-0.8-0.1-1.6-0.4-2.3-0.8c0.8-0.1,1.6,0,2.4,0.3
		C37.6,371.4,38.4,371.6,39.1,372z"/>
	<path class="st2" d="M38.1,363.4c-0.7,0.1-1.4,0.1-2-0.1c-1.1-0.2-2-0.5-1.9-0.6s0.9-0.1,2,0.1S38.2,363.3,38.1,363.4z"/>
	<g class="st12">
		<path d="M28.3,314.1c0.4,0,0.6,4.5,0.3,11.6c-0.1,3.6-0.4,7.8-0.7,12.5s-0.6,9.9-0.7,15.3c-0.2,5,0.2,10,1.3,14.9
			c0.5,2.1,1.1,4.2,1.8,6.2c0.7,1.7,1.6,3.4,2.7,4.9c1.6,2.2,3.7,4,6.1,5.2c1.7,0.8,2.8,1.1,2.8,1.3s-1.2,0.2-3.2-0.4
			c-2.8-0.9-5.3-2.7-7.2-5c-1.3-1.6-2.4-3.3-3.2-5.2c-0.9-2.1-1.6-4.3-2.2-6.5c-1.2-5.1-1.7-10.3-1.5-15.6
			c0.1-5.5,0.5-10.7,0.9-15.4s0.8-8.9,1.2-12.5C27.5,318.5,27.9,314.1,28.3,314.1z"/>
	</g>
	<path class="st2" d="M76.1,399.6c-1.5,0.3-3,0.3-4.5,0c0.7-0.3,1.5-0.3,2.3-0.3C74.6,399.2,75.4,399.3,76.1,399.6z"/>
	<path class="st2" d="M76,388.7c-0.7,0.1-1.5,0-2.2-0.2c-1.2-0.2-2.1-0.6-2.1-0.7c0.7-0.1,1.5,0,2.2,0.2
		C74.7,388,75.4,388.3,76,388.7z"/>
	<path class="st2" d="M76.5,376.5c-0.9,0.2-1.7,0.2-2.6,0c-0.9,0-1.7-0.1-2.6-0.5c0.9-0.2,1.7-0.2,2.6,0
		C74.8,376,75.7,376.2,76.5,376.5z"/>
	<path class="st2" d="M74.8,365.7c-0.7,0-1.4-0.3-2-0.6c-1.1-0.5-1.9-1-1.8-1.1c0.7,0,1.4,0.3,2,0.6C74,365.1,74.9,365.6,74.8,365.7
		z"/>
	<path class="st2" d="M75.9,356.6c-0.8-0.2-1.5-0.7-2.1-1.3c-1-0.9-1.7-1.8-1.6-1.9s0.9,0.6,1.9,1.5S75.9,356.5,75.9,356.6z"/>
	<path class="st2" d="M79,349.8c-0.1,0.1-0.7-0.8-1.2-1.8s-0.8-2-0.7-2s0.7,0.8,1.2,1.8S79.2,349.8,79,349.8z"/>
	<path class="st2" d="M88.1,347.4c0.1,0.1-0.4,0.9-1,1.9S86,351,85.9,351s0.1-1,0.8-2S88,347.3,88.1,347.4z"/>
	<path class="st2" d="M92.3,359.4c-1.6,0.7-3.3,0.8-4.9,0.4c0.8-0.2,1.6-0.3,2.4-0.3C90.7,359.3,91.5,359.3,92.3,359.4z"/>
	<path class="st2" d="M92.2,368c0.1,0.1-0.9,0.8-2.1,1.4c-0.7,0.5-1.5,0.8-2.3,1c0.6-0.6,1.3-1.1,2.1-1.4
		C90.6,368.5,91.4,368.2,92.2,368z"/>
	<path class="st2" d="M92.4,382.1c-0.1,0.1-0.9-0.1-1.9-0.6s-1.8-1-1.7-1.1s0.9,0.1,1.9,0.6S92.5,382,92.4,382.1z"/>
	<path class="st2" d="M91.6,389.9c0.1,0.1-0.6,0.6-1.5,1s-1.7,0.7-1.8,0.6s0.6-0.6,1.6-1S91.6,389.7,91.6,389.9z"/>
	<path class="st2" d="M89.5,406.3c-0.1,0.1-0.8-0.5-1.5-1.3s-1.2-1.5-1.1-1.6s0.8,0.5,1.5,1.3C89.1,405.5,89.6,406.2,89.5,406.3z"/>
	<path class="st2" d="M84.2,420.7c-0.3-0.8-0.6-1.7-0.7-2.6c-0.3-0.8-0.5-1.7-0.6-2.6C83.9,417,84.4,418.8,84.2,420.7z"/>
	<path class="st2" d="M74.6,428.1c-0.2-0.8-0.2-1.7-0.1-2.5c0-0.9,0.1-1.7,0.4-2.5C75.2,424.7,75,426.4,74.6,428.1L74.6,428.1z"/>
	<path class="st2" d="M74,411.4c-0.1,0.1-1-0.4-2.1-1s-1.9-1.4-1.8-1.5s1,0.3,2.1,1S74.1,411.3,74,411.4z"/>
	<path class="st2" d="M86.3,385.5c-0.1,0.1-0.8-0.3-1.6-1s-1.3-1.3-1.2-1.4s0.8,0.3,1.6,1S86.4,385.4,86.3,385.5z"/>
	<path class="st2" d="M79.5,367.9c0.1,0.1-0.5,0.9-1.4,1.8s-1.7,1.5-1.8,1.4s0.5-0.9,1.4-1.8S79.4,367.8,79.5,367.9z"/>
	<path class="st2" d="M87,354c0.1,0.1-0.5,0.6-1.4,1.1s-1.6,0.8-1.6,0.6s0.5-0.6,1.4-1.1S86.9,353.9,87,354z"/>
	<path class="st2" d="M79.1,418.2c-0.1,0.1-0.5-0.6-0.9-1.4s-0.5-1.5-0.4-1.6s0.5,0.6,0.9,1.4S79.3,418.2,79.1,418.2z"/>
	<path class="st2" d="M47.6,324.9c-0.9,0.2-1.9,0.2-2.8,0.1c-0.9,0-1.9-0.1-2.8-0.4c0.9-0.2,1.9-0.2,2.8-0.1
		C45.8,324.5,46.7,324.6,47.6,324.9z"/>
	<path class="st2" d="M46.7,308.8c-0.9-0.1-1.8-0.4-2.6-0.8c-0.9-0.3-1.7-0.7-2.4-1.3c0.9,0.1,1.8,0.4,2.6,0.8
		C45.2,307.8,46,308.3,46.7,308.8z"/>
	<path class="st2" d="M48.2,288.9c-1,0.1-2-0.2-2.8-0.8c-0.9-0.4-1.7-1-2.2-1.9c0.1-0.1,1.1,0.7,2.4,1.4S48.2,288.7,48.2,288.9z"/>
	<path class="st2" d="M51.9,279.6c-0.6-0.6-1.2-1.4-1.5-2.2c-0.5-0.8-0.9-1.6-1.1-2.5C50.5,276.2,51.3,277.8,51.9,279.6L51.9,279.6z
		"/>
	<path class="st2" d="M64.6,276.8c-0.4,0.9-0.9,1.7-1.6,2.3c-1,1.2-1.9,2.1-2,2c0.4-0.9,0.9-1.7,1.6-2.3
		C63.6,277.6,64.5,276.7,64.6,276.8z"/>
	<path class="st2" d="M67.8,290.6c0.1,0.1-0.8,0.9-1.9,1.7c-0.6,0.6-1.4,1-2.2,1.2c-0.1-0.1,0.8-0.9,1.9-1.7
		C66.3,291.3,67,290.9,67.8,290.6z"/>
	<path class="st2" d="M69.3,309.7c-1.4,0.7-2.9,1.1-4.4,1.2c0.6-0.4,1.4-0.7,2.1-0.8C67.8,309.8,68.5,309.7,69.3,309.7z"/>
	<path class="st2" d="M68.4,325.9c-0.9,0.2-1.8,0.2-2.7,0.1c-0.9,0-1.8-0.1-2.6-0.4c0.9-0.2,1.8-0.2,2.7-0.1
		C66.7,325.5,67.6,325.6,68.4,325.9z"/>
	<path class="st2" d="M68.7,342.3c-0.7,0.7-1.6,1.3-2.5,1.7c-0.8,0.6-1.8,1-2.8,1.2c0.7-0.7,1.6-1.3,2.5-1.7
		C66.8,343,67.7,342.5,68.7,342.3z"/>
	<path class="st2" d="M46.1,350.3c-1,0.1-1.9-0.1-2.8-0.3c-1-0.1-1.9-0.4-2.7-0.9c1-0.1,1.9,0.1,2.8,0.3
		C44.3,349.5,45.3,349.8,46.1,350.3z"/>
	<path class="st2" d="M46.6,364.5c0.1,0.1-0.9,1.1-2.2,2.1c-0.7,0.7-1.6,1.3-2.5,1.7c0.6-0.8,1.3-1.5,2.2-2.1
		C44.9,365.5,45.7,365,46.6,364.5z"/>
	<path class="st2" d="M47,407.2c-1-0.5-2-1.2-2.8-2c-0.9-0.7-1.8-1.5-2.5-2.4c1,0.5,2,1.2,2.8,2C45.5,405.4,46.3,406.2,47,407.2z"/>
	<path class="st2" d="M46.4,419.2c0.1,0.1-0.7,0.9-1.7,1.8c-0.6,0.6-1.3,1.1-2.1,1.4c-0.1-0.1,0.7-0.9,1.7-1.8
		C45,420,45.6,419.5,46.4,419.2z"/>
	<path class="st2" d="M67.5,392.4c0.1,0.1-0.9,1-2.2,2c-0.7,0.7-1.6,1.2-2.5,1.5c0.6-0.8,1.4-1.5,2.2-2
		C65.8,393.3,66.6,392.8,67.5,392.4z"/>
	<path class="st2" d="M67.9,371.9c-0.6,0.8-1.5,1.3-2.4,1.6c-0.9,0.4-1.9,0.6-2.9,0.5c0.9-0.4,1.8-0.7,2.7-0.9
		C66.1,372.6,67,372.3,67.9,371.9z"/>
	<path class="st2" d="M68.2,356.9c-0.8,0-1.6-0.3-2.3-0.6c-0.8-0.2-1.5-0.6-2.1-1.1c0.8,0,1.6,0.3,2.3,0.6
		C66.8,356,67.5,356.4,68.2,356.9z"/>
	<path class="st2" d="M69.3,432.9c-0.8,0.7-1.7,1.2-2.7,1.5c-0.9,0.5-1.9,0.9-2.9,1.1c0.8-0.7,1.7-1.2,2.7-1.5
		C67.3,433.5,68.3,433.1,69.3,432.9z"/>
	<path class="st2" d="M46.4,337.9c-1-0.6-2-1.3-2.8-2.2c-0.9-0.7-1.8-1.6-2.5-2.5c1,0.6,2,1.3,2.8,2.1
		C44.9,336.1,45.7,336.9,46.4,337.9z"/>
	<path class="st2" d="M69.9,330.3c-0.7,0.7-1.5,1.4-2.3,1.8c-0.8,0.6-1.7,1.1-2.6,1.4c0.7-0.7,1.5-1.4,2.3-1.8
		C68.1,331,68.9,330.6,69.9,330.3z"/>
	<path class="st2" d="M45.8,298.3c0,0.1-1,0.1-2.1,0c-0.7,0-1.4-0.2-2-0.5c0.7-0.2,1.4-0.2,2.1,0C44.5,297.7,45.2,297.9,45.8,298.3z
		"/>
	<path class="st2" d="M68.1,299.4c0,0.1-0.8,0.6-2,1c-0.7,0.3-1.4,0.5-2.1,0.5c-0.1-0.1,0.8-0.6,2-1
		C66.7,299.6,67.4,299.4,68.1,299.4z"/>
	<path class="st2" d="M56.4,334.4c-0.4,0.9-0.9,1.7-1.6,2.4c-1,1.2-1.9,2.1-2,2c0.4-0.9,0.9-1.7,1.6-2.4
		C55.4,335.2,56.3,334.3,56.4,334.4z"/>
	<path class="st2" d="M56.4,319.1c-0.1,0.1-1-0.5-1.8-1.6c-0.5-0.6-0.8-1.4-0.8-2.2c0.1,0,0.5,0.9,1.3,1.9S56.5,319,56.4,319.1z"/>
	<path class="st2" d="M56.1,297.4c0.1,0.1-0.7,0.9-1.5,2s-1.3,2.1-1.4,2.1c0.1-0.9,0.4-1.7,1-2.4C55,297.9,56,297.3,56.1,297.4z"/>
	<path class="st2" d="M54.4,356.4c0-0.7,0.2-1.5,0.5-2.1c0.2-0.7,0.5-1.4,1-2c0,0.7-0.2,1.5-0.5,2.1
		C54.9,355.5,54.5,356.4,54.4,356.4z"/>
	<path class="st2" d="M51.1,387.8c-0.8-1-1.4-2.1-1.9-3.2c-0.6-1.1-1.1-2.3-1.4-3.5c0.8,1,1.4,2.1,1.8,3.2
		C50.3,385.4,50.7,386.6,51.1,387.8z"/>
	<path class="st2" d="M56.9,392.7c-0.4,1.3-1,2.6-1.7,3.8c-0.6,1.3-1.3,2.5-2.2,3.5c0.4-1.3,1-2.6,1.7-3.8
		C55.3,395,56.1,393.8,56.9,392.7z"/>
	<path class="st2" d="M56.6,426.3c-0.8-0.9-1.4-2-1.9-3.1c-0.6-1-1.1-2.2-1.4-3.3c0.8,0.9,1.4,2,1.9,3.1
		C55.9,424,56.3,425.1,56.6,426.3z"/>
	<path class="st2" d="M54.6,436.5c-0.3,0.9-0.7,1.7-1.2,2.4c-0.8,1.2-1.6,2.1-1.7,2c0.3-0.9,0.7-1.6,1.3-2.3
		C53.8,437.3,54.5,436.4,54.6,436.5z"/>
	<g class="st12">
		<path d="M59.3,281.1c0.7,0,1.3,38,1.3,84.9s-0.6,84.9-1.3,84.9s-1.3-38-1.3-84.9S58.6,281.1,59.3,281.1z"/>
	</g>
	<g class="st12">
		<path d="M82.9,349.6c0.3,0,0.8,4.3,1,11.4s0.2,16.7,0.4,27.4c0.2,5.1-0.3,10.3-1.3,15.3c-0.5,2.2-1.2,4.4-2.2,6.5
			c-0.8,1.8-1.8,3.5-2.8,5.1c-0.9,1.4-2.1,2.7-3.5,3.6c-1.1,0.7-2.2,1.2-3.4,1.5c-2,0.5-3.1,0.5-3.1,0.4s1-0.5,2.8-1.3
			c1-0.4,2-1,2.9-1.7c1.1-1,2.1-2.1,2.8-3.4c0.9-1.6,1.7-3.3,2.4-5c0.8-2,1.4-4,1.8-6.1c0.9-4.9,1.2-9.8,1.1-14.7
			C81.4,377.7,81.8,368,82,361S82.5,349.6,82.9,349.6z"/>
	</g>
	<path class="st5" d="M619.4,371c-3.1-1.4-5.6-3.9-7-7c-0.6-1.3-0.6-3.3,0.8-3.6c0.8-0.2,1.6,0.5,2.2,1.1l6.1,6.1
		c-1.2-3.2-1.1-6.8,0.4-9.9c0.5-1.1,1.6-2.3,2.8-1.9c0.9,0.3,1.2,1.4,1.3,2.4c0.5,2.9,1,5.8,1.5,8.8c0.8-3.4,2.5-6.6,4.8-9.2
		c0.8-1,2.2-1.9,3.3-1.2s0.9,2,0.7,3.1c-0.5,2.7-1.3,5.4-2.3,8c2.6-2.3,6-3.7,9.5-3.8c1-0.2,2.1,0.2,2.8,0.9c1,1.2,0.1,3-0.9,4.1
		c-3,3.4-10,4.3-14.5,4"/>
	<path class="st3" d="M646.5,378.2c-11-8.6-30.2-9.8-42.9-4c-14.3,6.5-23.7,21.8-25.1,36.4c-1.3,13.9,5.3,27.9,11,40.7l55.3,0.3
		c6.6-11,13.5-23.2,14-36S656.6,386.1,646.5,378.2z"/>
	<path class="st2" d="M621.7,370.6l-0.2,0.1l-0.7,0.2l-1.2,0.3c-0.5,0.1-1.1,0.2-1.6,0.4c-3.3,1-6.5,2.5-9.4,4.5
		c-4.2,3-7.8,6.8-10.7,11.1c-1.7,2.6-3.2,5.2-4.5,8c-1.4,3-2.5,6.1-3.4,9.2c-1.7,6.1-2,12.5-0.9,18.7c0.9,5.1,2.3,10.1,4.2,14.9
		c1.5,4.1,2.9,7.5,3.8,9.8c0.4,1.1,0.8,2,1,2.6c0.1,0.3,0.2,0.5,0.3,0.7c0.1,0.2,0.1,0.2,0.1,0.2s0-0.1-0.1-0.2l-0.3-0.7
		c-0.3-0.6-0.6-1.5-1.1-2.6c-1-2.3-2.4-5.6-4-9.7c-1.9-4.8-3.4-9.9-4.3-15c-1.1-6.3-0.8-12.8,0.9-19c0.9-3.2,2.1-6.3,3.5-9.3
		c1.3-2.8,2.8-5.4,4.5-8c2.9-4.3,6.6-8.1,10.9-11.1c2.9-2,6.1-3.5,9.5-4.4c0.5-0.2,1.1-0.3,1.6-0.4l1.2-0.2l0.7-0.1
		C621.5,370.6,621.6,370.6,621.7,370.6z"/>
	<path class="st2" d="M637.8,451c0.1-0.3,0.2-0.6,0.3-0.8l0.8-2.3c0.7-2,1.8-5,3-8.6s2.6-8,3.8-12.9c1.4-5.3,2.2-10.8,2.5-16.3
		c0.2-5.5-0.3-11-1.7-16.3c-1.1-4.4-2.8-8.5-5.2-12.3c-1.6-2.6-3.5-5-5.7-7.1c-0.7-0.8-1.4-1.3-1.8-1.7c-0.2-0.2-0.4-0.4-0.6-0.6
		c0.2,0.2,0.5,0.3,0.7,0.5c0.4,0.4,1.1,0.8,1.9,1.6c2.2,2.1,4.2,4.4,5.8,7c2.4,3.8,4.2,8,5.3,12.4c1.4,5.4,2,10.9,1.7,16.5
		c-0.3,5.5-1.1,11-2.5,16.4c-1.2,4.9-2.7,9.3-4,12.9c-1.3,3.6-2.4,6.5-3.2,8.5c-0.4,1-0.7,1.7-0.9,2.3
		C638,450.5,637.9,450.7,637.8,451z"/>
	<path class="st2" d="M627.1,370.9c0,0.3-0.1,0.5-0.2,0.8c-0.2,0.6-0.4,1.3-0.7,2.3s-0.7,2.2-1.1,3.6c-0.4,1.4-0.9,3-1.4,4.8
		c-1,3.6-2.1,7.9-3.2,12.7s-2.1,10.1-2.9,15.7s-1.4,11-1.7,15.9c-0.1,2.5-0.3,4.8-0.3,7c0,1.1-0.1,2.1-0.1,3.2s0,2,0,2.9
		c0,1.9,0.1,3.5,0.1,5c0.1,1.5,0.1,2.8,0.2,3.8c0.1,1,0.1,1.8,0.1,2.4c0,0.3,0,0.6,0,0.8c-0.1-0.3-0.1-0.6-0.1-0.8
		c0-0.6-0.1-1.4-0.2-2.4s-0.2-2.3-0.3-3.8c-0.1-1.5-0.2-3.2-0.2-5c0-0.9,0-1.9,0-2.9s0-2.1,0-3.2c0-2.2,0.2-4.5,0.3-7
		c0.3-4.9,0.8-10.3,1.7-16s1.9-11,3-15.8s2.2-9.1,3.3-12.7c0.5-1.8,1-3.4,1.5-4.8s0.8-2.6,1.2-3.6c0.4-1,0.6-1.7,0.8-2.3
		C626.9,371.4,627,371.1,627.1,370.9z"/>
	<path class="st2" d="M580.3,414.9c-1.2,0.8-2.4,1.5-3.8,2c-1.3,0.7-2.6,1.2-4,1.5c1.2-0.8,2.4-1.5,3.8-2
		C577.6,415.8,578.9,415.3,580.3,414.9z"/>
	<path class="st2" d="M582.1,399c-2.8-1.2-5.5-2.8-8-4.6c1.5,0.5,2.9,1.2,4.2,2.1C579.6,397.2,580.9,398.1,582.1,399z"/>
	<path class="st2" d="M592.2,385.9c-1.4-2.1-2.4-4.3-3.2-6.7C590.3,381.3,591.4,383.5,592.2,385.9z"/>
	<path class="st2" d="M606,373.5c-0.8-0.6-1.5-1.4-2-2.3c-0.7-0.8-1.2-1.6-1.6-2.6c0.8,0.6,1.5,1.4,2,2.3
		C605.1,371.7,605.6,372.6,606,373.5z"/>
	<path class="st2" d="M586.6,434.3c-1.2,0.9-2.5,1.7-3.9,2.4c-1.3,0.8-2.7,1.4-4.1,1.9C581.1,436.9,583.8,435.5,586.6,434.3
		L586.6,434.3z"/>
	<path class="st2" d="M603.1,424.7c-2.4-1-4.7-2.3-6.8-3.8c1.2,0.4,2.4,1,3.5,1.7C601,423.1,602.1,423.8,603.1,424.7z"/>
	<path class="st2" d="M607.7,402.6c-2.1,1.5-4.6,2.4-7.1,2.8c1.1-0.6,2.3-1.1,3.5-1.5C605.2,403.4,606.4,402.9,607.7,402.6z"/>
	<path class="st2" d="M612.9,386c-0.7-0.8-1.2-1.7-1.4-2.7c-0.4-0.9-0.6-2-0.5-3c0.4,0.9,0.8,1.9,1,2.8
		C612.4,384,612.7,385,612.9,386z"/>
	<path class="st2" d="M601.2,446.3c0.8-2.5,2-5,3.4-7.2c-0.3,1.3-0.8,2.5-1.5,3.7C602.7,444.1,602,445.3,601.2,446.3z"/>
	<path class="st2" d="M629.1,440.4c-1.2-0.8-2.3-1.7-3.2-2.9c-1-1.1-1.8-2.3-2.3-3.6c0.1-0.1,1.2,1.5,2.8,3.3
		C627.2,438.2,628.2,439.3,629.1,440.4z"/>
	<path class="st2" d="M638.7,416.1c-1.2,1-2.5,1.8-3.8,2.5c-1.3,0.8-2.7,1.5-4.1,2.1c1.2-1,2.5-1.8,3.9-2.5
		C635.9,417.3,637.3,416.6,638.7,416.1z"/>
	<path class="st2" d="M632.2,401.2c0.9-1.2,1.9-2.2,3-3.2c1-1.1,2.1-2,3.3-2.8C636.7,397.4,634.6,399.4,632.2,401.2L632.2,401.2z"/>
	<path class="st2" d="M632.5,385.3c-1.1-0.6-2.1-1.3-3-2.1c-1-0.7-1.9-1.6-2.7-2.5C629,381.9,630.9,383.5,632.5,385.3L632.5,385.3z"
		/>
	<path class="st2" d="M651,374.8c-1.9,1.7-4,3-6.3,4.1C646.5,377.3,648.7,375.9,651,374.8z"/>
	<path class="st2" d="M658.1,389.3c-2.1,0.5-4.2,0.6-6.4,0.5C653.8,389.3,655.9,389.1,658.1,389.3z"/>
	<path class="st2" d="M662.7,406.5c-1.3,0.1-2.7,0.1-4-0.1c-1.4,0-2.7-0.3-4-0.6c1.3-0.1,2.7-0.1,4,0.1
		C660,405.9,661.4,406.1,662.7,406.5z"/>
	<path class="st2" d="M660.4,428.7c-1.4-1-2.6-2.1-3.7-3.4c-1.2-1.1-2.4-2.4-3.3-3.7C655.9,423.7,658.3,426.1,660.4,428.7
		L660.4,428.7z"/>
	<path class="st2" d="M654.3,445.8c-1.4-1-2.7-2.2-3.7-3.6c-1.2-1.3-2.2-2.7-2.9-4.3c0.1-0.1,1.5,1.8,3.3,4S654.5,445.7,654.3,445.8
		z"/>
	<g class="st12">
		<path d="M633.2,372.1c0.1-0.1,1.2,0.4,3,1.6c2.5,1.8,4.8,4,6.7,6.5c2.8,3.7,4.9,8,6.1,12.5c1.5,5.5,2.2,11.1,2.1,16.8
			c-0.1,5.7-0.8,11.3-2.3,16.8c-1.1,4.4-2.6,8.8-4.4,13c-3.1,7.2-5.7,11.3-6,11.1c-0.3-0.2,1.6-4.5,4.2-11.8s5.7-17.5,5.8-29.1
			c0.1-5.4-0.5-10.8-1.8-16.1c-1.1-4.3-2.9-8.4-5.3-12c-1.7-2.5-3.6-4.8-5.8-6.8C634,373.1,633.1,372.2,633.2,372.1z"/>
	</g>
	<g class="st12">
		<path d="M626.7,370.1c0.4,0.1-0.4,4.6-1.7,12s-3.4,17.3-5.1,28.5c-0.8,5.6-1.5,10.9-2,15.8c-0.2,2.4-0.4,4.8-0.6,6.9
			s-0.3,4.2-0.3,6c-0.3,7.4-0.2,12-0.7,12s-1-4.6-1.2-12c0-1.9,0-3.9,0-6.1s0.2-4.5,0.3-7c0.4-4.9,1-10.3,1.8-16
			c1.7-11.3,4-21.3,5.8-28.6S626.3,370,626.7,370.1z"/>
	</g>
	<g class="st12">
		<path d="M620.2,369.5c0,0.2-1.2,0.7-3.5,1.7c-3.1,1.4-6.1,3.1-8.9,5.1c-9.2,6.5-15.7,16.3-18.1,27.4c-0.7,3.1-1,6.3-1,9.5
			c0,3,0.2,6,0.7,8.9c0.8,5,2,10,3.6,14.8c1.3,4.2,2.6,7.5,3.4,9.8c0.8,2.3,1.2,3.6,1,3.7s-0.9-1.1-2-3.3s-2.6-5.5-4.2-9.6
			c-1.9-4.9-3.3-9.9-4.2-15.1c-0.5-3.1-0.8-6.2-0.8-9.3c0-3.4,0.3-6.7,1-10c1.4-6.4,4.1-12.4,8-17.6c3.2-4.2,7.1-7.9,11.6-10.7
			c3-1.9,6.2-3.4,9.6-4.5C618.8,369.5,620.2,369.4,620.2,369.5z"/>
	</g>
</g>
</svg>
