<?xml version="1.0" encoding="utf-8"?>
<!-- Generator: Adobe Illustrator 24.1.3, SVG Export Plug-In . SVG Version: 6.00 Build 0)  -->
<svg version="1.1" id="Layer_1" xmlns="http://www.w3.org/2000/svg" xmlns:xlink="http://www.w3.org/1999/xlink" x="0px" y="0px"
	 viewBox="0 0 469.9 444.2" style="enable-background:new 0 0 469.9 444.2;" xml:space="preserve">
<style type="text/css">
	.st0{fill:#FFFFFF;}
	.st1{fill:#EBEBEB;}
	.st2{fill:#F5F5F5;}
	.st3{fill:#E0E0E0;}
	.st4{fill:#0061F2;}
	.st5{opacity:0.3;}
	.st6{fill:#263238;}
	.st7{fill:#455A64;}
	.st8{fill:#FAFAFA;}
	.st9{fill:none;}
	.st10{opacity:0.4;}
	.st11{opacity:0.5;}
	.st12{fill:#FFBE9D;}
	.st13{fill:#EB996E;}
	.st14{opacity:0.6;}
</style>
<g id="background-complete--inject-1">
	<circle class="st0" cx="410.7" cy="119.4" r="44"/>
	<path class="st1" d="M410.7,163.9c-24.6,0-44.5-19.9-44.5-44.5c0-24.6,19.9-44.5,44.5-44.6c24.6,0,44.5,19.9,44.5,44.5c0,0,0,0,0,0
		C455.2,143.9,435.3,163.9,410.7,163.9z M410.7,75.8c-24,0-43.5,19.5-43.5,43.5c0,24,19.5,43.5,43.5,43.6c24,0,43.5-19.5,43.6-43.5
		c0,0,0,0,0,0C454.1,95.4,434.7,75.9,410.7,75.8L410.7,75.8z"/>
	<path class="st1" d="M431.5,116.2c-0.8-1.5-2.7-2.1-4.2-1.3c-0.3,0.1-0.5,0.3-0.7,0.6c-0.7,0.9-1.2,1.8-1.6,2.9
		c-1.1,2.6-2.1,5.2-3.2,7.8c-0.1,0.3-0.5,0.5-0.7,0.7c-0.1-0.3-0.4-0.6-0.4-0.9c-0.1-1.5-0.1-3.1-0.1-4.6c0-3,0-6,0-9.1
		c0-5.1,0-10.2,0-15.3c0-0.6-0.2-1.1-0.5-1.6c-0.8-1-2.2-1.4-3.3-0.9c-1.1,0.4-1.8,1.5-1.8,2.7c0,5.4,0,10.8,0,16.2
		c0,0.2,0,0.5,0,0.8c-0.1,0.2-0.3,0.4-0.5,0.4c-0.2,0-0.4-0.2-0.5-0.4c0-0.2,0-0.5,0-0.8V94.6c0-0.4,0-0.8,0-1.2
		c0-1-0.8-1.9-1.8-2.1c-1.5-0.6-3.2,0.2-3.7,1.6c-0.2,0.4-0.2,0.9-0.2,1.4c0,6.2,0,12.4,0,18.5c0,0.4,0,0.7,0,1.1
		c-0.1,0.2-0.2,0.4-0.5,0.4c-0.2,0-0.4-0.2-0.5-0.4c-0.1-0.3-0.1-0.7-0.1-1c0-4.9,0-9.9,0-14.8c-0.1-1.6-1.4-2.8-3-2.7
		c-1.4,0.1-2.6,1.2-2.7,2.7c0,5.3,0,10.5,0,15.8c0,0.3,0,0.6,0,0.9c-0.1,0.3-0.3,0.5-0.5,0.7c-0.2-0.2-0.6-0.5-0.6-0.8
		c0-1.9,0-3.8,0-5.7s0-4,0-6.1c0-1.5-1.2-2.6-2.7-2.6c-0.1,0-0.1,0-0.2,0c-1.4,0-2.5,1-2.5,2.4c0,0.1,0,0.1,0,0.2
		c-0.1,4-0.2,7.9-0.3,11.9l0,0c0,2.4,0,4.8-0.1,7.2c-0.3,4.8,0.3,9.6,1.9,14.2c1.4,4.2,4.7,7.4,9,8.5c4.6,1.3,9.5,0.8,13.7-1.5
		c3-1.4,5.3-3.9,6.5-6.9c2.2-5.9,4.2-11.9,6.2-17.9C431.8,117.8,431.8,117,431.5,116.2z"/>
	<path class="st1" d="M74.2,58.7l-1.3-6c-2.6-10.8-13.5-17.4-24.3-14.8c-10.5,2.6-17.1,13-14.9,23.6l1.3,6.1c-5.2,2-8.2,7.6-6.9,13
		l8,35.3c1.4,6.1,7.4,9.9,13.5,8.5c0,0,0,0,0,0l36.6-8.3c6.1-1.4,9.9-7.4,8.5-13.5l-8-35.3C85.3,61.7,79.9,57.9,74.2,58.7z
		 M68.3,99.3l-9.6,2.2l-0.1-7.2c-3.1-1.1-4.8-4.5-3.7-7.6c1.1-3.1,4.5-4.8,7.6-3.7c3.1,1.1,4.8,4.5,3.7,7.6
		c-0.3,0.8-0.7,1.6-1.3,2.2C66.3,95.2,68.3,99.3,68.3,99.3z M69.9,59.6l-30.8,7l-1.3-6c-1.9-8.5,3.4-17,11.9-18.9s17,3.4,18.9,11.9
		L69.9,59.6z"/>
	<path class="st2" d="M135.7,20.5l1.2-3.7c2.2-6.8-1.6-14-8.4-16.2s-14,1.6-16.2,8.4l-1.3,3.8c-3.5-0.6-6.9,1.5-8,4.9l-7,22.1
		c-1.2,3.8,0.9,7.9,4.7,9.1c0,0,0,0,0,0l22.9,7.3c3.8,1.2,7.9-0.9,9.1-4.7l7-22.1C140.9,25.8,139.2,22,135.7,20.5z M119.3,41.1
		l-6-1.9l2.3-4c-1.4-1.6-1.2-4,0.4-5.4c1.6-1.4,4-1.2,5.4,0.4s1.2,4-0.4,5.4c-0.4,0.4-0.9,0.6-1.4,0.8
		C119.5,38.2,119.3,41.1,119.3,41.1z M133.1,19.7l-19.3-6.1l1.2-3.7c1.9-5.3,7.7-8,12.9-6.1c5,1.8,7.7,7.1,6.4,12.2L133.1,19.7z"/>
	<path class="st1" d="M410.8,383.9c1.9,2.7,2.6,6,2,9.2c-0.6,3.2-2,6.2-3.9,8.8c-3.6,5.1-9.8,8.9-15.5,11.4
		c-2.3-6.5,0.5-14.1,2.1-17.8C398.2,389.5,406.6,380.4,410.8,383.9"/>
	<path class="st1" d="M393.8,425.2c1.1-3.5,4-6.1,7.6-6.9c3.6-0.7,7.3,0.1,10.3,2.1c1.4,0.9,2.7,2.2,2.9,3.9
		c0.1,1.6-0.7,3.1-2.1,3.9c-1.4,0.8-2.9,1.2-4.5,1.2C402.8,429.7,397.5,429,393.8,425.2"/>
	<path class="st3" d="M381.4,434.7c1.6-2.4,3.6-4.5,6-6.2c1.5-1.1,3.1-2,4.7-2.9c3-1.6,6.3-2.4,9.7-2.4c1,0,2,0.2,3,0.4
		c0.4,0.1,0.7,0.2,1,0.4c0,0.1-1.6-0.3-4.1-0.3c-3.3,0.1-6.5,1-9.4,2.5c-1.6,0.9-3.1,1.8-4.6,2.8c-1.2,0.8-2.4,1.7-3.4,2.8
		C383.4,432.9,382.4,433.9,381.4,434.7z"/>
	<path class="st3" d="M405.1,391.4c-0.2,0.7-0.5,1.3-0.8,1.9c-0.6,1.2-1.4,3-2.5,5.1c-2.1,4.3-5.2,10.2-8.7,16.6s-6.9,12.2-9.4,16.3
		c-1.2,2-2.3,3.7-3,4.8c-0.3,0.6-0.7,1.2-1.2,1.7c0.3-0.6,0.6-1.3,1-1.9l2.8-4.9c2.4-4.2,5.7-9.9,9.2-16.4l8.9-16.5l2.7-5
		C404.4,392.6,404.7,392,405.1,391.4z"/>
	<path class="st2" d="M385.7,423.4c1.6-7.6-0.6-15.5-5.9-21.1c-1.3-1.4-3.3-2.8-5.1-2s-2.4,3-2.3,4.9c0.2,8.3,5.3,15.7,13,18.7"/>
	<path class="st3" d="M379,407.9c0,0,0.3,0.3,0.7,0.8c0.4,0.6,1,1.4,1.7,2.5c1.8,2.8,3.2,5.8,3.9,9.1c0.4,1.8,0.4,3.7,0.2,5.5
		c-0.2,1.5-0.6,2.9-1.2,4.3c-0.4,0.9-0.9,1.8-1.5,2.6c-0.4,0.6-0.6,0.9-0.7,0.9c0,0,0.8-1.4,1.7-3.7c0.5-1.4,0.9-2.8,1-4.2
		c0.2-1.8,0.1-3.5-0.2-5.3c-0.7-3.2-1.9-6.2-3.6-9C380.3,410.3,379.6,409.1,379,407.9z"/>
</g>
<g id="Plant--inject-1">
	<path class="st4" d="M45.9,422.1c0.6-2.3-0.9-4.6-2.6-6.2s-3.7-3.1-4.6-5.3c-1.4-3.5,0.5-8.1-1.9-11.1c-1.4-1.8-4-2.3-5.2-4.2
		c-0.6-1-1-2.2-1.2-3.3c-1.3-5.9-4.2-11.3-8.4-15.7c-0.3,5.3,0.9,10.5,3.3,15.2c1,1.9,2.2,3.7,2.5,5.8c0.5,3.4-1.4,6.9-0.5,10.2
		c1,3.8,5.2,6.3,5.4,10.2c0.2,3.3-2.7,6.2-2.5,9.5c0.2,1.4,0.7,2.7,1.5,3.9c2.5,4.2,6.3,7.2,12,7.1l7,0.2L45.9,422.1z"/>
	<g class="st5">
		<path d="M45.9,422.1c0.6-2.3-0.9-4.6-2.6-6.2s-3.7-3.1-4.6-5.3c-1.4-3.5,0.5-8.1-1.9-11.1c-1.4-1.8-4-2.3-5.2-4.2
			c-0.6-1-1-2.2-1.2-3.3c-1.3-5.9-4.2-11.3-8.4-15.7c-0.3,5.3,0.9,10.5,3.3,15.2c1,1.9,2.2,3.7,2.5,5.8c0.5,3.4-1.4,6.9-0.5,10.2
			c1,3.8,5.2,6.3,5.4,10.2c0.2,3.3-2.7,6.2-2.5,9.5c0.2,1.4,0.7,2.7,1.5,3.9c2.5,4.2,6.3,7.2,12,7.1l7,0.2L45.9,422.1z"/>
	</g>
	<path class="st6" d="M52.1,438.4c0.6,0.1,1.3,0.1,1.9,0c0.8-0.1,1.5-0.3,2.3-0.6c1-0.4,2-0.9,2.8-1.5c0.5-0.4,0.9-0.9,1.1-1.5
		c0.2-0.7,0.3-1.4,0.3-2.1c0-0.8,0.1-1.5,0.2-2.3c0.1-0.8,0.4-1.5,0.8-2.2c0.8-1.4,2.2-2.8,2.6-4.8c0.3-2,0.3-4.1-0.2-6.1
		c-0.5-2.2-0.5-4.4,0.2-6.5c0.8-2.2,2.3-4.1,3-6.6s0.4-5.1,0.6-7.8c0.1-1.3,0.4-2.6,0.9-3.9c0.6-1.2,1.3-2.4,2-3.7
		c1.2-2.6,1.5-5.6,1.8-8.5c0.2-1.5,0.3-3,0.5-4.5c0.1-1.5,0.4-3,0.8-4.5c0.5-1.5,1-2.9,1.7-4.3c0.3-0.7,0.6-1.5,0.8-2.2
		c0.1-0.8,0.2-1.6,0.2-2.4c0.1-1.6,0-3.2-0.2-4.8c-0.2-1.6-0.5-3.2-0.7-4.8v-0.3v-0.3l-0.3,0.1c-1.5,0.8-2.8,1.8-3.7,3.2
		c-1,1.3-1.7,2.7-2.3,4.2c-1,3-1.8,6-2.3,9.1c-0.4,3-1.4,5.8-2.9,8.4c-0.8,1.2-1.7,2.4-2.5,3.6c-0.9,1.2-1.5,2.6-1.7,4
		c-0.4,3,1.2,5.5,0.9,8.1c-0.2,1.3-0.6,2.5-1.3,3.6c-0.6,1.1-1.4,2.1-2.1,3.2c-0.7,1-1.3,2.1-1.9,3.2c-0.5,1.1-0.8,2.3-0.9,3.5
		c-0.2,2.4,0.2,4.6,0,6.7c-0.2,2-0.8,3.9-1.7,5.7c-0.8,1.7-1.8,3.3-2.6,4.8c-0.4,0.8-0.8,1.5-1,2.2c-0.3,0.7-0.5,1.4-0.6,2.2
		c-0.2,1.3-0.2,2.7,0,4c0.2,1.8,0.9,3.6,2,5.1c0.2,0.2,0.4,0.4,0.6,0.6c0.1,0.1,0.3,0.3,0.5,0.4L52.1,438.4
		c-0.4-0.4-0.9-0.8-1.3-1.3c-1.1-1.5-1.7-3.2-1.9-5c-0.2-1.3-0.1-2.6,0.1-3.9c0.1-0.7,0.3-1.5,0.6-2.1c0.3-0.7,0.7-1.5,1.1-2.2
		c0.8-1.5,1.7-3,2.6-4.8c0.9-1.8,1.5-3.8,1.7-5.9c0.2-2.1-0.1-4.4,0-6.7c0.1-1.2,0.4-2.3,0.8-3.4c0.5-1.1,1.1-2.1,1.8-3.1
		c0.7-1,1.5-2.1,2.1-3.2c0.7-1.1,1.2-2.4,1.3-3.8c0.3-2.8-1.3-5.4-0.8-8.1c0.3-1.4,0.9-2.7,1.7-3.8c0.8-1.2,1.7-2.3,2.5-3.6
		c1.5-2.7,2.5-5.6,2.9-8.6c0.4-3.1,1.2-6.1,2.2-9c0.5-1.5,1.3-2.9,2.2-4.1c1-1.3,2.2-2.3,3.6-3l-0.3-0.2v0.3
		c0.2,1.6,0.5,3.2,0.7,4.8c0.2,1.6,0.3,3.2,0.2,4.7c0,0.8-0.1,1.6-0.2,2.3c-0.2,0.7-0.4,1.4-0.7,2.1c-0.6,1.4-1.2,2.9-1.7,4.4
		c-0.4,1.5-0.7,3-0.8,4.5c-0.2,1.5-0.3,3-0.5,4.5c-0.3,2.9-0.6,5.9-1.7,8.4c-0.6,1.3-1.4,2.4-2,3.7c-0.6,1.3-0.9,2.6-0.9,4
		c-0.2,2.7,0.2,5.3-0.5,7.7s-2.2,4.4-3,6.6c-0.6,2.2-0.7,4.5-0.2,6.7c0.5,2,0.5,4,0.2,6c-0.4,1.9-1.7,3.2-2.6,4.7
		c-0.4,0.7-0.7,1.5-0.9,2.3c-0.1,0.8-0.1,1.5-0.2,2.3c0,0.7-0.1,1.4-0.3,2c-0.2,0.6-0.6,1.1-1.1,1.5c-0.8,0.7-1.7,1.2-2.7,1.5
		c-0.7,0.3-1.5,0.5-2.2,0.6c-0.5,0.1-0.9,0.1-1.4,0.1H52.1z"/>
	<path class="st6" d="M74.1,356.4c0,0.1,0,0.1-0.1,0.2c0,0.2-0.1,0.4-0.2,0.6c-0.1,0.5-0.3,1.4-0.6,2.4s-0.9,2.2-1.4,3.6
		c-0.6,1.6-1.2,3.3-1.7,4.9c-0.5,1.9-1,3.9-1.5,6.1c-0.4,2.4-1.2,4.6-2.2,6.8c-0.6,1.1-1.2,2.3-1.7,3.5c-0.5,1.3-0.8,2.6-1,4
		c-0.4,2.8-0.9,5.6-1.5,8.4c-1.4,5.7-2.7,11.1-3.9,16.1L55,426.3c-0.9,3.7-1.7,6.7-2.2,8.9c-0.2,1-0.4,1.8-0.6,2.4
		c-0.1,0.2-0.1,0.5-0.1,0.6c0,0.1,0,0.1,0,0.2c0-0.1,0.1-0.1,0.1-0.2l0.2-0.6l0.7-2.4c0.6-2.1,1.3-5.1,2.3-8.8s2.1-8.2,3.4-13.1
		s2.6-10.4,4-16.1c0.7-2.8,1.2-5.6,1.5-8.5c0.2-1.3,0.5-2.6,1-3.9c0.5-1.2,1.1-2.4,1.7-3.5c1.1-2.2,1.8-4.5,2.2-6.9
		c0.5-2.2,0.9-4.3,1.4-6.1s1-3.5,1.6-4.9s1.1-2.6,1.4-3.7s0.4-1.9,0.5-2.4c0.1-0.3,0.1-0.5,0.1-0.6
		C74.1,356.5,74.1,356.5,74.1,356.4z"/>
	<path class="st4" d="M53.3,438.4c4.6-2.7,5.8-10.9,4-15.8s-5.3-9.5-5.8-14.7c-0.4-4,0.9-8.2,0-12.1c-1.3-5.3-6.5-9.5-6.4-15
		c0-3.1,1.8-6,1.6-9c-0.2-3.8-3.1-6.8-4.9-10.1c-2.7-5.1-2.9-11.1-3.9-16.8s-3.1-11.8-8.2-14.6c-0.8,4.8-2,8.1-1.6,14.7
		c0.1,2.4,2.9,6.9,3.2,12c0.2,3.1,0.4,6.2,0.6,9.3c0,3,0.5,6,1.5,8.9c0.8,2.2,2.2,4.1,2.8,6.3c1.2,4.2-0.4,8.7,0.6,13
		c0.8,3.6,3.3,6.7,3.8,10.3c0.7,5.1-2.6,10.4-0.9,15.3c0.8,2.4,2.8,4.4,3.4,6.9c0.4,1.9,0,4,0.4,5.9c0.6,3.1,6.6,5.6,9.8,5.4"/>
	<path class="st6" d="M31.1,335c0,0.1,0,0.2,0,0.3c0,0.2,0.1,0.5,0.1,0.8c0.1,0.7,0.2,1.7,0.5,3s0.9,2.8,1.5,4.6s1.2,3.9,1.7,6.2
		s1,4.9,1.4,7.7c0.4,3,1.1,5.9,2.3,8.7c0.6,1.5,1.3,2.9,1.9,4.5c0.5,1.6,0.9,3.2,1,4.9c0.3,3.6,0.7,7.1,1.3,10.6
		c1.4,7.2,2.7,14,3.9,20.2s2.4,11.8,3.4,16.5l2.3,11.1l0.7,3c0.1,0.3,0.1,0.6,0.2,0.8c0,0.1,0,0.2,0.1,0.3c0-0.1,0-0.2,0-0.3
		c0-0.2-0.1-0.5-0.1-0.8c-0.1-0.7-0.3-1.7-0.6-3c-0.5-2.7-1.3-6.5-2.2-11.1s-2.1-10.3-3.3-16.5s-2.5-13-3.9-20.2
		c-0.6-3.5-1.1-7-1.3-10.6c-0.1-1.7-0.5-3.4-1-5c-0.5-1.6-1.3-3-1.9-4.5c-1.2-2.7-2-5.6-2.3-8.6c-0.5-2.8-0.9-5.4-1.5-7.7
		s-1.1-4.4-1.7-6.2s-1.3-3.3-1.6-4.6s-0.4-2.3-0.5-3c-0.1-0.3-0.1-0.6-0.2-0.8C31.2,335.2,31.2,335.1,31.1,335z"/>
</g>
<g id="Device--inject-1">
	<path class="st6" d="M136.7,55.9h243.5c6.4,0,11.5,5.2,11.5,11.6V427c0,6.4-5.2,11.5-11.5,11.5H136.7c-6.4,0-11.6-5.2-11.6-11.5
		V67.5C125.1,61.1,130.3,55.9,136.7,55.9z"/>
	<rect x="133.5" y="82.1" class="st0" width="249.8" height="319.5"/>
	<circle class="st7" cx="258.4" cy="419.3" r="10.2"/>
	<path class="st7" d="M219.5,66.9h77.9c0.7,0,1.2,0.5,1.2,1.2v1.8c0,0.7-0.5,1.2-1.2,1.2h-77.9c-0.7,0-1.2-0.5-1.2-1.2v-1.8
		C218.3,67.5,218.8,66.9,219.5,66.9z"/>
	<path class="st3" d="M289.7,375.9h-62.6c-7.4,0-13.4-6-13.4-13.4l0,0c0-7.4,6-13.4,13.4-13.4h62.6c7.4,0,13.4,6,13.4,13.4l0,0
		C303.2,369.9,297.1,375.9,289.7,375.9z"/>
	<path class="st8" d="M241.5,364.1l0.2-0.5c0.5,0.5,1.2,0.7,1.9,0.7c1.1,0,1.5-0.5,1.5-1c0-1.6-3.5-0.6-3.5-2.8
		c0-0.9,0.6-1.6,2.1-1.6c0.6,0,1.2,0.2,1.8,0.5l-0.2,0.5c-0.5-0.3-1-0.5-1.5-0.5c-1,0-1.5,0.5-1.5,1.1c0,1.6,3.5,0.6,3.5,2.8
		c0,0.9-0.7,1.6-2.1,1.6C242.9,364.9,242.1,364.6,241.5,364.1z"/>
	<path class="st8" d="M247.1,358.9h0.6v5.9h-0.6L247.1,358.9z"/>
	<path class="st8" d="M254.2,359v5.9h-0.5l-3.6-4.8v4.8h-0.6V359h0.5l3.6,4.8V359H254.2z"/>
	<path class="st8" d="M260,362h0.6v2.2c-0.6,0.5-1.3,0.8-2.1,0.8c-1.7,0-3-1.3-3-3s1.3-3,3-3c0.8,0,1.6,0.3,2.1,0.9l-0.4,0.4
		c-0.4-0.5-1.1-0.7-1.7-0.7c-1.4,0-2.4,1.1-2.4,2.5c0,1.4,1.1,2.4,2.5,2.4c0.5,0,1-0.2,1.4-0.4L260,362z"/>
	<path class="st8" d="M264.4,362.4V359h0.6v3.4c0,1.4,0.6,2,1.7,2c1.1,0,1.7-0.6,1.7-2v-3.4h0.6v3.4c0,1.7-0.9,2.6-2.3,2.6
		C265.3,365,264.4,364.1,264.4,362.4z"/>
	<path class="st8" d="M275.3,361.1c0,1.3-0.9,2-2.3,2h-1.5v1.9h-0.6v-5.9h2.1C274.4,359.1,275.3,359.8,275.3,361.1z M274.7,361.1
		c0-1-0.6-1.5-1.7-1.5h-1.5v3h1.5C274.1,362.6,274.7,362,274.7,361.1L274.7,361.1z"/>
	<rect x="188.7" y="227.9" class="st3" width="35.6" height="6.5"/>
	<path class="st3" d="M327,269.2c0.3,0,0.6-0.1,0.8-0.1c0.8-0.3,1.4-0.8,1.8-1.6c0.2-0.6,0.3-1.2,0.2-1.8c0-0.7,0-1.4,0-2.2
		c0-1.6,0-3.4,0-5.5v-8.8c0.1-0.6-0.1-1.3-0.4-1.8c-0.4-0.6-0.9-1-1.5-1.2c-0.7-0.1-1.4-0.2-2.1-0.1h-20l-115.5-0.4
		c-1.3,0-2.4,1-2.5,2.2c0,1.3,0,2.8,0,4.1c0,2.8,0,5.6,0,8.3c0,1.4,0,2.7,0,4.1c0,0.6,0,1.3,0.1,1.9c0.2,0.6,0.5,1.1,1,1.4
		c0.5,0.3,1.1,0.5,1.7,0.5h2h4l30.7,0.2l51.9,0.3l35,0.3l9.5,0.1l2.5,0L327,269.2c0,0-0.3,0-0.8,0h-2.5h-9.5h-35l-51.9-0.2
		l-30.7-0.1h-6c-0.8,0-1.5-0.2-2.1-0.6c-0.6-0.4-1.1-1.1-1.3-1.8c-0.1-0.7-0.2-1.4-0.1-2.1c0-1.4,0-2.7,0-4.1c0-2.8,0-5.5,0-8.3
		c0-1.4,0-2.8,0-4.2c0.2-1.7,1.6-2.9,3.3-2.8l115.5,0.6l20,0.1c0.7,0,1.5,0,2.2,0.1c0.7,0.2,1.3,0.7,1.7,1.3c0.3,0.6,0.5,1.3,0.4,2
		c0,0.7,0,1.3,0,1.9c0,2.5,0,4.8-0.1,6.9c-0.1,2.1,0,3.9,0,5.5c0,0.8,0,1.5,0,2.2c0,0.6-0.1,1.2-0.3,1.8c-0.4,0.8-1,1.4-1.9,1.6
		C327.6,269.2,327.3,269.2,327,269.2z"/>
	
		<rect x="201.8" y="276.6" transform="matrix(4.537840e-03 -1 1 4.537840e-03 -90.3183 498.1768)" class="st3" width="6.5" height="35.6"/>
	<path class="st3" d="M326.7,331.4c0.3,0,0.6-0.1,0.8-0.1c0.8-0.3,1.4-0.8,1.8-1.6c0.2-0.6,0.3-1.2,0.2-1.8c0-0.7,0-1.4,0-2.2
		c0-1.6,0-3.4,0-5.5v-8.8c0.1-0.6-0.1-1.3-0.4-1.8c-0.3-0.6-0.9-1-1.5-1.2c-0.7-0.1-1.4-0.2-2.1-0.1h-19.9l-115.5-0.4
		c-1.3,0-2.4,1-2.5,2.2c-0.1,1.3,0,2.8,0,4.1c0,2.8,0,5.5,0,8.3c0,1.4,0,2.7,0,4.1c0,0.6,0,1.3,0.1,1.9c0.2,0.6,0.5,1.1,1,1.4
		c0.5,0.3,1.1,0.5,1.7,0.4h2h4l30.7,0.2l51.9,0.3l35,0.3l9.5,0.1h2.5c0.6,0,0.8,0,0.8,0h-0.8h-2.5h-9.5l-35,0l-52,0l-30.7-0.1h-4h-2
		c-0.7,0.1-1.5-0.1-2.1-0.6c-0.6-0.4-1.1-1.1-1.3-1.8c-0.1-0.7-0.2-1.4-0.1-2.1c0-1.4,0-2.7,0-4.1c0-2.7,0-5.5,0-8.3
		c0-1.4,0-2.8,0-4.2c0.2-1.6,1.6-2.9,3.2-2.9l115.5,0.6l20,0.1c0.7,0,1.5,0,2.2,0.1c0.7,0.2,1.3,0.7,1.7,1.3c0.4,0.6,0.5,1.3,0.5,2
		c0,0.6,0,1.3,0,1.9c0,2.5,0,4.8-0.1,6.9s0,3.9-0.1,5.5c0,0.8,0,1.5,0,2.2c0,0.6-0.1,1.2-0.3,1.8c-0.4,0.8-1,1.4-1.9,1.6
		C327.3,331.4,327,331.4,326.7,331.4z"/>
	
		<rect x="226.6" y="224.6" transform="matrix(4.537840e-03 -1 1 4.537840e-03 -28.5837 485.7063)" class="st3" width="6.1" height="65.2"/>
	<path class="st3" d="M203,320.1c-0.1,1.6-1.5,2.8-3.1,2.7c-1.6-0.1-2.8-1.5-2.7-3.1c0.1-1.5,1.4-2.7,2.9-2.7
		C201.8,317.1,203,318.4,203,320.1C203,320.1,203,320.1,203,320.1z"/>
	<path class="st3" d="M211.8,320.1c-0.1,1.6-1.5,2.8-3,2.7s-2.8-1.5-2.7-3c0.1-1.5,1.4-2.7,2.9-2.7
		C210.6,317.1,211.9,318.5,211.8,320.1C211.8,320.1,211.8,320.1,211.8,320.1z"/>
	<path class="st3" d="M220.7,320.2c-0.1,1.6-1.4,2.8-3,2.7c-1.6-0.1-2.8-1.4-2.7-3c0.1-1.5,1.3-2.7,2.9-2.7
		C219.4,317.2,220.7,318.6,220.7,320.2z"/>
	<path class="st3" d="M229.5,320.2c-0.1,1.6-1.5,2.8-3,2.7s-2.8-1.5-2.7-3c0.1-1.5,1.4-2.7,2.9-2.7
		C228.3,317.2,229.5,318.6,229.5,320.2z"/>
	<path class="st3" d="M238.3,320.2c-0.1,1.6-1.5,2.8-3,2.7s-2.8-1.5-2.7-3c0.1-1.5,1.4-2.7,2.9-2.7
		C237.1,317.3,238.3,318.6,238.3,320.2z"/>
	<path class="st3" d="M247.1,320.3c-0.1,1.6-1.5,2.8-3,2.7s-2.8-1.5-2.7-3c0.1-1.5,1.4-2.7,2.9-2.7
		C245.9,317.3,247.2,318.7,247.1,320.3z"/>
	<path class="st3" d="M255.9,320.3c-0.1,1.6-1.5,2.8-3,2.7s-2.8-1.5-2.7-3c0.1-1.5,1.4-2.7,2.9-2.7
		C254.7,317.4,256,318.7,255.9,320.3z"/>
	<path class="st3" d="M264.8,320.4c-0.1,1.6-1.5,2.8-3,2.7c-1.6-0.1-2.8-1.5-2.7-3c0.1-1.5,1.4-2.7,2.9-2.7
		C263.6,317.4,264.9,318.7,264.8,320.4C264.8,320.4,264.8,320.4,264.8,320.4z"/>
	<path class="st3" d="M273.6,320.4c-0.1,1.6-1.5,2.8-3,2.7c-1.6-0.1-2.8-1.5-2.7-3c0.1-1.5,1.4-2.7,2.9-2.7
		C272.4,317.4,273.7,318.8,273.6,320.4C273.6,320.4,273.6,320.4,273.6,320.4z"/>
	<circle class="st3" cx="264.7" cy="157.6" r="48.9"/>
	<path class="st0" d="M268.5,158.3c3.9-1.7,6.4-5.6,6.4-9.9c0-5.9-4.5-10.7-10-10.7s-10,4.7-10.1,10.6c-0.1,4.3,2.4,8.3,6.4,10
		c-15.4,2.3-14.7,19.1-14.7,19.1l36.5,0.2C283,177.6,283.8,160.6,268.5,158.3z"/>
</g>
<g id="Sign--inject-1">
	<rect x="88.8" y="205.2" class="st6" width="12.9" height="233.3"/>
	<rect x="85.2" y="205.2" class="st7" width="12.9" height="233.3"/>
	<path class="st4" d="M158.7,182.8c0-8.8,0-17.5,0-26.3c0-0.8-0.3-1.6-0.8-2.2c-12.5-12.5-24.9-25-37.5-37.4
		c-0.7-0.7-1.7-1.1-2.7-1.1c-17.3-0.1-34.6,0-51.9-0.1c-1.2,0-2.4,0.5-3.3,1.4C50.3,129.5,38,141.7,25.8,154c-0.6,0.7-1,1.6-1,2.6
		c-0.1,17.5-0.1,35,0,52.4c0,0.9,0.4,1.8,1.1,2.5c12.2,12.3,24.5,24.6,36.8,36.9c0.8,0.9,2,1.5,3.2,1.5c17.2,0,34.4,0,51.6,0
		c1.2,0.1,2.5-0.4,3.3-1.4c12.2-12.3,24.6-24.6,36.8-36.9c0.7-0.7,1.1-1.7,1.1-2.7C158.7,200.2,158.7,191.5,158.7,182.8z"/>
	<g id="_x34_mamg4tif--inject-1">
		<path class="st4" d="M15.1,182.7c0-10,0-20.1,0-30.1c0-0.9,0.4-1.8,1-2.4c11.1-11.2,22.3-22.4,33.6-33.6c3.1-3.1,6.1-6.2,9.2-9.1
			c0.7-0.6,1.6-1,2.5-1.1c20.1-0.1,40.1,0,60.2-0.1c1.2,0,2.3,0.4,3.1,1.3c14.1,14.2,28.3,28.4,42.5,42.6c0.6,0.7,1,1.5,1,2.4
			c0.1,20.2,0,40.3,0.1,60.5c0,1-0.4,2-1.1,2.7c-11.1,11-22.2,22.1-33.2,33.2c-3.2,3.2-6.4,6.3-9.6,9.4c-0.6,0.6-1.4,0.9-2.2,1
			c-20.3,0-40.6,0-60.8,0c-0.8,0-1.5-0.3-2.1-0.9c-11.9-11.8-23.7-23.6-35.5-35.4c-2.5-2.5-5-4.9-7.4-7.5c-0.6-0.7-1-1.6-1.1-2.5
			C15.1,202.9,15.1,192.8,15.1,182.7z M91.7,110.7c-9.5,0-19.1,0-28.6,0c-0.7,0-1.4,0.3-2,0.7c-13.5,13.5-27.1,27-40.5,40.5
			c-0.6,0.7-1,1.5-1,2.4c-0.1,18.9-0.1,37.8,0,56.7c0,0.9,0.4,1.8,1,2.5c13.3,13.4,26.7,26.8,40.2,40.2c0.7,0.6,1.5,1,2.4,1
			c18.8,0,37.7,0,56.5,0.1c1.1,0,2.1-0.4,2.9-1.2c13.3-13.3,26.5-26.6,39.9-39.9c0.8-0.8,1.3-1.9,1.2-3c0-18.9,0-37.7-0.1-56.6
			c0-0.8-0.4-1.6-0.9-2.3c-3.5-3.6-7.1-7.1-10.6-10.7c-9.7-9.7-19.3-19.4-29-29.1c-1-1-2.3-1.6-3.7-1.5
			C110.1,110.8,100.9,110.7,91.7,110.7L91.7,110.7z"/>
		<path class="st0" d="M91.7,110.7c9.2,0,18.4,0,27.6,0c1.4-0.1,2.8,0.5,3.7,1.5c9.7,9.7,19.3,19.4,29,29.1
			c3.6,3.6,7.1,7.1,10.6,10.7c0.6,0.6,0.9,1.4,0.9,2.3c0.1,18.9,0,37.7,0.1,56.6c0.1,1.1-0.4,2.2-1.2,3
			c-13.3,13.3-26.6,26.5-39.9,39.9c-0.7,0.8-1.8,1.2-2.9,1.2c-18.8,0-37.7,0-56.5-0.1c-0.9,0-1.8-0.4-2.4-1
			c-13.4-13.3-26.8-26.7-40.2-40.2c-0.6-0.7-1-1.6-1-2.5c-0.1-18.9-0.1-37.8,0-56.7c0-0.9,0.4-1.8,1-2.4
			c13.5-13.5,27-27.1,40.5-40.5c0.6-0.5,1.3-0.7,2-0.7C72.6,110.7,82.2,110.7,91.7,110.7z M158.6,182.8c0-8.8,0-17.5,0-26.3
			c0-0.8-0.3-1.6-0.8-2.2c-12.4-12.5-24.9-25-37.4-37.4c-0.7-0.7-1.7-1.1-2.7-1.1c-17.3-0.1-34.6,0-51.9-0.1c-1.2,0-2.4,0.5-3.3,1.4
			c-12.3,12.3-24.5,24.6-36.8,36.9c-0.6,0.7-1,1.6-1,2.6c-0.1,17.5-0.1,35,0,52.4c0,0.9,0.4,1.8,1.1,2.5
			c12.2,12.3,24.5,24.6,36.8,36.9c0.8,0.9,2,1.4,3.2,1.4c17.2,0,34.4,0,51.6,0c1.2,0.1,2.5-0.4,3.3-1.4
			c12.2-12.3,24.6-24.6,36.8-36.9c0.7-0.7,1.1-1.7,1.1-2.7C158.7,200.2,158.6,191.5,158.6,182.8L158.6,182.8z"/>
	</g>
	<path class="st0" d="M80.1,190.1h-5.7v7.3h-7.8v-7.3H47.9v-5.4l16.4-22h8.4l-15.2,20.9h9.4V177h7.6v6.5h5.7L80.1,190.1z"/>
	<path class="st0" d="M82.5,180c0-11.5,6.3-18,14.9-18s14.9,6.5,14.9,18s-6.3,18-14.9,18S82.5,191.4,82.5,180z M104.2,180
		c0-7.9-2.8-11.2-6.8-11.2s-6.8,3.3-6.8,11.2s2.8,11.2,6.8,11.2S104.2,187.9,104.2,180z"/>
	<path class="st0" d="M129.3,162.6v34.8h-8v-28.3h-7v-6.5L129.3,162.6z"/>
	<path class="st0" d="M82.9,151.9v1.5h-8.7v-12h8.5v1.5h-6.8v3.7h6v1.5h-6v3.9H82.9z"/>
	<path class="st0" d="M90.4,144.2v1.6c-0.1,0-0.3,0-0.4,0c-1.8,0-2.9,1.1-2.9,3.1v4.5h-1.7v-9.1h1.6v1.5
		C87.8,144.7,89,144,90.4,144.2z"/>
	<path class="st0" d="M97.3,144.2v1.6c-0.1,0-0.3,0-0.4,0c-1.8,0-2.9,1.1-2.9,3.1v4.5h-1.7v-9.1H94v1.5
		C94.7,144.7,96,144,97.3,144.2z"/>
	<path class="st0" d="M98.4,148.8c0-2.6,2-4.8,4.6-4.8c2.6,0,4.8,2,4.8,4.6c0,2.6-2,4.8-4.6,4.8c0,0,0,0-0.1,0
		c-2.5,0.1-4.6-1.8-4.7-4.3C98.4,149,98.4,148.9,98.4,148.8z M106.2,148.8c0.1-1.7-1.2-3.1-2.9-3.2c-1.7-0.1-3.1,1.2-3.2,2.9
		c0,0.1,0,0.2,0,0.4c-0.1,1.7,1.2,3.1,2.9,3.2c1.7,0.1,3.1-1.2,3.2-2.9C106.2,149,106.2,148.9,106.2,148.8z"/>
	<path class="st0" d="M115,144.2v1.6c-0.1,0-0.2,0-0.4,0c-1.8,0-2.9,1.1-2.9,3.1v4.5h-1.7v-9.1h1.6v1.5
		C112.4,144.7,113.7,144,115,144.2z"/>
	<path class="st0" d="M47.2,211.5v-5.3h1.3v5.3c0,2.1,1,3,2.6,3s2.7-0.9,2.7-3v-5.3h1.3v5.3c0,2.7-1.5,4.2-4,4.2
		S47.2,214.2,47.2,211.5z"/>
	<path class="st0" d="M64.4,211.4v4.1h-1.3v-3.9c0-1.4-0.7-2.1-1.9-2.1c-1.2-0.1-2.2,0.7-2.3,1.9c0,0.2,0,0.3,0,0.5v3.7h-1.3v-7.1
		h1.3v1.1c0.6-0.8,1.6-1.2,2.6-1.1c1.5-0.1,2.8,1,2.9,2.6C64.4,211.1,64.4,211.3,64.4,211.4z"/>
	<path class="st0" d="M72.4,211.2v4.3h-1.2v-0.9c-0.6,0.7-1.4,1.1-2.3,1c-1.6,0-2.6-0.9-2.6-2.1s0.7-2.1,2.9-2.1h2v-0.3
		c0-1.1-0.6-1.7-1.9-1.7c-0.8,0-1.6,0.3-2.2,0.8l-0.5-1c0.9-0.6,1.9-0.9,2.9-0.9C71.3,208.4,72.4,209.3,72.4,211.2z M71.2,213.4v-1
		h-2c-1.3,0-1.6,0.5-1.6,1.1s0.6,1.2,1.6,1.2C70,214.7,70.8,214.2,71.2,213.4z"/>
	<path class="st0" d="M81.5,208.4v7.1h-1.2v-1.1c-0.6,0.8-1.5,1.2-2.4,1.1c-1.5,0.2-2.9-1-3.1-2.5c0-0.2,0-0.4,0-0.6v-4.1H76v3.9
		c0,1.4,0.7,2.1,1.9,2.1c1.2,0.1,2.1-0.8,2.2-2c0-0.1,0-0.3,0-0.4v-3.7H81.5z"/>
	<path class="st0" d="M87.9,215.1c-0.4,0.3-1,0.5-1.6,0.5c-1.1,0.1-2.1-0.6-2.2-1.7c0-0.2,0-0.3,0-0.5v-3.9h-1.2v-1.1h1.2v-1.5h1.3
		v1.6h2v1.1h-2v3.9c-0.1,0.5,0.2,1.1,0.8,1.2c0.1,0,0.2,0,0.3,0c0.4,0,0.7-0.1,1-0.3L87.9,215.1z"/>
	<path class="st0" d="M96.2,211.4v4.1h-1.3v-3.9c0-1.4-0.7-2.1-1.9-2.1c-1.2-0.1-2.2,0.8-2.3,1.9c0,0.1,0,0.3,0,0.4v3.7h-1.3v-10
		h1.3v3.9c0.6-0.7,1.6-1.1,2.5-1.1c1.5-0.1,2.8,1,2.9,2.5C96.2,211.1,96.2,211.3,96.2,211.4z"/>
	<path class="st0" d="M97.9,212c0-2,1.6-3.7,3.6-3.8c2,0,3.7,1.6,3.8,3.6c0,2-1.6,3.7-3.6,3.8c0,0,0,0-0.1,0c-2,0.1-3.6-1.4-3.7-3.4
		C97.9,212.2,97.9,212.1,97.9,212z M104,212c-0.1-1.3-1.2-2.3-2.5-2.3c-1.3,0.1-2.3,1.2-2.3,2.5c0.1,1.3,1.1,2.3,2.4,2.3
		c1.3,0.1,2.4-0.9,2.4-2.2C104.1,212.2,104.1,212.1,104,212L104,212z"/>
	<path class="st0" d="M110.9,208.4v1.2h-0.3c-1.2-0.1-2.2,0.8-2.3,2c0,0.1,0,0.3,0,0.4v3.5h-1.3v-7.1h1.2v1.2
		C108.9,208.7,109.9,208.3,110.9,208.4z"/>
	<path class="st0" d="M112.3,206.2c0-0.5,0.3-0.9,0.8-0.9c0.5,0,0.9,0.3,0.9,0.8s-0.3,0.9-0.8,0.9c0,0,0,0,0,0
		C112.7,207.1,112.3,206.7,112.3,206.2C112.3,206.3,112.3,206.2,112.3,206.2z M112.5,208.4h1.3v7.1h-1.3L112.5,208.4z"/>
	<path class="st0" d="M121.6,214.5v1.1h-6v-0.8l4.2-5.2h-4.1v-1.1h5.8v0.8l-4.2,5.2H121.6z"/>
	<path class="st0" d="M129.6,212.4h-5.8c0.2,1.3,1.3,2.2,2.6,2.1c0.8,0,1.5-0.3,2.1-0.9l0.7,0.8c-1.5,1.5-4,1.5-5.5,0
		c-0.7-0.7-1.1-1.6-1.1-2.5c-0.1-1.9,1.4-3.5,3.3-3.6c0.1,0,0.2,0,0.2,0c1.9,0,3.5,1.4,3.5,3.3c0,0.1,0,0.2,0,0.3
		C129.6,212.1,129.6,212.3,129.6,212.4z M123.8,211.5h4.6c-0.1-1.3-1.3-2.2-2.5-2C124.8,209.6,123.9,210.4,123.8,211.5z"/>
	<path class="st0" d="M138.1,205.6v10h-1.2v-1.1c-0.6,0.8-1.5,1.3-2.5,1.2c-2,0-3.6-1.6-3.6-3.6c0-2,1.6-3.6,3.6-3.6
		c1,0,1.9,0.4,2.5,1.1v-3.9L138.1,205.6z M136.8,212c-0.1-1.3-1.2-2.3-2.5-2.3c-1.3,0.1-2.3,1.2-2.3,2.5c0.1,1.3,1.1,2.3,2.4,2.3
		c1.3,0,2.4-1,2.4-2.3C136.8,212.1,136.8,212,136.8,212L136.8,212z"/>
</g>
<g id="Padlock--inject-1">
	<path class="st2" d="M310.2,214.5c-3.3-6.7-11.5-9.4-18.1-6c0,0,0,0,0,0l-18.3,9.2c-6.7,3.4-9.4,11.5-6,18.1c0,0,0,0,0,0l0,0
		c3.3,6.7,11.5,9.4,18.1,6c0,0,0,0,0,0l18.3-9.2C310.9,229.3,313.6,221.2,310.2,214.5z M301.5,227l-18.2,9.2
		c-3.6,1.8-7.9,0.4-9.7-3.2c-1.8-3.6-0.4-7.9,3.2-9.7l0,0l18.2-9.2c3.6-1.8,7.9-0.4,9.7,3.2S305.1,225.2,301.5,227z"/>
	<path class="st3" d="M302.7,214.9l6-2.8c-0.4-0.6-0.9-1.1-1.5-1.6l-6.2,3.3C301.1,213.9,302.6,214.4,302.7,214.9z"/>
	<path class="st3" d="M305.3,222.4l6.3-0.1c0.1-1.2,0-2.5-0.1-3.8l-6.1,2.9L305.3,222.4z"/>
	<path class="st9" d="M310.2,214.5c-3.3-6.7-11.5-9.4-18.1-6c0,0,0,0,0,0l-18.3,9.2c-6.7,3.4-9.4,11.5-6,18.1c0,0,0,0,0,0l0,0
		c3.3,6.7,11.5,9.4,18.1,6c0,0,0,0,0,0l18.3-9.2C310.9,229.3,313.6,221.2,310.2,214.5z M301.5,227l-18.2,9.2
		c-3.6,1.8-7.9,0.4-9.7-3.2c-1.8-3.6-0.4-7.9,3.2-9.7l0,0l18.2-9.2c3.6-1.8,7.9-0.4,9.7,3.2S305.1,225.2,301.5,227z"/>
	<path class="st6" d="M301.5,227c1-0.6,1.8-1.3,2.5-2.2c0.8-1.1,1.2-2.3,1.3-3.6c0.3-3.9-2.5-7.2-6.4-7.6c-1.3-0.1-2.5,0.1-3.7,0.7
		l-3.4,1.7l-15,7.6c-2.6,1.3-4.1,4-3.8,6.9c0.1,1.3,0.6,2.6,1.5,3.6c0.8,1,1.9,1.8,3.1,2.2c1.1,0.4,2.4,0.5,3.6,0.3
		c1.1-0.3,2.2-0.7,3.2-1.3l5.7-2.8l8.3-4.1l2.3-1.1C300.9,227.2,301.2,227.1,301.5,227c-0.2,0.2-0.5,0.3-0.8,0.4l-2.2,1.2l-8.2,4.2
		l-5.7,2.9c-1,0.6-2.2,1.1-3.3,1.3c-1.3,0.2-2.6,0.1-3.8-0.4c-3.9-1.4-5.8-5.7-4.4-9.6c0.1-0.3,0.3-0.6,0.4-0.9
		c0.7-1.3,1.8-2.4,3.2-3.1l15-7.5l3.3-1.6c3.2-1.5,7-0.6,9.1,2.2c1.1,1.4,1.6,3.2,1.4,5c-0.1,1.3-0.6,2.6-1.4,3.7
		c-0.5,0.7-1.1,1.3-1.9,1.7c-0.2,0.1-0.4,0.2-0.6,0.3C301.6,227,301.5,227,301.5,227z"/>
	<path class="st6" d="M310.2,214.5c0.1,0.1,0.1,0.2,0.2,0.3c0.1,0.2,0.2,0.5,0.4,0.9c0.2,0.4,0.3,0.9,0.5,1.5
		c0.2,0.7,0.3,1.4,0.4,2.1c0.2,1.9,0,3.9-0.6,5.8c-0.4,1.2-0.9,2.3-1.6,3.3c-0.8,1.1-1.7,2.1-2.8,3c-1.2,0.9-2.5,1.7-3.9,2.3
		l-4.3,2.2l-9.6,4.9c-1.7,0.9-3.5,1.8-5.3,2.4c-2,0.6-4.1,0.7-6.1,0.4c-2.1-0.3-4.1-1.2-5.8-2.4c-3.6-2.6-5.7-6.8-5.7-11.3
		c0-2.1,0.5-4.2,1.5-6.1c0.9-1.8,2.3-3.4,3.9-4.7c1.6-1.1,3.3-2,5.1-2.8l9.6-4.8l4.3-2.2c1.3-0.7,2.7-1.3,4.1-1.8
		c1.3-0.3,2.7-0.5,4.1-0.4c1.2,0.1,2.4,0.3,3.6,0.7c1.9,0.6,3.6,1.6,5,2.9c0.5,0.5,1,1,1.5,1.6c0.4,0.5,0.7,0.9,0.9,1.3l0.5,0.8
		C310.1,214.3,310.2,214.4,310.2,214.5c-0.9-1.4-1.9-2.7-3.1-3.8c-1.4-1.3-3.2-2.2-5-2.8c-1.1-0.3-2.3-0.5-3.5-0.6
		c-1.3,0-2.7,0.1-4,0.4c-1.4,0.4-2.8,1-4.1,1.8l-4.3,2.2l-9.5,4.8c-1.7,0.8-3.4,1.7-5,2.8c-1.6,1.2-2.9,2.7-3.8,4.5
		c-0.9,1.8-1.4,3.8-1.5,5.9c-0.1,4.3,2,8.3,5.5,10.9c1.7,1.2,3.6,2,5.6,2.3c2,0.3,4,0.2,5.9-0.3c1.8-0.6,3.5-1.4,5.2-2.4l9.6-4.8
		l4.3-2.2c1.4-0.6,2.6-1.3,3.8-2.2c2-1.6,3.5-3.7,4.3-6.1c0.6-1.8,0.9-3.8,0.7-5.7C311.3,217.6,310.9,216,310.2,214.5z"/>
	<path class="st2" d="M368.9,185.5c-3.3-6.7-11.5-9.4-18.1-6c0,0,0,0,0,0l-18.3,9.2c-6.7,3.3-9.4,11.5-6,18.1c0,0,0,0,0,0l0,0
		c3.4,6.7,11.5,9.4,18.1,6c0,0,0,0,0,0l18.4-9.2C369.5,200.3,372.2,192.2,368.9,185.5C368.9,185.6,368.9,185.5,368.9,185.5z
		 M360.1,198l-18.2,9.2c-3.5,1.9-7.9,0.6-9.8-2.9s-0.6-7.9,2.9-9.8c0.1-0.1,0.3-0.1,0.4-0.2l18.2-9.2c3.6-1.7,7.9-0.1,9.6,3.5
		C364.8,192.1,363.5,196.2,360.1,198L360.1,198z"/>
	<path class="st3" d="M361.3,185.9l6-2.8c-0.4-0.6-0.9-1.1-1.5-1.6l-6.1,3.4C359.7,184.9,361.2,185.5,361.3,185.9z"/>
	<path class="st3" d="M363.9,193.4l6.3-0.1c0.1-1.3,0.1-2.5,0-3.8l-6.1,2.9L363.9,193.4z"/>
	<path class="st9" d="M368.9,185.5c-3.3-6.7-11.5-9.4-18.1-6c0,0,0,0,0,0l-18.3,9.2c-6.7,3.3-9.4,11.5-6,18.1c0,0,0,0,0,0l0,0
		c3.4,6.7,11.5,9.4,18.1,6c0,0,0,0,0,0l18.4-9.2C369.5,200.3,372.2,192.2,368.9,185.5C368.9,185.6,368.9,185.5,368.9,185.5z
		 M360.1,198l-18.2,9.2c-3.5,1.9-7.9,0.6-9.8-2.9s-0.6-7.9,2.9-9.8c0.1-0.1,0.3-0.1,0.4-0.2l18.2-9.2c3.6-1.7,7.9-0.1,9.6,3.5
		C364.8,192.1,363.5,196.2,360.1,198L360.1,198z"/>
	<path class="st6" d="M360.1,198c1-0.6,1.8-1.3,2.5-2.2c2.4-3.1,1.8-7.5-1.3-9.8c-2.1-1.6-5.1-1.9-7.5-0.7l-3.4,1.7l-14.9,7.6
		c-2.6,1.3-4.1,4-3.8,6.9c0.1,1.3,0.6,2.6,1.5,3.6c0.8,1,1.8,1.8,3,2.2c1.1,0.4,2.4,0.5,3.6,0.3c1.1-0.2,2.2-0.7,3.2-1.3l5.7-2.8
		l8.3-4.1l2.3-1.1C359.5,198.2,359.8,198.1,360.1,198c-0.3,0.2-0.5,0.3-0.8,0.4l-2.2,1.2l-8.2,4.2l-5.7,2.9c-1,0.6-2.2,1.1-3.3,1.3
		c-1.3,0.2-2.6,0.1-3.8-0.3c-3.9-1.4-5.9-5.7-4.4-9.6c0.6-1.8,2-3.2,3.6-4.1l15-7.5l3.4-1.7c1.1-0.5,2.3-0.8,3.5-0.7
		c2.2,0.1,4.3,1.2,5.6,3c1.1,1.5,1.6,3.3,1.4,5.1c-0.1,1.3-0.6,2.6-1.4,3.7c-0.5,0.7-1.1,1.2-1.9,1.7c-0.2,0.1-0.4,0.2-0.6,0.3
		C360.2,198,360.1,198,360.1,198z"/>
	<path class="st6" d="M368.9,185.5c0,0,0.1,0.1,0.2,0.3l0.4,0.9c0.1,0.4,0.3,0.9,0.5,1.5c0.2,0.7,0.3,1.4,0.4,2.1
		c0.2,1.9,0,3.9-0.6,5.8c-0.4,1.2-0.9,2.3-1.6,3.3c-0.8,1.1-1.7,2.1-2.8,3c-1.2,0.9-2.5,1.7-3.9,2.3l-4.3,2.2l-9.5,4.8
		c-1.7,1-3.5,1.8-5.3,2.4c-2,0.6-4.1,0.7-6.1,0.4c-2.1-0.3-4.1-1.2-5.8-2.4c-1.8-1.3-3.2-3-4.2-4.9c-1-2-1.5-4.1-1.5-6.3
		c0-2.1,0.5-4.2,1.5-6.1c0.9-1.8,2.3-3.4,3.9-4.7c1.6-1.1,3.3-2,5.1-2.8l9.6-4.8l4.3-2.2c1.3-0.7,2.7-1.3,4.2-1.8
		c1.3-0.3,2.7-0.5,4.1-0.4c1.2,0.1,2.4,0.3,3.6,0.6c1.9,0.6,3.6,1.6,5,2.9c0.5,0.5,1,1,1.4,1.6c0.4,0.5,0.7,0.9,0.9,1.3l0.5,0.8
		C368.8,185.3,368.8,185.4,368.9,185.5c-0.8-1.5-1.9-2.8-3.1-3.9c-1.4-1.3-3.2-2.2-5-2.8c-1.1-0.3-2.3-0.5-3.5-0.6
		c-1.3,0-2.7,0.1-4,0.5c-1.4,0.4-2.8,1-4.1,1.8l-4.3,2.2l-9.5,4.8c-1.7,0.8-3.4,1.7-5,2.8c-1.6,1.2-2.9,2.7-3.8,4.5
		c-0.9,1.8-1.4,3.9-1.5,5.9c-0.1,4.3,2,8.3,5.5,10.9c1.7,1.2,3.6,2,5.6,2.3c2,0.3,4,0.2,5.9-0.3c1.8-0.6,3.5-1.4,5.2-2.4l9.6-4.8
		l4.3-2.2c1.3-0.6,2.6-1.4,3.8-2.2c1-0.8,2-1.8,2.7-2.9c0.7-1,1.2-2.1,1.6-3.2c0.6-1.8,0.9-3.7,0.7-5.7
		C369.9,188.6,369.5,187,368.9,185.5z"/>
	<path class="st2" d="M393.4,178.7l-31.3,14.7c-1.8,0.8-3.8,0.1-4.7-1.7c0,0,0,0,0,0l0,0c-0.8-1.8-0.1-3.9,1.7-4.7c0,0,0,0,0,0
		l31.3-14.7c1.8-0.8,3.9-0.1,4.7,1.7c0,0,0,0,0,0l0,0C395.9,175.7,395.2,177.8,393.4,178.7C393.4,178.7,393.4,178.7,393.4,178.7z"/>
	<path class="st6" d="M393.4,178.7c0,0,0.3-0.1,0.7-0.5c1.4-1.2,1.6-3.4,0.3-4.9c-0.3-0.3-0.6-0.6-1-0.8c-0.8-0.4-1.6-0.5-2.4-0.3
		c-0.4,0.1-0.9,0.3-1.3,0.6l-1.4,0.6l-29.2,13.8c-1.6,0.8-2.3,2.7-1.6,4.4c0.5,1,1.5,1.7,2.6,1.9c0.7,0.1,1.4-0.1,2-0.4l2-0.9
		l3.8-1.8l13.2-6.1l8.9-4.1l2.4-1.1l0.6-0.3C393.3,178.7,393.4,178.7,393.4,178.7l-0.2,0.1l-0.6,0.3l-2.4,1.2l-8.8,4.2l-13.1,6.2
		l-3.8,1.8l-2,0.9c-0.7,0.4-1.5,0.6-2.3,0.5c-2.1-0.2-3.6-2-3.4-4.1c0.1-1.3,0.9-2.5,2.2-3.1l29.2-13.6l1.4-0.6
		c0.4-0.2,0.9-0.4,1.4-0.6c0.9-0.2,1.8-0.1,2.7,0.3c1.3,0.7,2.1,2.2,1.9,3.7c-0.1,0.9-0.6,1.7-1.3,2.3
		C394,178.4,393.7,178.6,393.4,178.7z"/>
	<path class="st2" d="M334.8,207.6l-31.3,14.7c-1.8,0.8-3.8,0.1-4.7-1.7c0,0,0,0,0,0l0,0c-0.8-1.8-0.1-3.8,1.7-4.7c0,0,0,0,0,0
		l31.3-14.7c1.8-0.8,3.9-0.1,4.7,1.7l0,0C337.3,204.7,336.6,206.8,334.8,207.6C334.8,207.6,334.8,207.6,334.8,207.6z"/>
	<path class="st6" d="M334.8,207.6c0.3-0.2,0.5-0.3,0.8-0.5c0.7-0.6,1.1-1.4,1.2-2.3c0.1-1.4-0.6-2.7-1.8-3.4
		c-0.8-0.4-1.6-0.5-2.4-0.3c-0.4,0.1-0.9,0.3-1.3,0.6l-1.4,0.6l-29.2,13.8c-1.6,0.8-2.3,2.7-1.6,4.4c0.5,1,1.5,1.7,2.6,1.9
		c0.7,0.1,1.4-0.1,2-0.4l2-0.9l3.8-1.8l13.2-6.1l8.9-4.1l2.4-1.1l0.6-0.3L334.8,207.6c0,0,0,0-0.2,0.1l-0.6,0.3l-2.4,1.2l-8.8,4.2
		l-13.1,6.2l-3.8,1.8l-2,0.9c-0.7,0.4-1.5,0.6-2.2,0.5c-1.7-0.1-3-1.4-3.4-3c-0.3-1.7,0.5-3.4,2.1-4.1l29.3-13.6l1.4-0.6
		c0.4-0.2,0.9-0.4,1.3-0.6c1.9-0.5,3.9,0.7,4.4,2.6c0.1,0.5,0.1,0.9,0.1,1.4c-0.1,0.9-0.6,1.7-1.3,2.3
		C335.4,207.4,335.1,207.5,334.8,207.6z"/>
	<path class="st2" d="M194.3,270c-3.4-6.7-11.5-9.3-18.1-6l-18.3,9.2c-6.7,3.3-9.4,11.5-6,18.1c0,0,0,0,0,0l0,0
		c3.3,6.7,11.5,9.4,18.1,6c0,0,0,0,0,0l18.3-9.2C195,284.8,197.6,276.7,194.3,270z M185.5,282.5l-18.2,9.2c-3.6,1.8-7.9,0.4-9.7-3.2
		c-1.8-3.6-0.4-7.9,3.2-9.7l0,0l18.2-9.2c3.6-1.8,7.9-0.4,9.7,3.2C190.5,276.4,189.1,280.7,185.5,282.5z"/>
	<path class="st3" d="M186.8,270.4l6-2.8c-0.5-0.6-0.9-1.1-1.5-1.6l-6.1,3.4C185.1,269.4,186.6,269.9,186.8,270.4z"/>
	<path class="st3" d="M189.3,277.9l6.3-0.1c0.1-1.2,0.1-2.5,0-3.8l-6.2,2.9L189.3,277.9z"/>
	<path class="st9" d="M194.3,270c-3.4-6.7-11.5-9.3-18.1-6l-18.3,9.2c-6.7,3.3-9.4,11.5-6,18.1c0,0,0,0,0,0l0,0
		c3.3,6.7,11.5,9.4,18.1,6c0,0,0,0,0,0l18.3-9.2C195,284.8,197.6,276.7,194.3,270z M185.5,282.5l-18.2,9.2c-3.6,1.8-7.9,0.4-9.7-3.2
		c-1.8-3.6-0.4-7.9,3.2-9.7l0,0l18.2-9.2c3.6-1.8,7.9-0.4,9.7,3.2C190.5,276.4,189.1,280.7,185.5,282.5z"/>
	<path class="st6" d="M185.5,282.5c1-0.6,1.8-1.3,2.5-2.2c0.8-1.1,1.2-2.3,1.3-3.6c0.3-3.9-2.5-7.2-6.4-7.6
		c-1.3-0.1-2.5,0.1-3.7,0.7l-3.3,1.7c-4.6,2.3-9.6,4.9-14.9,7.5c-2.6,1.3-4.1,4-3.8,6.9c0.1,1.3,0.7,2.6,1.5,3.6
		c0.8,1,1.9,1.8,3.1,2.2c1.1,0.4,2.4,0.5,3.6,0.3c1.1-0.3,2.2-0.7,3.2-1.3l5.7-2.8l8.3-4.1l2.3-1.1
		C185,282.7,185.3,282.6,185.5,282.5c-0.2,0.2-0.5,0.3-0.7,0.4l-2.2,1.2l-8.2,4.2l-5.7,2.9c-1,0.6-2.2,1.1-3.3,1.3
		c-1.3,0.2-2.6,0.1-3.8-0.3c-1.3-0.5-2.4-1.3-3.3-2.3c-0.9-1.1-1.4-2.5-1.6-3.9c-0.3-3.1,1.3-6,4.1-7.4l15-7.5l3.4-1.7
		c1.1-0.5,2.3-0.8,3.5-0.7c2.2,0.1,4.3,1.2,5.6,3c1.1,1.4,1.6,3.2,1.4,5c-0.2,2.2-1.4,4.2-3.3,5.4c-0.2,0.1-0.4,0.2-0.6,0.3
		L185.5,282.5z"/>
	<path class="st6" d="M194.3,270c0,0,0.1,0.1,0.1,0.3s0.2,0.5,0.4,0.9s0.3,0.9,0.5,1.5c0.2,0.7,0.3,1.4,0.4,2.1
		c0.2,1.9,0,3.9-0.6,5.8c-0.4,1.2-0.9,2.3-1.6,3.3c-0.8,1.1-1.7,2.1-2.8,3c-1.2,0.9-2.5,1.7-3.9,2.3l-4.3,2.2l-9.5,4.8
		c-1.7,0.9-3.5,1.8-5.3,2.4c-2,0.6-4.1,0.7-6.1,0.4c-2.1-0.3-4.1-1.2-5.8-2.4c-3.6-2.6-5.7-6.8-5.7-11.3c0-2.1,0.5-4.2,1.5-6.1
		c0.9-1.8,2.3-3.4,3.9-4.7c1.6-1.1,3.3-2,5.1-2.8l9.6-4.8l4.3-2.2c1.3-0.7,2.7-1.3,4.1-1.8c1.3-0.3,2.7-0.5,4.1-0.4
		c1.2,0.1,2.4,0.3,3.6,0.6c1.9,0.6,3.6,1.6,5,3c0.5,0.5,1,1,1.4,1.6c0.4,0.5,0.7,0.9,0.9,1.3l0.4,0.9
		C194.2,269.9,194.3,270,194.3,270c-0.8-1.4-1.9-2.7-3.1-3.8c-1.4-1.3-3.1-2.3-5-2.8c-2.4-0.8-5-0.8-7.5-0.1c-1.4,0.4-2.8,1-4.1,1.8
		l-4.3,2.2l-9.5,4.8c-1.7,0.8-3.4,1.7-5,2.8c-1.6,1.2-2.9,2.7-3.8,4.5c-0.9,1.8-1.4,3.8-1.5,5.9c-0.1,4.3,2,8.3,5.5,10.9
		c1.7,1.2,3.6,2,5.6,2.3c2,0.3,4,0.2,5.9-0.3c1.8-0.6,3.5-1.4,5.2-2.4l9.6-4.8l4.3-2.2c1.3-0.6,2.6-1.4,3.8-2.2c1-0.8,2-1.8,2.7-2.9
		c0.7-1,1.2-2.1,1.6-3.2c0.6-1.8,0.9-3.8,0.7-5.7C195.4,273.1,194.9,271.5,194.3,270z"/>
	<path class="st2" d="M252.9,241c-3.3-6.7-11.5-9.4-18.1-6c0,0,0,0,0,0l-18.3,9.2c-6.7,3.3-9.4,11.5-6,18.1c0,0,0,0,0,0l0,0
		c3.3,6.7,11.5,9.4,18.1,6c0,0,0,0,0,0l18.3-9.2C253.6,255.8,256.3,247.7,252.9,241C252.9,241,252.9,241,252.9,241z M244.2,253.5
		l-18.3,9.2c-3.5,1.9-7.9,0.6-9.8-2.9c-1.9-3.5-0.6-7.9,2.9-9.8c0.1-0.1,0.3-0.1,0.4-0.2l18.2-9.2c3.6-1.7,7.9-0.1,9.6,3.5
		C248.8,247.6,247.5,251.7,244.2,253.5L244.2,253.5z"/>
	<path class="st3" d="M245.4,241.4l6-2.8c-0.4-0.6-0.9-1.1-1.5-1.6l-6.1,3.4C243.8,240.4,245.2,241,245.4,241.4z"/>
	<path class="st3" d="M247.9,248.9l6.3-0.1c0.1-1.2,0.1-2.5-0.1-3.8l-6.1,2.9L247.9,248.9z"/>
	<path class="st9" d="M252.9,241c-3.3-6.7-11.5-9.4-18.1-6c0,0,0,0,0,0l-18.3,9.2c-6.7,3.3-9.4,11.5-6,18.1c0,0,0,0,0,0l0,0
		c3.3,6.7,11.5,9.4,18.1,6c0,0,0,0,0,0l18.3-9.2C253.6,255.8,256.3,247.7,252.9,241C252.9,241,252.9,241,252.9,241z M244.2,253.5
		l-18.3,9.2c-3.5,1.9-7.9,0.6-9.8-2.9c-1.9-3.5-0.6-7.9,2.9-9.8c0.1-0.1,0.3-0.1,0.4-0.2l18.2-9.2c3.6-1.7,7.9-0.1,9.6,3.5
		C248.8,247.6,247.5,251.7,244.2,253.5L244.2,253.5z"/>
	<path class="st6" d="M244.2,253.5c1-0.6,1.8-1.3,2.5-2.2c0.8-1.1,1.2-2.3,1.3-3.6c0.3-3.9-2.5-7.2-6.4-7.6c-0.1,0-0.2,0-0.3,0
		c-1.2,0-2.3,0.2-3.3,0.7l-3.4,1.7l-14.9,7.5c-2.6,1.3-4.1,4-3.8,6.9c0.4,3.8,3.8,6.6,7.7,6.2c0.1,0,0.3,0,0.4-0.1
		c1.1-0.3,2.2-0.7,3.2-1.3l5.7-2.8l8.3-4.1l2.3-1.1C243.6,253.7,243.9,253.6,244.2,253.5c-0.2,0.2-0.5,0.3-0.8,0.4l-2.2,1.2
		l-8.2,4.2l-5.7,2.9c-1,0.6-2.2,1.1-3.3,1.3c-4,0.7-7.9-2-8.6-6c0-0.2-0.1-0.4-0.1-0.6c-0.3-3.1,1.3-6,4.1-7.4l15-7.5l3.4-1.7
		c1.1-0.5,2.3-0.8,3.5-0.7c2.2,0.1,4.3,1.2,5.6,3c1.1,1.4,1.6,3.2,1.4,5c-0.1,1.3-0.6,2.6-1.4,3.7c-0.5,0.7-1.1,1.3-1.9,1.7
		c-0.2,0.1-0.4,0.2-0.6,0.3C244.2,253.5,244.2,253.5,244.2,253.5z"/>
	<path class="st6" d="M252.9,241c0,0,0.1,0.1,0.2,0.3l0.4,0.9c0.2,0.4,0.3,0.9,0.5,1.5c0.2,0.7,0.3,1.4,0.4,2.1
		c0.2,1.9,0,3.9-0.6,5.8c-0.8,2.5-2.3,4.7-4.4,6.3c-1.2,0.9-2.5,1.7-3.9,2.3l-4.3,2.2l-9.5,4.8c-1.7,1-3.5,1.8-5.3,2.4
		c-2,0.6-4.1,0.7-6.1,0.4c-2.1-0.3-4.1-1.2-5.8-2.4c-1.8-1.3-3.2-3-4.2-4.9c-1-2-1.5-4.1-1.5-6.3c0-2.1,0.5-4.2,1.5-6.1
		c0.9-1.8,2.3-3.4,3.9-4.7c1.6-1.1,3.3-2,5.1-2.8l9.6-4.8l4.3-2.2c1.3-0.7,2.7-1.3,4.1-1.8c1.3-0.3,2.7-0.5,4.1-0.4
		c1.2,0.1,2.4,0.3,3.6,0.7c1.9,0.6,3.6,1.6,5,2.9c0.5,0.5,1,1,1.5,1.6c0.4,0.5,0.7,0.9,0.9,1.3l0.5,0.8
		C252.8,240.8,252.9,240.9,252.9,241c-0.8-1.4-1.8-2.7-3-3.8c-1.4-1.3-3.2-2.2-5-2.8c-1.1-0.3-2.3-0.5-3.5-0.6c-1.3,0-2.7,0.1-4,0.5
		c-1.4,0.4-2.8,1-4.1,1.8l-4.3,2.2l-9.6,4.8c-1.7,0.8-3.4,1.7-5,2.8c-3.2,2.5-5.2,6.3-5.2,10.4c-0.1,4.3,2,8.3,5.5,10.9
		c1.7,1.2,3.6,2,5.6,2.3c2,0.3,4,0.2,5.9-0.3c1.8-0.6,3.5-1.4,5.2-2.4l9.5-4.8l4.3-2.2c1.3-0.6,2.6-1.4,3.8-2.2c1-0.8,2-1.8,2.7-2.9
		c0.7-1,1.2-2.1,1.6-3.2c0.6-1.8,0.9-3.8,0.7-5.7C254,244.1,253.6,242.5,252.9,241z"/>
	<path class="st2" d="M277.5,234.2l-31.3,14.7c-1.8,0.8-3.8,0.1-4.7-1.7c0,0,0,0,0,0l0,0c-0.8-1.8-0.1-3.9,1.7-4.7c0,0,0,0,0,0
		l31.3-14.7c1.8-0.8,3.9-0.1,4.7,1.7c0,0,0,0,0,0l0,0C280,231.2,279.2,233.3,277.5,234.2C277.5,234.2,277.5,234.2,277.5,234.2z"/>
	<path class="st6" d="M277.5,234.2c0,0,0.3-0.1,0.7-0.5c1.4-1.2,1.6-3.4,0.3-4.8c-0.3-0.3-0.6-0.6-1-0.8c-0.8-0.4-1.6-0.5-2.4-0.3
		c-0.4,0.1-0.9,0.3-1.3,0.6l-1.4,0.6l-29.2,13.8c-1.6,0.8-2.3,2.7-1.6,4.4c0.5,1,1.5,1.7,2.6,1.9c0.7,0.1,1.4-0.1,2-0.4l2-0.9
		l3.8-1.8l13.2-6.1l8.9-4.1l2.4-1.1l0.6-0.3C277.4,234.2,277.5,234.2,277.5,234.2l-0.2,0.1l-0.6,0.3l-2.4,1.2l-8.8,4.2l-13.1,6.2
		l-3.8,1.8l-2,0.9c-0.7,0.4-1.5,0.6-2.2,0.5c-0.8-0.1-1.6-0.4-2.2-0.9c-1.6-1.4-1.7-3.8-0.3-5.3c0.3-0.4,0.8-0.7,1.2-0.9l29.3-13.6
		l1.4-0.6c0.4-0.2,0.9-0.4,1.3-0.6c2-0.5,3.9,0.7,4.5,2.6c0.1,0.5,0.1,0.9,0.1,1.4c-0.1,0.9-0.6,1.7-1.3,2.3
		C278,233.9,277.8,234.1,277.5,234.2z"/>
	<path class="st2" d="M218.9,263.1l-31.3,14.7c-1.8,0.8-3.9,0.1-4.7-1.7c0,0,0,0,0,0l0,0c-0.8-1.8-0.1-3.8,1.7-4.7c0,0,0,0,0,0
		l31.4-14.7c1.8-0.8,3.8-0.1,4.7,1.7c0,0,0,0,0,0l0,0C221.4,260.2,220.6,262.3,218.9,263.1C218.9,263.1,218.9,263.1,218.9,263.1z"/>
	<path class="st6" d="M218.9,263.1c0.3-0.2,0.5-0.3,0.7-0.5c0.7-0.6,1.1-1.4,1.2-2.3c0.2-1.9-1.2-3.5-3-3.7c-0.4,0-0.8,0-1.2,0.1
		c-0.4,0.2-0.9,0.3-1.3,0.5l-1.4,0.6l-29.2,13.8c-1.6,0.8-2.3,2.7-1.6,4.3c0.5,1.1,1.5,1.8,2.7,1.9c0.7,0.1,1.4-0.1,2-0.4l2-0.9
		l3.8-1.8l13.2-6.1l8.9-4.1l2.4-1.1l0.6-0.3L218.9,263.1c0,0.1-0.1,0.1-0.2,0.1l-0.6,0.3l-2.4,1.2l-8.8,4.2l-13.1,6.2l-3.8,1.8
		l-2,0.9c-0.7,0.4-1.5,0.6-2.3,0.5c-0.8-0.1-1.6-0.4-2.2-0.9c-0.6-0.6-1-1.3-1.2-2.1c-0.3-1.7,0.5-3.4,2.1-4.1l29.2-13.6l1.4-0.6
		c0.4-0.2,0.9-0.4,1.4-0.5c0.9-0.2,1.8-0.1,2.7,0.3c1.3,0.7,2.1,2.2,1.9,3.6c-0.1,0.9-0.6,1.7-1.3,2.3
		C219.4,262.9,219.1,263,218.9,263.1z"/>
	<path class="st2" d="M160.4,290.6l-31.3,14.7c-1.8,0.8-3.8,0.1-4.7-1.7c0,0,0,0,0,0l0,0c-0.8-1.8-0.1-3.8,1.7-4.7c0,0,0,0,0,0
		l31.3-14.7c1.8-0.8,3.9-0.1,4.7,1.7l0,0C162.9,287.7,162.2,289.8,160.4,290.6z"/>
	<path class="st6" d="M160.4,290.6c0,0,0.3-0.1,0.8-0.5c0.7-0.6,1.1-1.4,1.2-2.3c0.1-1.4-0.6-2.7-1.8-3.4c-0.7-0.4-1.6-0.5-2.4-0.3
		c-0.4,0.1-0.9,0.3-1.3,0.5l-1.4,0.6l-29.2,13.8c-1.6,0.8-2.3,2.7-1.6,4.4c0.5,1,1.5,1.7,2.6,1.9c0.7,0.1,1.4-0.1,2-0.4l2-0.9
		l3.8-1.8l13.2-6.1l8.9-4.1l2.4-1.1l0.6-0.3L160.4,290.6c0,0,0,0-0.2,0.1l-0.6,0.3l-2.4,1.2l-8.8,4.2l-13.1,6.2l-3.8,1.8l-2,0.9
		c-0.7,0.4-1.5,0.6-2.2,0.5c-2.1-0.2-3.6-2-3.4-4.1c0.1-1.3,0.9-2.5,2.2-3.1l29.2-13.6l1.4-0.6c0.4-0.2,0.9-0.4,1.4-0.6
		c0.9-0.2,1.8-0.1,2.7,0.3c1.3,0.7,2.1,2.2,1.9,3.6c-0.1,0.9-0.6,1.7-1.3,2.3C161,290.4,160.7,290.5,160.4,290.6z"/>
	<path class="st4" d="M267.9,249.1c-4.3-6-12.6-7.4-18.6-3.1l-25.4,18.1l-3.3-4.7l25.4-18.1c8.6-6.1,20.5-4.1,26.6,4.5"/>
	<g class="st10">
		<path d="M267.9,249.1c-4.3-6-12.6-7.4-18.6-3.1l-25.4,18.1l-3.3-4.7l25.4-18.1c8.6-6.1,20.5-4.1,26.6,4.5"/>
	</g>
	<path class="st4" d="M205.8,261.8l17.5-12.5c2.6-1.8,6.2-1.2,8,1.4l23.1,32.5c1.8,2.6,1.2,6.2-1.4,8l-17.5,12.5
		c-2.6,1.8-6.2,1.2-8-1.4l-23.1-32.5C202.6,267.2,203.2,263.6,205.8,261.8z"/>
	<path class="st6" d="M227.6,302.2c0.4,0.4,0.7,0.8,1.1,1.1c1.2,0.9,2.8,1.3,4.3,1.1c0.5-0.1,1-0.2,1.5-0.4c0.5-0.3,1-0.6,1.5-0.9
		l3.2-2.3l7.9-5.6l4.6-3.3c0.8-0.5,1.6-1.1,2.3-1.9c0.7-0.8,1.1-1.7,1.2-2.7c0.2-1,0-2.1-0.4-3c-0.5-1-1.1-1.9-1.8-2.7
		c-1.3-1.8-2.7-3.7-4-5.6l-17.9-25.2c-0.8-1.1-1.9-1.8-3.2-2.1c-1.3-0.3-2.6-0.2-3.7,0.4c-0.6,0.3-1.1,0.7-1.6,1.1l-1.6,1.1
		l-3.2,2.3l-12.1,8.6c-1.8,1.5-2.4,3.8-1.7,6c0.4,1,1,1.9,1.7,2.8l1.9,2.6c2.4,3.4,4.7,6.7,6.8,9.6l9.8,13.9l2.6,3.8l0.7,1
		C227.4,302,227.5,302.1,227.6,302.2c-0.1-0.1-0.2-0.2-0.3-0.3l-0.7-1l-2.6-3.7l-9.9-13.8l-6.8-9.6l-1.9-2.6c-0.3-0.4-0.6-0.9-1-1.3
		c-0.3-0.5-0.6-1-0.8-1.5c-0.8-2.3-0.1-4.9,1.8-6.5c3.9-2.8,7.9-5.7,12.1-8.7l3.2-2.3l1.6-1.1c0.5-0.4,1.1-0.8,1.7-1.1
		c1.3-0.6,2.7-0.8,4.1-0.5c1.4,0.3,2.6,1.2,3.5,2.4c6.4,8.9,12.4,17.4,17.9,25.2l4,5.7l1,1.4c0.3,0.5,0.6,0.9,0.9,1.5
		c0.8,2.1,0.5,4.5-1,6.2c-0.7,0.7-1.5,1.4-2.4,1.9l-4.6,3.2l-7.9,5.6l-3.2,2.3c-0.5,0.4-1,0.7-1.5,0.9c-0.5,0.2-1,0.4-1.6,0.4
		c-1.6,0.2-3.2-0.3-4.4-1.2C228.2,303.1,227.9,302.7,227.6,302.2z"/>
	<g class="st11">
		<path d="M235.5,277.4c1.9-1.4,2.4-4,1-6c-1.4-1.9-4-2.4-6-1c-1.6,1.1-2.2,3.1-1.6,4.9l-5.2,3.7l1.4,1.9l5.2-3.7
			C231.8,278.5,233.9,278.6,235.5,277.4z"/>
	</g>
	<path class="st8" d="M205.3,265.5c-0.1-0.1,4.4-3.4,9.9-7.3c5.5-3.9,10.1-7,10.1-6.9s-4.4,3.4-9.9,7.3
		C209.9,262.5,205.4,265.6,205.3,265.5z"/>
	<path class="st8" d="M226.5,274.4c-0.1-0.2-0.1-0.4-0.1-0.6c0-0.5,0.1-1.1,0.3-1.6c1-3.2,4.3-4.9,7.5-4c0.4,0.1,0.7,0.3,1.1,0.5
		c0.5,0.2,0.9,0.6,1.3,0.9c0.3,0.3,0.4,0.4,0.4,0.5c-0.6-0.4-1.2-0.8-1.8-1.1c-3-1.4-6.6-0.1-8,2.9c-0.1,0.1-0.1,0.3-0.2,0.5
		C226.8,273,226.6,273.7,226.5,274.4z"/>
	<path class="st2" d="M292.9,389l6.4,18.7c2.4,6.9,9.9,10.6,16.8,8.2l0,0c6.9-2.4,10.6-9.9,8.3-16.8c0,0,0,0,0,0l-6.5-19.1
		c-2.4-6.9-9.9-10.6-16.8-8.2c-0.5,0.2-0.9,0.4-1.4,0.6C293.6,375.5,290.7,382.6,292.9,389z M304,377.4c3.5-0.6,6.9,1.5,8,4.9
		l6.3,18.4c1.2,3.4-0.3,7.2-3.5,8.9c-3.5,1.7-7.8,0.2-9.5-3.3c-0.1-0.3-0.2-0.5-0.3-0.8l-6.5-18.9c-1.3-3.7,0.7-7.7,4.4-9
		C303.4,377.6,303.7,377.5,304,377.4L304,377.4z"/>
	<path class="st3" d="M306.1,377.3l-2.3-6c0.7-0.1,1.4-0.1,2.1-0.1l2,6.6C307.9,377.8,306.5,377.1,306.1,377.3z"/>
	<path class="st3" d="M299.2,380.9l-4.4-4.4c0.8-0.9,1.7-1.8,2.6-2.6l2.3,6.2L299.2,380.9z"/>
	<path class="st9" d="M292.9,389l6.4,18.7c2.4,6.9,9.9,10.6,16.8,8.2l0,0c6.9-2.4,10.6-9.9,8.3-16.8c0,0,0,0,0,0l-6.5-19.1
		c-2.4-6.9-9.9-10.6-16.8-8.2c-0.5,0.2-0.9,0.4-1.4,0.6C293.6,375.5,290.7,382.6,292.9,389z M304,377.4c3.5-0.6,6.9,1.5,8,4.9
		l6.3,18.4c1.2,3.4-0.3,7.2-3.5,8.9c-3.5,1.7-7.8,0.2-9.5-3.3c-0.1-0.3-0.2-0.5-0.3-0.8l-6.5-18.9c-1.3-3.7,0.7-7.7,4.4-9
		C303.4,377.6,303.7,377.5,304,377.4L304,377.4z"/>
	<path class="st6" d="M304.1,377.4c-1.1,0.3-2.1,0.8-2.9,1.4c-1,0.8-1.8,1.8-2.2,3c-0.6,1.6-0.6,3.3,0,4.9c1.3,3.6,2.7,7.9,4.4,12.6
		l1.3,3.7c0.4,1.3,0.9,2.5,1.4,3.7c1.5,2.4,4.2,3.7,7,3.2c1.4-0.2,2.6-0.9,3.6-1.9c0.9-1,1.6-2.2,1.8-3.5c0.6-2.7-0.9-5.1-1.5-7.5
		c-1.6-4.8-3.1-9.1-4.3-12.7c-0.3-0.9-0.6-1.8-0.9-2.5c-0.3-0.7-0.7-1.4-1.3-2c-0.8-1-1.9-1.7-3.1-2.1c-0.8-0.3-1.6-0.4-2.4-0.3
		C304.7,377.3,304.4,377.3,304.1,377.4c0.1-0.1,0.1-0.1,0.2-0.1c0.2,0,0.4-0.1,0.6-0.1c0.8-0.1,1.7,0,2.5,0.3
		c1.3,0.4,2.4,1.1,3.3,2.1c0.6,0.6,1,1.3,1.4,2.1c0.3,0.8,0.6,1.7,0.9,2.6c1.3,3.6,2.7,7.9,4.4,12.6l1.3,3.7
		c0.5,1.3,0.6,2.7,0.3,4.1c-0.3,1.4-0.9,2.8-2,3.8c-1.1,1.1-2.4,1.8-3.9,2c-3,0.5-6-0.8-7.5-3.4c-0.3-0.6-0.6-1.2-0.8-1.9
		c-0.2-0.6-0.4-1.3-0.7-1.9c-0.4-1.2-0.8-2.5-1.2-3.7c-1.6-4.8-3.1-9.1-4.3-12.7c-1.1-3-0.1-6.3,2.5-8.2c0.7-0.5,1.4-0.9,2.2-1.1
		c0.3-0.1,0.5-0.1,0.6-0.1L304.1,377.4z"/>
	<path class="st6" d="M292.9,389c-0.1-0.1-0.1-0.2-0.1-0.3l-0.3-0.9c-0.3-1.2-0.4-2.4-0.4-3.6c0-1.9,0.4-3.8,1.2-5.6
		c0.5-1.1,1.1-2.1,1.9-3c0.9-1,1.9-1.9,3-2.6c1.3-0.8,2.6-1.3,4.1-1.7c1.6-0.4,3.2-0.4,4.8-0.2c3.6,0.5,6.8,2.3,9,5.2l0.8,1.2
		l0.7,1.3c0.2,0.5,0.4,0.9,0.5,1.4s0.3,0.9,0.5,1.4l1.9,5.6c1.3,3.8,2.7,7.7,4,11.8c2.6,7-1,14.7-8,17.3c-6.1,2.2-12.9-0.2-16.2-5.8
		c-0.7-1.3-1.3-2.7-1.7-4.1c-1.8-5.3-3.2-9.5-4.2-12.5c-0.5-1.5-0.9-2.6-1.1-3.4l-0.3-0.9C292.9,389.3,292.9,389.2,292.9,389
		c0,0.1,0.1,0.2,0.1,0.3l0.3,0.9c0.3,0.8,0.7,1.9,1.2,3.4l4.4,12.5c0.4,1.4,1,2.7,1.7,4c3.5,6.3,11.4,8.6,17.7,5.1
		c5.7-3.2,8.2-10.1,5.8-16.2l-4-11.8c-0.7-1.9-1.3-3.8-1.9-5.6l-0.5-1.4c-0.2-0.4-0.4-0.9-0.5-1.3s-0.4-0.8-0.6-1.2l-0.8-1.1
		c-2.1-2.8-5.2-4.6-8.7-5.1c-1.5-0.2-3.1-0.1-4.6,0.2c-1.4,0.3-2.8,0.9-4,1.6c-1.1,0.7-2.1,1.5-3,2.5c-0.8,0.9-1.4,1.9-1.9,2.9
		c-0.8,1.7-1.3,3.6-1.3,5.5C292.2,385.9,292.5,387.5,292.9,389z"/>
	<path class="st2" d="M310,409.7l11.2,32c0.6,1.8,2.6,2.7,4.4,2.1l0,0c1.8-0.6,2.7-2.6,2.1-4.4l-11.2-32c-0.6-1.8-2.6-2.7-4.4-2.1
		c0,0,0,0,0,0l0,0C310.4,406,309.4,407.9,310,409.7z"/>
	<path class="st6" d="M310,409.7c-0.1-0.3-0.2-0.6-0.2-0.9c-0.1-0.9,0.2-1.8,0.7-2.5c1.2-1.5,3.5-1.8,5-0.6c0.4,0.3,0.6,0.6,0.9,1
		c0.2,0.4,0.4,0.9,0.5,1.3c0.2,0.5,0.3,0.9,0.5,1.4c2.7,7.7,6.4,18.2,10.5,29.8c0.7,1.9-0.4,4-2.3,4.7c-1.2,0.4-2.6,0.2-3.6-0.7
		c-0.6-0.5-1-1.2-1.2-1.9c-0.2-0.7-0.5-1.3-0.7-2l-1.4-3.9c-1.7-5-3.3-9.6-4.6-13.4s-2.3-6.9-3.1-9.1l-0.8-2.5l-0.2-0.6
		C310.1,409.8,310.1,409.7,310,409.7c0.1,0,0.1,0.1,0.1,0.2l0.2,0.6l0.9,2.5c0.8,2.2,1.9,5.2,3.2,9s3,8.4,4.8,13.4
		c0.4,1.3,0.9,2.5,1.4,3.9l0.7,2c0.2,0.7,0.5,1.2,1.1,1.7c1.3,1.1,3.4,1,4.5-0.4c0.7-0.9,0.9-2,0.6-3.1l-10.4-29.9
		c-0.2-0.5-0.3-0.9-0.5-1.4c-0.1-0.4-0.3-0.9-0.5-1.3c-0.9-1.6-2.9-2.2-4.5-1.3c-0.4,0.2-0.7,0.5-0.9,0.8c-0.6,0.7-0.8,1.5-0.8,2.4
		C310,409.1,310,409.4,310,409.7z"/>
	<path class="st2" d="M228.6,208.2l6.5,19c2.3,6.9,9.9,10.7,16.8,8.3c0,0,0,0,0,0l0,0c6.9-2.4,10.6-9.9,8.2-16.8l-6.5-19.1
		c-2.5-6.9-10.1-10.4-17-7.9C230,194.2,226.4,201.5,228.6,208.2L228.6,208.2z M238.8,197.2c3.7-1.3,7.7,0.7,9,4.3c0,0,0,0,0,0.1
		l6.5,18.9c1.4,3.6-0.4,7.7-4.1,9.1s-7.7-0.4-9.1-4.1c-0.1-0.2-0.1-0.3-0.2-0.5l-6.5-18.9C233.2,202.5,235.1,198.5,238.8,197.2z"/>
	<path class="st3" d="M241.8,196.8l-2.3-6.1c0.7-0.1,1.4-0.1,2.1-0.1l2,6.6C243.7,197.3,242.3,196.6,241.8,196.8z"/>
	<path class="st3" d="M234.9,200.4l-4.4-4.5c0.8-0.9,1.7-1.8,2.6-2.6l2.3,6.2L234.9,200.4z"/>
	<path class="st9" d="M228.6,208.2l6.5,19c2.3,6.9,9.9,10.7,16.8,8.3c0,0,0,0,0,0l0,0c6.9-2.4,10.6-9.9,8.2-16.8l-6.5-19.1
		c-2.5-6.9-10.1-10.4-17-7.9C230,194.2,226.4,201.5,228.6,208.2L228.6,208.2z M238.8,197.2c3.7-1.3,7.7,0.7,9,4.3c0,0,0,0,0,0.1
		l6.5,18.9c1.4,3.6-0.4,7.7-4.1,9.1s-7.7-0.4-9.1-4.1c-0.1-0.2-0.1-0.3-0.2-0.5l-6.5-18.9C233.2,202.5,235.1,198.5,238.8,197.2z"/>
	<path class="st6" d="M238.8,197.2c-1,0.4-1.9,1.1-2.7,1.8c-0.9,0.9-1.5,2.1-1.8,3.3c-0.2,0.8-0.2,1.6-0.1,2.4
		c0.2,0.9,0.4,1.7,0.7,2.6c1.2,3.6,2.7,7.9,4.4,12.7l1.3,3.7c0.2,0.6,0.4,1.3,0.7,1.9c0.3,0.6,0.6,1.2,1,1.7
		c2.4,2.9,6.7,3.2,9.6,0.8c1.4-1.2,2.3-3,2.4-4.9c0-0.7,0-1.3-0.2-1.9c-0.2-0.6-0.4-1.3-0.6-1.9c-0.4-1.2-0.8-2.5-1.2-3.7l-4.3-12.7
		c-0.3-0.9-0.6-1.7-1-2.5c-0.4-0.7-0.9-1.3-1.5-1.8c-1-0.8-2.2-1.4-3.4-1.6C240.9,196.8,239.8,196.9,238.8,197.2l0.1-0.1
		c0.2-0.1,0.4-0.1,0.6-0.2c0.8-0.2,1.6-0.2,2.5-0.1c1.3,0.2,2.6,0.7,3.6,1.5c0.6,0.5,1.2,1.1,1.6,1.9c0.4,0.8,0.8,1.7,1,2.6
		c1.2,3.6,2.7,7.9,4.4,12.7l1.3,3.7c0.2,0.6,0.5,1.2,0.6,1.9c1,3.9-1.3,7.9-5.2,8.9c-1.3,0.3-2.6,0.3-3.9-0.1
		c-1.4-0.4-2.6-1.2-3.6-2.3c-0.5-0.5-0.8-1.1-1.1-1.8c-0.3-0.7-0.4-1.3-0.7-1.9l-1.2-3.7l-4.3-12.7c-0.3-0.9-0.6-1.7-0.7-2.7
		c-0.3-2.2,0.5-4.3,2-5.9c0.6-0.6,1.3-1.1,2-1.4c0.2-0.1,0.4-0.2,0.6-0.2L238.8,197.2z"/>
	<path class="st6" d="M228.6,208.2c0-0.1-0.1-0.2-0.1-0.3c-0.1-0.2-0.2-0.5-0.3-0.9c-0.3-1.2-0.4-2.4-0.4-3.6c0-1.9,0.5-3.8,1.4-5.5
		c0.5-1.1,1.2-2.1,2-3c0.9-1,2-1.9,3.1-2.6c6-3.6,13.7-2,17.8,3.7c0.5,0.8,1,1.6,1.4,2.5c0.4,0.9,0.7,1.8,1,2.7
		c0.6,1.8,1.3,3.7,1.9,5.6c1.3,3.8,2.6,7.7,4,11.8c0.7,2,0.9,4.2,0.6,6.4c-1.1,7.4-8,12.4-15.3,11.3c-2.5-0.4-4.8-1.4-6.7-3
		c-1.2-1.1-2.2-2.3-3-3.7c-0.7-1.3-1.2-2.7-1.6-4.1c-1.8-5.3-3.2-9.6-4.2-12.6c-0.5-1.5-0.9-2.6-1.1-3.4l-0.3-0.9
		C228.7,208.4,228.6,208.3,228.6,208.2c0.1,0.1,0.1,0.2,0.2,0.3l0.3,0.9c0.3,0.8,0.7,1.9,1.2,3.4l4.4,12.5c0.4,1.4,1,2.7,1.6,4
		c3.5,6.3,11.4,8.6,17.7,5.1c1.7-1,3.2-2.3,4.4-4c1.2-1.6,1.9-3.5,2.2-5.5c0.3-2.1,0.1-4.1-0.5-6.1c-1.4-4-2.7-8-4-11.8
		c-0.6-1.9-1.3-3.8-1.9-5.6c-0.3-0.9-0.6-1.8-1-2.7c-0.4-0.8-0.8-1.6-1.4-2.4c-2-2.8-5.1-4.7-8.5-5.3c-3-0.5-6.1,0.1-8.7,1.6
		c-2.1,1.3-3.9,3.1-5,5.4c-0.9,1.7-1.3,3.5-1.4,5.4C228,205,228.2,206.7,228.6,208.2z"/>
	<path class="st2" d="M207.4,147.7l6.5,19c2.4,6.9,9.9,10.6,16.8,8.3c0,0,0,0,0,0l0,0c6.9-2.4,10.6-9.9,8.2-16.8l-6.5-19
		c-2.5-6.9-10.1-10.4-17-7.9C208.8,133.8,205.2,141,207.4,147.7L207.4,147.7z M217.6,136.7c3.7-1.3,7.7,0.7,9,4.3c0,0,0,0,0,0.1
		l6.5,18.9c1.3,3.7-0.7,7.7-4.4,9c-3.7,1.3-7.7-0.7-9-4.4l-6.5-18.9C212,142,213.9,138,217.6,136.7L217.6,136.7z"/>
	<path class="st3" d="M220.6,136.3l-2.3-6c0.7-0.1,1.4-0.1,2.1-0.1l2,6.6C222.5,136.8,221.1,136.1,220.6,136.3z"/>
	<path class="st3" d="M213.7,139.9l-4.4-4.4c0.8-0.9,1.7-1.8,2.6-2.6l2.3,6.2L213.7,139.9z"/>
	<path class="st9" d="M207.4,147.7l6.5,19c2.4,6.9,9.9,10.6,16.8,8.3c0,0,0,0,0,0l0,0c6.9-2.4,10.6-9.9,8.2-16.8l-6.5-19
		c-2.5-6.9-10.1-10.4-17-7.9C208.8,133.8,205.2,141,207.4,147.7L207.4,147.7z M217.6,136.7c3.7-1.3,7.7,0.7,9,4.3c0,0,0,0,0,0.1
		l6.5,18.9c1.3,3.7-0.7,7.7-4.4,9c-3.7,1.3-7.7-0.7-9-4.4l-6.5-18.9C212,142,213.9,138,217.6,136.7L217.6,136.7z"/>
	<path class="st6" d="M217.6,136.7c-1,0.4-1.9,1.1-2.7,1.8c-1.4,1.5-2.1,3.6-1.9,5.7c0.2,0.9,0.4,1.7,0.8,2.6
		c1.2,3.6,2.7,7.9,4.4,12.7l1.3,3.7c0.2,0.6,0.4,1.3,0.7,1.9c0.3,0.6,0.6,1.2,1,1.7c2.4,2.9,6.7,3.2,9.6,0.8c1.4-1.2,2.3-3,2.4-4.9
		c0-0.7,0-1.3-0.2-1.9c-0.2-0.6-0.4-1.3-0.6-1.9c-0.4-1.2-0.8-2.5-1.2-3.7c-1.6-4.8-3.1-9.1-4.3-12.7c-0.2-0.9-0.6-1.7-1-2.5
		c-1.1-1.8-2.9-3.1-5-3.4C219.7,136.3,218.6,136.4,217.6,136.7c-0.1,0,0,0,0.1-0.1s0.3-0.1,0.6-0.2c0.8-0.2,1.6-0.2,2.5-0.1
		c1.3,0.2,2.6,0.7,3.6,1.5c0.6,0.5,1.2,1.1,1.6,1.9c0.4,0.8,0.7,1.7,1,2.6c1.2,3.6,2.7,7.9,4.4,12.7l1.3,3.7
		c0.2,0.6,0.4,1.2,0.6,1.9c0.2,0.7,0.3,1.4,0.2,2.1c-0.1,1.4-0.5,2.8-1.4,4c-2.4,3.3-6.9,4-10.2,1.6c-0.5-0.4-0.9-0.8-1.3-1.2
		c-0.4-0.5-0.8-1.1-1.1-1.8c-0.3-0.6-0.4-1.3-0.7-1.9c-0.4-1.2-0.8-2.5-1.2-3.7c-1.6-4.8-3.1-9.1-4.3-12.7c-0.3-0.9-0.6-1.8-0.7-2.7
		c-0.3-2.2,0.5-4.3,2-5.9c0.6-0.6,1.3-1.1,2-1.4c0.2-0.1,0.4-0.2,0.6-0.2L217.6,136.7z"/>
	<path class="st6" d="M207.4,147.7c-0.1-0.1-0.1-0.2-0.1-0.3c-0.1-0.2-0.2-0.5-0.3-0.9c-0.3-1.2-0.4-2.4-0.4-3.6
		c0.1-1.9,0.5-3.8,1.4-5.5c0.5-1.1,1.2-2.1,2-3c0.9-1,2-1.9,3.1-2.6c6-3.6,13.7-2,17.8,3.7c0.5,0.8,1,1.6,1.4,2.5
		c0.4,0.9,0.7,1.8,1,2.7l1.9,5.6c1.3,3.8,2.7,7.7,4,11.8c0.7,2,0.9,4.2,0.6,6.4c-1.1,7.4-7.9,12.4-15.3,11.4
		c-4.2-0.6-7.8-3.1-9.8-6.8c-0.7-1.3-1.2-2.7-1.6-4.1c-1.8-5.3-3.2-9.6-4.2-12.6c-0.5-1.5-0.9-2.6-1.1-3.4l-0.3-0.9
		C207.4,147.9,207.4,147.8,207.4,147.7c0,0.1,0.1,0.2,0.1,0.3l0.3,0.9c0.3,0.8,0.7,1.9,1.2,3.4l4.4,12.5c0.4,1.4,1,2.7,1.6,4
		c0.8,1.4,1.8,2.6,3,3.6c5.5,4.7,13.7,4,18.3-1.5c1.6-1.9,2.6-4.1,3-6.5c0.3-2.1,0.1-4.1-0.6-6.1c-1.4-4-2.7-8-4-11.8
		c-0.6-1.9-1.3-3.8-1.9-5.6c-0.3-0.9-0.6-1.8-1-2.7c-0.4-0.8-0.8-1.6-1.4-2.4c-3.9-5.5-11.4-7.1-17.2-3.6c-1.1,0.7-2.1,1.5-3,2.5
		c-0.8,0.9-1.4,1.8-2,2.9c-0.9,1.7-1.3,3.5-1.4,5.4C206.8,144.5,206.9,146.2,207.4,147.7z"/>
	<path class="st2" d="M188.5,93.7l6.5,19.1c2.4,6.9,9.9,10.6,16.8,8.2l0,0c6.9-2.4,10.6-9.9,8.2-16.8c0,0,0,0,0,0l-6.5-19.1
		c-2.5-6.9-10.1-10.4-17-7.9C189.9,79.7,186.3,86.9,188.5,93.7z M198.7,82.7c3.7-1.3,7.7,0.7,9,4.4c0,0,0,0,0,0l6.5,18.9
		c1.3,3.7-0.7,7.7-4.4,9s-7.7-0.7-9-4.4l-6.5-18.9C193.1,88,195,84,198.7,82.7C198.7,82.7,198.7,82.7,198.7,82.7L198.7,82.7z"/>
	<path class="st3" d="M201.8,82.3l-2.3-6.1c0.7-0.1,1.4-0.1,2.1-0.1l2,6.6C203.6,82.8,202.2,82.1,201.8,82.3z"/>
	<path class="st3" d="M194.8,85.9l-4.4-4.4c0.8-0.9,1.7-1.8,2.6-2.6l2.3,6.2L194.8,85.9z"/>
	<path class="st9" d="M188.5,93.7l6.5,19.1c2.4,6.9,9.9,10.6,16.8,8.2l0,0c6.9-2.4,10.6-9.9,8.2-16.8c0,0,0,0,0,0l-6.5-19.1
		c-2.5-6.9-10.1-10.4-17-7.9C189.9,79.7,186.3,86.9,188.5,93.7z M198.7,82.7c3.7-1.3,7.7,0.7,9,4.4c0,0,0,0,0,0l6.5,18.9
		c1.3,3.7-0.7,7.7-4.4,9s-7.7-0.7-9-4.4l-6.5-18.9C193.1,88,195,84,198.7,82.7C198.7,82.7,198.7,82.7,198.7,82.7L198.7,82.7z"/>
	<path class="st6" d="M198.7,82.7c-1,0.4-1.9,1.1-2.7,1.8c-0.9,0.9-1.5,2.1-1.8,3.3c-0.2,0.8-0.2,1.6-0.1,2.4
		c0.2,0.9,0.4,1.7,0.7,2.6c1.2,3.6,2.7,7.9,4.4,12.7l1.3,3.7c0.2,0.6,0.4,1.3,0.7,1.9c0.3,0.6,0.6,1.2,1,1.7
		c2.4,2.9,6.7,3.2,9.6,0.8c1.4-1.2,2.3-3,2.4-4.9c0-0.7,0-1.3-0.2-2c-0.2-0.6-0.4-1.3-0.6-1.9c-0.4-1.2-0.8-2.5-1.2-3.7
		c-1.6-4.8-3.1-9.1-4.3-12.7c-0.2-0.9-0.6-1.7-1-2.5c-0.4-0.7-0.9-1.3-1.5-1.8c-1-0.8-2.2-1.4-3.4-1.6
		C200.8,82.3,199.7,82.3,198.7,82.7c-0.1-0.1,0-0.1,0.1-0.1c0.2-0.1,0.4-0.1,0.6-0.2c0.8-0.2,1.6-0.2,2.5-0.1
		c1.3,0.2,2.6,0.7,3.6,1.5c0.6,0.5,1.2,1.2,1.6,1.9c0.4,0.8,0.8,1.7,1.1,2.5c1.2,3.6,2.7,7.9,4.4,12.7l1.3,3.7
		c0.2,0.6,0.4,1.2,0.6,1.9c0.2,0.7,0.3,1.4,0.2,2.1c-0.1,4-3.5,7.2-7.6,7c-0.6,0-1.2-0.1-1.8-0.3c-2.1-0.6-3.8-2.1-4.7-4.1
		c-0.3-0.6-0.4-1.3-0.7-1.9c-0.4-1.2-0.8-2.5-1.2-3.7l-4.2-12.6c-0.3-0.9-0.6-1.7-0.7-2.7c-0.1-0.8,0-1.7,0.1-2.5
		c0.3-1.3,1-2.5,1.9-3.4c0.6-0.6,1.3-1.1,2-1.4c0.2-0.1,0.4-0.2,0.6-0.2L198.7,82.7z"/>
	<path class="st6" d="M188.5,93.7c0,0,0-0.1-0.1-0.3s-0.2-0.5-0.3-0.9c-0.3-1.2-0.4-2.4-0.4-3.6c0-1.9,0.5-3.8,1.4-5.5
		c0.5-1.1,1.2-2.1,2-3c0.9-1,2-1.9,3.1-2.6c6-3.6,13.7-2,17.8,3.7c0.5,0.8,1,1.6,1.4,2.5c0.4,0.9,0.7,1.8,1,2.7
		c0.6,1.8,1.3,3.7,1.9,5.6l4,11.8c0.7,2,0.9,4.2,0.6,6.4c-1.1,7.4-8,12.4-15.3,11.3c-4.1-0.6-7.8-3.1-9.8-6.8
		c-0.7-1.3-1.2-2.7-1.6-4.1c-1.8-5.3-3.2-9.6-4.2-12.5c-0.5-1.5-0.9-2.6-1.1-3.4l-0.3-0.9C188.5,93.9,188.5,93.8,188.5,93.7
		c0,0.1,0.1,0.2,0.1,0.3l0.3,0.9c0.3,0.8,0.7,2,1.2,3.4l4.4,12.5c0.4,1.4,1,2.7,1.6,4c3.5,6.3,11.4,8.6,17.7,5.1
		c3.6-2,6-5.5,6.6-9.5c0.3-2.1,0.1-4.1-0.6-6.1c-1.4-4-2.7-8-4-11.8c-0.7-1.9-1.3-3.8-1.9-5.6c-0.3-0.9-0.6-1.8-1-2.7
		c-0.4-0.8-0.8-1.6-1.4-2.4c-2-2.8-5.1-4.7-8.5-5.3c-3-0.5-6.1,0.1-8.7,1.6c-2.1,1.3-3.9,3.1-5,5.3c-0.9,1.7-1.3,3.5-1.4,5.4
		C187.8,90.5,188,92.1,188.5,93.7z"/>
	<path class="st2" d="M184.2,55.2L196.1,87c0.7,1.8,2.7,2.7,4.4,2l0,0c1.8-0.7,2.7-2.7,2-4.4l-11.9-31.7c-0.7-1.8-2.7-2.7-4.4-2l0,0
		C184.5,51.5,183.6,53.5,184.2,55.2z"/>
	<path class="st6" d="M184.2,55.2c-0.1-0.3-0.2-0.6-0.2-0.9c-0.1-0.9,0.1-1.8,0.7-2.5c1.2-1.6,3.4-1.9,5-0.7c0.4,0.3,0.7,0.6,0.9,1
		c0.2,0.4,0.4,0.9,0.6,1.3l0.5,1.4l11.2,29.6c0.6,1.6,0,3.4-1.4,4.3c-0.7,0.5-1.5,0.7-2.3,0.7c-0.8,0-1.6-0.3-2.2-0.8
		c-0.6-0.5-1-1.1-1.2-1.9c-0.2-0.7-0.5-1.3-0.7-2c-0.5-1.3-1-2.6-1.4-3.8c-1.9-5-3.5-9.5-4.9-13.3l-3.3-9c-0.4-1-0.7-1.8-0.9-2.4
		l-0.2-0.7C184.3,55.4,184.2,55.3,184.2,55.2c0,0,0,0.1,0.1,0.2l0.3,0.6l0.9,2.4l3.4,9l5,13.3c0.5,1.3,0.9,2.5,1.4,3.8
		c0.2,0.7,0.5,1.3,0.8,2c0.2,0.7,0.6,1.2,1.1,1.7c1.4,1.1,3.4,0.9,4.5-0.5c0.7-0.9,0.9-2,0.5-3.1c-4.3-11.6-8.2-22-11-29.7
		c-0.2-0.5-0.4-0.9-0.5-1.4c-0.1-0.4-0.3-0.9-0.5-1.3c-0.9-1.6-3-2.1-4.6-1.1c-0.3,0.2-0.6,0.5-0.9,0.8c-0.5,0.7-0.8,1.5-0.7,2.4
		C184.1,54.9,184.3,55.2,184.2,55.2z"/>
	<path class="st2" d="M224.3,169.7l11.9,31.8c0.7,1.8,2.7,2.7,4.4,2l0,0c1.8-0.7,2.7-2.7,2-4.4l-11.9-31.8c-0.7-1.8-2.7-2.7-4.4-2
		l0,0C224.5,166,223.7,168,224.3,169.7z"/>
	<path class="st6" d="M224.3,169.7c-0.1-0.3-0.2-0.6-0.2-0.9c-0.1-0.9,0.1-1.8,0.7-2.5c1.2-1.6,3.5-1.9,5-0.7c0.4,0.3,0.6,0.6,0.9,1
		c0.2,0.4,0.4,0.9,0.6,1.3l0.5,1.4l11.2,29.6c0.7,1.9-0.3,4.1-2.2,4.8c-0.5,0.2-0.9,0.2-1.4,0.2c-0.8,0-1.6-0.3-2.2-0.8
		c-0.6-0.5-1-1.2-1.2-1.9c-0.2-0.7-0.5-1.3-0.7-2c-0.5-1.3-1-2.6-1.4-3.9l-4.9-13.3l-3.3-9l-0.9-2.5c-0.1-0.3-0.2-0.5-0.2-0.6
		C224.4,169.9,224.3,169.8,224.3,169.7c0.1,0.1,0.1,0.1,0.1,0.2c0.1,0.2,0.2,0.4,0.3,0.6c0.2,0.6,0.6,1.4,1,2.4c0.8,2.2,2,5.2,3.4,9
		s3.1,8.3,5,13.3l1.4,3.9l0.8,2c0.2,0.7,0.6,1.2,1.1,1.7c1.4,1.1,3.4,0.9,4.5-0.5c0.7-0.9,0.9-2,0.5-3.1c-4.3-11.6-8.2-22-11-29.6
		l-0.5-1.4c-0.1-0.4-0.3-0.9-0.5-1.3c-0.4-0.7-1.1-1.3-1.9-1.5c-1.3-0.4-2.7,0.1-3.6,1.1c-0.5,0.7-0.8,1.5-0.7,2.4
		C224.2,169.4,224.4,169.7,224.3,169.7z"/>
	<path class="st2" d="M271.9,327l6.4,18.7c2.4,6.9,9.9,10.6,16.8,8.2l0,0c6.9-2.4,10.6-9.9,8.3-16.8c0,0,0,0,0,0l-6.5-19
		c-2.4-6.9-9.9-10.6-16.8-8.2c-0.5,0.2-0.9,0.4-1.4,0.6C272.5,313.4,269.6,320.5,271.9,327z M283,315.3c3.5-0.6,6.9,1.5,8,4.9
		l6.3,18.4c1.2,3.4-0.3,7.2-3.5,8.9c-3.5,1.7-7.8,0.2-9.5-3.3c-0.1-0.3-0.2-0.5-0.3-0.8l-6.5-18.9c-1.3-3.7,0.7-7.7,4.4-9
		C282.3,315.5,282.7,315.4,283,315.3L283,315.3z"/>
	<path class="st3" d="M285,315.2l-2.3-6c0.7-0.1,1.4-0.1,2.1-0.1l2,6.6C286.9,315.7,285.5,315,285,315.2z"/>
	<path class="st3" d="M278.1,318.8l-4.4-4.4c0.8-0.9,1.7-1.8,2.6-2.6l2.3,6.2L278.1,318.8z"/>
	<path class="st9" d="M271.9,327l6.4,18.7c2.4,6.9,9.9,10.6,16.8,8.2l0,0c6.9-2.4,10.6-9.9,8.3-16.8c0,0,0,0,0,0l-6.5-19
		c-2.4-6.9-9.9-10.6-16.8-8.2c-0.5,0.2-0.9,0.4-1.4,0.6C272.5,313.4,269.6,320.5,271.9,327z M283,315.3c3.5-0.6,6.9,1.5,8,4.9
		l6.3,18.4c1.2,3.4-0.3,7.2-3.5,8.9c-3.5,1.7-7.8,0.2-9.5-3.3c-0.1-0.3-0.2-0.5-0.3-0.8l-6.5-18.9c-1.3-3.7,0.7-7.7,4.4-9
		C282.3,315.5,282.7,315.4,283,315.3L283,315.3z"/>
	<path class="st6" d="M283,315.3c-1.1,0.3-2,0.8-2.9,1.4c-1,0.8-1.8,1.8-2.2,3c-0.6,1.6-0.6,3.3,0,4.9c1.3,3.6,2.7,7.9,4.4,12.6
		l1.3,3.7c0.4,1.3,0.9,2.5,1.4,3.7c1.5,2.4,4.2,3.7,7,3.2c1.4-0.2,2.6-0.9,3.6-1.9c0.9-1,1.6-2.2,1.8-3.5c0.6-2.7-0.8-5.1-1.5-7.5
		c-1.6-4.8-3.1-9.1-4.3-12.7c-0.3-0.9-0.6-1.8-0.9-2.5c-0.3-0.7-0.7-1.4-1.3-2c-0.8-1-1.9-1.7-3.1-2.1c-0.8-0.3-1.6-0.4-2.4-0.3
		C283.6,315.3,283.3,315.3,283,315.3l0.2-0.1c0.2,0,0.4-0.1,0.6-0.1c0.8-0.1,1.7,0,2.5,0.3c1.3,0.4,2.4,1.1,3.3,2.1
		c0.6,0.6,1,1.3,1.4,2.1c0.3,0.8,0.6,1.7,0.9,2.6c1.3,3.6,2.7,7.9,4.4,12.6l1.3,3.7c0.5,1.3,0.6,2.7,0.3,4.1c-0.3,1.4-1,2.8-2,3.8
		c-1.1,1.1-2.4,1.8-3.9,2c-3,0.5-6-0.8-7.5-3.4c-0.3-0.6-0.6-1.2-0.8-1.9c-0.2-0.6-0.4-1.3-0.6-1.9c-0.4-1.2-0.8-2.5-1.2-3.7
		c-1.6-4.8-3.1-9.1-4.3-12.7c-0.6-1.7-0.6-3.5,0.1-5.1c0.5-1.2,1.3-2.3,2.4-3.1c0.7-0.5,1.4-0.9,2.2-1.1c0.3-0.1,0.5-0.1,0.6-0.1
		L283,315.3z"/>
	<path class="st6" d="M271.9,327c0,0,0-0.1-0.1-0.3s-0.2-0.5-0.3-0.9c-0.3-1.2-0.4-2.4-0.4-3.6c0-1.9,0.4-3.8,1.2-5.6
		c0.5-1.1,1.1-2.1,1.9-3c0.9-1,1.9-1.9,3-2.6c1.3-0.8,2.6-1.3,4.1-1.7c1.6-0.4,3.2-0.4,4.8-0.2c3.6,0.5,6.8,2.3,9,5.2l0.8,1.2
		l0.7,1.3c0.2,0.5,0.4,0.9,0.5,1.4s0.3,0.9,0.5,1.4l1.9,5.6c1.3,3.8,2.6,7.7,4,11.8c2.6,7-1,14.7-8,17.3c-6.1,2.2-12.9-0.2-16.2-5.8
		c-0.7-1.3-1.2-2.7-1.7-4.1l-4.2-12.5c-0.5-1.5-0.8-2.6-1.1-3.4c-0.1-0.4-0.2-0.7-0.3-0.9C271.9,327.2,271.9,327.1,271.9,327
		c0,0.1,0.1,0.2,0.1,0.3l0.3,0.9c0.3,0.8,0.7,1.9,1.2,3.4l4.4,12.5c0.4,1.4,1,2.7,1.7,4c3.5,6.3,11.4,8.5,17.7,5
		c5.7-3.2,8.2-10.1,5.8-16.1c-1.4-4-2.7-8-4-11.8c-0.7-1.9-1.3-3.8-1.9-5.6c-0.1-0.5-0.3-0.9-0.5-1.4c-0.2-0.4-0.4-0.9-0.5-1.3
		s-0.4-0.8-0.6-1.2l-0.8-1.1c-2.1-2.8-5.2-4.6-8.7-5.1c-1.5-0.2-3.1-0.1-4.6,0.2c-1.4,0.3-2.8,0.9-4,1.6c-1.1,0.7-2.1,1.5-3,2.5
		c-0.8,0.9-1.4,1.9-1.9,2.9c-0.8,1.7-1.3,3.6-1.3,5.5C271.2,323.8,271.5,325.4,271.9,327z"/>
	<path class="st2" d="M287.8,346l11.2,32c0.6,1.8,2.6,2.7,4.4,2.1l0,0c1.8-0.6,2.7-2.6,2.1-4.4c0,0,0,0,0,0l-11.2-32
		c-0.6-1.8-2.6-2.7-4.4-2.1l0,0C288.1,342.3,287.1,344.2,287.8,346C287.8,346,287.8,346,287.8,346z"/>
	<path class="st6" d="M287.8,346c-0.1-0.3-0.2-0.6-0.2-0.9c-0.1-0.9,0.2-1.8,0.7-2.5c1.2-1.5,3.5-1.8,5-0.6c0.4,0.3,0.6,0.6,0.9,1
		c0.2,0.4,0.4,0.9,0.5,1.3l0.5,1.4c2.7,7.7,6.4,18.2,10.5,29.8c0.7,1.9-0.3,4-2.3,4.7c-0.5,0.2-1,0.2-1.5,0.2
		c-0.8-0.1-1.5-0.4-2.1-0.9c-0.6-0.5-1-1.2-1.2-1.9c-0.2-0.7-0.5-1.3-0.7-2l-1.3-3.9c-1.8-5-3.3-9.6-4.6-13.4s-2.3-6.9-3.1-9.1
		c-0.3-1-0.6-1.9-0.8-2.5c-0.1-0.3-0.1-0.5-0.2-0.6C287.8,346.2,287.8,346.1,287.8,346c0,0.1,0.1,0.1,0.1,0.2l0.2,0.6l0.9,2.5l3.2,9
		c1.4,3.8,3,8.4,4.8,13.4c0.4,1.3,0.9,2.5,1.4,3.9c0.2,0.7,0.5,1.3,0.7,2c0.2,0.7,0.5,1.3,1.1,1.7c1.4,1.1,3.4,0.9,4.5-0.4
		c0.7-0.8,0.9-1.9,0.6-3c-4-11.6-7.7-22.2-10.4-29.9l-0.5-1.4c-0.1-0.4-0.3-0.9-0.5-1.3c-0.4-0.7-1.1-1.3-1.9-1.5
		c-1.3-0.4-2.7,0-3.6,1c-0.5,0.7-0.8,1.5-0.8,2.4C287.7,345.7,287.8,346,287.8,346z"/>
	<path class="st2" d="M250.6,266.1l6.5,19.1c2.4,6.9,9.9,10.6,16.8,8.2l0,0c6.9-2.4,10.6-9.9,8.3-16.8c0,0,0,0,0,0l-6.5-19
		c-2.4-6.9-9.9-10.6-16.8-8.3C251.9,251.7,248.2,259.2,250.6,266.1L250.6,266.1z M260.8,255.1c3.7-1.3,7.7,0.7,9,4.4c0,0,0,0,0,0
		l6.5,18.9c1.3,3.7-0.7,7.7-4.4,9s-7.7-0.7-9-4.4l0,0l-6.5-18.9C255.2,260.4,257.1,256.4,260.8,255.1z"/>
	<path class="st3" d="M263.8,254.8l-2.3-6c0.7-0.1,1.4-0.1,2.1-0.1l2,6.6C265.7,255.2,264.3,254.5,263.8,254.8z"/>
	<path class="st3" d="M256.9,258.3l-4.4-4.4c0.8-0.9,1.7-1.8,2.6-2.6l2.3,6.2L256.9,258.3z"/>
	<path class="st9" d="M250.6,266.1l6.5,19.1c2.4,6.9,9.9,10.6,16.8,8.2l0,0c6.9-2.4,10.6-9.9,8.3-16.8c0,0,0,0,0,0l-6.5-19
		c-2.4-6.9-9.9-10.6-16.8-8.3C251.9,251.7,248.2,259.2,250.6,266.1L250.6,266.1z M260.8,255.1c3.7-1.3,7.7,0.7,9,4.4c0,0,0,0,0,0
		l6.5,18.9c1.3,3.7-0.7,7.7-4.4,9s-7.7-0.7-9-4.4l0,0l-6.5-18.9C255.2,260.4,257.1,256.4,260.8,255.1z"/>
	<path class="st6" d="M260.8,255.1c-1,0.4-1.9,1.1-2.7,1.8c-1.4,1.5-2.1,3.6-1.9,5.7c0.2,0.9,0.4,1.7,0.8,2.6
		c1.2,3.6,2.7,7.9,4.4,12.7l1.3,3.7c0.2,0.6,0.4,1.3,0.7,1.9c0.2,0.6,0.6,1.2,1,1.7c2.4,2.9,6.7,3.2,9.6,0.8c1.4-1.2,2.3-3,2.4-4.9
		c0-0.7,0-1.3-0.2-2c-0.1-0.6-0.4-1.3-0.6-1.9l-1.2-3.7c-1.6-4.8-3.1-9.1-4.3-12.7c-0.2-0.9-0.6-1.7-1-2.5c-0.4-0.7-0.9-1.3-1.5-1.8
		c-1-0.8-2.2-1.4-3.4-1.6C262.9,254.8,261.8,254.8,260.8,255.1c-0.1,0,0,0,0.1-0.1c0.2-0.1,0.4-0.1,0.6-0.2c0.8-0.2,1.6-0.2,2.5-0.1
		c2.2,0.3,4.1,1.5,5.2,3.4c0.4,0.8,0.8,1.7,1.1,2.5c1.2,3.6,2.7,7.9,4.4,12.7c0.4,1.2,0.8,2.4,1.3,3.7c0.2,0.6,0.5,1.2,0.6,1.9
		c0.5,2.1,0.1,4.4-1.2,6.1c-2.4,3.3-6.9,4-10.2,1.6c-0.5-0.4-0.9-0.8-1.3-1.2c-0.5-0.5-0.8-1.1-1.1-1.8c-0.3-0.6-0.5-1.3-0.7-1.9
		c-0.4-1.2-0.8-2.5-1.2-3.7c-1.6-4.8-3.1-9.1-4.3-12.7c-0.3-0.9-0.6-1.7-0.7-2.6c-0.1-0.8,0-1.7,0.2-2.5c0.5-2.1,1.9-3.9,3.9-4.8
		c0.2-0.1,0.4-0.2,0.6-0.2C260.7,255.1,260.8,255.1,260.8,255.1z"/>
	<path class="st6" d="M250.6,266.1c0-0.1-0.1-0.2-0.1-0.3c-0.1-0.2-0.2-0.5-0.3-0.9c-0.3-1.2-0.4-2.4-0.4-3.6
		c0.1-1.9,0.5-3.8,1.4-5.5c0.5-1.1,1.2-2.1,2-3c0.9-1,2-1.9,3.1-2.6c6-3.6,13.7-2,17.8,3.7c0.6,0.8,1,1.6,1.4,2.5
		c0.4,0.9,0.7,1.8,1,2.7l1.9,5.6l4,11.8c0.7,2,0.9,4.2,0.6,6.4c-1.1,7.4-8,12.4-15.4,11.2c-4.1-0.6-7.6-3.1-9.7-6.7
		c-0.7-1.3-1.2-2.7-1.6-4.1c-1.8-5.3-3.2-9.5-4.2-12.5c-0.5-1.5-0.9-2.6-1.1-3.4l-0.3-0.9C250.7,266.4,250.7,266.3,250.6,266.1
		c0.1,0.1,0.2,0.2,0.2,0.3c0.1,0.2,0.2,0.5,0.3,0.9c0.3,0.8,0.7,2,1.2,3.4l4.4,12.5c0.4,1.4,1,2.7,1.6,4c2.5,4.5,7.4,7.1,12.5,6.7
		c6-0.5,10.8-5.1,11.7-11c0.3-2.1,0.1-4.1-0.5-6.1c-1.4-4-2.7-8-4-11.8c-0.7-1.9-1.3-3.8-1.9-5.6c-0.3-0.9-0.6-1.8-1-2.7
		c-0.4-0.8-0.8-1.6-1.3-2.4c-3.9-5.5-11.4-7.1-17.2-3.6c-2.1,1.3-3.9,3.1-5,5.3c-0.9,1.7-1.3,3.5-1.4,5.4
		C250,263,250.2,264.6,250.6,266.1z"/>
	<path class="st2" d="M246.3,227.7l11.9,31.8c0.7,1.8,2.7,2.7,4.4,2l0,0c1.8-0.7,2.7-2.7,2-4.4c0,0,0,0,0,0l-11.9-31.8
		c-0.7-1.8-2.7-2.7-4.4-2l0,0C246.6,223.9,245.7,225.9,246.3,227.7z"/>
	<path class="st6" d="M246.3,227.7c-0.1-0.3-0.2-0.6-0.3-0.9c-0.1-0.9,0.1-1.8,0.7-2.5c0.9-1.2,2.4-1.7,3.8-1.3
		c0.9,0.3,1.6,0.8,2.1,1.6c0.2,0.4,0.4,0.9,0.6,1.3l0.5,1.4l11.2,29.6c0.7,1.9-0.3,4-2.2,4.8c-1.2,0.5-2.6,0.2-3.6-0.6
		c-0.6-0.5-1-1.2-1.2-1.9c-0.2-0.7-0.5-1.3-0.7-2l-1.4-3.9l-4.9-13.3c-1.4-3.8-2.5-6.8-3.3-9l-0.9-2.4l-0.2-0.6
		C246.4,227.8,246.4,227.7,246.3,227.7c0.1,0.1,0.1,0.1,0.1,0.2l0.3,0.6c0.2,0.6,0.6,1.4,1,2.4l3.4,9c1.4,3.8,3.1,8.3,5,13.3
		c0.5,1.3,1,2.5,1.5,3.9c0.2,0.7,0.5,1.3,0.7,2c0.2,0.7,0.6,1.2,1.1,1.7c1.4,1.1,3.4,0.9,4.5-0.5c0.7-0.9,0.9-2.1,0.5-3.1
		c-4.3-11.6-8.2-22-11-29.7l-0.5-1.4c-0.1-0.4-0.3-0.9-0.5-1.3c-1-1.6-3-2.1-4.6-1.1c-1.1,0.7-1.7,1.9-1.6,3.1
		C246.2,227.1,246.3,227.4,246.3,227.7z"/>
	<path class="st2" d="M267.5,288.2l11.9,31.7c0.7,1.8,2.7,2.7,4.4,2l0,0c1.8-0.7,2.7-2.7,2-4.4L274,285.7c-0.7-1.8-2.7-2.7-4.4-2
		l0,0C267.7,284.4,266.9,286.4,267.5,288.2z"/>
	<path class="st6" d="M267.5,288.2c-0.1-0.3-0.2-0.6-0.2-0.9c-0.1-0.9,0.1-1.8,0.7-2.5c0.9-1.2,2.4-1.7,3.8-1.3
		c0.9,0.2,1.6,0.8,2.1,1.6c0.2,0.4,0.4,0.9,0.6,1.3l0.5,1.4c2.9,7.6,6.8,18.1,11.2,29.6c0.7,1.9-0.2,4-2.2,4.8
		c-1.2,0.5-2.6,0.2-3.7-0.6c-0.6-0.5-1-1.2-1.2-1.9c-0.2-0.7-0.5-1.3-0.7-2l-1.4-3.8l-5-13.3l-3.3-9c-0.4-1-0.7-1.8-0.9-2.5
		c-0.1-0.2-0.2-0.5-0.2-0.6C267.5,288.3,267.5,288.2,267.5,288.2c0,0,0,0.1,0.1,0.2l0.3,0.6c0.2,0.6,0.6,1.4,1,2.4l3.4,9l5,13.3
		c0.5,1.3,1,2.5,1.5,3.9c0.2,0.7,0.5,1.3,0.7,2c0.2,0.7,0.6,1.2,1.1,1.7c1.4,1.1,3.4,0.9,4.5-0.5c0.7-0.9,0.9-2.1,0.5-3.1l-11-29.7
		c-0.2-0.5-0.3-0.9-0.5-1.4c-0.1-0.4-0.3-0.9-0.5-1.3c-0.9-1.6-3-2.1-4.6-1.1c-0.3,0.2-0.6,0.5-0.9,0.8c-0.5,0.7-0.8,1.5-0.7,2.4
		C267.4,287.9,267.6,288.1,267.5,288.2z"/>
	<path class="st2" d="M203.1,109.2L215,141c0.7,1.8,2.7,2.7,4.4,2l0,0c1.8-0.7,2.7-2.7,2-4.4l-11.9-31.8c-0.7-1.8-2.7-2.7-4.4-2l0,0
		C203.3,105.5,202.5,107.5,203.1,109.2C203.1,109.2,203.1,109.2,203.1,109.2z"/>
	<path class="st6" d="M203.1,109.2c-0.1-0.3-0.2-0.6-0.2-0.9c-0.1-0.9,0.1-1.8,0.7-2.5c1.2-1.6,3.5-1.9,5-0.7c0.4,0.3,0.6,0.6,0.9,1
		c0.2,0.4,0.4,0.9,0.6,1.3l0.5,1.4l11.2,29.6c0.7,1.9-0.3,4.1-2.2,4.8c-0.5,0.2-1,0.2-1.4,0.2c-0.8,0-1.5-0.3-2.2-0.8
		c-0.6-0.5-1-1.2-1.2-1.9c-0.2-0.7-0.5-1.3-0.7-2c-0.5-1.3-1-2.6-1.4-3.9c-1.9-5-3.5-9.5-4.9-13.3l-3.3-9l-0.9-2.5l-0.2-0.6
		C203.2,109.4,203.1,109.3,203.1,109.2c0,0.1,0.1,0.1,0.1,0.2c0.1,0.2,0.2,0.4,0.3,0.6l1,2.4l3.4,8.9c1.4,3.8,3.1,8.3,5,13.3
		c0.5,1.2,0.9,2.5,1.4,3.9c0.2,0.6,0.5,1.3,0.8,2c0.2,0.7,0.6,1.2,1.1,1.7c1.4,1.1,3.4,0.9,4.5-0.5c0.7-0.9,0.9-2,0.5-3.1
		c-4.3-11.6-8.2-22-11-29.6c-0.2-0.5-0.4-0.9-0.5-1.4c-0.1-0.4-0.3-0.9-0.5-1.3c-0.9-1.6-3-2.1-4.5-1.2c-0.4,0.2-0.7,0.5-0.9,0.8
		c-0.5,0.7-0.8,1.5-0.7,2.4C203,108.9,203.2,109.2,203.1,109.2z"/>
	<path class="st4" d="M272.5,245.8l-4.7,3.3c4.3,6,2.8,14.3-3.1,18.6l-14.3,10.1l3.3,4.7l14.3-10.1
		C276.6,266.3,278.6,254.4,272.5,245.8z"/>
	<g class="st10">
		<path d="M272.5,245.8l-4.7,3.3c4.3,6,2.8,14.3-3.1,18.6l-14.3,10.1l3.3,4.7l14.3-10.1C276.6,266.3,278.6,254.4,272.5,245.8z"/>
	</g>
	<path class="st6" d="M226.8,227.8c-0.4-0.2-0.8-0.5-1.1-0.8l-2.9-2.4c-2.4-2-5.8-4.8-9.6-7.7s-7.2-5.7-9.7-7.6l-2.9-2.3
		c-0.4-0.3-0.7-0.6-1-0.9c0.4,0.2,0.8,0.5,1.2,0.7c0.7,0.5,1.8,1.2,3,2.2c2.5,1.9,6,4.5,9.8,7.5s7.1,5.8,9.5,7.9
		c1.2,1,2.1,1.9,2.8,2.5C226.1,227.1,226.5,227.4,226.8,227.8z"/>
	<path class="st6" d="M220.1,230.4c-0.9,0.1-1.9,0.1-2.8,0l-6.8-0.2l-6.8-0.1c-0.9,0.1-1.9,0-2.8-0.1c0.9-0.2,1.9-0.3,2.8-0.3
		c1.7-0.1,4.1-0.1,6.8-0.1s5.1,0.2,6.8,0.3C218.3,230,219.2,230.2,220.1,230.4z"/>
	<path class="st6" d="M270.6,178.3c0.1,0-0.5,7.8-1.5,17.4c-1,9.6-1.9,17.3-2,17.3s0.5-7.8,1.5-17.4
		C269.6,186,270.5,178.3,270.6,178.3z"/>
	<path class="st6" d="M286.3,193.3c-1.8,2.3-3.7,4.4-5.8,6.4c-1.9,2.1-4,4.2-6.2,6.1c1.8-2.3,3.7-4.4,5.8-6.4
		C282,197.2,284.1,195.2,286.3,193.3z"/>
</g>
<g id="Floor--inject-1">
	<path class="st6" d="M469.9,438.5c0,0.1-105.2,0.3-234.9,0.3S0,438.6,0,438.5s105.2-0.3,234.9-0.3S469.9,438.3,469.9,438.5z"/>
</g>
<g id="Character--inject-1">
	<path class="st4" d="M350.1,152.6c-0.2-1.1-0.3-2.1-0.3-3.2c0-1.1,0.5-2.1,1.3-2.9c1-0.9,2.5-1.1,3.7-1.7c1.5-0.9,2.7-2.1,3.7-3.6
		c0.5,1.8,0.7,3.7,0.5,5.6c-0.1,1.9-0.9,3.6-2.2,5c-1.4,1.4-3.3,1.9-5.2,1.4"/>
	<g class="st5">
		<path d="M350.1,152.6c-0.2-1.1-0.3-2.1-0.3-3.2c0-1.1,0.5-2.1,1.3-2.9c1-0.9,2.5-1.1,3.7-1.7c1.5-0.9,2.7-2.1,3.7-3.6
			c0.5,1.8,0.7,3.7,0.5,5.6c-0.1,1.9-0.9,3.6-2.2,5c-1.4,1.4-3.3,1.9-5.2,1.4"/>
	</g>
	<path class="st6" d="M356.3,146c-0.2,0.7-0.5,1.3-1,1.8c-0.4,0.6-0.9,1.1-1.5,1.4c0,0,0.7-0.7,1.3-1.6S356.2,145.9,356.3,146z"/>
	<path class="st6" d="M356.8,147.5c-0.3,0.4-0.7,0.8-1.2,1c-0.4,0.3-0.9,0.5-1.5,0.6c0.4-0.3,0.9-0.5,1.4-0.7
		C355.9,148.1,356.3,147.8,356.8,147.5z"/>
	<path class="st4" d="M349.4,152.5c0.4-1.5,1.5-2.6,3-3c1.4-0.4,2.9-0.6,4.4-0.6c1.5-0.1,2.9-0.6,4.1-1.5c0,2-0.6,4-1.8,5.6
		c-1.2,1.6-3,2.7-5,2.9c-2,0.2-4-0.6-5.3-2.2"/>
	<path class="st6" d="M356.5,151.3c-0.3,0.1-0.6,0.2-1,0.3c-0.6,0.2-1.4,0.4-2.3,0.8c-0.9,0.3-1.7,0.6-2.2,0.9
		c-0.3,0.1-0.6,0.3-0.9,0.4c0.3-0.2,0.6-0.4,0.9-0.5c0.6-0.3,1.3-0.6,2.2-0.9c0.9-0.3,1.7-0.5,2.3-0.7
		C355.9,151.3,356.2,151.3,356.5,151.3z"/>
	<path class="st6" d="M356.2,153c-0.3,0.1-0.7,0.1-1,0.1c-0.6,0-1.4,0.1-2.4,0.1s-1.8,0.2-2.4,0.3c-0.3,0.1-0.7,0.1-1,0.1
		c0.3-0.1,0.6-0.2,1-0.3c0.8-0.2,1.6-0.3,2.4-0.4c0.8-0.1,1.6-0.1,2.4-0.1C355.5,152.9,355.8,152.9,356.2,153z"/>
	<path class="st12" d="M346.8,149.6l18.4,30.3c3.1,5.2,1.5,11.9-3.7,15l0,0c-4.9,3-11.4,1.7-14.7-3.1c-1.8-2.6-3.3-4.8-3.3-4.8
		s-7.9,4-13.1-3c-2.5-3.4-7.1-10.8-11.2-17.5c-4.6-7.5-2.4-17.4,5-22.2l0,0c7.5-4.8,17.5-2.6,22.4,4.9
		C346.6,149.3,346.7,149.5,346.8,149.6z"/>
	<path class="st13" d="M343.5,187c3.3-2.3,5.9-5.6,7.3-9.3c0,0,1.5,6.7-6,11.2L343.5,187z"/>
	<path class="st6" d="M324.2,170.2c0.4,0.5,1.2,0.7,1.7,0.3c0.6-0.3,0.7-1.1,0.4-1.6c0,0,0,0,0,0c-0.4-0.6-1.2-0.7-1.7-0.3
		C324,168.9,323.9,169.6,324.2,170.2C324.2,170.2,324.2,170.2,324.2,170.2z"/>
	<path class="st6" d="M323.2,169c0.2,0,0.6-1.1,1.7-1.9s2.3-0.8,2.3-1c0-0.2-0.3-0.2-0.8-0.2c-0.7,0-1.4,0.2-2,0.7
		c-0.6,0.4-1,1-1.2,1.7C323.1,168.6,323.1,169,323.2,169z"/>
	<path class="st6" d="M335.1,162.9c0.4,0.5,1.1,0.7,1.7,0.3c0.6-0.3,0.7-1.1,0.4-1.6c0,0,0,0,0,0c-0.4-0.6-1.2-0.7-1.7-0.3
		C334.9,161.6,334.8,162.3,335.1,162.9C335.1,162.9,335.1,162.9,335.1,162.9z"/>
	<path class="st6" d="M334.1,161.4c0.2,0,0.6-1.1,1.7-1.9s2.3-0.8,2.3-1c0-0.2-0.3-0.2-0.8-0.2c-0.7,0-1.4,0.2-2,0.7
		c-0.6,0.4-1,1-1.2,1.7C333.9,161.1,334,161.4,334.1,161.4z"/>
	<path class="st6" d="M336,172.4c-0.7,0.2-1.4,0.6-2,1c-0.3,0.2-0.6,0.3-0.8,0.1c-0.2-0.3-0.4-0.6-0.4-0.9l-0.7-2.7
		c-0.5-2.4-1.2-4.7-2.2-6.9c0.4,2.4,0.9,4.7,1.6,7c0.3,0.9,0.5,1.8,0.8,2.7c0,0.5,0.3,1,0.6,1.3c0.2,0.1,0.5,0.2,0.8,0.1
		c0.2-0.1,0.4-0.2,0.5-0.3C334.9,173.3,335.5,172.9,336,172.4z"/>
	<path class="st6" d="M339.7,170.8c-0.2,0.1,0.7,1.3,0.3,2.9c-0.4,1.6-1.8,2.4-1.6,2.5s0.5,0,1-0.4c0.7-0.5,1.2-1.2,1.4-2
		c0.2-0.8,0.1-1.6-0.3-2.4C340.2,170.9,339.8,170.7,339.7,170.8z"/>
	<path class="st6" d="M331.4,158c0.4,0.1,1-1.1,2.1-2.2c1.1-1.2,2.2-1.9,2-2.3c-0.1-0.2-0.5-0.2-1.1,0c-1.5,0.6-2.7,1.9-3.2,3.5
		C331.2,157.6,331.2,158,331.4,158z"/>
	<path class="st6" d="M320.1,164.9c0.4,0.2,1.3-0.5,2.6-1c1.3-0.5,2.5-0.7,2.6-1.1c0-0.2-0.2-0.4-0.8-0.5c-1.6-0.2-3.2,0.4-4.2,1.6
		C319.9,164.4,319.9,164.8,320.1,164.9z"/>
	<path class="st6" d="M333.5,147.5L333.5,147.5c1.8,0.1,3.5,0.8,4.8,2.1l0.1,0.1c1.7,1.8,3.2,3.9,4.9,5.7c1.7,1.9,4,3.2,6.5,3.7
		c1,0.1,2.4-0.3,2.4-1.3c0-0.4-0.2-0.8-0.4-1.1c-3.2-5.1-5-10.4-8.7-15.5c-1-1.4-2.6-2.2-4.3-2.2c-1.6,0-3.5,0.2-4.3,1.6
		c-0.8,1.4-0.7,4.8-0.9,6.4"/>
	<path class="st12" d="M346.8,154.7c0.1-0.1,3.8-5,7.2,0s-2.3,7.3-2.4,7.2C351.5,161.7,346.8,154.7,346.8,154.7z"/>
	<path class="st13" d="M351.8,158.9c0,0,0.1,0,0.3,0c0.3,0,0.5-0.2,0.7-0.4c0.4-0.9,0.3-1.8-0.3-2.6c-0.3-0.4-0.6-0.8-1.1-1.1
		c-0.3-0.3-0.7-0.3-1.1-0.2c-0.2,0.1-0.4,0.3-0.4,0.6c0,0.2,0.1,0.3,0.1,0.3s-0.2,0-0.3-0.2c-0.1-0.1-0.1-0.3,0-0.4
		c0.1-0.2,0.2-0.4,0.4-0.4c0.5-0.2,1-0.1,1.4,0.2c0.5,0.3,0.9,0.7,1.2,1.2c0.7,0.9,0.7,2.1,0.2,3c-0.2,0.3-0.5,0.4-0.9,0.4
		C351.9,159,351.8,158.9,351.8,158.9z"/>
	<path class="st7" d="M346,145.9c-0.1,0.2-0.2,0.3-0.3,0.4c-0.4,0.3-0.8,0.5-1.3,0.5c-0.7,0.1-1.4-0.1-2-0.4c-0.7-0.4-1.4-0.9-2-1.5
		c-0.6-0.6-1.2-1.1-1.9-1.5c-0.6-0.3-1.2-0.5-1.9-0.4c-0.4,0-0.9,0.2-1.2,0.4c-0.1,0.1-0.3,0.2-0.4,0.3c0.1-0.2,0.2-0.3,0.3-0.4
		c0.4-0.3,0.8-0.5,1.3-0.5c0.7-0.1,1.4,0.1,2,0.4c0.7,0.4,1.4,0.9,2,1.5c0.6,0.6,1.2,1.1,1.9,1.5c0.6,0.3,1.2,0.5,1.9,0.5
		c0.4,0,0.9-0.2,1.2-0.4C345.9,146,346,145.9,346,145.9z"/>
	<path class="st4" d="M346.9,147.5l-27.2,20l5,8c0,0,10.2-5.8,13.5-8.6c3.3-2.9,11.2-14.3,11.2-14.3L346.9,147.5z M326.7,172.6
		c-2.1,0.4-4.1-1-4.4-3.1c-0.4-2.1,1-4.1,3.1-4.4c2.1-0.4,4.1,1,4.4,3.1c0,0,0,0,0,0C330.2,170.3,328.8,172.2,326.7,172.6z
		 M337.6,164.7c-2.1,0.4-4.1-1-4.4-3.1c-0.4-2.1,1-4.1,3.1-4.4s4.1,1,4.4,3.1c0,0,0,0,0,0C341,162.3,339.7,164.3,337.6,164.7
		C337.6,164.7,337.6,164.7,337.6,164.7z"/>
	<path class="st7" d="M350.2,150.4c0,0.9-0.1,1.9-0.7,2.2c0,0-3.1-4-7.9-3.3c-5,0.9-9.7,2.8-14,5.6c-4,2.7-7.9,5.5-8.3,6.4
		s-0.9,4.2-0.4,5c0.3,0.5,0.5,1,0.7,1.6c-0.9,0.6-2.1,0.5-3-0.1c-0.8-0.5-3.6-5.6-3.5-7.5c0.6-12,26.1-18.8,28.5-18.6
		c0,0,4-1.2,6.3,2.3c0.2,0.3,1,1.9,1.6,3.1C349.9,148.1,350.2,149.2,350.2,150.4z"/>
	<path class="st7" d="M323.1,137.7c0,0-8.6,3.8-10.1,11.6c-1.2,6.2,1.5,8.4,1.5,8.4l30.4-13.7C344.9,143.9,339.9,131.5,323.1,137.7z
		"/>
	<path class="st6" d="M343.6,141.7h-1.4c-1.3,0-2.5,0.1-3.8,0.3c-1.9,0.3-3.7,0.7-5.4,1.4c-2.2,0.8-4.3,1.7-6.3,2.8
		c-3.7,1.9-7.1,4.4-10,7.4c-1.1,1.1-2,2.1-2.5,2.8l-0.6,0.8c-0.2,0.2-0.2,0.3-0.2,0.3c1-1.4,2.1-2.8,3.3-4c2.9-3,6.3-5.6,10-7.5
		c2-1.1,4.2-2,6.3-2.8c1.8-0.6,3.6-1.1,5.5-1.3c1.3-0.2,2.5-0.2,3.8-0.2c0.5,0,0.8,0,1,0C343.4,141.7,343.5,141.7,343.6,141.7z"/>
	<path class="st6" d="M318.7,166.3c-0.1-0.1-0.2-0.1-0.4-0.2c-0.3-0.2-0.6-0.5-0.9-0.7c-0.9-0.8-1.7-1.8-2.3-2.9
		c-0.6-1.1-1.1-2.2-1.4-3.5c-0.1-0.4-0.2-0.7-0.2-1.1c0-0.1,0-0.3,0-0.4c0,0,0.1,0.6,0.3,1.5c0.3,1.2,0.8,2.3,1.4,3.4
		c0.6,1.1,1.4,2,2.2,2.9C318.2,165.9,318.7,166.3,318.7,166.3z"/>
	<path class="st6" d="M321.7,158.9c-0.3-0.2-0.6-0.5-0.9-0.7c-0.7-0.6-1.2-1.3-1.7-2.1c-0.5-0.8-0.9-1.6-1.2-2.4
		c-0.1-0.4-0.2-0.7-0.3-1.1c0.2,0.3,0.3,0.7,0.4,1c0.3,0.8,0.8,1.6,1.2,2.4c0.5,0.8,1,1.5,1.7,2.1
		C321.2,158.3,321.5,158.6,321.7,158.9z"/>
	<path class="st6" d="M328.8,154c0,0-0.2-0.4-0.5-1.1c-0.4-0.9-0.8-1.7-1.4-2.5c-0.5-0.8-1.1-1.5-1.8-2.2c-0.5-0.5-0.8-0.9-0.8-0.9
		c0.3,0.2,0.6,0.5,0.9,0.8c0.7,0.7,1.3,1.4,1.9,2.2c0.5,0.8,1,1.7,1.3,2.6c0.1,0.4,0.2,0.6,0.3,0.8
		C328.8,153.8,328.8,153.9,328.8,154z"/>
	<path class="st6" d="M337.2,150.3c-0.2-0.4-0.3-0.7-0.5-1.1c-0.4-0.9-0.9-1.7-1.4-2.5c-0.5-0.8-1.1-1.5-1.8-2.2
		c-0.3-0.3-0.6-0.6-0.8-0.9c0.3,0.2,0.6,0.5,0.9,0.8c0.7,0.7,1.3,1.4,1.8,2.2c0.5,0.8,1,1.7,1.3,2.6
		C337,149.5,337.1,149.9,337.2,150.3z"/>
	<path class="st6" d="M347.1,150.6c0,0-0.1-0.6-0.4-1.5c-0.3-1.2-0.8-2.3-1.5-3.4c-0.6-1.1-1.4-2-2.4-2.9c-0.7-0.6-1.2-1-1.2-1
		c0.1,0.1,0.2,0.1,0.4,0.2c0.3,0.2,0.6,0.5,0.9,0.7c0.9,0.8,1.8,1.8,2.4,2.9c0.7,1.1,1.1,2.3,1.5,3.5c0.1,0.4,0.2,0.7,0.2,1.1
		C347.1,150.4,347.1,150.5,347.1,150.6z"/>
	<path class="st6" d="M328.6,145.3c0,0-0.2-0.6-0.6-1.4c-1.2-2.2-3.2-3.9-5.6-4.7c-0.9-0.3-1.5-0.3-1.5-0.4c0.1,0,0.3,0,0.4,0
		c0.4,0,0.8,0.1,1.1,0.2c2.5,0.7,4.6,2.5,5.7,4.8c0.2,0.3,0.3,0.7,0.4,1.1C328.5,145,328.5,145.1,328.6,145.3z"/>
	<path class="st6" d="M337.5,142.1c0,0-0.3-0.5-0.8-1.3c-0.7-1-1.6-1.9-2.6-2.6c-1-0.7-2.1-1.3-3.3-1.6c-0.9-0.3-1.5-0.4-1.5-0.4
		c0.1,0,0.3,0,0.4,0c0.4,0,0.7,0.1,1.1,0.2c1.2,0.3,2.3,0.9,3.3,1.6c1,0.7,1.9,1.6,2.6,2.7c0.2,0.3,0.4,0.7,0.5,1
		C337.4,141.8,337.5,142,337.5,142.1z"/>
	<path class="st6" d="M317,142c0,0,0,0.5,0,1.4c0.1,1.1,0.2,2.2,0.6,3.2c0.3,1.1,0.8,2.1,1.4,3c0.4,0.7,0.8,1.1,0.7,1.2
		c0,0-0.1-0.1-0.2-0.3c-0.2-0.3-0.4-0.5-0.6-0.8c-0.6-0.9-1.1-1.9-1.4-3c-0.3-1.1-0.5-2.2-0.5-3.3c0-0.3,0-0.7,0-1
		C317,142.1,317,142,317,142z"/>
	<path class="st6" d="M313.8,146.6c0,0.4,0,0.8,0,1.2c0,1,0.1,2,0.3,3c0.2,1,0.5,1.9,0.8,2.9c0.3,0.7,0.5,1.1,0.5,1.2
		c0,0-0.1-0.1-0.2-0.3c-0.1-0.3-0.3-0.5-0.4-0.8c-0.4-0.9-0.7-1.9-0.9-2.9c-0.2-1-0.3-2-0.2-3c0-0.4,0-0.7,0.1-0.9
		C313.7,146.9,313.7,146.8,313.8,146.6z"/>
	<path class="st6" d="M322.7,158.1c1.1,0.7,2.4,1.1,3.8,1c0.3,0,0.6-0.1,0.9-0.2c0.3-0.1,0.5-0.4,0.5-0.7c0-0.6-0.6-0.9-1.2-1.1
		c0.7,0,1.3-0.1,1.9-0.3c0.6-0.2,1.1-0.7,1.3-1.4c0.2-0.7-0.2-1.4-0.9-1.6C326.9,155.1,324.7,156.5,322.7,158.1z"/>
	<path class="st4" d="M417.4,214.6c0,0-27.3-38.7-31.1-41c-3.8-2.3-9-1.2-12,0.2c-2.1,1-6.9,3.9-6.9,3.9l-4.7-4.7l-18.7,16.6
		l3.1,5.7l-3.2,5.3c-0.1,0.1-0.2,0.2-0.3,0.4c-0.7,0.9-1.2,1.8-1.6,2.9l-0.2,0.4l0.1,0.1c-0.5,1.7-0.8,3.4-0.7,5.2
		c0.2,6.3,7,38.2,7,38.2l-7.1,4.9l4.3,13.3c0,0,21.1-7.1,20.6-14.1c-0.8-7-2-14-3.5-20.9l9.8,13.3c0.4,2.7,4.6,21.4,4.6,21.4l3,1.2
		l58.3-3.1l1.7-3.7L417.4,214.6z"/>
	<path class="st6" d="M347.8,212.3c0.4,0.4,0.8,0.7,1.1,1.1c0.7,0.8,1.6,1.9,2.8,3.3c2.3,2.8,5.4,6.8,8.7,11.2
		c3.4,4.4,6.3,8.4,8.5,11.4c1,1.4,1.8,2.6,2.5,3.5c0.3,0.4,0.6,0.9,0.8,1.3c-0.4-0.4-0.7-0.8-1-1.2l-2.6-3.4l-8.6-11.3l-8.6-11.3
		l-2.6-3.4C348.4,213.2,348.1,212.8,347.8,212.3z"/>
	<g class="st5">
		<path d="M419.5,222.1c-7.1,1-14.2-0.4-21.2-1.4c-11.7-1.7-23.6-2.6-35.5-2.5c-1.1-0.1-2.2,0.1-3.1,0.6c-2.1,1.4-14.3,2.4-16.6,3.7
			l1.1,5.6c0.2-0.1,2.5,0.7,3.7,0.9c9.7,1.1,12.8-4.1,13.6-4.3c1.1-0.2,2.5,0.8,3.5,1.2c7.7,2.8,15.7,4.4,23.8,5.9
			c6.6,1.3,13.4,2.6,20.1,2c3.1-0.3,6.4-1,8.7-3.1C419.9,228.5,421.1,224.8,419.5,222.1z"/>
	</g>
	<path class="st4" d="M380.3,192.9l10.7,15.9l-21.2-0.8l1.2,15.7c0,0,36.6,8,42.2,6c6.3-2.2,6.1-5,6.4-8.6s-6.6-14.2-10.6-21.1
		c-4-6.9-20.3-30.7-29-27.7C379.9,172.3,371.5,178.8,380.3,192.9z"/>
	<path class="st4" d="M380.3,192.9l10.7,15.9l-21.2-0.8l1.2,15.7c0,0,36.6,8,42.2,6c6.3-2.2,6.1-5,6.4-8.6s-6.6-14.2-10.6-21.1"/>
	<path class="st6" d="M409,200c0,0,0.1,0.1,0.2,0.3l0.5,0.9l2.1,3.3c0.9,1.4,2,3.2,3.2,5.3c1.4,2.4,2.7,4.8,3.8,7.3
		c0.3,0.7,0.6,1.5,0.8,2.2c0.1,0.4,0.2,0.8,0.2,1.2c0,0.2,0,0.4,0,0.6l-0.1,0.6c-0.1,0.9-0.2,1.7-0.3,2.5c-0.2,0.9-0.6,1.7-1.1,2.5
		c-1.3,1.4-2.9,2.5-4.7,3c-0.9,0.3-1.9,0.5-2.9,0.4c-1,0-2,0-3-0.1c-4-0.3-8.2-0.9-12.5-1.6s-8.8-1.5-13.3-2.4
		c-3.7-0.7-7.3-1.5-10.8-2.2h-0.2v-0.2c-0.4-5.5-0.8-10.8-1.2-15.7v-0.3h0.3l21.2,0.9l-0.1,0.3l-7.8-11.7l-2.1-3.2l-0.5-0.8
		c-0.1-0.1-0.1-0.2-0.2-0.3c0.1,0.1,0.1,0.2,0.2,0.3l0.6,0.8l2.2,3.1l7.9,11.6l0.2,0.3h-0.4l-21.2-0.8l0.2-0.2
		c0.4,4.9,0.8,10.2,1.2,15.7l-0.2-0.2c3.5,0.8,7.1,1.5,10.8,2.2c4.5,0.9,9,1.7,13.3,2.4s8.5,1.3,12.5,1.6c1,0.1,2,0.1,3,0.1
		c0.9,0,1.9-0.1,2.8-0.4c1.7-0.5,3.3-1.5,4.5-2.9c1.1-1.4,1.2-3.1,1.4-4.8c0.1-1.6-0.2-3.1-0.9-4.5c-1.1-2.5-2.3-4.9-3.7-7.3
		c-1.2-2.1-2.2-3.9-3.1-5.4l-2-3.4c-0.2-0.4-0.4-0.7-0.5-0.9S409,200,409,200z"/>
	<g class="st5">
		<path d="M391,208.7c3.7-1.8,7.9-2.3,11.9-1.6c1.5,0.2,3,0.9,4,2.1c0.3,0.4,0.5,1.1,0.1,1.5c-0.4,0.4-1.1,0.8-1.6,0.6
			C400.9,209.2,395.9,208.3,391,208.7"/>
	</g>
	<path class="st6" d="M406,211.5c0,0.1-0.9-0.4-2.3-0.9c-1.9-0.6-3.8-1-5.7-1.2c-2.3-0.3-4.4-0.3-5.9-0.4c-0.8,0-1.6,0-2.5-0.2
		c0.8-0.2,1.6-0.2,2.5-0.2c2-0.1,4,0,6,0.2c2,0.2,3.9,0.7,5.8,1.4C404.6,210.6,405.3,211,406,211.5z"/>
	<path class="st6" d="M359.3,247.2c-1.9-0.5-3.8-0.7-5.7-0.6c-1.9,0.2-3.8,0.6-5.6,1.3C351.3,245.7,355.6,245.5,359.3,247.2
		L359.3,247.2z"/>
	<g class="st5">
		<path d="M348,247.7c2.3-1.9,5.1-3,8.1-3.2c1.1-0.1,2.2,0.1,3.2,0.7c0.4,0.3,0.8,0.8,0.6,1.3s-1.1,0.5-1.7,0.3
			c-3.4-0.8-6.9-0.5-10.2,0.8"/>
	</g>
	<path class="st6" d="M378.9,172.4c0,0.1-0.6,0.4-1.3,1.3c-0.9,1.2-1.6,2.6-1.8,4.1c-0.2,1.5-0.2,3,0,4.5c0.1,0.6,0.2,1.3,0.2,1.9
		c-0.3-0.6-0.5-1.2-0.5-1.9c-0.3-1.5-0.4-3.1-0.1-4.7c0.2-1.6,0.9-3,2-4.2C377.7,173,378.3,172.6,378.9,172.4z"/>
	<path class="st6" d="M351,194.3c-1.1-0.9-2-1.9-2.6-3.1c-0.8-1.1-1.4-2.4-1.7-3.7c0.8,1.1,1.5,2.3,2.2,3.5
		C349.7,192,350.4,193.1,351,194.3z"/>
	<path class="st6" d="M356.9,190.6c-1.2-0.9-2.3-2.1-3.2-3.3c-1-1.2-1.9-2.5-2.5-3.9c1,1.1,2,2.3,2.9,3.5
		C355.2,188.1,356.1,189.3,356.9,190.6z"/>
	<path class="st6" d="M362.1,185.8c-0.1,0.1-1-1.8-2.7-3.6c-1.7-1.9-3.4-3-3.3-3.1c1.4,0.6,2.7,1.6,3.7,2.9
		C360.8,183,361.6,184.3,362.1,185.8z"/>
	<path class="st6" d="M366,180.5c-0.9-0.8-1.8-1.7-2.7-2.7c-1-0.8-1.9-1.7-2.7-2.6c1.2,0.5,2.2,1.3,3.1,2.3
		C364.7,178.3,365.5,179.3,366,180.5z"/>
	<g class="st5">
		<path d="M348.1,195.1c2,0.3,4.1,0.1,6.1-0.6c1.9-0.7,3.6-1.7,5.2-2.8c2.3-1.5,4.3-3.5,5.7-5.9c1.1-2,1.7-4.3,1.9-6.5
			c-1.3,1.3-2.3,2.8-3.2,4.4C360.3,189.3,354.7,192.9,348.1,195.1"/>
	</g>
	<path class="st6" d="M367.5,177.8c-0.1,0.3-0.2,0.7-0.4,1c-0.4,0.9-0.9,1.8-1.4,2.6c-1.7,2.8-3.9,5.3-6.3,7.5
		c-2.4,2.2-5.2,4-8.2,5.3c-0.5,0.2-1,0.4-1.6,0.6c-0.4,0.1-0.8,0.3-1.2,0.4c-0.3,0.1-0.7,0.2-1.1,0.2c0-0.1,1.5-0.4,3.8-1.5
		c2.9-1.4,5.6-3.2,8-5.4c2.4-2.2,4.6-4.6,6.4-7.3C366.7,179.1,367.4,177.7,367.5,177.8z"/>
	<path class="st6" d="M401.7,235c-0.1,0.3-0.3,0.6-0.6,0.8c-0.4,0.5-1,1.2-1.7,2.1c-1.5,1.7-3.7,4.1-6.2,6.5c-2.5,2.4-5,4.5-6.8,5.9
		c-0.9,0.7-1.7,1.2-2.2,1.6c-0.3,0.2-0.5,0.4-0.9,0.5c0.9-0.9,1.8-1.7,2.8-2.4c1.8-1.5,4.1-3.5,6.7-6c2.5-2.5,4.7-4.7,6.3-6.4
		C400,236.7,400.8,235.9,401.7,235z"/>
	<path class="st6" d="M375,182c-0.3,0.5-0.6,0.9-0.9,1.3c-0.6,0.9-1.6,2.1-2.8,3.5c-6.4,7.4-14.3,13.5-23.1,17.9
		c-1.7,0.8-3.1,1.4-4.1,1.8c-0.5,0.2-1,0.4-1.5,0.6c0.5-0.3,1-0.5,1.5-0.7c1-0.4,2.3-1.1,4-2c4.3-2.3,8.4-4.9,12.3-7.9
		c3.9-3,7.4-6.3,10.7-9.9c1.2-1.4,2.2-2.5,2.9-3.4C374.3,182.8,374.6,182.4,375,182z"/>
	<path class="st6" d="M382.2,195.7c-0.3,0.4-0.6,0.7-1,1c-0.7,0.6-1.7,1.5-3,2.6c-2.5,2.2-6.1,5.1-10.2,8.1
		c-4.1,3.1-7.9,5.6-10.8,7.5c-1.4,0.9-2.5,1.6-3.4,2.1c-0.4,0.3-0.8,0.5-1.3,0.7c0.4-0.3,0.8-0.6,1.2-0.9l3.3-2.2
		c2.8-1.9,6.5-4.5,10.6-7.6s7.7-5.9,10.3-8l3.1-2.5C381.4,196.3,381.8,196,382.2,195.7z"/>
	<path class="st6" d="M392.3,179c-2.5,1-4.9,2.3-7.1,4c-2,1.8-3.8,3.9-5.2,6.2c0.2-0.8,0.6-1.5,1-2.2c2.1-3.4,5.2-5.9,8.9-7.4
		C390.7,179.3,391.5,179.1,392.3,179z"/>
	<path class="st6" d="M404.1,192.2c0,0.1-1.1,0.3-2.9,0.7c-4.7,1.2-9.1,3.2-13.1,6c-1.5,1.1-2.4,1.8-2.5,1.7
		c-0.1-0.1,0.2-0.2,0.5-0.6c0.4-0.4,1-0.9,1.7-1.4c3.9-3,8.4-5,13.2-6c0.9-0.2,1.7-0.3,2.2-0.3C403.5,192.2,403.8,192.2,404.1,192.2
		z"/>
	<path class="st6" d="M412.3,204.7c0,0.1-1.3-0.2-3.3-0.4c-5.4-0.5-10.8,0.4-15.8,2.6c-1.9,0.8-3,1.5-3.1,1.4
		c0.2-0.2,0.5-0.4,0.7-0.5c0.7-0.4,1.4-0.8,2.2-1.2c5-2.4,10.5-3.3,16-2.6c0.8,0.1,1.6,0.2,2.4,0.4
		C411.7,204.5,412,204.6,412.3,204.7z"/>
	<path class="st6" d="M417.2,226.5c-1.6-5.7-5.2-10.6-10.2-13.9c0.8,0.3,1.6,0.7,2.3,1.3c3.4,2.5,6,6,7.4,10
		C417,224.7,417.2,225.6,417.2,226.5z"/>
	<path class="st6" d="M396.7,228.5c-0.1,0,0.3-1.1,0.6-2.9c0.9-4.6,0.5-9.4-0.9-13.9c-0.6-1.7-1-2.7-1-2.8c0.2,0.2,0.3,0.4,0.4,0.7
		c0.3,0.6,0.6,1.3,0.9,2c1.7,4.5,2,9.4,1,14.1c-0.2,0.7-0.4,1.4-0.6,2.1C396.9,228.3,396.8,228.5,396.7,228.5z"/>
	<path class="st6" d="M385.2,226c-0.4-2.8-0.7-5.7-0.8-8.5c-0.3-2.9-0.4-5.7-0.3-8.6c0.4,2.8,0.7,5.7,0.8,8.5
		C385.2,220.2,385.3,223.1,385.2,226z"/>
	<path class="st6" d="M349.6,214.7c-1.2,0.6-2.5,0.9-3.8,1.2c-1.3,0.4-2.6,0.6-3.9,0.6c1.2-0.5,2.5-0.9,3.8-1.1
		C346.9,215,348.3,214.7,349.6,214.7z"/>
	<path class="st6" d="M361.2,230c-0.7,0.3-1.5,0.5-2.3,0.6c-1.5,0.3-3.5,0.6-5.7,0.9s-4.3,0.4-5.8,0.4c-0.8,0.1-1.6,0.1-2.4-0.1
		c0.8-0.2,1.6-0.3,2.4-0.3c1.5-0.1,3.5-0.3,5.7-0.6c2.2-0.3,4.2-0.6,5.7-0.8C359.6,230.1,360.4,230,361.2,230z"/>
	<path class="st6" d="M364.9,243.3c0,0.1-1-0.4-2.5-1c-4.1-1.5-8.6-1.6-12.8-0.4c-1.6,0.5-2.5,0.9-2.6,0.8s0.2-0.2,0.6-0.4
		c0.6-0.3,1.2-0.6,1.8-0.8c2.1-0.7,4.3-1,6.5-0.9c2.2,0.1,4.4,0.6,6.4,1.4c0.6,0.3,1.2,0.6,1.8,0.9
		C364.7,243.1,364.9,243.3,364.9,243.3z"/>
	<path class="st6" d="M358.9,259.9c-0.1,0-0.2-1-0.9-2.6c-1.7-4.1-5.4-7-9.8-7.7c-1.6-0.3-2.7-0.2-2.7-0.3c0.2-0.1,0.5-0.1,0.7-0.1
		c0.7,0,1.3,0,2,0c4.6,0.5,8.5,3.6,10,7.9c0.2,0.6,0.4,1.3,0.5,2C358.9,259.4,358.9,259.7,358.9,259.9z"/>
	<path class="st6" d="M370.5,220.6c-1.5,1.5-3.2,2.8-5,3.9c-1.7,1.3-3.5,2.4-5.4,3.3c1.6-1.3,3.3-2.6,5.1-3.7
		C366.9,222.9,368.6,221.7,370.5,220.6z"/>
	<path class="st6" d="M389.4,226.9c-0.2,0.2-0.4,0.5-0.7,0.6c-0.5,0.4-1.2,0.9-2.1,1.6c-1.8,1.3-4.3,3-7.2,4.8
		c-2.9,1.8-5.6,3.1-7.6,4.1c-1,0.5-1.8,0.8-2.4,1.1c-0.3,0.1-0.6,0.3-0.9,0.3c1-0.6,2.1-1.2,3.1-1.7c2-1,4.6-2.5,7.5-4.2
		c2.9-1.7,5.5-3.4,7.3-4.6C387.4,228.1,388.4,227.5,389.4,226.9z"/>
	<path class="st6" d="M397,238.5c-0.2,0.2-0.5,0.4-0.8,0.6c-0.5,0.3-1.4,0.8-2.4,1.3c-5.3,2.6-11.1,4.1-17,4.5c-1.1,0.1-2,0.1-2.7,0
		c-0.3,0-0.7,0-1-0.1c0-0.1,1.4-0.1,3.6-0.3c2.9-0.3,5.8-0.8,8.6-1.5c2.8-0.8,5.6-1.7,8.3-2.9C395.7,239.1,396.9,238.5,397,238.5z"
		/>
	<path class="st6" d="M425.3,231c-0.3,0.3-0.6,0.6-1,0.8c-0.7,0.5-1.7,1.2-3,2c-6.8,4.1-14.2,7-21.9,8.7c-1.5,0.3-2.7,0.5-3.5,0.6
		c-0.4,0.1-0.9,0.1-1.3,0.1c0.4-0.2,0.8-0.3,1.3-0.3c0.8-0.2,2-0.4,3.5-0.8c3.8-0.9,7.6-2.1,11.2-3.5c3.6-1.5,7.2-3.2,10.6-5.1
		c1.3-0.8,2.4-1.4,3.1-1.8C424.5,231.4,424.9,231.2,425.3,231z"/>
	<path class="st6" d="M431.6,244.4c-0.2,0.1-0.3,0.2-0.5,0.4l-1.5,0.9c-0.6,0.4-1.4,0.9-2.4,1.4s-2,1.1-3.2,1.7
		c-1.2,0.6-2.5,1.2-4,1.8c-1.5,0.6-3,1.2-4.7,1.9c-3.6,1.3-7.3,2.4-11.1,3.2c-3.8,0.8-7.6,1.4-11.4,1.7c-1.8,0.1-3.5,0.3-5,0.3
		c-1.5,0-3,0-4.4,0c-1.4,0-2.5-0.1-3.6-0.2s-2-0.2-2.7-0.2l-1.7-0.2c-0.2,0-0.4,0-0.6-0.1c0.2,0,0.4,0,0.6,0l1.7,0.1
		c0.8,0.1,1.7,0.1,2.7,0.2s2.3,0.1,3.6,0.1c1.3,0,2.8,0,4.4-0.1s3.2-0.2,5-0.3c7.6-0.7,15.2-2.3,22.4-4.9c1.7-0.6,3.2-1.2,4.7-1.8
		s2.8-1.2,4-1.8c1.2-0.6,2.3-1.1,3.2-1.6s1.8-0.9,2.4-1.3l1.5-0.8C431.2,244.6,431.4,244.5,431.6,244.4z"/>
	<path class="st6" d="M439.6,259.5c-0.2,0.1-0.4,0.1-0.6,0.1l-1.8,0.3l-6.7,0.9c-5.7,0.7-13.6,1.6-22.3,2.4s-16.6,1.5-22.3,1.9
		l-6.8,0.5l-1.8,0.1c-0.2,0-0.4,0-0.6,0c0.2-0.1,0.4-0.1,0.6-0.1l1.8-0.2l6.8-0.6l22.3-2.1l22.3-2.3l6.8-0.7l1.8-0.2
		C439.2,259.5,439.4,259.5,439.6,259.5z"/>
	<path class="st6" d="M283.6,235h-16.4c0,0-6,1-6.1,5.8h11.7l13.1-2.9L283.6,235z"/>
	<path class="st6" d="M285,244.2l-11.6-3l-12.2,1.7c0,0,0.3,5,6.1,5.3s17.9-0.1,17.9-0.1L285,244.2z"/>
	<path class="st4" d="M337.1,219.6l-50.2,15.8v11.8l48.3,12.8l1.9-5.8l-44.8-10.4c-1.8-0.6-2-1.4-2.1-3c-0.1-2.6,3.3-3.1,3.3-3.1
		l46.3-14.7l2.1-4.2L337.1,219.6z"/>
	<g class="st5">
		<path d="M337.1,219.6l-50.2,15.8v11.8l48.3,12.8l1.9-5.8l-44.8-10.4c-1.8-0.6-2-1.4-2.1-3c-0.1-2.6,3.3-3.1,3.3-3.1l46.3-14.7
			l2.1-4.2L337.1,219.6z"/>
	</g>
	<path class="st4" d="M293.4,243.6H292c-1.2-0.4-2-1.6-1.8-2.9c0.1-2.8,3-2.8,3-2.8c1.2,0,2.3-1,2.3-2.3c0-1.2-1-2.3-2.3-2.3h-7.4
		c-1.2,0-2.3,1-2.3,2.3c0,1.2,1,2.3,2.3,2.3h1.1v5.7h-0.9c-1.3,0.1-2.2,1.2-2.1,2.4c0.1,1.1,1,2,2.1,2.1h7.4
		c1.3-0.1,2.2-1.2,2.1-2.4C295.5,244.6,294.6,243.7,293.4,243.6L293.4,243.6z"/>
	<circle class="st6" cx="286.6" cy="246.1" r="1"/>
	<path class="st6" d="M287.2,235.6c0,0.6-0.4,1-1,1c-0.6,0-1-0.4-1-1s0.4-1,1-1C286.7,234.6,287.2,235,287.2,235.6z"/>
	<path class="st7" d="M270.5,250.1L270.5,250.1c-1.6,0-2.9-1.3-2.9-2.9l0,0v-10.9c0-1.6,1.3-2.9,2.9-2.9c0,0,0,0,0,0l0,0
		c1.6,0,2.9,1.3,2.9,2.9v10.9C273.4,248.8,272.1,250.1,270.5,250.1C270.5,250.1,270.5,250.1,270.5,250.1z"/>
	<path class="st6" d="M271.3,236.5c0,0.6-0.4,1-1,1c-0.6,0-1-0.4-1-1s0.4-1,1-1C270.8,235.5,271.3,236,271.3,236.5z"/>
	<circle class="st6" cx="270.5" cy="247.2" r="1"/>
	<path class="st4" d="M430.3,412.8l5.3,17.2c0,0-16,9.9-15.3,13.1l34-7.8l-7.1-27.1L430.3,412.8z"/>
	<g class="st14">
		<path class="st0" d="M445.6,425.7c0.7,0,1.3,0.6,1.4,1.3c0,0.7-0.6,1.3-1.3,1.4c-0.8,0-1.4-0.6-1.5-1.4c0.1-0.8,0.7-1.3,1.5-1.3"
			/>
	</g>
	<g class="st14">
		<path class="st0" d="M454.2,435.3l-0.7-2.7l-32.5,8.7c-0.6,0.5-0.9,1.3-0.8,2.1L454.2,435.3z"/>
	</g>
	<path class="st6" d="M435,430c0,0.2,0.9,0,1.8,0.3c0.9,0.3,1.6,0.9,1.7,0.8s-0.4-1-1.5-1.3C435.9,429.4,434.9,429.8,435,430z"/>
	<path class="st6" d="M431.9,432.4c0,0.2,0.8,0.2,1.5,0.8s1.1,1.2,1.3,1.2c0.2-0.1,0-1-0.9-1.7C432.8,432,431.8,432.2,431.9,432.4z"
		/>
	<path class="st6" d="M431,437.1c0.2,0,0.2-0.9-0.5-1.7c-0.7-0.8-1.5-0.9-1.6-0.8c0,0.1,0.6,0.5,1.1,1.2S430.8,437.2,431,437.1z"/>
	<path class="st6" d="M434.2,425.9c0.1,0.1,0.8-0.3,1.8-0.5s1.8-0.1,1.8-0.3s-0.8-0.6-1.9-0.3C434.7,425.1,434.1,425.8,434.2,425.9z
		"/>
	<g class="st5">
		<polygon points="434.4,426.1 435.3,429.2 450.9,422.6 450.2,420.2 		"/>
	</g>
	<path class="st6" d="M433.2,422.4c0.6,0,1.2-0.2,1.7-0.5c0.6-0.3,1.1-0.6,1.6-1c0.3-0.2,0.6-0.5,0.8-0.8c0.2-0.2,0.3-0.3,0.4-0.5
		c0.2-0.3,0.1-0.7-0.2-0.9c-0.2-0.2-0.5-0.3-0.8-0.2c-0.2,0.1-0.4,0.1-0.6,0.3c-0.3,0.2-0.7,0.4-1,0.6c-0.5,0.4-0.9,0.9-1.3,1.4
		C433.4,421.8,433.2,422.5,433.2,422.4c0.2,0.1,0.4-0.5,1.1-1.3c0.4-0.5,0.8-0.9,1.3-1.2c0.3-0.2,0.6-0.4,0.9-0.6
		c0.3-0.2,0.6-0.3,0.8-0.1c0.1,0.1,0.1,0.1,0,0.2c-0.1,0.1-0.2,0.3-0.3,0.4c-0.2,0.3-0.5,0.5-0.8,0.8c-0.5,0.4-0.9,0.7-1.5,1.1
		C434.2,421.8,433.7,422.1,433.2,422.4z"/>
	<path class="st6" d="M433.5,422.6c0.2-0.6,0.2-1.2,0-1.8c-0.1-0.6-0.4-1.2-0.7-1.8c-0.2-0.3-0.4-0.6-0.7-0.9
		c-0.3-0.4-0.8-0.6-1.3-0.6c-0.3,0.1-0.5,0.3-0.6,0.7c0,0.2,0,0.4,0,0.7c0.1,1.1,0.7,2,1.5,2.7c0.9,0.7,1.6,0.7,1.6,0.6
		c-0.5-0.3-0.9-0.6-1.4-1c-0.4-0.4-0.8-0.9-1-1.4c-0.1-0.3-0.2-0.7-0.2-1c0-0.4,0-0.7,0.2-0.7c0.3,0,0.6,0.2,0.7,0.4
		c0.2,0.2,0.5,0.5,0.7,0.8c0.3,0.5,0.6,1,0.8,1.6C433.4,422,433.4,422.6,433.5,422.6z"/>
	<path class="st4" d="M366.2,411.4l2.2,17.8c0,0-17.5,6.9-17.4,10.2l34.8-1.7l-2.3-27.9L366.2,411.4z"/>
	<g class="st14">
		<path class="st0" d="M379,426.8c0.7,0.1,1.2,0.8,1.1,1.5c-0.1,0.7-0.8,1.2-1.5,1.1c-0.8-0.2-1.3-0.9-1.2-1.6c0.2-0.7,1-1.2,1.7-1"
			/>
	</g>
	<g class="st14">
		<path class="st0" d="M385.8,437.8l-0.2-2.8l-33.5,2.8c-0.7,0.4-1.2,1.2-1.2,2L385.8,437.8z"/>
	</g>
	<path class="st6" d="M367.8,429.1c0,0.2,0.9,0.2,1.8,0.6s1.4,1.1,1.5,1.1c0.1-0.1-0.2-1-1.3-1.6S367.8,428.9,367.8,429.1z"/>
	<path class="st6" d="M364.3,430.9c0,0.2,0.7,0.4,1.4,1.1c0.6,0.7,0.9,1.4,1,1.4s0.2-1-0.6-1.8S364.3,430.7,364.3,430.9z"/>
	<path class="st6" d="M362.6,435.4c0.1,0,0.3-0.9-0.2-1.7s-1.3-1.2-1.4-1s0.5,0.6,0.9,1.3C362.3,434.8,362.4,435.4,362.6,435.4z"/>
	<path class="st6" d="M367.8,425c0.1,0.1,0.8-0.2,1.8-0.2c1,0,1.7,0.2,1.8,0.1c0.1-0.1-0.7-0.7-1.8-0.7
		C368.4,424.2,367.7,424.9,367.8,425z"/>
	<g class="st5">
		<polygon points="367.9,425 368.3,428.2 384.7,424.5 384.5,421.5 		"/>
	</g>
	<path class="st6" d="M367.4,421.4c0.6,0.1,1.2,0.1,1.7-0.2c0.6-0.2,1.2-0.4,1.8-0.7c0.3-0.2,0.7-0.4,1-0.6c0.2-0.1,0.3-0.3,0.5-0.5
		c0.2-0.3,0.2-0.6,0-0.9c-0.2-0.2-0.5-0.3-0.8-0.3c-0.2,0-0.4,0.1-0.7,0.1c-0.3,0.1-0.7,0.3-1,0.5c-0.6,0.3-1.1,0.7-1.5,1.2
		c-0.7,0.8-1,1.5-0.9,1.5c0.1,0,0.4-0.5,1.2-1.2c0.4-0.4,0.9-0.7,1.5-1c0.3-0.2,0.7-0.3,1-0.4c0.4-0.1,0.7-0.2,0.8,0
		c0.1,0.2,0,0.1,0,0.2c-0.1,0.1-0.2,0.2-0.4,0.3c-0.3,0.2-0.6,0.4-0.9,0.6c-0.5,0.3-1.1,0.6-1.6,0.8
		C368.5,421,367.9,421.1,367.4,421.4z"/>
	<path class="st6" d="M367.6,421.6c0.3-0.5,0.4-1.1,0.3-1.7c0-0.6-0.2-1.3-0.4-1.9c-0.1-0.4-0.3-0.7-0.5-1c-0.2-0.5-0.7-0.8-1.2-0.8
		c-0.3,0-0.6,0.2-0.7,0.5c-0.1,0.2-0.1,0.4-0.1,0.7c-0.1,1.1,0.3,2.1,1,2.9c0.8,0.8,1.5,1,1.5,0.9c0-0.1-0.6-0.4-1.2-1.2
		c-0.3-0.5-0.6-1-0.7-1.6c-0.1-0.3-0.1-0.7-0.1-1c0-0.4,0.1-0.7,0.3-0.6c0.1,0,0.5,0.2,0.7,0.5c0.2,0.3,0.4,0.6,0.5,0.9
		c0.2,0.5,0.4,1.1,0.5,1.7C367.7,420.9,367.5,421.6,367.6,421.6z"/>
	<path class="st7" d="M451.6,410.3l-0.8-3.6l-12.8-64.6l3.7-56.4l-3.7-22.1l-33.9,1.8l0,0l-24.3,1.3c0,0-20.5,71-21.8,74.7
		c-1.4,3.7,6.3,84.4,6.3,84.4l21.5-4.6l-0.2-75l19.4-43.9l7.6,51.9l19,72.9l19.7-7.5l-0.6-4.1L451.6,410.3z"/>
	<path class="st6" d="M399,274c0.1,0,1.5,6.6,3.2,14.8c1.7,8.2,3.1,14.9,3,14.9s-1.5-6.6-3.2-14.8C400.3,280.6,399,274,399,274z"/>
	<path class="st6" d="M437.9,272.9c-0.9,0.4-1.8,0.6-2.7,0.7c-2.3,0.3-4.5-0.1-6.6-1c-2.1-0.9-3.8-2.4-5.2-4.2
		c-0.6-0.8-1-1.6-1.3-2.5c0.1,0.2,0.2,0.4,0.3,0.7c0.3,0.6,0.7,1.2,1.1,1.7c2.7,3.7,7.1,5.7,11.6,5.2c0.7-0.1,1.3-0.2,2-0.4
		C437.4,273,437.7,272.9,437.9,272.9z"/>
	<path class="st6" d="M437.9,341.2c0,0-1,3.8-2.4,8.5s-2.5,8.4-2.6,8.4s1-3.8,2.4-8.5S437.9,341.1,437.9,341.2z"/>
	<path class="st6" d="M385.9,344.1c-0.1,0.2-0.2,0.4-0.3,0.5l-0.9,1.4c-0.8,1.2-1.9,2.8-3.2,4.6c-1.3,1.8-2.5,3.3-3.4,4.4l-1.1,1.3
		c-0.1,0.2-0.3,0.3-0.4,0.5c0.1-0.2,0.2-0.3,0.4-0.5l1-1.3c0.9-1.1,2.1-2.7,3.3-4.5c1.3-1.8,2.4-3.4,3.2-4.5l1-1.4
		C385.7,344.4,385.8,344.2,385.9,344.1z"/>
	<path class="st6" d="M381.3,422.2c0,0,0-0.5,0-1.3s0-2.2,0-3.8c0-3.4-0.1-8.2-0.2-14.1c-0.1-12-0.3-28.4-0.5-46.6
		c0-1.6,0-3.2,0-4.6l0,0l0,0c2.2-7.7,4.9-15.2,8.1-22.6c2.9-6.8,5.6-12.8,7.8-17.8c2.2-5,3.9-9.1,5.1-12c0.6-1.4,1-2.5,1.3-3.3
		c0.3-0.8,0.5-1.1,0.5-1.1s-0.5,1.6-1.7,4.5c-1.1,2.9-2.8,7-5,12s-4.9,11-7.8,17.8c-3.2,7.3-5.9,14.9-8.1,22.6l0,0
		c0,1.5,0,3.1,0,4.6c0.2,18.2,0.3,34.6,0.4,46.6c0,5.9,0.1,10.7,0.1,14.1c0,1.6,0,2.9,0,3.8S381.3,422.2,381.3,422.2z"/>
	<path class="st6" d="M385.4,266.2c0.3,0.9,0.5,1.8,0.5,2.7c0.2,4.5-2.4,8.6-6.5,10.3c-0.8,0.4-1.7,0.6-2.6,0.7
		c0.2-0.1,0.5-0.1,0.7-0.2c0.6-0.2,1.2-0.4,1.8-0.6c4-1.8,6.5-5.8,6.4-10.2c0-0.6-0.1-1.3-0.2-1.9
		C385.5,266.7,385.4,266.5,385.4,266.2z"/>
	<path class="st6" d="M401.7,269c0.2-0.1,0.3-0.1,0.5-0.1c0.5,0,1,0.1,1.4,0.4c0.6,0.4,0.9,1.2,0.8,1.9c-0.2,0.9-1,1.6-1.9,1.6
		c-0.9,0-1.7-0.6-2.1-1.4c-0.2-0.7-0.1-1.5,0.4-2c0.3-0.4,0.7-0.6,1.2-0.7c0.2,0,0.3,0,0.5,0c0,0-0.2,0-0.5,0.1
		c-0.4,0.1-0.8,0.4-1.1,0.7c-0.4,0.5-0.6,1.2-0.3,1.9c0.3,0.8,1,1.3,1.9,1.3c0.8-0.1,1.5-0.7,1.7-1.5c0.2-0.7-0.1-1.4-0.6-1.8
		c-0.4-0.3-0.8-0.4-1.3-0.4C402.1,269,401.9,269,401.7,269z"/>
	<path class="st12" d="M369.7,208.9c0,0-8.4-0.9-10.1-0.9s-13.5,2.4-13.5,2.4s-7.1,7-7,9.1l2.8-0.5c0,0-2.6,4.3-2.5,5.4
		s-0.3,2.4,1.2,2.7c2.6,0.6,3.8-2.4,3.8-2.4s-0.3,1.5,0.8,1.7c1.6,0.4,3.4-0.9,3.4-0.9s0.1,1.4,1.3,1.5c1.4,0.1,2.8-0.4,3.8-1.3
		c1,0.6,2.2,0.6,3.2-0.1c1.7-1,3.8-4.7,3.8-4.7l2.2-0.5l7.9,2.2L369.7,208.9z"/>
	<path class="st13" d="M347.2,220.1c-0.8,1.8-1.8,3.5-3.2,5c0.3-0.9,0.8-1.8,1.4-2.6C345.8,221.6,346.4,220.8,347.2,220.1z"/>
	<path class="st13" d="M351.6,222.4c0.1,0.1-0.4,1-1.3,1.9c-0.9,0.9-1.8,1.4-1.9,1.3c-0.1-0.1,0.6-0.8,1.5-1.6
		C350.8,223.1,351.5,222.3,351.6,222.4z"/>
	<path class="st13" d="M355.2,223.3c0.1,0.1,0,0.8-0.6,1.5c-0.6,0.7-1.2,1.1-1.3,1c-0.1-0.1,0.4-0.6,0.9-1.3
		S355.1,223.3,355.2,223.3z"/>
	<path class="st13" d="M344.7,215.2c0.1,0.1-0.3,0.5-0.9,1.2c-0.5,0.8-1.2,1.8-2,3.1c-1.4,2.5-2.4,4.6-2.5,4.5
		c0.4-1.7,1.1-3.3,2.1-4.8c0.6-1.1,1.3-2.1,2.1-3C344.2,215.5,344.7,215.1,344.7,215.2z"/>
	<path class="st12" d="M343.4,252.6c1.4,0.1,2.8,0.4,4,1c1.3,0.6,2.2,1.8,2.4,3.2c0.2,1.4-0.7,2.7-2.1,3.1c-1,0.1-2-0.3-2.7-1
		c-1.7-1.6-2.3-4.1-1.4-6.3"/>
	<path class="st12" d="M344.5,254c0,0-1-3.1-5.9-3c0,0-3.5,0.1-4,0.4s-1.4,1.6-1.2,2.2c0.7,1.3,2,2.3,3.4,2.7
		c1.4,0.1,2.3-0.1,2.7-0.6C339.7,255.2,344.5,254,344.5,254z"/>
	<path class="st13" d="M336.5,251.8c0-0.1,0.4,0,1.1,0.3c0.9,0.3,1.6,1,1.9,1.9c0.4,1-0.1,2-1,2.4c0,0,0,0,0,0c-0.7,0.3-1.2,0-1.1,0
		c0,0,0.4,0,1-0.3c0.7-0.4,1-1.2,0.7-1.9c-0.3-0.7-0.9-1.4-1.6-1.7C336.8,252,336.4,251.8,336.5,251.8z"/>
	<path class="st13" d="M338.6,253.1c-0.1,0-0.3-0.3-0.4-0.7c-0.2-0.4-0.3-0.7-0.2-0.8c0.1-0.1,0.5,0.1,0.7,0.6
		C338.9,252.7,338.8,253.1,338.6,253.1z"/>
	<path class="st12" d="M336.7,256c0.5-0.5,1.2-0.9,1.9-1c0.7-0.1,1.5,0.5,1.4,1.2c0.1-0.7,0.4-1.4,0.9-1.9c0.5-0.6,1.2-0.8,1.9-0.6
		c0.7,0.2,1,0.9,0.8,1.6c0,0,0,0.1,0,0.1c0.3-0.7,1.2-1.1,1.9-0.7c0.6,0.3,1,0.9,0.8,1.6c0.1-0.7,1-1,1.6-0.7c0.6,0.3,1,0.9,1.1,1.6
		c1,2.8,0.2,6-2,8c-0.5,0.5-1.1,0.8-1.8,0.9c-0.7,0.1-1.3-0.2-1.7-0.8c-0.5,1-1.7,1.3-2.7,0.8c-0.3-0.2-0.5-0.4-0.7-0.6
		c-0.9,1-2.5,1.1-3.5,0.2c-0.6-0.5-0.9-1.3-0.8-2.1c-0.6,0.5-1.4,0.7-2.2,0.5c-0.7-0.4-1.1-1.2-1-2c0-1.1,0.4-2.2,1.1-3.1
		c0.6-0.9,1.4-1.7,2.2-2.5"/>
	<path class="st13" d="M340,265.3c0.7-0.8,1.4-1.7,2-2.6c1.4-2.4,1.9-5.1,1.4-7.8l0,0c-0.1-0.4-0.4-0.7-0.8-0.9
		c-0.7-0.3-1.6-0.1-2,0.6c-0.2,0.3-0.3,0.7-0.3,1.1c0,0.4-0.1,0.8-0.2,1.2c-0.3,1.4-0.8,2.7-1.7,3.9c-0.5,0.8-1.2,1.5-1.9,2
		c-0.3,0.2-0.6,0.4-0.9,0.5c1-0.8,1.8-1.8,2.5-2.8c0.7-1.1,1.2-2.4,1.5-3.8c0.1-0.4,0.1-0.8,0.1-1.2c0-0.5,0.2-0.9,0.4-1.3
		c0.2-0.4,0.6-0.8,1.1-0.9c0.5-0.2,1-0.1,1.5,0.1c0.5,0.2,0.8,0.7,1,1.2l0,0l0,0c0.5,2.8-0.1,5.7-1.6,8.1c-0.5,0.7-1,1.3-1.6,1.9
		C340.4,265,340.2,265.2,340,265.3z"/>
	<path class="st13" d="M343.7,255.2c0,0-0.1-0.1,0-0.3c0.1-0.2,0.3-0.4,0.6-0.4c0.4-0.1,0.7-0.2,1.1-0.1c0.5,0.2,0.9,0.5,1.1,1l0,0
		c0.4,1.2,0.6,2.5,0.5,3.8c-0.2,1.7-0.8,3.3-1.9,4.7c-0.4,0.6-0.9,1.1-1.6,1.4c0-0.1,0.6-0.6,1.3-1.6c0.9-1.3,1.5-2.9,1.7-4.5
		c0.1-1.2,0-2.5-0.4-3.6l0,0c-0.2-0.4-0.5-0.6-0.8-0.8c-0.3-0.1-0.6-0.1-0.9,0C343.8,254.8,343.7,255.1,343.7,255.2z"/>
	<path class="st13" d="M340,256c-0.1-0.4-0.4-0.7-0.8-0.9c-0.7-0.3-1.7,0.2-2.6,0.9c-1.1,1-2.1,2-3.1,3.1c0.5-1.4,1.5-2.7,2.8-3.5
		c0.5-0.4,1-0.7,1.6-0.9c0.5-0.2,1-0.2,1.5,0c0.3,0.2,0.6,0.5,0.6,0.8C340.1,255.9,340,256.1,340,256z"/>
	<path class="st13" d="M349.5,259.7c-0.1,0-0.1-0.4-0.2-0.9c-0.1-0.7-0.3-1.4-0.6-2c-0.3-0.6-0.8-1.1-1.5-1.2
		c-0.5,0-0.8,0.2-0.8,0.2s0.1-0.5,0.8-0.5c0.8,0,1.6,0.5,2,1.3c0.4,0.7,0.5,1.5,0.5,2.2C349.7,259.4,349.6,259.7,349.5,259.7z"/>
</g>
</svg>
