<?xml version="1.0" encoding="utf-8"?>
<!-- Generator: Adobe Illustrator 24.1.3, SVG Export Plug-In . SVG Version: 6.00 Build 0)  -->
<svg version="1.1" id="Layer_1" xmlns="http://www.w3.org/2000/svg" xmlns:xlink="http://www.w3.org/1999/xlink" x="0px" y="0px"
	 viewBox="0 0 662.7 449.1" style="enable-background:new 0 0 662.7 449.1;" xml:space="preserve">
<style type="text/css">
	.st0{fill:#E0E0E0;}
	.st1{fill:#EBEBEB;}
	.st2{fill:#F5F5F5;}
	.st3{fill:#0061F2;}
	.st4{opacity:0.3;}
	.st5{fill:#263238;}
	.st6{fill:#FFFFFF;}
	.st7{fill:#FAFAFA;}
	.st8{fill:#FFBE9D;}
	.st9{fill:#EB996E;}
	.st10{fill:#455A64;}
	.st11{fill:#B78876;}
	.st12{fill:#AA6550;}
</style>
<g id="background-complete--inject-36">
	<path class="st0" d="M662.5,207.1c0,0,0-0.1,0-0.3s0-0.5,0-0.8c0-0.7,0-1.7,0-3c0-2.7,0-6.5-0.1-11.4l0.2,0.2l-57.5,0.1l0.3-0.3
		l0,0v7.9c0,2.6,0,5.1,0,7.6l-0.2-0.3l41,0.1l12.1,0.1h3.3h0.8C662.3,207,662.4,207,662.5,207.1l-0.2,0h-0.8h-3.2l-12,0.1l-41.2,0.1
		h-0.2V207c0-2.5,0-5,0-7.6v-7.9l0,0l0.3-0.3l57.5,0.1h0.2v0.2c0,4.9-0.1,8.8-0.1,11.5c0,1.3,0,2.3,0,3c0,0.3,0,0.6,0,0.8
		C662.6,206.8,662.5,207,662.5,207.1z"/>
	<rect x="328.5" class="st1" width="57.5" height="15.5"/>
	<path class="st0" d="M410.2,31.4c0,0,0-0.1,0-0.3s0-0.5,0-0.8c0-0.7,0-1.7,0-3c0-2.7,0-6.5-0.1-11.4l0.2,0.2l-57.5,0.1L353,16l0,0
		v7.9c0,2.6,0,5.1,0,7.6l-0.2-0.2l41,0.1l12.1,0.1h3.3h0.9L410.2,31.4c0,0-0.1,0-0.2,0h-0.8h-3.2l-12,0.1l-41.2,0.1h-0.3V15.9l0,0
		l0.3-0.3l57.5,0.1h0.2v0.2c0,4.9-0.1,8.8-0.1,11.5c0,1.3,0,2.3,0,3c0,0.3,0,0.6,0,0.8C410.3,31.2,410.2,31.3,410.2,31.4z"/>
	<path class="st0" d="M97.5,271c0-0.1,0-0.2,0-0.3c0-0.2,0-0.5,0-0.8c0-0.7,0-1.7,0-3c0-2.7-0.1-6.5-0.1-11.4l0.2,0.2l-57.6,0.1
		l0.3-0.3l0,0v7.9c0,2.6,0,5.1,0,7.6l-0.2-0.3l41,0.1l12.1,0.1h3.3h0.9L97.5,271l-0.2-0.1h-0.8h-3.2l-12,0.1l-41.2,0.1h-0.3v-15.6
		l0,0l0.3-0.3l57.5,0.1h0.2v0.2c0,4.9-0.1,8.8-0.1,11.5c0,1.3,0,2.3,0,3c0,0.3,0,0.6,0,0.8C97.7,270.9,97.5,271,97.5,271z"/>
	<path class="st0" d="M104,286.5c0-0.1,0-0.2,0-0.3c0-0.2,0-0.5,0-0.8c0-0.8,0-1.8-0.1-3.1c0-2.7-0.1-6.6-0.1-11.3l0.2,0.2
		l-28.8,0.1c-0.2,0.2,0.3-0.3,0.2-0.3l0,0v8c0,2.6,0,5.1,0,7.5l-0.2-0.2l20.6,0.1l6,0.1h1.6L104,286.5c-0.1-0.1-0.3-0.1-0.5-0.1
		h-1.6l-5.9,0.1l-20.8,0.1H75v-0.2c0-2.4,0-4.9,0-7.5c0-1.3,0-2.6,0-4v-4l0,0c0,0,0.5-0.5,0.3-0.3l28.8,0.1h0.2v0.2
		c0,4.8-0.1,8.6-0.1,11.4c0,1.3,0,2.3-0.1,3.1c0,0.3,0,0.6,0,0.8C104.1,286.2,104,286.3,104,286.5z"/>
	<path class="st0" d="M641.3,43.5c0-0.1,0-0.2,0-0.3c0-0.2,0-0.5,0-0.8c0-0.7,0-1.7,0-3c0-2.7,0-6.5-0.1-11.4l0.2,0.2l-57.5,0.1
		c0.1-0.1-0.3,0.3,0.2-0.3l0,0v15.5l-0.3-0.2l41,0.1l12.1,0.1h3.3h0.9L641.3,43.5l-0.2-0.1h-0.8H637l-12,0.1l-41.2,0.1h-0.3v-7.7
		c0-1.3,0-2.6,0-3.9v-4l0,0c0.5-0.5,0.2-0.1,0.3-0.3l57.5,0.1h0.2V28c0,4.9-0.1,8.8-0.1,11.5c0,1.3,0,2.3,0,3c0,0.3,0,0.6,0,0.8
		C641.3,43.3,641.3,43.4,641.3,43.5z"/>
	<path class="st0" d="M647.7,59c0-0.1,0-0.2,0-0.3c0-0.2,0-0.5,0-0.8c0-0.8,0-1.8,0-3.1c0-2.7-0.1-6.6-0.1-11.3l0.2,0.2L619,43.8
		l0.3-0.3l0,0v8c0,2.6,0,5.1,0,7.5l-0.2-0.2l20.6,0.1l6,0.1h1.6L647.7,59c-0.1-0.1-0.3-0.1-0.4-0.1h-1.6l-5.9,0.1L619,59.1h-0.2
		v-0.2c0-2.4,0-4.9,0-7.5v-8l0,0l0.3-0.3l28.8,0.1h0.2v0.2c0,4.8-0.1,8.6-0.1,11.4c0,1.3,0,2.3,0,3.1c0,0.3,0,0.6,0,0.8
		S647.7,59,647.7,59z"/>
	<rect y="115.2" class="st1" width="57.5" height="15.5"/>
	<path class="st0" d="M81.6,146.6c0-0.1,0-0.2,0-0.3c0-0.2,0-0.5,0-0.8c0-0.7,0-1.7,0-3c0-2.7-0.1-6.5-0.1-11.4l0.2,0.1l-57.5,0.1
		c0.1-0.1-0.3,0.3,0.2-0.3l0,0v15.5l-0.3-0.3l41,0.1l12.1,0.1h3.3h0.9C81.5,146.5,81.6,146.5,81.6,146.6l-0.2,0h-0.8h-3.2l-12,0.1
		l-41.3,0.2h-0.2v-0.2c0-2.5,0-5,0-7.6v-7.9l0,0l0.3-0.3l57.6,0.1h0.2v0.2c0,4.9-0.1,8.8-0.1,11.5c0,1.3,0,2.3,0,3
		c0,0.3,0,0.6,0,0.8C81.7,146.4,81.7,146.5,81.6,146.6z"/>
	<rect x="440.5" y="237.3" class="st1" width="57.5" height="15.5"/>
	<path class="st0" d="M522.1,268.7c0,0,0-0.1,0-0.3s0-0.5,0-0.8c0-0.7,0-1.7,0-3c0-2.7,0-6.5-0.1-11.4l0.2,0.2l-57.6,0.1l0.3-0.3
		l0,0v7.9c0,2.6,0,5.1,0,7.6l-0.2-0.3l41,0.1l12.1,0.1h3.3h0.8L522.1,268.7l-0.2,0h-0.8h-3.2l-12,0.1l-41.2,0.1h-0.3v-15.6l0,0
		l0.3-0.3l57.6,0.1h0.2v0.2c0,4.9-0.1,8.8-0.1,11.5c0,1.3,0,2.3,0,3c0,0.3,0,0.6,0,0.8C522.2,268.5,522.2,268.6,522.1,268.7z"/>
	<path class="st0" d="M237.6,327.3c0,0,0-0.1,0-0.3s0-0.5,0-0.8c0-0.7,0-1.7,0-3c0-2.7,0-6.5-0.1-11.4l0.2,0.1l-57.5,0.1l0.3-0.3
		l0,0v7.9c0,2.6,0,5.1,0,7.6l-0.2-0.3l41,0.1l12.1,0.1h3.3h0.9C237.4,327.2,237.5,327.2,237.6,327.3l-0.2-0.1h-0.8h-3.2l-12,0.1
		l-41.2,0.1h-0.3v-15.6l0,0l0.3-0.3l57.5,0.1h0.2v0.2c0,4.9-0.1,8.8-0.1,11.5c0,1.3,0,2.3,0,3c0,0.3,0,0.6,0,0.8
		C237.7,327.2,237.6,327.2,237.6,327.3z"/>
	<path class="st0" d="M191,53.8c0,0,0-0.1,0-0.3s0-0.5,0-0.8c0-0.7,0-1.7,0-3c0-2.7,0-6.5-0.1-11.4l0.2,0.2l-57.6,0.1l0.3-0.3l0,0
		v7.9c0,2.6,0,5.1,0,7.6l-0.2-0.2l41,0.1l12.1,0.1h3.3h0.9L191,53.8c-0.1,0-0.2,0-0.3,0h-0.8h-3.2l-12,0.1l-41.2,0.3h-0.3V38.4l0,0
		l0.3-0.3l57.6,0.1h0.2v0.2c0,4.9-0.1,8.8-0.1,11.5c0,1.3,0,2.3,0,3c0,0.3,0,0.6,0,0.8C191.1,53.7,191.1,53.8,191,53.8z"/>
	<path class="st2" d="M567.6,429.7c-16-12.6-18.5-34.4-16.7-53.8c0.3-3.2,0.1-6.7,1.8-9.4c1.7-2.8,5.4-4.5,8.2-3
		c2.3,1.3,3.2,4.1,4.5,6.5c1.6,3.2,4.1,5.9,7.2,7.7c2,1.2,4.5,2,6.6,1c2.9-1.4,3.4-5.2,3.6-8.5l0.9-18c0.2-3.2,0.3-6.5,1.5-9.5
		s3.6-5.7,6.7-6.4s6.8,1.3,7.3,4.5c0,1.3,0,2.7-0.1,4c0,1.4,0.5,2.9,1.8,3.3s2.6-0.4,3.6-1.3c3.5-3.1,6-7.1,8.4-11.2
		c2.4-4,4.7-8.2,7.9-11.6c3.2-3.4,7.6-6,12.2-5.9s9.4,3.1,10.3,7.7s-2,9.1-5.1,12.6c-4.6,5.2-9.9,9.7-15.8,13.4
		c-1.1,0.5-2.1,1.4-2.7,2.5c-0.8,2.1,1.1,4.4,3.2,5.2c2.4,0.9,5,0.8,7.5,1.3s5.2,1.7,6,4.1c1.1,3.4-1.8,6.7-4.7,8.8
		c-5.7,4.2-12.1,7.4-18.9,9.5c-2.4,0.7-5,1.4-7,2.9s-3.3,4.4-2.3,6.7c1,2.3,4,3.2,6.5,2.9s4.8-1.5,7.2-2.3
		c4.5-1.4,10.2-0.8,12.8,3.2c1.7,2.6,1.7,6.1,0.6,9.1c-1.3,2.9-3.1,5.5-5.3,7.7c-7.5,8-17,13.9-27.6,17.1
		C587.2,433.6,577.6,434,567.6,429.7"/>
	<path class="st0" d="M573.3,417.8c3.8-10.4,8.3-20.6,13.3-30.5l3.9-7.8c1.3-2.5,2.5-5.1,4-7.5c2.7-4.6,5.6-9.1,8.8-13.4
		c3-4.1,6-7.9,8.9-11.4c2.9-3.5,5.6-6.8,8.2-9.6c4.1-4.5,8.5-8.7,13.2-12.5c1.7-1.3,3-2.3,3.9-3l1-0.8c0.1-0.1,0.2-0.2,0.4-0.2
		c-0.1,0.1-0.2,0.2-0.3,0.3l-1,0.8c-0.9,0.7-2.2,1.7-3.8,3.1c-4.7,3.9-9,8.1-13.1,12.6c-2.6,2.8-5.3,6.1-8.1,9.6
		c-2.8,3.5-5.8,7.3-8.8,11.5c-3.2,4.3-6.1,8.7-8.8,13.3c-1.4,2.4-2.6,4.9-3.9,7.5s-2.6,5.2-3.9,7.8c-5,9.9-9.4,20-13.3,30.4"/>
	<path class="st0" d="M594.6,372c-0.1-0.5-0.2-0.9-0.2-1.4c-0.1-0.9-0.2-2.2-0.4-3.8c-0.3-3.2-0.5-7.7-0.7-12.7s-0.5-9.4-0.8-12.6
		c-0.2-1.6-0.3-2.9-0.4-3.8c-0.1-0.5-0.1-0.9-0.1-1.4c0.2,0.4,0.3,0.9,0.3,1.4c0.2,0.9,0.4,2.2,0.6,3.8c0.4,3.2,0.8,7.7,1,12.6
		c0.2,5,0.4,9.3,0.5,12.7c0.1,1.5,0.1,2.8,0.2,3.8C594.6,371.1,594.6,371.5,594.6,372z"/>
	<path class="st0" d="M636.5,366.7c-0.5,0.1-1.1,0.1-1.7,0.1c-1.1,0-2.6,0.1-4.5,0.2c-3.8,0.2-9.1,0.6-14.9,1.4s-11,1.7-14.8,2.4
		c-1.9,0.4-3.4,0.7-4.4,0.9c-0.5,0.2-1.1,0.3-1.6,0.3c0.5-0.2,1-0.4,1.6-0.5c1-0.3,2.5-0.7,4.4-1.1c3.7-0.9,9-1.8,14.8-2.6
		c5-0.7,9.9-1.1,14.9-1.2c1.9-0.1,3.5,0,4.5,0C635.4,366.5,635.9,366.6,636.5,366.7z"/>
	<path class="st0" d="M573.8,417c-0.1-0.2-0.2-0.3-0.3-0.5L573,415c-0.5-1.3-1.3-3.3-2.1-5.7c-1.7-4.9-3.9-11.7-6.2-19.2
		c-2.3-7.5-4.4-14.4-6-19.2c-0.8-2.4-1.5-4.3-1.9-5.8c-0.2-0.6-0.4-1.1-0.5-1.6c-0.1-0.2-0.1-0.4-0.2-0.6c0.1,0.2,0.2,0.3,0.3,0.5
		c0.2,0.4,0.4,0.9,0.6,1.5c0.5,1.3,1.3,3.3,2.1,5.7c1.7,4.9,3.9,11.7,6.2,19.2c2.3,7.5,4.4,14.3,6,19.2c0.8,2.4,1.5,4.3,1.9,5.8
		c0.2,0.6,0.4,1.2,0.5,1.6C573.8,416.6,573.8,416.8,573.8,417z"/>
	<path class="st0" d="M630,402.5c-0.2,0.1-0.4,0.2-0.6,0.2l-1.6,0.4l-6,1.6c-5.1,1.3-12.1,3.2-19.8,5.4s-14.7,4-19.8,5.2
		c-2.5,0.6-4.6,1.1-6.1,1.4l-1.7,0.3c-0.2,0.1-0.4,0.1-0.6,0.1c0.2-0.1,0.4-0.2,0.6-0.2l1.6-0.4l6-1.6c5.1-1.3,12.1-3.2,19.8-5.4
		s14.7-4,19.8-5.2c2.5-0.6,4.6-1.1,6.1-1.4l1.7-0.3C629.6,402.5,629.8,402.5,630,402.5z"/>
	<path class="st1" d="M76.4,298c0,0-8.1,2.8,0.2,20c8.2,17.2,14,25.8,14,25.8s1.4,4-1.9,4.5s-10.6-0.8-12.2,3.2
		c-1.6,4,1.3,8.2,7.4,11.9c6.1,3.7,19.2,12.2,20.4,12.9c1.2,0.8,2.3,2.6,0.1,3.4c-2.2,0.7-18.7,2-17.6,9.8
		c1.1,7.8,19.8,15.2,21.8,16c2,0.9,2.5,1.7,2.3,2.9s-5.8,1-10.5,1.6c-4.7,0.6-10,2-9,6.5c1,4.5,11.9,14,39,17.4l12.7,0.8l7.2-10.5
		c14-23.5,13.2-38,10.3-41.5c-2.9-3.5-7.3-0.2-10.6,3.1c-3.3,3.3-6.7,7.8-7.7,7.3c-1-0.5-1.4-1.4-0.8-3.6c0.6-2.1,6.3-21.4,0.8-27
		c-5.5-5.6-16.6,6.6-18.6,7.9c-1.9,1.3-2.7-0.7-2.6-2.1s1.5-17,2.4-24s-0.5-11.9-4.8-13.2c-4.1-1.2-7.6,5.4-10,7.7
		c-2.4,2.3-4.7-1.3-4.7-1.3s-3.2-9.8-11.7-26.9s-15.8-12.3-15.8-12.3"/>
	<path class="st0" d="M143.6,437.5c-6.2-12.6-16.9-35.1-26.1-54.4c-9.3-19.3-17.6-36.7-23.8-49.3l-7.3-14.9l-2-4.1
		c-0.2-0.5-0.4-0.8-0.5-1.1s-0.2-0.4-0.2-0.4s0.1,0.1,0.2,0.4l0.5,1c0.5,0.9,1.2,2.3,2,4c1.8,3.5,4.3,8.6,7.4,14.8
		c6.2,12.6,14.6,30,23.9,49.3c9.3,19.3,19.9,41.8,26,54.4"/>
	<path class="st0" d="M86.5,353.8c0.3,0.1,0.6,0.2,0.9,0.3c0.6,0.2,1.4,0.5,2.3,0.9c2,0.8,4.6,1.9,7.6,3.2l7.5,3.4l2.3,1
		c0.3,0.1,0.6,0.2,0.8,0.4c-0.3-0.1-0.6-0.1-0.9-0.3c-0.6-0.2-1.4-0.5-2.3-0.9c-1.9-0.8-4.6-2-7.6-3.3l-7.5-3.3l-2.3-1
		C87.1,354.1,86.8,354,86.5,353.8z"/>
	<path class="st0" d="M108.8,362.2c-0.1,0,2-5.7,4.7-12.5c2.7-6.9,5-12.5,5.1-12.4s-2,5.7-4.7,12.6
		C111.1,356.7,108.9,362.3,108.8,362.2z"/>
	<path class="st0" d="M121.7,392.5c0.1-0.3,0.3-0.5,0.5-0.8l1.6-2c1.3-1.7,3.1-4.1,5-6.7c1.9-2.7,3.5-5.2,4.7-7l1.4-2.1
		c0.2-0.3,0.3-0.5,0.5-0.8c-0.1,0.3-0.2,0.6-0.4,0.8c-0.3,0.5-0.7,1.3-1.3,2.2c-1.1,1.8-2.7,4.4-4.6,7c-1.9,2.7-3.7,5-5.1,6.7
		c-0.7,0.8-1.2,1.5-1.7,1.9C122.1,392,121.9,392.3,121.7,392.5z"/>
	<path class="st0" d="M99.8,389.3c0.3,0,0.6,0,0.9,0l2.3,0.2c2,0.2,4.7,0.6,7.7,1s5.7,0.8,7.7,1.1l2.3,0.4c0.3,0,0.6,0.1,0.8,0.2
		c-0.3,0-0.6,0-0.9,0l-2.3-0.2c-2-0.2-4.7-0.6-7.7-1s-5.7-0.8-7.7-1.1l-2.3-0.4C100.4,389.5,100.1,389.4,99.8,389.3z"/>
	<path class="st0" d="M107.8,417.5c0.4,0,0.7,0,1.1,0.1l3,0.3c2.5,0.3,6,0.7,9.9,1.2c3.9,0.5,7.3,0.9,9.9,1.3l3,0.4
		c0.4,0,0.7,0.1,1.1,0.2c-0.4,0-0.7,0-1.1-0.1l-3-0.3c-2.5-0.3-6-0.7-9.9-1.2c-3.9-0.5-7.4-0.9-9.9-1.3l-3-0.4
		C108.5,417.6,108.2,417.6,107.8,417.5z"/>
	<path class="st0" d="M135.1,420.7c0.2-0.4,0.4-0.7,0.6-1l1.9-2.6c1.6-2.2,3.8-5.3,6.1-8.7c2.3-3.5,4.3-6.6,5.8-9l1.7-2.7
		c0.2-0.4,0.4-0.7,0.7-1c-0.2,0.4-0.3,0.7-0.5,1.1c-0.4,0.7-0.9,1.6-1.6,2.8c-1.4,2.3-3.4,5.6-5.7,9c-2.3,3.4-4.5,6.5-6.2,8.7
		c-0.8,1.1-1.5,2-2,2.5C135.6,420,135.4,420.3,135.1,420.7z"/>
</g>
<g id="Plant--inject-36">
	<path class="st3" d="M73.2,390.2c-4.7-5.6-5.3-14.5-4.7-21.8c0.7-7.3,2.4-14.6,1.2-21.8c-0.7-4.3-2.3-8.4-2.9-12.6
		c-0.6-4.3,0.2-9.1,3.6-11.9c3.8-3.2,9.8-2.4,13.8,0.6s6.3,7.7,8,12.4c3.7,10.3,5.1,21.7,2,32.1s-10.2,19.9-20.6,23"/>
	<path class="st3" d="M98.3,402.8c0.8-2.7,2.4-5.3,5-6.4c2.6-1.1,5.8-0.5,8.5,0.5s5.4,2.3,8.3,2.5c2.9,0.2,6.2-1.2,7.1-4
		c0.8-2.6-0.8-5.4-2.7-7.3c-6.9-6.6-17.7-6.4-24.3,0.5c-1.7,1.8-3,3.9-3.9,6.3"/>
	<g class="st4">
		<path d="M98.3,402.8c0.8-2.7,2.4-5.3,5-6.4c2.6-1.1,5.8-0.5,8.5,0.5s5.4,2.3,8.3,2.5c2.9,0.2,6.2-1.2,7.1-4
			c0.8-2.6-0.8-5.4-2.7-7.3c-6.9-6.6-17.7-6.4-24.3,0.5c-1.7,1.8-3,3.9-3.9,6.3"/>
	</g>
	<path class="st3" d="M75.3,414.5c-4.3-4-4-11.1-1.9-16.6c2.1-5.5,6.8-9.7,11.9-12.5c10.3-5.4,22.4-5.8,33-1.1
		c-5.2,0.2-10,3-12.7,7.4c-2.3,3.9-2.9,8.6-4.8,12.7C96.3,414.1,85.1,418.5,75.3,414.5"/>
	<path class="st5" d="M70.9,435.8c0-0.2,0-0.4,0-0.6c0-0.4,0-1,0-1.8c0-1.6,0.2-3.9,0.6-6.8c0.4-3.3,1-6.6,1.8-9.9
		c1-4,2.5-7.9,4.5-11.5c3.7-6.5,8.9-12.1,15.1-16.3c1.2-0.8,2.3-1.4,3.3-2c1-0.6,1.9-1,2.6-1.3l1.7-0.7c0.2-0.1,0.4-0.2,0.6-0.2
		c-0.2,0.1-0.4,0.2-0.6,0.3l-1.6,0.8c-0.7,0.4-1.6,0.8-2.6,1.4s-2.1,1.2-3.2,2c-6.1,4.2-11.2,9.8-14.9,16.2
		c-4.3,7.6-5.5,15.5-6.4,21.1c-0.4,2.8-0.6,5.1-0.7,6.7c-0.1,0.8-0.1,1.4-0.1,1.8C71,435.4,71,435.6,70.9,435.8z"/>
	<path class="st3" d="M29.9,374.8c-8.7,5.3-8.7,10.1-7.2,14.6c1.5,4.5,6.8,7.7,11.3,6c2.5-1,4.3-3.1,5.9-5.3c1.6-2.2,3-4.5,5.2-6.1
		c2.2-1.6,5.3-2.2,7.5-0.6"/>
	<g class="st4">
		<path d="M29.9,374.8c-8.7,5.3-8.7,10.1-7.2,14.6c1.5,4.5,6.8,7.7,11.3,6c2.5-1,4.3-3.1,5.9-5.3c1.6-2.2,3-4.5,5.2-6.1
			c2.2-1.6,5.3-2.2,7.5-0.6"/>
	</g>
	<path class="st3" d="M23.5,380.5c2.3-3.2,7.9-4.1,11.5-2.5s6.2,4.7,8.5,7.8s4.6,6.4,7.8,8.6c3.2,2.2,7.8,3,11,0.8
		c2.1-1.5,3.4-3.9,3.7-6.5c0.3-2.5,0.1-5.1-0.5-7.6c-0.8-3.7-2-7.5-4.9-9.8c-3.3-2.6-7.8-2.7-12-2.6c-4.8,0.2-9.6,0.5-14.1,2.2
		C29.9,372.6,25.3,376.2,23.5,380.5"/>
	<path class="st5" d="M63.4,435.4c0-0.2-0.1-0.5-0.1-0.8c0-0.5,0-1.3-0.1-2.2c-0.1-1.9-0.1-4.6-0.2-8s-0.2-7.4-0.5-11.8
		s-0.6-9.3-1.2-14.4c-0.3-2.5-0.8-4.9-1.4-7.3c-0.7-2.2-1.6-4.3-2.7-6.4c-1.8-3.5-4.2-6.6-7-9.3c-2-1.8-4.2-3.3-6.6-4.4
		c-0.7-0.3-1.3-0.6-2-0.9c-0.2-0.1-0.5-0.2-0.7-0.3c0.2,0.1,0.5,0.1,0.7,0.2c0.7,0.2,1.3,0.5,2,0.8c2.4,1.1,4.7,2.6,6.7,4.4
		c2.9,2.7,5.4,5.9,7.2,9.4c1.1,2.1,2,4.2,2.7,6.5c0.7,2.4,1.2,4.9,1.5,7.4c0.7,5.1,1,10,1.2,14.4s0.3,8.5,0.4,11.8s0.1,6.1,0.1,8
		c0,0.9,0,1.6,0,2.2C63.4,434.9,63.3,435.2,63.4,435.4z"/>
	<path class="st5" d="M67.3,435.4c0,0,0-0.1-0.1-0.2l-0.2-0.7c-0.2-0.7-0.4-1.6-0.7-2.9c-0.6-3.6-0.9-7.2-0.7-10.8
		c0.2-5.4,1.1-10.7,2.6-15.8c1.8-5.8,4.2-12,6.4-18.5c2.1-6.2,3.5-12.6,4.1-19.1c0.5-5.3,0.6-10.7,0.4-16c-0.1-4.6-0.4-8.2-0.5-10.8
		c-0.1-1.2-0.1-2.2-0.2-2.9c0-0.3,0-0.6,0-0.8c0-0.1,0-0.2,0-0.3c0,0.1,0,0.2,0,0.3c0,0.2,0,0.5,0.1,0.8c0.1,0.7,0.2,1.7,0.2,2.9
		c0.2,2.5,0.5,6.2,0.7,10.8c0.3,5.4,0.2,10.7-0.3,16c-0.6,6.6-1.9,13-4.1,19.2c-2.2,6.6-4.7,12.8-6.5,18.5
		c-1.5,5.1-2.4,10.4-2.7,15.7c-0.2,3.6,0,7.2,0.5,10.8c0.2,1.2,0.4,2.2,0.6,2.9c0.1,0.3,0.1,0.5,0.2,0.7
		C67.3,435.3,67.3,435.3,67.3,435.4z"/>
</g>
<g id="Fence--inject-36">
	<rect x="396.3" y="276.2" class="st0" width="8.7" height="159.4"/>
	<path class="st3" d="M409.4,270.7c0,4.8-3.9,8.7-8.7,8.7s-8.7-3.9-8.7-8.7c0-4.8,3.9-8.7,8.7-8.7c0,0,0,0,0,0
		C405.5,262,409.4,265.9,409.4,270.7C409.4,270.7,409.4,270.7,409.4,270.7z"/>
	<rect x="568.6" y="276.2" class="st0" width="8.7" height="159.4"/>
	<path class="st3" d="M581.6,270.7c0,4.8-3.9,8.7-8.7,8.7s-8.7-3.9-8.7-8.7s3.9-8.7,8.7-8.7c0,0,0,0,0,0
		C577.7,262,581.6,265.9,581.6,270.7C581.6,270.7,581.6,270.7,581.6,270.7z"/>
	<rect x="371.5" y="291.5" class="st3" width="222.1" height="39.7"/>
	<polygon class="st2" points="396.7,291.5 396.3,292.2 373.4,331.3 371.5,331.3 371.5,291.5 	"/>
	<polygon class="st2" points="452.8,291.5 429.6,331.3 399.2,331.3 408.4,315.5 422.4,291.5 	"/>
	<polygon class="st2" points="508.9,291.5 485.7,331.3 455.3,331.3 478.6,291.5 	"/>
	<polygon class="st2" points="565,291.5 541.8,331.3 511.4,331.3 534.7,291.5 	"/>
	<polygon class="st2" points="593.6,291.5 593.6,331.3 567.6,331.3 590.8,291.5 	"/>
	<rect x="371.5" y="352.9" class="st3" width="222.1" height="39.7"/>
	<polygon class="st2" points="396.7,352.9 396.3,353.6 373.4,392.7 371.5,392.7 371.5,352.9 	"/>
	<polygon class="st2" points="452.8,352.9 429.6,392.7 399.2,392.7 408.4,376.9 422.4,352.9 	"/>
	<polygon class="st2" points="508.9,352.9 485.7,392.7 455.3,392.7 478.6,352.9 	"/>
	<polygon class="st2" points="565,352.9 541.8,392.7 511.4,392.7 534.7,352.9 	"/>
	<polygon class="st2" points="593.6,352.9 593.6,392.7 567.6,392.7 590.8,352.9 	"/>
	<path class="st5" d="M593.6,331.3c0,0,0-0.2,0-0.7s0-1.1,0-2c0-1.8,0-4.4-0.1-7.7c0-6.8-0.1-16.7-0.1-29.3l0.2,0.2L371.6,292l0,0
		l0.4-0.4v39.7l-0.4-0.4l158.1,0.2l46.9,0.1l12.7,0.1h3.3L593.6,331.3c0-0.1-0.3-0.1-1-0.1h-3.2l-12.6,0l-46.8,0.1l-158.4,0.2h-0.4
		v-40.5h0.5l222.1,0.2h0.2v0.2c0,12.7-0.1,22.7-0.1,29.5c0,3.3,0,5.9,0,7.7c0,0.8,0,1.5,0,2S593.6,331.3,593.6,331.3z"/>
	<path class="st5" d="M593.6,392.7c0,0,0-0.2,0-0.7s0-1.1,0-2c0-1.8,0-4.3-0.1-7.7c0-6.8-0.1-16.7-0.1-29.3l0.2,0.2l-222.1,0.2l0,0
		l0.4-0.4v39.7l-0.4-0.4l158.1,0.2l46.9,0.1h12.7h3.3h1.1c0,0-0.3,0-1.1,0h-3.2l-12.6,0.1l-46.8,0.1l-158.4,0.2h-0.4v-40.4h0.5
		l222.1,0.2h0.2v0.2c0,12.7-0.1,22.7-0.1,29.5c0,3.3,0,5.9,0,7.7c0,0.8,0,1.5,0,2S593.6,392.7,593.6,392.7z"/>
</g>
<g id="Floor--inject-36">
	<path class="st5" d="M644.2,435.5c0,0.1-140.5,0.3-313.8,0.3s-313.8-0.1-313.8-0.3s140.5-0.3,313.8-0.3S644.2,435.4,644.2,435.5z"
		/>
</g>
<g id="Sign--inject-36">
	<rect x="105.7" y="192.7" class="st0" width="9.1" height="242.8"/>
	<path class="st5" d="M114.8,435.5c0,0,0-0.4,0-1.3s0-2.1,0-3.7c0-3.2,0-8,0-14.1c0-12.2,0-29.9-0.1-51.9
		c0-43.8-0.1-104.5-0.1-171.9l0.3,0.3h-9.1l0.3-0.3c-0.1,117-0.2,215.3-0.2,242.8l-0.1-0.1h6.9C114.2,435.5,114.9,435.5,114.8,435.5
		l-2.1-0.1h-6.9h-0.1v-0.1c0-27.5-0.1-125.8-0.2-242.8v-0.3h9.6v0.3c0,67.5-0.1,128.3-0.1,172.1c0,21.9-0.1,39.6-0.1,51.8
		c0,6.1,0,10.8,0,14c0,1.6,0,2.8,0,3.6S114.8,435.5,114.8,435.5z"/>
	<circle class="st3" cx="110.3" cy="149.9" r="52.9"/>
	<path class="st6" d="M157.9,147.9c-0.1-0.3-0.1-0.5-0.1-0.8c0-0.6-0.1-1.3-0.2-2.3c0-0.5-0.1-1.1-0.1-1.7s-0.2-1.3-0.3-2
		c-0.2-1.7-0.5-3.3-1-4.9c-1.1-4.4-2.9-8.7-5.3-12.6c-3.1-5.2-7.2-9.8-12.1-13.4c-5.9-4.5-12.7-7.5-19.9-8.8
		c-8.3-1.5-16.9-0.8-24.8,2.1c-2.1,0.8-4.2,1.7-6.2,2.7c-1,0.5-1.9,1.2-2.9,1.8c-1,0.6-1.9,1.3-2.8,2c-1.9,1.4-3.7,2.9-5.4,4.6
		c-1.7,1.7-3.2,3.5-4.6,5.5c-2.9,3.9-5.2,8.3-6.8,13c-3.2,9.7-3.2,20.1,0,29.8c1.5,4.7,3.8,9.1,6.7,13c1.4,1.9,3,3.8,4.6,5.5
		c1.7,1.6,3.5,3.1,5.3,4.6c0.9,0.7,1.9,1.4,2.9,2c1,0.6,1.9,1.2,2.9,1.8c22.3,11.9,49.9,4.2,62.9-17.4c2.4-3.9,4.2-8.2,5.3-12.6
		c0.5-1.6,0.8-3.3,1-4.9c0.1-0.7,0.2-1.4,0.3-2c0.1-0.6,0.1-1.2,0.1-1.7c0.1-1,0.1-1.7,0.2-2.3C157.8,148.5,157.9,148.2,157.9,147.9
		c0,0.3,0,0.6,0,0.8c0,0.6,0,1.3-0.1,2.3c0,0.5,0,1.1-0.1,1.7s-0.2,1.3-0.3,2c-0.2,1.7-0.5,3.3-0.9,4.9c-1.1,4.5-2.8,8.8-5.2,12.8
		c-7,11.9-18.7,20.1-32.3,22.7c-8.4,1.6-17.2,0.9-25.2-2c-2.2-0.8-4.2-1.7-6.3-2.8c-1-0.6-2-1.2-3-1.8c-1-0.6-2-1.3-2.9-2
		c-3.9-2.8-7.4-6.3-10.2-10.2c-3-4-5.3-8.5-6.9-13.2c-3.3-9.8-3.3-20.5,0-30.4c1.6-4.8,3.9-9.2,6.9-13.2c1.4-2,3-3.8,4.7-5.6
		c1.7-1.7,3.5-3.2,5.5-4.6c0.9-0.7,1.9-1.4,2.9-2c1-0.6,2-1.2,3-1.8c2-1.1,4.1-2,6.3-2.7c8.1-2.9,16.8-3.6,25.2-2
		c13.5,2.6,25.3,10.9,32.3,22.7c2.4,4,4.1,8.3,5.2,12.8c0.4,1.6,0.7,3.3,0.9,5c0.1,0.7,0.2,1.4,0.3,2s0,1.2,0.1,1.7
		c0,1,0,1.7,0.1,2.3C157.9,147.5,157.9,147.7,157.9,147.9z"/>
	<rect x="82.7" y="141.9" class="st7" width="55.1" height="11.5"/>
</g>
<g id="character-2--inject-36">
	<path class="st5" d="M308.5,98.1c-1.3,0.1,0.4,2.9-0.9,3.1c-1.6,0.3-3.2-0.9-4.2-2.3s-1.7-3-2.9-4.1c-1.6-1.5-4-1.8-6.1-2.5
		c-8.9-3-13.6-12.7-10.6-21.6c0.3-0.8,0.6-1.5,1-2.2l7.3-14.9c-2.3-1.4-2.8-4.8-1.6-7.1c1.4-2.4,3.8-3.9,6.5-4.3
		c3.9-0.6,7.9,0.7,10.6,3.5c1.5,1.5,2.6,3.5,4.6,4.2c1.7,0.6,3.7,0.1,5.5,0.3c2.5,0.4,4.6,2,5.8,4.2c1.2,2.2,1.9,4.5,2.1,7
		c0.3,2.2,0.4,4.7,2,6.4c0,0,2.4,2.2,2.4,4.7c0,5.8-5.5,4.7-5.8,6.8c-0.5,4.1,1.3,6.1-2.8,8.6c0,0,0.7,1.8-2,5.1s-5.7,2.8-5.7,2.8
		L308.5,98.1z"/>
	<path class="st8" d="M287.3,57.2c-2,0.2-3.4,1.9-3.4,3.8l0,0l2.3,50.9c0.1,6,8.9,9.4,15.4,9.2l0,0c6.5-0.1,6.7-3.3,6.8-9.1
		c0.1-9.6,0.1-13.1,0.1-13.1s8.2-1.4,9.9-12.1c0.8-5.3,0.5-14.1,0.1-21.2c-0.4-6.4-4.7-14.3-11.1-13.6L287.3,57.2z"/>
	<path class="st5" d="M315,71.8c0,0.7-0.6,1.4-1.3,1.4c-0.7,0.1-1.4-0.5-1.4-1.2c0,0,0,0,0,0c0-0.7,0.6-1.4,1.3-1.4
		C314.3,70.5,314.9,71.1,315,71.8C315,71.8,315,71.8,315,71.8z"/>
	<path class="st5" d="M316.6,70.6c-0.2,0.2-1.2-0.6-2.7-0.6s-2.6,0.8-2.7,0.6s0.1-0.4,0.6-0.8c0.6-0.4,1.4-0.7,2.2-0.7
		c0.8,0,1.5,0.2,2.1,0.7C316.6,70.2,316.7,70.5,316.6,70.6z"/>
	<path class="st5" d="M300.7,72.4c0,0.7-0.6,1.4-1.3,1.4c-0.7,0.1-1.4-0.5-1.4-1.2c0,0,0,0,0,0c0-0.7,0.6-1.4,1.3-1.4
		C300,71.1,300.7,71.6,300.7,72.4C300.7,72.3,300.7,72.4,300.7,72.4z"/>
	<path class="st5" d="M301.9,71c-0.2,0.2-1.2-0.6-2.7-0.6s-2.6,0.8-2.7,0.6s0.1-0.4,0.6-0.8c0.6-0.4,1.4-0.7,2.2-0.7
		c0.8,0,1.5,0.2,2.1,0.7C301.9,70.6,302,70.9,301.9,71z"/>
	<path class="st5" d="M307.5,81.5c0.8-0.3,1.6-0.4,2.4-0.4c0.4,0,0.7-0.1,0.8-0.4c0-0.4-0.1-0.8-0.2-1.1c-0.4-0.9-0.7-1.9-1.1-2.9
		c-1.6-4.1-2.7-7.4-2.5-7.5s1.6,3.2,3.1,7.3c0.4,1,0.7,2,1.1,2.9c0.2,0.5,0.3,1,0.2,1.5c-0.1,0.3-0.3,0.5-0.6,0.6
		c-0.2,0.1-0.4,0.1-0.6,0.1C309.1,81.6,308.3,81.6,307.5,81.5z"/>
	<path class="st9" d="M308.5,99c-5.1,0.1-10.1-1.2-14.4-3.8c0,0,3.6,7.6,14.4,6.5V99z"/>
	<path class="st9" d="M306.9,85.1c-0.6-0.7-1.5-1.1-2.4-1c-0.7,0.1-1.3,0.4-1.7,0.9c-0.4,0.5-0.5,1.2-0.1,1.8c0.5,0.5,1.3,0.7,2,0.5
		c0.7-0.2,1.3-0.6,1.9-1.1c0.2-0.1,0.3-0.3,0.4-0.4C307,85.5,307,85.3,306.9,85.1"/>
	<path class="st5" d="M302.3,68.3c-0.2,0.3-1.6-0.2-3.4-0.3s-3.2-0.1-3.4-0.4c-0.1-0.2,0.3-0.5,0.9-0.8c1.7-0.6,3.6-0.4,5.1,0.6
		C302.2,67.8,302.5,68.2,302.3,68.3z"/>
	<path class="st5" d="M316.6,67.8c-0.3,0.4-1.6,0.2-3.1,0.3s-2.8,0.6-3.1,0.2c-0.1-0.2,0-0.5,0.5-0.9c0.7-0.5,1.6-0.8,2.5-0.8
		c0.9-0.1,1.7,0,2.5,0.4C316.5,67.3,316.7,67.6,316.6,67.8z"/>
	<path class="st5" d="M293.2,51.3c0,2.2,1,4.2,2.6,5.7c1.7,1.4,3.9,1.9,6,1.6c1.6-0.3,3.5-1.1,4.9-0.3s1.6,3.2,2.9,4.3
		c1.9,1.6,4.9,0.1,7.3,0.8c1.9,0.6,3,2.3,4.3,3.8s3.1,2.9,4.9,2.3c-0.1-1.7-0.3-3.3-0.7-4.9c-0.5-1.6-1.4-3-2.8-4
		c-0.8-0.5-1.7-0.8-2.4-1.4c-1.5-1.2-1.9-3.4-2.9-5.1c-1.3-2.3-3.6-3.8-6.1-4.1c-2.1-0.2-4.3,0.4-6.4-0.1c-1.5-0.4-2.9-1.4-4.4-1.7
		c-3-0.6-5.8,1.6-8,3.7"/>
	<path class="st5" d="M287.6,74.5c-0.6,0.3-0.9,1-0.6,1.6c0.2,0.4,0.6,0.7,1,0.7c3.6,0.8,4.1-6.2,3.3-8.2c1.4-1.1,2.6-2.4,3.6-3.8
		c1.2-2.2,1.7-4.8,1.7-7.3c1.3,0.1,6.9-1.8,6.3-1.9c-1.4-0.4-4.1-1.3-4.8-2.4c-1.5-2.6-4.2-4.1-7.2-4.1c-3,0.2-5.5,2.4-6.1,5.4
		c-3.6,0.1-6.8,2.2-8.4,5.4c-1.6,3.3-1.5,7.3,0.3,10.5c0.6,0.8,1,1.6,1.1,2.6c0,1.2-0.9,2.1-1.5,3.1c-1.7,2.7-1.6,6.4-0.3,9.3
		s2.2,4,4.1,4.5c3.7,1.2-0.6,8.7,5.5,8.7"/>
	<path class="st8" d="M287.7,77.4c-0.1-1.7-1.5-3.1-3.3-3c-0.5,0-0.9,0.1-1.3,0.4c-1.1,0.6-1.9,1.9-1.8,4.3c0.3,6.5,6.7,4.9,6.7,4.7
		S287.9,80.1,287.7,77.4z"/>
	<path class="st9" d="M285.9,81.4c0,0-0.1,0.1-0.3,0.2c-0.3,0.1-0.6,0.1-0.9,0.1c-0.9-0.5-1.4-1.4-1.4-2.4c0-0.6,0-1.1,0.2-1.6
		c0.1-0.4,0.4-0.7,0.8-0.9c0.3-0.1,0.6,0,0.7,0.3c0.1,0.2,0.1,0.3,0.1,0.3s0.1-0.1,0.1-0.4c0-0.2-0.1-0.3-0.3-0.4
		c-0.2-0.1-0.4-0.2-0.6-0.1c-0.5,0.1-1,0.5-1.1,1c-0.2,0.6-0.4,1.2-0.3,1.8c0,1.2,0.7,2.2,1.8,2.7c0.3,0.1,0.7,0,1-0.2
		C285.9,81.5,286,81.4,285.9,81.4z"/>
	<path class="st10" d="M293.9,53.8c-0.5,0.3-1,0.6-1.3,1.1c-0.7,1.4-0.9,3-0.5,4.5v0.2H292c-1.9,0.5-3.4,1.9-4.2,3.7
		c-0.2,0.5-0.3,1-0.3,1.6c0,0.6,0.1,1.1,0.2,1.7c0.1,0.6,0.2,1.2,0.2,1.8c0,0.7-0.1,1.3-0.5,1.9c-0.8,1.1-2,1.9-3.2,2.4
		c-1.1,0.5-2.1,1.2-3,2c-1.5,1.4-2.3,3.4-2.4,5.4c-0.1,1.4,0.2,2.8,0.9,4c0.4,0.9,0.8,1.3,0.8,1.3s-0.1-0.1-0.3-0.3
		c-0.2-0.3-0.5-0.6-0.6-1c-1.8-3.2-1.2-7.2,1.4-9.8c0.9-0.9,2-1.6,3.1-2.1c1.2-0.5,2.2-1.3,3-2.3c0.7-1,0.4-2.3,0.2-3.4
		c-0.1-0.6-0.2-1.2-0.2-1.8c0-0.6,0.2-1.2,0.4-1.7c0.8-1.9,2.5-3.3,4.5-3.8l-0.1,0.2c-0.4-1.6-0.2-3.3,0.6-4.7
		c0.3-0.3,0.6-0.6,1-0.8C293.6,53.9,293.8,53.8,293.9,53.8z"/>
	<path class="st5" d="M306.8,87.2c-0.9-0.3-1.7-0.8-2.5-1.3c-1.3-0.8-2.4-1.4-2.3-1.6s1.3,0.2,2.6,1S306.9,87.1,306.8,87.2z"/>
	<path class="st10" d="M325.2,75.4c-0.1-0.2,0.7-0.4,1.5-1.3c0.5-0.5,0.8-1.2,1-1.9c0.2-0.9,0-1.8-0.4-2.6c-0.7-1-1.6-1.7-2.6-2.2
		c-0.7-0.4-1.4-0.8-2-1.3c-0.7-0.6-1.3-1.3-1.8-2.2c-0.9-1.6-1.2-3.4-1.9-4.8c-0.3-0.7-0.7-1.3-1.2-1.8c-0.5-0.5-1-0.7-1.7-0.8
		c-1.4-0.2-3.3,0.5-5.6,0.1c-1-0.2-2-0.7-2.9-1.4c-0.7-0.6-1.3-1.2-1.9-1.8c-0.9-1.1-2-2.1-3.1-2.8c-1-0.6-2.2-0.8-3.4-0.8
		c-1.8,0.1-3.5,0.8-4.7,2.1c-0.9,0.9-1.3,1.6-1.5,1.5s-0.1-0.9,0.7-2.1c0.5-0.8,1.2-1.4,1.9-1.9c1-0.7,2.2-1.2,3.4-1.3
		c1.5-0.2,3.1,0.1,4.5,0.7c1.5,0.8,2.8,1.8,3.8,3.1c0.9,1.1,2.2,2,3.6,2.4c0.8,0.1,1.5,0.1,2.3,0c1-0.2,2.1-0.2,3.1-0.2
		c1.2,0.1,2.4,0.7,3.2,1.6c0.7,0.8,1.3,1.7,1.7,2.7c0.8,1.8,1,3.5,1.6,4.8c0.3,0.6,0.7,1.1,1.1,1.5c0.5,0.4,1.1,0.9,1.7,1.2
		c0.6,0.4,1.2,0.9,1.8,1.3c0.6,0.5,1,1.1,1.4,1.8c0.5,1.2,0.6,2.6,0.1,3.9c-0.3,0.9-0.9,1.7-1.7,2.2
		C326.1,75.7,325.2,75.6,325.2,75.4z"/>
	<path class="st0" d="M284.9,95.8l-1.8,6.9c0,0-9.2,13.3-10.6,15.5s-4.7,10.6-5.1,14.7s14.3,62,14.3,61.4s42.4,12,42.4,12l8.6-7.8
		c0,0,1.5-18.9,0.6-20.5s-0.9-26.6-3.1-35.7s-20.1-29.7-20.1-29.7l-1.6-4.5v4.5L284.9,95.8z"/>
	<path class="st0" d="M280.6,123.4c-3,6.4-2.3,14,1.9,19.8c6.7,9.2,16.3,22.2,17,22.2c1.2,0,24.9-21.9,24.9-21.9s-13.2-20.6-20-25.2
		c-3.2-2.1-13.3-6.2-17.7-3.9C284.8,115.3,282.5,119.3,280.6,123.4z"/>
	<path class="st5" d="M288.5,113.6c-0.2,0,0-1.8,0.5-3.8c0.2-1.3,0.6-2.5,1.2-3.6c0,1.3-0.3,2.6-0.7,3.8
		C289.3,111.2,288.9,112.4,288.5,113.6z"/>
	<path class="st5" d="M308.5,112.5c-0.3-0.1-0.5-0.3-0.8-0.4l-2.1-1.4l0.2-0.1c0,1,0.2,2.1,0.4,3.1c0.3,1.3,0.5,2.6,0.5,3.9v0.5
		l-0.4-0.3c-2-1.6-4.3-3.5-6.9-5.3c-4.3-3.1-8.4-5.6-11.4-7.4c-1.5-0.9-2.7-1.6-3.6-2c-0.5-0.2-0.9-0.5-1.3-0.8
		c0.5,0.1,1,0.3,1.4,0.6c0.9,0.4,2.1,1,3.7,1.9c4,2.2,7.8,4.6,11.5,7.3c2.6,1.9,4.9,3.7,6.9,5.4l-0.4,0.2c0-1.3-0.2-2.6-0.5-3.9
		c-0.2-1-0.3-2.1-0.3-3.1v-0.3l0.2,0.2l2,1.5C308,112.1,308.2,112.3,308.5,112.5z"/>
	<path class="st8" d="M303.5,162L303.5,162L303.5,162z"/>
	<path class="st8" d="M303.5,162"/>
	<path class="st8" d="M342.1,157.2c-2.8-1.8-7.5-0.6-7.5-0.6L323,144.8L303.5,162c2,2.4,15.9,13.9,21,15.5
		c5.5,1.8,11.7,0.7,13.8-2.2s5.3-7.3,5.3-7.3S344.9,158.9,342.1,157.2z"/>
	<path class="st8" d="M335,142.2l5.9,4.1c0,0,5.4,0.6,7.5,5.5s2.6,15.7-4.6,15.9L327.8,156v-9L335,142.2z"/>
	<path class="st9" d="M346.8,150.9c0,0.1-0.9-0.7-2.5-1.5c-4.1-2.2-9.1-2.4-13.3-0.4c-1.6,0.7-2.5,1.4-2.6,1.3s0.2-0.2,0.6-0.5
		c0.6-0.4,1.2-0.8,1.8-1.1c4.3-2.2,9.5-2,13.7,0.4c0.6,0.4,1.2,0.8,1.8,1.2C346.6,150.7,346.8,150.9,346.8,150.9z"/>
	<polygon class="st0" points="330.2,145.3 336.8,141 313.5,116.6 	"/>
	<path class="st5" d="M285.5,147.4c0,0,0.1,0.1,0.3,0.3l0.8,0.9l2.8,3.6l10.3,13h-0.3c0.9-0.7,1.8-1.5,2.7-2.3s1.9-1.6,2.8-2.5
		c1.9-1.7,4-3.5,6.1-5.4l13.5-12.1l0,0.3c-1.2-1.8-2.5-3.6-3.8-5.5c-2.5-3.5-5.1-6.9-7.8-10.1c-1.3-1.6-2.6-3.1-3.9-4.6
		c-1.2-1.5-2.6-2.8-4-4.1c-1.4-1.2-2.9-2.2-4.5-3c-1.6-0.7-3.2-1.2-4.9-1.5c-1.6-0.4-3.2-0.6-4.8-0.8c-1.5-0.1-2.9,0.2-4.2,0.9
		c-1.2,0.7-2.2,1.6-3,2.6c-0.8,0.9-1.4,1.9-2,3c-1,1.7-1.7,3.4-2.3,5.3c-0.4,1.2-0.6,2.4-0.8,3.6c-0.1,0.4-0.1,0.7-0.1,1
		c0,0.1,0,0.2-0.1,0.3c0.1-1.7,0.3-3.3,0.8-4.9c0.5-1.9,1.3-3.7,2.2-5.4c0.6-1.1,1.3-2.1,2-3c0.9-1.1,1.9-2,3.1-2.7
		c1.3-0.8,2.9-1.1,4.4-1c1.6,0.2,3.2,0.4,4.8,0.8c1.7,0.3,3.4,0.9,5,1.6c1.7,0.8,3.3,1.8,4.6,3c1.4,1.3,2.8,2.7,4.1,4.1
		c1.3,1.5,2.6,3,3.9,4.6c2.6,3.2,5.2,6.5,7.8,10.1c1.3,1.9,2.6,3.7,3.8,5.5l0.1,0.2l-0.2,0.1l-13.6,12.1l-6.1,5.4
		c-1,0.9-1.9,1.7-2.8,2.5l-2.8,2.3l-0.2,0.1l-0.1-0.2l-10.1-13.2l-2.7-3.7l-0.7-1C285.7,147.6,285.6,147.5,285.5,147.4z"/>
	<path class="st9" d="M343.5,168c0,0,0.1-0.5,0.3-1.4c0.1-0.5,0.1-1.1,0.1-1.7c0-0.7,0.1-1.4,0.1-2.2c0-1.9-0.6-3.8-1.7-5.3
		c-1.5-1.8-3.9-2.6-6.2-2.3c-0.9,0.1-1.7,0.4-2.4,0.9l-0.2,0.1l-0.1-0.1c-3.1-3.2-5.8-6-7.8-8l-2.3-2.4c-0.3-0.3-0.6-0.6-0.8-0.9
		c0.3,0.2,0.6,0.5,0.9,0.8l2.4,2.3c2,2,4.8,4.7,7.9,7.9h-0.3c0.8-0.5,1.7-0.9,2.6-1c2.5-0.4,5,0.5,6.6,2.5c1.2,1.6,1.8,3.6,1.7,5.6
		c0,0.9-0.1,1.6-0.1,2.2c0,0.9-0.2,1.9-0.5,2.7C343.5,167.8,343.5,168,343.5,168z"/>
	<path class="st5" d="M313.5,117.4c0.4,0.3,0.7,0.7,1,1.1c0.6,0.7,1.4,1.8,2.5,3.1c2.7,3.4,5.2,6.9,7.3,10.7
		c1.2,2.1,2.2,4.3,2.9,6.6c0.6,1.9,0.8,3.8,0.7,5.8c-0.1,1.6-0.1,2.9-0.1,3.9c0,0.5,0,1-0.1,1.4c-0.1-0.5-0.1-1-0.1-1.4
		c0-1,0-2.4,0-3.9c0.1-1.9-0.2-3.8-0.8-5.7c-0.7-2.2-1.7-4.4-2.9-6.4c-2.2-3.7-4.6-7.3-7.2-10.7c-0.9-1.3-1.7-2.3-2.3-3.2
		C314,118.2,313.7,117.8,313.5,117.4z"/>
	<path class="st5" d="M299.5,178.8c0.1-0.1,1.1,3,3.1,6.4s4.2,5.7,4.1,5.8c-0.6-0.4-1.1-0.9-1.5-1.4c-2.3-2.5-4-5.5-5.1-8.8
		C299.7,180.2,299.5,179.5,299.5,178.8z"/>
	<path class="st5" d="M312.2,192.4c-1.2-2.8-2.1-5.7-2.6-8.6C310.7,186.5,311.6,189.4,312.2,192.4z"/>
	<path class="st3" d="M296.4,126.2c0.2-0.3,2.9,5.7,2.9,5.7s1.4,3.9-3.3,6.2c-2.4,1.4-5.5,0.5-6.8-1.9c-0.1-0.2-0.2-0.3-0.2-0.5
		l-2-4.4c2.1-0.4,3.6-2.2,3.6-4.3C290.6,127,294.5,129.2,296.4,126.2z"/>
	<path class="st10" d="M326.7,403.8l-1.4,21c0,0,20.9,6.9,21,10.8l-40.8,0.2l0.8-32.8L326.7,403.8z"/>
	<path class="st5" d="M305.5,435.8l0.1-3.3l39.4,1.1c0.8,0.4,1.4,1.3,1.5,2.2H305.5z"/>
	<path class="st5" d="M331.4,237.1l1.8-34.2l-53.1-1.9c0,0-6.8,16-8.4,22.2c-1.6,6.2-2.7,14.2-0.6,22s17,33.9,17,33.9l14.3,144.2
		h32.5L331.4,237.1z"/>
	<path class="st5" d="M331.1,208.8c0.4,3.9,30.2,96.1,26.8,110.1c-3.4,14-27.5,80-27.5,80L331.1,208.8z"/>
	<path class="st10" d="M331.9,215c0.1,0,0.5,38.6,0.9,86.2s0.5,86.2,0.4,86.2s-0.6-38.6-0.9-86.2S331.7,215,331.9,215z"/>
	<path class="st10" d="M322.3,423.2c-0.1,0-1.9-45.2-3.9-101s-3.5-101-3.4-101s1.9,45.2,3.9,101S322.5,423.2,322.3,423.2z"/>
	<path class="st10" d="M313.3,206.9c0,0.5,0,0.9-0.1,1.4c-0.2,1.3-0.5,2.5-0.9,3.7c-1.3,4-3.4,7.8-6.3,10.9
		c-3.3,3.7-7.3,6.2-10.5,6.9c-1.3,0.3-2.6,0.4-3.8,0.1c-0.3-0.1-0.7-0.2-1-0.3c-0.2-0.1-0.3-0.1-0.3-0.2s0.5,0.1,1.4,0.2
		c1.2,0.1,2.5,0,3.7-0.3c3.1-0.8,6.9-3.3,10.2-6.9c2.8-3.1,5-6.7,6.3-10.7C313,208.9,313.2,206.9,313.3,206.9z"/>
	<path class="st10" d="M346.5,311.3c-4.7-0.7-9.5,0.1-13.9,2.1c0.5-0.5,1.1-0.8,1.8-1.1c1.5-0.7,3.2-1.2,4.9-1.5
		c1.7-0.2,3.4-0.2,5.1,0C345.1,310.8,345.8,311,346.5,311.3z"/>
	<path class="st10" d="M296.5,291.2c-0.6-0.8-1.1-1.6-1.5-2.5c-0.9-1.6-2.1-3.7-3.5-6.1c-1.4-2.3-2.8-4.5-3.7-6
		c-0.6-0.8-1.1-1.6-1.5-2.5c0.7,0.7,1.3,1.5,1.8,2.3c1,1.5,2.4,3.5,3.9,5.9s2.6,4.5,3.4,6.2C295.8,289.4,296.2,290.3,296.5,291.2z"
		/>
	<path class="st10" d="M280,187.2c-0.8-0.3-1.3,15.2-1.3,15.2s26.8,5.2,54.4,1.2l0.7-13.5C333.8,190.1,309.9,197.2,280,187.2z"/>
	<path class="st10" d="M300.8,222.2L300.8,222.2c-2.6,0-4.8-2.2-4.8-4.8v-20c0-2.6,2.1-4.8,4.8-4.8l0,0c2.7,0,4.8,2.1,4.8,4.8v20
		C305.6,220.1,303.5,222.2,300.8,222.2z"/>
	<path class="st5" d="M300.8,222.2c0.2-0.1,0.5-0.1,0.7-0.1c0.7-0.1,1.3-0.4,1.8-0.8c0.9-0.6,1.5-1.5,1.9-2.5
		c0.2-0.6,0.3-1.3,0.2-1.9c0-0.7,0-1.5,0-2.3c0-3.2,0-7-0.1-11.1c0-2.1,0-4.3,0-6.6c-0.3-2.5-2.6-4.2-5.1-3.9
		c-2,0.3-3.6,1.9-3.9,3.9c0,2.2,0,4.5,0,6.6c0,4.2,0,7.9-0.1,11.1c0,0.8,0,1.5,0,2.3c0,0.7,0,1.3,0.2,1.9c0.3,1,1,1.9,1.9,2.5
		c0.6,0.4,1.2,0.6,1.8,0.8c0.2,0,0.5,0.1,0.7,0.1c-0.2,0-0.5,0-0.7,0c-0.7-0.1-1.4-0.3-1.9-0.7c-0.9-0.6-1.6-1.5-2-2.5
		c-0.2-0.6-0.3-1.3-0.3-2c0-0.7,0-1.5,0-2.3c0-3.2,0-7,0-11.1c0-2.1,0-4.3,0-6.6c0-2.8,2.2-5,5-5s5,2.2,5,5c0,2.3,0,4.5,0,6.6
		c0,4.2,0,7.9-0.1,11.1c0,0.8,0,1.5,0,2.3c0,0.7-0.1,1.4-0.3,2c-0.4,1-1.1,1.9-2,2.5c-0.6,0.4-1.2,0.6-1.9,0.7
		C301.4,222.3,301.1,222.3,300.8,222.2z"/>
	<path class="st10" d="M300.8,201.1c-0.6,0.1-1,0.5-1.1,1.1c-0.1,0.6,0.3,1.1,0.9,1.3c0.6,0.1,1.2-0.3,1.4-0.9
		c0.1-0.7-0.3-1.3-1-1.4C300.9,201.1,300.9,201.1,300.8,201.1"/>
	<path class="st5" d="M300.8,201.1c0,0,0.1-0.1,0.3,0c0.3,0,0.6,0.2,0.8,0.4c0.3,0.4,0.4,0.9,0.3,1.3c-0.2,0.6-0.7,0.9-1.3,1
		c-0.6,0-1.2-0.3-1.4-0.9c-0.2-0.4-0.1-0.9,0.2-1.3C300.3,201,300.8,201.1,300.8,201.1c0,0.1-0.4,0.2-0.8,0.7
		c-0.2,0.3-0.2,0.6-0.1,0.9c0.1,0.4,0.5,0.6,0.9,0.6c0.4,0,0.7-0.3,0.9-0.6c0.1-0.3,0-0.7-0.1-0.9
		C301.3,201.2,300.8,201.2,300.8,201.1z"/>
	<path class="st10" d="M295.8,206.5c2.9,2,6.7,2.3,9.9,0.8"/>
	<path class="st5" d="M305.7,207.3c0,0.1-0.5,0.4-1.4,0.7c-1.2,0.4-2.4,0.6-3.7,0.5c-1.3-0.1-2.5-0.4-3.6-1
		c-0.9-0.4-1.3-0.9-1.2-0.9c1.5,0.7,3.2,1.2,4.9,1.4C302.4,208,304.1,207.8,305.7,207.3z"/>
	<path class="st10" d="M286.3,249.1L286.3,249.1c-2.7-0.1-4.9-2.3-4.9-5l0.9-55.8c0.1-2.7,2.3-4.9,5-4.9l0,0c2.7,0.1,4.9,2.3,4.9,5
		l-0.9,55.7C291.3,246.9,289,249.2,286.3,249.1C286.3,249.1,286.3,249.1,286.3,249.1z"/>
	<path class="st5" d="M286.3,249.1c0.5,0,1-0.1,1.4-0.2c1.3-0.4,2.4-1.3,3-2.6c0.4-0.9,0.6-1.9,0.5-2.9c0-1.1,0-2.3,0-3.6
		c0-2.6,0.1-5.5,0.1-8.7c0.1-6.5,0.2-14.2,0.3-22.7c0.1-4.3,0.1-8.8,0.2-13.4c0-2.3,0.1-4.7,0.1-7.1c-0.2-2.6-2.6-4.5-5.1-4.2
		c-2.2,0.2-4,1.9-4.2,4.1c-0.1,2.3-0.1,4.8-0.1,7.1c-0.1,4.6-0.1,9.1-0.2,13.4c-0.1,8.5-0.3,16.2-0.4,22.7c-0.1,3.2-0.1,6.1-0.2,8.7
		c0,1.3-0.1,2.5-0.1,3.6c-0.1,1,0,2,0.4,2.9c0.6,1.3,1.7,2.2,3,2.7C285.3,249,285.8,249.1,286.3,249.1c-0.5,0-1-0.1-1.4-0.2
		c-1.4-0.4-2.5-1.4-3.1-2.7c-0.4-0.9-0.6-2-0.5-3c0-1.1,0-2.3,0-3.6c0-2.6,0.1-5.5,0.1-8.7c0.1-6.5,0.2-14.1,0.3-22.7
		c0.1-4.3,0.1-8.8,0.2-13.4c0-2.3,0-4.7,0.1-7.1c0.4-2.9,3-4.9,5.9-4.5c2.4,0.3,4.3,2.3,4.5,4.7c0,2.4-0.1,4.8-0.1,7.1
		c-0.1,4.6-0.1,9.1-0.2,13.4c-0.2,8.5-0.3,16.2-0.4,22.7c-0.1,3.2-0.1,6.1-0.2,8.7c0,1.3-0.1,2.5-0.1,3.6c0.1,1-0.1,2.1-0.6,3
		c-0.6,1.3-1.8,2.2-3.2,2.6C287.2,249.1,286.7,249.2,286.3,249.1z"/>
	<path class="st10" d="M315.3,221.6L315.3,221.6c-2.6,0-4.8-2.1-4.8-4.7c0,0,0,0,0-0.1v-20c0-2.7,2.1-4.8,4.8-4.8l0,0
		c2.6,0,4.8,2.2,4.8,4.8v20C320.1,219.5,317.9,221.6,315.3,221.6z"/>
	<path class="st5" d="M315.3,221.6c0,0,0.2,0,0.7-0.1c0.7-0.1,1.3-0.4,1.8-0.7c0.9-0.6,1.5-1.5,1.9-2.5c0.2-0.6,0.3-1.3,0.2-1.9
		c0-0.7,0-1.5,0-2.3c0-3.2,0-7-0.1-11.1c0-2.1,0-4.3,0-6.6c-0.2-2.5-2.5-4.3-4.9-4.1c-1,0.1-1.9,0.5-2.6,1.2
		c-0.8,0.8-1.3,1.8-1.4,2.9c0,2.2,0,4.5,0,6.6c0,4.2,0,7.9-0.1,11.1c0,0.8,0,1.6,0,2.3c0,0.7,0,1.3,0.2,1.9c0.3,1,1,1.9,1.9,2.5
		c0.6,0.4,1.2,0.6,1.9,0.7c0.5,0.1,0.7,0.1,0.7,0.1c-0.2,0-0.5,0-0.7,0c-0.7-0.1-1.4-0.3-1.9-0.7c-0.9-0.6-1.6-1.5-2-2.5
		c-0.2-0.6-0.3-1.3-0.3-2c0-0.7,0-1.5,0-2.3c0-3.2,0-6.9-0.1-11.1c0-2.1,0-4.3,0-6.6c0.3-2.6,2.4-4.5,5-4.6c2.6,0,4.7,2,5,4.6
		c0,2.3,0,4.5,0,6.6c0,4.2,0,7.9,0,11.1c0,0.8,0,1.6,0,2.3c0,0.7-0.1,1.4-0.3,2c-0.4,1-1.1,1.9-2,2.5c-0.6,0.4-1.3,0.6-1.9,0.7
		C315.9,221.7,315.6,221.7,315.3,221.6z"/>
	<path class="st10" d="M315.3,199.6c-0.6,0.1-1,0.5-1.1,1.1c-0.1,0.6,0.3,1.1,0.9,1.3c0.6,0.1,1.3-0.3,1.4-0.9
		c0.1-0.7-0.3-1.3-1-1.5C315.4,199.6,315.3,199.6,315.3,199.6"/>
	<path class="st5" d="M315.3,199.6c0,0,0.1-0.1,0.3,0c0.3,0,0.6,0.2,0.8,0.4c0.3,0.4,0.4,0.9,0.3,1.3c-0.2,0.6-0.7,0.9-1.3,1
		c-0.7,0-1.4-0.5-1.4-1.3c0-0.3,0.1-0.7,0.3-1C314.8,199.5,315.3,199.6,315.3,199.6c0,0.1-0.4,0.2-0.8,0.7c-0.2,0.3-0.2,0.6-0.1,0.9
		c0.1,0.4,0.5,0.6,0.9,0.6c0.6,0,1-0.5,1-1c0-0.2-0.1-0.4-0.2-0.6C315.8,199.7,315.2,199.7,315.3,199.6z"/>
	<path class="st10" d="M315.3,211.4c-0.6,0.1-1,0.5-1.1,1.1c-0.1,0.6,0.3,1.1,0.9,1.3c0.6,0.1,1.3-0.3,1.4-0.9
		c0.1-0.7-0.3-1.3-1-1.4C315.4,211.4,315.4,211.4,315.3,211.4"/>
	<path class="st5" d="M315.3,211.4c0,0,0.1-0.1,0.3-0.1c0.3,0,0.6,0.2,0.8,0.4c0.3,0.4,0.4,0.9,0.3,1.3c-0.2,0.5-0.7,0.9-1.3,1
		c-0.8,0-1.4-0.6-1.4-1.3c0-0.3,0.1-0.7,0.3-0.9C314.8,211.3,315.3,211.3,315.3,211.4c-0.1,0-0.5,0.1-0.8,0.6
		c-0.2,0.3-0.2,0.6-0.1,0.9c0.1,0.4,0.5,0.6,0.9,0.6c0.6,0,1-0.5,1-1c0-0.2-0.1-0.4-0.2-0.5C315.8,211.5,315.3,211.5,315.3,211.4z"
		/>
</g>
<g id="character-1--inject-36">
	<path class="st10" d="M172,397.8l-6.8,27.1l-11.6,19.9c-0.8,1.4-0.3,3.1,1.1,3.9c0,0,0.1,0.1,0.1,0.1l0,0c0.8,0.4,1.8,0.4,2.6,0
		l26.2-16.3l7.6-27.1L172,397.8z"/>
	<path class="st5" d="M157.5,448.8l26.2-16.3l1.1-4l-30.1,20.2C155.5,449.2,156.6,449.2,157.5,448.8z"/>
	<path class="st10" d="M243.7,403.8l-1.4,21.2c0,0,21.1,7,21.2,10.9l-41.2,0.3l0.8-33.1L243.7,403.8z"/>
	<path class="st5" d="M222.3,436.3l0.1-3.3l39.8,1.1c0.9,0.4,1.4,1.3,1.5,2.2H222.3z"/>
	<path class="st11" d="M147.7,90.6c-0.8-1.3-1-2.4-0.6-4.8c0.4-2.4,2.4-19.1,2.7-20.5c0.5-2.6,2.4-3.3,2.6-1.4s0.3,9.5,0.8,9.6
		c0.5,0.1,1-12.1,2-13.5s1.9-1.4,2.4-0.8c0.3,0.3,0.5,0.6,0.6,1c0,0,0.9-1.5,1.8-1.4c1.8,0.2,1.8,2.3,1.8,2.3l0.1,5.2
		c0,0,0.1-4.2,1.4-4.7c0.7-0.3,1.6-0.1,2,1.2s0,6.3,0,6.7s0.1,13.6,0.1,13.6c1-1.2,1.8-2.6,2.4-4.1c0.7-1.7,1.8-2.3,3.2-1.9
		c1.4,0.4,1.5,1.8,1.1,2.8s-1.4,4.3-1.4,4.3l-2.5,4.8l-8.5,7.6l-3.1,7c0,0-9.9-1-11.1-6.3L147.7,90.6z"/>
	<path class="st12" d="M161.8,81.5c-0.9,0.5-1.8,1.2-2.6,1.9c-1.8,1.8-2.9,4.2-3,6.8c0,0.3,0,0.5,0,0.8l-0.5,0.1
		c-0.5-2.3-1.4-4.6-2.7-6.6c-1-1.6-1.7-2.4-1.6-2.5c0.1,0,0.2,0.2,0.6,0.6c0.5,0.5,0.9,1.1,1.4,1.7c1.4,2,2.4,4.3,2.9,6.7l-0.5,0.1
		c0-0.3,0-0.6,0-0.8c0-1.5,0.4-2.9,1.1-4.2c0.6-1.1,1.3-2,2.2-2.8c0.6-0.5,1.3-1,2-1.3C161.2,81.7,161.5,81.6,161.8,81.5z"/>
	<path class="st12" d="M161.6,76.7c0,0.2-2.2,0.3-4.9,0.7c-2.7,0.4-4.9,1-4.9,0.9c1.5-0.7,3.1-1.2,4.8-1.4
		C158.2,76.6,159.9,76.5,161.6,76.7z"/>
	<path class="st12" d="M157.7,75.7c-0.2-2.6-0.2-5.2-0.1-7.8c0-2.6,0.1-5.2,0.5-7.8c0.2,2.6,0.2,5.2,0,7.8
		C158.1,70.5,158,73.1,157.7,75.7z"/>
	<path class="st12" d="M161.5,75.6c-0.2-2.3-0.2-4.6-0.1-6.9c0-2.3,0.1-4.6,0.4-6.9c0.2,2.3,0.2,4.6,0.1,6.9
		C161.9,71,161.8,73.3,161.5,75.6z"/>
	<path class="st5" d="M200.1,205.6c-2.8-1.4-5.1-3.8-6.4-6.7c0.1-0.1,1.2,1.7,3,3.5C198.4,204.3,200.1,205.5,200.1,205.6z"/>
	<path class="st5" d="M234.4,194.3c0-0.1,1.2,0.2,3.2,0.4c5.2,0.7,10.5,0.4,15.6-0.8c2-0.4,3.1-0.8,3.2-0.8
		c-0.2,0.2-0.5,0.3-0.8,0.4c-0.5,0.2-1.3,0.5-2.3,0.7c-5.1,1.4-10.5,1.7-15.8,0.8c-1-0.2-1.8-0.4-2.4-0.5
		C234.9,194.6,234.6,194.5,234.4,194.3z"/>
	<polygon class="st5" points="245.6,419.3 259.1,238.5 259.7,192 185.3,198 160.7,420.5 190.2,419.7 220.3,233.1 218.9,418.4 	"/>
	<path class="st10" d="M204.1,226.5c0.1,0-6.2,42.9-14.2,95.8c-8,52.9-14.6,95.8-14.7,95.8c-0.2,0,6.2-42.9,14.2-95.8
		C197.4,269.4,203.9,226.5,204.1,226.5z"/>
	<path class="st10" d="M233.7,418.1c0-0.2,0-0.3,0-0.5c0-0.3,0-0.8,0.1-1.5c0.1-1.3,0.2-3.2,0.4-5.6c0.3-4.9,0.8-11.9,1.4-20.6
		c1.1-17.4,2.6-41.4,3.9-67.9c1.3-26.5,2.1-50.6,2.7-68c0.3-8.7,0.5-15.7,0.6-20.6c0.1-2.4,0.1-4.3,0.2-5.6c0-0.6,0-1.1,0.1-1.5
		s0-0.5,0-0.5c0,0.2,0,0.3,0,0.5v1.5c0,1.3,0,3.2-0.1,5.6c-0.1,4.9-0.2,11.9-0.4,20.6c-0.4,17.4-1.2,41.4-2.5,68s-2.8,50.5-4,67.9
		c-0.6,8.7-1.1,15.7-1.5,20.6c-0.2,2.4-0.4,4.3-0.5,5.6c0,0.6-0.1,1.1-0.1,1.5C233.7,418,233.7,418.1,233.7,418.1z"/>
	<path class="st0" d="M208,85.2l-5.2,7.8c0,0-16.8,2.2-19.4,3.4c-2.7,1.2-3.7,5.5-3.7,5.5l4.7,57.2c0,0,1.2,24.3,1,28.1l0,0
		c0,0,0,3.8-0.2,6.5c0,2.5,0.1,5.1,0.4,7.6c0,0,21.4,5.3,23.2,5.2c1.8-0.2,10.9-2.1,10.9-2.1l27.5-1l8.8-2.9l1.7-4.7l-1.1-2
		c0,0,3.8-4.4,4.1-6.7s-1-24.8-1-24.8v-6.6l3.9-58c0,0-4.9-3.1-7.6-3.6c-7.6-1.4-14.3-3.3-14.3-3.3l-7.2-8.3L208,85.2z"/>
	<path class="st5" d="M219.5,110.7c0,0.1,0,0.2,0,0.2v0.7l-0.2,2.7c-0.2,2.3-0.5,5.7-0.9,9.9s-0.6,9.2-0.9,14.8s-0.3,11.7-0.3,18.1
		s0.3,12.5,0.6,18.1s0.7,10.6,1.1,14.7s0.8,7.6,1,9.9c0.1,1.1,0.2,2,0.3,2.7l0.1,0.7c0,0.1,0,0.2,0,0.2c0-0.1-0.1-0.2-0.1-0.2
		c0-0.2-0.1-0.4-0.1-0.7c-0.1-0.7-0.2-1.6-0.4-2.7c-0.3-2.3-0.8-5.7-1.2-9.9s-0.9-9.2-1.2-14.7s-0.6-11.7-0.6-18.1
		s0.1-12.6,0.3-18.1s0.6-10.6,1-14.8s0.7-7.6,1-9.9c0.1-1.1,0.3-2,0.4-2.7l0.1-0.7C219.5,110.9,219.5,110.8,219.5,110.7z"/>
	<path class="st0" d="M217.9,111.8l16.8,22.4c2,3.1,4.1,6.1,6.4,9c4.1,5.3,18.4,15.3,21.4,15.9s8.2,1.1,11.5-4.8s4.7-18.9,4.7-18.9
		l-14.9-37.6c0,0-5.7,3.3-8.4,8.6s-3,16.7-3,16.7L236.6,109l-6.9-8.2L217.9,111.8z"/>
	<path class="st5" d="M262.4,135.4c-0.6-0.6-1.1-1.3-1.5-2.1c-0.8-1.4-1.4-3.4-2.5-5.5c-0.5-1-1.1-1.9-1.9-2.6
		c-0.6-0.6-1.4-1.1-2.2-1.5c-0.8-0.3-1.6-0.4-2.4-0.5c0,0,0.2-0.1,0.7-0.1c0.6,0,1.3,0.1,1.9,0.3c0.9,0.3,1.7,0.8,2.4,1.4
		c0.8,0.8,1.5,1.7,2,2.7c1.1,2.1,1.7,4.2,2.4,5.6S262.5,135.3,262.4,135.4z"/>
	<path class="st5" d="M236.6,109c-0.2,0.8-0.5,1.6-1,2.3c-1,1.8-2.2,3.3-3.7,4.7c-1.5,1.4-3.2,2.5-5,3.3c-0.7,0.4-1.5,0.6-2.4,0.8
		c-0.1-0.2,3.6-1.3,7-4.4S236.5,108.8,236.6,109z"/>
	<path class="st5" d="M223,111.7c0,0,0.1-0.1,0.4-0.2c0.4-0.1,0.8,0,1.1,0.1c0.5,0.3,0.8,0.9,0.8,1.5c0,1-0.8,1.8-1.8,1.8
		c-0.2,0-0.5,0-0.7-0.1c-0.9-0.4-1.3-1.5-0.9-2.4c0,0,0-0.1,0-0.1C222.2,112,222.5,111.7,223,111.7c0.2-0.2,0.4-0.1,0.4-0.1
		s-0.7,0.1-0.9,0.9c-0.2,0.4-0.1,0.9,0.1,1.3c0.3,0.5,0.9,0.7,1.4,0.5c0.5-0.2,0.9-0.6,0.9-1.2c0-0.5-0.2-0.9-0.6-1.2
		c-0.3-0.2-0.6-0.3-0.9-0.3C223.2,111.7,223,111.7,223,111.7z"/>
	<path class="st0" d="M144.6,95.1l-5.5,9.6l-3.4,1.2c0,0-14.7,22.3-6.5,29.5c8.2,7.2,21.6,6.8,26.2,4.6s28.2-12.9,28.2-12.9
		l-0.2-30.8c-4.3,2.1-8.3,4.7-12.1,7.6c-2.9,2.5-17.1,10.6-17.1,10.6l4.2-12.8L144.6,95.1z"/>
	<path class="st0" d="M201.3,94.7c0,3.6-1,7.2-2.9,10.3c4.7-1.9,9.1-4.6,12.8-8.1c1.5,2.1,3.3,3.9,5.5,5.4c-1.2-3.1-3.4-5.6-5.2-8.4
		s-3.4-5.9-3.2-9.2L201.3,94.7z"/>
	<path class="st5" d="M242.9,164.6c-0.3,0.5-0.6,1-0.9,1.4c-0.3,0.5-0.7,1-1.2,1.6s-1,1.3-1.7,2.1c-1.5,1.8-3.2,3.4-4.9,5
		c-2.1,1.9-4.4,3.7-6.7,5.3c-2.4,1.6-4.8,3-7.4,4.3c-2.1,1-4.2,1.9-6.5,2.7c-0.9,0.4-1.8,0.6-2.6,0.8s-1.4,0.4-2,0.5
		c-0.6,0.2-1.1,0.3-1.7,0.4c0.5-0.2,1.1-0.4,1.6-0.5c0.5-0.2,1.2-0.4,1.9-0.6c0.7-0.3,1.6-0.5,2.5-0.9c2.2-0.8,4.3-1.7,6.4-2.8
		c2.5-1.3,5-2.7,7.3-4.3c2.3-1.6,4.6-3.4,6.7-5.2c1.7-1.5,3.4-3.2,4.9-4.9c0.7-0.7,1.2-1.4,1.8-2s0.9-1.1,1.3-1.6
		C242.1,165.4,242.4,165,242.9,164.6z"/>
	<path class="st5" d="M209,97c-0.1,0.4-0.2,0.7-0.5,1c-0.5,0.8-1.2,1.5-1.9,2.2c-1.8,1.7-4.8,3.3-7.9,5.3l-0.2,0.2l-0.6,0.4l0.2-0.7
		c0.8-3,1.8-5.9,3-8.8c0.4-1.1,0.8-2,1.1-2.6c0.1-0.3,0.3-0.6,0.5-0.9c-0.1,0.3-0.2,0.7-0.3,1c-0.3,0.7-0.6,1.6-1,2.6
		c-0.8,2.2-1.9,5.3-2.9,8.8l-0.4-0.3l0.3-0.2c3.1-2,6.1-3.5,7.9-5.1C207.4,99.1,208.3,98.1,209,97z"/>
	<path class="st5" d="M185.5,187.2c-0.1-0.2-0.1-0.5-0.1-0.7c0-0.5-0.1-1.2-0.1-2.1c-0.1-1.9-0.2-4.5-0.4-7.7s-0.3-7.1-0.5-11.4
		c-0.1-2.1-0.1-4.4-0.3-6.7c-0.1-2.3-0.4-4.7-0.6-7.2c-1.6-19.3-2.7-33.1-3-35.8c0.1,0.2,0.2,0.5,0.2,0.7c0.1,0.5,0.2,1.2,0.3,2.1
		c0.2,1.8,0.5,4.4,0.8,7.7c0.6,6.5,1.4,15.4,2.2,25.3c0.2,2.5,0.4,4.9,0.6,7.2s0.2,4.6,0.3,6.8c0.1,4.3,0.3,8.1,0.4,11.4
		s0.2,5.8,0.2,7.7c0,0.9,0,1.6,0,2.1C185.4,186.7,185.5,187,185.5,187.2z"/>
	<path class="st5" d="M155.6,111.4c0.1,0-0.6,1.4-1.5,3.8c-1.8,4.8-2.9,9.8-3.2,14.9c-0.1,1.7,0,3.2-0.2,4.5c-0.1,1-0.7,2-1.5,2.6
		c-0.2,0.2-0.5,0.3-0.8,0.4c-0.2,0-0.3,0-0.3,0c0.3-0.1,0.6-0.3,0.9-0.6c0.7-0.7,1.2-1.6,1.3-2.5c0.2-1.2,0-2.8,0.1-4.4
		c0.1-1.8,0.3-3.7,0.6-5.5c0.6-3.3,1.5-6.5,2.8-9.6c0.5-1.2,1-2.1,1.3-2.7C155.1,112,155.3,111.7,155.6,111.4z"/>
	<path class="st5" d="M153.5,133.4c-0.2-0.9-0.2-1.8-0.2-2.8c-0.1-1.7-0.1-4,0-6.6c0.1-2.6,0.3-4.9,0.5-6.6c0.1-0.9,0.2-1.8,0.5-2.7
		c0.1,0.9,0,1.8-0.1,2.8c-0.1,1.7-0.2,4-0.3,6.6c-0.1,2.6-0.1,4.9-0.2,6.6C153.6,131.5,153.6,132.4,153.5,133.4z"/>
	<path class="st5" d="M154.6,112.8c-0.9,0.1-1.8,0-2.6-0.2c-2.1-0.4-4.1-1.1-6-2.1c-1.9-1-3.6-2.3-5.1-3.8c-0.7-0.6-1.2-1.3-1.7-2.1
		c2.1,2.1,4.4,3.9,7,5.4C148.8,111.3,151.7,112.3,154.6,112.8z"/>
	<path class="st5" d="M151.8,104c-0.2,0.4-0.2,0.8-0.2,1.2c0.1,0.4,0.3,0.7,0.7,0.9c0.6,0.2,1.4-0.1,1.6-0.7c0.1-0.3,0.1-0.5,0-0.8
		c-0.2-0.4-0.5-0.6-0.9-0.7C152.6,103.8,152.1,103.8,151.8,104c0,0,0-0.1,0.2-0.3c0.3-0.2,0.7-0.3,1-0.2c0.5,0.1,1,0.4,1.3,0.8
		c0.3,0.6,0.1,1.4-0.4,1.9c-0.5,0.5-1.2,0.7-1.9,0.3c-0.5-0.3-0.8-0.8-0.8-1.3c0-0.4,0.1-0.7,0.2-1C151.6,104,151.8,104,151.8,104z"
		/>
	<path class="st3" d="M203.6,118.1c0.3-0.1-0.1,6.5-0.1,6.5s-0.7,4.2-5.9,3.9c-2.8,0.1-5.1-2.1-5.1-4.9c0-0.2,0-0.4,0-0.6l0.3-4.9
		c2,0.6,4.3-0.3,5.3-2.1C198.1,116,200.5,119.9,203.6,118.1z"/>
	<path class="st5" d="M264.7,100.3c0.1,0.2,0.2,0.4,0.3,0.6c0.2,0.4,0.4,1,0.8,1.8c0.7,1.6,1.6,4,2.9,7c2.4,6.1,5.9,14.9,10.2,25.5
		v0.1v0.1c-0.7,3.7-1.4,7.7-2.1,11.9c-0.3,2.2-1,4.3-2,6.2c-0.5,1-1.1,2-1.9,2.9c-0.4,0.5-0.8,0.9-1.2,1.3c-0.4,0.4-0.9,0.7-1.5,1
		c-2.2,1-4.6,1.3-7,0.8c-1.2-0.1-2.4-0.5-3.5-1.1l-3.1-2c-4.2-2.7-8.3-5.7-12.1-9c-3-2.7-5.7-5.6-8.1-8.8c-2.4-3.1-4.7-6.2-6.8-9.3
		c-4.2-6.2-8.1-12.1-12-17.3l-0.1-0.2l0.2-0.1l11.9-11l0.1-0.1l0.1,0.1c6.8,7,12.4,12.6,16.3,16.5l4.4,4.5l1.1,1.2
		c0.3,0.3,0.4,0.4,0.4,0.4s-0.1-0.1-0.4-0.4l-1.2-1.1l-4.5-4.4l-16.4-16.4h0.3L218,111.9v-0.3c4,5.2,7.8,11.2,12,17.3
		c2.1,3.1,4.3,6.2,6.8,9.2c2.4,3.1,5.1,6.1,8.1,8.7c3.8,3.3,7.8,6.3,12,9l3,2c1,0.6,2.1,0.9,3.3,1.1c2.3,0.5,4.6,0.2,6.7-0.7
		c0.5-0.2,1-0.6,1.4-0.9c0.4-0.4,0.8-0.8,1.1-1.2c0.7-0.9,1.3-1.8,1.8-2.8c1-1.9,1.6-4,2-6.1c0.8-4.2,1.5-8.1,2.1-11.9v0.1
		c-4.2-10.7-7.6-19.4-10-25.6l-2.7-7.1c-0.3-0.8-0.5-1.4-0.7-1.9S264.7,100.3,264.7,100.3z"/>
	<path class="st0" d="M241.8,91.4c-0.4,4-4.9,11.8-6.3,14c0,0-2.9-5.8-4.5-9l-0.6,4.5c-1.2-1.1-0.1-7.5-0.3-7.4l4.3-10.9L241.8,91.4
		z"/>
	<path class="st5" d="M233.8,82.7c0.3-0.1,0.6-0.1,0.9-0.2l0,0l0,0c1.2,1.2,3.8,4.2,7.4,8.2l0.1,0.1V91c-0.8,3.8-2.2,7.4-4.1,10.8
		c-0.7,1.3-1.5,2.6-2.3,3.7l-0.3,0.4l-0.2-0.4c-0.9-2.3-2.1-4.3-3.1-6.2c-0.9-1.7-1.6-3.5-2.2-5.3h0.3c-0.8,1.8-1.4,3.2-1.9,4.3
		c-0.2,0.5-0.5,1.1-0.8,1.6c0.2-0.6,0.4-1.1,0.6-1.6c0.5-1.1,1.1-2.6,1.8-4.4l0.2-0.5l0.1,0.5c0.6,1.8,1.3,3.5,2.2,5.2
		c1,1.9,2.2,3.9,3.1,6.2h-0.5c0.8-1.2,1.6-2.4,2.3-3.7c1.9-3.3,3.3-6.9,4.1-10.7l0,0.2c-3.5-4.1-6.1-7.1-7.1-8.4h0.1
		C234.4,82.7,234.1,82.7,233.8,82.7z"/>
	<path class="st5" d="M250.4,111.2c0.5,2,0.9,4.1,1.1,6.1c0.2,1.7,0.5,3.2,0.6,4.4c0,0.4,0.1,0.9,0.1,1.3c0,0.1,0,0.3-0.1,0.4
		c-0.1,0.1-0.1,0-0.1,0s0,0,0,0c0.1,0.2,0-0.6-0.2-1.6s-0.5-2.6-0.7-4.4C250.6,115.4,250.4,113.3,250.4,111.2z"/>
	<path class="st11" d="M221.3,100.3L221.3,100.3c-6.8,0.1-12.5-5.3-12.6-12.1c0-0.3,0-0.6,0-0.8c0.1-2.4,0.2-4.1,0.2-4.1
		S199,82,198.7,72.1s0.8-32.5,0.8-32.5l0,0c11.3-5.2,24.5-3.9,34.5,3.4l1.5,1.1l-1.6,38.5c0,0-4.3,14.4-7.6,16.5
		C224.3,100.3,223.6,100.2,221.3,100.3z"/>
	<path class="st12" d="M208.9,83.3c4.5-0.1,9-1.6,12.7-4.1c0,0-3,7.2-12.8,6.5L208.9,83.3z"/>
	<path class="st11" d="M234.5,54.4c0.2-0.1,6.7-2.2,6.7,4.6s-6.8,5.3-6.8,5.1S234.5,54.4,234.5,54.4z"/>
	<path class="st12" d="M236.5,61.5c0,0,0.1,0.1,0.3,0.2c0.3,0.1,0.6,0.1,0.9,0c0.9-0.6,1.4-1.6,1.4-2.6c0-0.6-0.1-1.2-0.3-1.7
		c-0.1-0.4-0.5-0.8-0.9-0.9c-0.3-0.1-0.6,0.1-0.7,0.3c-0.1,0.2,0,0.3-0.1,0.3s-0.1-0.1-0.1-0.4c0-0.2,0.1-0.3,0.3-0.4
		c0.2-0.1,0.4-0.2,0.6-0.2c0.6,0.1,1,0.5,1.2,1.1c0.3,0.6,0.4,1.2,0.4,1.9c0.1,1.2-0.6,2.4-1.7,2.9c-0.4,0.1-0.8,0-1.1-0.2
		C236.5,61.7,236.4,61.6,236.5,61.5z"/>
	<path class="st5" d="M203.2,55.3c0,0.8,0.6,1.4,1.4,1.4c0.7,0,1.4-0.5,1.4-1.2c0,0,0,0,0-0.1c0-0.8-0.6-1.4-1.4-1.4
		C203.9,54,203.3,54.6,203.2,55.3C203.2,55.3,203.2,55.3,203.2,55.3z"/>
	<path class="st5" d="M201.6,53.4c0.2,0.2,1.2-0.6,2.7-0.7s2.6,0.7,2.8,0.5s-0.1-0.4-0.6-0.8c-0.7-0.4-1.5-0.7-2.2-0.6
		c-0.8,0-1.5,0.3-2.2,0.8C201.7,53,201.6,53.4,201.6,53.4z"/>
	<path class="st5" d="M217.9,55.3c0,0.8,0.6,1.4,1.4,1.4c0.7,0,1.4-0.5,1.4-1.2c0,0,0,0,0-0.1c0-0.8-0.6-1.4-1.4-1.4
		C218.6,54,218,54.6,217.9,55.3C218,55.3,218,55.3,217.9,55.3z"/>
	<path class="st5" d="M216.5,53.3c0.2,0.2,1.2-0.6,2.7-0.7s2.6,0.7,2.8,0.5s-0.1-0.4-0.6-0.8c-0.7-0.4-1.5-0.7-2.2-0.6
		c-0.8,0-1.6,0.3-2.2,0.8C216.6,52.9,216.5,53.3,216.5,53.3z"/>
	<path class="st5" d="M211.3,64.7c-0.8-0.2-1.6-0.4-2.5-0.4c-0.4,0-0.8-0.1-0.8-0.4c0-0.4,0-0.8,0.2-1.1c0.3-0.9,0.7-1.9,1.1-3
		c1.5-4.2,2.5-7.7,2.4-7.8c-0.2-0.1-1.5,3.3-3,7.6c-0.4,1-0.7,2-1,3c-0.2,0.5-0.3,1-0.2,1.5c0.1,0.3,0.4,0.5,0.6,0.6
		c0.2,0.1,0.4,0.1,0.6,0.1C209.7,64.8,210.5,64.8,211.3,64.7z"/>
	<path class="st5" d="M215.9,49.8c0.2,0.4,1.7,0,3.5,0.1s3.3,0.4,3.5,0c0.1-0.2-0.2-0.5-0.8-0.9c-1.7-0.8-3.6-0.9-5.3-0.1
		C216.1,49.2,215.8,49.6,215.9,49.8z"/>
	<path class="st5" d="M201.3,50.5c0.3,0.4,1.5,0.1,2.9,0.2c1.4,0.1,2.6,0.4,2.9,0.1c0.1-0.2,0-0.5-0.5-0.9c-0.7-0.5-1.5-0.7-2.3-0.7
		c-0.8-0.1-1.6,0.1-2.4,0.5C201.3,50,201.1,50.3,201.3,50.5z"/>
	<path class="st12" d="M215.5,67.9c-0.4-0.4-0.9-0.6-1.5-0.6c-0.5,0-1.1,0.1-1.6,0.2c-0.6,0.1-1.2,0.4-1.6,0.9
		c-0.2,0.4-0.3,0.8-0.2,1.2c0.1,0.4,0.1,1.9,1,2.3h3.5c0.5-0.6,0.8-1.4,0.9-2.2C216.3,69.1,216.1,68.4,215.5,67.9z"/>
	<path class="st5" d="M214.5,72c0,0,0.2,0,0.4,0c0.3-0.1,0.6-0.3,0.7-0.7c0.1-0.5,0.2-1.1,0.2-1.6c0.1-0.6-0.1-1.3-0.5-1.8
		c-0.4-0.5-1.1-0.3-1.8-0.2c-0.6,0.1-1.1,0.2-1.6,0.4c-0.9,0.4-1,1.1-1.1,1c-0.1-0.1,0-0.2,0.1-0.4c0.2-0.4,0.5-0.7,0.9-0.9
		c0.5-0.3,1.1-0.5,1.7-0.6c0.3-0.1,0.7-0.1,1.1-0.2c0.4,0,0.9,0.2,1.2,0.5c0.5,0.6,0.7,1.4,0.6,2.2c0,0.6-0.1,1.2-0.4,1.8
		c-0.2,0.4-0.6,0.7-1,0.7C214.5,72.2,214.4,72,214.5,72z"/>
	<path class="st5" d="M227,46c-0.3,1-0.4,2.1-0.1,3.1c0.3,1,1.4,1.6,2.4,1.3c0,0,0.1,0,0.1,0c-0.3,1-0.5,2.1-0.4,3.2
		c0.1,1.1,0.6,2.1,1.4,2.8c0.8,0.7,2,0.9,3,0.5c1-0.5,1.5-1.6,1.2-2.7c1,0.5,2.2,0.2,2.7-0.8c0,0,0-0.1,0.1-0.1
		c0.4-1.1,0.2-2.2-0.5-3.1c1,0,1.9-0.8,2-1.8c0.1-1-0.2-2-0.8-2.8c-0.5-0.8-1.2-1.5-1.8-2.3s-1-1.5-1.8-1.8c-0.7-0.1-1.4,0-2,0.4
		c-2.1,1-4.1,2.2-5.9,3.6"/>
	<path class="st5" d="M237.8,39.7c0,0,4.6,0.5,5.2-2.5c1.7-8.1-9.5-11.5-9.5-11.5s-3.9-1-10.3-3.4c-2.5-0.9-4.8-2.1-7.1-3.4
		c-2.1-1.3-4.7-1.2-6.7,0.1c-3.7,2.4-7.6,4.4-11.8,5.8c0,0-4.4,1.1-4.3,6.8c0,2.6,4.4,4.6,4.4,4.6L237.8,39.7z"/>
	<path class="st10" d="M237.1,44.2l0.8-4.7c0,0-26.1-9.4-39.5-3.3v5.3L237.1,44.2z"/>
	<path class="st5" d="M191.3,44.9c0,0,3.2,2.6,10.3,3c12.9,0.7,33.9-3.8,33.9-3.8l-37.3-2.6L191.3,44.9z"/>
	<path class="st0" d="M215.7,28.4c0.2-0.1-0.1,5.9-0.1,5.9s-0.6,3.8-5.3,3.5c-2.5,0.1-4.6-1.9-4.6-4.4c0-0.2,0-0.4,0-0.6l0.3-4.4
		c1.8,0.6,3.8-0.2,4.8-1.9C210.7,26.5,212.9,30,215.7,28.4z"/>
	<path class="st10" d="M236.9,44.3c-0.4,0.1-0.7,0.2-1.1,0.2l-3,0.5c-2.6,0.4-6.1,1-10,1.6s-7.5,0.9-10.1,1.1
		c-1.3,0.1-2.4,0.1-3.1,0.1c-0.4,0-0.8,0-1.2,0c0.4-0.1,0.7-0.1,1.1-0.2l3.1-0.3c2.6-0.2,6.1-0.7,10-1.2s7.5-1.1,10-1.4
		c1.3-0.2,2.3-0.3,3.1-0.3C236.2,44.3,236.6,44.3,236.9,44.3z"/>
	<polygon class="st3" points="210.6,70.7 210.6,77.6 214.5,77.6 214.5,70.8 	"/>
	<path class="st11" d="M215.4,73.6c0,0-0.8,0.7-0.7,2.8s2.2,3.9,2.2,3.9V82l-6.5-7.4c0,0-0.6-1-1.6-0.7c-1.5,0.4-2.4,1.9-2,3.3
		c0.1,0.3,0.2,0.7,0.4,0.9c-1.1,0.4-1.8,1.6-1.7,2.8c0,0-2.7-0.9-2.7,2.2v1.8c-0.5-0.4-1.3-0.4-1.8,0c-0.9,0.8-0.7,3-0.4,4
		s7.6,11.3,9.9,12.4c1.4,0.6,2.6,1.5,3.8,2.5l5,6.1l9.3-8.8c0,0-5.7-5.6-6-6.7s0.7-4.5,0.6-5.8c-0.2-2.5-0.5-4.9-1-7.4
		C222,80.4,215.4,73.6,215.4,73.6z"/>
	<path class="st12" d="M219.5,110.1c-0.1-0.1-0.3-0.2-0.4-0.4l-1-1.2l-3.8-4.5l0,0c-0.6-0.5-1.2-1-1.9-1.4c-0.4-0.2-0.7-0.4-1.1-0.7
		c-0.4-0.2-0.8-0.4-1.2-0.7c-1.6-1.4-3-2.9-4.3-4.6c-1.4-1.8-2.9-3.7-4.3-5.8c-0.4-0.5-0.7-1.1-1-1.8c-0.2-0.7-0.2-1.3-0.2-2
		c0-0.7,0.2-1.5,0.6-2.1c0.3-0.3,0.7-0.5,1.1-0.5c0.4,0,0.8,0.1,1.1,0.4l-0.4,0.2v-1.5c0-0.5,0-1.1,0.2-1.6c0.2-0.6,0.6-1,1.1-1.2
		c0.6-0.2,1.1-0.2,1.7,0l-0.3,0.2c0-0.6,0.1-1.2,0.4-1.8c0.3-0.6,0.8-1,1.5-1.2l-0.2,0.4c-0.3-0.5-0.5-1.2-0.6-1.8
		c0-0.7,0.2-1.3,0.7-1.8c0.4-0.5,1-0.9,1.6-1.1c0.4-0.1,0.8-0.1,1.1,0.1c0.3,0.2,0.6,0.4,0.8,0.7l0,0l0.2,0.2
		c2.2,2.4,4.3,4.8,6.4,7.2l-0.5,0.2c0-0.6,0-1.2,0-1.8l0.1,0.2c-1-0.9-1.7-2-2.1-3.3c-0.2-0.6-0.2-1.3-0.1-1.9
		c0-0.7,0.3-1.3,0.8-1.8l0.1-0.2l0.2,0.2c1.7,1.7,3.3,3.4,4.7,5c0.7,0.8,1.4,1.6,2.1,2.5c0.1,0.3,0.2,0.5,0.3,0.8
		c0,0.2,0.1,0.5,0.1,0.8l0.2,1.5c0.1,1,0.2,2,0.3,2.9c0,0.5,0.1,0.9,0.1,1.4c0.1,0.5,0.1,0.9,0,1.4c-0.4,1.5-0.6,3.1-0.7,4.7
		c0.1,0.3,0.3,0.6,0.5,0.9c0.2,0.3,0.4,0.5,0.6,0.8c0.4,0.5,0.8,0.9,1.2,1.4l2,2.1l1.1,1.3c0.2,0.1,0.3,0.3,0.4,0.5
		c-0.2-0.1-0.3-0.3-0.5-0.4l-1.3-1.3c-0.5-0.6-1.2-1.2-2-2.1c-0.4-0.4-0.8-0.9-1.2-1.4c-0.2-0.2-0.4-0.5-0.6-0.8
		c-0.3-0.3-0.4-0.6-0.5-1c-0.1-1.5,0.4-3.1,0.6-4.8c0.1-0.9,0-1.8-0.1-2.6c-0.1-0.9-0.2-1.9-0.4-2.9c-0.1-0.5-0.1-1-0.2-1.5
		c0-0.2-0.1-0.5-0.1-0.8c0-0.2-0.1-0.5-0.2-0.7c-0.6-0.9-1.3-1.7-2-2.4c-1.5-1.6-3.1-3.3-4.8-5h0.3c-0.3,0.4-0.5,1-0.6,1.5
		c-0.1,0.6,0,1.2,0.1,1.8c0.4,1.2,1.1,2.2,2,3l0.1,0.1v0.1c0,0.6,0,1.2,0,1.8v0.7l-0.5-0.5l-6.4-7.2l-0.2-0.2l0,0l0,0
		c-0.2-0.5-0.8-0.7-1.3-0.6c-0.5,0.2-1,0.5-1.4,0.9c-0.4,0.4-0.6,0.9-0.5,1.5c0,0.5,0.2,1.1,0.5,1.5l0.1,0.3l-0.3,0.1
		c-0.5,0.2-0.9,0.5-1.2,1c-0.2,0.5-0.3,1-0.3,1.5v0.3l-0.3-0.1c-0.4-0.1-0.9-0.1-1.4,0c-0.4,0.2-0.7,0.5-0.8,0.9
		c-0.1,0.5-0.2,0.9-0.1,1.4v2l-0.4-0.3c-0.4-0.4-1.1-0.4-1.6,0c-0.4,0.5-0.5,1.1-0.5,1.8c0,0.6,0.1,1.3,0.2,1.9
		c0.3,0.6,0.6,1.1,0.9,1.6c1.4,2.1,2.8,4.1,4.2,5.8c1.2,1.7,2.6,3.2,4.2,4.6c0.2,0.1,0.4,0.2,0.6,0.4l0.6,0.3
		c0.4,0.2,0.8,0.4,1.1,0.7c0.7,0.4,1.3,0.9,1.9,1.5l0,0l3.7,4.6l1,1.2C219.3,109.8,219.4,109.9,219.5,110.1z"/>
	<path class="st12" d="M211.9,84c-1-0.8-1.9-1.8-2.6-2.8c-0.9-0.9-1.6-2-2.2-3.2c1,0.8,1.9,1.8,2.6,2.8
		C210.5,81.7,211.3,82.8,211.9,84z"/>
	<path class="st12" d="M208.4,85.3c-0.1,0.1-1-0.7-1.8-1.9c-0.5-0.7-0.9-1.6-0.9-2.4c0.1-0.1,0.6,1,1.4,2.2
		C207.6,83.8,208,84.5,208.4,85.3z"/>
	<path class="st12" d="M204.2,87.9c-0.1,0.1-0.6-0.5-1-1.3c-0.4-0.8-0.7-1.5-0.5-1.6s0.6,0.5,1,1.3S204.3,87.8,204.2,87.9z"/>
	<rect x="189.3" y="131.4" class="st5" width="17.9" height="3.9"/>
	<path class="st10" d="M182.5,189.6c0,0,0.6,14.2,32.5,13.1s44.6-13.1,44.6-13.1v14.9c0,0-34.5,13.7-58.4,10.3
		c-18.7-2.7-23-10.3-23-10.3L182.5,189.6z"/>
	<path class="st10" d="M203,223.4L203,223.4c-2.7,0-4.8-2.2-4.8-4.8v-20.1c0-2.7,2.2-4.8,4.8-4.8l0,0c2.7,0,4.8,2.2,4.8,4.8v20.1
		C207.9,221.3,205.7,223.4,203,223.4z"/>
	<path class="st5" d="M203,223.4c0.2-0.1,0.5-0.1,0.7-0.1c0.7-0.1,1.3-0.4,1.9-0.8c0.9-0.6,1.5-1.5,1.9-2.5c0.2-0.6,0.3-1.3,0.2-2
		c0-0.7,0-1.5,0-2.3c0-3.2,0-7,0-11.2c0-2.1,0-4.4,0-6.6c-0.2-2.5-2.5-4.4-5-4.1c-2.2,0.2-3.9,1.9-4.1,4.1c-0.1,2.2,0,4.5,0,6.6
		c0,4.2,0,8-0.1,11.2c0,0.8,0,1.6,0,2.3c-0.1,0.7,0,1.4,0.2,2c0.3,1,1,1.9,1.9,2.5c0.6,0.4,1.2,0.6,1.9,0.8c0.2,0,0.5,0.1,0.7,0.1
		c-0.2,0-0.5,0-0.7,0c-0.7-0.1-1.4-0.3-2-0.7c-0.9-0.6-1.6-1.5-2-2.6c-0.2-0.6-0.3-1.3-0.3-2c0-0.7,0-1.5,0-2.3c0-3.2,0-7-0.1-11.2
		c0-2.1,0-4.3,0-6.7c0.3-2.6,2.4-4.6,5.1-4.6c1.2,0,2.4,0.5,3.3,1.3c0.9,0.8,1.5,2,1.6,3.2c0,2.4,0,4.5,0,6.7c0,4.2,0,8-0.1,11.2
		c0,0.8,0,1.6,0,2.3c0,0.7-0.1,1.4-0.3,2c-0.4,1.1-1.1,2-2,2.6c-0.6,0.4-1.3,0.6-2,0.7C203.5,223.4,203.3,223.5,203,223.4z"/>
	<path class="st10" d="M203,201.2c-0.6,0.1-1.1,0.6-1.1,1.1c-0.1,0.6,0.3,1.1,0.9,1.3c0.6,0.1,1.3-0.3,1.4-0.9
		c0.1-0.7-0.3-1.3-1-1.5C203.2,201.2,203.1,201.2,203,201.2"/>
	<path class="st5" d="M203,201.2c0,0,0.1-0.1,0.3,0c0.3,0,0.6,0.2,0.8,0.4c0.3,0.4,0.4,0.9,0.3,1.3c-0.2,0.6-0.7,0.9-1.3,1
		c-0.6,0-1.2-0.3-1.4-0.9c-0.2-0.5-0.1-1,0.2-1.3C202.5,201.1,203,201.2,203,201.2c0,0.1-0.4,0.2-0.8,0.7c-0.2,0.3-0.2,0.6-0.1,0.9
		c0.1,0.4,0.5,0.6,0.9,0.6c0.4-0.1,0.7-0.3,0.9-0.6c0.1-0.3,0-0.7-0.1-0.9C203.5,201.3,203,201.3,203,201.2z"/>
	<path class="st10" d="M203,213.1c-0.6,0.1-1.1,0.5-1.2,1.1c-0.1,0.6,0.3,1.1,0.9,1.3c0.7,0.1,1.3-0.3,1.4-1c0.1-0.7-0.3-1.3-1-1.5
		C203.2,213.1,203.1,213.1,203,213.1"/>
	<path class="st5" d="M203,213.1c0,0,0.1-0.1,0.3,0c0.3,0,0.6,0.2,0.8,0.4c0.3,0.4,0.4,0.8,0.3,1.3c-0.2,0.6-0.7,0.9-1.3,1
		c-0.6,0-1.2-0.3-1.4-0.9c-0.2-0.5-0.1-1,0.2-1.3C202.6,213,203.1,213.1,203,213.1c0,0-0.4,0.1-0.7,0.7c-0.2,0.3-0.2,0.6-0.1,0.9
		c0.1,0.4,0.5,0.6,0.9,0.6c0.4-0.1,0.7-0.3,0.9-0.6c0.1-0.3,0-0.7-0.1-0.9C203.5,213.2,203,213.2,203,213.1z"/>
	<path class="st10" d="M190.5,222.5L190.5,222.5c-2.7,0-4.8-2.2-4.8-4.8v-20.1c0-2.7,2.2-4.8,4.8-4.8l0,0c2.7,0,4.8,2.2,4.8,4.8
		v20.1C195.3,220.3,193.1,222.5,190.5,222.5L190.5,222.5z"/>
	<path class="st5" d="M190.5,222.5c0,0,0.2,0,0.7-0.1c0.7-0.1,1.3-0.4,1.9-0.8c0.9-0.6,1.6-1.5,1.9-2.5c0.2-0.6,0.3-1.3,0.2-2
		c0-0.7,0-1.5,0-2.3c0-3.2,0-7,0-11.2c0-2.1,0-4.4,0-6.6c-0.2-2.5-2.5-4.4-5-4.1c-2.2,0.2-3.9,1.9-4.1,4.1c0,2.2,0,4.5,0,6.6
		c0,4.2,0,8-0.1,11.2c0,0.8,0,1.6,0,2.3c-0.1,0.7,0,1.4,0.2,2c0.3,1,1,1.9,1.9,2.5c0.6,0.4,1.2,0.6,1.9,0.8c0.5,0.1,0.7,0.1,0.7,0.1
		c-0.2,0-0.5,0-0.7,0c-0.7-0.1-1.4-0.3-2-0.7c-0.9-0.6-1.6-1.5-2-2.6c-0.2-0.7-0.3-1.4-0.3-2.1c0-0.7,0-1.5,0-2.3
		c0-3.2,0-7-0.1-11.2c0-2.1,0-4.3,0-6.7c0.1-1.2,0.7-2.4,1.6-3.2c2-1.8,5-1.8,6.9,0c0.9,0.8,1.5,2,1.6,3.2c0.1,2.4,0,4.5,0,6.7
		c0,4.2,0,8-0.1,11.2c0,0.8,0,1.6,0,2.3c0,0.7-0.1,1.4-0.3,2.1c-0.4,1.1-1.1,2-2,2.6c-0.6,0.4-1.3,0.6-2,0.7
		C191.1,222.5,190.8,222.5,190.5,222.5z"/>
	<path class="st10" d="M190.5,201.2c-0.6,0.1-1.1,0.6-1.1,1.1c-0.1,0.6,0.3,1.1,0.9,1.3c0.6,0.1,1.3-0.3,1.4-0.9
		c0.1-0.7-0.3-1.3-1-1.5C190.6,201.2,190.5,201.2,190.5,201.2"/>
	<path class="st5" d="M190.5,201.2c0,0,0.1-0.1,0.3,0c0.3,0,0.6,0.2,0.8,0.4c0.3,0.4,0.4,0.9,0.3,1.3c-0.2,0.6-0.7,0.9-1.3,1
		c-0.6,0-1.2-0.3-1.4-0.9c-0.2-0.5-0.1-1,0.2-1.3C189.9,201.1,190.5,201.2,190.5,201.2c0,0.1-0.4,0.2-0.8,0.7
		c-0.2,0.3-0.2,0.6-0.1,0.9c0.1,0.4,0.5,0.6,0.9,0.6c0.4-0.1,0.7-0.3,0.9-0.6c0.1-0.3,0-0.7-0.1-0.9
		C190.9,201.3,190.4,201.3,190.5,201.2z"/>
	<path class="st10" d="M185.5,206.7c3,2,6.8,2.3,10,0.8"/>
	<path class="st5" d="M195.4,207.4c-0.4,0.3-0.9,0.6-1.4,0.7c-2.4,0.8-5.1,0.6-7.4-0.6c-0.9-0.5-1.3-0.9-1.2-0.9
		c1.6,0.7,3.2,1.2,4.9,1.4C192,208.1,193.8,207.9,195.4,207.4z"/>
	<path class="st10" d="M258.5,212.7L258.5,212.7c-2.7,0-4.8-2.2-4.8-4.8v-20.1c0-2.7,2.1-4.9,4.8-4.9c0,0,0,0,0,0l0,0
		c2.7,0,4.8,2.2,4.8,4.8v20.2C263.3,210.5,261.2,212.7,258.5,212.7C258.5,212.7,258.5,212.7,258.5,212.7z"/>
	<path class="st5" d="M258.5,212.7c0.2,0,0.5-0.1,0.7-0.1c0.7-0.1,1.3-0.4,1.9-0.8c0.9-0.6,1.5-1.5,1.9-2.5c0.2-0.6,0.3-1.3,0.2-2
		c0-0.7,0-1.5,0-2.3c0-3.2,0-7,0-11.2c0-2.1,0-4.4,0-6.6c-0.2-2.5-2.5-4.4-5-4.1c-2.2,0.2-3.9,1.9-4.1,4.1c0,2.2,0,4.5,0,6.6
		c0,4.2,0,8-0.1,11.2c0,0.8,0,1.6,0,2.3c0,0.7,0,1.4,0.2,2c0.3,1,1,1.9,1.9,2.5c0.6,0.4,1.2,0.6,1.9,0.8c0.2,0,0.5,0.1,0.7,0.1
		c-0.2,0-0.5,0-0.7,0c-0.7-0.1-1.4-0.3-2-0.7c-0.9-0.6-1.6-1.5-2-2.6c-0.2-0.6-0.3-1.3-0.3-2c0-0.7,0-1.5,0-2.3c0-3.2,0-7,0-11.2
		c0-2.1,0-4.3,0-6.7c0.3-2.8,2.8-4.8,5.6-4.5c2.4,0.3,4.3,2.1,4.5,4.5c0,2.4,0,4.5,0,6.7c0,4.2,0,8-0.1,11.2c0,0.8,0,1.6,0,2.3
		c0,0.7-0.1,1.4-0.3,2c-0.4,1.1-1.1,2-2,2.6c-0.6,0.4-1.3,0.6-2,0.7C259,212.7,258.7,212.7,258.5,212.7z"/>
	<path class="st10" d="M258.5,190.4c-0.6,0.1-1.1,0.5-1.1,1.1c-0.1,0.6,0.3,1.1,0.9,1.3c0.6,0.1,1.3-0.3,1.4-0.9
		c0.1-0.7-0.3-1.3-1-1.5C258.6,190.5,258.5,190.5,258.5,190.4"/>
	<path class="st5" d="M258.5,190.4c0,0,0.1-0.1,0.3,0c0.3,0,0.6,0.2,0.8,0.4c0.3,0.4,0.4,0.9,0.3,1.3c-0.2,0.6-0.7,0.9-1.3,1
		c-0.6,0-1.2-0.3-1.4-0.9c-0.2-0.5-0.1-1,0.2-1.3C257.9,190.3,258.5,190.4,258.5,190.4c0,0.1-0.4,0.2-0.8,0.7
		c-0.2,0.3-0.2,0.6-0.1,0.9c0.1,0.4,0.5,0.6,0.9,0.6c0.4-0.1,0.7-0.3,0.9-0.6c0.1-0.3,0-0.7-0.1-0.9
		C258.9,190.6,258.5,190.6,258.5,190.4z"/>
	<path class="st10" d="M258.5,202.4c-0.6,0.1-1,0.5-1.1,1.1c-0.1,0.6,0.3,1.2,0.9,1.3c0.7,0.1,1.3-0.4,1.4-1c0.1-0.7-0.3-1.3-1-1.5
		C258.6,202.3,258.5,202.3,258.5,202.4"/>
	<path class="st5" d="M258.5,202.4c0,0,0.1-0.1,0.3,0c0.3,0,0.6,0.2,0.8,0.4c0.3,0.4,0.4,0.9,0.3,1.3c-0.2,0.6-0.7,0.9-1.3,1
		c-0.6,0-1.2-0.3-1.4-0.9c-0.1-0.5,0-1,0.3-1.4C258,202.2,258.5,202.3,258.5,202.4c0,0.1-0.4,0.2-0.7,0.7c-0.2,0.3-0.2,0.6-0.1,0.9
		c0.1,0.4,0.5,0.6,0.9,0.6c0.4-0.1,0.7-0.3,0.9-0.6c0.1-0.3,0-0.7-0.1-0.9C259,202.5,258.5,202.5,258.5,202.4z"/>
	<path class="st10" d="M245.5,217.3L245.5,217.3c-2.7,0-4.8-2.2-4.8-4.8v-20.1c0-2.7,2.2-4.8,4.8-4.8l0,0c2.7,0,4.8,2.2,4.8,4.8
		c0,0,0,0,0,0v20.1C250.3,215.2,248.1,217.3,245.5,217.3C245.5,217.3,245.5,217.3,245.5,217.3z"/>
	<path class="st5" d="M245.5,217.3c0,0,0.2,0,0.7-0.1c0.7-0.1,1.3-0.4,1.9-0.8c0.9-0.6,1.6-1.5,1.9-2.5c0.2-0.6,0.3-1.3,0.2-2
		c0-0.7,0-1.5,0-2.3c0-3.2,0-7-0.1-11.2c0-2.1,0-4.4,0-6.6c-0.3-2.3-2.3-4.1-4.6-4c-1.2,0-2.3,0.4-3.1,1.2c-0.8,0.8-1.3,1.8-1.5,2.9
		c0,2.2,0,4.5,0,6.6c0,4.2,0,8,0,11.2c0,0.8,0,1.6,0,2.3c-0.1,0.7,0,1.4,0.2,2c0.3,1,1,1.9,1.9,2.5c0.6,0.4,1.2,0.6,1.9,0.8
		C245.3,217.4,245.5,217.4,245.5,217.3c-0.2,0.1-0.4,0.1-0.7,0.1c-0.7-0.1-1.4-0.3-2-0.7c-0.9-0.6-1.6-1.5-2-2.6
		c-0.2-0.7-0.3-1.4-0.3-2.1c0-0.7,0-1.5,0-2.3c0-3.2,0-7-0.1-11.2c0-2.1,0-4.3,0-6.7c0.3-2.6,2.5-4.6,5.1-4.6c1.3,0,2.5,0.5,3.5,1.4
		c0.8,0.8,1.4,1.9,1.5,3.1c0,2.4,0,4.5,0,6.7c0,4.2,0,8,0,11.2c0,0.8,0,1.6,0,2.3c0,0.7-0.1,1.4-0.3,2.1c-0.4,1.1-1.1,2-2,2.6
		c-0.6,0.4-1.3,0.6-2,0.7C245.9,217.3,245.7,217.4,245.5,217.3z"/>
	<path class="st10" d="M245.4,196.1c-0.6,0.1-1.1,0.5-1.2,1.1c-0.1,0.6,0.3,1.1,0.9,1.3c0.7,0.1,1.3-0.3,1.5-1
		c0.1-0.7-0.3-1.3-1-1.5C245.5,196,245.5,196,245.4,196.1"/>
	<path class="st5" d="M245.4,196.1c0,0,0.1-0.1,0.3,0c0.3,0,0.6,0.2,0.8,0.4c0.3,0.4,0.4,0.9,0.3,1.3c-0.2,0.6-0.7,0.9-1.3,1
		c-0.6,0-1.2-0.3-1.4-0.9c-0.2-0.5-0.1-1,0.2-1.3C244.9,196,245.4,196.1,245.4,196.1c0,0.1-0.4,0.2-0.8,0.7
		c-0.2,0.3-0.2,0.6-0.1,0.9c0.1,0.4,0.5,0.6,0.9,0.6c0.4-0.1,0.7-0.3,0.9-0.6c0.1-0.3,0-0.7-0.1-0.9
		C245.9,196.2,245.4,196.2,245.4,196.1z"/>
	<path class="st10" d="M240.4,201.5c3,2,6.8,2.3,10,0.8"/>
	<path class="st5" d="M250.4,202.3c-0.4,0.3-0.9,0.6-1.4,0.7c-2.4,0.8-5.1,0.6-7.4-0.6c-0.9-0.5-1.3-0.9-1.2-0.9
		c1.6,0.7,3.2,1.2,4.9,1.4C247,203,248.7,202.8,250.4,202.3z"/>
	<path class="st10" d="M178.4,228.9L178.4,228.9c-2.8,0-5-2.3-4.9-5.1c0,0,0,0,0,0l0.6-36.6c0-2.8,2.3-5,5.1-4.9c0,0,0,0,0,0l0,0
		c2.8,0,5,2.3,4.9,5.1c0,0,0,0,0,0l-0.6,36.6C183.4,226.8,181.2,229,178.4,228.9C178.4,228.9,178.4,228.9,178.4,228.9z"/>
	<path class="st5" d="M178.4,228.9c0,0,0.4,0,1-0.1c1-0.2,1.9-0.7,2.6-1.5c0.5-0.5,0.9-1.2,1.1-1.8c0.2-0.8,0.3-1.7,0.2-2.5
		c0-1.9,0-4,0.1-6.4c0.1-4.8,0.1-10.4,0.2-16.6c0-3.1,0.1-6.4,0.1-9.8c0-0.9,0-1.7,0-2.6c0-0.8-0.2-1.7-0.6-2.4
		c-1.2-2.3-4.1-3.2-6.4-2c-0.8,0.4-1.5,1.1-1.9,1.9c-0.4,0.7-0.6,1.5-0.6,2.4c0,0.9,0,1.7,0,2.6c-0.1,3.4-0.1,6.7-0.2,9.8
		c-0.1,6.2-0.2,11.9-0.3,16.6c0,2.4-0.1,4.5-0.1,6.4c-0.1,0.9,0,1.7,0.2,2.6c0.2,0.7,0.5,1.3,1,1.9c0.7,0.8,1.5,1.3,2.5,1.5
		c0.7,0.2,1,0.1,1,0.2c-0.4,0-0.7,0-1.1-0.1c-1-0.2-1.9-0.7-2.6-1.5c-0.5-0.6-0.9-1.2-1.1-1.9c-0.2-0.9-0.3-1.8-0.2-2.6
		c0-1.9,0-4,0.1-6.4c0-4.8,0.1-10.4,0.2-16.6c0-3.1,0.1-6.4,0.1-9.8v-2.6c0-0.9,0.2-1.8,0.7-2.6c1.4-2.5,4.7-3.4,7.2-2
		c0.9,0.5,1.6,1.2,2.1,2.1c0.4,0.8,0.6,1.7,0.6,2.6c0,0.9,0,1.7,0,2.6c-0.1,3.4-0.1,6.7-0.2,9.8c-0.1,6.2-0.2,11.9-0.3,16.6
		c-0.1,2.4-0.1,4.5-0.1,6.4c0,0.9-0.1,1.8-0.3,2.6c-0.2,0.7-0.7,1.4-1.2,1.9c-0.7,0.7-1.7,1.2-2.7,1.4
		C179,228.9,178.7,229,178.4,228.9z"/>
	<path class="st5" d="M214.8,202l0.9,13.5c0.1,0.9,0.9,1.6,1.8,1.6l9.4-0.6c0.9-0.1,1.6-0.9,1.6-1.8l-0.9-13.5
		c-0.1-0.9-0.9-1.6-1.8-1.6l-9.4,0.6C215.4,200.3,214.7,201.1,214.8,202z M224.9,214.7l-6,0.4c-0.9,0.1-1.7-0.6-1.8-1.5c0,0,0,0,0,0
		l-0.6-9.5c-0.1-0.9,0.6-1.7,1.6-1.8l6-0.4c0.9-0.1,1.7,0.6,1.8,1.6l0.6,9.5C226.5,213.9,225.8,214.7,224.9,214.7L224.9,214.7z"/>
	<path class="st5" d="M230.7,206.6c-1.5-0.5-3-0.7-4.6-0.7c-1.5,0.2-3.1,0.5-4.5,1.1c0,0,0.4-0.4,1.2-0.8c1-0.5,2.2-0.8,3.3-0.9
		c1.1-0.1,2.3,0.1,3.4,0.5C230.3,206.2,230.7,206.6,230.7,206.6z"/>
	<path class="st5" d="M231,210.1c-2.9-1.1-6.1-0.9-8.8,0.6c0,0,0.3-0.4,1.1-0.9c2-1.1,4.4-1.3,6.5-0.5
		C230.6,209.7,231,210.1,231,210.1z"/>
</g>
<g id="error-403--inject-36">
	
		<rect x="377.3" y="23.4" transform="matrix(0.9957 -9.271816e-02 9.271816e-02 0.9957 -9.7236 45.1532)" class="st6" width="207.6" height="207.6"/>
	<path class="st5" d="M594.1,221c0,0,0-0.3-0.1-1s-0.2-1.6-0.3-2.9c-0.2-2.5-0.6-6.2-1.1-11.1c-0.9-9.7-2.3-23.9-4-42
		c-3.4-36.2-8.3-87.8-14.1-149.7l0.3,0.3L368.2,33.8l0,0l0.3-0.4l19.2,206.7l-0.3-0.3l149.8-13.8l42-3.8l11.1-1l2.8-0.2L594.1,221
		l-0.9,0.1l-2.8,0.3l-11,1.1l-42,4l-149.9,14.1h-0.3v-0.3c-5.6-60.1-12.2-131-19.3-206.7v-0.3h0.3l0,0L574.8,14h0.3v0.3
		c5.7,62,10.5,113.7,13.8,150c1.7,18.1,2.9,32.3,3.8,42c0.4,4.8,0.8,8.5,1,11c0.1,1.2,0.2,2.2,0.2,2.8S594.1,221,594.1,221z"/>
	
		<rect x="378.2" y="19.8" transform="matrix(0.9957 -9.271816e-02 9.271816e-02 0.9957 -1.212 35.619)" class="st0" width="9.1" height="22.1"/>
	
		<rect x="397.4" y="226.6" transform="matrix(0.9957 -9.271816e-02 9.271816e-02 0.9957 -20.3062 38.2963)" class="st0" width="9.1" height="22.1"/>
	
		<rect x="559.2" y="2.9" transform="matrix(0.9957 -9.271816e-02 9.271816e-02 0.9957 1.1322 52.3309)" class="st0" width="9.1" height="22.1"/>
	
		<rect x="578.6" y="211.2" transform="matrix(0.9957 -9.271816e-02 9.271816e-02 0.9957 -18.0944 55.0254)" class="st0" width="9.1" height="22.1"/>
	
		<ellipse transform="matrix(0.7071 -0.7071 0.7071 0.7071 78.6845 362.821)" class="st6" cx="477.3" cy="86.4" rx="45.4" ry="45.4"/>
	<path class="st3" d="M477.2,132.5c-25.4-0.1-46-20.7-45.9-46.1s20.7-46,46.1-45.9c23.7,0,43.5,18.1,45.7,41.7l0,0
		c2.3,25.3-16.3,47.7-41.6,50.1C480.1,132.4,478.7,132.5,477.2,132.5z M477.3,41.6c-1.4,0-2.8,0.1-4.2,0.2
		c-24.6,2.3-42.6,24.1-40.3,48.7c2.3,24.6,24.1,42.6,48.7,40.3c24.6-2.3,42.6-24.1,40.3-48.7C519.7,59.1,500.4,41.6,477.3,41.6z"/>
	<path class="st3" d="M498.4,81.2c-1-1.5-3-1.9-4.4-0.9c-0.3,0.2-0.5,0.4-0.7,0.6c-0.6,1-1.1,2-1.4,3.1c-0.9,2.8-1.7,5.5-2.5,8.3
		c-0.1,0.3-0.4,0.5-0.7,0.8c-0.2-0.3-0.5-0.6-0.5-0.9c-0.2-1.6-0.4-3.2-0.5-4.7c-0.3-3.1-0.5-6.2-0.8-9.3c-0.5-5.2-1-10.4-1.5-15.7
		c-0.1-0.6-0.3-1.2-0.7-1.6c-0.9-0.9-2.3-1.2-3.5-0.6c-1.1,0.6-1.7,1.8-1.6,3c0.5,5.5,1,11.1,1.5,16.6c0,0.3,0,0.5,0,0.8
		c-0.1,0.2-0.3,0.5-0.5,0.5c-0.2,0-0.4-0.2-0.6-0.4c-0.1-0.2-0.1-0.5-0.1-0.8L478,60.7c0-0.4-0.1-0.8-0.1-1.2c-0.1-1-1-1.8-2-1.9
		c-1.6-0.4-3.2,0.5-3.7,2.1c-0.1,0.4-0.1,0.9-0.1,1.3c0.6,6.3,1.2,12.7,1.8,19c0,0.4,0,0.7,0,1.1c-0.1,0.2-0.2,0.4-0.5,0.5
		c-0.2,0-0.5-0.2-0.6-0.4c-0.1-0.3-0.2-0.7-0.2-1c-0.5-5.1-0.9-10.2-1.4-15.2c-0.2-1.6-1.7-2.7-3.3-2.5c-1.5,0.2-2.6,1.5-2.5,3.1
		c0.5,5.4,1,10.8,1.5,16.2c0.1,0.3,0.1,0.7,0.1,1c-0.1,0.3-0.3,0.6-0.5,0.8c-0.2-0.2-0.6-0.5-0.7-0.7c-0.2-1.9-0.4-3.9-0.5-5.9
		s-0.4-4.2-0.6-6.2c-0.2-1.5-1.5-2.6-3-2.4c-0.1,0-0.2,0-0.2,0c-1.4,0.1-2.5,1.3-2.4,2.7c0,0.1,0,0.1,0,0.2
		c0.3,4.1,0.5,8.1,0.8,12.2l0,0c0.2,2.5,0.4,5,0.5,7.4c0.1,5,1.3,9.8,3.3,14.4c1.8,4.2,5.5,7.1,10,7.9c4.9,0.9,10-0.1,14.1-2.8
		c2.9-1.7,5.1-4.5,6-7.7c1.7-6.3,3.2-12.6,4.7-18.9C498.8,82.9,498.8,82,498.4,81.2z"/>
	<path class="st5" d="M433.5,200.4l0.1,1.5l-8.6,0.8l-1.1-11.9l8.4-0.8l0.1,1.5l-6.7,0.6l0.3,3.6l6-0.6l0.1,1.4l-6,0.6l0.4,3.8
		L433.5,200.4z"/>
	<path class="st5" d="M440.1,192.2l0.1,1.6h-0.4c-1.7,0.2-2.7,1.3-2.5,3.3l0.4,4.5l-1.6,0.1l-0.8-9l1.6-0.1l0.1,1.5
		C437.6,192.9,438.8,192.1,440.1,192.2z"/>
	<path class="st5" d="M447,191.5l0.1,1.6h-0.4c-1.8,0.2-2.7,1.3-2.5,3.3l0.4,4.5L443,201l-0.8-9l1.6-0.1l0.1,1.5
		C444.4,192.2,445.6,191.5,447,191.5z"/>
	<path class="st5" d="M448.5,196c-0.3-2.6,1.6-4.9,4.2-5.2s4.9,1.6,5.2,4.2s-1.6,4.9-4.2,5.2c0,0-0.1,0-0.1,0
		c-2.5,0.3-4.7-1.4-5.1-3.8C448.5,196.2,448.5,196.1,448.5,196z M456.2,195.3c-0.3-1.6-1.8-2.8-3.4-2.5c-1.6,0.3-2.8,1.8-2.5,3.4
		c0.2,1.6,1.6,2.7,3.2,2.5c1.7-0.1,2.9-1.6,2.7-3.2C456.2,195.4,456.2,195.4,456.2,195.3L456.2,195.3z"/>
	<path class="st5" d="M464.5,189.9l0.1,1.6h-0.4c-1.7,0.2-2.7,1.3-2.5,3.3l0.4,4.5l-1.6,0.1l-0.8-9l1.6-0.1l0.1,1.5
		C461.9,190.6,463.1,189.9,464.5,189.9z"/>
	<path class="st5" d="M473,187.8l0.4,4.1l6-0.6l0.1,1.5l-6,0.6l0.5,4.8l-1.7,0.2l-1.1-11.9l8.4-0.8l0.1,1.5L473,187.8z"/>
	<path class="st5" d="M481.2,192.9c-0.3-2.6,1.6-4.9,4.2-5.2s4.9,1.6,5.2,4.2c0.3,2.6-1.6,4.9-4.2,5.2c0,0,0,0-0.1,0
		c-2.5,0.3-4.7-1.4-5.1-3.8C481.3,193.2,481.2,193.1,481.2,192.9z M488.9,192.2c-0.3-1.6-1.8-2.8-3.4-2.5s-2.8,1.8-2.5,3.4
		c0.2,1.6,1.6,2.7,3.2,2.5c1.7-0.1,2.9-1.6,2.8-3.2C489,192.4,489,192.3,488.9,192.2L488.9,192.2z"/>
	<path class="st5" d="M497.2,186.8l0.2,1.6H497c-1.7,0.2-2.7,1.3-2.5,3.3l0.4,4.5l-1.6,0.1l-0.8-9l1.6-0.1l0.1,1.5
		C494.7,187.5,495.9,186.8,497.2,186.8z"/>
	<path class="st5" d="M509,190.4c0.3,2.4-1.3,4.6-3.7,5c-0.1,0-0.3,0-0.4,0c-1.2,0.2-2.5-0.3-3.3-1.2l0.1,1.4l-1.6,0.1l-1.2-12.6
		l1.6-0.1l0.5,5c0.7-1,1.8-1.7,3-1.7c2.4-0.3,4.6,1.3,4.9,3.7C509,190.1,509,190.2,509,190.4z M507.3,190.5
		c-0.3-1.6-1.8-2.8-3.4-2.5c-1.6,0.3-2.8,1.8-2.5,3.4c0.2,1.5,1.6,2.7,3.2,2.5c1.7-0.1,2.9-1.6,2.8-3.2
		C507.4,190.7,507.3,190.6,507.3,190.5z"/>
	<path class="st5" d="M510.3,182.9c-0.1-0.6,0.4-1.1,1-1.2c0,0,0,0,0,0c0.6-0.1,1.1,0.3,1.2,0.9c0,0,0,0,0,0
		c0.1,0.6-0.4,1.1-0.9,1.2c0,0,0,0-0.1,0C510.9,183.9,510.4,183.5,510.3,182.9C510.3,182.9,510.3,182.9,510.3,182.9z M510.8,185.7
		l1.6-0.1l0.8,9l-1.6,0.1L510.8,185.7z"/>
	<path class="st5" d="M523.7,180.8l1.2,12.6l-1.6,0.1l-0.1-1.4c-0.7,1.1-1.8,1.8-3.1,1.8c-2.5,0.2-4.8-1.6-5-4.2
		c-0.2-2.5,1.6-4.8,4.2-5c1.2-0.2,2.4,0.3,3.3,1.1l-0.5-5L523.7,180.8z M522.8,189.1c-0.3-1.6-1.8-2.8-3.4-2.5
		c-1.6,0.3-2.8,1.8-2.5,3.4c0.2,1.5,1.6,2.6,3.2,2.5c1.7-0.1,2.9-1.6,2.7-3.2C522.9,189.2,522.8,189.1,522.8,189.1z"/>
	<path class="st5" d="M535.2,179.8l1.2,12.6l-1.6,0.1l-0.1-1.4c-0.7,1.1-1.8,1.8-3.1,1.8c-2.5,0.2-4.8-1.7-5-4.2
		c-0.2-2.5,1.6-4.7,4.1-5c1.2-0.2,2.4,0.3,3.3,1.1l-0.5-4.9L535.2,179.8z M534.4,188c-0.3-1.6-1.8-2.8-3.4-2.5s-2.8,1.8-2.5,3.4
		c0.2,1.6,1.6,2.7,3.2,2.5c1.7-0.1,2.9-1.6,2.8-3.2C534.4,188.1,534.4,188.1,534.4,188z"/>
	<path class="st5" d="M547.2,187.4l-7.3,0.7c0.3,1.6,1.9,2.6,3.5,2.3c1-0.1,1.9-0.5,2.5-1.3l1,1c-1.7,2.1-4.8,2.4-6.9,0.7
		c-0.9-0.8-1.6-1.9-1.7-3.1c-0.3-2.4,1.4-4.6,3.8-5c0.1,0,0.2,0,0.3,0c2.4-0.3,4.6,1.4,4.8,3.8c0,0.1,0,0.3,0,0.4
		C547.2,187,547.2,187.2,547.2,187.4z M539.8,186.9l5.8-0.5c-0.3-1.6-1.9-2.6-3.5-2.2C540.8,184.4,539.9,185.5,539.8,186.9z"/>
	<path class="st5" d="M557.9,185.1l0.5,5.2l-1.6,0.2l-0.5-5c-0.2-1.8-1.1-2.6-2.7-2.4c-1.5,0-2.7,1.2-2.6,2.7c0,0.2,0,0.4,0.1,0.5
		l0.4,4.6l-1.6,0.1l-0.8-9l1.6-0.1l0.1,1.4c0.7-1.1,1.9-1.7,3.1-1.7C556,181.4,557.7,182.5,557.9,185.1z"/>
	<path class="st5" d="M464.7,171l-6.7,0.6l0.8,8.6l-6.8,0.6l-0.8-8.6l-20.7,1.9l-0.5-4.9l16.4-26.1l7.5-0.7l-15.4,24.9l12.4-1.2
		l-0.7-7.6l6.6-0.6l0.7,7.6l6.7-0.6L464.7,171z"/>
	<path class="st5" d="M466.7,160.4c-1.1-12.4,5-20.1,14-20.9s16.5,5.6,17.6,18s-5,20.1-14,20.9S467.8,172.8,466.7,160.4z
		 M491.2,158.2c-0.8-9.1-4.8-13-10-12.5s-8.3,5-7.5,14.2s4.8,13,9.9,12.5S492.1,167.3,491.2,158.2z"/>
	<path class="st5" d="M530,162.2c0.6,6.4-3.7,12.3-13.9,13.3c-5.3,0.5-10.8-0.6-14.6-3.1l2.5-5.7c3.4,2.2,7.4,3.1,11.4,2.7
		c5-0.5,7.8-3,7.5-6.5s-3-5.4-8.7-4.9l-3.5,0.3l-0.5-4.8l7.6-11l-17.2,1.6l-0.5-5.9l25.8-2.4l0.4,4.7l-8.2,11.8
		C525.5,152.6,529.5,156.5,530,162.2z"/>
</g>
</svg>
