<?xml version="1.0" encoding="utf-8"?>
<!-- Generator: Adobe Illustrator 24.1.3, SVG Export Plug-In . SVG Version: 6.00 Build 0)  -->
<svg version="1.1" id="Layer_1" xmlns="http://www.w3.org/2000/svg" xmlns:xlink="http://www.w3.org/1999/xlink" x="0px" y="0px"
	 viewBox="0 0 677.4 420.8" style="enable-background:new 0 0 677.4 420.8;" xml:space="preserve">
<style type="text/css">
	.st0{fill:#EBEBEB;}
	.st1{fill:#E0E0E0;}
	.st2{fill:#0061F2;}
	.st3{opacity:0.8;}
	.st4{fill:#FFFFFF;}
	.st5{opacity:0.8;fill:#FFFFFF;enable-background:new    ;}
	.st6{opacity:0.4;}
	.st7{fill:#455A64;}
	.st8{fill:#263238;}
	.st9{fill:#FFBE9D;}
	.st10{fill:#EB996E;}
	.st11{opacity:0.3;}
</style>
<g id="background-complete--inject-2">
	<path class="st0" d="M433.6,408c8-4.5,18.2-1.6,22.7,6.4c1.1,2,1.8,4.2,2,6.4C448.2,420.8,438.4,418.5,433.6,408"/>
	<path class="st0" d="M445.4,397.6c11.3,3.7,23.5-2.4,27.2-13.8c0.9-2.8,1.3-5.8,1-8.7C460.7,377.7,448.7,383.2,445.4,397.6"/>
	<path class="st1" d="M401.4,414.7c0.2-0.1,0.4-0.2,0.6-0.2l1.9-0.6c1.6-0.5,3.9-1.3,6.8-2.3c5.7-2,13.5-4.8,22-8.5
		c4.2-1.9,8.2-3.7,11.7-5.5s6.7-3.6,9.2-5.1c2-1.2,4-2.6,5.9-4c1.3-1,2-1.7,2-1.7c-0.1,0.2-0.3,0.4-0.5,0.5
		c-0.5,0.5-0.9,0.9-1.4,1.3c-1.8,1.5-3.8,2.9-5.8,4.2c-2.5,1.6-5.7,3.4-9.2,5.3s-7.5,3.7-11.8,5.6c-8.5,3.7-16.3,6.5-22.1,8.4
		c-2.9,1-5.2,1.6-6.8,2.1l-1.9,0.5C401.9,414.7,401.7,414.7,401.4,414.7z"/>
	<path class="st1" d="M446.6,413.9c0,0.1-1.2-0.7-3.2-1.8c-2.6-1.4-5.4-2.5-8.3-3.3c-2.9-0.8-5.8-1.2-8.8-1.4
		c-2.3-0.1-3.7,0-3.7-0.1c0.3-0.1,0.7-0.1,1-0.2c0.9-0.1,1.8-0.1,2.7-0.1c6.1,0,12,1.7,17.3,4.7c0.8,0.5,1.6,1,2.3,1.5
		C446.2,413.4,446.4,413.6,446.6,413.9z"/>
	<path class="st0" d="M208.4,368.9c-4.1,10.9,1.4,23,12.3,27c2.7,1,5.5,1.5,8.4,1.3C227.1,384.7,222.3,372.7,208.4,368.9"/>
	<path class="st1" d="M206.4,362.7c0.1,0,0.4,1.4,1.1,3.6c0.9,2.9,2.1,5.6,3.6,8.3c1.4,2.6,3.1,5.2,4.9,7.5c1.4,1.8,2.4,2.9,2.3,2.9
		c-0.3-0.2-0.5-0.4-0.8-0.7c-0.5-0.5-1.1-1.1-1.9-2c-3.9-4.7-6.8-10.1-8.6-15.9c-0.3-1.1-0.6-2-0.7-2.7
		C206.4,363.4,206.4,363.1,206.4,362.7z"/>
	<path class="st0" d="M8.5,116.6c-6.3,16.8,2.2,35.6,19,41.9c4.2,1.6,8.6,2.3,13.1,2C37.6,141,30.2,122.5,8.5,116.6"/>
	<path class="st1" d="M5.5,107c0.2,0.5,0.4,1,0.5,1.5c0.3,1,0.7,2.4,1.2,4.1c1.5,4.4,3.3,8.7,5.5,12.9c2.2,4.1,4.8,8,7.7,11.7
		c1.1,1.4,2,2.5,2.7,3.3c0.4,0.4,0.7,0.8,1,1.2c-0.4-0.3-0.8-0.7-1.1-1.1c-0.7-0.7-1.7-1.8-2.8-3.2c-6-7.2-10.5-15.6-13.2-24.7
		c-0.5-1.7-0.9-3.1-1.1-4.1C5.6,108.1,5.5,107.5,5.5,107z"/>
	<path class="st0" d="M42.3,315.6c-9,7.3-10.5,20.5-3.2,29.5c1.8,2.2,4,4.1,6.6,5.4C50.5,338.8,52.4,326,42.3,315.6"/>
	<path class="st1" d="M43.8,309.3c0.1,0-0.3,1.4-0.8,3.7c-1.3,5.9-1.5,12-0.8,17.9c0.3,2.3,0.6,3.7,0.5,3.7c-0.1-0.3-0.2-0.7-0.3-1
		c-0.2-0.6-0.4-1.5-0.6-2.7c-1-6-0.7-12.2,0.8-18.1c0.3-1.1,0.6-2,0.8-2.6C43.5,309.9,43.6,309.6,43.8,309.3z"/>
	<path class="st0" d="M227.9,62.8c10.4,5.2,23,0.9,28.2-9.4c1.3-2.6,2-5.4,2.2-8.2C245.5,45.7,233.1,49.3,227.9,62.8"/>
	<path class="st1" d="M221.5,64.1c0-0.1,1.4-0.3,3.7-0.8c5.9-1.3,11.5-3.6,16.6-6.8c2-1.2,3.1-2.1,3.2-2c-0.2,0.3-0.5,0.5-0.7,0.7
		c-0.5,0.4-1.3,1-2.2,1.6c-5,3.4-10.7,5.8-16.7,6.9c-1.1,0.2-2.1,0.3-2.7,0.4C222.2,64.2,221.9,64.2,221.5,64.1z"/>
	<path class="st0" d="M202,60.9c15-3.2,24.5-17.9,21.3-32.9c-0.8-3.7-2.3-7.2-4.5-10.3C206.1,28.9,196.3,42.8,202,60.9"/>
	<path class="st1" d="M196.5,67.5c0.2-0.4,0.5-0.7,0.8-1c0.6-0.6,1.4-1.6,2.3-2.8c5-6.2,8.9-13.2,11.5-20.7c0.5-1.4,0.9-2.6,1.1-3.4
		c0.1-0.4,0.2-0.9,0.4-1.3c0,0.4-0.1,0.9-0.2,1.3c-0.2,0.8-0.5,2-1,3.5c-2.4,7.7-6.3,14.7-11.6,20.8c-1,1.2-1.9,2.1-2.5,2.7
		C197.2,67,196.9,67.3,196.5,67.5z"/>
	<path class="st0" d="M284,403.5c3.2,6.2,10.8,8.7,17,5.6c1.5-0.8,2.9-1.9,4-3.2C298.6,401.6,291.4,398.9,284,403.5"/>
	<path class="st1" d="M280.5,401.9c2.3,1,4.7,1.9,7.2,2.6c2.5,0.6,5,0.9,7.6,1.1c-0.7,0.2-1.5,0.2-2.3,0.1c-3.7-0.1-7.3-1-10.6-2.7
		C281.7,402.8,281,402.4,280.5,401.9z"/>
	<path class="st0" d="M376.7,44.5c4.3,5.5,12.2,6.5,17.7,2.2c1.4-1.1,2.5-2.4,3.3-3.9C390.7,39.7,383,38.5,376.7,44.5"/>
	<path class="st1" d="M372.9,43.5c5,1.3,10.1,1.6,15.2,0.8c-0.7,0.3-1.4,0.5-2.2,0.6c-3.6,0.6-7.4,0.4-10.9-0.6
		C374.3,44.2,373.6,43.9,372.9,43.5z"/>
	<path class="st0" d="M616.9,75.2c11.2,3.1,22.7-3.5,25.8-14.7c0.8-2.8,0.9-5.6,0.6-8.5C631,55.1,619.5,61,616.9,75.2"/>
	<path class="st1" d="M611,77.7c0-0.1,1.3-0.6,3.5-1.5c5.5-2.4,10.6-5.7,15-9.9c1.7-1.6,2.7-2.7,2.7-2.6c-0.2,0.3-0.4,0.6-0.6,0.8
		c-0.4,0.5-1,1.2-1.9,2c-4.3,4.3-9.4,7.7-15.1,9.9c-1.1,0.4-2,0.7-2.6,0.9C611.6,77.6,611.3,77.7,611,77.7z"/>
	<path class="st0" d="M640.6,380c19.7-4.6,31.9-24.2,27.4-43.9c-1.1-4.9-3.2-9.4-6.2-13.4C645.4,337.6,632.7,356.1,640.6,380"/>
	<path class="st1" d="M633.5,388.8c0.3-0.5,0.7-0.9,1.1-1.4c0.8-0.8,1.8-2.1,3-3.7s2.7-3.5,4.2-5.7s3-4.7,4.5-7.4s2.7-5.4,3.7-7.8
		s1.8-4.7,2.5-6.6s1.1-3.5,1.4-4.6c0.1-0.6,0.3-1.1,0.5-1.7c-0.1,0.6-0.2,1.2-0.3,1.7c-0.2,1.1-0.6,2.7-1.2,4.6s-1.4,4.2-2.3,6.7
		s-2.2,5.1-3.7,7.9c-1.4,2.6-2.9,5-4.5,7.4c-1.5,2.2-3,4.1-4.3,5.7s-2.4,2.8-3.2,3.6C634.4,388,634,388.4,633.5,388.8z"/>
</g>
<g id="Shape--inject-2">
	<path class="st2" d="M504.8,253.9c-6.3-35.2-36.6-66-72.3-68.9c-19.5-1.6-39,4.6-58.4,2.2c-16.4-2-31.5-10-42.5-22.4
		c-16-18.2-21.4-44.1-38.4-61.4c-23.3-23.9-64.1-24.3-92.5-6.7s-45.6,49.3-53.4,81.7l-0.3,9.9c-1.7,33.7,7.1,72.8,26.7,102.8
		c19.8,30.4,32.8,43,68.9,64.8c30.6,18.6,90.6,26.7,126.4,27.6s72.6-9.8,99.5-33.4S511.2,289.2,504.8,253.9z"/>
	<g class="st3">
		<path class="st4" d="M504.8,253.9c-6.3-35.2-36.6-66-72.3-68.9c-19.5-1.6-39,4.6-58.4,2.2c-16.4-2-31.5-10-42.5-22.4
			c-16-18.2-21.4-44.1-38.4-61.4c-23.3-23.9-64.1-24.3-92.5-6.7s-45.6,49.3-53.4,81.7l-0.3,9.9c-1.7,33.7,7.1,72.8,26.7,102.8
			c19.8,30.4,32.8,43,68.9,64.8c30.6,18.6,90.6,26.7,126.4,27.6s72.6-9.8,99.5-33.4S511.2,289.2,504.8,253.9z"/>
	</g>
	<circle class="st2" cx="522.9" cy="377.3" r="17.2"/>
	<circle class="st5" cx="522.9" cy="377.3" r="17.2"/>
</g>
<g id="error-404--inject-2">
	<path class="st2" d="M401.8,244.6c0.3,34.4-7.2,60.8-22.5,79s-36.3,27.5-63,27.7c-26.8,0.3-48.1-8.6-63.9-26.5
		c-15.8-17.9-23.9-44.1-24.2-78.5l-0.6-60.6c-0.3-34.3,7.2-60.6,22.5-79s36.4-27.7,63.2-27.9c26.7-0.3,47.9,8.6,63.7,26.7
		s23.9,44.2,24.2,78.5L401.8,244.6z M357,177.7c-0.2-21.7-4-37.7-11.3-48s-18-15.4-32-15.3c-14,0.1-24.5,5.4-31.6,15.9
		c-7.1,10.5-10.6,26.6-10.4,48.2l0.7,73.6c0.2,21.8,4,37.9,11.5,48.3s18.1,15.5,32.1,15.4c13.9-0.1,24.4-5.4,31.5-15.9
		c7.1-10.5,10.5-26.7,10.3-48.6L357,177.7z"/>
	<g class="st6">
		<path d="M401.8,244.6c0.3,34.4-7.2,60.8-22.5,79s-36.3,27.5-63,27.7c-26.8,0.3-48.1-8.6-63.9-26.5c-15.8-17.9-23.9-44.1-24.2-78.5
			l-0.6-60.6c-0.3-34.3,7.2-60.6,22.5-79s36.4-27.7,63.2-27.9c26.7-0.3,47.9,8.6,63.7,26.7s23.9,44.2,24.2,78.5L401.8,244.6z
			 M357,177.7c-0.2-21.7-4-37.7-11.3-48s-18-15.4-32-15.3c-14,0.1-24.5,5.4-31.6,15.9c-7.1,10.5-10.6,26.6-10.4,48.2l0.7,73.6
			c0.2,21.8,4,37.9,11.5,48.3s18.1,15.5,32.1,15.4c13.9-0.1,24.4-5.4,31.5-15.9c7.1-10.5,10.5-26.7,10.3-48.6L357,177.7z"/>
	</g>
	<path class="st2" d="M427.2,244.3c0.3,34.4-7.2,60.8-22.5,79c-15.3,18.2-36.3,27.5-63,27.7c-26.8,0.3-48.1-8.6-63.9-26.5
		C262,306.6,254,280.5,253.6,246l-0.6-60.6c-0.3-34.3,7.2-60.6,22.5-79s36.4-27.7,63.2-27.9c26.7-0.2,47.9,8.6,63.7,26.7
		s23.9,44.2,24.1,78.5L427.2,244.3z M382.4,177.4c-0.2-21.7-4-37.7-11.4-48c-7.4-10.3-18-15.4-32-15.3c-14,0.1-24.5,5.4-31.6,15.9
		c-7.1,10.5-10.6,26.6-10.4,48.3l0.7,73.6c0.2,21.8,4,37.9,11.5,48.3c7.4,10.4,18.1,15.5,32.1,15.4c13.9-0.1,24.4-5.4,31.5-15.9
		c7.1-10.5,10.5-26.7,10.3-48.6L382.4,177.4z"/>
	<path class="st2" d="M253.2,189.1c0,0.1-5.9,2.5-13.2,5.2s-13.3,4.8-13.3,4.8s5.9-2.5,13.2-5.2S253.1,188.9,253.2,189.1z"/>
	<path class="st2" d="M254.6,213c0,0.1-5.9,2.5-13.2,5.2c-7.4,2.8-13.3,4.9-13.4,4.8s5.9-2.5,13.2-5.2S254.6,212.8,254.6,213z"/>
	<path class="st2" d="M256.1,236.9c0,0.1-5.9,2.5-13.2,5.2s-13.3,4.9-13.4,4.8s5.9-2.5,13.2-5.2S256.1,236.8,256.1,236.9z"/>
	<path class="st2" d="M257.6,260.8c0,0.1-5.9,2.5-13.2,5.2s-13.3,4.9-13.4,4.8s5.9-2.5,13.2-5.2S257.5,260.7,257.6,260.8z"/>
	<path class="st2" d="M259.1,284.8c-0.3,0.2-0.6,0.3-0.9,0.5c-0.6,0.3-1.5,0.6-2.6,1c-2.2,0.9-5.2,2-8.5,3.3s-6.4,2.4-8.6,3.1
		c-1.1,0.4-2,0.7-2.6,0.9c-0.3,0.1-0.7,0.2-1,0.3c0.3-0.2,0.6-0.3,0.9-0.5c0.6-0.3,1.5-0.6,2.6-1c2.2-0.9,5.2-2,8.5-3.3
		s6.4-2.4,8.6-3.1c1.1-0.4,2-0.7,2.6-0.9C258.4,284.9,258.7,284.8,259.1,284.8z"/>
	<path class="st2" d="M265.9,306.7c-1,0.5-2,1-3,1.3c-1.9,0.8-4.5,1.8-7.4,2.9s-5.6,2.1-7.5,2.7c-1,0.4-2.1,0.8-3.2,1
		c1-0.5,2-1,3-1.3c1.9-0.8,4.5-1.8,7.4-2.9s5.6-2.1,7.5-2.7C263.8,307.2,264.8,306.9,265.9,306.7z"/>
	<path class="st2" d="M280.5,326.7c-0.9,0.5-1.8,0.9-2.7,1.2c-1.7,0.7-4,1.6-6.6,2.6s-5,1.8-6.7,2.4c-0.9,0.4-1.9,0.7-2.8,0.9
		c0.9-0.5,1.8-0.9,2.7-1.2c1.7-0.7,4-1.6,6.6-2.6s5-1.8,6.7-2.4C278.6,327.2,279.6,326.9,280.5,326.7z"/>
	<path class="st2" d="M304.8,339.9c-0.9,0.5-1.8,0.9-2.7,1.2c-1.7,0.7-4,1.6-6.6,2.6s-5,1.8-6.7,2.4c-0.9,0.4-1.9,0.7-2.8,0.9
		c0.9-0.5,1.8-0.9,2.7-1.2c1.7-0.7,4-1.6,6.6-2.6s5-1.8,6.7-2.4C302.9,340.4,303.9,340.1,304.8,339.9z"/>
	<path class="st2" d="M378.1,288.8c0.1,0.1-7.5,3.7-17,7.9s-17.1,7.6-17.2,7.4s7.5-3.7,17-7.9S378.1,288.7,378.1,288.8z"/>
	<path class="st2" d="M383.1,268.3c0.1,0.1-6.2,3.1-14,6.6s-14.1,6.2-14.2,6.1s6.2-3.1,14-6.6S383.1,268.2,383.1,268.3z"/>
	<path class="st2" d="M385.4,245.3c0.1,0.1-6.2,3.1-14,6.6s-14.1,6.2-14.2,6.1s6.2-3.1,14-6.6S385.4,245.1,385.4,245.3z"/>
	<path class="st2" d="M387.7,222.3c0.1,0.1-6.2,3.1-14,6.6s-14.1,6.2-14.2,6.1s6.2-3.1,14-6.6S387.6,222.1,387.7,222.3z"/>
	<path class="st2" d="M390,199.2c0,0.1-6.2,3.1-14,6.6s-14.1,6.2-14.2,6.1s6.2-3.1,14-6.6S390,199.1,390,199.2z"/>
	<path class="st2" d="M385.4,178.7c0.1,0.1-6.2,3.1-14,6.6s-14.1,6.2-14.2,6.1s6.2-3.1,14-6.6S385.4,178.6,385.4,178.7z"/>
	<path class="st2" d="M385.4,156.7c0.1,0.1-6.2,3.1-14,6.6s-14.1,6.2-14.2,6.1s6.2-3.1,14-6.6S385.4,156.5,385.4,156.7z"/>
	<path class="st2" d="M383.1,135.9c0.1,0.1-6.2,3.1-14,6.6s-14.1,6.2-14.2,6.1s6.2-3.1,14-6.6S383.1,135.7,383.1,135.9z"/>
	<path class="st2" d="M363.4,121.4c-2.7,1.5-5.6,2.9-8.5,4.1c-2.8,1.4-5.7,2.6-8.7,3.6c2.7-1.5,5.6-2.9,8.5-4.1
		C357.5,123.6,360.4,122.4,363.4,121.4z"/>
	<path class="st2" d="M352.8,112.5c-2.7,1.5-5.6,2.9-8.5,4.1c-2.8,1.4-5.7,2.6-8.7,3.6c2.7-1.5,5.6-2.9,8.5-4.1
		C347,114.8,349.9,113.5,352.8,112.5z"/>
	<path class="st2" d="M254.3,160c0,0.1-5.9,2.5-13.2,5.2s-13.3,4.9-13.4,4.8s5.9-2.5,13.2-5.2S254.3,159.9,254.3,160z"/>
	<path class="st2" d="M261.6,130.2c0.1,0.1-6.4,2.7-14.3,5.7s-14.5,5.3-14.5,5.2s6.4-2.7,14.3-5.7S261.6,130.1,261.6,130.2z"/>
	<path class="st2" d="M280.9,100.7c0,0.1-8.1,3.3-18.2,7.1s-18.3,6.8-18.3,6.6s8.1-3.3,18.2-7.1S280.9,100.5,280.9,100.7z"/>
	<path class="st4" d="M422.9,289.1l-0.4-0.1l-1.2-0.5c-0.5-0.2-1.2-0.3-2-0.6c-0.9-0.2-1.9-0.3-2.8-0.4c-4.3-0.3-10.7,1.3-16.9,5.9
		c-3.4,2.5-6.4,5.5-8.9,8.8c-2.9,3.5-5.7,7.5-8.9,11.5c-3.2,4.3-7.1,8.1-11.5,11.2c-4.8,3.2-10.2,5.4-15.9,6.5
		c-5.7,1-11.6,0.8-17.2-0.6c-5.2-1.4-10.2-3.2-15.1-5.6c-4.6-2.1-9-4.3-13.1-6.1c-3.9-1.7-7.8-3-11.9-4c-3.4-0.8-6.8-1.2-10.3-1.2
		c-2.6,0-5.2,0.4-7.8,1c-1.6,0.5-3.1,1.1-4.6,1.8l-1.1,0.6c-0.1,0.1-0.3,0.1-0.4,0.2l0.4-0.2l1.1-0.6c1.5-0.8,3-1.4,4.6-1.9
		c2.5-0.7,5.2-1.1,7.8-1.1c3.5,0,7,0.3,10.4,1.1c4.1,1,8.1,2.3,12,4c4.2,1.8,8.5,4,13.2,6.1c4.8,2.3,9.8,4.2,15,5.5
		c5.6,1.4,11.4,1.6,17,0.6c5.6-1,11-3.2,15.8-6.4c4.4-3.1,8.2-6.8,11.4-11c3.2-4,6-7.9,8.9-11.5c2.6-3.3,5.6-6.3,9-8.9
		c6.3-4.6,12.8-6.2,17.1-5.8c1,0.1,1.9,0.2,2.9,0.4c0.8,0.2,1.5,0.4,2,0.6l1.2,0.5L422.9,289.1z"/>
	<path class="st4" d="M429.2,222.4c0,0-0.7,0.1-2,0.5c-1.7,0.6-3.4,1.5-4.8,2.6c-1.9,1.3-4,3.2-6.4,5.1c-2.7,2.1-5.5,3.8-8.6,5.3
		c-5.5,2.7-11.5,4.2-17.7,4.6c-1.2,0.1-2.2,0.1-3.2,0.1s-1.7-0.1-2.4-0.1l-1.5-0.1c-0.2,0-0.3,0-0.5-0.1c0.2,0,0.3,0,0.5,0l1.5,0
		h2.4c0.9,0,2,0,3.1-0.2c6.1-0.5,12-2.1,17.5-4.7c3-1.4,5.9-3.2,8.5-5.2c2.4-1.9,4.5-3.7,6.5-5c1.5-1.1,3.2-1.9,5-2.5
		c0.5-0.1,1-0.2,1.5-0.3C428.9,222.4,429.1,222.4,429.2,222.4z"/>
	<path class="st4" d="M298.6,245.6c-0.2,0-0.4,0-0.5-0.1c-0.4-0.1-0.9-0.2-1.6-0.4c-1.9-0.6-3.7-1.3-5.4-2.4c-2.5-1.5-4.8-3.2-7-5.1
		c-2.5-2.1-5.2-4.5-8.3-6.6c-2.9-2-6.1-3.5-9.5-4.4c-4.7-1.2-9.6-1.1-14.2,0.1c-1.3,0.3-2,0.6-2.1,0.5c0.2-0.1,0.3-0.2,0.5-0.2
		c0.3-0.1,0.8-0.3,1.5-0.5c1.9-0.5,3.8-0.9,5.8-1c2.9-0.2,5.8,0,8.6,0.7c3.5,0.8,6.8,2.3,9.7,4.4c3.1,2.1,5.8,4.5,8.3,6.6
		c2.2,1.9,4.5,3.6,6.9,5.2c1.6,1,3.4,1.8,5.2,2.5C297.3,245.2,298,245.4,298.6,245.6z"/>
	<path class="st4" d="M298.8,151.1c-0.5,0.2-1.1,0.5-1.7,0.6c-0.7,0.2-1.3,0.4-2,0.6c-0.8,0.2-1.7,0.5-2.7,0.6s-2.1,0.4-3.3,0.6
		s-2.5,0.3-3.8,0.4c-2.9,0.2-5.9,0.1-8.8-0.1c-2.9-0.3-5.8-0.8-8.7-1.5c-1.3-0.4-2.5-0.7-3.7-1.1s-2.2-0.8-3.1-1.2s-1.8-0.8-2.5-1.1
		s-1.4-0.7-1.9-0.9c-0.5-0.3-1-0.6-1.5-0.9c0.6,0.2,1.1,0.4,1.6,0.7c0.5,0.2,1.1,0.6,1.9,0.9s1.6,0.7,2.5,1.1s2,0.8,3.1,1.1
		s2.4,0.7,3.7,1.1c5.7,1.4,11.5,2,17.3,1.6c1.3-0.1,2.6-0.2,3.8-0.4s2.3-0.3,3.3-0.5s1.9-0.4,2.7-0.6s1.5-0.4,2-0.5
		C297.6,151.3,298.2,151.2,298.8,151.1z"/>
	<path class="st4" d="M423.6,150.8c-0.1-0.1-0.3-0.1-0.4-0.2l-1.2-0.7c-0.6-0.4-1.2-0.7-1.9-1c-0.8-0.4-1.7-0.8-2.5-1.2l-1.5-0.6
		c-0.5-0.2-1.1-0.4-1.7-0.6c-1.1-0.4-2.4-0.7-3.7-1.1c-5.8-1.3-11.8-1.4-17.7-0.1c-1.3,0.3-2.5,0.6-3.8,1c-0.6,0.2-1.1,0.3-1.7,0.5
		l-1.5,0.6c-0.9,0.3-1.7,0.7-2.5,1.1c-0.6,0.3-1.3,0.6-1.9,1l-1.2,0.6c-0.3,0.1-0.4,0.2-0.4,0.2c0.1-0.1,0.2-0.2,0.4-0.3l1.1-0.7
		c0.6-0.4,1.2-0.7,1.9-1.1c0.8-0.5,1.7-0.9,2.5-1.2l1.5-0.6c0.5-0.2,1.1-0.4,1.7-0.6c1.2-0.4,2.5-0.8,3.8-1.1
		c5.9-1.3,12-1.2,17.9,0.2c1.3,0.4,2.6,0.7,3.8,1.1c0.6,0.2,1.1,0.4,1.7,0.6l1.5,0.7c0.9,0.4,1.7,0.8,2.5,1.3
		c0.6,0.3,1.2,0.7,1.8,1.1l1.1,0.8C423.5,150.7,423.6,150.8,423.6,150.8z"/>
	<path class="st4" d="M362.4,82.9c-0.2,0.2-0.5,0.3-0.7,0.4l-2.1,1.1c-1.9,1-4.5,2.4-7.9,4.1c-6.7,3.3-16.1,7.8-27.2,10.7
		c-5.2,1.3-10.6,2.1-16,2.2c-4.4,0.1-8.8-0.3-13.1-1.1c-2.9-0.6-5.8-1.5-8.5-2.6c-1-0.4-1.7-0.8-2.2-1c-0.3-0.1-0.5-0.2-0.8-0.4
		c0.3,0.1,0.5,0.2,0.8,0.3c0.5,0.2,1.2,0.6,2.2,0.9c2.8,1.1,5.6,1.9,8.5,2.4c4.3,0.8,8.7,1.2,13,1c5.4-0.2,10.7-0.9,15.9-2.2
		c11.1-2.8,20.5-7.2,27.2-10.5l8-3.9l2.1-1.1C361.9,83.1,362.2,83,362.4,82.9z"/>
	<path class="st2" d="M161.7,257.1l33.4,1.5l-1.6,35.4l-33.4-1.5l-2.6,58.9l-44-1.9l2.6-58.9l-113.5-5l0.1-27l121-173.8l45.4,2
		L161.7,257.1z M46.7,252.1l71,3.1l4.7-107.4l-1.1-0.4l-4,7.6L46.7,252.1z"/>
	<g class="st6">
		<path d="M161.7,257.1l33.4,1.5l-1.6,35.4l-33.4-1.5l-2.6,58.9l-44-1.9l2.6-58.9l-113.5-5l0.1-27l121-173.8l45.4,2L161.7,257.1z
			 M46.7,252.1l71,3.1l4.7-107.4l-1.1-0.4l-4,7.6L46.7,252.1z"/>
	</g>
	<path class="st2" d="M189.6,258.4l33.4,1.5l-1.6,35.4l-33.4-1.5l-2.6,58.9l-44-1.9l2.6-58.9l-113.6-5l0.1-27l121-173.7l45.4,2
		L189.6,258.4z M74.6,253.4l71.1,3.1l4.7-107.4l-1.1-0.4l-4,7.6L74.6,253.4z"/>
	<path class="st2" d="M31.2,265.1c-0.3,0.2-0.7,0.4-1.1,0.6c-0.7,0.4-1.8,0.9-3,1.5c-2.6,1.2-6.2,2.8-10.2,4.5s-7.7,3.1-10.3,4.1
		c-1.3,0.5-2.4,0.9-3.2,1.1c-0.4,0.2-0.8,0.3-1.2,0.4c0.4-0.2,0.7-0.4,1.1-0.5l3.1-1.3l10.2-4.3l10.2-4.4l3.1-1.3
		C30.4,265.3,30.8,265.1,31.2,265.1z"/>
	<path class="st2" d="M47.5,235.1c-0.5,0.3-1,0.6-1.5,0.8c-1,0.5-2.4,1.2-4.2,2c-3.6,1.6-8.5,3.8-14,6.1s-10.6,4.3-14.2,5.7
		c-1.8,0.7-3.3,1.3-4.3,1.6c-0.5,0.2-1.1,0.4-1.6,0.5c0.5-0.3,1-0.5,1.5-0.7l4.3-1.8l14.1-5.9l14.1-6l4.3-1.8
		C46.4,235.5,47,235.3,47.5,235.1z"/>
	<path class="st2" d="M67.4,208.4c-0.5,0.3-1,0.6-1.6,0.8c-1,0.5-2.5,1.2-4.4,2c-3.7,1.6-8.9,3.8-14.6,6.1s-11,4.4-14.8,5.8
		c-1.9,0.7-3.5,1.3-4.5,1.6c-0.5,0.2-1.1,0.4-1.7,0.5c0.5-0.3,1.1-0.5,1.6-0.7l4.5-1.8l14.7-5.9l14.7-6l4.5-1.8
		C66.2,208.8,66.8,208.6,67.4,208.4z"/>
	<path class="st2" d="M147,239.2c-0.3,0.2-0.7,0.4-1.1,0.6c-0.7,0.4-1.8,0.8-3.1,1.4c-2.6,1.2-6.2,2.7-10.2,4.4s-7.7,3-10.3,4
		c-1.3,0.5-2.4,0.9-3.2,1.1c-0.4,0.1-0.8,0.3-1.2,0.3c0.3-0.2,0.7-0.4,1.1-0.5l3.1-1.3l10.3-4.1l10.2-4.2l3.1-1.3
		C146.2,239.5,146.6,239.3,147,239.2z"/>
	<path class="st2" d="M143.7,294.2c-0.3,0.2-0.7,0.4-1.1,0.6c-0.7,0.3-1.7,0.8-2.9,1.4c-2.5,1.2-6,2.7-9.9,4.3s-7.4,3-10,4
		c-1.3,0.5-2.4,0.9-3.1,1.1c-0.4,0.2-0.8,0.3-1.2,0.3c0.3-0.2,0.7-0.4,1.1-0.5l3-1.3l10-4.1l9.9-4.2l3-1.3
		C143,294.4,143.3,294.3,143.7,294.2z"/>
	<path class="st2" d="M143.3,313.4c-0.3,0.2-0.6,0.4-1,0.6c-0.7,0.4-1.7,0.8-3,1.4c-2.5,1.2-6,2.7-9.9,4.3s-7.4,3-10,4
		c-1.3,0.5-2.3,0.9-3.1,1.1c-0.4,0.2-0.8,0.3-1.1,0.3c0.3-0.2,0.7-0.4,1.1-0.5l3-1.3l10-4.1l9.9-4.2l3-1.3
		C142.5,313.7,142.9,313.5,143.3,313.4z"/>
	<path class="st2" d="M142.8,332.7c-0.3,0.2-0.6,0.4-1,0.6c-0.7,0.4-1.7,0.8-3,1.4c-2.5,1.2-6,2.7-9.9,4.3s-7.4,3-10,4
		c-1.3,0.5-2.4,0.9-3.1,1.1c-0.4,0.2-0.8,0.3-1.1,0.3c0.3-0.2,0.7-0.4,1.1-0.5l3-1.2l10-4.1l9.9-4.2l3-1.3
		C142.1,332.9,142.4,332.8,142.8,332.7z"/>
	<path class="st2" d="M147.5,218.9c-0.3,0.2-0.7,0.4-1.1,0.6c-0.7,0.4-1.8,0.8-3,1.4c-2.6,1.2-6.2,2.7-10.2,4.4s-7.7,3-10.3,4
		c-1.3,0.5-2.4,0.9-3.2,1.1c-0.4,0.2-0.8,0.3-1.2,0.3c0.3-0.2,0.7-0.4,1.1-0.5l3.1-1.3l10.3-4.1l10.2-4.2l3.1-1.3
		C146.7,219.1,147.1,219,147.5,218.9z"/>
	<path class="st2" d="M148,198.6c-0.3,0.2-0.7,0.4-1.1,0.6c-0.7,0.3-1.8,0.8-3.1,1.4c-2.6,1.2-6.2,2.7-10.2,4.3s-7.7,3-10.3,4
		c-1.3,0.5-2.4,0.9-3.2,1.1c-0.4,0.2-0.8,0.3-1.2,0.3c0.3-0.2,0.7-0.4,1.1-0.5l3.1-1.3l10.3-4.1l10.2-4.2l3.1-1.3
		C147.2,198.8,147.6,198.7,148,198.6z"/>
	<path class="st2" d="M148.5,178.2c-0.3,0.2-0.6,0.4-1,0.6c-0.7,0.3-1.7,0.8-2.9,1.4c-2.5,1.1-5.9,2.6-9.7,4.1s-7.3,2.9-9.9,3.8
		c-1.3,0.4-2.3,0.8-3,1c-0.4,0.1-0.7,0.3-1.1,0.3c0.3-0.2,0.7-0.4,1.1-0.5l3-1.2l9.8-3.9l9.8-4l3-1.2
		C147.9,178.4,148.2,178.3,148.5,178.2z"/>
	<path class="st2" d="M150.8,159.2c-1.6,0.9-3.3,1.6-5,2.1c-1.7,0.7-3.4,1.3-5.2,1.6c1.6-0.9,3.3-1.6,5-2.1
		C147.3,160.1,149,159.6,150.8,159.2z"/>
	<path class="st2" d="M87.2,180.7c-0.5,0.3-1,0.6-1.6,0.8c-1,0.5-2.5,1.1-4.4,2c-3.7,1.6-8.9,3.8-14.6,6.1s-11,4.4-14.8,5.8
		c-1.9,0.7-3.4,1.3-4.5,1.6c-0.6,0.2-1.1,0.4-1.7,0.5c0.5-0.3,1.1-0.5,1.6-0.7l4.5-1.8l14.7-6l14.7-6l4.4-1.8
		C86.1,181.1,86.6,180.9,87.2,180.7z"/>
	<path class="st2" d="M107,153c-0.5,0.3-1,0.6-1.6,0.8c-1,0.5-2.5,1.2-4.4,2c-3.7,1.6-8.9,3.8-14.6,6.1c-5.7,2.3-11,4.4-14.8,5.8
		c-1.9,0.7-3.4,1.3-4.5,1.6c-0.5,0.2-1.1,0.4-1.7,0.5c0.5-0.3,1.1-0.5,1.6-0.7l4.5-1.8l14.7-5.9l14.7-6l4.4-1.8
		C105.9,153.4,106.5,153.2,107,153z"/>
	<path class="st2" d="M125.4,125.4c-0.5,0.3-1,0.6-1.6,0.8c-1,0.5-2.5,1.1-4.4,2c-3.7,1.6-8.9,3.8-14.6,6.1s-11,4.4-14.8,5.8
		c-1.9,0.7-3.4,1.3-4.5,1.6c-0.6,0.2-1.1,0.4-1.7,0.5c0.5-0.3,1.1-0.5,1.6-0.7l4.5-1.8l14.7-5.9l14.7-6l4.4-1.8
		C124.2,125.7,124.8,125.5,125.4,125.4z"/>
	<path class="st2" d="M144.5,98.7c-0.5,0.3-1,0.6-1.6,0.8c-1,0.5-2.5,1.1-4.4,2c-3.7,1.6-8.9,3.8-14.6,6.1s-11,4.4-14.8,5.8
		c-1.9,0.7-3.4,1.3-4.5,1.6c-0.5,0.2-1.1,0.4-1.7,0.5c0.5-0.3,1.1-0.5,1.6-0.7l4.5-1.8l14.7-6l14.7-6l4.5-1.8
		C143.3,99.1,143.9,98.9,144.5,98.7z"/>
	<path class="st4" d="M195.1,139.4c-0.2,0.2-0.4,0.5-0.6,0.7c-0.6,0.6-1.2,1.2-1.8,1.8c-2.3,2-5,3.7-7.8,5c-4.2,1.9-8.8,2.9-13.4,3
		c-2.7,0.1-5.4-0.3-8.1-0.9c-2.8-0.7-5.6-1.7-8.2-3.1c-5.4-2.6-10.2-5.7-14.8-7.9c-4.1-2-8.5-3.2-13.1-3.4c-3.1-0.2-6.1,0.4-8.9,1.7
		c-0.8,0.4-1.5,0.8-2.2,1.2c-0.2,0.2-0.5,0.3-0.7,0.5c0.2-0.2,0.4-0.4,0.7-0.6c0.7-0.5,1.4-1,2.1-1.3c2.8-1.3,5.9-2,9-1.9
		c4.6,0.2,9.1,1.4,13.3,3.4c4.7,2.1,9.5,5.2,14.9,7.8c2.6,1.3,5.3,2.3,8.1,3c2.6,0.6,5.3,1,7.9,0.9c7.7-0.1,15.1-2.8,21-7.7
		c0.9-0.7,1.4-1.3,1.9-1.7C194.6,139.8,194.8,139.6,195.1,139.4z"/>
	<path class="st4" d="M181.2,90c-0.4,0.3-0.8,0.5-1.3,0.7c-0.8,0.4-2.1,1-3.6,1.7c-1.8,0.8-3.7,1.4-5.6,2c-4.7,1.4-9.5,2.2-14.3,2.3
		c-2,0.1-4,0-6-0.1c-1.7-0.1-3-0.3-4-0.5c-0.5-0.1-1-0.2-1.4-0.3c0.5,0,1,0,1.5,0.1c0.9,0.1,2.3,0.2,4,0.3s3.7,0.1,5.9,0
		c2.4-0.1,4.8-0.4,7.2-0.7c2.4-0.4,4.7-0.9,7-1.6c2.1-0.6,4-1.3,5.6-1.9s2.8-1.2,3.7-1.5C180.2,90.3,180.7,90.1,181.2,90z"/>
	<path class="st4" d="M110.2,201c-0.3-0.3-0.6-0.6-0.9-1l-2.4-2.8c-2.6-3.1-5.4-6-8.4-8.8c-1.6-1.5-3.4-2.9-5.2-4
		c-1.5-0.9-3.2-1.6-5-1.9c-1.6-0.3-3.3-0.3-4.9,0c0,0,0.1-0.1,0.3-0.1c0.3-0.1,0.7-0.2,1-0.2c1.2-0.2,2.5-0.2,3.7,0
		c1.8,0.3,3.6,1,5.2,1.9c1.9,1.1,3.7,2.5,5.4,4.1c3,2.8,5.7,5.7,8.3,8.9c1,1.2,1.7,2.2,2.2,2.9C109.7,200.3,109.9,200.6,110.2,201z"
		/>
	<path class="st4" d="M189.9,231.2c0,0-0.1,0.1-0.4,0.3s-0.6,0.5-1.2,0.8c-1.5,0.9-3.1,1.6-4.7,2.2c-11,4.2-23.5,1.6-32-6.5
		c-1.3-1.2-2.4-2.5-3.4-3.9c-0.4-0.5-0.6-0.9-0.8-1.2s-0.3-0.4-0.2-0.4c0.4,0.5,0.8,1,1.2,1.5c1.1,1.3,2.3,2.6,3.5,3.7
		c8.5,7.9,20.7,10.4,31.6,6.5c1.6-0.6,3.2-1.3,4.7-2.1C188.7,231.8,189.3,231.5,189.9,231.2z"/>
	<path class="st4" d="M219.1,294.6c0,0-0.1-0.1-0.3-0.5s-0.5-0.8-0.8-1.4c-1-1.8-2.1-3.5-3.4-5.1l-1.4-1.6l-0.7-0.9l-0.9-0.8
		l-1.8-1.8l-2.1-1.7c-3.4-2.7-7.1-4.9-11-6.5c-4.8-2-9.8-3.2-15-3.5c-5.9-0.3-11.9,0.6-17.4,2.8c-5.9,2.3-11.5,5.8-17.5,9.1
		c-3,1.7-6.2,3.3-9.4,4.7c-3.3,1.4-6.9,2.3-10.5,2.7c-3.6,0.4-7.2,0.1-10.8-0.6c-3.4-0.8-6.8-1.9-9.9-3.4c-6-2.9-11.6-6.3-16.9-10.3
		c-5.1-3.6-10-7.2-14.8-10c-4.4-2.7-9.2-4.8-14.2-6.1c-4.2-1-8.5-1.3-12.7-0.8c-3.2,0.3-6.3,1.2-9.2,2.7c-1.8,0.9-3.5,2.1-5,3.5
		l-1.2,1.1c-0.2,0.2-0.4,0.4-0.4,0.4s0.1-0.1,0.4-0.4l1.1-1.2c1.5-1.4,3.2-2.6,5-3.5c2.9-1.5,6.1-2.4,9.3-2.8
		c4.3-0.5,8.6-0.2,12.8,0.8c5.1,1.3,9.9,3.4,14.4,6.1c4.9,2.8,9.7,6.3,14.9,10c5.3,3.9,10.9,7.3,16.9,10.2c3.1,1.5,6.4,2.6,9.8,3.4
		c3.5,0.8,7.1,1,10.6,0.6c3.5-0.4,7-1.3,10.3-2.7c3.2-1.3,6.3-2.9,9.3-4.6c6-3.4,11.6-6.8,17.5-9.1c1.5-0.6,2.9-1.1,4.5-1.4
		c0.8-0.2,1.5-0.4,2.2-0.6l2.2-0.4c2.9-0.4,5.8-0.6,8.7-0.4c5.2,0.3,10.4,1.5,15.2,3.6c3.9,1.7,7.6,3.9,11,6.6
		c0.7,0.6,1.4,1.2,2.1,1.8l1.8,1.8l0.8,0.8c0.2,0.3,0.5,0.6,0.7,0.9c0.5,0.6,0.9,1.1,1.4,1.6c1.3,1.6,2.4,3.3,3.4,5.1
		c0.3,0.6,0.6,1.1,0.8,1.4C219,294.4,219.1,294.6,219.1,294.6z"/>
	<path class="st4" d="M188.8,336.3c-0.2,0.1-0.3,0.1-0.5,0.1l-1.5,0.3c-0.8,0.2-1.6,0.3-2.4,0.4c-0.9,0.1-2,0.2-3.1,0.3l-1.8,0.1
		c-0.6,0-1.3,0-2,0c-1.4,0-2.8-0.1-4.4-0.2c-3.3-0.4-6.6-1-9.9-1.9c-3.2-1-6.3-2.2-9.4-3.7c-1.4-0.7-2.7-1.4-3.8-2.1
		c-0.6-0.4-1.2-0.7-1.7-1l-1.5-1c-1-0.6-1.8-1.3-2.5-1.9c-0.6-0.5-1.2-1-1.8-1.5c-0.4-0.4-0.8-0.8-1.1-1c-0.1-0.1-0.3-0.2-0.4-0.4
		c0.2,0.1,0.3,0.2,0.4,0.3l1.2,1c0.5,0.4,1.1,0.9,1.9,1.5s1.6,1.2,2.5,1.9l1.5,1c0.5,0.4,1.1,0.7,1.7,1c1.2,0.7,2.5,1.4,3.8,2.1
		c6,2.9,12.4,4.8,19.1,5.5c1.5,0.1,3,0.3,4.4,0.3c0.7,0,1.3,0.1,2,0h1.8c1.2,0,2.2-0.1,3.1-0.2s1.7-0.2,2.4-0.3l1.5-0.2
		C188.5,336.4,188.7,336.3,188.8,336.3z"/>
	<path class="st2" d="M596,257.5l33.3-3.2l3.5,35.3l-33.3,3.3l5.7,58.6l-43.8,4.3l-5.7-58.6l-113.2,11.1l-3.7-26.7l95.3-189.1
		l45.2-4.4L596,257.5z M481.4,268.8l70.8-6.9l-10.5-107l-1.1-0.2l-2.9,8.1L481.4,268.8z"/>
	<g class="st6">
		<path d="M596,257.5l33.3-3.2l3.5,35.3l-33.3,3.3l5.7,58.6l-43.8,4.3l-5.7-58.6l-113.2,11.1l-3.7-26.7l95.3-189.1l45.2-4.4
			L596,257.5z M481.4,268.8l70.8-6.9l-10.5-107l-1.1-0.2l-2.9,8.1L481.4,268.8z"/>
	</g>
	<path class="st2" d="M623.8,254.8l33.3-3.3l3.5,35.3l-33.3,3.3l5.7,58.6l-43.8,4.3l-5.7-58.6l-113.1,11l-3.7-26.7L562,89.7
		l45.2-4.4L623.8,254.8z M509.2,266l70.8-6.9l-10.5-107l-1.1-0.3l-2.8,8.1L509.2,266z"/>
	<path class="st2" d="M467.9,283.7c-0.3,0.3-0.6,0.5-1,0.8c-0.6,0.5-1.6,1.1-2.8,1.9c-2.4,1.6-5.7,3.7-9.4,5.9s-7.1,4.2-9.6,5.6
		c-1.2,0.7-2.3,1.2-3,1.6c-0.4,0.2-0.7,0.4-1.1,0.5c0.3-0.3,0.6-0.5,1-0.7l2.9-1.7l9.6-5.7l9.5-5.8l2.9-1.7
		C467.1,284.1,467.5,283.9,467.9,283.7z"/>
	<path class="st2" d="M479.8,251.8c-0.4,0.4-0.9,0.7-1.4,1c-0.9,0.6-2.2,1.5-3.9,2.5c-3.3,2.1-7.9,5-13,8s-9.8,5.8-13.2,7.7
		c-1.7,1-3.1,1.7-4.1,2.2c-0.5,0.3-1,0.5-1.5,0.8c0.5-0.3,0.9-0.7,1.4-0.9l4-2.4l13.1-7.9l13.1-7.9l4-2.4
		C478.8,252.3,479.3,252,479.8,251.8z"/>
	<path class="st2" d="M495.7,222.6c-0.5,0.4-0.9,0.7-1.5,1c-1,0.6-2.3,1.5-4.1,2.6c-3.5,2.1-8.3,5-13.6,8.1s-10.2,5.9-13.8,7.9
		c-1.8,1-3.2,1.8-4.2,2.3c-0.5,0.3-1,0.5-1.6,0.8c0.5-0.3,1-0.7,1.5-0.9l4.2-2.4l13.7-7.9l13.7-8l4.2-2.4
		C494.6,223.1,495.2,222.8,495.7,222.6z"/>
	<path class="st2" d="M578.8,241.9c-0.3,0.3-0.6,0.5-1,0.7c-0.7,0.5-1.6,1.1-2.8,1.8c-2.4,1.5-5.7,3.6-9.5,5.7s-7.2,4.1-9.7,5.4
		c-1.2,0.7-2.3,1.2-3,1.5c-0.4,0.2-0.7,0.4-1.1,0.5c0.3-0.3,0.6-0.5,1-0.7l2.9-1.7l9.6-5.5l9.5-5.6l2.9-1.7
		C578.1,242.2,578.4,242.1,578.8,241.9z"/>
	<path class="st2" d="M583.4,296.8c-0.3,0.3-0.6,0.5-1,0.7c-0.6,0.4-1.6,1.1-2.7,1.8c-2.3,1.5-5.5,3.5-9.2,5.7s-7,4-9.4,5.3
		c-1.2,0.7-2.2,1.2-2.9,1.5c-0.3,0.2-0.7,0.4-1.1,0.5c0.3-0.3,0.6-0.5,1-0.7l2.8-1.7l9.3-5.5l9.2-5.6l2.8-1.7
		C582.6,297.1,583,296.9,583.4,296.8z"/>
	<path class="st2" d="M585.6,315.9c-0.3,0.3-0.6,0.5-1,0.7c-0.6,0.4-1.6,1.1-2.7,1.8c-2.3,1.5-5.5,3.5-9.2,5.7s-7,4-9.4,5.4
		c-1.2,0.7-2.2,1.2-2.9,1.5c-0.3,0.2-0.7,0.4-1.1,0.5c0.3-0.3,0.6-0.5,1-0.7l2.8-1.7l9.3-5.5l9.2-5.6l2.8-1.7
		C584.9,316.2,585.2,316,585.6,315.9z"/>
	<path class="st2" d="M587.9,335c-0.3,0.3-0.6,0.5-1,0.7c-0.6,0.4-1.6,1.1-2.7,1.8c-2.3,1.5-5.5,3.5-9.2,5.7s-7,4-9.4,5.4
		c-1.2,0.7-2.2,1.2-2.9,1.5c-0.3,0.2-0.7,0.4-1.1,0.5c0.3-0.3,0.6-0.5,1-0.7l2.8-1.7l9.3-5.5l9.2-5.6l2.8-1.7
		C587.1,335.3,587.5,335.2,587.9,335z"/>
	<path class="st2" d="M576.5,221.7c-0.3,0.3-0.6,0.5-1,0.7c-0.7,0.4-1.6,1.1-2.8,1.8c-2.4,1.5-5.7,3.6-9.5,5.7s-7.2,4.1-9.7,5.4
		c-1.3,0.7-2.3,1.2-3,1.5c-0.4,0.2-0.7,0.4-1.1,0.5c0.3-0.3,0.6-0.5,1-0.7l2.9-1.7l9.6-5.5l9.5-5.6l2.9-1.7
		C575.7,222,576.1,221.8,576.5,221.7z"/>
	<path class="st2" d="M574.2,201.5c-0.3,0.3-0.6,0.5-1,0.7c-0.7,0.4-1.6,1.1-2.8,1.8c-2.4,1.5-5.7,3.6-9.5,5.7s-7.2,4.1-9.7,5.4
		c-1.2,0.7-2.3,1.2-3,1.5c-0.4,0.2-0.7,0.4-1.1,0.5c0.3-0.3,0.6-0.5,1-0.7l2.9-1.7l9.6-5.5l9.5-5.6l2.9-1.7
		C573.4,201.8,573.7,201.6,574.2,201.5z"/>
	<path class="st2" d="M571.8,181.3c-0.3,0.3-0.6,0.5-0.9,0.7c-0.6,0.4-1.5,1-2.7,1.8c-2.3,1.4-5.5,3.4-9,5.5s-6.8,3.9-9.2,5.1
		l-2.8,1.5c-0.3,0.2-0.7,0.4-1.1,0.5c0.3-0.2,0.6-0.5,1-0.6l2.8-1.6l9.2-5.2l9.1-5.3l2.8-1.6C571.1,181.6,571.5,181.4,571.8,181.3z"
		/>
	<path class="st2" d="M571.4,162.1c-1.5,1.1-3,2-4.7,2.8c-1.6,0.9-3.2,1.7-4.9,2.4c1.5-1.1,3-2,4.7-2.8
		C568.1,163.6,569.7,162.8,571.4,162.1z"/>
	<path class="st2" d="M511.5,192.4c-0.5,0.4-0.9,0.7-1.4,1c-1,0.6-2.3,1.5-4.1,2.6c-3.5,2.1-8.3,5-13.6,8.1s-10.2,5.9-13.8,7.8
		c-1.8,1-3.2,1.8-4.2,2.3c-0.5,0.3-1,0.5-1.6,0.8c0.5-0.4,1-0.7,1.5-0.9l4.2-2.4l13.7-7.9l13.7-8l4.2-2.4
		C510.4,192.9,510.9,192.6,511.5,192.4z"/>
	<path class="st2" d="M527.2,162.1c-0.5,0.4-0.9,0.7-1.5,1c-1,0.6-2.3,1.5-4.1,2.6c-3.5,2.1-8.3,5-13.6,8.1s-10.3,5.9-13.8,7.8
		c-1.8,1-3.2,1.8-4.2,2.3c-0.5,0.3-1,0.5-1.6,0.8c0.5-0.3,1-0.7,1.5-0.9l4.2-2.4l13.7-7.9l13.7-8l4.2-2.4
		C526.1,162.6,526.7,162.4,527.2,162.1z"/>
	<path class="st2" d="M541.5,132.2c-0.5,0.4-0.9,0.7-1.5,1c-1,0.6-2.3,1.5-4.1,2.6c-3.5,2.1-8.3,5-13.6,8.1s-10.2,5.9-13.8,7.8
		c-1.8,1-3.2,1.8-4.2,2.3c-0.5,0.3-1,0.5-1.6,0.8c0.5-0.3,1-0.7,1.5-0.9l4.2-2.4l13.7-7.9l13.7-8l4.2-2.4
		C540.4,132.7,540.9,132.4,541.5,132.2z"/>
	<path class="st2" d="M556.6,103.1c-0.5,0.4-0.9,0.7-1.5,1c-1,0.6-2.3,1.5-4.1,2.6c-3.5,2.1-8.3,5-13.6,8.1s-10.2,5.9-13.8,7.8
		c-1.8,1-3.2,1.7-4.2,2.3c-0.5,0.3-1,0.5-1.6,0.8c0.5-0.4,1-0.7,1.5-0.9l4.2-2.4l13.7-8l13.7-8l4.2-2.4
		C555.6,103.6,556.1,103.3,556.6,103.1z"/>
	<path class="st4" d="M612.4,136.3c-0.1,0.3-0.3,0.5-0.5,0.7c-0.5,0.7-1,1.4-1.5,2c-2,2.4-4.4,4.4-7,6.1c-3.9,2.5-8.2,4.2-12.8,4.9
		c-2.7,0.4-5.4,0.5-8.1,0.2c-2.9-0.3-5.8-0.9-8.5-1.9c-5.7-1.8-10.9-4.2-15.8-5.7c-4.3-1.4-8.9-1.9-13.4-1.5c-3.1,0.3-6,1.3-8.6,2.9
		c-0.7,0.5-1.4,1-2,1.5c-0.2,0.2-0.4,0.4-0.7,0.6c0.2-0.2,0.4-0.4,0.6-0.6c0.6-0.6,1.2-1.1,1.9-1.6c2.6-1.7,5.6-2.8,8.7-3.1
		c4.6-0.5,9.2,0,13.7,1.4c5,1.5,10.2,3.8,15.8,5.7c2.7,0.9,5.6,1.5,8.4,1.9c2.7,0.3,5.4,0.2,8-0.2c4.5-0.7,8.8-2.3,12.7-4.7
		c2.6-1.6,4.9-3.6,7-5.9c0.6-0.6,1.1-1.3,1.6-1.9C612,136.7,612.2,136.5,612.4,136.3z"/>
	<path class="st4" d="M591.7,89.3c-0.4,0.3-0.7,0.6-1.2,0.9c-0.8,0.6-1.9,1.3-3.3,2.2c-1.7,1-3.5,1.9-5.3,2.8
		c-2.2,1-4.5,1.9-6.8,2.6c-2.3,0.7-4.7,1.3-7.1,1.7c-2,0.3-3.9,0.6-5.9,0.7c-1.7,0.1-3.1,0.1-4,0.1c-0.5,0-1,0-1.5-0.1
		c0.5-0.1,1-0.1,1.5-0.1c0.9,0,2.3-0.1,4-0.3s3.7-0.4,5.8-0.8c2.4-0.5,4.7-1,7-1.8c2.3-0.7,4.6-1.6,6.8-2.6c2-0.9,3.8-1.8,5.3-2.7
		s2.6-1.5,3.4-2C590.8,89.8,591.3,89.5,591.7,89.3z"/>
	<path class="st4" d="M537,209.2c-0.4-0.3-0.7-0.6-1-0.9l-2.7-2.4c-3-2.7-6.2-5.2-9.5-7.5c-1.8-1.3-3.7-2.4-5.8-3.3
		c-1.7-0.7-3.4-1.1-5.2-1.2c-1.7-0.1-3.3,0.2-4.9,0.7c0,0,0.1-0.1,0.3-0.2c0.3-0.1,0.6-0.3,0.9-0.4c1.2-0.4,2.4-0.5,3.7-0.5
		c1.8,0.1,3.7,0.4,5.4,1.1c2.1,0.9,4.1,2,5.9,3.3c3.3,2.3,6.5,4.9,9.5,7.6c1.1,1.1,2,2,2.6,2.6C536.5,208.5,536.8,208.9,537,209.2z"
		/>
	<path class="st4" d="M620.2,227.9c0,0-0.1,0.1-0.3,0.4s-0.6,0.5-1.1,0.9c-1.4,1.1-2.8,2-4.3,2.9c-10.3,5.6-23,4.9-32.6-2
		c-1.4-1-2.7-2.1-3.9-3.4c-0.4-0.4-0.7-0.8-1-1c-0.1-0.1-0.2-0.3-0.3-0.4c0,0,0.5,0.5,1.4,1.3c1.2,1.2,2.6,2.2,4,3.2
		c9.5,6.6,21.9,7.4,32.2,2c1.5-0.8,3-1.7,4.4-2.7C619.2,228.7,619.7,228.3,620.2,227.9z"/>
	<path class="st4" d="M658,286.5c-0.1-0.1-0.3-0.3-0.4-0.4c-0.2-0.3-0.6-0.7-1-1.2c-1.2-1.6-2.6-3.1-4.1-4.5l-1.6-1.4l-0.8-0.8
		l-1-0.7l-2-1.5l-2.3-1.4c-3.7-2.2-7.6-3.8-11.8-4.9c-5-1.3-10.2-1.8-15.4-1.4c-5.9,0.5-11.7,2.3-16.9,5.2
		c-5.5,3.1-10.6,7.3-16,11.5c-2.8,2.2-5.6,4.1-8.6,5.9c-3.1,1.9-6.5,3.3-10,4.2c-3.5,0.9-7.2,1.2-10.8,0.9c-3.5-0.3-7-1-10.3-2
		c-6.3-2-12.4-4.6-18.2-7.8c-5.6-2.9-10.9-5.7-16.1-7.8c-4.8-2.1-9.8-3.4-15-4c-4.3-0.4-8.6-0.1-12.7,1c-3.1,0.8-6.1,2.1-8.8,3.9
		c-1.7,1.2-3.2,2.6-4.5,4.1l-1,1.3c-0.2,0.3-0.3,0.4-0.3,0.4s0.1-0.2,0.3-0.5l0.9-1.3c1.3-1.6,2.8-3,4.5-4.2
		c2.7-1.9,5.6-3.3,8.8-4.1c4.2-1.1,8.5-1.5,12.8-1c5.2,0.6,10.3,1.9,15.1,4c5.2,2.1,10.5,4.9,16.1,7.8c5.8,3.1,11.8,5.7,18.1,7.7
		c3.3,1,6.7,1.7,10.2,1.9c3.6,0.3,7.1,0,10.6-0.9c3.5-0.9,6.8-2.3,9.8-4.1c3-1.8,5.9-3.7,8.6-5.9c5.4-4.1,10.6-8.4,16.1-11.5
		c1.4-0.8,2.8-1.5,4.2-2c0.7-0.3,1.4-0.6,2.1-0.9l2.2-0.7c2.8-0.8,5.7-1.4,8.6-1.6c5.2-0.4,10.5,0.1,15.5,1.4
		c4.2,1.1,8.1,2.8,11.8,5l2.3,1.5l2,1.5l1,0.7l0.8,0.8l1.6,1.4c1.5,1.4,2.8,3,4,4.6c0.4,0.6,0.7,1,0.9,1.3L658,286.5z"/>
	<path class="st4" d="M634,332.1c-0.2,0.1-0.3,0.1-0.5,0.2l-1.4,0.5c-0.7,0.3-1.5,0.5-2.3,0.7c-0.9,0.2-1.9,0.5-3.1,0.7l-1.8,0.3
		c-0.6,0.1-1.3,0.2-2,0.3c-1.4,0.2-2.8,0.3-4.4,0.4c-3.3,0.1-6.7-0.1-10-0.5c-3.3-0.5-6.6-1.3-9.8-2.3c-1.5-0.5-2.8-1-4.1-1.6
		c-0.6-0.3-1.2-0.5-1.8-0.8l-1.6-0.8c-1.1-0.5-2-1.1-2.8-1.5c-0.7-0.4-1.4-0.8-2-1.3l-1.2-0.9c-0.2-0.1-0.3-0.2-0.4-0.3
		c0.2,0.1,0.3,0.1,0.5,0.2l1.3,0.8c0.5,0.4,1.2,0.8,2,1.2s1.7,1,2.8,1.5l1.6,0.8c0.6,0.3,1.2,0.5,1.8,0.8c1.2,0.5,2.6,1,4.1,1.5
		c3.2,1,6.5,1.8,9.8,2.3c3.3,0.4,6.6,0.6,10,0.5c1.5-0.1,3-0.1,4.3-0.3c0.7-0.1,1.3-0.1,2-0.2l1.8-0.3c1.2-0.2,2.2-0.4,3.1-0.6
		s1.7-0.4,2.3-0.6l1.5-0.4C633.7,332.2,633.8,332.1,634,332.1z"/>
	<path class="st7" d="M425.7,185.7l-7-1.1l-43.4-14l-25.4-7.3c-7.2-2.6-15.2-2.1-22,1.5c-12,6.1-45.1,36.9-45.1,36.9l23.8,24.5
		l-11.2,49.7c12.5,35.7,37.1,39.8,37.1,39.8c12,0.5,24-1.5,35.2-5.8c22.8-8.7,46.7-29.1,49.7-37.8c1.8-5.3,3.3-16.3,4.5-28.8
		l36.1-14.7l9.8-50L425.7,185.7z"/>
	<path class="st8" d="M373,274.1c0,0-0.1,0.1-0.4,0.3s-0.6,0.5-1.1,0.8c-1.4,0.9-2.8,1.7-4.3,2.3c-10.4,4.4-22.4,1.8-30-6.5
		c-1.1-1.2-2.1-2.5-3-3.9c-0.3-0.5-0.5-0.9-0.6-1.2c-0.1-0.1-0.1-0.3-0.2-0.4c0.4,0.5,0.7,1,1,1.5c0.9,1.4,1.9,2.6,3.1,3.8
		c7.6,8,19.3,10.6,29.5,6.5c1.5-0.6,3-1.3,4.4-2.2C372.4,274.4,372.9,274.1,373,274.1z"/>
	<path class="st8" d="M359.2,172.6c0,0.1,0.1,0.2,0.1,0.2c0,0.2,0.1,0.4,0.2,0.7c0.1,0.6,0.4,1.6,0.6,2.7c0.7,3.4,1.2,6.8,1.4,10.2
		c0.1,2.4,0,4.8-0.4,7.1c-0.5,2.7-1.4,5.3-2.9,7.7c-1.6,2.6-3.6,4.9-5.9,6.9c-2.4,2.1-5,4-7.6,6.1c-5.6,4.2-11.1,8.1-16,11.5
		s-9.2,6.6-12.7,9.2l-0.1,0.1l-0.1-0.1c-2.4-1.9-4.8-4-6.9-6.2c-0.6-0.6-1.1-1.2-1.6-1.9c-0.2-0.2-0.3-0.4-0.4-0.5
		c0-0.1-0.1-0.1-0.1-0.2c0,0,0.2,0.2,0.5,0.7c0.5,0.6,1.1,1.3,1.7,1.9c2.2,2.2,4.6,4.2,7,6.1h-0.2c3.4-2.7,7.7-5.8,12.6-9.3
		s10.4-7.3,16-11.6c2.6-2,5.2-3.9,7.6-6c2.3-1.9,4.3-4.2,5.9-6.7c1.4-2.3,2.3-4.9,2.8-7.5c0.4-2.3,0.6-4.7,0.5-7.1
		c-0.2-3.4-0.6-6.8-1.3-10.2c-0.2-1.2-0.4-2.1-0.5-2.8c-0.1-0.3-0.1-0.5-0.1-0.7C359.2,172.8,359.2,172.7,359.2,172.6z"/>
	<path class="st8" d="M547.6,195.1c10.2-8.7,13.6-24.4,8-36.5l-14.3-1.5c7.4-4.1,11.5-12.2,10.4-20.6c-8.1,8.4-20.7,10.7-31.2,5.8
		c-6.7-3.3-12.1-9.4-19.4-10.7c-6.7-1.2-13.2,2-19.6,4.2s-14.1,3.5-19.4-0.7c-4.2-3.4-5.5-9.2-5.2-14.6s1.8-10.6,2.1-15.9
		c0.5-10.7-3.8-21-11.6-28.2c-4.4-14.5-19.7-22.7-34.3-18.3c-3.2,1-6.2,2.5-8.9,4.6c-3.1,2.4-5.8,5.6-9.3,7.3c-4,2-8.7,2-13,3
		s-8.9,3.9-9.4,8.4l-1.8,9.1c-0.3,0.7-0.6,1.3-1,1.9c-3.7,6.5-11.2,10.7-12.9,18c-0.9,4.1,0.2,8.5-1.1,12.4
		c-1.8,5.2-7.4,8.1-10,12.9c-3.6,6.6-1.1,18.3,4.6,23.2s17.5,10.1,24.9,11.7c2-7.7,3.8-15.9,5.5-24.3c3,2.9,6.2,5.6,9.3,8.4
		c8.2,7.1,16.6,14.4,22.3,23.7c10.8,17.6,11,41,24.6,56.5c2.7,3,5.9,5.8,9.8,6.9s8.5,0.5,11.4-2.3c3.4-3.4,3.8-9.1,7.6-12
		c5-4,12.3-0.8,17.6,2.6c3.9,2.5,7.8,5.1,12.2,6.5s9.5,1.3,13.2-1.4s5.4-8.4,2.7-12.1c-1.1-1.5-2.7-2.5-3.8-4s-1.4-3.9,0.1-5
		s3.9,0,5.6,1c16,9.4,36.5,4,45.9-11.9c1.2-2,2.1-4,2.8-6.2C557.2,197.6,552.2,197,547.6,195.1z"/>
	<path class="st8" d="M538.6,116.7c0.5,0.3,0.9,0.7,1.3,1.1c1.2,1.1,2.2,2.4,3,3.9c0.5,1.1,0.9,2.2,1.1,3.4c0.5,3.1-0.9,6.2-3.6,7.9
		c-0.8,0.5-1.6,0.8-2.5,0.9c-1,0.1-1.9,0-2.8-0.4c-3.7-1.5-5.6-5.8-9.6-7.7c-3.9-2.1-8.9-2.2-13.7-1.1s-9.5,3.7-14.2,6.4
		s-9.8,5.5-15.5,6.5c-2.8,0.6-5.8,0.5-8.6-0.1c-1.4-0.3-2.7-0.8-4-1.5c-1.2-0.7-2.4-1.5-3.4-2.5c-1.9-1.9-3.4-4.3-4.3-6.8
		c-0.9-2.4-1.5-5-1.8-7.5c-0.5-5-0.1-9.8-0.1-14.2c0.2-4.1-0.2-8.2-1.2-12.2c-0.5-1.7-1.1-3.4-1.9-5c-0.7-1.4-1.5-2.8-2.4-4.1
		c-1.5-2.1-3.2-4-5.1-5.7c-1.2-1.1-2.5-2-3.9-2.9l-1.1-0.7l-0.4-0.2c0.1,0.1,0.3,0.1,0.4,0.2l1.1,0.6c3.6,2.2,6.8,5.1,9.2,8.5
		c2,2.8,3.5,5.9,4.5,9.2c1,4,1.5,8.2,1.3,12.3c0,4.5-0.4,9.2,0.1,14.2c0.3,2.5,0.9,5,1.8,7.4c0.9,2.5,2.3,4.7,4.2,6.6
		c1,0.9,2.1,1.8,3.2,2.4c1.2,0.6,2.5,1.1,3.9,1.4c2.8,0.6,5.6,0.6,8.4,0.1c5.7-1,10.7-3.8,15.4-6.4s9.4-5.3,14.4-6.4
		c2.4-0.6,4.9-0.8,7.3-0.6c1.2,0.1,2.3,0.3,3.5,0.6c1.1,0.3,2.2,0.7,3.2,1.2c4.2,2,6,6.3,9.5,7.8c1.6,0.7,3.5,0.5,5-0.4
		c1.3-0.8,2.4-2.1,3-3.6c0.5-1.3,0.7-2.6,0.5-4c-0.2-1.1-0.5-2.3-1-3.3c-0.7-1.4-1.7-2.8-2.8-3.9c-0.4-0.4-0.7-0.7-0.9-0.9
		S538.6,116.7,538.6,116.7z"/>
	<path class="st8" d="M375.2,174.4c0,0,0-0.1-0.1-0.4c-0.1-0.4-0.1-0.9-0.3-1.3c-0.5-1.7-1.3-3.2-2.5-4.5c-1.9-2-4.1-3.6-6.6-4.6
		c-2.9-1.3-6.5-2-10.4-2.7s-8.4-1.6-12.4-4.3c-8.4-5.7-10.7-17.2-5-25.6c0.6-0.9,1.3-1.7,2-2.5c4.1-4.2,10-6.4,14.8-10.1
		c1.2-0.9,2.2-2,3.1-3.2c0.9-1.2,1.5-2.6,1.9-4c0.8-2.8,0.7-5.8,1-8.7c0.1-1.4,0.4-2.9,0.8-4.3c0.4-1.4,1.2-2.6,2.1-3.7
		c2-2,4.4-3.4,7.1-4c2.6-0.8,5.1-1.2,7.5-1.9c2.4-0.6,4.6-1.6,6.6-3c1.8-1.3,3.5-2.9,4.9-4.6c1.3-1.6,2.6-3.2,3.7-4.9
		c2.2-3.3,4.1-6.5,6.1-9c1.7-2.2,3.6-4.1,5.8-5.8c1.4-1,3-1.8,4.6-2.4c0.6-0.2,1.2-0.3,1.8-0.4c0,0-0.6,0.1-1.7,0.5
		c-1.6,0.6-3.1,1.4-4.5,2.4c-2.2,1.6-4.1,3.6-5.7,5.8c-2,2.5-3.8,5.6-6,9c-1.1,1.8-2.4,3.5-3.7,5.1c-1.4,1.8-3.1,3.4-5,4.7
		c-2,1.4-4.3,2.4-6.7,3c-2.4,0.7-5,1.2-7.5,1.9c-2.6,0.6-5,1.9-6.9,3.9c-0.9,1-1.6,2.3-2,3.6c-0.4,1.4-0.7,2.7-0.8,4.2
		c-0.3,2.9-0.2,5.9-1,8.8c-0.4,1.5-1.1,2.9-2,4.1c-0.9,1.2-2,2.3-3.2,3.3c-2.4,1.8-5,3.4-7.7,4.9c-2.5,1.4-4.9,3.1-7,5.1
		c-6.9,7.1-6.7,18.5,0.4,25.5c0.7,0.7,1.5,1.4,2.4,1.9c3.9,2.6,8.3,3.5,12.2,4.3s7.6,1.4,10.5,2.8c2.5,1.1,4.8,2.7,6.7,4.7
		c1.2,1.3,2,2.9,2.4,4.6c0.1,0.4,0.2,0.9,0.2,1.3C375.2,174.3,375.2,174.4,375.2,174.4z"/>
	<path class="st7" d="M455,84.6c-0.3,0-0.5-0.1-0.8-0.2c-0.7-0.2-1.4-0.5-2-0.8c-4.3-2-8-5.2-10.7-9.2c-0.4-0.6-0.8-1.2-1.1-1.9
		c-0.1-0.2-0.2-0.5-0.3-0.7c0.1,0,0.6,0.9,1.7,2.4c2.8,3.8,6.4,6.9,10.5,9.1C454,84.1,455.1,84.6,455,84.6z"/>
	<path class="st7" d="M488.3,152.8c0,0-0.6-0.2-1.8-0.4c-1.6-0.3-3.2-0.5-4.9-0.6c-2.4-0.1-4.8,0-7.3,0.2c-2.7,0.2-5.8,0.5-9,0.4
		c-3,0-6-0.6-8.8-1.7c-2.3-1-4.3-2.4-5.9-4.3c-1.1-1.3-1.9-2.8-2.3-4.4c-0.1-0.4-0.2-0.9-0.2-1.3c0-0.2,0-0.3,0-0.5
		c0.1,0,0.1,0.6,0.4,1.8c0.5,1.6,1.3,3,2.4,4.2c1.6,1.8,3.6,3.2,5.8,4.1c2.8,1,5.7,1.6,8.6,1.6c3.1,0.1,6.2-0.2,8.9-0.4
		c2.4-0.2,4.9-0.2,7.3-0.1c1.7,0.1,3.3,0.4,4.9,0.8c0.4,0.1,0.9,0.3,1.3,0.4C488,152.7,488.1,152.8,488.3,152.8z"/>
	<path class="st7" d="M547.2,198.3c0,0-0.1,0-0.3,0.1c-0.3,0.1-0.6,0.2-0.9,0.3c-1.2,0.3-2.4,0.2-3.6-0.2c-1.8-0.6-3.5-1.6-4.8-3
		c-1.7-1.9-3-4.1-3.9-6.5c-1.1-2.6-2-5.5-3.8-8.2c-0.9-1.4-2-2.7-3.2-3.9c-1.3-1.2-2.7-2.3-4.2-3.2c-6.3-3.8-14.5-5.3-23-4.8
		s-16.4,2.1-23.8,2.6c-6.5,0.7-13.1,0-19.4-2c-4.2-1.4-8.1-3.8-11.1-7c-0.5-0.5-0.9-1-1.3-1.6c-0.3-0.4-0.6-0.8-0.9-1.2
		c-0.2-0.3-0.4-0.6-0.5-0.8c-0.1-0.1-0.1-0.2-0.1-0.3c0,0,0.1,0.1,0.2,0.2l0.5,0.8c0.3,0.4,0.6,0.8,0.9,1.2c0.4,0.5,0.9,1.1,1.4,1.6
		c3.1,3.1,6.9,5.4,11.1,6.8c6.2,1.9,12.8,2.6,19.2,1.9c7.3-0.5,15.3-2.2,23.8-2.7s16.8,1.1,23.2,4.9c1.5,0.9,3,2,4.3,3.3
		c1.2,1.2,2.3,2.5,3.2,4c1.8,2.8,2.7,5.8,3.8,8.3c0.8,2.4,2.1,4.5,3.7,6.4c1.3,1.4,2.9,2.4,4.7,3c1.1,0.4,2.3,0.5,3.5,0.2
		C546.8,198.5,547.2,198.3,547.2,198.3z"/>
	<path class="st9" d="M389.9,84.6c-3.9-0.1-7.2,2.8-7.6,6.7l0,0l-8.1,84.2c-1.4,11.8,14.1,37.2,26.8,38.6l0,0
		c12.8,1.4,14.1-4.8,15.7-16c2.8-18.7,3.7-25.8,3.7-25.7s16.5-0.6,22.6-21.2c3-10.3,4.8-27.5,5.8-41.7c0.9-12.8-5.5-29.4-18.2-29.7
		L389.9,84.6z"/>
	<path class="st8" d="M443.2,120.7c-0.2,1.5-1.5,2.5-3,2.4c-1.4-0.1-2.5-1.3-2.5-2.7c0,0,0,0,0-0.1c0.2-1.5,1.5-2.5,3-2.4
		C442.2,118,443.3,119.2,443.2,120.7C443.2,120.7,443.2,120.7,443.2,120.7z"/>
	<path class="st8" d="M444.4,115.3c-0.3,0.4-2.5-1-5.4-0.8s-5,1.8-5.3,1.5c-0.2-0.1,0.1-0.8,1-1.6c1.2-1,2.7-1.5,4.2-1.6
		c1.5-0.1,3,0.3,4.3,1.1C444.2,114.5,444.5,115.1,444.4,115.3z"/>
	<path class="st8" d="M417.5,122.2c-0.4,0.4-2.4-1.2-5.3-1.3s-5.1,1.3-5.4,1c-0.1-0.2,0.2-0.8,1.2-1.4c1.3-0.8,2.8-1.3,4.4-1.2
		c1.5,0,3,0.6,4.2,1.5C417.4,121.4,417.6,122.1,417.5,122.2z"/>
	<path class="st8" d="M422.9,137.7c0-0.2,1.9-0.2,4.8-0.2c0.8,0,1.5,0,1.7-0.5c0.2-0.8,0.1-1.5-0.2-2.3c-0.5-1.9-0.9-3.9-1.5-6
		c-2-8.4-3.3-15.4-3-15.4s2.2,6.7,4.2,15.2c0.5,2.1,0.9,4.1,1.4,6c0.4,1,0.4,2,0,3c-0.3,0.5-0.8,0.8-1.4,0.9c-0.4,0.1-0.9,0.1-1.3,0
		C424.8,138.1,422.9,137.9,422.9,137.7z"/>
	<path class="st10" d="M420.4,172.4c-9.9-1.2-19.4-5.1-27.2-11.3c0,0,5.2,15.4,26.6,16.2L420.4,172.4z"/>
	<path class="st8" d="M417.9,117.2c-0.5,0.7-3.2-0.3-6.7-0.7s-6.4-0.1-6.6-0.9c-0.1-0.4,0.5-1,1.8-1.5c1.7-0.6,3.5-0.8,5.2-0.6
		c1.8,0.2,3.5,0.8,4.9,1.8C417.6,116.1,418.1,116.9,417.9,117.2z"/>
	<path class="st8" d="M443.9,111.3c-0.5,0.7-2.5,0.1-5,0.2s-4.5,0.7-5,0c-0.2-0.3,0.1-1,0.9-1.7c1.2-0.8,2.6-1.3,4-1.3
		c1.4,0,2.8,0.4,4,1.1C443.8,110.3,444.1,111,443.9,111.3z"/>
	<path class="st10" d="M415.9,143c1.3-0.9,3-1.3,4.6-1c0.8,0.1,1.6,0.5,2.1,1.1c0.6,0.9,0.9,2,0.8,3.1c0,0.6-0.1,1.3-0.3,1.9
		c-0.2,0.6-0.6,1.1-1.2,1.4c-0.6,0.2-1.3,0.3-2,0.1c-1.1-0.1-2.2-0.5-3.1-1.1c-0.9-0.6-1.6-1.6-1.7-2.7c-0.1-1.1,0.5-2.2,1.5-2.7"/>
	<path class="st8" d="M423.8,149.5c-0.2,0.1-0.6-0.6-1.3-1.4c-1.8-2.3-4.4-3.8-7.3-4.1c-1.1-0.2-1.9-0.2-1.9-0.4s0.6-0.6,1.9-0.7
		c1.7-0.1,3.4,0.2,4.8,1.1c1.5,0.8,2.6,2.1,3.4,3.6C423.9,148.6,423.9,149.4,423.8,149.5z"/>
	<path class="st8" d="M373.1,169.7c7-1.4,12.3-7.4,14.7-14s2.3-13.9,1.6-21c0-0.9-0.3-1.8-1-2.5c-1-0.8-2.6-0.1-3.7,0.5
		c-4.4,2.7-8.6,5.6-12.6,8.8c-3.7,3-7.4,6.4-8.8,11c-2.2,7,2.4,15.4,9.5,17.2"/>
	<path class="st9" d="M532.8,168.1l-32.8-52.7L491,96.8c0,0-2.9-3.8-5.9-7.1c-4.9-5.4-9.8-1.2-9.8-1.2c-0.6-1.3-1.9-2.1-3.3-2
		c-1.8,0-3.5,0.9-4.5,2.3c0,0-1.3-1.5-5.1-1.7c-0.8,0-1.7,0.3-2.4,0.8c-1.2-1.1-3.5-2.6-5.6-1.8c-1.7,0.6-11.9,8.4-14.4,12.3
		c-1.2,1.9,1.1,4.4,4.2,3.3c1.3-0.4,2.5-0.9,3.7-1.5c0.9-0.5,1.8-1.2,2.5-2c0,0-2.6,4.5,0,5.3c1.7,0.3,3.5-0.1,4.8-1.2
		c1-0.8,2.1-1.9,3.2-2.9l-0.1,0.2c-1.4,2.1,2.3,5.2,4.1,3.9c0.8-0.6,1.6-1.2,2.4-1.9c4.2,3-1.6,6.9-4,6.7c-3.8-0.3-7.5-0.3-11.3,0
		c-2.1,0.2-4,0.7-5.2,1.9c-1.4,1.4,0.1,4.4,2,4.7c3.6,0.6,8.2,1.4,12.9,2.6c5.6,1.4,20.3,6.2,20.3,6.2l1.4,1.2l19.9,48.6l-34.1,7.2
		l-7.6,43.2l61.6-16.7C534.6,199.7,541.2,181.3,532.8,168.1z"/>
	<path class="st10" d="M479.6,123.4c-0.3,0-0.5-0.1-0.8-0.2l-2.2-0.6l-8.1-2.4l-5.6-1.7c-2-0.6-4.1-1.3-6.4-1.8
		c-2.4-0.6-4.8-1.1-7.2-1.5c-1.3,0-2.7-0.3-3.9-0.7c-0.3-0.2-0.6-0.4-0.9-0.6c-0.1-0.2-0.2-0.3-0.3-0.5l-0.1-0.5
		c-0.1-0.7-0.1-1.4,0.1-2.1c0.2-0.7,0.8-1.3,1.4-1.6c0.6-0.3,1.2-0.6,1.9-0.8c1.3-0.4,2.6-0.5,4-0.5c2.6,0,5,0.4,7.4,0.3
		c1.1,0,2.3-0.1,3.4-0.3c1.1-0.2,2.1-0.5,3.1-0.7c1.9-0.6,3.9-0.8,5.8-0.8c1.6,0.2,3.2,0.6,4.7,1.2c1.1,0.5,2.2,1,3.3,1.6
		c0.9,0.5,1.5,0.9,2,1.2c0.2,0.1,0.5,0.3,0.7,0.4c-0.3-0.1-0.5-0.2-0.7-0.4l-2-1.1c-1.1-0.6-2.2-1.1-3.3-1.5c-1.5-0.6-3-1-4.6-1.1
		c-1.9-0.1-3.9,0.2-5.7,0.8c-1,0.3-2.1,0.6-3.2,0.8c-1.1,0.2-2.3,0.3-3.5,0.4c-2.4,0.1-4.9-0.2-7.4-0.3c-1.3,0-2.6,0.1-3.8,0.5
		c-1.2,0.4-2.6,0.8-3,2.1c-0.2,0.6-0.2,1.3-0.1,1.9l0.1,0.5c0,0.1,0.1,0.2,0.2,0.3c0.2,0.2,0.4,0.4,0.7,0.5c1.2,0.4,2.5,0.6,3.8,0.7
		c2.5,0.4,4.9,0.9,7.3,1.5c2.3,0.6,4.4,1.2,6.4,1.9l5.6,1.8l8.1,2.6l2.2,0.7C479.1,123.2,479.3,123.3,479.6,123.4z"/>
	<path class="st10" d="M454.3,86.1c0.1,0.1-1.5,1-3.9,2.8c-1.4,1-2.7,2.2-3.9,3.4c-1.4,1.4-2.9,3-4.6,4.4c-0.9,0.6-1.5,1.5-1.8,2.5
		c-0.3,0.9,0.3,1.9,1.2,2.1c0.9,0.2,1.8,0.3,2.6,0.1c0.8-0.1,1.6-0.4,2.3-0.7c1.5-0.6,2.8-1.4,4-2.5c-0.2,0.4-0.5,0.7-0.9,0.9
		c-0.9,0.8-1.9,1.4-3,1.9c-0.8,0.3-1.5,0.6-2.4,0.7c-0.9,0.2-1.9,0.2-2.9,0c-1.2-0.3-1.9-1.5-1.5-2.7c0.3-1.1,1-2.1,2-2.8
		c1.7-1.5,3.2-3,4.6-4.4c1.2-1.2,2.6-2.3,4-3.3c1.2-0.9,2.2-1.5,3-1.9C453.5,86.5,453.9,86.3,454.3,86.1z"/>
	<path class="st10" d="M466.8,90.3c-0.4,0.5-0.7,0.9-1.2,1.4l-3.3,3.6l-4.9,5.3c-1,1.1-2.2,2-3.5,2.6c-0.7,0.4-1.5,0.6-2.3,0.6
		c-0.9,0-1.7-0.3-2.3-0.9c-0.3-0.3-0.5-0.8-0.5-1.2c0-0.4,0-0.9,0.1-1.3c0.2-0.8,0.6-1.5,1.1-2.2l0,0l0,0c1.8-1.9,3.4-3.6,4.9-5.2
		s2.9-2.9,4.1-4c0.5-0.5,1.1-1,1.7-1.4c0.5-0.2,1.1-0.3,1.6-0.4c0.9-0.1,1.4,0,1.4,0.1c-0.4-0.1-0.9,0-1.3,0.1c-0.5,0-1,0.2-1.5,0.4
		c-0.6,0.4-1.1,0.9-1.6,1.4c-1.1,1.1-2.5,2.5-4,4.1s-3.1,3.4-4.8,5.3l0,0c-0.4,0.6-0.8,1.3-1,2c-0.1,0.4-0.1,0.7-0.1,1.1
		c0,0.4,0.2,0.7,0.4,0.9c0.5,0.5,1.2,0.8,1.9,0.8c0.7,0,1.4-0.2,2.1-0.5c1.2-0.6,2.4-1.5,3.3-2.5l5-5.2l3.4-3.5l1-0.9
		C466.6,90.4,466.8,90.2,466.8,90.3z"/>
	<path class="st10" d="M482.1,95.1c0,0,0,0.3-0.4,0.6c-0.9,0.7-2.3,0.6-3-0.4c0-0.1-0.1-0.1-0.1-0.2c-0.2-0.4-0.2-0.7-0.2-0.7
		s0.2,0.2,0.5,0.4c0.3,0.3,0.8,0.6,1.2,0.7c0.5,0.1,1,0,1.4-0.2C481.9,95.2,482.1,95,482.1,95.1z"/>
	<path class="st10" d="M483.3,99.7c-0.1,0.1-0.9-0.7-1.5-1.8c-0.5-0.6-0.8-1.4-0.8-2.2c0.1-0.1,0.6,0.9,1.3,1.9
		C482.7,98.2,483.1,98.9,483.3,99.7z"/>
	<path class="st10" d="M485.5,117.5c-0.4-0.6-0.8-1.3-1-2.1c-0.6-1.8-0.8-3.6-0.8-5.5c0-1.9,0.4-3.7,1-5.4c0.2-0.7,0.5-1.4,1-2.1
		c-0.8,2.4-1.3,4.9-1.5,7.5C484.3,112.6,484.8,115.1,485.5,117.5z"/>
	<path class="st10" d="M512.5,186.8c-0.1,0-0.2-1.1-0.7-2.7c-0.3-0.9-0.7-1.9-1.2-2.8c-1.2-2.1-2.8-4-4.8-5.4
		c-0.8-0.6-1.7-1.1-2.6-1.5c-1.5-0.7-2.6-1-2.6-1.1c0.3,0,0.5,0,0.8,0.1c0.7,0.1,1.4,0.4,2,0.6c0.9,0.4,1.9,0.9,2.7,1.5
		c2.1,1.4,3.8,3.4,4.9,5.6c0.5,0.9,0.8,1.9,1.1,2.9c0.2,0.7,0.3,1.3,0.4,2C512.5,186.3,512.5,186.6,512.5,186.8z"/>
	<path class="st9" d="M398.1,283.1c-2.8-0.5-5.7-0.1-8.3,1.1c-4.5-2-9.9,1.4-9.9,1.4c-1.6-0.8-11.3,5.6-11.3,5.6l-12.1,5.7
		l-64.5-47.9l18.3-19l-25.6-26.7l-30,30.9c-3.7,4-5.8,9.1-6,14.5c-0.6,11.8,5.9,22.8,16.4,28l76,39c5.8-0.3,11.6-1.2,17.3-2.7
		c6.6-1.7,17.8-6.7,17.8-6.7s0,0.3,2,4.2c3.6,7,8.9-0.6,8.9-0.6c0.5,1.2,1.2,2.4,2.1,3.4c4.6,4.4,7.7-1.5,7.7-1.5s1.4,2.4,5.5,0.6
		s-0.6-14.1-0.6-14.1s1.4,2.7,4-0.7S402.4,284.1,398.1,283.1z"/>
	<path class="st10" d="M388.9,284.8c0.2-0.2,0.5-0.3,0.8-0.3c0.8-0.2,1.7-0.1,2.5,0.1c1.2,0.3,2.3,0.9,3.2,1.6
		c0.6,0.4,1.1,0.9,1.6,1.4c0.5,0.6,0.9,1.3,1.3,2c1.2,2.4,2.2,4.9,3,7.4c0.3,1,0.5,1.8,0.6,2.3c0.1,0.3,0.1,0.6,0.1,0.9
		c-0.1,0-0.4-1.2-1.1-3.1c-0.9-2.5-1.9-4.9-3.1-7.3c-0.3-0.7-0.7-1.3-1.2-1.9c-0.5-0.5-1-1-1.5-1.4c-0.9-0.7-1.9-1.3-3-1.7
		C391.1,284.6,390,284.6,388.9,284.8z"/>
	<path class="st10" d="M396.7,311.9c-0.2-0.3-0.4-0.7-0.6-1.1l-1.4-3.1c-1.2-2.6-2.9-6.1-4.6-10.2c-0.7-1.9-1.6-3.8-2.6-5.5
		c-0.9-1.3-2.2-2.4-3.7-3.1c-1-0.5-2.1-0.7-3.2-0.6c-0.8,0.1-1.2,0.3-1.2,0.3s0.1-0.1,0.3-0.2c0.3-0.1,0.6-0.2,0.9-0.3
		c1.1-0.2,2.3,0,3.4,0.4c1.6,0.7,3,1.8,4,3.2c1.1,1.7,2,3.6,2.7,5.5c1.6,4,3.3,7.6,4.5,10.2c0.5,1.3,1,2.4,1.3,3.1
		C396.5,311.1,396.6,311.5,396.7,311.9z"/>
	<path class="st10" d="M367.1,296.5c0.3-0.2,0.6-0.4,1-0.6l2.9-1.4c0.6-0.3,1.3-0.6,2-0.9c0.8-0.3,1.7-0.5,2.6-0.4
		c1,0.1,1.9,0.4,2.7,1c0.8,0.7,1.5,1.5,2,2.4c0.5,0.9,1,1.8,1.4,2.7s0.9,1.7,1.3,2.5c0.9,1.5,1.7,2.9,2.3,4.2c0.5,1,0.9,1.9,1.3,3
		c0.2,0.4,0.3,0.7,0.3,1.1c-0.1,0-0.6-1.5-1.9-3.9c-0.6-1.2-1.5-2.5-2.4-4.1c-0.5-0.8-0.9-1.6-1.3-2.5s-0.9-1.8-1.4-2.6
		c-0.5-0.8-1.1-1.6-1.9-2.2c-0.7-0.5-1.6-0.9-2.5-1c-0.8-0.1-1.6,0-2.4,0.3c-0.7,0.3-1.4,0.6-2,0.9l-2.9,1.3
		C367.8,296.3,367.5,296.4,367.1,296.5z"/>
	<path class="st10" d="M368.5,291.2c-0.3,0.2-0.6,0.4-0.9,0.5c-0.6,0.3-1.4,0.8-2.5,1.4c-2.1,1.1-5,2.6-8.3,4.3s-6.2,3.1-8.4,4.1
		l-2.6,1.2c-0.3,0.2-0.7,0.3-1,0.4c0.3-0.2,0.6-0.4,0.9-0.6c0.6-0.3,1.4-0.8,2.5-1.3c2.1-1.1,5-2.6,8.3-4.3s6.2-3.1,8.4-4.1
		c1.1-0.5,2-0.9,2.6-1.2C367.8,291.4,368.1,291.3,368.5,291.2z"/>
	<path class="st10" d="M292.7,249.1c-2.5-0.4-5.1-0.5-7.6-0.2c-2.5,0.4-5,1.1-7.4,2c0.6-0.5,1.3-0.9,2-1.1c1.7-0.7,3.5-1.2,5.3-1.4
		c1.8-0.2,3.7-0.2,5.5,0.1C291.3,248.5,292.1,248.7,292.7,249.1z"/>
	<path class="st8" d="M435.2,75.8c-16-0.2-31.9,1.4-47.5,5c-3.6,0.8-7.4,1.9-9.9,4.7c-2.6,2.9-3,7.1-3.4,11
		c-0.4,4.8-0.8,9.5-1.2,14.2c-0.7,1.2-1.4,2.3-2.3,3.4c-3.8,4.9-8.5,9-12,14.2s-5.3,12-2.5,17.5c1.7,3.3,4.8,5.7,7.1,8.7
		c3.9,5,5.1,11.5,7.4,17.4s6.3,12,12.6,13.2c3,0.6,6.1-0.1,9,0.4c4.5,0.6,8.2,3.6,11.8,6.4s7.4,5.6,11.9,6.1s9.6-2.6,9.7-7.1
		c-3.4,1.9-7.6,1.8-10.9-0.3c-2.6-1.7-4.3-4.5-6.6-6.7c-5.5-5.4-14.4-7.1-18.3-13.7c-3-5.3-1.8-11.9-0.5-17.8
		c1.2-5.1,2.4-10.7,0.9-15.6c0.1-0.8,0.2-1.6,0.2-2.4c0-5.3-2-10.9,0.4-15.6c3.2-6.2,12.6-6.9,15.9-13.1c1.9-3.6,1.2-8.1,3.3-11.6
		c2-3.3,5.9-4.8,9.6-5.6s7.6-1.2,10.9-3.1S436.7,79.3,435.2,75.8z"/>
	<path class="st8" d="M447.4,183.1c0,0.1-0.1,0.2-0.1,0.2l-0.5,0.7c-0.7,0.9-1.4,1.6-2.3,2.3c-1.4,1.1-2.9,1.9-4.6,2.4
		c-2.2,0.8-4.5,1-6.8,0.8c-2.8-0.3-5.5-1.4-7.7-3.1c-2.4-1.8-4.5-4.3-7.2-6.2c-1.3-1-2.9-1.7-4.6-1.9c-1.8-0.1-3.5,0.2-5.1,0.9
		c-1.7,0.8-3.5,1.4-5.3,1.8c-2,0.3-4-0.1-5.7-1c-1.7-0.9-3.3-2-4.8-3.2c-1.5-1.1-2.9-2.3-4.2-3.7c-1.3-1.3-2.3-2.8-3-4.5
		c-0.6-1.7-0.7-3.5-0.3-5.2c0.4-1.6,0.9-3.2,1.5-4.7c0.6-1.5,1.1-2.9,1.5-4.3c0.8-2.6,1.4-5.3,1.9-8c0.6-3.9,0.8-7.9,0.6-11.9
		c-0.1-1.4-0.1-2.5-0.2-3.2c0-0.4,0-0.6-0.1-0.8c0-0.1,0-0.2,0-0.3c0,0.1,0.1,0.2,0.1,0.3l0.1,0.8c0.1,0.7,0.2,1.8,0.3,3.2
		c0.3,4,0.1,8-0.5,12c-0.4,2.7-1,5.5-1.8,8.1c-0.4,1.4-0.9,2.9-1.5,4.4c-0.6,1.5-1.1,3-1.5,4.6c-0.4,1.6-0.2,3.4,0.3,4.9
		c0.7,1.6,1.6,3.1,2.9,4.3c1.3,1.3,2.7,2.5,4.2,3.6c1.5,1.2,3,2.2,4.7,3.1c1.6,0.9,3.5,1.3,5.4,1c1.8-0.4,3.5-1,5.2-1.8
		c1.7-0.8,3.5-1.1,5.4-0.9c1.7,0.3,3.4,1,4.8,2c2.7,2,4.8,4.4,7.2,6.2c2.1,1.7,4.7,2.8,7.4,3.1c4,0.4,8-0.6,11.2-3
		C445.4,185.4,446.5,184.3,447.4,183.1z"/>
	<path class="st7" d="M347.5,151.3c-0.3-0.4-0.6-0.7-0.8-1.1c-0.7-1.1-1.2-2.4-1.4-3.6c-0.4-2-0.4-4.1,0.1-6.2
		c0.6-2.7,1.8-5.2,3.5-7.4c2.1-2.6,4.5-4.9,7.2-6.8c2.9-2.1,6.1-4.1,9.4-6.4c3.5-2.3,6.5-5.3,8.9-8.6c1.2-1.9,2.1-3.9,2.7-6
		c0.6-2.1,1.1-4.4,1.6-6.6c0.5-2.3,1.1-4.5,2-6.6c0.9-2.1,2.2-3.9,3.9-5.4c1.7-1.4,3.6-2.5,5.7-3.1c2-0.6,4-1,6.1-1.2
		c3.8-0.2,7.6-0.1,11.4,0.4c3.3,0.4,6.6,0.4,9.9,0.1c2.7-0.3,5.3-1,7.7-2.3c1.8-0.9,3.4-2.2,4.7-3.8c0.8-1,1.5-2.1,1.9-3.3
		c0.3-0.8,0.4-1.3,0.4-1.3c-0.1,0.5-0.2,0.9-0.3,1.3c-0.4,1.2-1,2.4-1.9,3.4c-1.3,1.6-2.9,3-4.8,4c-2.4,1.3-5.1,2.1-7.8,2.4
		c-3.3,0.3-6.6,0.3-9.9-0.1c-3.8-0.4-7.5-0.5-11.3-0.3c-2,0.2-4.1,0.6-6,1.2c-2,0.6-3.9,1.7-5.5,3c-1.6,1.4-2.9,3.2-3.8,5.3
		c-0.9,2.1-1.5,4.3-2,6.5c-0.5,2.2-1,4.5-1.6,6.7c-0.6,2.2-1.5,4.2-2.8,6.1c-2.4,3.4-5.5,6.4-9,8.8c-3.3,2.3-6.5,4.3-9.4,6.4
		c-2.7,1.9-5.1,4.1-7.2,6.7c-1.7,2.1-2.9,4.6-3.5,7.2c-0.5,2-0.5,4.1-0.2,6.1C345.7,148.3,346.4,149.9,347.5,151.3z"/>
	<path class="st7" d="M350.4,156.6c-1.1-0.9-2.1-1.9-3.1-2.9c-1.1-1.2-2-2.7-2.7-4.2c-0.4-1-0.6-2.1-0.5-3.1
		c0.1-1.2,0.6-2.3,1.4-3.3c1.6-2,4.3-3.1,7.1-3.6c1.4-0.3,2.9-0.5,4.4-0.9c1.5-0.3,3-0.9,4.3-1.8c1.3-1,2.4-2.2,3.1-3.7
		c0.8-1.5,1.4-3.1,1.9-4.8c0.5-1.7,1.2-3.4,2-5c0.9-1.7,2.2-3.1,3.8-4.1c1.6-0.9,3.4-1.6,5.2-2c1.8-0.5,3.5-0.8,5.2-1.4
		c3.2-1.1,5.9-3.1,7.9-5.9c1.8-2.4,3.5-5,5-7.7c1.3-2.4,2.8-4.6,4.5-6.6c1.4-1.7,3.2-3.1,5.1-4.2c1.5-0.8,3.1-1.3,4.8-1.4
		c1.1-0.1,2.1,0,3.2,0.3c0.3,0.1,0.7,0.2,1,0.4c0,0-0.4-0.1-1.1-0.3c-1-0.2-2.1-0.3-3.1-0.2c-1.6,0.2-3.2,0.7-4.7,1.5
		c-1.9,1.1-3.6,2.5-5,4.2c-1.7,2.1-3.1,4.3-4.4,6.6c-1.4,2.7-3.1,5.3-4.9,7.8c-1,1.3-2.2,2.5-3.5,3.6c-1.4,1.1-2.9,1.9-4.6,2.4
		c-1.7,0.6-3.5,0.9-5.2,1.4c-1.8,0.4-3.5,1.1-5.1,2c-1.5,1-2.8,2.4-3.6,4c-0.8,1.6-1.5,3.2-2,4.9c-0.5,1.7-1.2,3.3-2,4.8
		c-0.8,1.5-1.9,2.8-3.3,3.8c-1.4,0.9-2.9,1.5-4.4,1.8c-1.5,0.4-3,0.6-4.4,0.9c-2.8,0.6-5.4,1.6-6.9,3.4c-0.7,0.9-1.2,1.9-1.3,3.1
		c-0.1,1,0,2,0.4,3c0.6,1.5,1.5,3,2.5,4.2c0.9,1,1.6,1.8,2.1,2.3l0.6,0.6C350.3,156.5,350.4,156.6,350.4,156.6z"/>
	<path class="st10" d="M473.5,92c-0.1,0.3-0.3,0.5-0.5,0.8c-0.4,0.5-0.9,1.2-1.6,2c-1.4,1.6-3.3,3.8-5.6,6.1
		c-1.1,1.1-2.2,2.4-3.7,2.8c-0.7,0.2-1.4,0.2-2.1,0c-0.6-0.2-1.1-0.7-1.4-1.2c-0.4-0.8-0.5-1.7-0.4-2.5c0-0.3,0.1-0.6,0.2-0.9
		c0,0.3,0,0.6,0,0.9c-0.1,0.8,0.1,1.6,0.5,2.3c0.3,0.5,0.7,0.8,1.2,1c0.6,0.2,1.2,0.2,1.8,0c1.3-0.4,2.3-1.6,3.5-2.8
		c2.3-2.3,4.3-4.4,5.7-6C471.9,93.6,472.7,92.8,473.5,92z"/>
	<path class="st10" d="M481.1,92c-0.2,0.3-0.4,0.6-0.6,0.8c-0.4,0.5-1,1.2-1.8,2l-2.7,2.9l-1.6,1.7c-0.6,0.6-1.2,1.2-1.8,1.8
		c-0.7,0.6-1.5,0.9-2.4,1c-0.9,0.1-1.7-0.3-2.3-1c-0.2-0.3-0.4-0.7-0.4-1.2c0-0.4,0.1-0.7,0.3-1.1c0.4-0.6,0.8-1.1,1.1-1.5
		c0.7-0.9,1.2-1.6,1.6-2.1c0.2-0.3,0.4-0.5,0.6-0.7c-0.1,0.3-0.3,0.6-0.5,0.9c-0.3,0.5-0.8,1.3-1.5,2.2c-0.3,0.5-0.7,1-1,1.5
		c-0.4,0.5-0.4,1.2,0,1.7c0.4,0.6,1.1,0.9,1.9,0.8c0.8-0.1,1.5-0.4,2.2-0.9c0.7-0.5,1.3-1.1,1.8-1.7l1.6-1.7l2.8-2.8
		c0.8-0.8,1.4-1.4,1.9-1.9C480.6,92.4,480.9,92.2,481.1,92z"/>
</g>
<g id="Plants--inject-2">
	<path class="st2" d="M585.5,398.1c2.9-6.4,10.5-9.2,16.8-6.2c1.4,0.6,2.7,1.5,3.8,2.7c-2.1,3.4-5.4,5.9-9.2,7.1
		C592.8,403.1,588.1,401.7,585.5,398.1"/>
	<path class="st8" d="M578.4,399.8c0.9-0.4,1.9-0.7,2.9-0.9c1.8-0.4,4.3-0.9,7.1-1.4s5.3-0.8,7.2-1c1-0.2,2-0.2,3-0.2
		c-1,0.3-1.9,0.5-2.9,0.6l-7.2,1.2c-2.8,0.5-5.3,0.9-7.1,1.2C580.4,399.5,579.4,399.7,578.4,399.8z"/>
	<path class="st2" d="M228.1,334.8c7.1,5.8,8.1,16.3,2.3,23.5c-1.4,1.8-3.2,3.2-5.3,4.2C221.4,353.1,220,343,228.1,334.8"/>
	<path class="st2" d="M242,342c0.7,11.9,10.8,21,22.7,20.3c2.9-0.2,5.8-0.9,8.4-2.2C266.2,349.1,256.7,339.9,242,342"/>
	<path class="st8" d="M210.2,307.3c0.2,0.1,0.3,0.3,0.5,0.5l1.2,1.5c1.1,1.3,2.6,3.2,4.6,5.5c3.9,4.6,9.4,10.9,15.9,17.4
		c3.2,3.3,6.4,6.3,9.4,8.9s5.8,4.9,8.2,6.8c1.9,1.4,3.9,2.8,5.9,4c1.5,0.9,2.3,1.2,2.3,1.3c-0.2-0.1-0.4-0.1-0.6-0.2
		c-0.6-0.2-1.2-0.5-1.8-0.9c-2.1-1.2-4.1-2.5-6-3.9c-2.4-1.8-5.2-4.1-8.2-6.7s-6.2-5.7-9.5-8.9c-6.5-6.5-12-12.9-15.8-17.5
		c-1.9-2.3-3.4-4.3-4.4-5.6l-1.2-1.6C210.4,307.6,210.3,307.5,210.2,307.3z"/>
	<path class="st8" d="M227.3,349c-0.1,0,0.2-1.4,0.5-3.7c0.7-5.9,0.1-12-1.8-17.6c-0.8-2.2-1.4-3.5-1.3-3.5c0.2,0.3,0.4,0.6,0.5,0.9
		c0.4,0.8,0.8,1.6,1.1,2.5c1.1,2.8,1.8,5.8,2.1,8.8c0.3,3,0.2,6-0.2,9c-0.1,0.9-0.3,1.8-0.6,2.7C227.6,348.4,227.5,348.7,227.3,349z
		"/>
	<path class="st2" d="M668.6,146.7c-4.2-5.6-3.1-13.5,2.5-17.7c1.2-0.9,2.6-1.6,4.1-2.1c2,3.5,2.7,7.5,1.9,11.4
		C676.4,142.7,673,146.1,668.6,146.7"/>
	<path class="st8" d="M666.7,153.7c0.1-1,0.3-2,0.6-2.9c0.5-1.8,1.2-4.2,2.2-6.9s1.8-5.1,2.5-6.8c0.3-1,0.7-1.9,1.2-2.8
		c-0.2,1-0.5,1.9-0.9,2.9c-0.7,1.9-1.5,4.2-2.4,6.9s-1.7,5.1-2.3,6.9C667.4,151.8,667.1,152.8,666.7,153.7z"/>
	<path class="st2" d="M624.6,221.1c-3.5-13.1,4.2-26.5,17.3-30c2.9-0.8,5.9-1,8.9-0.7c1.4,7.6-1,15.3-5,21.9
		C641.2,220,631.8,223.2,624.6,221.1"/>
	<path class="st8" d="M595,250.7c0.1-0.2,0.3-0.4,0.4-0.5l1.3-1.5c1.2-1.3,2.8-3.1,4.9-5.3c4.2-4.4,10.1-10.4,16.6-17
		s12.5-12.5,16.8-16.8l5.1-5.1l1.4-1.4c0.3-0.3,0.5-0.5,0.5-0.4c-0.1,0.2-0.3,0.4-0.5,0.5l-1.3,1.4l-5,5.1l-16.7,16.9L602,243.7
		l-5,5.1l-1.4,1.4C595.4,250.4,595.2,250.5,595,250.7z"/>
	<g class="st11">
		<path d="M624.6,221.1c-3.5-13.1,4.2-26.5,17.3-30c2.9-0.8,5.9-1,8.9-0.7c1.4,7.6-1,15.3-5,21.9C641.2,220,631.8,223.2,624.6,221.1
			"/>
	</g>
	<path class="st2" d="M610.9,224c-7.4-3.8-10.3-12.8-6.6-20.2c0.9-1.7,2-3.2,3.4-4.4c4,2.5,6.6,6.8,7.9,11.3
		C617.3,216.1,614.9,221.7,610.9,224"/>
	<g class="st11">
		<path d="M610.9,224c-7.4-3.8-10.3-12.8-6.6-20.2c0.9-1.7,2-3.2,3.4-4.4c4,2.5,6.6,6.8,7.9,11.3C617.3,216.1,614.9,221.7,610.9,224
			"/>
	</g>
	<path class="st8" d="M612.5,232.6c-0.1-0.3-0.2-0.6-0.3-0.9c-0.2-0.6-0.4-1.5-0.6-2.5c-0.4-2.2-0.9-5.2-1.3-8.5s-0.7-6.4-0.8-8.6
		c-0.1-1.2-0.2-2.4-0.1-3.6c0.2,1.2,0.4,2.3,0.5,3.5c0.3,2.3,0.6,5.3,1,8.5c0.4,3.3,0.8,6.3,1.1,8.5S612.6,232.5,612.5,232.6z"/>
	<path class="st2" d="M423.6,339.9c5.1-12,19-17.7,31-12.6c3,1.3,5.7,3.2,8,5.5C451.3,341.7,438.1,347.7,423.6,339.9"/>
	<g class="st11">
		<path d="M423.6,339.9c5.1-12,19-17.7,31-12.6c3,1.3,5.7,3.2,8,5.5C451.3,341.7,438.1,347.7,423.6,339.9"/>
	</g>
	<path class="st8" d="M417.3,343.5c0.3-0.3,0.6-0.5,0.9-0.7c0.6-0.4,1.5-1,2.6-1.7c5.9-3.4,12.5-5.6,19.4-6.4
		c1.3-0.1,2.4-0.2,3.1-0.2c0.4-0.1,0.8-0.1,1.1,0c0,0.1-1.6,0.2-4.2,0.6c-3.4,0.5-6.7,1.3-9.9,2.3c-3.2,1.1-6.3,2.4-9.3,4
		C418.6,342.7,417.3,343.5,417.3,343.5z"/>
	<path class="st2" d="M160.1,209.6c9.1-4.3,20-0.3,24.3,8.8c1.1,2.3,1.6,4.7,1.7,7.2C175,224.9,164.3,221.5,160.1,209.6"/>
	<g class="st11">
		<path d="M160.1,209.6c9.1-4.3,20-0.3,24.3,8.8c1.1,2.3,1.6,4.7,1.7,7.2C175,224.9,164.3,221.5,160.1,209.6"/>
	</g>
	<path class="st8" d="M154.6,208.4c0.3,0,0.6,0,0.9,0c0.8,0.1,1.6,0.2,2.4,0.4c2.6,0.5,5.1,1.3,7.5,2.4c2.4,1.1,4.7,2.4,6.9,3.9
		c0.8,0.6,1.5,1.1,1.9,1.5c0.2,0.2,0.4,0.4,0.6,0.6c-0.1,0.1-1-0.7-2.7-1.8c-4.4-2.9-9.2-5-14.3-6.2
		C155.8,208.6,154.6,208.4,154.6,208.4z"/>
	<path class="st2" d="M518.4,327.7c-1.1-9,5.3-17.1,14.3-18.2c2.2-0.3,4.5-0.1,6.6,0.6C535.5,319.2,529.6,327.4,518.4,327.7"/>
	<path class="st8" d="M515.8,332c0.3-0.9,0.7-1.8,1.2-2.7c2.4-4.1,5.6-7.7,9.4-10.5c0.8-0.6,1.6-1.1,2.5-1.5
		c-0.7,0.6-1.5,1.3-2.3,1.8c-3.7,2.9-6.8,6.4-9.3,10.4C516.8,330.4,516.3,331.2,515.8,332z"/>
	<path class="st2" d="M597.1,275.7c-2.8-8.6,2-17.8,10.6-20.6c2.1-0.7,4.4-0.9,6.6-0.7C612.3,264.2,608.1,273.3,597.1,275.7"/>
	<g class="st11">
		<path d="M597.1,275.7c-2.8-8.6,2-17.8,10.6-20.6c2.1-0.7,4.4-0.9,6.6-0.7C612.3,264.2,608.1,273.3,597.1,275.7"/>
	</g>
	<path class="st8" d="M595.3,280.5c0.1-1,0.4-1.9,0.7-2.8c0.8-2.2,1.8-4.4,3-6.4c1.2-2,2.7-3.9,4.3-5.6c0.6-0.8,1.4-1.4,2.2-2
		c-0.6,0.8-1.2,1.5-1.9,2.2c-1.5,1.8-2.9,3.7-4.1,5.7c-1.2,2-2.2,4.1-3.1,6.3C596.1,278.7,595.7,279.6,595.3,280.5z"/>
	<path class="st2" d="M3.9,204.2c2-8.8,10.7-14.4,19.5-12.4c2.2,0.5,4.2,1.4,6.1,2.7C22.9,201.9,14.6,207.7,3.9,204.2"/>
	<path class="st8" d="M0,207.4c0.6-0.8,1.3-1.5,2.1-2.1c1.8-1.5,3.7-2.9,5.8-4c2.1-1.1,4.3-2.1,6.5-2.7c0.9-0.3,1.9-0.5,2.9-0.6
		c-0.9,0.4-1.8,0.7-2.8,1c-4.4,1.5-8.6,3.8-12.2,6.7C1.6,206.3,0.8,206.9,0,207.4z"/>
</g>
<g id="speech-bubble--inject-2">
	<path class="st4" d="M461,73.7l8-14.5c-11.4-18-5.9-41.9,12.1-53.2s41.9-5.9,53.2,12.1c11.4,18,5.9,41.9-12.1,53.2
		c-13.6,8.6-31.1,7.8-43.9-1.9l0,0L461,73.7z"/>
	<path class="st8" d="M461,73.7l17.4-4.4l-0.1,0.2l0,0l-0.6-0.8l0.8,0.6c2.5,1.8,5.1,3.4,7.9,4.6c3.4,1.4,6.9,2.4,10.5,2.8
		c2,0.3,4,0.3,6,0.2c1-0.1,2.1-0.1,3.2-0.2l3.2-0.5c9.6-2,18-7.6,23.7-15.6c3.1-4.4,5.3-9.5,6.3-14.8c1-5.6,0.8-11.4-0.7-16.9
		c-1.5-5.8-4.3-11.1-8.3-15.6l-1.6-1.7c-0.5-0.6-1.1-1-1.7-1.6c-0.6-0.5-1.1-1-1.7-1.5l-1.8-1.3c-0.6-0.4-1.2-0.9-1.8-1.2l-2-1.2
		l-2-1c-0.6-0.3-1.3-0.6-2-0.9c-5.4-2.1-11.3-2.9-17.1-2.5c-5.5,0.4-10.8,2-15.6,4.8c-8.6,4.9-15,12.9-17.9,22.4
		c-1.1,4-1.7,8.2-1.6,12.4c0.2,6.7,2.2,13.3,5.8,19v0.1v0.1L461,73.7l8-14.5v0.1c-3.6-5.7-5.7-12.3-6-19.1
		c-0.1-4.2,0.4-8.5,1.5-12.6c2.9-9.6,9.4-17.7,18.1-22.7c4.9-2.8,10.3-4.4,15.8-4.8c5.9-0.5,11.8,0.4,17.3,2.5
		c0.7,0.3,1.4,0.6,2.1,0.9l2.1,1l2,1.2c0.7,0.4,1.3,0.8,1.9,1.2l1.8,1.3c0.6,0.4,1.2,1,1.8,1.5s1.2,1,1.7,1.6l1.6,1.8
		c4,4.5,6.9,9.9,8.4,15.8c1.5,5.6,1.7,11.5,0.6,17.2c-1,5.4-3.2,10.5-6.4,15c-5.7,8.1-14.3,13.7-24,15.7l-3.3,0.5
		c-1.1,0.1-2.1,0.1-3.2,0.2c-2,0.1-4.1,0-6.1-0.2c-3.7-0.5-7.2-1.4-10.6-2.9c-2.8-1.2-5.5-2.8-8-4.7l0.2-0.2l0,0l0.1,0.2h-0.2
		L461,73.7z"/>
	<path class="st2" d="M491,32.1l5-0.1c0-2.3,1.8-4.3,4.2-4.3c0.1,0,0.1,0,0.2,0c1.7-0.1,3.3,0.9,4,2.6c0.6,1.3,0.4,2.8-0.3,4.1
		c-0.8,1.4-2.7,2.7-6.1,2.1l0.1,11.3h5l-0.1-6.7c4.2-1.3,7-5.2,6.9-9.5c-0.1-7.3-6.7-9-9.5-8.9C498.1,22.7,490.8,23.3,491,32.1z"/>
	<rect x="498" y="50.1" transform="matrix(1 -9.599164e-03 9.599164e-03 1 -0.4807 4.8074)" class="st2" width="5" height="4.7"/>
</g>
</svg>
