<?xml version="1.0" encoding="utf-8"?>
<!-- Generator: Adobe Illustrator 24.1.3, SVG Export Plug-In . SVG Version: 6.00 Build 0)  -->
<svg version="1.1" id="Layer_1" xmlns="http://www.w3.org/2000/svg" xmlns:xlink="http://www.w3.org/1999/xlink" x="0px" y="0px"
	 viewBox="0 0 446.7 442.2" style="enable-background:new 0 0 446.7 442.2;" xml:space="preserve">
<style type="text/css">
	.st0{fill:#EBEBEB;}
	.st1{fill:#F5F5F5;}
	.st2{fill:#E0E0E0;}
	.st3{fill:#263238;}
	.st4{fill:#0061F2;}
	.st5{opacity:0.3;}
	.st6{fill:#FFFFFF;}
	.st7{opacity:0.7;}
	.st8{fill:#FAFAFA;}
</style>
<g id="background-complete--inject-1">
	<path class="st0" d="M66.6,277.7c0.2-2,0.9-4,2.2-5.5c1.2-1.6,2.9-2.8,4.8-3.4c3.4-1,6.9,0.5,8.7,3.5c1.5-3,4.8-4.7,8.1-4.2
		c2,0.4,3.8,1.3,5.2,2.8c1.5,1.4,2.5,3.2,2.9,5.2c0.5,2.6,0.1,5.2-1,7.5c-1.4,2.4-3.3,4.4-5.6,5.9c-3.7,2.5-8.6,5.8-8.6,5.8
		s-4.5-3-8.5-5c-2.5-1.2-4.6-3-6.2-5.2C67.1,282.9,66.4,280.3,66.6,277.7z"/>
	<path class="st0" d="M345.3,167.2c0.2-2,0.9-4,2.2-5.6c1.2-1.6,2.9-2.8,4.8-3.4c3.4-1,6.9,0.5,8.7,3.5c1.5-3,4.8-4.7,8.1-4.2
		c2,0.4,3.8,1.3,5.2,2.8c1.5,1.4,2.5,3.2,2.9,5.2c0.5,2.6,0.1,5.2-1.1,7.5c-1.4,2.4-3.3,4.4-5.6,5.9c-3.7,2.6-8.6,5.8-8.6,5.8
		s-4.5-3-8.5-5c-2.5-1.2-4.6-3-6.2-5.2C345.8,172.5,345.1,169.9,345.3,167.2z"/>
	<path class="st1" d="M93.6,252.9c0.1-1.3,0.6-2.5,1.4-3.6c0.8-1,1.9-1.8,3.1-2.2c1.3-0.4,2.7-0.2,3.9,0.5c0.7,0.4,1.3,1,1.7,1.7
		c1-1.9,3.1-3,5.2-2.7c1.3,0.2,2.4,0.8,3.3,1.8c0.9,0.9,1.6,2.1,1.8,3.4c0.3,1.6,0.1,3.3-0.7,4.8c-0.9,1.5-2.1,2.8-3.6,3.8
		c-2.4,1.6-5.5,3.7-5.5,3.7s-2.9-1.9-5.4-3.2c-1.6-0.8-3-1.9-4-3.3C94,256.2,93.5,254.5,93.6,252.9z"/>
	<path class="st1" d="M328.1,191.7c0.1-1.3,0.6-2.5,1.4-3.6c0.8-1,1.9-1.8,3.1-2.1c2.2-0.6,4.4,0.3,5.6,2.2c0.3-0.7,0.8-1.2,1.4-1.7
		c1.1-0.8,2.5-1.2,3.8-1c1.3,0.2,2.4,0.9,3.3,1.8c0.9,0.9,1.6,2.1,1.8,3.4c0.3,1.6,0.1,3.3-0.7,4.8c-0.9,1.5-2.1,2.8-3.6,3.8
		c-2.4,1.6-5.5,3.7-5.5,3.7s-2.9-1.9-5.4-3.2c-1.6-0.8-3-1.9-4-3.3C328.5,195,328,193.4,328.1,191.7z"/>
	<path class="st0" d="M378.7,242.3c0.1-1.3,0.6-2.5,1.4-3.6c0.8-1,1.9-1.8,3.1-2.2c1.3-0.4,2.7-0.2,3.9,0.5c0.7,0.4,1.3,1,1.7,1.7
		c1-1.9,3.1-3,5.2-2.7c1.3,0.2,2.4,0.9,3.3,1.8c0.9,0.9,1.6,2.1,1.8,3.4c0.3,1.6,0.1,3.3-0.7,4.8c-0.9,1.5-2.1,2.8-3.6,3.8
		c-2.4,1.6-5.5,3.7-5.5,3.7s-2.9-1.9-5.4-3.2c-1.6-0.8-3-1.9-4-3.3C379,245.6,378.6,243.9,378.7,242.3z"/>
	<path class="st1" d="M100.3,294.3c0.1-0.9,0.4-1.7,0.9-2.3c0.5-0.7,1.2-1.2,2-1.4c0.9-0.2,1.8-0.1,2.6,0.4c0.5,0.3,0.8,0.7,1.1,1.1
		c0.2-0.4,0.5-0.8,0.9-1.1c0.7-0.6,1.6-0.8,2.5-0.6c0.8,0.1,1.6,0.6,2.2,1.2c0.6,0.6,1.1,1.4,1.2,2.2c0.2,1.1,0,2.2-0.4,3.2
		c-0.6,1-1.4,1.9-2.4,2.5c-1.6,1.1-3.6,2.4-3.6,2.4s-1.9-1.2-3.6-2.1c-1-0.5-1.9-1.3-2.6-2.2C100.5,296.5,100.2,295.4,100.3,294.3z"
		/>
	<path class="st0" d="M46.2,52.3c0,0-4.6,4,5.4,13.2c5.1,4.8,10.4,9.3,16.1,13.4c0,0,2,2.3-0.1,3.5s-7.2,2.2-7.2,5.3s3,5.1,8.1,5.9
		s16,3,16.9,3.2s2.2,1.1,0.9,2.2s-11.9,6.3-9.1,11.1s17.1,4.8,18.7,4.8s2.1,0.5,2.3,1.3s-3.6,2.2-6.5,3.8s-6.1,4-4.3,6.7
		c1.8,2.7,11.6,6.1,30.5,1.2l8.6-2.9l2-8.9c3.1-19.2-1.3-28.6-4.2-30.2s-4.9,1.8-6.2,4.9s-2.4,6.9-3.2,6.9s-1.3-0.6-1.5-2.2
		s-1.5-15.8-6.6-18.1s-9.3,8.8-10.2,10.1s-2,0.2-2.3-0.7s-3.5-11.6-4.8-16.6S86,62.7,82.8,63s-3.6,5.6-4.6,7.7s-3.5,0.4-3.5,0.4
		c-4.6-5.2-9.6-10.2-14.9-14.7C49.6,47.4,46.1,52.4,46.2,52.3"/>
	<path class="st2" d="M127.6,127c-7.4-6.7-20.5-18.8-31.7-29.1S74.5,78.2,67.1,71.5l-8.8-7.9c-1-0.9-1.8-1.7-2.4-2.2l-0.6-0.6
		l-0.2-0.2c0.1,0.1,0.2,0.1,0.2,0.2c0.2,0.1,0.4,0.3,0.6,0.6l2.4,2.1c2.1,1.8,5.1,4.5,8.8,7.9c7.4,6.7,17.7,16,28.9,26.3
		s24.3,22.4,31.7,29.2"/>
	<path class="st2" d="M67.7,86.6c0.2,0,0.5,0,0.7,0h1.8c1.5,0,3.6,0,5.9,0.1l5.9,0.3l1.8,0.1c0.2,0,0.4,0,0.7,0
		c-0.2,0-0.4,0.1-0.7,0.1c-0.4,0-1,0-1.8,0c-1.5,0-3.6-0.1-5.9-0.2l-5.9-0.2l-1.8-0.1C68.1,86.7,67.9,86.7,67.7,86.6z"/>
	<path class="st2" d="M84.6,86.3c-0.1,0-0.2-4.3-0.2-9.6s0-9.6,0.1-9.6s0.2,4.3,0.2,9.6S84.7,86.3,84.6,86.3z"/>
	<path class="st2" d="M101.2,103c0-0.2,0.1-0.4,0.2-0.6c0.1-0.5,0.3-1,0.5-1.7c0.4-1.5,1-3.5,1.5-5.8s1-4.3,1.3-5.8
		c0.1-0.7,0.3-1.3,0.4-1.8c0-0.2,0.1-0.4,0.2-0.7c0,0.2,0,0.4-0.1,0.7c-0.1,0.4-0.1,1-0.3,1.8c-0.2,1.5-0.6,3.6-1.2,5.9
		s-1.1,4.3-1.6,5.8c-0.2,0.7-0.4,1.3-0.6,1.7C101.4,102.6,101.3,102.8,101.2,103z"/>
	<path class="st2" d="M85.9,106.6c0.2-0.1,0.4-0.2,0.6-0.2l1.6-0.4c1.4-0.4,3.3-0.9,5.4-1.4s4-1,5.4-1.3l1.6-0.4
		c0.2,0,0.4-0.1,0.6-0.1c-0.2,0.1-0.4,0.2-0.6,0.2l-1.6,0.4c-1.4,0.4-3.3,0.9-5.4,1.4s-4,1-5.4,1.3l-1.6,0.4
		C86.3,106.6,86.1,106.6,85.9,106.6z"/>
	<path class="st2" d="M98.6,123.2c0.2-0.1,0.5-0.2,0.8-0.2l2.1-0.6c1.8-0.5,4.2-1.1,6.9-1.9s5.1-1.3,6.9-1.8l2.1-0.5
		c0.3-0.1,0.5-0.1,0.8-0.1c-0.2,0.1-0.5,0.2-0.7,0.3l-2.1,0.6c-1.8,0.5-4.2,1.1-6.9,1.8s-5.1,1.3-6.9,1.8l-2.1,0.5
		C99.2,123.1,98.9,123.1,98.6,123.2z"/>
	<path class="st2" d="M117.5,118c0-0.3,0.1-0.6,0.2-0.8c0.1-0.6,0.3-1.3,0.6-2.2c0.5-1.9,1.1-4.5,1.7-7.4s1.1-5.6,1.4-7.5
		c0.2-0.9,0.3-1.7,0.4-2.3c0-0.3,0.1-0.6,0.2-0.8c0,0.3,0,0.6-0.1,0.9c-0.1,0.5-0.2,1.3-0.3,2.3c-0.3,1.9-0.8,4.6-1.4,7.5
		s-1.3,5.5-1.8,7.4c-0.3,0.9-0.5,1.7-0.6,2.2C117.7,117.5,117.7,117.8,117.5,118z"/>
	<path class="st1" d="M328.6,108c-13.3-11.6-14.6-30.7-12.2-47.4c0.4-2.8,0.4-5.8,2-8.1s4.9-3.7,7.3-2.2c2,1.2,2.6,3.7,3.6,5.9
		c1.3,2.8,3.3,5.3,5.9,7c1.7,1.1,3.8,1.9,5.7,1.1c2.6-1.1,3.2-4.4,3.5-7.2c0.5-5.2,1.1-10.4,1.6-15.6c0.1-2.8,0.7-5.6,1.7-8.2
		c1.1-2.6,3.3-4.8,6.1-5.3s5.9,1.4,6.1,4.2c0,1.2-0.1,2.3-0.3,3.5c-0.2,1.2,0.4,2.4,1.4,3c1.1,0.4,2.3-0.2,3.2-1
		c3.2-2.5,5.5-5.9,7.8-9.3s4.4-7,7.4-9.8s6.8-4.8,10.8-4.6s8,3.1,8.6,7.2s-2.1,7.8-5,10.7c-4.2,4.3-9,8-14.3,11
		c-1,0.4-1.9,1.2-2.4,2.1c-0.8,1.8,0.8,3.8,2.5,4.6c2,0.9,4.3,0.9,6.4,1.4s4.4,1.7,5,3.8c0.8,3-1.9,5.7-4.4,7.4
		c-5.1,3.4-10.8,5.9-16.8,7.4c-2.1,0.5-4.4,1-6.2,2.2s-3.1,3.7-2.3,5.7s3.3,3,5.5,2.8s4.2-1.1,6.4-1.7c4-1,8.9-0.2,11,3.3
		c1.3,2.5,1.3,5.4,0.1,7.9c-1.2,2.5-2.9,4.7-5,6.4c-6.9,6.6-15.4,11.3-24.6,13.6C345.5,112.2,337.1,112.2,328.6,108"/>
	<path class="st2" d="M334.1,97.9c3.8-8.9,8.1-17.5,12.8-25.8c1.3-2.2,2.5-4.4,3.7-6.6s2.4-4.3,3.8-6.3c2.5-3.9,5.3-7.6,8.2-11.2
		c2.8-3.4,5.6-6.6,8.2-9.5s5.1-5.6,7.5-8c3.7-3.7,7.7-7.2,12-10.2c1.5-1.1,2.7-1.9,3.5-2.5l0.9-0.6c0.1-0.1,0.2-0.1,0.3-0.2
		c-0.1,0.1-0.2,0.2-0.3,0.2l-0.9,0.7c-0.8,0.6-2,1.4-3.5,2.5c-4.2,3.2-8.2,6.6-11.9,10.3c-2.4,2.4-4.8,5.1-7.4,8s-5.4,6.1-8.1,9.6
		c-2.9,3.6-5.7,7.3-8.2,11.2c-1.3,2-2.5,4.1-3.7,6.3l-3.7,6.6c-4.8,8.3-9,17-12.8,25.8"/>
	<path class="st2" d="M354.6,59.1c-0.1-0.4-0.1-0.8-0.1-1.2c-0.1-0.8-0.1-1.9-0.2-3.3c-0.1-2.8-0.1-6.7-0.1-11s0-8.2-0.2-11
		c-0.1-1.4-0.1-2.5-0.2-3.3c0-0.4,0-0.8,0-1.2c0.1,0.4,0.2,0.8,0.2,1.2c0.1,0.8,0.2,1.9,0.4,3.3c0.2,2.8,0.3,6.7,0.3,11
		s0,8.1-0.1,11v3.3C354.7,58.3,354.6,58.7,354.6,59.1z"/>
	<path class="st2" d="M391.2,56.3c-0.5,0-1,0-1.5,0c-0.9,0-2.3,0-3.9,0c-3.3,0-7.9,0.2-13,0.6s-9.6,1-12.9,1.5
		c-1.6,0.2-3,0.5-3.9,0.6c-0.5,0.1-1,0.2-1.4,0.2c0.5-0.2,0.9-0.3,1.4-0.4c0.9-0.2,2.2-0.5,3.9-0.8c3.3-0.6,7.9-1.2,12.9-1.6
		c4.3-0.4,8.7-0.5,13-0.4c1.7,0,3,0.1,3.9,0.2C390.2,56.1,390.7,56.2,391.2,56.3z"/>
	<path class="st2" d="M334.6,97.3c-0.1-0.1-0.2-0.3-0.2-0.5l-0.5-1.4c-0.4-1.2-1-2.9-1.6-5.1c-1.3-4.3-2.9-10.3-4.5-16.9
		s-3.2-12.6-4.4-17l-1.4-5.1c-0.1-0.6-0.3-1-0.4-1.4c-0.1-0.2-0.1-0.3-0.1-0.5c0.1,0.2,0.1,0.3,0.2,0.5c0.1,0.4,0.3,0.8,0.5,1.4
		c0.4,1.2,1,2.9,1.6,5.1c1.3,4.3,2.9,10.3,4.5,16.9s3.2,12.6,4.4,17l1.4,5.1c0.1,0.6,0.3,1,0.4,1.4C334.6,97,334.6,97.2,334.6,97.3z
		"/>
	<path class="st2" d="M384,87.1c-0.2,0.1-0.3,0.1-0.5,0.1l-1.4,0.3l-5.3,1.1c-4.5,0.9-10.6,2.3-17.4,3.8s-13,2.8-17.4,3.7
		c-2.2,0.4-4.1,0.7-5.3,1l-1.5,0.2c-0.2,0-0.3,0-0.5,0c0.2-0.1,0.3-0.1,0.5-0.1l1.4-0.3l5.3-1.1c4.5-0.9,10.6-2.3,17.4-3.8
		s13-2.8,17.4-3.7c2.2-0.4,4.1-0.7,5.3-0.9l1.5-0.2C383.6,87.1,383.8,87.1,384,87.1z"/>
</g>
<g id="Floor--inject-1">
	<path class="st3" d="M446.7,434.5c0,0.1-100,0.3-223.4,0.3S0,434.6,0,434.5s100-0.3,223.4-0.3S446.7,434.3,446.7,434.5z"/>
</g>
<g id="Character--inject-1">
	<path class="st4" d="M289.1,192.1c0.5-9.3,1.1-18.5,1.7-27.8c0.1-1.1,0.2-2.4,1.2-3c0.9-0.4,2-0.3,2.9,0.2
		c16.4,6.6,28.5,24.9,29.9,42.6"/>
	<g class="st5">
		<path class="st6" d="M294.6,170.9c7.8,5.1,12.8,13.6,13.4,22.9c0.2,1.1-0.1,2.2-0.7,3.2c-0.6,0.7-1.5,1.1-2.5,1.1
			c-0.9,0-1.8-0.2-2.7-0.4c-2.2-0.6-4.5-1.2-6.2-2.8c-1.5-1.6-2.4-3.7-2.4-5.9c0-2.2,0.2-4.3,0.7-6.4l2.8,4.8l-3-15.5
			c-0.1-0.3-0.1-0.6,0.1-0.8c0.2-0.2,0.6-0.1,0.6,0.1"/>
	</g>
	<path class="st4" d="M193.9,211.8c-8.6-10.2-13.5-22.9-14-36.2l9.1,4.3l-2.3-2.8c13.4,1.1,25.7,7.4,34.5,17.5"/>
	<g class="st5">
		<path class="st6" d="M198.9,207.8c-7.3-5.3-12-13.3-13.1-22.2c-0.1-0.6,0-1.4,0.6-1.6c0.4-0.1,0.9,0,1.2,0.3l16.5,10.8
			c-0.7-1-1.2-2.2-1.3-3.5l7,5.1c0.5,0.3,0.9,0.8,1.1,1.4c0,0.7-0.3,1.3-0.9,1.7c-2.4,2.1-5.7,2.9-8.8,1.9l3,2.6
			c-1.8,1.2-4,1.5-6.1,1.1c-0.2,1,0.2,2,1.1,2.6"/>
	</g>
	<path class="st4" d="M380.4,299.1c0,0,12.8,13.2,18.6,12.1c0,0-20.2-21.5-28.7-41.4c-4.1-9.4-8.9-18.4-14.5-27
		c3.8-6.6,7.2-14.1,8.8-21.6c-4.3,5-9.2,9.4-14.6,13.2c-0.4-0.6-0.9-1.2-1.4-1.9c4.5-4.1,7.5-9.6,8.6-15.6l-20.2-0.9
		c0.6-0.9,1.2-1.9,1.7-2.9c-9.9-8.5-21-15.6-33-20.9c-23.2-13.2-75-17.6-100.2,3.9c-22.6,13.2-28.6,30-46.4,34.2l-10.5-1.1
		c0,0-4.1,22,9.4,31.8l-10-2.3c0,0,1.8,8.8,11.7,18.4l-6.1-0.8c0,0,2.7,13.8,11.2,17.1c0,0-13.3,1.7-17-3.3c0,0-4.4,20.6,15.7,28.4
		c0,0-60.3,7.1-43.3,80.8c4,17.2,27.7,29.6,55.1,35.6l197-0.8c12-3.9,26.3-43.7,26.9-59.7s-7.4-46.9-7.4-46.9l7.5,9.9L380.4,299.1z"
		/>
	<path class="st4" d="M155.2,329.8c-11.3-0.7-22.4,8.1-24.4,19.3c7.4-4.9,15.8-8,24.5-9c-7.1,6.5-9.4,16.7-5.8,25.6
		c2.9-7.9,9-14.2,16.7-17.5c-5.3,6.4-6.9,15.1-4.2,23"/>
	<path class="st3" d="M162.1,371.2c-0.1-0.1-0.1-0.3-0.2-0.4c-0.1-0.3-0.2-0.7-0.4-1.2c-0.4-1.6-0.7-3.2-0.8-4.8
		c-0.2-2.6,0.1-5.2,0.8-7.7c0.9-3.3,2.4-6.4,4.6-9l0.2,0.3c-7.7,3.3-13.6,9.6-16.6,17.4l-0.2,0.6l-0.2-0.6c-2.4-6.2-2.2-13.1,0.7-19
		c1.3-2.6,3-4.9,5.2-6.9l0.2,0.5c-8.7,1-17.1,4.1-24.4,8.9l-0.4,0.3l0.1-0.5c0.4-2.4,1.3-4.7,2.5-6.9c1.1-1.9,2.4-3.7,4-5.2
		c2.5-2.6,5.6-4.5,8.9-5.8c2.2-0.8,4.4-1.3,6.7-1.4c0.8,0,1.4,0,1.8,0h0.5h0.1h-0.1h-0.5c-0.4,0-1,0-1.8,0c-2.3,0.2-4.5,0.7-6.6,1.5
		c-3.3,1.3-6.3,3.2-8.8,5.8c-1.5,1.5-2.8,3.3-3.9,5.2c-1.2,2.1-2,4.4-2.4,6.8l-0.4-0.2c7.4-4.9,15.8-8,24.6-9l0.8-0.1l-0.6,0.5
		c-2.1,1.9-3.8,4.2-5,6.7c-2.9,5.8-3.1,12.6-0.7,18.6h-0.5c1.6-4.2,4.1-8,7.2-11.1c2.8-2.7,6-4.9,9.6-6.5l0.8-0.3l-0.5,0.6
		c-2.2,2.6-3.7,5.6-4.6,8.8c-0.7,2.5-1,5-0.9,7.6c0.1,1.6,0.3,3.2,0.7,4.8c0.1,0.5,0.3,1,0.3,1.2
		C162.1,370.9,162.1,371.1,162.1,371.2z"/>
	<path class="st4" d="M361.7,360.9c12.6-2.7,25.3,3.9,30.5,15.6"/>
	<path class="st3" d="M392.2,376.5c-0.1,0-0.9-1.9-2.8-4.6c-5.2-7.2-13.4-11.4-22.3-11.4c-3.3,0-5.4,0.5-5.4,0.4
		c0.5-0.2,0.9-0.3,1.4-0.4c1.3-0.2,2.7-0.4,4-0.4c9-0.2,17.5,4.2,22.6,11.6c0.8,1.1,1.4,2.3,2,3.5
		C391.9,375.6,392.1,376,392.2,376.5z"/>
	<g class="st5">
		<path d="M292.2,377.5c-7.3,1.2-16.5,6.6-19.9,13.2c-0.7,1.4-0.1,1.6,0,3.1c0,1.6,0.9,3.1,2.4,3.8c1.4,0.6,3-0.1,3.6-1.5
			c0-0.1,0.1-0.2,0.1-0.3c-0.9,5.3,0.3,10.8,3.3,15.3c2-1.2,3.7-2.9,4.7-5c-0.4,7.9,2.5,15.6,8,21.3l-3.5-13.8
			c-1.3-5-2.5-9.2-2.2-14.4c0.4-5.5,3.6-10.1,6.1-14.6c-3.5,1.5-7.5,8.4-10.9,12.5c-0.4-7.4,2.6-14.5,8.1-19.4"/>
	</g>
	<path class="st3" d="M290.9,413.7c-0.1-0.2-0.2-0.4-0.3-0.6c-0.1-0.4-0.4-1-0.7-1.8c-0.8-2.2-1.2-4.6-1.4-6.9
		c-0.2-3.6,0.2-7.2,1.2-10.6c1.3-4.4,3.6-8.4,6.8-11.7l0.4,0.4c-2.9,2.6-5.7,5.4-8.3,8.3c-1.7,1.9-3.2,4-4.5,6.2l-0.4,0.7l-0.1-0.8
		c-0.4-4.1,0.3-8.3,2.2-12c1.5-3.1,3.8-5.9,6.6-7.9l0.2,0.3c-2,0.7-3.8,1.9-5.4,3.3c-1.2,1.1-2.2,2.3-3,3.7c-0.5,0.9-1,1.8-1.3,2.7
		c-0.1,0.3-0.2,0.7-0.4,1c0-0.1,0-0.2,0-0.3c0-0.2,0.1-0.4,0.2-0.8c0.3-1,0.8-1.9,1.3-2.8c0.8-1.4,1.8-2.7,3-3.8
		c1.6-1.5,3.4-2.7,5.4-3.4l1.3-0.5l-1.2,0.9c-2.7,2.1-4.9,4.7-6.4,7.8c-1.8,3.6-2.5,7.7-2.1,11.7l-0.5-0.1c1.3-2.3,2.8-4.4,4.5-6.3
		c2.6-2.9,5.4-5.7,8.4-8.4l0.4,0.4c-3.1,3.2-5.4,7.1-6.8,11.4c-1.1,3.4-1.5,7-1.3,10.5c0.1,2.3,0.5,4.7,1.2,6.9
		c0.2,0.8,0.5,1.4,0.6,1.8C290.8,413.3,290.8,413.5,290.9,413.7z"/>
	<path class="st4" d="M172.2,412.6c3.9,4.4,9.1,7.4,14.8,8.7c0.6,0.3,1.3,0.2,1.9-0.3c0.6-0.6,0.1-1.6-0.4-2.4l-6.4-9.4
		c4.5,3.6,9.9,5.9,15.6,6.8c0.9,0.1,2.1,0.1,2.6-0.7c0.3-0.7,0.2-1.6-0.2-2.2c-1-2.1-2-4.2-3.2-6.3"/>
	<path class="st3" d="M197,407c0.1,0.2,0.2,0.3,0.3,0.5l0.8,1.5c0.4,0.7,0.8,1.5,1.2,2.4c0.3,0.5,0.5,1,0.8,1.5
		c0.3,0.6,0.5,1.2,0.6,1.8c0,0.4-0.1,0.8-0.3,1.1c-0.3,0.3-0.6,0.5-1,0.6c-0.8,0.1-1.6,0.1-2.3-0.1c-1.7-0.3-3.3-0.7-4.9-1.2
		c-3.7-1.2-7.1-3.1-10.2-5.5l0.4-0.4l1.1,1.6l3.5,5.2l1.7,2.5c0.3,0.4,0.5,0.9,0.6,1.4c0.2,0.6-0.1,1.2-0.6,1.5
		c-0.5,0.2-1,0.3-1.5,0.2c-0.5-0.1-0.9-0.2-1.3-0.3c-0.9-0.2-1.7-0.5-2.5-0.8c-1.5-0.5-2.9-1.2-4.2-2c-2-1.1-3.8-2.5-5.4-4
		c-0.6-0.6-1-1-1.3-1.3c-0.2-0.2-0.3-0.3-0.4-0.5c0.2,0.1,0.3,0.3,0.5,0.4c0.3,0.3,0.7,0.7,1.3,1.3c1.7,1.5,3.5,2.8,5.4,3.9
		c1.3,0.8,2.7,1.4,4.2,1.9c0.8,0.3,1.6,0.5,2.4,0.8s1.8,0.6,2.5,0.2c0.3-0.2,0.5-0.6,0.3-1c-0.1-0.4-0.3-0.9-0.6-1.2
		c-0.6-0.8-1.1-1.6-1.7-2.5c-1.1-1.7-2.3-3.4-3.6-5.2l-1.1-1.6l-1-1.4l1.4,1c4.3,3.4,9.4,5.7,14.8,6.7c0.7,0.2,1.4,0.2,2.2,0.1
		c0.6-0.1,1.1-0.6,1.1-1.3c-0.1-0.6-0.3-1.2-0.6-1.7c-0.3-0.5-0.5-1-0.7-1.5l-1.2-2.4l-0.7-1.5C197.1,407.4,197,407.2,197,407z"/>
	<g class="st5">
		<path d="M196.9,350.4c2.2,3.7,5.4,6.7,9.3,8.7c-0.2-2.1-1.1-4-2.4-5.5c4.2,4,9.2,7.1,14.7,9.1c-8.1,3.6-17.6,0-21.2-8.2
			c-0.7-1.6-1.1-3.3-1.3-5"/>
	</g>
	<g class="st5">
		<path d="M170.1,285.2c7.9,15.3,33.6,22.8,53.8,23.1c6.2,0.1,15,4.7,21.2,4.1c13.8-1.3,25.1-8.8,38.9-10c8.6-0.7,17.3-1,25.8-2.5
			s8.1-2.5,14.9-7.9s14.1-10.7,14-19.4c-12.7,15.6-25.3,20.4-44.9,25s-40,4.5-60.1,3.5C211.6,300.3,188.3,297.9,170.1,285.2"/>
	</g>
	<path class="st4" d="M238.5,168.1c0.1,0,0.2,1.1,0.5,2.9c0.4,2.3,1,4.6,1.9,6.8c0.9,2.2,2,4.3,3.3,6.3c0.6,0.8,1.2,1.6,1.7,2.4
		c0,0-0.2-0.2-0.6-0.6c-0.5-0.5-1-1.1-1.4-1.7c-1.4-1.9-2.6-4-3.5-6.3c-0.9-2.2-1.5-4.6-1.8-7c-0.1-0.7-0.1-1.4-0.2-2.2
		C238.4,168.6,238.4,168.4,238.5,168.1z"/>
	<path class="st4" d="M245,165.6c0.1,0-0.3,1-0.7,2.7c-0.5,2.2-0.7,4.4-0.5,6.6c0.2,2.2,0.7,4.4,1.5,6.4c0.6,1.6,1.2,2.5,1.1,2.5
		s-0.2-0.2-0.5-0.6c-0.4-0.6-0.7-1.2-1-1.8c-1.9-4.1-2.3-8.8-1-13.2c0.2-0.7,0.4-1.3,0.7-1.9C244.8,165.8,245,165.6,245,165.6z"/>
	<path class="st4" d="M122.6,331.8c0.1-0.1,0.3-0.3,0.4-0.4c0.3-0.2,0.7-0.6,1.2-1c1.5-1.2,3.2-2.3,4.9-3.3
		c5.6-3.2,11.8-5.4,18.2-6.6c6.4-1.2,12.8-1.8,19.3-1.9c2.5-0.1,4.5-0.1,5.9-0.1h1.6c0.2,0,0.4,0,0.6,0c-0.2,0-0.4,0.1-0.6,0.1
		l-1.6,0.1l-5.9,0.2c-6.4,0.2-12.8,0.9-19.2,2c-6.3,1.2-12.4,3.3-18.1,6.4c-1.7,1-3.3,2-4.9,3.2
		C123.2,331.4,122.6,331.9,122.6,331.8z"/>
	<path class="st4" d="M265.9,170c0,0.1-1.7-0.5-4.5-1.2c-1.6-0.4-3.3-0.6-4.9-0.6c-2,0-4,0.6-5.7,1.6c-0.9,0.5-1.6,1.3-2.2,2.1
		c-0.5,0.8-0.9,1.7-1.1,2.6c-0.3,1.6-0.2,3.3,0.2,4.9c0.7,2.8,1.4,4.4,1.3,4.4c-0.2-0.4-0.4-0.7-0.5-1.1c-0.5-1-0.8-2.1-1.1-3.2
		c-0.5-1.6-0.6-3.4-0.3-5.1c0.2-1,0.6-2,1.2-2.8c0.6-0.9,1.5-1.7,2.4-2.2c1.8-1.1,3.9-1.7,6-1.7c1.7,0,3.4,0.3,5,0.7
		c1.4,0.4,2.5,0.8,3.2,1C265.2,169.6,265.6,169.8,265.9,170z"/>
	<path class="st4" d="M416,420.6c-1.1-7.2-4.6-14.2-10.6-18.3s-14.7-4.6-20.4-0.1l-23.7,32.1l50.5,0.2
		C414.6,431.9,416.5,424.4,416,420.6z"/>
	<g class="st5">
		<path d="M382.4,433.8c4.3-1.8,7.4-5.6,9.4-9.8s2.8-8.8,3.6-13.4c0.7-3.8,1.4-7.8-0.3-11.3c-0.8,0-1.6,0.3-2,1
			c-0.4,0.7-0.8,1.4-1,2.2c-3.9,12.3-9.9,23-19.8,31.4"/>
	</g>
	<g class="st5">
		<path class="st6" d="M232.2,183c5,14.4,5.6,30,5.1,45.2c-0.3,7.6-0.8,15.2-3.2,22.5s-6.7,14-13.2,18c-6.1,3.8-13.6,4.8-20.8,3.8
			s-13.9-3.7-20.3-6.9c-7.3-3.7-14.4-8.1-20.1-14s-10.3-14.2-11.3-22.3l10.5,1.1c0,0,8.1-0.9,20.7-13.1
			c13.8-13.3,16.3-14.9,26.6-21.9C214.4,190.2,223.1,186,232.2,183z"/>
	</g>
	<g class="st5">
		<path d="M275.8,271.9c4.1-2.3,9.2-1.6,12.6,1.7c3.3-4.3,8.7-6.3,14-5.1c-3.1,1.2-6,2.9-8.6,5.1c-2.5,2.3-4.2,5.5-3.9,8.9
			c-3.1-3.3-6.6-6.2-10.5-8.5c-1.6-1-3.8-1.8-5.3-0.7"/>
	</g>
	<path class="st4" d="M310.2,384.5c-11.9,8.6-16.7,24-11.6,37.8"/>
	<path class="st3" d="M298.6,422.3c-0.1-0.1-0.1-0.3-0.2-0.4c-0.1-0.3-0.3-0.6-0.4-1.2c-0.5-1.4-0.9-2.9-1.1-4.4
		c-1.8-10.1,1.4-20.5,8.5-27.9c1.1-1.1,2.2-2.1,3.4-3c0.4-0.3,0.8-0.6,1-0.7s0.4-0.2,0.4-0.2c-0.4,0.4-0.8,0.7-1.3,1.1
		c-1.2,1-2.2,2-3.3,3.1c-6.9,7.4-10,17.6-8.5,27.6c0.2,1.5,0.5,3,1,4.4C298.4,421.3,298.5,421.8,298.6,422.3z"/>
	<path class="st4" d="M330.1,349.9c4.1-3.1,9.4-6.4,14-4.2c2.6,1.4,4.4,4,4.8,6.9c0.4,2.9,0.2,5.8-0.5,8.7
		c-3.4,16.5-10.7,32-21.3,45.1c-3.9,4.8-9.3,9.6-15.3,8.3c-5.6-1.2-8.8-7.6-8.4-13.3s3.2-10.9,5.9-16
		C315.6,373.4,321.7,360.2,330.1,349.9"/>
	<path class="st3" d="M330.1,349.9c-0.1,0.1-0.2,0.3-0.3,0.4l-0.8,1.1c-0.7,0.9-1.7,2.4-3,4.2c-3.5,5.3-6.7,10.7-9.6,16.4l-6,11.6
		c-2.1,4.2-4.8,8.5-6.2,13.6c-0.7,2.6-0.9,5.3-0.4,7.9c0.5,2.8,1.9,5.3,3.9,7.2c1,0.9,2.3,1.6,3.7,2c1.4,0.4,2.9,0.4,4.3,0.1
		c2.9-0.7,5.5-2.3,7.6-4.4c2.2-2.1,4.1-4.4,5.9-6.8c1.8-2.4,3.4-4.8,5-7.2c5.6-8.9,9.8-18.7,12.6-28.9c0.6-2.3,1.1-4.5,1.5-6.6
		c0.5-2,0.7-4.1,0.6-6.2c-0.1-3.9-2.2-7.5-5.1-8.7c-1.3-0.6-2.8-0.7-4.3-0.5c-1.2,0.2-2.4,0.6-3.5,1.1c-1.6,0.7-3,1.6-4.4,2.6
		l-1.1,0.8C330.3,349.8,330.2,349.9,330.1,349.9l0.4-0.3c0.2-0.2,0.6-0.5,1.1-0.8c1.4-1,2.8-1.9,4.4-2.7c1.1-0.6,2.3-0.9,3.6-1.1
		c3.3-0.6,6.6,1,8.2,3.9c1,1.7,1.5,3.6,1.6,5.5c0.1,2.1-0.1,4.2-0.6,6.3c-0.4,2.2-0.9,4.4-1.5,6.7c-2.7,10.2-6.9,20-12.5,29
		c-1.6,2.4-3.2,4.9-5,7.3c-1.8,2.5-3.8,4.8-5.9,6.9c-2.2,2.2-4.9,3.7-7.9,4.5c-1.5,0.3-3,0.3-4.5-0.1c-1.4-0.4-2.8-1.1-3.9-2.1
		c-2.1-2-3.5-4.6-4-7.5c-0.5-2.7-0.3-5.5,0.4-8.2c1.4-5.2,4.1-9.5,6.2-13.7s4.2-8.1,6.1-11.6c2.9-5.6,6.2-11.1,9.7-16.3
		c1.3-1.8,2.3-3.2,3.1-4.1l0.9-1C330,350.1,330.1,350,330.1,349.9z"/>
	<g class="st5">
		<path d="M330.6,364.2L330.6,364.2c1-2.8,3.1-3.6,5.4-4.4s5.1-0.7,6.9,0.9c2.1,1.8,2.4,5.1,1.8,7.8c-0.1,1-0.5,1.9-1.1,2.6
			c-0.7,0.8-1.7,1-2.6,0.6c-1-0.5-1.3-2-2.4-2.4s-2.5,0.5-3.7,0.9c-1.8,0.3-3.6-0.6-4.3-2.3C330.1,366.6,330.1,365.3,330.6,364.2z"
			/>
	</g>
	<g class="st5">
		<path d="M335,350.1c1.1,0.5,1.7,1.6,1.6,2.7c0,1.3-0.3,2.5-0.8,3.6c-0.4,1-0.9,2.1-2,2.1c-0.6,0-1.2-0.3-1.5-0.9
			c-0.3-0.5-0.4-1.1-0.5-1.7c-0.1-1.4,0.1-2.7,0.6-4c0.2-0.7,0.6-1.2,1.2-1.7c0.6-0.4,1.4-0.4,1.9,0"/>
	</g>
	<g class="st5">
		<path d="M347,352.5c1.1,0.5,1.7,1.6,1.6,2.7c-0.1,1.3-0.3,2.5-0.8,3.6c-0.4,1-1,2.1-2,2.1c-0.6,0-1.2-0.3-1.5-0.9
			c-0.3-0.5-0.5-1.1-0.5-1.7c-0.1-1.4,0.1-2.7,0.6-4c0.2-0.7,0.6-1.2,1.2-1.7c0.6-0.4,1.4-0.4,1.9,0"/>
	</g>
	<g class="st5">
		<path d="M341.9,348c1,0.5,1.7,1.6,1.6,2.7c-0.1,1.3-0.3,2.5-0.8,3.6c-0.4,1-1,2.1-2,2.1c-0.6,0-1.2-0.3-1.5-0.9
			c-0.3-0.5-0.4-1.1-0.5-1.7c-0.1-1.4,0.1-2.7,0.6-4c0.2-0.7,0.6-1.2,1.2-1.7c0.6-0.4,1.4-0.4,1.9,0"/>
	</g>
	<g class="st5">
		<path d="M338,388.8c-0.8,6.1-2.4,12-4.9,17.5c-2.5,5.6-6.2,10.6-11,14.4c-2.2,1.7-4.8,3.2-7.6,3.3c-4,0.1-7.5-2.7-9.3-6.3
			s-2-7.6-1.8-11.6c1.9,3.2,4.1,6.6,7.5,8c3.1,1,6.5,0.7,9.3-1c2.8-1.7,5.2-3.9,7.1-6.4c4.3-5.2,7.8-11,10.5-17.3"/>
	</g>
	<path class="st4" d="M114.1,350.7c-4.9-1.5-11-2.8-14.6,0.9c-1.9,2.3-2.7,5.3-2,8.2c0.7,2.8,1.9,5.5,3.5,8
		c8.9,14.3,21.2,26.3,35.7,34.9c5.3,3.1,12.1,5.7,17.2,2.4c4.8-3.1,5.5-10.2,3.2-15.4s-6.8-9.1-11.1-12.9
		C135.9,367.6,125.5,357.5,114.1,350.7"/>
	<path class="st3" d="M114.1,350.7c0,0,0.1,0.1,0.4,0.2l1.1,0.7c1,0.6,2.5,1.5,4.3,2.8c5.2,3.7,10.1,7.6,14.8,11.9l9.8,8.7
		c3.4,3.2,7.5,6.3,10.6,10.6c1.7,2.2,2.8,4.8,3.3,7.5c0.5,2.9,0.1,5.8-1.1,8.4c-0.7,1.3-1.7,2.5-2.9,3.4c-1.2,0.9-2.7,1.5-4.2,1.7
		c-3.1,0.3-6.2-0.2-9-1.4c-2.8-1.2-5.5-2.7-8-4.4c-2.5-1.6-4.9-3.3-7.2-5c-4.4-3.4-8.5-7.1-12.3-11.1c-3.5-3.6-6.7-7.5-9.6-11.6
		c-1.4-1.9-2.6-3.8-3.8-5.7c-1.1-1.8-2.1-3.7-2.8-5.7c-0.6-1.8-0.8-3.8-0.5-5.7c0.5-3.3,3-5.9,6.3-6.5c1.2-0.2,2.5-0.3,3.8-0.2
		c1.7,0.2,3.4,0.5,5.1,1c0.6,0.2,1,0.3,1.3,0.4L114.1,350.7l-0.4-0.1l-1.3-0.3c-1.7-0.4-3.4-0.7-5.1-0.9c-1.2-0.1-2.5,0-3.7,0.2
		c-1.4,0.3-2.8,1-3.8,2c-2.3,2.1-3,6.2-1.7,9.9c0.7,2,1.6,3.8,2.7,5.6c1.2,1.9,2.4,3.8,3.8,5.7c6.1,8.6,13.5,16.2,21.9,22.6
		c2.3,1.7,4.7,3.4,7.2,5c2.5,1.7,5.1,3.1,7.9,4.3c2.7,1.2,5.7,1.7,8.7,1.4c1.4-0.2,2.8-0.8,4-1.6c1.1-0.8,2.1-1.9,2.7-3.2
		c1.2-2.5,1.6-5.3,1.1-8.1c-0.5-2.6-1.6-5.1-3.2-7.3c-3.1-4.3-7.1-7.4-10.6-10.6l-9.7-8.8c-4.7-4.3-9.6-8.3-14.7-12
		c-1.8-1.3-3.3-2.2-4.3-2.9l-1.1-0.7L114.1,350.7z"/>
	<g class="st5">
		<path d="M118.6,364.2L118.6,364.2c-1.9-2.3-4.2-2.3-6.6-2.3s-5,1.1-6.2,3.2c-1.3,2.5-0.5,5.6,1,8c0.5,0.9,1.2,1.6,2,2.1
			c0.9,0.5,2,0.3,2.7-0.4c0.8-0.9,0.5-2.3,1.4-3.1s2.5-0.4,3.8-0.5c1.8-0.3,3.2-1.8,3.2-3.7C119.9,366.3,119.5,365.1,118.6,364.2z"
			/>
	</g>
	<g class="st5">
		<path d="M109.6,352.6c-0.8,0.8-1,2.1-0.5,3.1c0.5,1.2,1.2,2.2,2,3.1c0.7,0.8,1.6,1.6,2.6,1.3c0.6-0.2,1-0.7,1.1-1.3
			c0.1-0.6,0-1.2-0.1-1.8c-0.4-1.3-1.1-2.5-2-3.5c-0.4-0.5-1-0.9-1.7-1.1c-0.7-0.2-1.4,0.1-1.8,0.7"/>
	</g>
	<g class="st5">
		<path d="M99.2,359.1c-0.8,0.8-1,2.1-0.5,3.1c0.5,1.2,1.2,2.2,2,3.1c0.7,0.8,1.6,1.6,2.6,1.3c0.6-0.2,1-0.7,1.1-1.3
			c0.1-0.6,0-1.2-0.2-1.8c-0.4-1.3-1.1-2.5-2-3.5c-0.4-0.5-1-0.9-1.7-1.1c-0.7-0.2-1.4,0.1-1.8,0.7"/>
	</g>
	<g class="st5">
		<path d="M102.4,353c-0.8,0.8-1,2.1-0.5,3.1c0.5,1.2,1.2,2.2,2,3.1c0.7,0.8,1.6,1.6,2.6,1.3c0.6-0.2,1-0.7,1.1-1.3
			c0.1-0.6,0-1.2-0.2-1.8c-0.4-1.3-1.1-2.5-2-3.5c-0.4-0.5-1-0.9-1.7-1.1c-0.7-0.2-1.4,0.1-1.8,0.7"/>
	</g>
	<g class="st5">
		<path d="M120.4,389.9c2.9,5.4,6.5,10.3,10.7,14.7c4.3,4.4,9.5,7.7,15.3,9.7c2.7,0.9,5.6,1.3,8.2,0.4c3.7-1.3,6.1-5.2,6.5-9.1
			s-0.8-7.9-2.4-11.5c-0.7,3.7-1.5,7.6-4.2,10.1c-2.5,2.1-5.8,2.9-9,2.3c-3.2-0.6-6.2-1.8-8.9-3.5c-5.8-3.4-11.2-7.6-15.8-12.5"/>
	</g>
	<g class="st5">
		<path class="st6" d="M116.7,384.5c-0.3,0.4-0.6,0.8-0.9,1.2c5-8.1,15.7-10.6,23.9-5.6c8.1,5,10.6,15.7,5.6,23.9
			c-0.3,0.4-0.6,0.9-0.9,1.3c-11.2-4.6-21.4-11.5-29.9-20.1"/>
	</g>
	<path class="st3" d="M399,374.6c0,0.2,0,0.4,0,0.7c-0.1,0.5-0.2,1.1-0.3,1.9c-0.2,1.7-0.6,4.1-1.2,7c-1.4,7.7-3.4,15.3-6.1,22.7
		c-1.6,4-3.4,8-5.6,11.7c-0.5,0.9-1.1,1.7-1.6,2.5l-0.8,1.2l-0.8,1.1l-1.5,2c-0.5,0.6-1.1,1.2-1.6,1.8s-1,1.1-1.5,1.6l-1.4,1.3
		l-1.2,1.1l-1.1,0.9l-1.5,1.2c-0.2,0.2-0.4,0.3-0.6,0.4c0.2-0.2,0.3-0.3,0.5-0.5l1.5-1.3l1.1-0.9l1.2-1.2l1.4-1.3
		c0.5-0.5,0.9-1,1.4-1.6l1.5-1.8l1.5-2.1l0.8-1.1c0.2-0.4,0.5-0.8,0.7-1.2c0.5-0.8,1-1.6,1.5-2.5c2.1-3.7,4-7.6,5.5-11.6
		c2.7-7.3,4.8-14.9,6.3-22.6c0.6-2.9,1-5.3,1.3-7c0.1-0.8,0.3-1.4,0.4-1.9C398.8,375.1,398.9,374.8,399,374.6z"/>
	<path class="st3" d="M168.9,314c0.1-0.2,0.3-0.3,0.5-0.5l1.4-1.3c0.6-0.6,1.4-1.2,2.3-2s1.9-1.7,3.1-2.6c2.3-1.9,5.1-4,8.3-6.3
		s6.8-4.6,10.8-6.9s7.8-4.2,11.3-5.9s6.8-3,9.6-4.1c1.4-0.5,2.6-1,3.8-1.4s2.1-0.7,2.9-1l1.8-0.6c0.2-0.1,0.4-0.1,0.6-0.2
		c-0.2,0.1-0.4,0.2-0.6,0.3l-1.8,0.6c-0.8,0.3-1.7,0.6-2.8,1s-2.4,0.9-3.7,1.4c-2.8,1.1-6,2.5-9.5,4.2s-7.3,3.7-11.3,5.9
		s-7.5,4.6-10.8,6.8s-6,4.3-8.4,6.2c-1.2,0.9-2.2,1.8-3.1,2.5s-1.7,1.4-2.3,1.9l-1.5,1.2C169.3,313.7,169.1,313.9,168.9,314z"/>
	<path class="st3" d="M140.8,297.3c0,0,0.1,0,0.2-0.1l0.6-0.4l2.2-1.4c0.9-0.6,2.1-1.3,3.5-2.1s3-1.8,4.8-2.7l2.8-1.5
		c1-0.5,2-1,3.1-1.5c2.1-1.1,4.5-2.1,6.9-3.2c4.9-2.1,10.4-4.2,16.3-6s11.6-3.2,16.9-4.2c2.6-0.5,5.1-1,7.5-1.3
		c1.2-0.2,2.3-0.4,3.4-0.5l3.2-0.4c2-0.2,3.8-0.3,5.4-0.5s3-0.2,4.1-0.2l2.6-0.1h0.7c0.1,0,0.2,0,0.2,0h-0.2l-0.7,0.1l-2.6,0.2
		c-1.1,0.1-2.5,0.1-4.1,0.3s-3.4,0.3-5.4,0.5l-3.1,0.4c-1.1,0.1-2.2,0.3-3.4,0.5c-2.4,0.3-4.8,0.8-7.5,1.3
		c-5.2,1.1-10.9,2.5-16.8,4.2s-11.4,3.9-16.3,5.9c-2.4,1.1-4.8,2.1-6.9,3.1c-1.1,0.5-2.1,1-3.1,1.5l-2.8,1.5
		c-1.8,0.9-3.4,1.8-4.8,2.6s-2.6,1.5-3.6,2l-2.2,1.3l-0.6,0.3C140.8,297.2,140.8,297.3,140.8,297.3z"/>
	<path class="st3" d="M259.9,264.3c0.1,0.1-2.5,1.2-5.4,3.1s-4.9,3.9-5,3.7C252.3,268,255.9,265.6,259.9,264.3L259.9,264.3z"/>
	<path class="st3" d="M276.9,269.7c0,0.1-1.5-0.6-3.9-1.2c-3.2-0.8-6.5-1.1-9.8-0.9c-3.3,0.1-6.5,1-9.4,2.5
		c-1.2,0.7-2.2,1.6-2.9,2.8c0.1-0.4,0.3-0.7,0.5-1c0.6-0.8,1.4-1.5,2.2-2.1c2.2-1.4,5.7-2.4,9.6-2.7c3.3-0.2,6.7,0.1,9.9,1.1
		c1,0.3,1.9,0.6,2.9,1C276.2,269.3,276.5,269.5,276.9,269.7z"/>
	<path class="st1" d="M244,278.1l1.2,2.8c0.3,0.7,0.6,1.5,0.7,2.3c0.1,0.8-0.1,1.6-0.7,2.2c-0.9,0.8-2.3,0.9-3.3,0.2
		c-0.9-0.7-1.6-1.7-2-2.8c-0.4-1.1-0.7-2.3-1.2-3.3c1.3-1.2,1.9-3,1.6-4.8C240.4,274.7,241.4,277.9,244,278.1z"/>
	<path class="st3" d="M227.7,267.9c1.8-3.6,5-6.3,8.9-7.4c6.4-1.7,13,5,13,5s-7.7-2.3-7.6,1.6s2.4,3.7-0.2,6.3s-7-0.1-8-3.1
		l-2.1-2.9L227.7,267.9z"/>
	<path class="st3" d="M254.1,271.6c0,0,0,0.1,0,0.4c0,0.3,0,0.7,0,1c-0.2,1.3-0.7,2.5-1.5,3.5c-1.2,1.6-2.9,2.6-4.9,2.8
		c-2.4,0.2-4.8-0.8-6.3-2.6c-0.8-0.9-1.3-1.9-1.6-3.1l0.5-0.1c0.6,1.9,0.3,4-0.8,5.6c-1.6,2.2-4.3,3.1-6.9,2.3
		c-0.3-0.1-0.5-0.2-0.8-0.3c-0.2-0.1-0.2-0.1-0.2-0.2s0.4,0.1,1,0.3c1,0.2,2,0.2,2.9,0c1.4-0.3,2.7-1.2,3.5-2.4
		c1-1.5,1.3-3.5,0.7-5.2l0.5-0.1c0.3,1.1,0.8,2,1.5,2.8c1.5,1.7,3.6,2.6,5.9,2.5c1.8-0.2,3.5-1.1,4.6-2.6c0.8-1,1.3-2.1,1.6-3.3
		C254.1,272.2,254,271.6,254.1,271.6z"/>
	<path class="st6" d="M241.7,261.4c-0.7,0.1-1.3,0.1-2,0.1c-1.6,0-3.2,0.2-4.8,0.6c-1.5,0.4-2.9,1.3-4.1,2.4
		c-0.8,0.9-1.1,1.6-1.2,1.6c0.1-0.7,0.5-1.3,0.9-1.9c1.1-1.3,2.5-2.2,4.2-2.7c1.6-0.4,3.3-0.6,5-0.5
		C240.4,261.1,241.1,261.2,241.7,261.4z"/>
	<path class="st3" d="M243.6,286.3c-1-1.6-1.7-3.4-2.2-5.2c-0.6-1.8-1-3.6-1.1-5.5c0.1,0,0.7,2.4,1.6,5.4S243.8,286.2,243.6,286.3z"
		/>
	<path class="st3" d="M172.4,297.5c0.1-0.1,0.3-0.2,0.4-0.4l1.2-0.9c1-0.8,2.6-1.9,4.6-3.2s4.4-2.8,7.2-4.3s5.9-3,9.2-4.4
		s6.6-2.5,9.6-3.4s5.8-1.6,8.1-2s4.2-0.8,5.6-1l1.5-0.2c0.2,0,0.4,0,0.5,0c-0.2,0.1-0.3,0.1-0.5,0.1l-1.5,0.3
		c-1.3,0.2-3.2,0.6-5.5,1.1s-5,1.2-8,2.1s-6.2,2.1-9.6,3.4s-6.4,2.9-9.2,4.3s-5.2,2.9-7.2,4.1s-3.6,2.3-4.7,3.1l-1.3,0.9
		C172.6,297.4,172.4,297.5,172.4,297.5z"/>
	
		<ellipse transform="matrix(0.2319 -0.9727 0.9727 0.2319 -87.344 385.7796)" class="st1" cx="200.6" cy="248.2" rx="22.6" ry="22.5"/>
	<path class="st3" d="M223.2,248.2c0,10.9-7.4,19.7-13.6,19.7s-11.2-8.8-11.2-19.7s5-19.7,11.3-19.7S223.2,237.3,223.2,248.2z"/>
	<circle class="st6" cx="214.6" cy="237.1" r="3.9"/>
	<path class="st6" d="M204.6,262.6c-0.2-0.3-0.4-0.6-0.6-0.9c-0.5-0.9-0.9-1.8-1.2-2.8c-0.5-1.4-0.9-2.8-1.2-4.3
		c-0.3-1.8-0.5-3.6-0.6-5.4c0-1.8,0.1-3.7,0.4-5.5c0.3-1.5,0.6-2.9,1.1-4.3c0.3-1,0.7-1.9,1.1-2.8c0.1-0.4,0.3-0.7,0.5-1
		c0.1,0-0.6,1.5-1.3,3.9c-0.4,1.4-0.8,2.8-1,4.3c-0.3,1.8-0.4,3.6-0.4,5.4c0,1.8,0.2,3.6,0.5,5.4c0.3,1.4,0.6,2.9,1.1,4.3
		C204,261.1,204.7,262.5,204.6,262.6z"/>
	<path class="st3" d="M194.9,219.5c-0.1,0.7-0.9,1.3-2,1.8s-2.6,1-4.1,1.7s-2.8,1.2-3.9,1.7c-1.1,0.5-2,0.8-2.6,0.4s-0.7-1.5,0-2.9
		c1-1.8,2.6-3.2,4.5-4c1.9-0.8,3.9-1,5.9-0.5C194.2,218.1,195,218.8,194.9,219.5z"/>
	<path class="st4" d="M87.3,411.6l5.1-7.9c24.1,26.5,103.9,58.1,175.3-13.2c30.7-30.6,28.2-82.4,28.2-82.4l-6.1-19.2h6.1
		c0,0,17.7,32.6-0.8,75.3c0,0-19,50.6-77.2,69C126.1,462.2,87.3,411.6,87.3,411.6z"/>
	<g class="st7">
		<path class="st6" d="M87.3,411.6l5.1-7.9c24.1,26.5,103.9,58.1,175.3-13.2c30.7-30.6,28.2-82.4,28.2-82.4l-6.1-19.2h6.1
			c0,0,17.7,32.6-0.8,75.3c0,0-19,50.6-77.2,69C126.1,462.2,87.3,411.6,87.3,411.6z"/>
	</g>
	<circle class="st4" cx="55.3" cy="390.7" r="43.4"/>
	<g class="st7">
		<circle class="st6" cx="55.3" cy="390.7" r="43.4"/>
	</g>
	<path class="st4" d="M65.7,348.5c0,0.3-0.1,0.6-0.2,0.8c-0.1,0.6-0.3,1.4-0.5,2.4c-0.1,0.5-0.2,1.1-0.4,1.7s-0.4,1.3-0.6,2
		c-0.4,1.4-0.8,3.1-1.5,4.8l-1,2.8c-0.3,1-0.8,1.9-1.2,3c-0.8,2-1.8,4.2-2.9,6.4c-2.4,4.8-5.2,9.4-8.2,13.8
		c-3.1,4.4-6.6,8.5-10.3,12.3c-1.8,1.7-3.4,3.4-5.1,4.8c-0.8,0.7-1.6,1.5-2.4,2.1l-2.3,1.8c-1.4,1.2-2.8,2.1-4,3
		c-0.6,0.4-1.2,0.8-1.7,1.2l-1.5,0.9l-2,1.3c-0.2,0.2-0.5,0.3-0.7,0.4c0.2-0.2,0.4-0.3,0.7-0.5l2-1.3l1.4-1c0.5-0.4,1.1-0.8,1.7-1.2
		c1.2-0.9,2.6-1.9,4-3.1l2.3-1.8c0.8-0.6,1.5-1.4,2.4-2.1c1.7-1.4,3.3-3.1,5-4.8c3.7-3.8,7.1-7.9,10.2-12.3
		c3.1-4.4,5.8-8.9,8.2-13.7c1.1-2.2,2.1-4.3,2.9-6.3c0.4-1,0.9-2,1.2-2.9s0.7-1.9,1-2.7c0.7-1.7,1.1-3.4,1.6-4.8
		c0.2-0.7,0.4-1.4,0.6-2s0.3-1.2,0.4-1.7c0.3-1,0.5-1.8,0.6-2.3C65.5,349,65.5,348.8,65.7,348.5z"/>
	<path class="st4" d="M75.9,353c0,0.3-0.1,0.6-0.2,0.9c-0.1,0.6-0.3,1.4-0.6,2.5c-0.1,0.5-0.3,1.1-0.4,1.8s-0.4,1.3-0.6,2.1
		c-0.5,1.5-0.9,3.2-1.7,5.1l-1.1,2.9c-0.4,1-0.9,2-1.3,3.1c-0.9,2.1-2,4.4-3.2,6.7c-2.7,5-5.7,9.8-9.1,14.3
		c-3.5,4.5-7.2,8.7-11.3,12.6c-1.9,1.8-3.7,3.5-5.6,4.9c-0.9,0.7-1.7,1.5-2.6,2.1l-2.5,1.9c-1.5,1.2-3.1,2.1-4.4,3
		c-1.3,0.9-2.5,1.6-3.4,2.1l-2.2,1.3c-0.2,0.2-0.5,0.3-0.8,0.4c0.2-0.2,0.5-0.4,0.7-0.5l2.1-1.4c0.9-0.6,2.1-1.3,3.3-2.2
		c1.3-0.9,2.8-1.9,4.3-3.1l2.4-1.8c0.9-0.6,1.7-1.4,2.6-2.1c1.8-1.5,3.6-3.1,5.5-4.9c4-3.9,7.8-8.1,11.2-12.6
		c3.4-4.5,6.4-9.3,9.1-14.2c1.2-2.3,2.3-4.5,3.2-6.6c0.4-1.1,1-2.1,1.3-3.1s0.8-2,1.1-2.9c0.8-1.8,1.2-3.5,1.7-5
		c0.2-0.8,0.5-1.4,0.7-2.1s0.3-1.2,0.5-1.8c0.3-1,0.5-1.8,0.7-2.4C75.7,353.5,75.8,353.2,75.9,353z"/>
	<path class="st4" d="M85.4,360.8c-0.1,0.3-0.1,0.6-0.2,0.9c-0.2,0.6-0.4,1.4-0.7,2.5c-0.2,0.5-0.3,1.1-0.5,1.8s-0.5,1.3-0.8,2.1
		c-0.6,1.5-1.1,3.2-2,5l-1.2,2.9c-0.4,1-0.9,2-1.5,3.1c-1,2.1-2.2,4.3-3.5,6.6c-2.8,4.9-6,9.7-9.5,14.2c-3.6,4.5-7.4,8.7-11.6,12.6
		c-2,1.8-3.8,3.5-5.6,4.9c-0.9,0.7-1.8,1.5-2.6,2.1l-2.5,1.9c-1.6,1.2-3.1,2.2-4.4,3c-0.7,0.4-1.3,0.9-1.8,1.2l-1.6,0.9l-2.2,1.3
		c-0.3,0.2-0.5,0.3-0.8,0.4c0.2-0.2,0.5-0.4,0.7-0.5l2.2-1.4l1.6-1c0.6-0.4,1.2-0.8,1.8-1.2c1.3-0.9,2.8-1.9,4.4-3.1
		c0.8-0.6,1.6-1.2,2.5-1.9s1.7-1.4,2.6-2.1c1.8-1.5,3.6-3.2,5.6-4.9c4.1-3.9,8-8.1,11.5-12.6c3.5-4.5,6.7-9.2,9.6-14.1
		c1.3-2.3,2.5-4.5,3.5-6.6c0.5-1,1-2,1.5-3s0.8-2,1.2-2.9c0.8-1.8,1.4-3.5,2-5c0.3-0.7,0.6-1.4,0.8-2s0.4-1.2,0.6-1.8
		c0.3-1,0.6-1.8,0.8-2.4C85.2,361.3,85.3,361,85.4,360.8z"/>
	<path class="st4" d="M96.7,401.9c-0.3-0.1-0.7-0.2-1-0.4c-0.6-0.3-1.5-0.7-2.5-1.3c-2.1-1.1-5-2.7-8.2-4.6s-5.9-3.7-7.9-5
		c-1-0.7-1.8-1.2-2.3-1.6c-0.3-0.2-0.6-0.4-0.8-0.7c0.3,0.1,0.6,0.3,0.9,0.5l2.4,1.5c2,1.3,4.8,3,7.9,4.9s6,3.5,8.1,4.7l2.4,1.4
		C96.2,401.4,96.5,401.6,96.7,401.9z"/>
	<path class="st4" d="M98.6,392.5c-1-0.6-2-1.2-2.9-1.9c-1.8-1.2-4.2-2.9-7-4.5s-5.4-3.1-7.3-4.2c-1-0.5-2-1.1-3-1.8
		c0.3,0.1,0.6,0.2,0.9,0.3c0.6,0.2,1.3,0.6,2.3,1.1c1.9,1,4.6,2.4,7.4,4s5.2,3.4,7,4.7c0.9,0.6,1.6,1.2,2,1.6S98.6,392.5,98.6,392.5
		z"/>
	<path class="st4" d="M71.9,429.8c-0.2,0-0.5-7.9-0.8-17.8s-0.4-17.8-0.2-17.8s0.5,7.9,0.8,17.8S72,429.8,71.9,429.8z"/>
	<path class="st4" d="M50.5,434.8c-0.3-3.3-0.4-6.6-0.3-9.9c-0.1-3.3,0-6.6,0.3-9.9c0.3,3.3,0.3,6.6,0.3,9.9
		C50.8,428.2,50.7,431.5,50.5,434.8z"/>
	<path class="st4" d="M61,433.6c-0.1,0-0.2-6.5-0.2-14.5s0.2-14.5,0.4-14.5s0.2,6.5,0.2,14.5S61.1,433.6,61,433.6z"/>
	<path class="st4" d="M38.8,398.4c-0.1,0.1-5.7-3.5-12.6-8.2s-12.4-8.5-12.3-8.6s5.7,3.5,12.6,8.2S38.9,398.3,38.8,398.4z"/>
	<path class="st4" d="M31.3,404.6c-0.3,0-0.6-0.1-0.9-0.3c-0.5-0.2-1.3-0.5-2.2-1c-2.4-1.2-4.7-2.5-7-3.9c-2.7-1.7-5-3.4-6.6-4.6
		c-0.9-0.6-1.8-1.3-2.6-2.1c1,0.5,1.9,1.2,2.8,1.8c1.7,1.2,4,2.8,6.7,4.5s5.1,3,6.9,4C29.4,403.5,30.4,404,31.3,404.6z"/>
	<path class="st4" d="M57.3,372.2c-0.5,0.2-1,0.4-1.5,0.6c-0.6,0.2-1.2,0.4-1.8,0.6c-0.7,0.2-1.5,0.4-2.5,0.6
		c-2.2,0.5-4.3,0.8-6.5,1c-2.7,0.2-5.4,0.3-8.1,0.2c-2.7-0.1-5.4-0.3-8.1-0.8c-2.2-0.3-4.3-0.8-6.5-1.4c-0.9-0.2-1.7-0.5-2.4-0.7
		s-1.3-0.4-1.8-0.6c-0.5-0.2-1-0.4-1.5-0.6c0.5,0.1,1.1,0.3,1.6,0.5c0.5,0.2,1.1,0.4,1.8,0.5s1.5,0.4,2.4,0.6c1.8,0.5,4,0.9,6.5,1.3
		c2.7,0.4,5.3,0.6,8,0.7c2.7,0.1,5.3,0,8-0.2c2.2-0.2,4.4-0.5,6.5-0.9c0.9-0.2,1.8-0.4,2.5-0.5s1.3-0.3,1.8-0.5
		C56.2,372.4,56.8,372.3,57.3,372.2z"/>
	<path class="st4" d="M62.1,361c-0.5,0.3-1,0.5-1.5,0.7c-0.5,0.2-1.1,0.4-1.8,0.7s-1.5,0.5-2.4,0.8c-2.1,0.6-4.2,1.2-6.4,1.6
		c-2.6,0.5-5.3,0.8-8,1c-2.7,0.2-5.4,0.2-8.1,0c-2.2-0.1-4.4-0.4-6.5-0.9c-0.9-0.2-1.8-0.4-2.5-0.6c-0.6-0.2-1.2-0.3-1.8-0.5
		c-0.5-0.2-1-0.3-1.5-0.6c0.5,0.1,1.1,0.2,1.6,0.4c0.5,0.1,1.1,0.3,1.8,0.5s1.5,0.4,2.5,0.5c2.1,0.4,4.3,0.6,6.5,0.7
		c2.7,0.1,5.3,0.1,8-0.1c2.7-0.2,5.3-0.5,7.9-1c2.4-0.5,4.6-0.9,6.4-1.5c0.9-0.2,1.7-0.5,2.4-0.7s1.3-0.4,1.8-0.6
		C61,361.2,61.6,361.1,62.1,361z"/>
	<path class="st4" d="M65.1,351.1c-0.4,0.2-0.9,0.4-1.3,0.5c-0.9,0.3-2.1,0.8-3.7,1.2c-4.1,1.3-8.3,2.2-12.6,2.8
		c-4.3,0.6-8.6,0.9-12.9,0.7c-1.7-0.1-3-0.2-3.9-0.3c-0.5,0-1-0.1-1.4-0.2c0.5,0,1,0,1.4,0c0.9,0,2.2,0.1,3.9,0.1
		c4.3,0,8.5-0.2,12.8-0.8c4.2-0.6,8.4-1.5,12.6-2.7c1.6-0.4,2.9-0.8,3.7-1.1C64.1,351.3,64.6,351.2,65.1,351.1z"/>
	<path class="st4" d="M82.6,393.8c-1.7,2.3-3.6,4.4-5.6,6.5c-1.9,2.2-3.8,4.2-5.9,6.1c1.7-2.3,3.6-4.4,5.6-6.5
		C78.5,397.7,80.5,395.7,82.6,393.8z"/>
	<path class="st4" d="M90.9,398.7c-0.1,0.3-0.3,0.6-0.4,0.8c-0.3,0.5-0.8,1.3-1.5,2.1c-3.4,4.6-7.8,8.5-12.8,11.3
		c-1,0.5-1.8,0.9-2.3,1.2c-0.3,0.2-0.6,0.3-0.9,0.3c0-0.1,1.2-0.7,3-1.8c2.4-1.5,4.7-3.1,6.8-5c2.1-1.9,4.1-3.9,5.8-6.1
		C90.1,399.8,90.8,398.6,90.9,398.7z"/>
	<path class="st4" d="M93.4,403.1c-0.4,4-2.4,7.6-5.6,10c1.3-1.5,2.4-3,3.4-4.7C92.1,406.7,92.8,405,93.4,403.1z"/>
	<path class="st4" d="M101.8,412.3c-0.3,1.6-1,3.1-2.1,4.3c-1,1.3-2.3,2.4-3.8,3c1.2-1,2.3-2.1,3.4-3.3
		C100.2,415,101,413.7,101.8,412.3z"/>
	<path class="st4" d="M115.4,420.6c0,1.7-0.4,3.4-1.3,4.9c-0.8,1.6-1.9,2.9-3.4,3.7c1.1-1.2,2.1-2.6,3-4
		C114.4,423.8,114.9,422.2,115.4,420.6z"/>
	<path class="st4" d="M130.9,428.1c0.4,1.6,0.2,3.3-0.5,4.8c-0.5,1.6-1.6,2.9-2.9,3.9C129.6,434.4,130.8,431.3,130.9,428.1z"/>
	<path class="st4" d="M145.2,440.9c-0.1,0,0.4-2,0.6-4.4s-0.2-4.5-0.1-4.5C146.7,434.9,146.5,438.1,145.2,440.9z"/>
	<path class="st4" d="M157,441.7c-0.1-0.1,0.6-1.8,0.8-4.1s-0.2-4.1,0-4.1C158.8,436.2,158.5,439.3,157,441.7L157,441.7z"/>
	<path class="st4" d="M173.4,441.6c-0.1,0,0.1-1.7-0.2-3.8s-0.9-3.6-0.8-3.7c0.8,1.1,1.2,2.3,1.3,3.6
		C174,439.1,173.9,440.4,173.4,441.6z"/>
	<path class="st4" d="M184.8,440.6c-0.2,0-0.2-1.6-0.7-3.5s-1.4-3.3-1.2-3.3C184.5,435.7,185.2,438.2,184.8,440.6z"/>
	<path class="st4" d="M198.1,437.7c-0.2,0-0.1-1.6-0.7-3.4s-1.5-3-1.4-3.1C197.8,432.9,198.6,435.3,198.1,437.7L198.1,437.7z"/>
	<path class="st4" d="M214.5,434.4c-0.2,0-0.2-1.8-0.9-3.7s-1.8-3.4-1.7-3.5C213.9,429,214.9,431.7,214.5,434.4L214.5,434.4z"/>
	<path class="st4" d="M228.4,429c-0.1,0-0.7-1.8-1.9-3.8s-2.5-3.3-2.4-3.5C226.4,423.5,227.9,426.1,228.4,429L228.4,429z"/>
	<path class="st4" d="M243.8,420.9c-0.1,0-0.6-1.9-1.9-3.9s-2.7-3.3-2.6-3.4C241.8,415.2,243.5,417.9,243.8,420.9L243.8,420.9z"/>
	<path class="st4" d="M258.9,410c-0.7-1.2-1.4-2.3-2.2-3.4c-0.9-1-1.9-1.8-3-2.7c1.4,0.4,2.6,1.2,3.4,2.3
		C258.1,407.3,258.8,408.6,258.9,410z"/>
	<path class="st4" d="M271.9,399c-0.1,0.1-1.3-1.5-3.1-3.2s-3.5-2.7-3.4-2.9c1.4,0.5,2.7,1.4,3.8,2.5
		C270.3,396.4,271.2,397.6,271.9,399z"/>
	<path class="st4" d="M283.5,384.6c-0.1,0.1-1.1-1.5-2.9-3s-3.5-2.2-3.5-2.4C280,379.9,282.3,381.9,283.5,384.6L283.5,384.6z"/>
	<path class="st4" d="M293.8,367.4c-1.2-0.9-2.4-1.8-3.6-2.6c-1.3-0.6-2.7-1.2-4.1-1.7c1.6,0,3.1,0.4,4.4,1.2
		C291.8,365,293,366.1,293.8,367.4z"/>
	<path class="st4" d="M300.1,348.9c-2.7-1.6-5.8-2.3-8.9-2.1C294.3,345.9,297.7,346.7,300.1,348.9z"/>
	<path class="st4" d="M302.9,329c0,0.1-1.7-0.4-3.8-0.6s-3.8,0-3.8-0.2C297.8,327.4,300.6,327.7,302.9,329L302.9,329z"/>
	<path class="st4" d="M301.9,309.1c-0.9,0.1-1.9,0.2-2.8,0.1c-0.9,0.1-1.9,0.2-2.8,0.1C298,308.5,300,308.4,301.9,309.1L301.9,309.1
		z"/>
	<path class="st4" d="M297.8,295.4c-1-0.2-2-0.3-3-0.3c-1,0.2-1.9,0.5-2.8,0.9c0,0,0.2-0.3,0.7-0.7c0.6-0.4,1.4-0.7,2.1-0.8
		c0.8-0.1,1.5,0,2.2,0.3C297.5,295.1,297.8,295.3,297.8,295.4z"/>
	<g class="st5">
		<path d="M229.9,362.6c4.9,9.2,16.2,13.9,26.5,12.7s19.5-7.7,26-15.9c4.8-6.1,8.3-13.9,6.3-21.4c-10.6,22.1-36.5,32.3-59.4,23.3"/>
	</g>
	<path class="st4" d="M290.5,283.4c-4.8-7.4-2.9-17.4,4.3-22.5c2.8-2,6.1-3.1,8.7-5.2c3.2-2.8,5.2-6.8,5.4-11.1
		c0.2-4.3-0.7-8.5-2.7-12.2l2.8-1.4l0.2,0.3c6.9,9.1,5.1,22-3.9,28.9c-1.1,0.8-2.2,1.5-3.4,2.1c-2.1,1-4,2.2-5.8,3.6
		c-3.5,3-2,6.4-2,6.4"/>
	<g class="st7">
		<path class="st6" d="M290.5,283.4c-4.8-7.4-2.9-17.4,4.3-22.5c2.8-2,6.1-3.1,8.7-5.2c3.2-2.8,5.2-6.8,5.4-11.1
			c0.2-4.3-0.7-8.5-2.7-12.2l2.8-1.4l0.2,0.3c6.9,9.1,5.1,22-3.9,28.9c-1.1,0.8-2.2,1.5-3.4,2.1c-2.1,1-4,2.2-5.8,3.6
			c-3.5,3-2,6.4-2,6.4"/>
	</g>
	<path class="st4" d="M294.4,272.4c-1.1-0.2-2.3-0.3-3.4-0.3c-1.1,0.2-2.3,0.5-3.3,0.9C289.5,271.3,292.2,271.1,294.4,272.4z"/>
	<path class="st4" d="M297,264.8c-0.1,0-0.6-0.8-1.4-1.6s-1.7-1.3-1.6-1.4s1.1,0.1,2,1S297.1,264.7,297,264.8z"/>
	<path class="st4" d="M306.8,259c-0.1,0-0.5-0.9-1.3-1.9s-1.6-1.5-1.6-1.6s1.1,0.3,2,1.3S306.9,258.9,306.8,259z"/>
	<path class="st4" d="M313.4,246.5c-0.8-0.1-1.5-0.2-2.3-0.4c-0.8,0-1.5-0.1-2.3-0.2C310.3,245.3,312,245.6,313.4,246.5z"/>
	<path class="st4" d="M311.1,234.5c0,0.1-0.9,0.1-1.8,0.4s-1.6,0.7-1.7,0.6s0.5-0.8,1.6-1.1S311.2,234.4,311.1,234.5z"/>
	<path class="st4" d="M218.6,308.5c3.5-2.3,8.2-1.5,12.3-0.2s8,3.2,12.3,2.8c4.6-0.4,8.5-3.5,11.5-7c3.7-4.3,6.5-9.3,8.2-14.8
		c1.7-5.5,2.5-12,7.3-15.3s11.4-1.6,15.5,2.2s6.1,9.5,7.4,15c3,12.7,3,26.3-1.1,38.7s-12.6,23.5-24.1,29.8s-26,7.1-37.7,1.3"/>
	<path class="st3" d="M230.1,361c0.2,0.1,0.4,0.1,0.5,0.2l1.6,0.7c0.7,0.3,1.6,0.6,2.6,1s2.2,0.7,3.6,1c3.4,0.7,6.8,1,10.3,0.9
		c2.1-0.1,4.3-0.3,6.4-0.7c2.4-0.4,4.7-1.1,7-1.9c5.2-1.9,10-4.8,14.1-8.5c4.8-4.2,8.7-9.2,11.7-14.9c3.3-6.2,5.4-12.9,6.3-19.9
		c1-7.5,0.8-15.1-0.5-22.5c-0.6-3.8-1.5-7.5-2.8-11.1c-1.2-3.5-3.2-6.7-5.9-9.2c-2.7-2.4-6.1-3.6-9.7-3.5c-1.7,0.1-3.4,0.6-4.8,1.5
		c-1.4,0.9-2.6,2.2-3.4,3.6c-1.7,2.8-2.5,6.1-3.3,9.1c-0.7,3-1.8,5.9-3.2,8.7c-1.3,2.6-2.8,5.1-4.7,7.3c-1.6,2.1-3.6,4-5.8,5.6
		c-2,1.5-4.3,2.4-6.7,2.7c-2.2,0.2-4.4,0-6.5-0.7c-3.9-1.1-7.1-2.6-9.9-3.1c-2.1-0.5-4.3-0.4-6.4,0.2c-0.5,0.2-1.1,0.4-1.6,0.6
		c-0.3,0.2-0.5,0.3-0.5,0.3l0.5-0.3c0.5-0.3,1-0.5,1.6-0.7c2.1-0.6,4.4-0.7,6.5-0.3c2.8,0.4,6.1,1.9,9.9,3c2,0.6,4.2,0.8,6.3,0.6
		c2.4-0.3,4.6-1.3,6.6-2.7c2.1-1.6,4-3.4,5.7-5.5c1.8-2.2,3.3-4.7,4.6-7.3c1.3-2.8,2.4-5.7,3.1-8.7c0.8-3,1.6-6.3,3.3-9.3
		c0.9-1.5,2.1-2.8,3.5-3.8c1.5-1,3.2-1.5,5-1.6c1.8-0.1,3.6,0.2,5.3,0.8c1.7,0.6,3.4,1.6,4.8,2.8c2.8,2.6,4.9,5.8,6.1,9.4
		c1.3,3.6,2.2,7.4,2.8,11.2c1.3,7.5,1.5,15.1,0.5,22.6c-0.9,7-3.1,13.8-6.4,20.1c-3,5.7-7,10.8-11.8,15c-4.2,3.7-9,6.6-14.3,8.5
		c-2.3,0.8-4.6,1.5-7,1.9c-2.1,0.4-4.3,0.6-6.5,0.7c-3.5,0.1-6.9-0.2-10.3-1c-1.4-0.3-2.6-0.7-3.6-1s-1.9-0.7-2.6-1l-1.5-0.7
		C230.3,361.1,230.1,361,230.1,361z"/>
	<path class="st3" d="M273.1,285.8c-0.5-0.4-0.9-1-1.2-1.6c-0.8-1.4-1.1-3-1.1-4.6c0-1.6,0.4-3.2,1.2-4.6c0.3-0.6,0.7-1.1,1.2-1.5
		c0.1,0.1-0.4,0.6-0.9,1.7c-1.3,2.8-1.4,6.1-0.1,8.9C272.8,285.1,273.2,285.7,273.1,285.8z"/>
	<path class="st3" d="M279.2,284.9c-0.5-0.5-0.8-1-1.1-1.6c-0.7-1.4-1.1-3-1.2-4.6c-0.1-1.6,0.1-3.2,0.6-4.7
		c0.2-0.6,0.5-1.2,0.9-1.8C276.9,276.4,277.2,281,279.2,284.9L279.2,284.9z"/>
	<path class="st3" d="M284.1,286.6c-0.6-1.5-0.9-3.2-0.8-4.8c0-1.6,0.3-3.3,1-4.8c0.1,0-0.4,2.1-0.5,4.8S284.2,286.6,284.1,286.6z"
		/>
	<path class="st4" d="M367.6,299.1c-9.1,5.6-21.3,4.5-30.8-0.5s-16.7-13.4-22.6-22.2c-1.7-2.5-3.4-5.1-6.1-6.7
		c-5.2-3-12.4-0.1-15.3,5s-2.4,11.6-0.1,17.1c0,0,6.1,29.6,37.9,47.9"/>
	<path class="st3" d="M330.5,339.9c-0.1,0-0.2-0.1-0.3-0.1l-0.8-0.5c-0.7-0.4-1.7-1-3-1.8c-0.6-0.4-1.4-0.8-2.1-1.4l-2.5-1.8
		c-0.9-0.7-1.9-1.3-2.8-2.1l-3-2.6c-4.9-4.4-9.4-9.4-13.1-14.9c-2.3-3.3-4.3-6.8-6-10.4c-1.9-3.9-3.5-8-4.6-12.3v0
		c-1.5-3.5-2.2-7.3-1.9-11.1c0.2-2,0.8-3.9,1.7-5.7c2.4-4.6,7.3-7.3,12.4-6.9c1.5,0.2,2.9,0.7,4.1,1.5c1.2,0.8,2.2,1.8,3.1,2.9
		c0.9,1.1,1.7,2.3,2.4,3.4s1.5,2.2,2.3,3.3c1.6,2.2,3.2,4.2,4.9,6.2c3.1,3.7,6.7,7,10.6,9.8c3.4,2.5,7.2,4.4,11.3,5.6
		c5.8,1.9,12.1,2.1,18,0.6c0.5-0.1,1-0.3,1.5-0.5c0.5-0.2,0.9-0.3,1.3-0.5c0.8-0.3,1.4-0.6,1.9-0.9l1.1-0.6c0.1-0.1,0.3-0.1,0.4-0.2
		c-0.1,0.1-0.2,0.2-0.4,0.2l-1.1,0.6c-0.5,0.3-1.1,0.5-1.9,0.9c-0.4,0.2-0.8,0.3-1.3,0.5c-0.5,0.2-1,0.4-1.5,0.5
		c-6,1.6-12.3,1.5-18.2-0.4c-4.1-1.2-7.9-3.1-11.4-5.6c-4-2.8-7.6-6.1-10.7-9.9c-1.7-1.9-3.3-4-4.9-6.2c-0.8-1.1-1.6-2.2-2.3-3.3
		s-1.5-2.3-2.4-3.4c-0.9-1.1-1.9-2-3-2.8c-1.2-0.8-2.5-1.2-3.9-1.4c-2.9-0.3-5.7,0.5-8.1,2.2c-3.2,2.3-5.2,5.9-5.4,9.8
		c-0.3,3.7,0.3,7.4,1.8,10.8v0c1.1,4.2,2.6,8.3,4.5,12.2c1.7,3.6,3.7,7.1,6,10.3c3.7,5.5,8.1,10.5,13,14.9l3,2.6
		c0.9,0.8,1.9,1.5,2.8,2.1l2.4,1.8c0.7,0.6,1.5,1,2.1,1.4l2.9,1.9l0.8,0.5C330.4,339.7,330.4,339.8,330.5,339.9z"/>
	<path class="st3" d="M301.2,286.5c-0.8-2.4-1.8-4.7-3.2-6.9c-2.3-3.5-5.3-5.3-5.2-5.5c0.7,0.3,1.3,0.7,1.9,1.2
		c2.9,2.3,5,5.4,6.1,8.9C301.1,285,301.2,285.8,301.2,286.5z"/>
	<path class="st3" d="M307.4,282.5c-0.4-2.5-1.1-5-2.2-7.4c-1.2-2.3-2.7-4.4-4.4-6.3c0.7,0.4,1.2,0.9,1.8,1.5
		c1.3,1.3,2.3,2.9,3.1,4.6c0.8,1.7,1.4,3.5,1.6,5.3C307.5,281,307.5,281.7,307.4,282.5z"/>
	<g class="st5">
		<path class="st6" d="M286.7,341.2c2.5-3.8-7.8-4.7-12.3-4.2c-13.7,1.6-24,13.3-23.8,27.1C250.6,364.1,270.4,366.2,286.7,341.2z"/>
	</g>
	<g class="st5">
		<path d="M303.5,324.2c5.2,8,12.9,13.9,21.9,17c0.9,0.4,2,0.6,3,0.4c1-0.2,1.8-1,1.9-2.1c-10.7-5.8-19.9-14.1-26.7-24.1
			c-0.5,3.1-0.1,6.2,1.3,9.1"/>
	</g>
	<circle class="st1" cx="273.8" cy="240.8" r="22.5"/>
	<path class="st3" d="M296.4,241.7c0,10.9-5.7,20-12.1,20s-11.5-8.8-11.5-19.7s5.2-19.7,11.5-19.7S296.4,230.8,296.4,241.7z"/>
	<path class="st6" d="M278.7,251.1c-0.2-0.2-0.3-0.5-0.5-0.7c-0.4-0.7-0.7-1.4-0.9-2.2c-1.7-5-1.6-10.5,0.4-15.4
		c0.3-0.7,0.7-1.4,1.1-2.1c0.1-0.3,0.3-0.5,0.5-0.7c0.1,0-0.5,1.1-1.2,3c-0.9,2.4-1.4,5-1.4,7.6c-0.1,2.6,0.3,5.1,1,7.6
		C278.2,249.9,278.8,251,278.7,251.1z"/>
	<circle class="st6" cx="287.2" cy="229.4" r="3.9"/>
	<path class="st3" d="M288.4,212.9c-0.4,0.6-1.5,0.6-2.9,0.4s-3.1-0.6-5-0.9s-3.5-0.5-4.9-0.7s-2.4-0.5-2.7-1.1s0.4-1.6,1.9-2.5
		c0.9-0.5,1.9-0.8,2.9-0.9c1.2-0.2,2.4-0.2,3.7,0c2.2,0.3,4.2,1.3,5.8,2.8C288.5,211.2,288.9,212.4,288.4,212.9z"/>
	<path class="st4" d="M278.2,268.9c-4-8.2-0.6-18,7.6-21.9c6.7-3.2,14.7-1.6,19.5,3.9"/>
	<path class="st3" d="M305.4,250.9c0,0-0.5-0.5-1.4-1.2c-1.3-1.1-2.7-2-4.2-2.6c-2.3-1-4.7-1.4-7.2-1.4c-6.2-0.1-11.8,3.7-14.2,9.4
		c-1,2.3-1.5,4.7-1.5,7.2c0,1.7,0.3,3.3,0.8,4.9c0.4,1.1,0.6,1.7,0.6,1.7c-0.1-0.1-0.2-0.3-0.2-0.4c-0.2-0.4-0.4-0.8-0.5-1.3
		c-0.6-1.6-0.9-3.3-0.9-5c-0.1-2.5,0.4-5,1.4-7.4c2.4-5.9,8.2-9.8,14.6-9.7c2.5,0,5,0.5,7.3,1.5c1.6,0.7,3,1.6,4.2,2.8
		c0.3,0.3,0.7,0.6,1,1C305.2,250.6,305.3,250.8,305.4,250.9z"/>
	<path class="st3" d="M233.4,183.5c-0.2,0.1-0.3,0.1-0.5,0.2l-1.5,0.4c-0.6,0.2-1.4,0.4-2.4,0.7l-1.4,0.4l-1.6,0.6
		c-5.9,2.1-11.5,4.7-16.8,8c-5.3,3.3-10.4,6.9-15.2,10.9c-1.9,1.5-3.3,2.8-4.4,3.6l-1.2,1c-0.3,0.2-0.4,0.3-0.4,0.3
		c0.1-0.1,0.2-0.3,0.4-0.4l1.1-1.1c1-0.9,2.4-2.2,4.2-3.8c4.8-4.1,9.8-7.7,15.2-11c5.3-3.3,11-6,17-7.9l1.6-0.5l1.5-0.4
		c0.9-0.3,1.7-0.5,2.4-0.6l1.5-0.3C233.1,183.6,233.3,183.5,233.4,183.5z"/>
</g>
<g id="_x34_04-error--inject-1">
	<path class="st3" d="M88.4,61.4c-0.2-0.4-0.3-0.8-0.4-1.2c-0.1-0.4-0.2-0.9-0.4-1.4s-0.3-1.2-0.4-1.9c-0.3-1.7-0.4-3.3-0.5-5
		c0-2.1,0.1-4.1,0.4-6.2c0.3-2,0.8-4,1.5-6c0.6-1.6,1.2-3.1,2-4.6c0.3-0.7,0.7-1.2,0.9-1.7s0.6-0.9,0.8-1.2c0.2-0.4,0.5-0.7,0.8-1
		c0.1,0-0.9,1.5-2.1,4.1c-0.7,1.5-1.3,3-1.8,4.6c-0.6,1.9-1.1,3.9-1.4,5.9c-0.3,2-0.4,4-0.4,6.1c0,1.7,0.1,3.3,0.3,5
		C88,59.7,88.5,61.4,88.4,61.4z"/>
	
		<rect x="117.3" y="19.3" transform="matrix(0.9831 -0.1829 0.1829 0.9831 -11.0442 42.9953)" class="st6" width="220.6" height="124.1"/>
	<path class="st3" d="M347.3,122.2c0,0-0.2-0.7-0.4-2.2s-0.7-3.6-1.2-6.4c-1-5.6-2.6-13.8-4.6-24.4c-4-21.1-9.7-51.6-16.7-89
		l0.2,0.2L107.8,40.8l0,0l0.2-0.3c8,43.1,15.7,84.4,22.7,122l-0.3-0.2l156-28.9l44.8-8.3l11.9-2.2l3.1-0.6L347.3,122.2l-1,0.2
		l-3,0.6l-11.9,2.2l-44.7,8.4l-156.1,29.1l-0.2,0.1v-0.2c-7-37.6-14.7-78.8-22.7-122v-0.3h0.2l0,0L324.6,0h0.2v0.2l16.5,89.2
		c1.9,10.6,3.5,18.8,4.5,24.3l1.2,6.3C347.2,121.5,347.3,122.2,347.3,122.2z"/>
	<path class="st3" d="M201,87.3l-6.7,1.2l1.6,8.6l-12.3,2.3l-1.6-8.6l-23.7,4.4l-1.5-8.2l14.9-31.7l13.1-2.4l-13.4,29.5l9.1-1.7
		l-1.4-7.6l12-2.2l1.4,7.6l6.6-1.2L201,87.3z"/>
	<path class="st3" d="M201,73c-2.8-14.8,4-24.8,15.4-27s21.3,4.8,24,19.6s-4,24.8-15.4,26.9S203.8,87.8,201,73z M227.8,68
		c-1.8-9.4-5.4-12.4-9.4-11.6s-6.4,4.8-4.6,14.2s5.3,12.4,9.4,11.6S229.5,77.4,227.8,68L227.8,68z"/>
	<path class="st3" d="M289.6,70.8L283,72l1.6,8.6l-12.3,2.3l-1.6-8.6L247,78.8l-1.5-8.2l14.9-31.7l13.1-2.4L260,65.9l9.1-1.7
		l-1.4-7.6l12-2.2l1.4,7.6l6.6-1.2L289.6,70.8z"/>
	<path class="st3" d="M205.4,123.4l0.4,2.2l-12.7,2.4l-3.3-17.6l12.4-2.3l0.4,2.2l-9.9,1.8l1,5.4l8.8-1.6l0.4,2.1l-8.8,1.7l1.1,5.7
		L205.4,123.4z"/>
	<path class="st3" d="M221.6,122.6l-4.8-4.7c-0.3,0.1-0.7,0.2-1.1,0.3l-4.3,0.8l1,5.3l-2.5,0.5l-3.3-17.6l6.9-1.3
		c4.6-0.9,7.8,0.9,8.5,4.8c0.6,2.5-0.6,5.1-2.8,6.3l5.3,5.1L221.6,122.6z M219.4,111.2c-0.5-2.5-2.4-3.6-5.6-3l-4.3,0.8l1.5,7.9
		l4.3-0.8C218.5,115.5,219.9,113.7,219.4,111.2L219.4,111.2z"/>
	<path class="st3" d="M239.9,119.2l-4.8-4.7c-0.3,0.1-0.7,0.2-1.1,0.3l-4.3,0.8l1,5.4l-2.5,0.5l-3.3-17.6l6.8-1.3
		c4.6-0.9,7.8,1,8.5,4.8c0.6,2.5-0.6,5.1-2.8,6.3l5.3,5.1L239.9,119.2z M237.7,107.8c-0.5-2.5-2.4-3.6-5.6-3l-4.3,0.8l1.5,7.9
		l4.3-0.8C236.7,112.1,238.1,110.3,237.7,107.8L237.7,107.8z"/>
	<path class="st3" d="M243.3,109.5c-1-5.1,2.3-9.7,7.7-10.7s10,2.1,11,7.2s-2.3,9.7-7.6,10.7S244.3,114.6,243.3,109.5z M259.5,106.5
		c-0.7-3.8-4.2-6.3-8-5.7s-6.3,4.2-5.7,8s4.2,6.3,8,5.7c0,0,0.1,0,0.1,0c3.7-0.6,6.2-4,5.6-7.6C259.5,106.7,259.5,106.6,259.5,106.5
		L259.5,106.5z"/>
	<path class="st3" d="M279.2,111.9l-4.8-4.7c-0.4,0.1-0.7,0.2-1.1,0.2l-4.3,0.8l1,5.3l-2.5,0.5l-3.3-17.6l6.9-1.3
		c4.6-0.8,7.8,0.9,8.5,4.8c0.6,2.5-0.6,5.1-2.8,6.3l5.3,5.1L279.2,111.9z M277,100.5c-0.5-2.5-2.4-3.6-5.6-3l-4.3,0.8l1.5,7.9
		l4.3-0.8C276,104.8,277.4,103,277,100.5L277,100.5z"/>
	<path class="st2" d="M320,13.4c0.1,2.5-1.8,4.6-4.3,4.7c-2.5,0.1-4.6-1.8-4.7-4.3c-0.1-2.5,1.8-4.6,4.3-4.7c0,0,0,0,0,0
		C317.9,9,319.9,10.9,320,13.4z"/>
	<path class="st3" d="M320,13.4c0,0-0.1-0.4-0.3-1.1c-0.3-0.9-0.9-1.7-1.8-2.3c-2-1.3-4.7-0.8-6,1.2c-0.5,0.8-0.8,1.7-0.7,2.6
		c0.1,2.4,2.1,4.2,4.5,4.1c0.9,0,1.8-0.4,2.5-0.9c0.8-0.6,1.3-1.5,1.6-2.4C320,13.8,320,13.4,320,13.4c0,0,0,0.1,0,0.3
		c0,0.3,0,0.6,0,0.8c-0.2,1-0.7,2-1.5,2.7c-1.2,1-2.9,1.4-4.4,0.9c-2.5-0.8-3.9-3.4-3.1-5.9c0.4-1.4,1.4-2.5,2.8-3
		c1.5-0.6,3.2-0.4,4.5,0.5c0.9,0.6,1.5,1.5,1.7,2.5c0.1,0.3,0.1,0.5,0.1,0.8C320.1,13.3,320.1,13.4,320,13.4z"/>
	<path class="st3" d="M317.5,10.3c0.2,1.2,0,2.5-0.6,3.5c-0.5,1.1-1.3,2.1-2.4,2.6c0.7-0.9,1.4-1.9,2-2.8
		C316.9,12.5,317.2,11.4,317.5,10.3z"/>
	<path class="st3" d="M318.4,15.1c-0.1,0.1-0.7-1.1-2.1-1.8c-0.9-0.3-1.8-0.6-2.7-0.7c0-0.1,0.3-0.2,0.9-0.2c0.7,0,1.4,0.1,2.1,0.5
		c0.6,0.3,1.2,0.8,1.6,1.4C318.4,14.7,318.5,15,318.4,15.1z"/>
	
		<rect x="106.5" y="76.9" transform="matrix(0.7818 -0.6235 0.6235 0.7818 -25.1566 88.403)" class="st2" width="14.6" height="6.6"/>
	<path class="st3" d="M121.5,78.2c0,0-0.5-0.5-1.2-1.4l-3-3.7h0.3c-2.9,2.4-6.9,5.6-11.3,9.1c0,0.3,0-0.4,0-0.4l0,0l0,0l0,0l0.1,0.1
		l0.1,0.2l0.3,0.3l0.5,0.7l1,1.3l2,2.5h-0.4c3.3-2.6,6.1-4.8,8.2-6.4l2.4-1.8C120.8,78.5,121.1,78.3,121.5,78.2
		c-0.3,0.2-0.6,0.4-0.8,0.6l-2.3,1.9c-2,1.6-4.8,4-8.2,6.7l-0.2,0.2l-0.2-0.2l-2-2.5c-0.4-0.4-0.7-0.9-1.1-1.3l-0.5-0.7l-0.3-0.3
		l-0.1-0.2l-0.1-0.1l0,0l0,0l0,0c0,0.1,0.1-0.7,0-0.4c4.4-3.5,8.4-6.7,11.4-9l0.1-0.1l0.1,0.1c1.3,1.6,2.3,3,3,3.9
		C120.8,77.3,121.2,77.7,121.5,78.2z"/>
	<path class="st2" d="M103.5,88.6c2.1,2.6,5.9,3.1,8.5,1c0,0,0,0,0,0l-7.6-9.5C101.8,82.2,101.4,86,103.5,88.6z"/>
	<path class="st3" d="M103.5,88.6c-0.2-0.2-0.3-0.3-0.5-0.5c-0.4-0.6-0.7-1.2-0.8-1.8c-0.3-1-0.3-2.1,0-3.1c0.3-1.3,1.1-2.5,2.1-3.3
		l0.2-0.2l0.1,0.2l3.8,4.7c1.3,1.7,2.6,3.3,3.8,4.8l0.1,0.2l-0.2,0.2c-1.1,0.8-2.3,1.3-3.7,1.3c-1,0-2.1-0.2-3-0.7
		c-0.6-0.3-1.1-0.7-1.6-1.2C103.7,89,103.6,88.8,103.5,88.6c0.6,0.6,1.4,1.1,2.1,1.5c2.1,1,4.5,0.7,6.2-0.8v0.3L108,85l-3.8-4.8h0.3
		c-1.8,1.4-2.6,3.7-2.1,5.9C102.7,87,103,87.9,103.5,88.6z"/>
	<path class="st2" d="M104.8,85.5c-1,1.1-1.2,2.7-0.6,4"/>
	<path class="st3" d="M104.2,89.5c-0.5-0.6-0.7-1.4-0.5-2.2c0.2-1.3,1.1-2,1.1-1.9s-0.5,0.8-0.6,2S104.4,89.4,104.2,89.5z"/>
	<path class="st3" d="M112,86.1c-0.8-0.8-1.5-1.7-2.2-2.7c-0.8-0.8-1.5-1.7-2.2-2.7c1,0.6,1.9,1.4,2.6,2.3C111,84,111.6,85,112,86.1
		z"/>
	<path class="st3" d="M113.4,85.1c-0.8-0.8-1.5-1.7-2.2-2.7c-0.8-0.8-1.5-1.7-2.2-2.7C110.9,81,112.5,82.9,113.4,85.1z"/>
	<path class="st3" d="M114.7,84c-0.8-0.8-1.5-1.7-2.2-2.7c-0.8-0.8-1.5-1.7-2.2-2.7c1,0.6,1.9,1.4,2.6,2.3
		C113.7,81.9,114.3,82.9,114.7,84z"/>
	<path class="st3" d="M116,82.9c-0.8-0.8-1.5-1.7-2.2-2.7c-0.8-0.8-1.5-1.7-2.2-2.7c1,0.6,1.9,1.4,2.6,2.3
		C115,80.8,115.6,81.8,116,82.9z"/>
	<path class="st3" d="M117.4,81.9c-0.8-0.8-1.5-1.7-2.2-2.7c-0.8-0.8-1.5-1.7-2.2-2.7c1,0.6,1.9,1.4,2.6,2.3
		C116.4,79.7,117,80.8,117.4,81.9z"/>
	<path class="st3" d="M118.7,80.8c-0.8-0.8-1.5-1.7-2.2-2.7c-0.8-0.8-1.5-1.7-2.2-2.7c1,0.6,1.9,1.4,2.6,2.3
		C117.7,78.7,118.3,79.7,118.7,80.8z"/>
	<path class="st3" d="M120,79.7c-0.8-0.8-1.5-1.7-2.2-2.7c-0.8-0.8-1.5-1.7-2.2-2.7c1,0.6,1.9,1.4,2.6,2.3
		C119,77.6,119.6,78.6,120,79.7z"/>
	<path class="st3" d="M127.9,50.6c-0.1,0-0.1-0.4-0.3-1.1c-0.3-1-0.9-1.8-1.8-2.3c-2-1.4-4.7-0.8-6.1,1.1c-0.5,0.8-0.8,1.7-0.8,2.6
		c0.1,2.4,2.1,4.3,4.6,4.2c0.9,0,1.8-0.4,2.6-1c0.8-0.6,1.3-1.5,1.6-2.5C127.8,51,127.8,50.6,127.9,50.6s0,0.1,0.1,0.3
		c0,0.3,0,0.6-0.1,0.8c-0.2,1.1-0.7,2-1.5,2.7c-1.2,1.1-2.9,1.4-4.5,0.9c-2.5-0.8-3.9-3.5-3.1-6c0.4-1.3,1.4-2.4,2.7-3
		c1.5-0.6,3.2-0.4,4.6,0.6c0.9,0.6,1.5,1.5,1.8,2.6c0.1,0.3,0.1,0.6,0.1,0.8C127.9,50.6,127.9,50.6,127.9,50.6z"/>
	<path class="st3" d="M98.2,61.7c-0.2-0.4-0.3-0.8-0.4-1.2c-0.2-0.5-0.3-0.9-0.4-1.4c-0.1-0.6-0.3-1.2-0.4-1.9
		c-0.3-1.7-0.4-3.3-0.5-5c-0.1-4.1,0.6-8.2,1.9-12.2c0.6-1.6,1.2-3.1,2-4.6c0.3-0.7,0.7-1.2,0.9-1.7c0.2-0.4,0.5-0.8,0.8-1.2
		c0.2-0.4,0.5-0.7,0.8-1c0.1,0.1-0.9,1.5-2.1,4.1c-0.7,1.5-1.3,3-1.8,4.6c-0.6,1.9-1.1,3.9-1.4,5.9c-0.3,2-0.5,4-0.5,6.1
		c0,1.7,0.1,3.3,0.3,5C97.8,60,98.3,61.7,98.2,61.7z"/>
	<path class="st3" d="M361.9,105.6c0.2,0.4,0.3,0.8,0.4,1.2c0.1,0.5,0.3,0.9,0.4,1.4c0.1,0.6,0.3,1.2,0.4,1.9c0.3,1.7,0.4,3.3,0.5,5
		c0.1,4.1-0.6,8.2-1.9,12.1c-0.5,1.6-1.2,3.1-2,4.6c-0.3,0.6-0.6,1.2-0.9,1.7c-0.2,0.4-0.5,0.8-0.8,1.2c-0.2,0.4-0.5,0.7-0.7,1
		c-0.1-0.1,0.9-1.5,2.1-4.1c0.7-1.5,1.3-3,1.9-4.6c0.6-1.9,1.1-3.9,1.4-5.9c0.3-2,0.5-4,0.5-6.1c0-1.7-0.1-3.3-0.4-5
		C362.3,107.4,361.8,105.7,361.9,105.6z"/>
	<path class="st3" d="M368.4,107.4c0.2,0.4,0.3,0.8,0.4,1.2c0.1,0.5,0.3,0.9,0.4,1.4c0.1,0.6,0.3,1.2,0.4,1.9c0.3,1.7,0.4,3.3,0.5,5
		c0,2.1-0.1,4.1-0.4,6.1c-0.3,2-0.8,4-1.5,6c-0.6,1.6-1.2,3.1-2,4.6c-0.3,0.6-0.6,1.2-0.9,1.7c-0.2,0.4-0.5,0.9-0.8,1.3
		c-0.2,0.4-0.5,0.7-0.7,1c-0.1-0.1,0.9-1.5,2.1-4.1c0.7-1.5,1.3-3,1.9-4.6c0.6-1.9,1.1-3.9,1.4-5.9c0.3-2,0.5-4,0.5-6.1
		c0-1.7-0.1-3.3-0.4-5C368.8,109.1,368.3,107.4,368.4,107.4z"/>
</g>
<g id="speech-bubble--inject-1">
	<path class="st8" d="M150.9,185.8c14-18.7,10.2-45.1-8.5-59.1s-45.1-10.2-59.1,8.5s-10.2,45.1,8.5,59.1
		c14.2,10.7,33.6,11.3,48.5,1.5l14.5,6.4L150.9,185.8z"/>
	<path class="st4" d="M104.3,158.2c0.1-1.6,0.7-3.1,1.8-4.3c0.9-1.2,2.3-2.2,3.8-2.6c2.6-0.8,5.4,0.4,6.8,2.7
		c1.2-2.4,3.7-3.7,6.4-3.3c1.5,0.3,2.9,1.1,4,2.2c1.1,1.1,1.9,2.5,2.2,4.1c0.4,2,0.1,4.1-0.8,5.9c-1.1,1.9-2.6,3.4-4.4,4.6
		c-2.9,2-6.7,4.5-6.7,4.5s-3.5-2.3-6.6-3.9c-1.9-0.9-3.6-2.3-4.9-4.1C104.7,162.2,104.2,160.2,104.3,158.2z"/>
	<path class="st3" d="M117,118.5c-0.2,0-0.5,0-0.7,0l-2.1,0.1c-0.5,0-1,0-1.6,0.1l-1.9,0.3l-2.2,0.3l-2.5,0.6
		c-4.3,1.1-8.3,2.8-12,5.2c-11.1,7-18.3,18.8-19.5,31.9c-0.2,1.9-0.2,3.9-0.1,5.8c0.1,1,0,2,0.2,3s0.3,2,0.5,3
		c0.7,4.1,2.1,8.1,4,11.8c2,3.9,4.6,7.5,7.7,10.6c3.3,3.2,7,5.9,11.1,8c4.2,2.2,8.8,3.6,13.6,4.2c1.2,0.2,2.4,0.3,3.6,0.3
		c1.2,0.1,2.4,0.1,3.7,0.1c2.5-0.1,4.9-0.4,7.3-0.9c5.2-1.1,10.2-3.2,14.6-6.2l-0.4,0.1l14.9,6l0.9,0.4l-0.2-0.9l-4.3-15.9l-0.1,0.4
		c4-5.3,6.7-11.6,7.9-18.1c0.6-3.1,0.8-6.2,0.6-9.3c0-1.5-0.2-3-0.4-4.5c-0.1-0.7-0.2-1.4-0.3-2.2s-0.4-1.4-0.5-2.1
		c-2.5-9.8-8.4-18.3-16.6-24.2c-3-2.2-6.4-3.9-9.9-5.2l-2.2-0.8l-2.1-0.5l-1.9-0.5c-0.6-0.1-1.2-0.2-1.8-0.3c-1.1-0.1-2.1-0.3-3-0.4
		l-2.2-0.1h-1.3C117.4,118.4,117.2,118.4,117,118.5c0.2,0,0.3,0,0.5,0l1.3,0.1l2.2,0.1c0.9,0.1,1.8,0.3,2.9,0.4
		c16.5,2.8,29.7,15.1,33.8,31.3c0.2,0.7,0.4,1.4,0.5,2.1s0.2,1.4,0.3,2.1c0.2,1.5,0.4,2.9,0.4,4.4c0.2,3.1,0,6.1-0.6,9.1
		c-1.2,6.4-3.9,12.5-7.8,17.8l-0.1,0.2l0.1,0.2c1.4,5.1,2.8,10.4,4.3,15.9l0.6-0.6l-14.9-6l-0.2-0.1l-0.2,0.1
		c-4.3,2.9-9.2,4.9-14.3,6c-2.4,0.5-4.8,0.8-7.2,0.9c-1.2,0-2.4,0-3.6-0.1c-1.2,0-2.4-0.1-3.5-0.3c-4.6-0.6-9.1-1.9-13.3-4.1
		c-4-2-7.7-4.6-11-7.8c-3-3.1-5.6-6.6-7.6-10.4c-1.9-3.6-3.2-7.5-4-11.6c-0.2-1-0.3-2-0.4-2.9s-0.1-2-0.2-2.9
		c-0.7-14.9,6.5-29.1,19.1-37.2c3.6-2.4,7.6-4.2,11.8-5.3l2.4-0.6l2.2-0.4l1.9-0.3c0.6-0.1,1.1-0.1,1.6-0.1l2.1-0.2
		C116.5,118.5,116.8,118.5,117,118.5z"/>
</g>
</svg>
