<?xml version="1.0" encoding="utf-8"?>
<!-- Generator: Adobe Illustrator 24.1.3, SVG Export Plug-In . SVG Version: 6.00 Build 0)  -->
<svg version="1.1" id="Layer_1" xmlns="http://www.w3.org/2000/svg" xmlns:xlink="http://www.w3.org/1999/xlink" x="0px" y="0px"
	 viewBox="0 0 455.4 458.2" style="enable-background:new 0 0 455.4 458.2;" xml:space="preserve">
<style type="text/css">
	.st0{fill:#EBEBEB;}
	.st1{fill:#F5F5F5;}
	.st2{fill:#FFFFFF;}
	.st3{fill:#E0E0E0;}
	.st4{fill:#263238;}
	.st5{fill:#0061F2;}
	.st6{opacity:0.4;}
	.st7{opacity:0.2;}
	.st8{opacity:0.3;}
	.st9{fill:#455A64;}
	.st10{opacity:0.7;}
</style>
<g id="background-complete--inject-33">
	<path class="st0" d="M116.3,442.5c-3.3,1.7-5.9,4.6-7.3,8c-3.6-3.8-5.7-8.8-5.9-14.1c-4.2,1.8-6.8,6-6.4,10.6l-19.1-17.8
		c-1,7-2,14-3,21.1c-3.7-10.4-8.9-20.2-15.7-29c-0.1,8-0.3,15.9-0.4,23.8c-9.2-18.5-22.9-34.4-39.9-46.3c5,11.1,10,22.2,12.5,34.1
		c-4.7-9.5-12.5-17.1-22.1-21.7c10.3,13.9,17.7,29.8,21.5,46.7l91.7,0.1c0,0-3.9-10.1,2.9-13.5L116.3,442.5z"/>
	<circle class="st0" cx="74" cy="88.1" r="59.6"/>
	<path class="st0" d="M454.5,369.9c-19.6,11.1-32.9,30.6-36,52.9c0.3-18.5,3.3-36.8,9-54.4c-13.3,16.3-21.2,36.3-22.5,57.3
		l-2.5-34.8c-8.2,16-9,34.6-9.5,52.6c-3.5-7.4-8.4-14.2-14.5-19.8c2.3,11,4.7,23.3,7,34.4L433,458l-0.9-9.5
		C429.3,420.4,437.3,392.3,454.5,369.9z"/>
	<path class="st1" d="M411.1,152.2c0.6-4.6-5.9-8.4-10.7-8.8c-2.3-0.2-4.8,0.2-7-0.6c-4.8-1.7-6.7-7.8-11.4-9.8
		c-3.5-1.5-7.5-0.2-10.9,1.5s-6.7,3.9-10.5,4.1c-3.3,0.2-6.9-1-9.7,0.6c-2.1,1.2-3.3,3.7-5.2,5.1s-4.5,1.7-6.9,1.9s-4.9,0.1-7,1.1
		s-4,3.3-3.5,5.7L411.1,152.2z"/>
	<path class="st0" d="M286.9,68.6c0.5-4-5.1-7.3-9.4-7.6c-2-0.2-4.1,0.2-6-0.5c-4.2-1.4-5.8-6.8-9.9-8.5c-3-1.3-6.5-0.1-9.5,1.3
		s-5.8,3.3-9.1,3.6c-2.9,0.2-6-0.9-8.5,0.5c-1.9,1-2.8,3.2-4.6,4.4s-3.9,1.5-6,1.6c-2.1-0.1-4.2,0.3-6.1,1c-1.9,0.9-3.5,2.9-3.1,4.9
		L286.9,68.6z"/>
	<path class="st0" d="M130.7,229.1c0.8-5.6-7.1-10.2-13.1-10.7c-2.8-0.2-5.8,0.2-8.4-0.7c-5.8-2-8.1-9.5-13.8-11.9
		c-4.2-1.8-9.1-0.2-13.2,1.9s-8.2,4.7-12.8,5c-4,0.2-8.3-1.2-11.8,0.7c-2.6,1.4-4,4.4-6.4,6.2s-5.4,2.1-8.3,2.2s-5.9,0.2-8.6,1.4
		s-4.8,4-4.3,6.9L130.7,229.1z"/>
	<circle class="st0" cx="375.9" cy="201" r="28.3"/>
	<path class="st2" d="M368.1,202.2c-2.2,1.2-5.1,0.4-6.3-1.8c-1.2-2.2-0.4-5.1,1.8-6.3c2.2-1.2,5.1-0.4,6.3,1.8
		C371.1,198.1,370.3,200.9,368.1,202.2C368.1,202.2,368.1,202.2,368.1,202.2z"/>
	<path class="st2" d="M376.6,189.9c-1.3,0.7-2.9,0.2-3.7-1.1s-0.2-2.9,1.1-3.7c1.3-0.7,2.9-0.2,3.6,1.1
		C378.4,187.6,377.9,189.2,376.6,189.9C376.6,189.9,376.6,189.9,376.6,189.9z"/>
	<path class="st3" d="M358.3,180.3c-0.4,0.4-32.7-9.7-34-1.8s22.7,24.9,49.5,35.9s56.3,18.4,58.7,10.6S406,200.9,406,200.9l-0.3,4
		c0,0,17.8,9.7,16.7,16.4s-23.1,1.3-47.5-10.1s-44.3-24.4-42-29.3s22.3,1.5,22.3,1.5L358.3,180.3z"/>
	<path class="st2" d="M387.6,177.7c-0.1,0.3-2.5-0.6-6.4-0.9c-10.4-1-20.4,4.3-25.4,13.4c-2,3.4-2.5,5.9-2.9,5.8s-0.2-2.7,1.5-6.5
		c1-2.2,2.4-4.3,4-6.1c4-4.6,9.6-7.5,15.7-8.2c2.4-0.3,4.9-0.2,7.3,0.2C385.5,176.1,387.7,177.5,387.6,177.7z"/>
	<ellipse transform="matrix(0.9436 -0.331 0.331 0.9436 -7.5986 144.3937)" class="st3" cx="420.1" cy="94.5" rx="18.6" ry="18.6"/>
	<path class="st1" d="M426.2,87.4c0-1.7,1.4-3,3.1-2.9c1.7,0,3,1.4,2.9,3.1c0,1.6-1.4,2.9-3,2.9C427.5,90.5,426.2,89.2,426.2,87.4
		C426.2,87.5,426.2,87.5,426.2,87.4z"/>
	<path class="st1" d="M432.2,94.4c0-1,0.8-1.7,1.8-1.7s1.7,0.8,1.7,1.8c0,1-0.8,1.7-1.8,1.7C433,96.2,432.2,95.4,432.2,94.4
		C432.2,94.5,432.2,94.5,432.2,94.4z"/>
	<path class="st1" d="M429.9,99.9c0.3,0,0.6,0.3,0.6,0.6c0,0,0,0,0,0c0,0.4-0.3,0.7-0.6,0.7s-0.7-0.3-0.7-0.6c0,0,0,0,0,0
		C429.2,100.2,429.5,99.9,429.9,99.9C429.9,99.9,429.9,99.9,429.9,99.9z"/>
</g>
<g id="Floor--inject-33">
	<path class="st4" d="M443.1,458c0,0.1-97.3,0.3-217.3,0.3S8.5,458.1,8.5,458s97.3-0.3,217.3-0.3S443.1,457.8,443.1,458z"/>
</g>
<g id="Plant--inject-33">
	<path class="st4" d="M75.9,458c-0.1-0.2-0.1-0.3-0.1-0.5c-0.1-0.4-0.2-0.9-0.3-1.4c-0.2-1.2-0.6-3-1.1-5.3
		c-1.3-5.8-3-11.4-5.3-16.9c-1.3-3-2.7-5.9-4.3-8.7c-0.8-1.3-1.5-2.5-2.2-3.6l-1.1-1.6c-0.4-0.5-0.7-1-1-1.4
		c-0.7-0.9-1.3-1.7-1.9-2.4s-1.1-1.3-1.5-1.8l-1-1.1c-0.1-0.1-0.2-0.3-0.3-0.4c0,0,0.2,0.1,0.4,0.3l1,1c0.6,0.6,1.1,1.1,1.6,1.8
		c0.6,0.7,1.3,1.5,2,2.4l1,1.4c0.4,0.5,0.7,1,1.1,1.6c0.8,1.1,1.5,2.3,2.3,3.6c1.6,2.8,3.1,5.8,4.4,8.8c2.3,5.5,4,11.2,5.2,17
		c0.4,2.2,0.8,4,0.9,5.3c0.1,0.6,0.1,1.1,0.2,1.5C75.9,457.6,75.9,457.8,75.9,458z"/>
	<path class="st4" d="M48.1,427.9c0.5,0.1,1,0.3,1.5,0.5c0.6,0.2,1.1,0.4,1.7,0.7c0.6,0.3,1.4,0.6,2.2,1.1c0.9,0.5,1.7,1,2.5,1.6
		c0.9,0.6,1.8,1.3,2.7,2c4,3.3,7.2,7.5,9.5,12.2c0.5,1,0.9,2.1,1.3,3.1c0.3,0.9,0.6,1.9,0.9,2.8c0.3,0.9,0.4,1.7,0.5,2.4
		c0.1,0.6,0.2,1.2,0.3,1.8c0.1,0.5,0.1,1,0.1,1.6c-0.1,0-0.3-2.2-1.3-5.7c-0.3-0.9-0.6-1.9-0.9-2.8c-0.3-1-0.8-2-1.3-3.1
		c-1.1-2.3-2.5-4.5-4-6.5c-1.6-2-3.4-3.9-5.3-5.5c-0.9-0.7-1.8-1.5-2.7-2c-0.8-0.6-1.6-1.1-2.4-1.6C50.1,428.7,48,428,48.1,427.9z"
		/>
	<path class="st4" d="M73.5,397.9c0,0.2,0.1,0.4,0.1,0.6c0,0.5,0,1,0.1,1.8c0.1,1.5,0.2,3.8,0.3,6.5c0.3,5.5,1,13.1,2.2,21.3
		c1.2,8.3,2.8,15.7,4.1,21.1c0.6,2.7,1.2,4.8,1.6,6.3c0.2,0.7,0.3,1.3,0.4,1.7c0.1,0.2,0.1,0.4,0.1,0.6c-0.1-0.2-0.2-0.4-0.2-0.6
		c-0.1-0.4-0.3-1-0.5-1.7c-0.4-1.5-1-3.6-1.7-6.3c-3.6-13.9-5.7-28.2-6.4-42.5c-0.1-2.8-0.2-5-0.2-6.5v-1.8
		C73.5,398.3,73.5,398.1,73.5,397.9z"/>
	<path class="st4" d="M38.6,442.9c0.3,0.1,0.5,0.2,0.8,0.3c0.5,0.2,1.1,0.6,1.9,1.2c2.1,1.4,3.9,3,5.6,4.8c1.7,1.8,3.1,3.8,4.4,6
		c0.5,0.8,0.8,1.5,1,2c0.1,0.2,0.2,0.5,0.3,0.8c-0.6-0.8-1.1-1.7-1.6-2.6c-1.3-2.1-2.8-4-4.4-5.8c-1.7-1.8-3.5-3.4-5.5-4.8
		C39.5,443.5,38.6,442.9,38.6,442.9z"/>
	<path class="st4" d="M54.5,441.5c0.2,0.8,0.3,1.6,0.3,2.4c0.2,1.5,0.3,3.5,0.6,5.8s0.6,4.3,0.8,5.8c0.2,0.8,0.2,1.6,0.3,2.4
		c-0.3-0.8-0.5-1.6-0.6-2.4c-0.3-1.5-0.7-3.5-0.9-5.8c-0.3-2.3-0.4-4.4-0.5-5.9C54.4,443.1,54.4,442.3,54.5,441.5z"/>
	<path class="st4" d="M204.4,405.5c0,0.2,0,0.4,0,0.5l-0.1,1.5c-0.1,1.3-0.2,3.3-0.3,5.6c-0.6,12.4,0.2,24.9,2.3,37.2
		c0.4,2.4,0.8,4.3,1,5.6c0.1,0.6,0.2,1.1,0.3,1.5c0,0.2,0.1,0.4,0.1,0.5c-0.1-0.2-0.1-0.3-0.2-0.5l-0.4-1.5
		c-0.3-1.3-0.7-3.2-1.2-5.5c-1.2-6.1-1.9-12.3-2.3-18.6c-0.4-6.2-0.4-12.5,0-18.7c0.2-2.4,0.3-4.3,0.5-5.7c0.1-0.6,0.1-1.1,0.2-1.5
		C204.3,405.8,204.4,405.6,204.4,405.5z"/>
	<path class="st4" d="M212.5,433.9c-0.1,1.2-0.4,2.3-0.6,3.5c-0.4,2.1-0.9,5.1-1.3,8.3c-0.4,3.3-0.5,6.3-0.6,8.4
		c0,1.2,0,2.3-0.2,3.5c-0.1-0.3-0.1-0.6-0.1-0.9c0-0.6-0.1-1.5-0.1-2.6c0-2.8,0.1-5.7,0.4-8.5c0.3-2.8,0.8-5.6,1.4-8.4
		c0.2-1.1,0.5-1.9,0.6-2.5C212.3,434.5,212.4,434.2,212.5,433.9z"/>
	<path class="st4" d="M311.1,411.1c0,0.2,0.1,0.3,0.1,0.5c0,0.4,0,0.8,0.1,1.4c0.1,1.3,0.1,3,0.2,5.1c0.2,4.3,0.5,10.2,1.1,16.7
		c0.6,6.5,1.3,12.4,1.9,16.6c0.3,2.1,0.5,3.8,0.7,5c0.1,0.5,0.1,1,0.2,1.4c0,0.2,0,0.3,0,0.5c-0.1-0.1-0.1-0.3-0.1-0.5
		c-0.1-0.4-0.2-0.8-0.3-1.3c-0.2-1.2-0.5-2.9-0.9-5c-0.7-4.2-1.5-10.1-2-16.6c-0.6-6.5-0.9-12.4-1-16.7c0-2.1-0.1-3.9,0-5.1
		c0-0.6,0-1,0-1.4C311,411.4,311,411.2,311.1,411.1z"/>
	<path class="st4" d="M322.3,434.2c0.1,0-0.4,1.3-0.9,3.4c-0.7,2.8-1.3,5.6-1.7,8.4c-0.3,2.8-0.5,5.7-0.4,8.5c0,2.2,0.1,3.5,0,3.6
		c-0.1-0.3-0.2-0.6-0.2-0.9c-0.1-0.6-0.2-1.5-0.2-2.6c-0.2-2.9-0.1-5.8,0.3-8.6c0.4-2.9,1-5.7,1.8-8.4c0.3-1,0.6-1.9,0.9-2.5
		C322.1,434.5,322.3,434.2,322.3,434.2z"/>
	<path class="st4" d="M455.4,402.5c-0.2,0.2-0.3,0.3-0.5,0.4l-1.5,1.1l-1.1,0.8c-0.4,0.3-0.8,0.7-1.3,1c-0.9,0.8-2,1.5-3,2.6
		l-1.7,1.6c-0.6,0.5-1.1,1.2-1.7,1.8c-1.2,1.2-2.4,2.7-3.6,4.2c-5.2,6.6-9.1,14.3-11.2,22.4c-0.4,1.9-0.9,3.7-1.1,5.4
		c-0.1,0.8-0.3,1.7-0.4,2.5s-0.2,1.6-0.2,2.3c-0.2,1.5-0.1,2.8-0.2,4c0,0.6,0,1.1,0,1.6s0,1,0,1.4c0,0.8,0,1.4,0.1,1.9
		c0,0.2,0,0.4,0,0.7c-0.1-0.2-0.1-0.4-0.1-0.7c0-0.5-0.1-1.1-0.1-1.9c0-0.4-0.1-0.9-0.1-1.4s0-1,0-1.6c0-1.2,0-2.5,0.1-4
		c0.1-0.7,0.1-1.5,0.2-2.3s0.2-1.6,0.4-2.5c0.2-1.7,0.7-3.5,1.1-5.4c1.1-4.1,2.6-8.1,4.5-11.9c1.9-3.8,4.2-7.4,6.9-10.7
		c1.3-1.5,2.4-2.9,3.7-4.2c0.6-0.6,1.2-1.2,1.8-1.8l1.7-1.6c1.1-1,2.2-1.8,3.1-2.5c0.5-0.4,0.9-0.7,1.3-1l1.1-0.8l1.6-1
		C455,402.7,455.2,402.6,455.4,402.5z"/>
	<path class="st4" d="M449.5,429.6c0.1,0.1-1.5,1.2-3.7,3.3c-1.3,1.2-2.5,2.6-3.7,4c-1.4,1.7-2.7,3.5-3.8,5.4
		c-1.1,1.9-2.1,3.9-3,5.9c-0.7,1.7-1.3,3.4-1.8,5.1c-0.9,3-1.1,4.9-1.2,4.8c0-0.5,0-0.9,0.1-1.3c0.1-0.4,0.1-1,0.3-1.5
		s0.3-1.3,0.5-2c0.5-1.8,1-3.5,1.7-5.2c1.7-4.1,4-8,6.9-11.4c1.2-1.4,2.4-2.7,3.8-3.9c0.6-0.5,1.1-1,1.6-1.3c0.4-0.4,0.8-0.7,1.3-1
		C448.7,430,449.1,429.8,449.5,429.6z"/>
</g>
<g id="Numbers--inject-33">
	<path class="st5" d="M204.5,427c-1.5,18.3-16.2,33.1-45.7,30.7c-14.3-1.2-29-6.4-38.4-14.3l3.5-17.8l7.4,0.3
		c7.3,6.5,17.8,10.8,28.6,11.7c11.9,1,19.7-3.4,20.4-11.8c0.7-8.1-4.2-13.8-22.9-15.4l-26.4-2.2l10.1-57.6l62.9,5.1l-1.6,19.2
		l-43-3.5l-3.2,19.5l8.4,0.7C195,394.1,206,408.8,204.5,427z"/>
	<g class="st6">
		<path d="M204.5,427c-1.5,18.3-16.2,33.1-45.7,30.7c-14.3-1.2-29-6.4-38.4-14.3l3.5-17.8l7.4,0.3c7.3,6.5,17.8,10.8,28.6,11.7
			c11.9,1,19.7-3.4,20.4-11.8c0.7-8.1-4.2-13.8-22.9-15.4l-26.4-2.2l10.1-57.6l62.9,5.1l-1.6,19.2l-43-3.5l-3.2,19.5l8.4,0.7
			C195,394.1,206,408.8,204.5,427z"/>
	</g>
	<path class="st5" d="M197,426.4c-1.5,18.3-16.2,33.1-45.7,30.7c-14.3-1.2-29-6.4-38.4-14.3l10.9-17.5c7.3,6.5,17.8,10.8,28.5,11.7
		c11.9,1,19.7-3.4,20.4-11.8c0.7-8.1-4.2-13.8-22.9-15.4l-26.4-2.2l10.1-57.6l62.9,5.1l-1.6,19.2l-43-3.5l-3.2,19.5l8.4,0.7
		C187.5,393.5,198.5,408.1,197,426.4z"/>
	<g class="st7">
		<path d="M166,434.9l10.6,7.7l1.6,4.2l0.3-7.2l-7.5-8.9C169.8,432.6,168.1,434.1,166,434.9z"/>
	</g>
	<g class="st7">
		<path d="M172.6,426.1c0,0,5.3,6.7,6.1,7c0.8,0.3,12.2,3.4,12.2,3.4l2.3,3l1.8-4.5l-2.5-1.8l-10.3-2l-9.5-9.1L172.6,426.1z"/>
	</g>
	<g class="st7">
		<path d="M172.1,419.9l9.6,3.6c0.6-0.4,10-1.3,11-1.5c0.9-0.2,4.5,1,4.5,1l-0.8-5.4l-14.7,2.9l-11.4-3.9L172.1,419.9z"/>
	</g>
	<g class="st7">
		<path d="M188.8,402.7l-9.6,7.3l-12.9,3.4l2.5,1.6l7.8-0.6h10.7l7.8-2.7l-1.5-2.9c0,0-14,4-12.9,2.8c1.1-1.2,9.9-7.2,9.9-7.2
			L188.8,402.7"/>
	</g>
	<g class="st7">
		<path d="M182.5,397.9l-7,8.7l-12.2,5.8l-3-1.2l9.5-7.8l6.2-8.6C178.3,395.6,180.4,396.7,182.5,397.9z"/>
	</g>
	<g class="st7">
		<path d="M124.6,403.6c0,0,5,3.4,7.8,3.4s17.1-5.7,17.1-5.7l12,0.4l10.3-6.2l-11,3l-10.4-0.8l-12.1,3l-12.2-6.1L124.6,403.6z"/>
	</g>
	<g class="st7">
		<polygon points="148.5,390 136,387.6 126.6,389.9 127.5,385.1 138.9,384.2 149.1,386.8 		"/>
	</g>
	<g class="st7">
		<path d="M129,376.3c0,0,14.2,5.1,16.1,5.2s4.9,0.7,4.9,0.7l0.5-3l-9.4-2.7l-10.6-9.4l-0.4,4l4.4,4.5l-5-1.9L129,376.3z"/>
	</g>
	<g class="st7">
		<path d="M131.7,361.3c0,0,11,7.6,13.9,7.5s10.1-0.9,10.1-0.9l20.3,4.5l9.5,1.2l-22.3-8.2c0,0-13-3.8-13.1-3.5
			c-0.1,0.3-7.1,0.9-7.1,0.9l-9.7-9.6L131.7,361.3z"/>
	</g>
	<g class="st7">
		<polygon points="145.2,351.2 153.8,359.1 173.9,362 188.4,370.2 178.1,361.1 163.3,357.8 154.1,351.6 		"/>
	</g>
	<g class="st7">
		<path d="M115.8,438.9c0,0,9.2-2,10-1.8c0.8,0.2,15.5,8.5,15.5,8.5s16.2-0.4,16.8-0.3c0.6,0,11,6.7,11,6.7l-8.4-10l-19.8-0.4
			l-10.7-10.3l-10.9,1.3L115.8,438.9z"/>
	</g>
	<g class="st7">
		<path d="M123,449c0,0,4.9-1.9,6.9-1.4c2.1,0.5,9.1,4.1,9.1,4.1l10.5-0.5l10.5,1.4l9.5,3.5c0,0-5.9,0.8-8.2,1.1l-6.3-2.7l-13-0.8
			l-7.4,0.3l-4.8-3.5l-4.7-0.2L123,449z"/>
	</g>
	<g class="st7">
		<polygon points="180.2,353.9 185.9,361.4 195.5,366.2 195.8,362.8 188,360 184.9,354 		"/>
	</g>
	<path class="st5" d="M217.1,407.6c-4.3-34.3,12.1-56.1,37.7-59.4c25.7-3.3,47,13.7,51.4,48c4.4,34.3-12,56.1-37.6,59.4
		S221.5,441.9,217.1,407.6z M282,399.3c-3-23.6-12.6-32.3-24.6-30.8c-12,1.5-18.9,12.4-15.9,36s12.6,32.3,24.4,30.8
		C277.9,433.8,285,422.9,282,399.3z"/>
	<g class="st6">
		<path d="M217.1,407.6c-4.3-34.3,12.1-56.1,37.7-59.4c25.7-3.3,47,13.7,51.4,48c4.4,34.3-12,56.1-37.6,59.4
			S221.5,441.9,217.1,407.6z M282,399.3c-3-23.6-12.6-32.3-24.6-30.8c-12,1.5-18.9,12.4-15.9,36s12.6,32.3,24.4,30.8
			C277.9,433.8,285,422.9,282,399.3z"/>
	</g>
	<path class="st5" d="M208.4,409.6c-4.4-34.3,12.1-56.1,37.6-59.4c25.5-3.3,47,13.7,51.4,48s-12,56.1-37.6,59.4
		C234.2,460.8,212.8,443.8,208.4,409.6z M273.2,401.3c-3-23.6-12.6-32.3-24.6-30.8c-12,1.5-18.9,12.4-15.9,36s12.6,32.3,24.5,30.8
		C269,435.8,276.2,424.8,273.2,401.3z"/>
	<g class="st7">
		<path d="M236.8,454.5c0,0,9.3-4.1,10-4.3s14.7,2.5,14.7,2.5l12.1-5.1l9.3-0.3l2.8-2.7l-14.5-1.9l-12.8,4.8l-16.8-0.8l-9.5,5.5
			L236.8,454.5z"/>
	</g>
	<g class="st7">
		<polygon points="227,448.3 239.5,442.5 252.3,443.3 239.5,440 226.8,444 221.8,443.2 		"/>
	</g>
	<g class="st7">
		<path d="M266.6,433.1c0,0,8.2,0.7,9.7,0.8s10.9-4.6,10.9-4.6l7.2,1l1-2.9l-8.3-0.8l-10.9,5l-6.9-1.6L266.6,433.1z"/>
	</g>
	<g class="st7">
		<polygon points="241.8,431.5 234.9,431.6 225.7,434.3 215.7,434 213.5,429.3 223.2,430.1 233.8,427.3 239.6,428.6 		"/>
	</g>
	<g class="st7">
		<path d="M272.8,421.1l9.2-0.3l11.4-7.4l4.5,1c0,0,0.3-5.4,0.1-8.2l-7.6,3.3l-9.7,7.7l-7.1,0.3
			C273.4,418.7,273.1,419.9,272.8,421.1z"/>
	</g>
	<g class="st7">
		<polygon points="236.4,422.3 226.4,422.6 218.6,423.7 210.8,421.8 210,418.5 217.1,421 224,418.1 235.4,419.5 		"/>
	</g>
	<g class="st7">
		<path d="M208.4,409.6c0,0,7.3,3.3,8.5,3.1c1.2-0.1,12.9-0.4,12.9-0.4l3.9,0.5l-0.6-3.3l-8.9-1.2l-8.5,0.2l-8-6.7L208.4,409.6z"/>
	</g>
	<g class="st7">
		<polygon points="273.9,411.6 278.7,410.7 287.8,402.8 293.5,394.7 297.1,396.5 296.8,394.6 290.7,392 283.9,401.8 273.8,406.8 		
			"/>
	</g>
	<g class="st7">
		<polygon points="222.9,360.3 232.4,366 246.6,361.1 262.2,365.1 273.6,360.3 260.4,360.7 249,357.1 233.5,361.5 228.3,356.3 		"/>
	</g>
	<g class="st7">
		<path d="M208,392.3c0,0,16.3,8.7,17,9.1c0.7,0.4,7.2-0.2,7.2-0.2l-0.1-3.8l-6.1-0.7l-17-11.3L208,392.3z"/>
	</g>
	<g class="st7">
		<polygon points="270,387 275.2,381.3 290.9,375.4 293.3,381 279.7,384.2 272,395.2 		"/>
	</g>
	<g class="st7">
		<polygon points="210.8,378.8 220.2,387.8 232.7,387.5 234,382.8 223.5,383.1 213.4,372.6 		"/>
	</g>
	<g class="st7">
		<path d="M246.9,370.8l5-2.2l15.5,0.5l13.8-7.6l3.1,3.4l-16.6,9.6l-6.9-1.2C260.9,373.3,256.1,369,246.9,370.8z"/>
	</g>
	<g class="st7">
		<path d="M216.7,367.2c0,0,13.4,9.2,13.1,8.5s-9.6-12.8-9.6-12.8L216.7,367.2z"/>
	</g>
</g>
<g id="Dinosaur--inject-33">
	<path class="st5" d="M123.2,190.1l0.2-0.1c-1.2,0-2.3,0.3-3.4,0.8l0,0c-1,0.5-1.9,1.1-2.8,1.8c-1.8,1.4-3.3,3.1-5.2,4.3
		c-3,1.9-6.5,2.6-10,2c1.6,2.8,5.2,3.8,8.4,3.4s6.1-2,8.9-3.5c4.7-2.3,9.6-4.4,14.5-6C130.9,190.4,127,189.4,123.2,190.1z"/>
	<g class="st8">
		<path d="M123.2,190.1l0.2-0.1c-1.2,0-2.3,0.3-3.4,0.8l0,0c-1,0.5-1.9,1.1-2.8,1.8c-1.8,1.4-3.3,3.1-5.2,4.3c-3,1.9-6.5,2.6-10,2
			c1.6,2.8,5.2,3.8,8.4,3.4s6.1-2,8.9-3.5c4.7-2.3,9.6-4.4,14.5-6C130.9,190.4,127,189.4,123.2,190.1z"/>
	</g>
	<path class="st4" d="M282.1,248.6c0,0,6.7,2.5,12.2,0.4s8.3-2.9,8.3-2.9l2.1-0.1l1.4,12.8l-3.8,4.6l-2.3-2.7l-0.8-7.4
		c0,0-11.2,2.3-18.7,0.3L282.1,248.6z"/>
	<path class="st5" d="M395.6,287.9c8.1,15.7,3.4,36.2-23,49.8c-13,6.7-28.2,10-40.5,8.3l-6.1-17.4l6-3.4c9.8,1.7,21.1-0.3,30.8-5.3
		c10.8-5.5,15.1-13.3,11.2-20.9c-3.6-7-11-8.7-23.2-2.5l-9.8,5l-7.3-14.2l8-31.5l-39.5,20.3l-8.9-17.2l65-33.5l7.2,13.9l-8.7,34.7
		C374.8,268.3,388.6,274.3,395.6,287.9z"/>
	<g class="st6">
		<path d="M395.6,287.9c8.1,15.7,3.4,36.2-23,49.8c-13,6.7-28.2,10-33.2,8l-13.4-17l6-3.4c9.8,1.7,21.1-0.3,30.8-5.3
			c10.8-5.5,15.1-13.3,11.2-20.9c-3.6-7-11-8.7-23.2-2.5l-9.8,5l-7.3-14.2l8-31.5l-39.5,20.3l-8.9-17.2l65-33.5l7.2,13.9l-8.7,34.7
			C374.8,268.3,388.6,274.3,395.6,287.9z"/>
	</g>
	<path class="st5" d="M389.6,291.3c8.1,15.6,3.4,36.2-23,49.8c-13,6.7-28.2,10-40.5,8.3l-0.1-20.8c9.8,1.7,21.1-0.3,30.8-5.3
		c10.7-5.5,15.1-13.3,11.2-20.9c-3.6-7-11-8.7-23.2-2.5l-9.8,5l-7.3-14.2l8-31.5L296,279.8l-8.9-17.2l65-33.5l7.2,13.9l-8.7,34.7
		C368.8,271.7,382.6,277.7,389.6,291.3z"/>
	<g class="st7">
		<path d="M365.2,317.2l12.4,4.6l2.7,3.7l-1.7-7l-9.9-6.8C368,313.7,366.8,315.6,365.2,317.2z"/>
	</g>
	<g class="st7">
		<path d="M369.3,309c0,0,7.8,0.8,8.5,0.7s12.1-4.1,12.1-4.1l3.1,1.5c0.1-1.9,0-3.7-0.2-5.6l-3.4,0.4l-9.7,4.2l-11-1.9
			C369.3,305.8,369.5,307.4,369.3,309z"/>
	</g>
	<g class="st7">
		<path d="M366.4,300l10.2-3.3c0.2-0.7,7.6-6.8,8.3-7.5c0.8-0.6,1.8-1,2.8-1.2c-1.1-1.6-2.2-3.2-3.1-3.7l-9.6,9.8l-11.8,3.2
			C364.4,298,365.5,298.9,366.4,300z"/>
	</g>
	<g class="st7">
		<path d="M365.5,275.4l-3.8,11.4l-8.6,10c1.2-0.3,2.4-0.5,3.6-0.6l5.3-4.2l9-6.1l5.9-7.6c-1.1-0.5-2.2-1-3.4-1.4
			c0,0-9.9,12-9.6,10.4s4.2-11.6,4.2-11.6L365.5,275.4"/>
	</g>
	<g class="st7">
		<path d="M356.8,276l-1,11.6l-5.8,10l-5.2,2.3l4.4-11.8l1.5-10.5C352.7,277,354.7,276.4,356.8,276z"/>
	</g>
	<g class="st7">
		<polygon points="338.9,289.1 329.4,294.6 331.5,298.5 341.3,291.4 346.3,280.4 		"/>
	</g>
	<g class="st7">
		<polygon points="351.9,272.9 340.1,278.1 327.8,290.2 329.8,282.2 340.6,273.6 352.8,269.2 		"/>
	</g>
	<g class="st7">
		<path d="M354.6,261.8c0,0-12.4,5.4-14.4,5.7c-1.9,0.3-8,5-8,5l1.7-6.7l10-3.6l14.3-14.5l-1.3,4.8l-6.3,8.3l4.9-2.3L354.6,261.8z"
			/>
	</g>
	<g class="st7">
		<path d="M293.5,274.7c0,0,13.5,0.1,15.8-1.5s7.9-6.5,7.9-6.5l19.6-7.7l8.6-4.4l-23.3,5.8c0,0-13.1,4.2-12.9,4.5
			c0.1,0.3-5.4,4.8-5.4,4.8l-14.3-2.6L293.5,274.7z"/>
	</g>
	<g class="st7">
		<polygon points="297.1,257.4 310.7,260.3 329.1,251.3 345.8,249.9 332.1,248.2 317.9,253.8 305.7,253 		"/>
	</g>
	<g class="st7">
		<path d="M326,343c0,0,7.7-6.2,8.5-6.4s17.8,1.1,17.8,1.1s14.6-7.3,15.2-7.5c0.5-0.2,12.9,1.4,12.9,1.4l-12-5.5l-18.2,8.2
			l-14.2-4.8l-10,6.3L326,343z"/>
	</g>
	<g class="st7">
		<path d="M326.1,349.3c0,0,5.7-5.7,7.8-6c2.1-0.3,10.1,0.5,10.1,0.5l9.7-4.4l10.4-2.5l10.1-0.3c0,0-4.8,3.1-7,4.2l-7-0.3l-12.5,4.1
			l-6.8,3l-5.9-1.6l-5.7,3.8L326.1,349.3z"/>
	</g>
	<g class="st7">
		<polygon points="329.8,240.9 338.8,244 355.2,242.3 347.9,239.6 339.8,241.7 333.8,238.4 		"/>
	</g>
	<path class="st9" d="M244.5,197.2l-6.4-32c0,0-31.9-60-40.3-81.3s-2-83.9-2-83.9c-44.3,47.9-36.2,113-36.2,113
		c33.1,37.3,27.6,76.5,27.6,76.5L244.5,197.2z M180.2,75c-1-0.4-1.5-1.6-1.1-2.6c0.1-0.2,0.2-0.4,0.3-0.5l2-2.3
		c1.9-2.3,5.5-2,7.7-2.1s3,8.9-0.4,9.6C186.6,77.5,182.8,76.1,180.2,75z"/>
	<g class="st8">
		<path d="M188,189.4c0,0,23.1,4,26.7,1.3c3.6-2.7,10.6-11.7,10.6-11.7l10.8-17.6l-9.1-17.5c0,0,2.2,24.6-8.6,30.7
			s-30.8,8.2-30.8,8.2L188,189.4z"/>
	</g>
	<g class="st7">
		<path class="st2" d="M187.8,176.7c10.5-5.7,20.4-12.4,29.6-20c1.1-0.9,2.2-2.4,1.3-3.5c-0.7-0.8-1.9-0.6-2.9-0.3l-28.9,8.5
			c-0.6,0.1-1.1,0.4-1.5,0.8c-0.3,0.6-0.4,1.3-0.1,2l2.9,13.5"/>
	</g>
	<g class="st7">
		<path class="st2" d="M212.6,116.8c-2.4,5.2-5.2,11-10,14.7s-10.4,6.2-16.1,8.3c-1.5,0.6-3.3,1.5-3.2,3s2.1,2.1,3.7,2.4
			c11.5,1.5,23.1-0.3,33.6-5.2c0.9-0.3,1.7-0.9,2.1-1.8c0.2-0.8,0-1.6-0.4-2.3C220.1,131.2,215.7,123.5,212.6,116.8"/>
	</g>
	<g class="st7">
		<path class="st2" d="M174.4,132.5c3.5,6.5,9.2-10.9,13.4-17c1-1.3,1.8-2.8,2.3-4.4c0.5-1.6,0-3.4-1.2-4.6c-1.3-1-3.1-1.3-4.6-0.8
			c-1.5,0.5-3,1.3-4.4,2.2c-6,3.4-12.8,5.2-19.6,5.1C160.1,112.9,171,126.3,174.4,132.5z"/>
	</g>
	<g class="st7">
		<path class="st2" d="M197.2,82c-3.6,1-7.4,4.1-11.4,5s-8.2,1.2-12,2.7c-1.5,0.6-3.2,1.9-2.9,3.5s2.1,2.1,3.6,2.4
			c9.4,1.6,19,1.6,28.4-0.2C200.7,90.4,199.1,87.3,197.2,82"/>
	</g>
	<g class="st7">
		<path class="st2" d="M160.9,76c9-4.5,17.3-10,24.9-16.6c0.7-0.5,1.3-1.2,1.6-2c0.4-0.8,0.1-1.8-0.6-2.3c-0.6-0.3-1.3-0.3-1.9-0.1
			l-20.6,4.3C162.8,65.2,161.7,70.8,160.9,76"/>
	</g>
	<g class="st7">
		<path class="st2" d="M193.5,43c-5.9-0.5-11.5-2.5-16.3-6c4.3-4.1,10.6-5.6,16.6-6.9C193.6,34.1,193.5,39.3,193.5,43"/>
	</g>
	<path class="st4" d="M189.3,189c-0.7-13.1-1.4-26.4-5.6-38.8c-4.8-14.1-13.9-26.3-24.1-37.1c17.6,20.8,27,49,25.8,76.3L189.3,189z"
		/>
	<path class="st9" d="M409.7,55c-65-4-114.5,17.5-149.7,62.4c0,0-25.8,51.6-36.6,64.6c-10.5,12.7-32,17.5-32,17.5l58.7,27.8l6.2,9.1
		l25.8,17.2c0,0,10.1-17.9,3.7-36.1c-13.3-38.2,9.4-55.8,9.4-55.8c7.7-23.3,24.1-42.7,45.8-54.2C355.2,76,409.7,55,409.7,55z
		 M290.4,151.1c-0.9,0.7-2.2,0.7-3-0.1c-0.8-0.8-0.8-2.1-0.1-3l0.5-0.4c1-0.6,2.4-0.3,3,0.7C291.3,149.3,291.1,150.4,290.4,151.1
		L290.4,151.1z M296.7,142.2c-2.2,0.5-6-1-8.6-2.1c-1-0.4-1.5-1.6-1.1-2.6c0.1-0.2,0.2-0.4,0.3-0.6l2-2.3c1.9-2.3,5.5-2,7.7-2.1
		S300.1,141.5,296.7,142.2z"/>
	<g class="st7">
		<path class="st2" d="M279.4,104.8c1.6,1.7,3.8,2.6,6,2.6c2.3,0,4.5-0.4,6.7-1.1c10.3-2.9,20.4-6.8,30-11.5c1.2-0.6,2.7-1.9,2-3.1
			c-0.5-0.7-1.4-1-2.2-0.9c-6.5-0.5-15-1-21.5-1.5L279.4,104.8z"/>
	</g>
	<g class="st7">
		<path class="st2" d="M373.8,67.4c0,0-11.3-5.7-8.8-6.8s16-1.8,16-1.8L373.8,67.4z"/>
	</g>
	<g class="st7">
		<path class="st2" d="M325.1,73c6,8.5,15,14.4,25.2,16.4c1,0.4,2.2,0.2,3.1-0.3c1.3-1.1,0.7-3.2-0.1-4.8c-2.2-4.4-4.4-8.8-6.6-13.2
			c-0.5-1.4-1.5-2.6-2.7-3.4c-1.6-0.8-2.7,0-4.9,0.7C334.3,70.1,325.1,73,325.1,73"/>
	</g>
	<path class="st9" d="M300.1,251.7c-0.8-0.1-1.6-0.3-2.4-0.5c0,0-9.9,5.1-13.8,3.6c-3.9-1.5-19.6-15.9-17.9-25.7l0,0
		c5.3-5.8,8.6-14.3-4.2-23.4c-23-16.4-68.9-16.6-68.9-16.6c-5.4-0.3-10.8-0.2-16.3,0.2c-8.5,0.6-15.6-3.2-18-4.6
		c-2.4-1.4-11.3-8.8-11.3-8.8s30-20.1,29.4-20.7c-0.6-0.6-43.4,15.1-43.4,15.1s-53.6,26.3-59.3,31.6c-4.9,4.6-3.3,5.3-3.3,5.3
		c23.8-13.2,50.8-16.6,52.9-16.7c2.1,0,4.2,0.2,6.3,0.8c0,0-3.9,1.2-16.9,9.4c-9,5.7-24.4,14.7-27.9,17.4s-3.3,3.1-1,3.6
		s41.6-15.5,47.3-17.7c6.5-2.6,16.2-5.8,16.2-5.8c9.3,8.4,31.6,19.7,31.6,19.7s19.9,5,34.5,3.9c15.5,0.7,27.2,2.7,40,11.6
		c0,0,13.6,22.5,23.6,25.7c5.7,2,11.9,1.9,17.5-0.3l1.1,7.7l2.1,2.3l4.6-2.7C302.7,266,300.4,263.2,300.1,251.7z"/>
	<path class="st2" d="M137.3,181.7c0.2,2.3-1.6,4.3-3.9,4.5c-2.3,0.2-4.3-1.6-4.5-3.9c-0.2-2.3,1.6-4.3,3.9-4.5c0,0,0,0,0,0
		C135.1,177.7,137.1,179.4,137.3,181.7C137.3,181.7,137.3,181.7,137.3,181.7z"/>
	<path class="st4" d="M136.5,181.8c0.1,1.9-1.3,3.6-3.2,3.7s-3.6-1.3-3.7-3.2c-0.1-1.9,1.3-3.6,3.2-3.7c0,0,0,0,0,0
		C134.8,178.4,136.4,179.9,136.5,181.8C136.5,181.8,136.5,181.8,136.5,181.8z"/>
	<path class="st4" d="M95.8,192.1c-0.2,0.1,8-5.6,8.3-5.1S103.9,189.9,95.8,192.1z"/>
	<path class="st4" d="M299.2,268.7c0,0,2.9,3.7,3.1,3.6c0.2-0.1,4.8,0,4.8,0l-6.3-5.3L299.2,268.7z"/>
	<path class="st4" d="M300.5,267.3c0,0,3.1,3.5,3.3,3.4c0.2-0.1,4.8-0.1,4.8-0.1l-6.3-5.3L300.5,267.3z"/>
	<path class="st4" d="M301.8,266.3c0,0,3.9,2.6,4.1,2.5c0.2-0.2,4.5-1.5,4.5-1.5l-7.5-3.2L301.8,266.3z"/>
	<g class="st10">
		<path class="st2" d="M172.7,209c-0.7,0.8-0.6,2.1,0.2,2.8c0.2,0.1,0.3,0.3,0.5,0.3c2.6,1.1,6.5,2.6,8.6,2.1
			c3.4-0.7,2.6-9.7,0.4-9.6c-2.2,0.1-5.8-0.2-7.7,2.1C174,207.6,173.3,208.4,172.7,209z"/>
	</g>
	<g class="st7">
		<path class="st2" d="M151.1,191.9c0.1,0.6,0.7,1.1,1.4,0.9c0.1,0,0.2-0.1,0.3-0.1c1.4-0.8,3.5-2,4.1-3.2c0.9-1.8-3.5-4.7-4.2-3.7
			s-2.2,2.6-1.9,4.3C150.9,190.8,151,191.4,151.1,191.9z"/>
	</g>
	<g class="st7">
		<path class="st2" d="M137.3,188c-0.7,0.8-0.6,2.1,0.2,2.8c0.2,0.1,0.3,0.3,0.5,0.3c2.5,1.1,6.5,2.6,8.6,2.1
			c3.4-0.7,2.6-9.7,0.4-9.6c-2.2,0.1-5.8-0.2-7.7,2.1L137.3,188z"/>
	</g>
	<g class="st10">
		<path class="st2" d="M192.3,212.6c-0.3-0.4-0.6-0.7-1-0.9c-0.8-0.5-1.9-0.2-2.4,0.6c-0.1,0.1-0.1,0.2-0.1,0.3
			c-0.2,0.5-0.2,1-0.1,1.6c0.3,1,1.1,1.8,2,2.3c0.4,0.3,1,0.4,1.4,0.2c0.5-0.2,0.8-0.7,0.9-1.2C193.1,214.5,192.9,213.4,192.3,212.6
			z"/>
	</g>
	<g class="st10">
		<path class="st2" d="M178.5,201.2c-0.1-0.2-0.3-0.4-0.5-0.5c-0.4-0.3-1-0.1-1.3,0.3c0,0.1-0.1,0.1-0.1,0.2
			c-0.1,0.3-0.1,0.5-0.1,0.8c0.2,0.5,0.6,1,1.1,1.2c0.2,0.1,0.5,0.2,0.8,0.1c0.2-0.1,0.4-0.4,0.5-0.6
			C179,202.1,178.9,201.6,178.5,201.2z"/>
	</g>
	<g class="st10">
		<path class="st2" d="M166.7,204.6c0.1,1.1-0.1,3.1,0.7,3.5c0.7,0.4,1,0.3,2.3,0s2.8-0.6,2.5-2.1s0.1-2.4-0.9-2.8
			S166.6,203.7,166.7,204.6z"/>
	</g>
	<g class="st10">
		<path class="st2" d="M184.1,214.7c0,0.4,0,1.2,0.3,1.4c0.3,0.2,0.4,0.1,0.9,0s1.1-0.2,1-0.8s0-0.9-0.4-1.1
			C185.6,214,184.1,214.3,184.1,214.7z"/>
	</g>
	<g class="st7">
		<path class="st2" d="M117.9,182.5c0.1,1.1-0.1,3.1,0.7,3.5s1,0.3,2.3,0s2.8-0.6,2.5-2.1s0.1-2.4-0.9-2.8S117.8,181.6,117.9,182.5z
			"/>
	</g>
	<path class="st4" d="M105.7,186.4c0.1,0,0.2,0.4,0.1,1.1c-0.2,0.8-0.7,1.6-1.3,2.2c-0.6,0.6-1.4,1-2.1,1.3c-0.6,0.2-1,0.3-1,0.3
		s0.3-0.3,0.8-0.6c0.7-0.4,1.4-0.8,2-1.3c0.6-0.5,1-1.2,1.3-1.9C105.7,186.8,105.7,186.4,105.7,186.4z"/>
	<path class="st4" d="M84.6,221.2c0,0,0.1-0.1,0.3-0.2l0.8-0.5l3-1.9l11.2-6.9l16.7-10.2c3.2-2.1,6.6-4,10.1-5.6
		c1.9-0.8,3.8-1.5,5.9-1.9c1-0.2,2.1-0.4,3.1-0.5c0.5,0,1-0.1,1.5-0.2c0.4-0.1,0.8-0.4,1-0.8c0.1-0.4,0-0.9-0.3-1.2
		c-0.3-0.3-0.8-0.6-1.3-0.6c-1-0.2-2-0.2-3-0.1c-2,0.2-4,0.7-5.8,1.6c-3.5,1.7-6.8,3.6-10,5.7l-16.7,10.3L90,215l-3.1,1.9l-0.8,0.5
		l-0.3,0.1c0.1-0.1,0.2-0.1,0.3-0.2l0.8-0.5l3-1.9l11.2-7l16.6-10.4c3.2-2.1,6.6-4.1,10.1-5.8c1.9-0.9,3.9-1.4,6-1.6
		c1.1-0.1,2.1-0.1,3.2,0.1c0.6,0.1,1.1,0.4,1.5,0.8c0.4,0.5,0.6,1.1,0.4,1.7c-0.2,0.6-0.8,1-1.4,1.1c-0.5,0.1-1.1,0.2-1.6,0.2
		c-1,0.1-2.1,0.2-3.1,0.5c-2,0.4-3.9,1.1-5.8,1.9c-3.5,1.6-6.9,3.4-10.1,5.5L100.2,212l-11.4,6.8l-3.1,1.8l-0.8,0.5L84.6,221.2z"/>
	<path class="st4" d="M90.4,217.5c-0.1,0.1-0.8-0.2-1-1s0-1.5,0.1-1.4s0.1,0.6,0.3,1.3S90.5,217.4,90.4,217.5z"/>
	<path class="st4" d="M94.8,214.6c0,0.1-0.8,0-1.2-0.8s-0.1-1.4,0-1.4s0.1,0.6,0.4,1.1S94.9,214.4,94.8,214.6z"/>
	<path class="st4" d="M100,211.8c-0.1,0-0.4-0.5-0.8-1.1s-0.8-1.1-0.7-1.2s0.7,0.2,1.1,0.9S100.1,211.8,100,211.8z"/>
	<path class="st4" d="M104.7,208.7c-0.1,0-0.4-0.4-1-0.9s-1-0.8-1-0.9s0.7,0,1.3,0.6S104.9,208.6,104.7,208.7z"/>
	<path class="st4" d="M110.5,205.4c-0.1,0.1-0.5-0.3-1.1-0.8s-1-0.9-0.9-1s0.7,0.1,1.2,0.6S110.6,205.3,110.5,205.4z"/>
	<path class="st4" d="M114.7,203.1c-0.1,0-0.4-0.6-0.8-1.2s-0.9-1-0.9-1.2s0.8,0.2,1.3,0.9S114.8,203.1,114.7,203.1z"/>
	<path class="st4" d="M121.6,198.6c-0.1,0-0.3-0.6-0.7-1.3s-0.9-1.1-0.8-1.2s0.8,0.2,1.2,0.9S121.8,198.6,121.6,198.6z"/>
	<path class="st4" d="M127.7,195.6c-0.1,0-0.1-0.6-0.4-1.2s-0.8-1-0.7-1.1s0.8,0.1,1.2,0.9C128.1,194.9,127.8,195.6,127.7,195.6z"/>
	<path class="st4" d="M133.8,193.9c-0.1,0,0-0.9-0.5-1.8c-0.4-0.9-1.1-1.5-1-1.6s1,0.3,1.5,1.4C134.3,193,133.9,194,133.8,193.9z"/>
	<path class="st4" d="M140.2,182.9c0,0.1-0.2-0.1-0.6-0.1c-0.5,0.1-1.1,0.3-1.4,0.7c-0.6,0.6-1.1,1.3-1.5,2
		c-0.7,0.9-1.7,1.5-2.8,1.6c-1.1,0.1-2.2-0.1-3.1-0.7c-0.8-0.5-1.4-1.1-1.9-1.8c-0.5-0.6-0.9-1.3-1.1-2.1c0.1,0,0.4,0.8,1.3,1.9
		c0.5,0.6,1.1,1.2,1.9,1.6c0.9,0.5,1.9,0.7,2.9,0.6c1-0.1,1.9-0.6,2.5-1.4c0.5-0.7,1-1.4,1.6-2c0.5-0.4,1.1-0.6,1.7-0.6
		C140,182.7,140.2,182.9,140.2,182.9z"/>
	<path class="st4" d="M138.6,181.2c-0.6-0.6-1.1-1.2-1.6-1.8c-0.6-0.6-1.3-1.1-2.1-1.5c-0.9-0.5-2-0.5-3-0.1c-0.9,0.5-1.7,1.2-2.4,2
		c-0.6,0.7-1.4,1.2-2.3,1.4c-0.6,0.1-1.3,0-1.8-0.3c-0.4-0.3-0.5-0.5-0.4-0.5s0.2,0.2,0.5,0.4c0.5,0.2,1.1,0.3,1.6,0.1
		c0.8-0.3,1.5-0.7,2.1-1.4c0.7-0.9,1.6-1.6,2.5-2.2c1.1-0.5,2.3-0.4,3.4,0.1c0.8,0.4,1.5,1,2.1,1.7c0.4,0.5,0.7,0.9,1.1,1.5
		C138.4,180.8,138.5,181,138.6,181.2z"/>
	<path class="st4" d="M140.7,183.7c0,0,0,0.2-0.2,0.6c-0.2,0.6-0.5,1.1-0.9,1.6c-2.5,3.4-7.3,4.2-10.8,1.8c-0.5-0.3-1-0.7-1.4-1.2
		c-0.3-0.3-0.4-0.5-0.4-0.6s0.6,0.7,1.9,1.5c3.4,2.1,7.9,1.4,10.4-1.7C139.9,185,140.3,184.4,140.7,183.7z"/>
	<path class="st4" d="M92.3,193.2c1.5-1.2,3-2.3,4.7-3.2c1.6-1.1,3.2-2,4.9-2.8c-1.5,1.2-3,2.3-4.7,3.2
		C95.7,191.5,94.1,192.4,92.3,193.2z"/>
	<g class="st8">
		<path d="M205.7,207.2c12.5,5.1,27,4.1,39.6,9c8.4,3.3,15.6,9.1,21.5,15.9c5.8,6.7,11,13.8,15.6,21.3c-2.4-10-4.9-20.1-10-29
			s-13.7-16.4-23.7-18.7c-13.8-3-34,6.9-42.5,1.1"/>
	</g>
	<path class="st4" d="M282.5,253.4c0-0.1-0.1-0.2-0.1-0.3c-0.1-0.2-0.1-0.5-0.2-0.8c-0.2-0.7-0.4-1.7-0.8-3c-0.7-2.6-1.7-6.4-3.1-11
		c-1.7-5.4-4-10.5-6.8-15.4c-3.5-5.9-8.6-10.8-14.7-14.1c-3.1-1.7-6.5-2.8-10-3.3c-3.3-0.4-6.6-0.4-9.9,0.1
		c-6.3,0.7-11.9,2.2-16.6,2.9c-2.1,0.3-4.3,0.5-6.5,0.4c-1.7-0.1-3.3-0.4-4.9-0.9c-1-0.3-1.9-0.8-2.8-1.3l-0.7-0.5l-0.2-0.2
		c1.2,0.8,2.4,1.4,3.7,1.8c1.6,0.5,3.2,0.7,4.8,0.8c2.2,0,4.3-0.1,6.4-0.5c4.7-0.8,10.3-2.2,16.7-3c3.3-0.5,6.7-0.5,10-0.1
		c3.6,0.5,7,1.7,10.2,3.4c6.2,3.4,11.3,8.3,14.8,14.4c2.8,4.9,5.1,10.1,6.8,15.5c1.5,4.6,2.4,8.4,3,11c0.3,1.3,0.5,2.3,0.7,3
		l0.2,0.8C282.4,253.3,282.5,253.4,282.5,253.4z"/>
	<g class="st7">
		<path d="M206,206.8c11-3.9,22.4-8.2,30.2-16.9c12.6-14,12.9-36.1,25.4-50.3c1.1-1.2,2.4-2.4,4-2.5c1,0,2.1,0.4,3.1,0.4
			c2.4,0,4.2-2.1,5.6-4c2.6-3.5,5.1-9.5,2.8-13.1c-0.8-1.2-8.3,1.9-8.9,0.6s3-5.3,1.9-5.7c-8.2,9.1-11.2,13.3-16.8,20.2
			c-6.9,8.4-9.3,20.4-13.9,30.3c-7.4,15.9-19.5,29.1-34.6,38"/>
	</g>
	<path class="st4" d="M195.3,200.9c1.8,3.5,5,5.6,10.4,5.9c0,0,27.8-19.6,30-21.4s19.7-49.1,22-51.6s9.3-13.2,9.3-13.2l0.9-4.5
		c0,0-12.3,10.9-13.2,12.6s-24.7,45.7-31.3,51.9C215.8,187.7,207.1,200.3,195.3,200.9z"/>
	<path class="st4" d="M260.1,125.4c0.3-0.2,7.7-9.3,7.7-9.3c33.2-40,82.3-60.7,141.8-61c-58.2,4.4-108.5,23.5-140.4,62.3l-5.7,7.8
		L260.1,125.4z"/>
	<path class="st4" d="M340.9,107.4c-0.3,0.1-0.5,0.2-0.8,0.3l-2.3,0.7c-1,0.3-2.2,0.7-3.7,1s-3.1,0.8-4.9,1.2
		c-7.3,1.8-17.5,3.7-28.7,5.9c-5.6,1.1-11,2.2-15.8,3.3c-2.4,0.6-4.7,1.1-6.8,1.7l-3.1,0.8l-2.8,0.8c-1.8,0.5-3.4,1-4.8,1.5l-2,0.6
		l-1.6,0.6l-2.3,0.8c-0.3,0.1-0.5,0.2-0.8,0.2c0.3-0.1,0.5-0.2,0.8-0.3l2.2-0.9l1.6-0.6l2-0.7c1.4-0.5,3-1,4.8-1.6l2.8-0.9l3.1-0.8
		c2.1-0.6,4.4-1.1,6.8-1.7c4.8-1.1,10.2-2.2,15.8-3.3c11.2-2.1,21.4-4,28.7-5.7c1.8-0.4,3.5-0.8,4.9-1.2s2.7-0.7,3.7-0.9l2.3-0.6
		C340.3,107.5,340.6,107.5,340.9,107.4z"/>
	<path class="st4" d="M295.1,161.7c-0.2-0.1-0.5-0.2-0.7-0.4c-0.4-0.2-1.1-0.6-1.9-1.1c-2.4-1.3-4.8-2.3-7.3-3.2
		c-3.7-1.4-7.6-2.2-11.5-2.6c-1.1-0.1-2.2-0.1-3.4-0.1s-2.4,0.1-3.5,0.3c-2.5,0.3-4.9,1-7.2,2c-4.4,2-8.2,5.1-11.1,9
		c-1.3,1.7-2.5,3.4-3.6,5.2c-1.1,1.7-2,3.3-2.8,4.8c-1.7,2.9-3.1,5.3-4,6.9c-0.5,0.8-0.9,1.4-1.2,1.9c-0.1,0.2-0.3,0.4-0.4,0.6
		c0.1-0.2,0.2-0.5,0.4-0.7l1.1-1.9l3.9-7c0.8-1.5,1.7-3.1,2.8-4.8c1.1-1.8,2.3-3.6,3.6-5.3c2.9-4,6.8-7.1,11.3-9.2
		c2.3-1,4.8-1.7,7.3-2c1.2-0.1,2.4-0.2,3.6-0.3c1.2,0,2.3,0,3.5,0.1c4,0.4,7.9,1.3,11.6,2.7c2.5,0.9,5,2.1,7.3,3.4
		c0.8,0.4,1.4,0.9,1.9,1.1C294.8,161.4,295,161.5,295.1,161.7z"/>
	<path class="st4" d="M198.8,200.7c-0.4,0.3-0.9,0.5-1.4,0.5c-1.2,0.3-2.4,0.3-3.6,0.1c-1.2-0.2-2.3-0.6-3.4-1.2
		c-0.8-0.5-1.2-0.9-1.2-0.9c1.5,0.7,3,1.3,4.6,1.6C195.5,201,197.2,200.9,198.8,200.7z"/>
	<path class="st4" d="M154.2,194.6c0,0-0.1,0.1-0.4,0.2s-0.7,0.3-1.2,0.6c-1.1,0.5-2.7,1.1-4.7,1.9c-3.9,1.6-9.4,3.7-15.5,6
		l-15.6,5.9l-4.7,1.7c-1.1,0.4-1.7,0.6-1.7,0.6s0.1-0.1,0.4-0.2s0.7-0.3,1.2-0.6c1.1-0.5,2.7-1.1,4.7-1.9c4-1.6,9.4-3.7,15.5-6
		L154.2,194.6z"/>
	<path class="st4" d="M413,289c0.2,0.5,0.4,1,0.5,1.6c0.1,0.5,0.3,1.1,0.5,1.9s0.4,1.6,0.5,2.5c0.4,2.2,0.7,4.4,0.8,6.6
		c0.1,2.7,0.1,5.4-0.1,8.1c-0.2,2.7-0.6,5.4-1.2,8c-0.5,2.2-1.1,4.3-1.8,6.4c-0.3,0.9-0.6,1.7-0.9,2.4s-0.5,1.3-0.8,1.8
		c-0.2,0.5-0.5,1-0.7,1.5c0.1-0.5,0.3-1,0.6-1.5c0.2-0.5,0.4-1.1,0.7-1.8s0.6-1.5,0.8-2.4c0.7-2.1,1.3-4.2,1.7-6.4
		c0.6-2.6,0.9-5.3,1.2-8c0.2-2.7,0.2-5.4,0.1-8.1c-0.1-2.2-0.3-4.4-0.7-6.6c-0.1-0.9-0.3-1.8-0.4-2.5c-0.1-0.7-0.3-1.4-0.4-1.9
		C413.1,290,413,289.5,413,289z"/>
	<path class="st4" d="M421.1,319.5c-0.1,0,0.4-1.4,0.9-3.7c1.3-6,1.3-12.2,0-18.2c-0.5-2.3-1-3.7-0.9-3.7c0.2,0.3,0.3,0.6,0.4,0.9
		c0.3,0.9,0.6,1.8,0.8,2.7c1.5,6,1.5,12.3,0,18.3c-0.2,0.9-0.5,1.8-0.8,2.7C421.4,318.8,421.2,319.2,421.1,319.5z"/>
	<path class="st4" d="M286.9,298.7c-0.2,0-0.5,0-0.7-0.1c-0.6-0.1-1.3-0.3-1.9-0.5c-0.9-0.3-1.8-0.7-2.6-1.2c-2-1.3-3.7-3-4.9-5
		c-0.5-0.8-0.9-1.7-1.2-2.6c-0.2-0.6-0.4-1.2-0.5-1.9c-0.1-0.5-0.1-0.7,0-0.7s0.3,1,0.9,2.5c0.4,0.9,0.8,1.7,1.3,2.5
		c0.6,1,1.3,1.8,2.1,2.7c0.8,0.8,1.7,1.5,2.6,2.2c0.8,0.5,1.6,0.9,2.5,1.3C286,298.5,287,298.6,286.9,298.7z"/>
	<path class="st4" d="M291.7,297.2c-0.8-0.1-1.6-0.4-2.4-0.8c-1.8-0.8-3.5-2-5-3.4c-1.5-1.4-2.7-3-3.6-4.8c-0.4-0.7-0.7-1.5-0.9-2.4
		c0.1,0,0.4,0.9,1.2,2.2c2,3.5,4.9,6.3,8.5,8.1C290.8,296.8,291.7,297.1,291.7,297.2z"/>
</g>
<g id="Sign--inject-33">
	<path class="st9" d="M72.2,246.4v118.7l-13.4-13l-6.3,3c0,0,14,19,19.7,26.5v76.3h16.6V246.4H72.2z"/>
	<polygon class="st9" points="186.9,297.4 10.7,335.9 0.5,289 176.7,250.6 180.2,266.7 173.1,275 182.4,276.6 	"/>
	<path class="st4" d="M176.7,250.6c0,0-0.3,0.1-0.9,0.2l-2.6,0.6l-10,2.3l-37.3,8.2L0.5,289.5l0.3-0.5c1.6,7.7,3.3,15.8,5,24
		l4.9,23.5l-0.5-0.3l125.7-27.7l37.4-8.2l10.1-2.2l2.6-0.5l0.9-0.2c0,0-0.3,0.1-0.9,0.2l-2.6,0.6l-10.1,2.3l-37.3,8.4l-125.6,28
		L10,337l-0.1-0.4l-4.9-23.5c-1.7-8.2-3.4-16.3-5-24L0,288.8l0.4-0.1l125.4-27.2l37.3-8l10.1-2.1l2.6-0.5L176.7,250.6z"/>
	<path class="st4" d="M183.1,284.1l-1.8,0.3c-1.2,0.2-3,0.4-5.3,0.9c-6.4,1.3-12.7,3.1-18.9,5.3c-7.8,2.7-16.9,6.6-27.1,10.7
		c-5.1,2-10.5,4-16.2,5.9c-5.9,1.9-11.9,3.3-18,4.1c-6.1,0.8-12.3,1-18.5,0.7c-6-0.2-11.7-0.8-17.2-1.2s-10.7-0.7-15.6-0.6
		c-4.5,0.1-9,0.5-13.5,1.3c-6.5,1.1-12.7,3.4-18.2,6.9c-0.9,0.5-1.7,1.1-2.5,1.8c-0.6,0.4-1.2,0.9-1.8,1.4c-0.9,0.8-1.4,1.2-1.4,1.2
		s0.5-0.4,1.4-1.3c0.5-0.4,1-0.9,1.8-1.4c0.8-0.6,1.6-1.2,2.5-1.8c5.6-3.5,11.8-5.9,18.3-7c4.5-0.8,9-1.3,13.5-1.4
		c4.9-0.1,10.1,0.2,15.6,0.5s11.2,0.9,17.2,1.2c6.1,0.4,12.3,0.1,18.4-0.7c6.1-0.8,12.1-2.2,18-4.1c5.7-1.8,11.1-3.8,16.2-5.8
		c10.2-4.1,19.3-7.9,27.1-10.6c6.2-2.2,12.5-3.9,18.9-5.2c2.3-0.5,4.1-0.6,5.3-0.8L183.1,284.1z"/>
	<path class="st4" d="M178.1,266c0,0-0.6-0.1-1.9-0.3l-5.3-0.8c-6.5-1-13.1-1.7-19.6-2.1c-8.3-0.3-18.4-0.1-28.9,3.2
		c-0.7,0.2-1.3,0.4-2,0.6l-2,0.8c-1.3,0.5-2.6,1.1-3.9,1.7c-2.6,1.3-5.2,2.7-7.7,4.3c-5.1,3.2-10.1,7-15.3,10.6
		c-5,3.6-10.4,6.8-16,9.5c-5.2,2.4-10.7,4.5-16.2,6.2c-9.4,2.7-19,4.7-28.7,5.9c-8.3,1.1-15,1.6-19.7,2c-4.7,0.4-7.2,0.5-7.2,0.5
		s0.6-0.1,1.9-0.2l5.4-0.5c4.7-0.4,11.4-1,19.7-2.1c9.7-1.2,19.3-3.2,28.7-5.9c5.5-1.7,10.9-3.7,16.2-6.2c5.6-2.7,11-5.8,16-9.4
		c5.2-3.6,10.2-7.4,15.3-10.6c2.5-1.6,5.1-3,7.7-4.3c1.3-0.6,2.6-1.2,3.9-1.7l2-0.8c0.7-0.2,1.3-0.4,2-0.7c10.6-3.3,20.7-3.5,29-3.2
		c6.6,0.4,13.1,1.1,19.7,2.2C175.6,265.6,178.1,266,178.1,266z"/>
	<path class="st4" d="M93.1,270.2c0,0-0.2,0.2-0.7,0.7l-2.1,2l-1.5,1.4c-0.6,0.5-1.2,1-1.9,1.6c-1.4,1.1-2.9,2.5-4.8,3.7l-2.9,2.1
		c-1,0.7-2.1,1.3-3.2,2.1c-2.2,1.5-4.7,2.8-7.3,4.2c-5.8,3-11.8,5.4-17.9,7.4c-6.2,1.9-12.5,3.2-18.9,4c-3,0.3-5.8,0.6-8.4,0.7
		c-1.3,0-2.6,0.1-3.8,0.1l-3.5-0.1c-2.2,0-4.3-0.2-6-0.4c-0.9-0.1-1.7-0.1-2.5-0.2l-2.1-0.3l-2.9-0.4c-0.6-0.1-1-0.2-1-0.2l1,0.1
		l2.9,0.4l2.1,0.3c0.8,0.1,1.6,0.1,2.5,0.2c1.8,0.1,3.8,0.3,6,0.3l3.5,0.1c1.2,0,2.5-0.1,3.8-0.1c2.6,0,5.4-0.4,8.4-0.7
		c6.4-0.8,12.8-2.2,19-4c6.1-2,12.1-4.4,17.8-7.3c2.6-1.4,5.1-2.7,7.3-4.2c1.1-0.7,2.2-1.3,3.2-2l2.9-2c1.9-1.3,3.4-2.6,4.8-3.7
		c0.7-0.6,1.3-1.1,1.9-1.6l1.6-1.4c0.9-0.8,1.6-1.4,2.1-1.9S93.1,270.2,93.1,270.2z"/>
	<path class="st4" d="M34.9,327.1c-0.5,0.6-1.3,0.9-2.1,0.9c-0.9,0-1.8,0.2-2.6,0.5c-0.5,0.2-0.9,0.6-1,1.2
		c-0.2,0.6,0.1,1.2,0.7,1.4c0,0,0,0,0.1,0c0.7,0.1,1.3,0.1,2-0.1c0.7-0.1,1.4-0.3,2.2-0.5c1.6-0.4,3.1-1,4.5-1.8
		c0.8-0.4,1.4-1,1.9-1.8c0.5-0.8,0.6-1.7,0.3-2.5c-0.4-0.9-1-1.6-1.9-2c-0.9-0.4-1.9-0.6-2.8-0.7c-3.8-0.3-7.6,0.1-11.2,1.3
		c-2.9,0.9-5.8,2.2-8.5,3.6c-2.3,1.2-4.2,2.4-5.4,3.1l-1.4,0.9c-0.3,0.2-0.5,0.3-0.5,0.3c2.3-1.7,4.7-3.2,7.2-4.5
		c2.7-1.5,5.6-2.8,8.5-3.7c3.6-1.2,7.5-1.6,11.3-1.3c1,0.1,2,0.3,2.9,0.8c0.9,0.4,1.6,1.2,2,2.1c0.4,0.9,0.2,2-0.3,2.8
		c-0.5,0.8-1.2,1.4-2,1.8c-1.5,0.8-3,1.4-4.6,1.8c-0.8,0.2-1.5,0.4-2.2,0.5c-0.7,0.2-1.4,0.2-2.1,0.1c-0.3-0.1-0.6-0.3-0.8-0.7
		c-0.1-0.3-0.2-0.7,0-1c0.2-0.6,0.6-1,1.1-1.3c0.9-0.3,1.8-0.4,2.7-0.4c0.6,0,1.1-0.2,1.6-0.5C34.6,327.3,34.7,327.2,34.9,327.1z"/>
	<path class="st4" d="M46,283c-0.3,0.2-0.6,0.3-0.9,0.3c-0.9,0.2-1.8-0.1-2.5-0.8l-0.1-0.1l0.1-0.1c2.6-1.4,5.4-2.4,8.4-2.7
		c2-0.3,4-0.3,5.9,0c0.5,0.1,1,0.4,1.4,0.8c0.4,0.4,0.5,1.1,0.3,1.7c-0.6,1.1-1.9,1.4-2.9,1.8c-5.5,2-11.4,3-17.3,2.9
		c-2.4,0-4.9-0.3-7.2-0.8l0.5,0l1.4,0.2c7.6,0.9,15.3,0,22.5-2.6c1-0.4,2.2-0.7,2.7-1.6c0.2-0.4,0.1-1-0.2-1.3
		c-0.4-0.3-0.8-0.6-1.3-0.7c-1.9-0.3-3.9-0.3-5.8-0.1c-2.9,0.4-5.7,1.2-8.3,2.6v-0.1c0.6,0.6,1.5,0.9,2.4,0.8
		C45.4,283.1,45.7,283.1,46,283z"/>
	<path class="st4" d="M182.3,290.3c-0.3,0.1-0.6,0.2-0.9,0.2c-0.6,0.1-1.5,0.3-2.5,0.5c-2.8,0.6-5.5,1.5-8.1,2.7
		c-2.6,1.2-5.1,2.6-7.4,4.2c-0.9,0.6-1.6,1.2-2.1,1.5c-0.2,0.2-0.5,0.4-0.8,0.6c0.2-0.2,0.4-0.5,0.7-0.7c0.5-0.4,1.1-1,2-1.6
		c4.7-3.5,10-5.8,15.7-6.9c1.1-0.2,2-0.4,2.6-0.4C181.7,290.4,182,290.3,182.3,290.3z"/>
	<path class="st4" d="M178.5,258.6c-0.2,0.1-0.4,0.1-0.7,0.1c-0.4,0-1,0-1.8,0c-2-0.1-4-0.4-5.9-0.9c-1.9-0.5-3.8-1.3-5.5-2.3
		c-0.5-0.3-1-0.6-1.5-1c-0.2-0.1-0.4-0.3-0.5-0.4c0,0,0.8,0.5,2.1,1.2c1.7,0.9,3.6,1.7,5.5,2.2c1.9,0.5,3.8,0.9,5.8,1
		C177.6,258.6,178.5,258.6,178.5,258.6z"/>
	<path class="st2" d="M64.8,296.3l0.6,2.7L54,301.5l-3.1-14.7l11.1-2.3l0.6,2.7l-7.8,1.6l0.7,3.2l6.8-1.4l0.6,2.6l-6.8,1.4l0.7,3.4
		L64.8,296.3z"/>
	<path class="st2" d="M77.4,296.5l-3.7-3.5h-0.2l-3,0.6l0.9,4.1l-3.4,0.7l-3.1-14.7l6.4-1.3c3.9-0.8,6.8,0.7,7.5,4
		c0.5,2-0.3,4.1-2,5.3l4.3,4L77.4,296.5z M71.7,285.2l-2.8,0.6l1.1,5.1l2.8-0.6c2.1-0.4,2.9-1.6,2.6-3.2
		C75.1,285.6,73.8,284.8,71.7,285.2L71.7,285.2z"/>
	<path class="st2" d="M92.9,293.2l-3.7-3.5H89l-3,0.6l0.9,4.1l-3.4,0.7l-3.1-14.7l6.4-1.3c3.9-0.8,6.8,0.7,7.5,4
		c0.5,2-0.3,4.1-2,5.3l4.3,4L92.9,293.2z M87.2,282l-2.8,0.6l1.1,5.1l2.8-0.6c2.1-0.4,2.9-1.6,2.6-3.2
		C90.5,282.3,89.2,281.5,87.2,282z"/>
	<path class="st2" d="M96.5,284.8c-0.9-4.4,1.8-8.3,6.4-9.3s8.7,1.5,9.6,5.9c0.9,4.4-1.8,8.3-6.4,9.3
		C101.5,291.7,97.4,289.2,96.5,284.8z M109.1,282.1c-0.6-2.5-3.1-4.1-5.6-3.5c-2.5,0.6-4.1,3.1-3.5,5.6c0.6,2.5,3,4.1,5.5,3.5
		c2.5-0.5,4.1-2.9,3.7-5.3C109.2,282.4,109.1,282.2,109.1,282.1L109.1,282.1z"/>
	<path class="st2" d="M126,286.2l-3.7-3.5h-0.2l-3,0.6l0.9,4.1l-3.4,0.7l-3.1-14.7l6.4-1.3c3.9-0.8,6.8,0.7,7.5,4
		c0.5,2-0.3,4.1-2,5.3l4.3,4L126,286.2z M120.3,275l-2.8,0.6l1.1,5.1l2.8-0.6c2.1-0.4,2.9-1.6,2.6-3.2
		C123.7,275.3,122.4,274.5,120.3,275L120.3,275z"/>
	<path class="st2" d="M27.7,321.3l0.2-0.9c1.1,0.6,2.4,0.8,3.6,0.5c1.9-0.4,2.5-1.4,2.3-2.4c-0.6-2.8-6.5,0.2-7.2-3.5
		c-0.3-1.5,0.6-3,3.1-3.6c1.1-0.2,2.3-0.2,3.3,0.2l-0.2,0.9c-0.9-0.4-2-0.5-3-0.3c-1.8,0.4-2.5,1.4-2.3,2.4c0.6,2.8,6.5-0.2,7.2,3.5
		c0.3,1.5-0.6,3-3.2,3.6C30.4,322.1,28.9,322,27.7,321.3z"/>
	<path class="st2" d="M43.5,315.6l-6.4,1.3c0.4,1.5,2,2.4,3.6,2c0.9-0.2,1.7-0.7,2.1-1.5l0.7,0.5c-1.2,1.9-3.7,2.5-5.7,1.3
		c-0.9-0.6-1.6-1.5-1.8-2.5c-0.4-2,0.9-4,2.9-4.5c2-0.4,4,0.9,4.5,2.9l0,0C43.4,315.4,43.5,315.5,43.5,315.6z M37,316.2l5.4-1.1
		c-0.4-1.5-1.9-2.3-3.4-1.9C37.6,313.5,36.7,314.8,37,316.2z"/>
	<path class="st2" d="M48.5,310.2l0.2,1c-0.1,0-0.2,0-0.2,0c-1.6,0.3-2.3,1.6-2,3.4l0.8,3.9l-1,0.2l-1.6-7.6l1-0.2l0.3,1.5
		C46.3,311.1,47.3,310.3,48.5,310.2z"/>
	<path class="st2" d="M57.1,308.5l-1.8,8.3l-1,0.2l-5-6.9l1.1-0.2l4.2,5.9l1.5-7.1L57.1,308.5z"/>
	<path class="st2" d="M57.8,305.8c-0.1-0.4,0.2-0.8,0.6-0.9c0.4-0.1,0.8,0.1,0.9,0.5c0,0,0,0,0,0c0.1,0.4-0.2,0.8-0.6,0.9
		c0,0,0,0,0,0C58.3,306.4,57.9,306.2,57.8,305.8C57.8,305.8,57.8,305.8,57.8,305.8z M58.6,308.1l1-0.2l1.6,7.6l-1,0.2L58.6,308.1z"
		/>
	<path class="st2" d="M62.5,311.2c-0.5-2,0.8-4.1,2.8-4.6c0.1,0,0.2,0,0.3-0.1c1.2-0.3,2.4,0,3.3,0.9l-0.7,0.7
		c-0.7-0.6-1.6-0.9-2.5-0.7c-1.6,0.3-2.7,2-2.3,3.6s2,2.7,3.6,2.3c0.9-0.1,1.7-0.7,2-1.6l0.9,0.4c-0.4,1.1-1.5,1.9-2.7,2.1
		c-2,0.5-4.1-0.7-4.7-2.7C62.6,311.4,62.5,311.3,62.5,311.2z"/>
	<path class="st2" d="M78,308.3l-6.4,1.3c0.4,1.5,2,2.4,3.5,2c0,0,0,0,0,0c0.9-0.2,1.7-0.7,2.1-1.5l0.7,0.5
		c-1.2,1.9-3.7,2.5-5.6,1.4c-0.9-0.6-1.6-1.5-1.8-2.5c-0.5-2,0.6-4,2.6-4.6c0.1,0,0.2,0,0.3-0.1c2-0.5,4,0.8,4.4,2.8
		c0,0.1,0,0.2,0.1,0.3C77.9,308.1,78,308.2,78,308.3z M71.5,308.9l5.4-1.1c-0.4-1.5-2-2.3-3.5-1.8C72.1,306.3,71.3,307.6,71.5,308.9
		z"/>
	<path class="st2" d="M89.9,301.5l1.6,7.6l-1,0.2l-0.3-1.4c-0.4,1.1-1.3,1.8-2.4,2c-1.6,0.5-3.3-0.4-3.8-1.9
		c-0.1-0.2-0.1-0.4-0.1-0.6l-0.9-4.4l1-0.2l0.9,4.3c0.3,1.6,1.3,2.3,2.8,2c1.4-0.2,2.3-1.5,2.1-2.9c0-0.1-0.1-0.3-0.1-0.4l-0.8-4
		L89.9,301.5z"/>
	<path class="st2" d="M100.4,302.6l0.9,4.4l-1,0.2l-0.9-4.3c0-1.2-1.1-2.1-2.2-2.1c-0.2,0-0.4,0-0.5,0.1c-1.4,0.2-2.4,1.5-2.2,2.9
		c0,0.1,0.1,0.3,0.1,0.4l0.8,4l-1,0.2l-1.6-7.6l1-0.2l0.3,1.4c0.4-1.1,1.4-1.9,2.6-2.1c1.6-0.4,3.2,0.6,3.6,2.2
		C100.4,302.3,100.4,302.5,100.4,302.6z"/>
	<path class="st2" d="M108.9,300.5l1,4.7l-1,0.2l-0.2-1.2c-0.4,1-1.3,1.7-2.4,1.8c-1.7,0.4-3-0.3-3.2-1.6s0.3-2.3,2.5-2.8l2.4-0.5
		l-0.1-0.5c-0.1-1-1.1-1.8-2.1-1.7c-0.2,0-0.3,0.1-0.5,0.1c-0.9,0.2-1.8,0.7-2.3,1.4l-0.6-0.7c0.7-0.9,1.8-1.5,2.9-1.7
		C107.2,297.8,108.5,298.5,108.9,300.5z M108.4,303.2l-0.3-1.2l-2.4,0.5c-1.5,0.3-1.8,1-1.7,1.8c0.2,0.8,1,1.3,2.2,1
		C107.3,305,108.2,304.2,108.4,303.2L108.4,303.2z"/>
	<path class="st2" d="M117.3,295.7l-1.8,8.3l-1.1,0.2l-5-6.9l1.1-0.2l4.2,5.9l1.5-7.1L117.3,295.7z"/>
	<path class="st2" d="M124.9,297.1l1,4.7l-1,0.2l-0.2-1.2c-0.4,1-1.3,1.7-2.4,1.8c-1.7,0.4-3-0.3-3.2-1.6s0.3-2.3,2.5-2.8l2.4-0.5
		l-0.1-0.5c-0.1-1.1-1.1-1.8-2.1-1.7c-0.1,0-0.3,0.1-0.4,0.1c-0.9,0.2-1.8,0.7-2.3,1.4l-0.6-0.7c0.7-0.9,1.8-1.5,2.9-1.7
		C123.2,294.5,124.5,295.2,124.9,297.1z M124.4,299.8l-0.3-1.2l-2.4,0.5c-1.5,0.3-1.8,1-1.7,1.8c0.2,0.8,1,1.3,2.2,1
		C123.4,301.7,124.2,300.8,124.4,299.8L124.4,299.8z"/>
	<path class="st2" d="M126.3,291.3c-0.1-0.4,0.2-0.8,0.6-0.9c0.4-0.1,0.8,0.1,0.9,0.5c0,0,0,0,0,0c0.1,0.4-0.2,0.8-0.6,0.9
		c0,0,0,0,0,0C126.8,292,126.4,291.7,126.3,291.3C126.3,291.3,126.3,291.3,126.3,291.3z M127.1,293.7l1-0.2l1.6,7.6l-1,0.2
		L127.1,293.7z"/>
	<path class="st2" d="M130.3,289.7l1-0.2l2.3,10.7l-1,0.2L130.3,289.7z"/>
	<path class="st2" d="M141.2,293.7l1,4.7l-1,0.2l-0.2-1.2c-0.4,1-1.3,1.7-2.4,1.8c-1.7,0.4-3-0.3-3.2-1.6c-0.2-1.3,0.3-2.3,2.5-2.8
		l2.4-0.5l-0.1-0.5c-0.1-1-1.1-1.8-2.1-1.7c-0.2,0-0.3,0.1-0.5,0.1c-0.9,0.2-1.8,0.7-2.4,1.4l-0.6-0.7c0.7-0.9,1.8-1.5,2.9-1.7
		C139.5,291,140.8,291.7,141.2,293.7z M140.7,296.3l-0.3-1.2l-2.4,0.5c-1.5,0.3-1.8,1-1.7,1.8c0.2,0.8,1,1.3,2.2,1
		C139.7,298.2,140.5,297.4,140.7,296.3L140.7,296.3z"/>
	<path class="st2" d="M151.9,292.4c0.5,2-0.7,4.1-2.7,4.6c-0.1,0-0.2,0-0.3,0.1c-1.2,0.3-2.4-0.1-3.3-1l0.3,1.5l-1,0.2l-2.2-10.7
		l1-0.2l1,4.6c0.4-1.1,1.4-1.9,2.6-2.1c2-0.5,4,0.8,4.5,2.8C151.9,292.2,151.9,292.3,151.9,292.4z M150.9,292.6
		c-0.4-1.5-2-2.5-3.5-2.1c-1.5,0.4-2.5,2-2.1,3.5c0.4,1.5,1.9,2.4,3.4,2.1c1.5-0.3,2.5-1.8,2.2-3.3
		C150.9,292.8,150.9,292.7,150.9,292.6L150.9,292.6z"/>
	<path class="st2" d="M152.5,285l1-0.2l2.2,10.7l-1,0.2L152.5,285z"/>
	<path class="st2" d="M164.6,290l-6.4,1.3c0.4,1.5,2,2.4,3.5,2c0,0,0,0,0,0c0.9-0.2,1.7-0.7,2.1-1.5l0.7,0.5
		c-1.2,1.9-3.7,2.5-5.6,1.4c-0.9-0.6-1.6-1.5-1.8-2.5c-0.4-2,0.9-4,2.9-4.5c2-0.4,4,0.9,4.5,2.9C164.5,289.8,164.6,289.9,164.6,290z
		 M158.1,290.6l5.4-1.1c-0.4-1.5-1.9-2.3-3.4-1.9C158.7,287.9,157.9,289.2,158.1,290.6z"/>
</g>
</svg>
