<?xml version="1.0" encoding="utf-8"?>
<!-- Generator: Adobe Illustrator 24.1.3, SVG Export Plug-In . SVG Version: 6.00 Build 0)  -->
<svg version="1.1" id="Layer_1" xmlns="http://www.w3.org/2000/svg" xmlns:xlink="http://www.w3.org/1999/xlink" x="0px" y="0px"
	 viewBox="0 0 663.4 423.1" style="enable-background:new 0 0 663.4 423.1;" xml:space="preserve">
<style type="text/css">
	.st0{fill:#F5F5F5;}
	.st1{fill:#EBEBEB;}
	.st2{fill:#E0E0E0;}
	.st3{fill:#0061F2;}
	.st4{fill:#FFFFFF;}
	.st5{fill:#263238;}
	.st6{fill:#455A64;}
	.st7{fill:#FAFAFA;}
	.st8{fill:#A36957;}
	.st9{fill:#7C3B29;}
	.st10{opacity:0.3;}
	.st11{opacity:0.4;}
</style>
<g id="background-complete--inject-35">
	<path class="st0" d="M306.8,66.9c2.6-1.6,5.4-2.8,8.2-3.6l1.7-8.2l13.8-0.2l2,8.1c2.9,0.7,5.7,1.8,8.4,3.3l7-4.6l9.9,9.6l-4.3,7.1
		c1.6,2.6,2.8,5.4,3.6,8.3l8.2,1.7l0.2,13.8l-8.1,2c-0.7,2.9-1.8,5.7-3.3,8.4l4.6,7l-9.6,9.9l-7.1-4.3c-2.6,1.6-5.4,2.8-8.3,3.6
		L332,137l-13.8,0.2l-2-8.1c-2.9-0.7-5.7-1.8-8.4-3.3l-7,4.6l-9.9-9.6l4.3-7.1c-1.6-2.6-2.8-5.4-3.6-8.3l-8.2-1.7l-0.3-13.9l8.1-2
		c0.7-2.9,1.8-5.7,3.3-8.4l-4.6-7l9.6-9.9L306.8,66.9L306.8,66.9z M314.2,85.3c-5.7,5.9-5.5,15.3,0.4,20.9
		c5.9,5.7,15.3,5.5,20.9-0.4c5.7-5.9,5.5-15.3-0.4-20.9c0,0,0,0,0,0C329.2,79.3,319.9,79.4,314.2,85.3z"/>
	<path class="st0" d="M314.2,85.3c0.8-1,1.7-1.8,2.8-2.4c2.9-1.9,6.3-2.7,9.7-2.3c2.3,0.2,4.6,1,6.6,2.3c2.3,1.5,4.1,3.6,5.3,6
		c1.3,2.7,1.8,5.7,1.4,8.7c-0.9,6.6-5.9,11.9-12.5,12.9c-1.5,0.3-3.1,0.3-4.6,0.1c-1.5-0.2-2.9-0.6-4.2-1.2
		c-2.5-1.1-4.6-2.9-6.2-5.1c-1.4-1.9-2.2-4.2-2.6-6.5c-0.5-3.4,0.2-6.8,1.9-9.7C312.5,87.1,313.3,86.1,314.2,85.3c0.1,0.1-0.9,1-2,3
		c-1.6,2.9-2.2,6.2-1.7,9.5c0.8,4.9,4,9,8.5,11c2.6,1.1,5.5,1.5,8.3,1c6.2-1.1,11-6,11.8-12.2c0.4-2.8-0.1-5.7-1.3-8.3
		c-2.1-4.4-6.4-7.5-11.2-8.1c-3.3-0.4-6.6,0.3-9.4,2C315.1,84.4,314.2,85.4,314.2,85.3z"/>
	<path class="st0" d="M306.8,66.9c-0.2-0.1-0.3-0.1-0.5-0.2l-1.4-0.8l-5.4-3.2h0.2l-9.5,10v-0.3l4.6,7l0.1,0.1l-0.1,0.1
		c-1.4,2.6-2.5,5.4-3.2,8.3v0.2h-0.2l-8.1,2l0.2-0.3c0.1,4.3,0.2,9,0.3,13.8l-0.3-0.3l8.2,1.7h0.2l0.1,0.2c0.8,2.9,2,5.6,3.6,8.2
		l0.1,0.2l-0.1,0.2c-1.3,2.2-2.8,4.6-4.3,7.1l-0.1-0.5l10,9.6l-0.5-0.1c2.2-1.4,4.6-3,7-4.6l0.2-0.1l0.2,0.1
		c2.6,1.4,5.4,2.5,8.3,3.2l0.2,0.1l0.1,0.2c0.6,2.5,1.3,5.3,2,8.1l-0.4-0.3l13.8-0.2l-0.4,0.3c0.5-2.6,1.1-5.4,1.7-8.2l0-0.2
		l0.2-0.1c2.9-0.8,5.6-2,8.1-3.5l0,0l0.2-0.1l0.2,0.1l7.1,4.3l-0.5,0.1l9.6-9.9v0.5c-1.5-2.4-3.1-4.7-4.6-7l-0.1-0.2l0.1-0.2
		c1.5-2.6,2.5-5.4,3.3-8.3l0.1-0.2h0.2l8.1-2l-0.3,0.4c-0.1-4.7-0.2-9.3-0.2-13.8l0.3,0.4l-8.2-1.7l-0.2-0.1l-0.1-0.2
		c-0.8-2.9-2-5.6-3.5-8.2l-0.1-0.2l0.1-0.2l4.3-7.1l0,0.4l-9.9-9.6h0.4l-7,4.6l-0.1,0.1l-0.2-0.1c-2.6-1.5-5.4-2.6-8.3-3.3h-0.2
		v-0.2c-0.7-3-1.4-5.6-2-8.1l0.2,0.2l-13.8,0.2l0.2-0.2c-0.7,3.3-1.3,5.9-1.8,8.2v0.1h-0.1c-2.2,0.6-4.3,1.4-6.3,2.4l-1.5,0.8
		C307.2,66.7,307,66.8,306.8,66.9c0.2-0.2,0.4-0.3,0.5-0.4c0.3-0.2,0.8-0.5,1.5-0.8c2-1.1,4.1-1.9,6.3-2.6l-0.1,0.1l1.6-8.2v-0.2
		h0.1l13.8-0.3h0.2l0,0.2l2,8.1l-0.2-0.2c3,0.7,5.8,1.8,8.5,3.3h-0.3l7-4.6l0.2-0.1l0.2,0.2c3.1,3,6.5,6.2,10,9.6l0.2,0.2l-0.1,0.2
		l-4.3,7.1v-0.4c1.6,2.6,2.8,5.4,3.6,8.3l-0.3-0.3l8.2,1.7l0.3,0.1v0.3c0.1,4.5,0.2,9.1,0.2,13.8v0.3l-0.3,0.1l-8.1,2l0.3-0.3
		c-0.8,3-1.9,5.9-3.4,8.6v-0.4l4.6,7l0.2,0.3l-0.2,0.2l-9.6,9.9l-0.2,0.2l-0.3-0.2l-7.1-4.3h0.4c-2.6,1.6-5.4,2.8-8.4,3.6l0.3-0.3
		c-0.6,2.8-1.2,5.6-1.7,8.2l-0.1,0.3H332l-13.8,0.2h-0.3l-0.1-0.3l-2-8.1l0.3,0.3c-3-0.7-5.8-1.9-8.5-3.4h0.4l-7,4.6l-0.3,0.2
		l-0.2-0.2l-9.9-9.6l-0.2-0.2l0.1-0.2l4.3-7.1v0.4c-1.6-2.6-2.8-5.4-3.6-8.4l0.3,0.2l-8.2-1.7l-0.3-0.1v-0.3
		c-0.1-4.9-0.1-9.5-0.2-13.8v-0.2l0.2-0.1l8.1-2l-0.2,0.2c0.7-2.9,1.9-5.8,3.3-8.4v0.2c-1.6-2.5-3.2-4.9-4.5-7l-0.1-0.2l0.1-0.1
		l9.6-9.9l0.1-0.1l0.1,0.1l5.3,3.3l1.4,0.9C306.5,66.7,306.6,66.8,306.8,66.9z"/>
	<path class="st1" d="M56.9,330.1c4.9-2.5,10.7-2.9,16.2-2c2.9,0.5,6,1.4,8,3.6s2.4,6.1,0.1,8c-1.5,1-3.3,1.5-5.1,1.3
		c-4.3,0-9-0.8-12.5,1.8c-2,1.5-3.2,3.9-5.6,4.6c-2.4,0.6-4.9-0.5-6.1-2.7c-1.1-2.2-1.4-4.7-0.7-7C51.9,334.4,54,331.6,56.9,330.1z"
		/>
	<path class="st1" d="M45.6,308.3c3,4.3,8.9,2.9,11.6,0.2s3.9-6.4,4.9-10.1c2.4-8.3,4.8-17,3-25.5c-0.4-2.6-1.6-5-3.3-6.9
		c-1.8-2-4.4-2.9-7-2.3c-3,0.8-4.8,3.7-6.1,6.4c-3.9,8.1-6,17-6,26C42.7,300.4,43.2,304.8,45.6,308.3"/>
	<path class="st1" d="M37.3,314.4c3.3-3.9,3.9-9.5,2.4-14.4s-4.8-9-8.5-12.4c-4.5-4-9.7-7-15.3-9c-2.2-0.9-4.5-1.3-6.9-1.2
		c-2.4,0.1-4.5,1.4-5.8,3.5c-1.6,3.1-0.1,6.8,1.6,9.8c2.9,5.3,6.3,10.5,10,15.3c3,3.9,6.5,7.7,11,9.5s9.4,1.5,11.8-1.6"/>
	<path class="st2" d="M45.4,373.2c0.2-0.6,0.3-1.3,0.3-2c0.1-1.4,0.3-3.2,0.5-5.3c0.3-2.6,0.7-5.2,1.2-7.8c0.7-3.1,1.6-6.2,2.8-9.2
		c1.2-3,2.8-5.8,4.7-8.4c1.6-2.1,3.7-3.8,6-5c1.6-0.8,3.3-1.3,5-1.6c0.7,0,1.3-0.1,1.9-0.3c-0.7-0.1-1.3-0.1-2,0
		c-1.8,0.1-3.6,0.6-5.2,1.4c-2.5,1.2-4.6,2.9-6.3,5c-2,2.6-3.7,5.5-4.9,8.5c-1.2,3-2.2,6.2-2.8,9.4c-0.5,2.6-0.8,5.3-1,7.9
		c-0.2,2.3-0.2,4.1-0.3,5.4C45.3,371.9,45.3,372.5,45.4,373.2z"/>
	<path class="st2" d="M45.7,369.1c0-0.3,0-0.6,0-0.9v-2.6c0-2.2,0-5.5,0.1-9.5c0.2-8,0.9-16.7,2.2-28.9c1.3-11.5,3-24.9,4.8-33.5
		c0.4-2,0.8-3.8,1.1-5.3s0.6-2.9,0.9-4l0.6-2.5c0.1-0.3,0.1-0.6,0.2-0.9c-0.1,0.3-0.3,0.6-0.3,0.9c-0.2,0.6-0.4,1.5-0.8,2.5
		s-0.7,2.4-1.1,4s-0.8,3.3-1.3,5.3c-2.2,10.3-3.9,20.7-5,31.1c-1.3,12.2-1.9,23.4-2,31.5c0,4,0,7.3,0.1,9.6c0.1,1,0.1,1.9,0.2,2.6
		C45.6,368.5,45.7,368.8,45.7,369.1z"/>
	<path class="st2" d="M45.8,347.6c0.1-0.9,0.1-1.8,0-2.7c-0.1-1.8-0.3-4.3-0.8-7.4c-0.6-3.6-1.4-7.2-2.4-10.7
		c-1.2-4.3-2.7-8.6-4.5-12.7c-3.1-7.6-7.6-14.5-13.1-20.5c-1-1-2-2-3.1-2.9c-0.5-0.4-0.9-0.8-1.3-1.1l-1.2-0.8
		c-0.7-0.5-1.5-1-2.3-1.5c-0.1,0.2,3.2,2.2,7.5,6.7c5.4,6,9.7,12.9,12.8,20.4c1.8,4.1,3.3,8.3,4.5,12.5c1.2,3.9,1.9,7.5,2.5,10.6
		s0.9,5.5,1.1,7.3C45.5,345.8,45.6,346.7,45.8,347.6z"/>
	<polygon class="st2" points="25,385.5 27.2,415 65.1,415 67.2,385.5 	"/>
	<rect x="21.4" y="373.9" class="st2" width="50.4" height="11.6"/>
	<polygon class="st1" points="21.4,413.9 21.4,417.1 23.7,417.1 70.9,417.1 70.9,413.9 	"/>
	<polygon class="st2" points="26,422.8 23.7,417.1 69.1,417.1 66.4,422.8 	"/>
	<path class="st0" d="M66.5,395.2c0,0.1-0.1,0.2-0.2,0.3l-0.6,0.8l-2.2,2.8l-0.1,0.1l-0.1-0.1l-5.4-7.5h0.3l-5.3,7.6l-0.2,0.2
		l-0.2-0.2l-6.3-7.5h0.4l-0.3,0.4l-5.7,7.1l-0.2,0.2l-0.2-0.2l-5.3-7.6h0.3l-6.6,7.5l-0.1,0.1l-0.1-0.1l-2.1-3.5
		c-0.2-0.4-0.4-0.7-0.5-0.9c-0.1-0.1-0.1-0.2-0.2-0.3c0.1,0.1,0.2,0.2,0.2,0.3l0.6,0.9c0.5,0.8,1.2,2,2.2,3.4h-0.2l6.5-7.6l0.2-0.2
		l0.2,0.2l5.4,7.6h-0.4l5.7-7.1l0.3-0.4l0.2-0.2l0.2,0.2l6.3,7.5h-0.3l5.4-7.5l0.2-0.2l0.2,0.2l5.3,7.6h-0.2l2.3-2.8l0.6-0.7
		C66.4,395.3,66.5,395.2,66.5,395.2z"/>
	<path class="st0" d="M67.8,385.3c0,0.1-9.5,0.2-21.2,0.2s-21.2-0.1-21.2-0.2s9.5-0.2,21.2-0.2S67.8,385.2,67.8,385.3z"/>
	<path class="st0" d="M69.7,417.4c0,0.1-10.3,0.2-23.1,0.2s-23.1-0.1-23.1-0.2s10.3-0.2,23.1-0.2S69.7,417.3,69.7,417.4z"/>
	<path class="st2" d="M545.9,389.4L545.9,389.4l-2.3-9.5c-3.4-0.8-6.7-2.1-9.8-3.9l-8.2,5.4l0,0l-11.7-11.2l0,0l5-8.4
		c-1.8-3-3.2-6.3-4.2-9.6l-9.6-2l0,0l-0.3-16.2l0,0l9.5-2.3c0.8-3.4,2.1-6.7,3.8-9.8l-5.4-8.2l0,0l11.3-11.8l0,0l8.3,5.1
		c3-1.8,6.3-3.2,9.7-4.2l2-9.6l0,0l16.2-0.3l0,0l2.3,9.5c3.4,0.8,6.7,2.1,9.8,3.9l8.2-5.4l0,0l11.7,11.2l0,0l-5.1,8.3
		c1.8,3,3.2,6.3,4.2,9.7l9.6,2l0,0l0.3,16.2l0,0l-9.5,2.3c-0.8,3.4-2.1,6.7-3.8,9.8l5.4,8.2l0,0l-11.2,11.8l0,0l-8.3-5.1
		c-3,1.8-6.3,3.2-9.7,4.2l-2,9.6l0,0L545.9,389.4z M533.8,375.9L533.8,375.9c3.1,1.7,6.4,3,9.8,3.9l0,0l0,0l2.3,9.5L562,389l2-9.6
		l0,0c3.4-1,6.6-2.4,9.7-4.2l0,0l8.3,5.1l11.2-11.6l-5.3-8.2l0,0c1.7-3.1,3-6.4,3.8-9.8l0,0l9.5-2.3l-0.3-16.1l-9.6-2l0,0
		c-1-3.4-2.4-6.7-4.2-9.7l0,0l0,0l5.1-8.3L580.6,301l-8.2,5.4l0,0c-3.1-1.7-6.4-3-9.8-3.9l0,0l0,0l-2.3-9.5l-16.1,0.3l-2,9.6l0,0
		c-3.4,1-6.6,2.4-9.7,4.2l0,0l-8.4-5.1L513,313.6l5.3,8.2l0,0c-1.7,3.1-3,6.4-3.8,9.8l0,0l-9.5,2.3l0.3,16.1l9.6,2l0,0
		c1,3.4,2.4,6.6,4.2,9.7l0,0l0,0L514,370l11.6,11.2L533.8,375.9z M553.7,358c-9.6,0.1-17.4-7.6-17.5-17.2
		c-0.1-9.6,7.6-17.4,17.2-17.5h0.3c9.6-0.1,17.4,7.6,17.5,17.2c0.1,9.6-7.6,17.4-17.2,17.5l0,0H553.7z M553.7,323.3h-0.3
		c-9.6,0.1-17.3,7.9-17.2,17.5c0.1,9.6,7.9,17.3,17.5,17.2h0.3c9.6-0.1,17.3-7.9,17.2-17.5C571.1,330.9,563.2,323.2,553.7,323.3z"/>
	<path class="st1" d="M541.2,328.5c0.9-1.1,2-2.1,3.2-2.8c3.3-2.2,7.4-3.1,11.3-2.7c2.7,0.3,5.4,1.2,7.7,2.7c2.7,1.7,4.8,4.2,6.2,7
		c1.6,3.2,2.1,6.7,1.7,10.2c-1,7.7-7,13.9-14.7,15.2c-1.8,0.3-3.6,0.4-5.3,0.1c-1.7-0.2-3.4-0.7-4.9-1.4c-2.9-1.3-5.4-3.4-7.2-6
		c-4-5.6-4.2-13.1-0.7-19C539.2,330.6,540.1,329.5,541.2,328.5c0.1,0.1-1,1.1-2.4,3.5c-1.9,3.4-2.5,7.3-1.9,11.1
		c0.4,2.6,1.4,5.1,3,7.2c1.8,2.4,4.2,4.4,6.9,5.6c1.5,0.7,3.1,1.1,4.7,1.3c1.7,0.2,3.4,0.2,5.1-0.1c7.2-1.2,12.9-7,13.8-14.3
		c0.2-1.7,0.2-3.4-0.1-5.1c-0.2-1.6-0.7-3.2-1.5-4.6c-2.5-5.2-7.5-8.7-13.2-9.5c-3.8-0.5-7.7,0.3-11,2.3
		C542.3,327.5,541.3,328.6,541.2,328.5z"/>
	<path class="st1" d="M532.6,307c-0.2-0.1-0.4-0.2-0.5-0.3l-1.6-0.9l-6.3-3.7h0.2l-11.1,11.7v-0.3l5.4,8.2l0.1,0.1l-0.1,0.2
		c-1.7,3.1-3,6.3-3.8,9.8l0,0.2h-0.2l-9.5,2.4l0.3-0.4c0.1,5.1,0.2,10.5,0.3,16.2l-0.3-0.4l9.6,2l0.2,0l0.1,0.2
		c1,3.4,2.4,6.6,4.2,9.6l0.1,0.2l-0.1,0.2l-5,8.4l-0.1-0.5l11.7,11.2l-0.6-0.1l8.2-5.4l0.2-0.2l0.2,0.1c3.1,1.7,6.3,3,9.7,3.8
		l0.3,0.1l0.1,0.3c0.7,3,1.5,6.2,2.3,9.5l-0.5-0.4l16.2-0.3l-0.5,0.4c0.6-3,1.3-6.3,2-9.6l0.1-0.3l0.3-0.1c3.3-1,6.6-2.4,9.5-4.1
		l0,0l0.3-0.1l0.3,0.1c2.8,1.7,5.6,3.4,8.4,5.1l-0.6,0.1l11.2-11.6l-0.1,0.6l-5.3-8.2l-0.2-0.2l0.1-0.3c1.7-3,3-6.3,3.8-9.7l0.1-0.3
		l0.3-0.1l9.5-2.3l-0.4,0.5c-0.1-5.5-0.2-10.9-0.3-16.2l0.4,0.4l-9.6-2h-0.3l-0.1-0.3c-0.9-3.4-2.3-6.6-4.1-9.6l-0.1-0.2l0.1-0.2
		l5.1-8.4l0.1,0.5l-11.6-11.3h0.5l-8.2,5.3l-0.2,0.1l-0.2-0.1c-3.1-1.7-6.3-3-9.7-3.9l-0.2,0v-0.2l-2.3-9.5l0.3,0.2l-16.2,0.2
		l0.2-0.2l-2,9.6v0.1h-0.1c-2.6,0.7-5,1.7-7.4,2.8l-1.7,0.9c-0.2,0.1-0.4,0.2-0.6,0.3c0.2-0.1,0.4-0.3,0.5-0.4
		c0.4-0.2,0.9-0.6,1.7-1c2.4-1.3,4.8-2.3,7.4-3l-0.1,0.1c0.5-2.6,1.2-5.8,1.9-9.6v-0.2h0.2l16.2-0.4h0.2l0.1,0.2l2.4,9.5l-0.2-0.2
		c3.5,0.8,6.8,2.1,9.9,3.9h-0.4l8.2-5.4l0.3-0.2l0.2,0.2l11.6,11.3l0.2,0.2l-0.2,0.3l-5.1,8.4v-0.5c1.9,3.1,3.3,6.3,4.3,9.8
		l-0.3-0.3l9.6,2l0.3,0.1v0.4c0.1,5.3,0.2,10.7,0.3,16.2v0.4l-0.4,0.1l-9.5,2.3l0.4-0.4c-0.9,3.5-2.2,6.8-3.9,9.9v-0.5
		c1.8,2.7,3.6,5.4,5.4,8.2l0.2,0.3l-0.3,0.3l-11.2,11.6l-0.3,0.3l-0.3-0.2l-8.4-5.1h0.5c-3.1,1.8-6.4,3.3-9.8,4.2l0.3-0.4
		c-0.7,3.3-1.4,6.5-2,9.6l-0.1,0.4h-0.4l-16.2,0.3h-0.4l-0.1-0.4c-0.8-3.3-1.6-6.5-2.3-9.5l0.3,0.4c-3.5-0.9-6.8-2.2-9.9-3.9h0.5
		l-8.2,5.4l-0.3,0.2l-0.3-0.3l-11.6-11.2l-0.3-0.2l0.2-0.3l5.1-8.4v0.5c-1.8-3.1-3.3-6.4-4.2-9.8l0.3,0.3l-9.6-2l-0.3-0.1v-0.3
		c-0.1-5.7-0.2-11.1-0.2-16.2v-0.3l0.3-0.1l9.5-2.3l-0.2,0.2c0.9-3.5,2.2-6.8,3.9-9.9v0.3c-1.9-3-3.7-5.7-5.3-8.2l-0.1-0.2l0.1-0.1
		l11.3-11.5l0.1-0.1l0.1,0.1l6.2,3.8l1.6,1C532.2,306.8,532.4,306.9,532.6,307z"/>
	<path class="st2" d="M610.3,272.8c1.6-1,3.3-1.7,5.1-2.2l1-5l8.5-0.1l1.2,5c1.8,0.4,3.5,1.1,5.2,2l4.3-2.8l6.1,5.9l-2.7,4.4
		c1,1.6,1.7,3.3,2.2,5.1l5,1l0.2,8.5l-5,1.2c-0.4,1.8-1.1,3.5-2,5.2l2.8,4.3l-5.9,6.1l-4.4-2.7c-1.6,1-3.3,1.7-5.1,2.2l-1,5
		l-8.5,0.1l-1.2-5c-1.8-0.4-3.5-1.1-5.2-2l-4.3,2.8l-6.1-5.9l2.7-4.4c-1-1.6-1.7-3.3-2.2-5.1l-5-1l-0.2-8.5l5-1.2
		c0.4-1.8,1.1-3.5,2-5.2l-2.8-4.3l5.9-6.1L610.3,272.8L610.3,272.8z M614.9,284.1c-3.5,3.6-3.4,9.4,0.2,12.9s9.4,3.4,12.9-0.2
		c3.5-3.6,3.4-9.4-0.2-12.9C624.2,280.4,618.4,280.5,614.9,284.1L614.9,284.1z"/>
	<path class="st2" d="M614.9,284.1c0.5-0.6,1.1-1.1,1.7-1.5c1.8-1.2,3.9-1.6,6-1.4c3.2,0.3,5.9,2.3,7.3,5.1c0.4,0.8,0.7,1.7,0.8,2.6
		c0.2,0.9,0.2,1.9,0,2.8c-0.5,4.1-3.7,7.3-7.7,8c-0.9,0.2-1.9,0.2-2.8,0c-0.9-0.1-1.8-0.4-2.6-0.7c-1.5-0.7-2.8-1.8-3.8-3.1
		c-2.1-3-2.2-6.9-0.4-10C613.9,285.2,614.3,284.6,614.9,284.1c-0.4,0.6-0.8,1.2-1.2,1.8c-1,1.8-1.3,3.8-1,5.9
		c0.2,1.4,0.8,2.7,1.6,3.8c0.9,1.3,2.2,2.3,3.7,3c1.6,0.7,3.4,0.9,5.1,0.6c3.8-0.6,6.8-3.7,7.3-7.6c0.1-0.9,0.1-1.8,0-2.7
		c-0.1-0.8-0.4-1.7-0.8-2.4c-0.7-1.4-1.8-2.7-3.1-3.5c-1.2-0.8-2.5-1.3-3.9-1.4c-2-0.3-4.1,0.2-5.8,1.2
		C616.1,283.2,615.5,283.7,614.9,284.1z"/>
	<path class="st2" d="M610.3,272.8c-0.1,0-0.2-0.1-0.3-0.1l-0.8-0.5l-3.3-2h0.1l-5.9,6.2v-0.2l2.8,4.3l0,0.1v0.1
		c-0.9,1.6-1.6,3.3-2,5.1v0.1h-0.1l-5,1.2l0.2-0.2c0,2.7,0.1,5.5,0.2,8.5l-0.2-0.2l5,1h0.1v0.1c0.5,1.8,1.2,3.5,2.2,5l0.1,0.1
		l-0.1,0.1l-2.7,4.4v-0.3l6.2,5.9h-0.3l4.3-2.8l0.1-0.1l0.1,0.1c1.6,0.9,3.3,1.6,5.1,2h0.2v0.1c0.4,1.6,0.8,3.3,1.2,5l-0.2-0.2
		l8.5-0.1l-0.2,0.2c0.3-1.6,0.7-3.3,1-5v-0.1l0.2,0c1.8-0.5,3.4-1.2,5-2.2l0,0l0.1-0.1l0.1,0.1l4.4,2.7h-0.3l5.9-6.1v0.3
		c-1-1.5-1.9-2.9-2.8-4.3l-0.1-0.1l0.1-0.1c0.9-1.6,1.6-3.3,2-5.1v-0.1h0.2l5-1.2l-0.2,0.2c0-2.9-0.1-5.8-0.1-8.5l0.2,0.2l-5-1.1
		h-0.1V285c-0.5-1.8-1.2-3.5-2.2-5l-0.1-0.1l0.1-0.1l2.7-4.4v0.3l-6.1-5.9h0.2l-4.3,2.8l-0.1,0.1h-0.1c-1.6-0.9-3.3-1.6-5.1-2H626
		v-0.1c-0.4-1.8-0.8-3.5-1.2-5l0.2,0.1l-8.5,0.1l0.1-0.1c-0.4,2-0.8,3.7-1.1,5l0,0h0c-1.3,0.4-2.7,0.9-3.9,1.5l-0.9,0.5L610.3,272.8
		l0.2-0.3c0.2-0.1,0.5-0.3,0.9-0.5c1.2-0.7,2.5-1.2,3.9-1.6l-0.1,0.1l1-5v-0.1h0.1l8.5-0.2h0.2v0.1c0.4,1.5,0.8,3.2,1.2,5l-0.1-0.1
		c1.8,0.4,3.6,1.1,5.2,2h-0.2l4.3-2.8l0.1-0.1l0.1,0.1l6.2,5.9l0.1,0.1l-0.1,0.1l-2.7,4.4v-0.2c1,1.6,1.7,3.3,2.2,5.2l-0.2-0.2l5,1
		h0.2v0.2c0,2.8,0.1,5.6,0.2,8.5v0.2h-0.2l-5,1.2l0.2-0.2c-0.4,1.8-1.1,3.6-2.1,5.2v-0.1c0.9,1.4,1.9,2.9,2.8,4.3l0.1,0.2l-0.1,0.1
		l-5.9,6.1l-0.2,0.1l-0.2-0.1l-4.4-2.7h0.2c-1.6,1-3.3,1.7-5.2,2.2l0.2-0.2c-0.4,1.7-0.7,3.5-1,5v0.2H626l-8.5,0.1h-0.3v-0.2l-1.2-5
		l0.2,0.2c-1.8-0.5-3.6-1.1-5.2-2.1h0.3l-4.3,2.8l-0.2,0.1l-0.1-0.1l-6.1-5.9l-0.1-0.1l0.1-0.2l2.7-4.4v0.2c-1-1.6-1.7-3.3-2.2-5.2
		l0.2,0.1l-5-1.1h-0.2v-0.2c0-3-0.1-5.8-0.1-8.5v-0.1h0.2l5-1.2l-0.1,0.1c0.5-1.8,1.2-3.6,2.1-5.2v0.1l-2.8-4.3l-0.1-0.1l0.1-0.1
		c2.4-2.5,4.4-4.5,6-6.1l0,0h0.1l3.2,2l0.8,0.5L610.3,272.8z"/>
	<path class="st2" d="M385.9,27.4c1.6-1,3.3-1.7,5.1-2.2l1-5l8.5-0.2l1.2,5c1.8,0.4,3.5,1.1,5.2,2l4.3-2.8l6.1,5.9l-2.7,4.4
		c1,1.6,1.7,3.3,2.2,5.1l5,1l0.1,8.5l-5,1.2c-0.4,1.8-1.1,3.5-2,5.2l2.8,4.3l-5.9,6.1l-4.4-2.7c-1.6,1-3.3,1.7-5.1,2.2l-1,5
		l-8.5,0.2l-1.2-5c-1.8-0.4-3.5-1.1-5.2-2l-4.3,2.8l-6.1-5.9l2.7-4.4c-1-1.6-1.7-3.3-2.2-5.1l-5-1l-0.1-8.5l5-1.2
		c0.4-1.8,1.1-3.5,2-5.2l-2.8-4.3l5.9-6.1L385.9,27.4L385.9,27.4z M390.4,38.7c-3.5,3.6-3.4,9.4,0.2,12.9c3.6,3.5,9.4,3.4,12.9-0.2
		c3.5-3.6,3.4-9.4-0.2-12.9c0,0,0,0,0,0C399.7,35,394,35.1,390.4,38.7z"/>
	<path class="st2" d="M390.4,38.7c0.5-0.6,1.1-1.1,1.7-1.5c1.8-1.1,3.9-1.6,6-1.4c1.4,0.2,2.8,0.6,4,1.4c1.4,0.9,2.5,2.2,3.3,3.7
		c0.8,1.7,1.1,3.5,0.9,5.4c-0.5,4.1-3.7,7.3-7.7,8c-1.8,0.3-3.7,0.1-5.4-0.7c-1.5-0.7-2.8-1.8-3.8-3.2c-2.1-3-2.2-6.9-0.4-10
		C389.4,39.8,389.8,39.2,390.4,38.7c-0.5,0.6-0.9,1.2-1.3,1.9c-1,1.8-1.3,3.8-1,5.9c0.5,3,2.4,5.5,5.2,6.8c0.8,0.4,1.6,0.6,2.5,0.7
		c0.9,0.1,1.8,0.1,2.7-0.1c3.8-0.6,6.8-3.7,7.3-7.6c0.2-1.7,0-3.5-0.8-5.1c-0.7-1.4-1.8-2.7-3.1-3.6c-1.2-0.8-2.5-1.3-3.9-1.4
		c-2-0.3-4.1,0.2-5.8,1.2C391,38.2,390.5,38.8,390.4,38.7z"/>
	<path class="st2" d="M385.9,27.4c-0.1,0-0.2-0.1-0.3-0.2l-0.8-0.5l-3.3-2h0.1l-5.9,6.2v-0.2l2.8,4.3v0.1v0.1
		c-0.9,1.6-1.6,3.3-2,5.1v0.1h-0.1l-5,1.2l0.1-0.2c0,2.7,0.1,5.5,0.2,8.5l-0.2-0.2l5,1h0.1v0.1c0.5,1.8,1.2,3.4,2.2,5l0.1,0.1
		l-0.1,0.1l-2.7,4.4v-0.3l6.1,5.9h-0.3c1.4-0.9,2.8-1.8,4.3-2.8l0.1-0.1l0.1,0.1c1.6,0.9,3.3,1.6,5.1,2h0.1v0.2
		c0.4,1.6,0.8,3.3,1.2,5l-0.2-0.2l8.5-0.2l-0.2,0.2c0.3-1.6,0.7-3.3,1-5v-0.2h0.1c1.8-0.5,3.4-1.2,5-2.2l0,0l0.1-0.1l0.1,0.1
		l4.6,2.8h-0.3l5.9-6.1V60l-2.8-4.3l-0.1-0.1l0.1-0.1c0.9-1.6,1.6-3.3,2-5.1v-0.2h0.1l5-1.2l-0.2,0.2c0-2.9-0.1-5.8-0.1-8.5l0.2,0.2
		l-5-1h-0.1v-0.1c-0.5-1.8-1.2-3.4-2.2-5l-0.1-0.1l0.1-0.1l2.7-4.4v0.3l-6.1-6.1h0.2l-4.3,2.8l-0.1,0.1l-0.1-0.1
		c-1.6-0.9-3.3-1.6-5.1-2h-0.1V25c-0.4-1.8-0.8-3.5-1.2-5l0.1,0.1l-8.5,0.1l0.1-0.1c-0.4,2-0.8,3.7-1.1,5l0,0l0,0
		c-1.3,0.4-2.6,0.9-3.9,1.5l-0.9,0.5c-0.1,0.1-0.2,0.1-0.3,0.2c0.1-0.1,0.2-0.1,0.3-0.2c0.2-0.1,0.5-0.3,0.9-0.5
		c1.2-0.7,2.5-1.2,3.9-1.6l-0.1,0.1c0.3-1.4,0.6-3,1-5.1v-0.1h0.1l8.5-0.2h0.1v0.1c0.4,1.5,0.8,3.2,1.2,5l-0.1-0.1
		c1.8,0.4,3.6,1.1,5.2,2h-0.2l4.3-2.8l0.1-0.1l0.1,0.1l6.1,5.9l0.1,0.1l-0.1,0.2l-2.7,4.4v-0.2c1,1.6,1.7,3.4,2.2,5.2l-0.2-0.2l5,1
		h0.2v0.2c0,2.8,0.1,5.6,0.2,8.5v0.2h-0.2l-5,1.2l0.2-0.2c-0.4,1.8-1.1,3.6-2.1,5.2v-0.3l2.9,4.4l0.1,0.2l-0.1,0.2l-5.9,6.1
		l-0.1,0.2l-0.2-0.1l-4.4-2.7h0.3c-1.6,1-3.3,1.7-5.2,2.2l0.2-0.2c-0.4,1.7-0.7,3.5-1.1,5v0.2h-0.2L393,71h-0.2l0-0.2l-1.2-5
		l0.2,0.2c-1.8-0.5-3.6-1.2-5.2-2.1h0.3l-4.3,2.8l-0.2,0.1l-0.1-0.1c-2.1-2.1-4.2-4.1-6.1-5.9l-0.1-0.1l0.1-0.2l2.7-4.4v0.2
		c-1-1.6-1.7-3.3-2.2-5.2l0.2,0.2l-5-1.1h-0.2v-0.2c0-3-0.1-5.8-0.1-8.5v-0.2h0.1l5-1.2l-0.1,0.1c0.5-1.8,1.2-3.6,2.1-5.2v0.2
		l-2.8-4.3l-0.1-0.1l0.1-0.1l6-6.1h0h0.1l3.2,2l0.8,0.5C385.7,27.3,385.8,27.3,385.9,27.4z"/>
	<path class="st2" d="M456.8,367c1.1-0.7,2.3-1.2,3.6-1.5l0.7-3.5l5.9-0.1l0.9,3.5c1.3,0.3,2.5,0.8,3.6,1.4l3-2l4.3,4.1l-1.9,3.1
		c0.7,1.1,1.2,2.3,1.5,3.5l3.5,0.7l0.1,5.9l-3.5,0.9c-0.3,1.3-0.8,2.5-1.4,3.6l2,3l-4.1,4.3L472,392c-1.1,0.7-2.3,1.2-3.5,1.5
		l-0.7,3.5l-5.9,0.1l-0.9-3.5c-1.3-0.3-2.5-0.8-3.6-1.4l-3,2l-4.3-4.1l1.9-3.1c-0.7-1.1-1.2-2.3-1.5-3.6l-3.5-0.7l-0.1-5.9l3.5-0.9
		c0.3-1.3,0.8-2.5,1.4-3.6l-2-3l4.1-4.3L456.8,367L456.8,367z M460,374.9c-2.5,2.5-2.4,6.6,0.1,9c2.5,2.5,6.6,2.4,9-0.1
		c2.5-2.5,2.4-6.6-0.1-9c0,0,0,0,0,0C466.4,372.3,462.4,372.3,460,374.9L460,374.9z"/>
	<path class="st2" d="M460,374.9c0.3-0.4,0.7-0.7,1.2-1c1.2-0.8,2.7-1.2,4.2-1c1,0.1,2,0.4,2.8,1c1,0.6,1.8,1.5,2.3,2.6
		c0.6,1.2,0.8,2.5,0.6,3.8c-0.4,2.8-2.6,5.1-5.4,5.6c-0.7,0.1-1.3,0.1-2,0c-0.6-0.1-1.2-0.2-1.8-0.5c-1.1-0.5-2-1.2-2.6-2.2
		c-0.6-0.8-1-1.8-1.1-2.8c-0.2-1.5,0.1-2.9,0.8-4.2C459.2,375.6,459.5,375.2,460,374.9c-0.3,0.4-0.6,0.8-0.9,1.3
		c-1.2,2.1-1,4.8,0.4,6.7c0.6,0.9,1.5,1.6,2.5,2.1c1.1,0.5,2.4,0.6,3.6,0.4c2.7-0.5,4.7-2.6,5.1-5.3c0.1-0.6,0.1-1.2,0-1.9
		c-0.1-0.6-0.3-1.2-0.5-1.7c-0.5-1-1.2-1.9-2.1-2.5c-0.8-0.5-1.7-0.9-2.7-1c-1.4-0.2-2.8,0.1-4.1,0.8
		C460.4,374.5,460,374.9,460,374.9z"/>
	<path class="st2" d="M456.8,367l-0.2-0.1l-0.6-0.3l-2.3-1.4h0.1l-4.1,4.3v-0.1l2,3l0,0v0.1c-0.6,1.1-1.1,2.3-1.4,3.6v0.1h-0.1
		l-3.5,0.9l0.1-0.1c0,1.9,0.1,3.9,0.1,5.9l-0.1-0.1l3.5,0.7h0.1v0.1c0.4,1.2,0.9,2.4,1.5,3.5l0,0.1l0,0.1l-1.9,3.1V390l4.3,4.1h-0.2
		l3-2l0.1-0.1l0.1,0c1.1,0.6,2.3,1.1,3.6,1.4h0.1v0.1c0.3,1.1,0.6,2.3,0.9,3.5l-0.2-0.1l5.9-0.1l-0.2,0.1l0.7-3.5v-0.1h0.1
		c1.2-0.3,2.4-0.9,3.5-1.5l0,0l0.1-0.1l0.1,0.1l3.1,1.9h-0.2c1.4-1.5,2.8-2.9,4.1-4.3v0.2l-2-3l-0.1-0.1l0.1-0.1
		c0.6-1.1,1.1-2.3,1.4-3.6v-0.1h0.1l3.5-0.9l-0.1,0.2c0-2-0.1-4-0.1-5.9l0.1,0.2l-3.5-0.7h-0.1v-0.1c-0.3-1.2-0.9-2.4-1.5-3.5l0-0.1
		l0-0.1l1.9-3.1v0.2l-4.2-4.1h0.2l-3,2h-0.1h-0.1c-1.1-0.6-2.3-1.1-3.6-1.4h-0.1v-0.1c-0.3-1.3-0.6-2.4-0.8-3.5l0.1,0.1l-6,0.1
		l0.1-0.1c-0.3,1.4-0.5,2.5-0.8,3.5l0,0l0,0c-0.9,0.2-1.8,0.6-2.7,1l-0.6,0.3L456.8,367c0.1-0.1,0.2-0.1,0.3-0.2
		c0.1-0.1,0.3-0.2,0.6-0.4c0.9-0.5,1.8-0.8,2.7-1.1l0,0c0.2-1,0.4-2.1,0.7-3.5v0h0.1l5.9-0.1h0.1v0.1c0.3,1.1,0.5,2.2,0.9,3.5
		l-0.1-0.1c1.3,0.3,2.5,0.8,3.6,1.4h-0.1l3-2l0.1-0.1l0.1,0.1l4.3,4.1l0.1,0.1L479,369l-1.9,3.1v-0.2c0.7,1.1,1.2,2.3,1.6,3.6
		l-0.1-0.1l3.5,0.7h0.1v0.1c0,1.9,0,3.9,0.1,6v0.1h-0.1l-3.5,0.9l0.1-0.1c-0.3,1.3-0.8,2.5-1.4,3.6v-0.2l2,3l0.1,0.1l-0.1,0.1
		c-1.3,1.4-2.7,2.8-4.1,4.3l-0.1,0.1L475,394l-3.1-1.9h0.2c-1.1,0.7-2.3,1.2-3.6,1.6l0.1-0.1c-0.3,1.2-0.5,2.4-0.7,3.5v0.1h-0.1
		l-6,0.1h-0.1v-0.1c-0.3-1.2-0.6-2.4-0.9-3.5l0.1,0.1c-1.3-0.3-2.6-0.7-3.8-1.4h0.2l-3,2l-0.1,0.1l-0.1-0.1l-4.3-4.1l-0.1-0.1
		l0.1-0.1l1.9-3.1v0.2c-0.7-1.1-1.2-2.3-1.5-3.6l0.1,0.1l-3.5-0.7h-0.1v-0.1c0-2.1-0.1-4.1-0.1-5.9v-0.1h0.1l3.5-0.8L450,376
		c0.3-1.3,0.8-2.5,1.4-3.6v0.1c-0.7-1.1-1.4-2.1-2-3v-0.1l0.1,0l4.1-4.3l0,0l0,0l2.3,1.4l0.6,0.4L456.8,367z"/>
	<path class="st0" d="M572.2,235.1c0.9-0.6,1.9-1,3-1.3l0.6-3l5.1-0.1l0.7,3c1.1,0.3,2.1,0.7,3.1,1.2l2.6-1.7l3.7,3.5l-1.6,2.6
		c0.6,1,1,2,1.3,3l3,0.6l0.1,5.1l-3,0.7c-0.3,1.1-0.7,2.1-1.2,3.1l1.7,2.6l-3.5,3.7l-2.6-1.6c-0.9,0.6-1.9,1-3,1.3l-0.6,3l-5.1,0.1
		l-0.7-3c-1.1-0.3-2.1-0.7-3.1-1.2l-2.6,1.7l-3.7-3.5l1.6-2.6c-0.6-0.9-1-1.9-1.3-3l-3-0.6l-0.1-5.1l3-0.7c0.3-1.1,0.7-2.1,1.2-3.1
		l-1.7-2.6l3.5-3.7L572.2,235.1L572.2,235.1z M574.9,241.9c-2.1,2.2-2,5.6,0.1,7.7c2.2,2.1,5.6,2,7.7-0.1c2.1-2.2,2-5.6-0.1-7.7
		c0,0,0,0,0,0C580.5,239.7,577,239.7,574.9,241.9L574.9,241.9z"/>
	<path class="st0" d="M574.9,241.9c0.3-0.4,0.6-0.7,1-0.9c1.1-0.7,2.3-1,3.6-0.9c1.9,0.2,3.6,1.4,4.4,3.1c0.5,1,0.7,2.1,0.5,3.2
		c-0.2,1.2-0.7,2.3-1.5,3.2c-0.8,0.9-1.9,1.4-3.1,1.6c-0.6,0.1-1.1,0.1-1.7,0c-0.5-0.1-1.1-0.2-1.5-0.5c-2.8-1.2-4-4.5-2.8-7.3
		c0.1-0.2,0.2-0.4,0.3-0.6C574.2,242.5,574.5,242.2,574.9,241.9c0,0-0.3,0.3-0.8,1.1c-0.6,1.1-0.8,2.3-0.6,3.5
		c0.1,0.8,0.5,1.6,0.9,2.3c0.6,0.8,1.3,1.4,2.2,1.8c0.5,0.2,1,0.4,1.5,0.4c0.5,0.1,1.1,0.1,1.6,0c2.3-0.4,4.1-2.2,4.4-4.5
		c0.1-0.5,0.1-1.1,0-1.6c-0.1-0.5-0.2-1-0.5-1.5c-0.4-0.9-1-1.6-1.8-2.1c-0.7-0.5-1.5-0.8-2.3-0.9c-1.2-0.2-2.4,0.1-3.5,0.7
		C575.2,241.6,574.9,241.9,574.9,241.9z"/>
	<path class="st0" d="M572.2,235.1L572,235l-0.5-0.3l-2-1.2h0.1l-3.5,3.7v-0.1l1.7,2.6l0,0v0c-0.5,1-0.9,2-1.2,3.1v0.1h-0.1l-3,0.7
		l0.1-0.1c0,1.6,0.1,3.3,0.1,5.1l-0.1-0.1l3,0.6h0.1v0.1c0.3,1.1,0.7,2.1,1.3,3v0.1v0.1c-0.5,0.8-1,1.7-1.6,2.6v-0.2l3.7,3.5h-0.2
		l2.6-1.7l0.1,0l0.1,0c1,0.5,2,0.9,3.1,1.2h0.1v0.1c0.2,0.9,0.5,2,0.7,3l-0.2-0.1l5.1-0.1l-0.2,0.1c0.2-1,0.4-2,0.6-3v-0.1h0.1
		c1.1-0.3,2.1-0.7,3-1.3l0,0l0.1,0l0.1,0l2.6,1.6h-0.2l3.5-3.7v0.2l-1.7-2.6v-0.1v-0.1c0.5-1,0.9-2,1.2-3.1v-0.1h0.1l3-0.7l-0.1,0.1
		c0-1.7,0-3.4-0.1-5.1l0.1,0.1l-3-0.6h-0.1v-0.1c-0.3-1.1-0.7-2.1-1.3-3v-0.1v-0.1l1.6-2.6v0.2l-3.7-3.6h0.2l-2.6,1.7h-0.1h-0.1
		c-1-0.5-2-1-3.1-1.2h-0.1v-0.1c-0.3-1.1-0.5-2.1-0.7-3l0.1,0.1l-5.1,0.1l0.1,0c-0.3,1.2-0.5,2.2-0.7,3l0,0l0,0
		c-0.8,0.2-1.6,0.5-2.3,0.9l-0.5,0.3L572.2,235.1l0.2-0.2c0.1-0.1,0.3-0.2,0.5-0.3c0.7-0.4,1.5-0.7,2.3-1l0,0c0.2-0.8,0.4-1.8,0.6-3
		v-0.1h0.1l5.1-0.1h0.1v0.1c0.2,0.9,0.5,1.9,0.8,3l-0.1-0.1c1.1,0.3,2.1,0.7,3.1,1.2h-0.1l2.6-1.7l0.1-0.1l0.1,0.1l3.7,3.5l0.1,0.1
		v0.1l-1.6,2.6v-0.1c0.6,1,1,2,1.3,3.1l-0.1-0.1l3,0.6h0.1v0.1c0,1.7,0.1,3.4,0.1,5.1v0.1h-0.1l-3,0.7l0.1-0.1
		c-0.3,1.1-0.7,2.2-1.2,3.1v-0.2l1.7,2.6l0.1,0.1l-0.1,0.1l-3.5,3.7l-0.1,0.1l-0.1-0.1l-2.6-1.6h0.2c-1,0.6-2,1-3.1,1.3l0.1-0.1
		c-0.2,1-0.4,2.1-0.6,3v0.1h-0.1l-5.1,0.1h-0.1V261l-0.7-3l0.1,0.1c-1.1-0.3-2.1-0.7-3.1-1.2h0.2l-2.6,1.7l-0.1,0.1l-0.1-0.1
		l-3.8-3.4l-0.1-0.1l0.1-0.1c0.5-0.9,1.1-1.8,1.6-2.6v0.1c-0.6-1-1-2-1.3-3.1l0.1,0.1l-3-0.6h-0.1v-0.1c0-1.8,0-3.5-0.1-5.1v-0.1
		h0.1l3-0.7l-0.1,0.1c0.3-1.1,0.7-2.1,1.2-3.1v0.1l-1.7-2.6v-0.1l0,0l3.6-3.6l0,0l0,0l2,1.2c0.2,0.1,0.4,0.2,0.5,0.3L572.2,235.1z"
		/>
</g>
<g id="Plant--inject-35">
	<path class="st3" d="M596.9,390.7c-9.1-5.3-14-17.6-14.4-27.7s3.8-20.6,12.1-26.4c8.7-6.1,21.1-6,30-0.2s14.2,16.5,13.8,27.1
		s-6.2,20.8-14.7,27"/>
	<path class="st4" d="M611.5,391.7c-0.1-0.8-0.2-1.5-0.2-2.3c0-1.6-0.1-3.8-0.2-6.3c-0.1-5.3-0.3-12.6-0.7-20.7s-0.8-15.4-1.1-20.7
		c-0.2-2.5-0.3-4.6-0.4-6.3c-0.1-0.8-0.1-1.5,0-2.3c0.2,0.8,0.3,1.5,0.4,2.3c0.2,1.5,0.4,3.6,0.7,6.2c0.5,5.3,1,12.6,1.4,20.7
		s0.5,15.4,0.5,20.8c0,2.7,0,4.8-0.1,6.3C611.7,390.2,611.6,391,611.5,391.7z"/>
	<path class="st5" d="M585.2,360.8c0,0.2-1.5,0.3-3.2,0.2s-3.2-0.5-3.2-0.7s1.5-0.3,3.2-0.2S585.3,360.6,585.2,360.8z"/>
	<path class="st5" d="M585.7,351.8c-0.1,0.2-1.3-0.1-2.8-0.8s-2.5-1.3-2.5-1.6s1.3,0.1,2.8,0.8S585.8,351.5,585.7,351.8z"/>
	<path class="st5" d="M590.4,345c-0.1,0.2-1.5-0.5-3-1.7s-2.4-2.5-2.2-2.6s1.3,0.8,2.8,2S590.5,344.9,590.4,345z"/>
	<path class="st5" d="M595.1,338.7c-0.2,0.1-0.9-1-1.5-2.4s-0.9-2.6-0.7-2.7s0.9,1,1.5,2.4S595.3,338.6,595.1,338.7z"/>
	<path class="st5" d="M602.4,334.2c-0.2,0.1-0.9-1-1.4-2.6s-0.5-2.9-0.3-2.9s0.7,1.2,1.1,2.7S602.6,334.1,602.4,334.2z"/>
	<path class="st5" d="M614.7,329.2c0.2,0.1,0.1,1-0.3,2.1s-0.9,1.9-1.1,1.9s-0.1-1,0.3-2.1S614.4,329.1,614.7,329.2z"/>
	<path class="st5" d="M623.7,333.1c0.2,0.2-0.4,1-1.3,1.8s-1.7,1.3-1.9,1.2s0.4-1,1.3-1.8S623.6,332.9,623.7,333.1z"/>
	<path class="st5" d="M631.7,338.2c0.1,0.2-0.6,0.9-1.6,1.6s-1.9,1.1-2.1,0.9s0.6-0.9,1.6-1.6S631.6,338,631.7,338.2z"/>
	<path class="st5" d="M637.4,345.9c0.1,0.2-1,0.9-2.5,1.5s-2.7,1-2.8,0.7s1-0.9,2.5-1.5S637.3,345.7,637.4,345.9z"/>
	<path class="st5" d="M639.6,354.3c0,0.2-1.1,0.6-2.5,0.8s-2.6,0.1-2.7-0.1s1.1-0.6,2.5-0.7S639.6,354.1,639.6,354.3z"/>
	<path class="st5" d="M640.8,364.7c-0.1,0.2-1.3-0.1-2.7-0.7s-2.5-1.3-2.4-1.5s1.3,0.1,2.7,0.7S640.9,364.4,640.8,364.7z"/>
	<path class="st5" d="M639.8,373.5c-0.1,0.2-1.6-0.1-3.2-1.2s-2.6-2.3-2.4-2.5s1.3,0.8,2.9,1.8S639.9,373.3,639.8,373.5z"/>
	<path class="st5" d="M635.2,381.6c-0.1,0.2-1.4-0.5-2.5-1.8s-1.8-2.5-1.6-2.7s1.1,0.9,2.2,2.1S635.3,381.4,635.2,381.6z"/>
	<path class="st5" d="M591.3,382.5c0.1,0.2-1.2,1.1-2.9,2s-3.2,1.4-3.3,1.2s1.2-1.1,2.9-2S591.2,382.3,591.3,382.5z"/>
	<path class="st5" d="M587.3,375.2c0.1,0.2-0.9,0.9-2.3,1.5s-2.6,1-2.7,0.7s0.9-0.9,2.3-1.5S587.2,375,587.3,375.2z"/>
	<path class="st5" d="M584.4,368.8c0,0.2-1.2,0.6-2.8,0.8s-2.9,0.2-3,0s1.2-0.6,2.8-0.8S584.3,368.5,584.4,368.8z"/>
	<path class="st5" d="M594,365.2c0.1,0.2-1.2,0.8-2.8,1s-3-0.1-3-0.3s1.3-0.4,2.9-0.5S594,365,594,365.2z"/>
	<path class="st5" d="M602,357.2c0.1,0.2-0.9,0.7-2.2,0.9s-2.4-0.2-2.4-0.4s1-0.3,2.3-0.5S602,357,602,357.2z"/>
	<path class="st5" d="M603.6,350.9c-0.1,0.2-1.1,0.1-2.4-0.4s-2.2-1-2.1-1.2s1.1-0.1,2.4,0.4S603.7,350.6,603.6,350.9z"/>
	<path class="st5" d="M606.5,344.4c-0.2,0.2-0.9-0.3-1.4-1.2s-0.6-1.8-0.3-1.8s0.6,0.6,1.1,1.4S606.7,344.2,606.5,344.4z"/>
	<path class="st5" d="M603,370.9c0,0.2-0.9,0.6-2.1,0.9c-0.6,0.2-1.1,0.2-1.7,0.2l-0.2-0.5c0.3,0,0.5,0,0.5,0s-0.1,0.2-0.3,0.4
		l-0.2-0.5c0.5-0.3,1.1-0.4,1.7-0.6C601.9,370.7,602.9,370.6,603,370.9z"/>
	<path class="st5" d="M604.6,382.2c0.1,0.2-1.1,0.9-2.6,1.5s-2.8,0.9-2.9,0.7s1.1-0.9,2.6-1.5S604.5,382,604.6,382.2z"/>
	<path class="st5" d="M595.6,377.1c0.1,0.2-0.7,0.7-1.8,1s-2,0.5-2,0.2s0.7-0.7,1.8-1S595.5,376.9,595.6,377.1z"/>
	<path class="st5" d="M596.3,354.1c0,0.2-1.4,0.1-3-0.5s-2.7-1.3-2.6-1.5s1.4,0.2,2.9,0.7S596.3,353.9,596.3,354.1z"/>
	<path class="st5" d="M618.2,351.6c0.1,0.2-0.6,0.9-1.7,1.6s-2.1,1.1-2.2,0.9s0.6-0.9,1.7-1.6S618.1,351.4,618.2,351.6z"/>
	<path class="st5" d="M619.4,362.9c0,0.2-0.8,0.6-1.8,0.8s-1.9,0.2-2,0s0.8-0.6,1.8-0.8S619.3,362.7,619.4,362.9z"/>
	<path class="st5" d="M620.8,375.7c-0.1,0.2-1.3-0.1-2.6-0.7s-2.3-1.3-2.2-1.5s1.3,0.1,2.6,0.7S620.9,375.5,620.8,375.7z"/>
	<path class="st5" d="M617.8,388.2c-0.2,0.1-0.9-0.5-1.7-1.4s-1.2-1.8-1-1.9s0.9,0.5,1.7,1.4S618,388.1,617.8,388.2z"/>
	<path class="st5" d="M617.2,343.2c0.1,0.2-0.3,0.8-1.2,1.2s-1.7,0.5-1.7,0.2s0.6-0.6,1.3-1S617.1,343,617.2,343.2z"/>
	<path class="st5" d="M628,354.7c0.1,0.2-0.9,0.8-2.3,1s-2.5-0.1-2.5-0.3s1.1-0.4,2.3-0.6S627.9,354.4,628,354.7z"/>
	<path class="st5" d="M625.8,344.3c0.1,0.2-0.9,0.9-2.3,1.4s-2.6,0.5-2.7,0.2s1.1-0.6,2.4-1S625.7,344.1,625.8,344.3z"/>
	<path class="st5" d="M630.3,370.6c0,0.2-1.7,0.4-3.7,0s-3.6-1.1-3.5-1.3s1.7,0.1,3.6,0.5S630.3,370.4,630.3,370.6z"/>
	<path class="st5" d="M626.3,385.6c-0.1,0.2-1.4-0.5-2.6-1.8s-2-2.5-1.8-2.6s1.2,0.8,2.4,2S626.5,385.4,626.3,385.6z"/>
	<path class="st4" d="M608.8,332.2c0.1,0.2-3.4,1.6-7.5,5.9c-5.2,5.7-8.5,12.9-9.3,20.6c-0.4,4.2-0.2,8.5,0.6,12.6
		c0.6,3.4,1.4,6.8,2.4,10.1c0.8,2.9,1.6,5.1,2.1,6.7c0.3,0.8,0.5,1.6,0.7,2.5c-0.4-0.8-0.7-1.6-1-2.4c-0.6-1.6-1.5-3.8-2.3-6.7
		c-1.1-3.3-1.9-6.7-2.6-10.2c-0.8-4.2-1-8.6-0.6-12.9c1.1-9.2,5.5-16.8,9.8-21c1.7-1.7,3.5-3.2,5.6-4.4c0.6-0.3,1.1-0.6,1.7-0.9
		C608.4,332.3,608.6,332.2,608.8,332.2z"/>
	<path class="st4" d="M620.4,391.3c-0.2-0.1,1.9-3.3,3.8-9.2c2.6-7.6,3.4-15.7,2.3-23.6c-0.6-4.4-1.8-8.6-3.6-12.6
		c-1.5-3.2-3.6-6.2-6.2-8.6c-1.8-1.6-3.9-2.9-6.1-3.9c-1.6-0.7-2.5-0.8-2.5-0.9c0.2,0,0.5,0,0.7,0c0.7,0.1,1.3,0.3,1.9,0.5
		c2.3,0.9,4.5,2.1,6.4,3.7c2.7,2.5,4.9,5.5,6.5,8.8c1.9,4.1,3.2,8.4,3.8,12.8c1.1,8.1,0.2,16.3-2.6,23.9c-0.5,1.5-1.1,2.7-1.6,3.9
		s-1,2.1-1.4,2.8C621.4,389.8,621,390.6,620.4,391.3z"/>
	<polygon class="st5" points="587.3,389.3 634.5,389.3 634.7,398.7 587.3,398.7 	"/>
	<polygon class="st5" points="591.3,394 594,422.8 628.5,422.8 631.3,394.3 	"/>
	<path class="st6" d="M634.7,398.9c0,0.2-10.6,0.4-23.7,0.4s-23.7-0.2-23.7-0.4s10.6-0.4,23.7-0.4S634.7,398.6,634.7,398.9z"/>
	<path class="st6" d="M630,407.6c-0.3,0.6-0.6,1.2-1,1.8c-1.1,1.6-2.3,3-3.7,4.3l-0.2,0.2l-0.2-0.2c-2.8-3-5.9-5.7-9.2-8.1h0.5
		l-4.1,3.6l-4.9,4.2l-0.3,0.2l-0.3-0.2l-7.9-6.6h0.5l-4.1,5c-0.5,0.6-1,1.2-1.6,1.8c0.4-0.7,0.8-1.4,1.3-2l3.8-5.1l0.2-0.3l0.3,0.2
		l8,6.5h-0.5l4.8-4.2l4.1-3.6l0.2-0.2l0.3,0.2c3.3,2.5,6.4,5.3,9.2,8.4h-0.4C626.7,411.5,628.4,409.6,630,407.6z"/>
</g>
<g id="error-504--inject-35">
	<path class="st1" d="M542.8,335.1l-320.8-0.3c-1.7,0-3.1-1.4-3.1-3.1c0,0,0,0,0,0V112.6c0-1.7,1.4-3.1,3.1-3.1l0,0h317.6
		c1.7,0,3.1,1.4,3.1,3.1c0,0,0,0,0,0V335.1z"/>
	<polygon class="st7" points="542.8,335.1 218.7,335.1 219.3,126.3 542.8,126.3 	"/>
	<path class="st3" d="M336.4,241.9c0,13.1-9.5,24-29.6,24c-10.6,0-21.3-3.2-28.1-8.7l5.9-10.8c5.5,4.5,13.6,7.4,22,7.4
		c10,0,15.8-4.4,15.8-11.4s-4.6-11.6-20.1-11.6h-18.1l3.9-40.7H332v11.6h-32.1l-1.6,17.4h7.2C327.5,219,336.4,228.6,336.4,241.9z"/>
	<path class="st3" d="M344.4,227.5c0-24.6,13.5-38.5,31.2-38.5s31.3,13.9,31.3,38.5s-13.5,38.5-31.3,38.5S344.4,252,344.4,227.5z
		 M392.9,227.5c0-18.1-7.1-26.4-17.3-26.4s-17.2,8.3-17.2,26.4s7.1,26.4,17.2,26.4S392.9,245.5,392.9,227.5z"/>
	<path class="st3" d="M483.1,247.9h-13.3v17h-13.5v-17h-41.1v-9.6l36.9-48.2H467l-34.8,46.1h24.5V221h13v15.1h13.3V247.9z"/>
	<path class="st5" d="M278.7,289h2.5v7.1c-2,1.6-4.4,2.4-6.9,2.3c-5.6,0-9.7-3.9-9.7-9.3s4.1-9.3,9.8-9.3c2.6-0.1,5.2,0.9,7,2.8
		l-1.6,1.6c-1.4-1.4-3.3-2.2-5.3-2.1c-3.9,0-7,3.1-7,7s3.1,7,7,7c1.5,0,3-0.4,4.3-1.2L278.7,289z"/>
	<path class="st5" d="M296.7,289.9v8.3h-2.4v-1.8c-0.8,1.2-2.4,2-4.5,2c-3.1,0-5.1-1.7-5.1-4.1c0-2.2,1.4-4,5.5-4h4v-0.5
		c0-2.1-1.2-3.3-3.7-3.3c-1.6,0-3.1,0.5-4.4,1.4l-1-1.9c1.7-1.2,3.7-1.8,5.7-1.8C294.6,284.3,296.7,286.1,296.7,289.9z M294.2,294
		v-1.9h-3.9c-2.5,0-3.2,1-3.2,2.1c0,1.4,1.1,2.2,3,2.2C292,296.6,293.6,295.6,294.2,294L294.2,294z"/>
	<path class="st5" d="M309.1,297.4c-0.9,0.7-1.9,1-3,1c-2.8,0-4.4-1.5-4.4-4.3v-7.6h-2.3v-2.1h2.3v-3h2.5v3h3.9v2.1h-4v7.5
		c-0.2,1.1,0.6,2.1,1.7,2.3c0.2,0,0.3,0,0.5,0c0.7,0,1.4-0.2,2-0.6L309.1,297.4z"/>
	<path class="st5" d="M324.1,292.2h-11.2c0.3,2.4,2.3,4,5,4c1.5,0.1,3-0.5,4-1.7l1.4,1.6c-1.4,1.5-3.4,2.3-5.4,2.2
		c-4.5,0-7.4-2.9-7.4-7c-0.1-3.7,2.8-6.9,6.5-7c0.1,0,0.3,0,0.4,0c4,0,6.8,2.9,6.8,7.1C324.1,291.7,324.1,291.9,324.1,292.2z
		 M312.9,290.4h8.8c-0.3-2.4-2.5-4.2-4.9-3.9C314.7,286.7,313.1,288.3,312.9,290.4z"/>
	<path class="st5" d="M348.2,284.4l-5.1,13.8h-2.4l-4-10.5l-4,10.5h-2.4l-5.1-13.8h2.4l4,11l4.2-11h2.1l4.1,11l4.1-11H348.2z"/>
	<path class="st5" d="M361.2,289.9v8.3h-2.4v-1.8c-0.8,1.2-2.4,2-4.5,2c-3.1,0-5.1-1.7-5.1-4.1c0-2.2,1.4-4,5.5-4h4v-0.5
		c0-2.1-1.2-3.3-3.7-3.3c-1.6,0-3.1,0.5-4.4,1.5l-1-1.9c1.7-1.2,3.7-1.8,5.7-1.8C359,284.3,361.2,286.1,361.2,289.9z M358.7,294
		v-1.9h-3.9c-2.5,0-3.2,1-3.2,2.1c0,1.4,1.1,2.2,3,2.2C356.4,296.6,358,295.6,358.7,294L358.7,294z"/>
	<path class="st5" d="M377.7,284.4l-6.7,15.2c-1.2,2.9-2.8,3.8-4.9,3.8c-1.3,0-2.6-0.4-3.5-1.3l1.1-1.9c0.7,0.6,1.6,1,2.5,1
		c1.2,0,2-0.5,2.6-2.1l0.5-1l-6-13.7h2.6l4.8,11l4.8-11H377.7z"/>
	<path class="st5" d="M394.8,297.4c-0.9,0.7-1.9,1-3,1c-2.8,0-4.4-1.5-4.4-4.3v-7.6h-2.3v-2.1h2.3v-3h2.5v3h4v2.1h-4v7.5
		c-0.2,1.1,0.6,2.1,1.7,2.3c0.2,0,0.3,0,0.5,0c0.7,0,1.4-0.2,2-0.6L394.8,297.4z"/>
	<path class="st5" d="M397.4,280.2c0-0.9,0.7-1.6,1.7-1.6c0,0,0,0,0,0c0.9,0,1.6,0.6,1.7,1.5c0,0,0,0,0,0.1c0,0.9-0.7,1.7-1.7,1.7
		S397.4,281.1,397.4,280.2L397.4,280.2L397.4,280.2z M397.8,284.4h2.5v13.8h-2.5V284.4z"/>
	<path class="st5" d="M428,290.3v7.9h-2.5v-7.6c0-2.7-1.3-4-3.6-4c-2.5,0-4.1,1.6-4.1,4.6v7.1h-2.5v-7.6c0-2.7-1.3-4-3.6-4
		c-2.5,0-4.1,1.6-4.1,4.6v7.1h-2.5v-13.9h2.4v2.1c1.1-1.5,2.9-2.3,4.8-2.2c2-0.1,3.8,0.9,4.8,2.5c1.2-1.7,3.2-2.6,5.3-2.5
		C425.7,284.3,428,286.2,428,290.3z"/>
	<path class="st5" d="M445.1,292.2h-11.2c0.4,2.4,2.5,4.2,5,4c1.5,0.1,3-0.5,4-1.7l1.4,1.6c-1.4,1.5-3.4,2.3-5.4,2.2
		c-4.5,0-7.4-2.9-7.4-7c-0.1-3.7,2.8-6.9,6.5-7c0.1,0,0.3,0,0.4,0c4,0,6.8,2.9,6.8,7.1C445.1,291.7,445.1,291.9,445.1,292.2z
		 M433.9,290.4h8.9c-0.3-2.4-2.5-4.2-4.9-4C435.8,286.6,434.1,288.3,433.9,290.4z"/>
	<path class="st5" d="M447.3,291.3c-0.1-4,3-7.2,7-7.3c4-0.1,7.2,3,7.3,7c0.1,4-3,7.2-7,7.3c-0.1,0-0.1,0-0.2,0
		c-3.8,0.2-7-2.7-7.2-6.5C447.3,291.6,447.3,291.5,447.3,291.3z M459.1,291.3c-0.1-2.6-2.3-4.6-4.9-4.4c-2.6,0.1-4.6,2.3-4.4,4.9
		c0.1,2.5,2.2,4.4,4.7,4.4c2.5,0.1,4.6-1.9,4.7-4.4C459.2,291.6,459.2,291.5,459.1,291.3L459.1,291.3z"/>
	<path class="st5" d="M478,284.4v13.8h-2.4v-2.1c-1.1,1.5-2.8,2.3-4.7,2.2c-3.6,0-5.9-2-5.9-6v-7.9h2.5v7.6c0,2.7,1.4,4.1,3.7,4.1
		c2.6,0,4.3-1.6,4.3-4.6v-7.1L478,284.4z"/>
	<path class="st5" d="M490.5,297.4c-0.9,0.7-1.9,1-3,1c-2.8,0-4.4-1.5-4.4-4.3v-7.6h-2.3v-2.1h2.3v-3h2.5v3h4v2.1h-4v7.5
		c-0.2,1.1,0.6,2.1,1.7,2.3c0.2,0,0.3,0,0.5,0c0.7,0,1.4-0.2,2-0.6L490.5,297.4z"/>
	<path class="st3" d="M354.2,169v3.3h-12v-15h11.8v3.3h-7.6v2.5h6.7v3.2h-6.7v2.7L354.2,169z"/>
	<path class="st3" d="M363.2,168.3h-2.3v4h-4.3v-15h6.9c4.1,0,6.7,2.1,6.7,5.6c0.1,2-1.1,3.9-2.9,4.7l3.2,4.7h-4.5L363.2,168.3z
		 M363.2,160.6h-2.4v4.4h2.4c1.8,0,2.6-0.8,2.6-2.2S364.9,160.6,363.2,160.6L363.2,160.6z"/>
	<path class="st3" d="M379,168.3h-2.3v4h-4.2v-15h6.9c4.1,0,6.7,2.1,6.7,5.6c0.1,2-1.1,3.9-2.9,4.7l3.2,4.7h-4.5L379,168.3z
		 M379,160.6h-2.4v4.4h2.4c1.8,0,2.6-0.8,2.6-2.2S380.8,160.6,379,160.6L379,160.6z"/>
	<path class="st3" d="M387.5,164.9c0-4.5,3.5-7.8,8.3-7.8s8.3,3.3,8.3,7.8s-3.5,7.8-8.3,7.8S387.5,169.3,387.5,164.9z M399.9,164.9
		c-0.1-2.2-2-4-4.3-3.8c-2.2,0.1-4,2-3.8,4.3c0.1,2.2,1.9,3.8,4.1,3.8c2.2,0,4-1.7,4.1-3.9C399.9,165.1,399.9,165,399.9,164.9z"/>
	<path class="st3" d="M413,168.3h-2.3v4h-4.2v-15h6.9c4.1,0,6.7,2.1,6.7,5.6c0.1,2-1.1,3.9-2.9,4.7l3.2,4.7h-4.5L413,168.3z
		 M413,160.6h-2.4v4.4h2.4c1.8,0,2.6-0.8,2.6-2.2S414.8,160.6,413,160.6L413,160.6z"/>
	<path class="st5" d="M542.8,335.1c0-1.7-0.1-88.5-0.2-225.7l0.2,0.2H393H225.2c-1.9,0.1-4-0.4-5.2,1c-0.4,0.4-0.7,1-0.8,1.5
		c-0.1,0.6-0.1,1.2-0.1,1.8v3.9c0,2.5,0,5,0,7.5c0,5,0,10,0,14.9c0,9.9,0,19.7,0,29.5c0,19.5,0,38.7-0.1,57.5
		c-0.1,37.6-0.1,73.8-0.2,107.9l-0.2-0.2L542.8,335.1l-324.2,0.3h-0.2v-0.2c0-34.1,0.1-70.2,0.1-107.9c0-18.8,0-38,0.1-57.5
		c0-9.8,0-19.6,0-29.5c0-5,0-9.9,0-14.9c0-2.5,0-5,0-7.5v-3.8c0-0.6,0-1.3,0.1-1.9c0.1-0.7,0.4-1.3,0.9-1.8c0.7-0.8,1.7-1.2,2.7-1.2
		H393h149.8h0.2v0.2C542.9,246.6,542.9,333.4,542.8,335.1z"/>
	<path class="st5" d="M259.4,118.1c0,1.7-1.3,3-3,3s-3-1.3-3-3s1.3-3,3-3S259.4,116.5,259.4,118.1z"/>
	<path class="st5" d="M241,118.1c0,1.7-1.3,3-3,3s-3-1.3-3-3s1.3-3,3-3S241,116.5,241,118.1z"/>
	<path class="st5" d="M249.8,118.1c0,1.7-1.3,3-3,3s-3-1.3-3-3s1.3-3,3-3S249.8,116.5,249.8,118.1z"/>
</g>
<g id="Character--inject-35">
	<path class="st5" d="M164.7,62.5c1.8-0.6-2.4-8-2.7-9.9s-4.7-2-6.6-2.1c1.6-0.7,2.3-2.6,1.6-4.2c-0.5-1-1.4-1.7-2.5-1.8
		c0.6-2.3-2.3-4.6-4.3-3.5c0.4-1.5-0.6-3-2.1-3.4c-0.3-0.1-0.6-0.1-0.9-0.1c0.8-1.9-1.9-4-3.5-2.9c0.8,0.2,1.5-0.9,1.2-1.7
		c-0.4-0.8-1.1-1.3-2-1.5c-5-1.4-10.3,2.8-15.3,1.4c-1.6-0.5-3-1.5-4.7-1.6s-3.6,1.4-3,2.9c-1.2-1.1-3.1-1-4.2,0.3
		c-0.3,0.3-0.5,0.7-0.6,1.1l-8.1,3.2c-2.2,0.7-4.3,1.8-6.1,3.3c-1.9,1.5-2.9,3.7-2.8,6.1c-2.7,0.1-4.9,2.3-5,5
		c-2.8-0.3-5.4,1.7-5.7,4.6c0,0,0,0.1,0,0.1c-1.7-1-3.6,0.7-4.8,2.3c-0.8,1-1.5,2.1-1.8,3.4c-0.3,1.3,0.2,2.6,1.3,3.4
		c-2,1.9-2.4,4.8-1.2,7.2c-1.4,0.7-2.5,1.7-3.5,2.9c-0.9,1.2-1,3-0.2,4.3c-3,1.5-4.2,5.1-2.7,8.1c-2.7-0.4-2.8-0.9-5.5-0.3
		c-0.7,0.4-1.1,1.3-1,2.1c0.2,1.2,0.6,2.3,1.1,3.4c0,0-1.7,1.1-1.1,2.4c0.6,1.3,1.8,2.2,3.2,2.4l-0.2,3.9c-0.1,2.2,0,4.8,1.9,5.9
		c-0.4,1.8,0.3,3.7,1.8,4.9c-1.8,0.9-2.5,3.1-1.5,4.8c0.2,0.3,0.4,0.6,0.6,0.8c-1.2,1.3-0.8,3.3-0.3,5c0.5,1.8,1.5,3.5,2.9,4.8
		c1.4,1.3,3.5,1.7,5.3,1.1c-1.1,1.8-2.2,3.8-1.8,5.9s2.9,3.8,4.6,2.6c-0.5-0.6-1.4,0.4-1.2,1.1s0.8,1.3,1.1,2c0.4,1-0.1,2.1-0.2,3.2
		c-0.1,2.3,1.6,4.4,3.9,4.6c0.3,3.5,3.3,6.2,6.9,5.9c0.2,0,0.5-0.1,0.7-0.1c0.1,4.3,3.7,7.7,7.9,7.5c0,0,0.1,0,0.1,0
		c1.3,1.9,3.7,2.8,5.9,2.2c2.6,3.7,7.7,4.5,12.2,5c3.3,0.3,7.5,0.2,8.8-2.9c4.3,0.9,8.6-3.9,7.3-8"/>
	<path class="st5" d="M160,64.6c-1.5-5,0-10.4,3.8-14c0.9-0.8,2.5-1.4,3.1-0.3c0-1.4,1.1-2.5,2.5-2.6c0.4,0,0.9,0.1,1.3,0.3
		c0.3-2,2.1-3.4,4.1-3.1c0.4,0.1,0.8,0.2,1.2,0.4c0.2-1.1,1.3-1.9,2.4-1.7c1.1,0.2,1.9,1.3,1.7,2.4c0,0.2-0.1,0.4-0.2,0.6
		c0.9-0.5,1.9-0.2,2.4,0.6c0.1,0.1,0.1,0.2,0.1,0.3c1-1.1,2.6-1.2,3.7-0.3c0.2,0.2,0.3,0.3,0.5,0.5c1.2-0.7,2.6-0.9,3.9-0.3
		c0.6-0.1,1.2,0.2,1.3,0.8c0,0.1,0,0.3,0,0.4c0.8-0.8,2.2-0.8,3,0c0.3,0.3,0.5,0.6,0.6,0.9c0.2-1.2,1.3-2,2.5-1.8
		c0.4,0.1,0.8,0.3,1.2,0.6c2.7-1.4,4.6,5.8-1.2,8.2l1.1-1.7c1,2,2.2,0.9,4.4,1.4c1.8,0.5,3.1,2.2,3,4.1c0.7-1,2.1,0,2.8,1l3.5,5
		c1.7,2.2,3.2,4.6,4.4,7.2c1.1,2.3,1.5,4.8,1.3,7.4c-0.1,0.6-0.1,1.2,0.1,1.8c0.3,0.7,1,1.1,1.4,1.8c1.1,2.2-2.8,4.5-2,6.8
		c1.9-0.7,4,0.3,4.8,2.2c0.2,0.9,0.4,1.7,0.7,2.6c0.7,1.4,2.5,2.3,2.7,3.9c0.1,0.8-0.3,1.7,0,2.4s1.2,1.1,1.7,1.7
		c0.9,1.1,0.5,2.8-0.1,4s-1.6,2.4-1.8,3.8c0,0.4,0.7-0.5,1-0.3s0.2,1.1,0,0.8l-3.1,1.1c1.4,0.5,2.3,2,2,3.4
		c-0.3,1.4-1.1,2.7-2.2,3.6c1.2,0.8,1.5,2.4,0.6,3.6c0,0,0,0,0,0c-0.4,0.5-1,0.8-1.2,1.4c-0.5,1.1,0.3,2.3,0.5,3.5
		c0.3,2.1-1.2,4.1-3.3,4.4c-0.3,0-0.5,0-0.8,0c1,1.2,0.6,3,0.2,4.6c-0.3,0.9-0.5,1.8-0.8,2.6c-0.5,1.5-1.6,3.3-3,2.7
		c1.1,1.5,0.7,3.5-0.8,4.6c-1,0.7-2.3,0.8-3.3,0.3c0.2,3.5-4.2,6.3-7.3,4.5c0.6,2.6-2.9,5.1-5.1,3.6c-0.1,0.9-0.8,1.6-1.7,1.8
		c-0.5,0-0.9,0-1.4-0.1c-2.5-0.3-4.9,0.9-6.3,3c-2.8,0.3-4.9,2.4-7.4,3.8s-6.2,1.4-7.3-1.2c-0.1,1.4-2.2,1.2-3.4,0.5
		c-2.7-1.5-5-3.6-6.9-6.1"/>
	<path class="st8" d="M181.4,94.3l0.4-7.2l-43.3-9.6c-13.4-1.8-28.3,11.2-29.6,24.6c-1.4,14.9-2.5,33.2-1.1,44.4
		c2.9,22.6,20,25.9,20,25.9l-0.6,22.3l49.6,2.2L181.4,94.3z"/>
	<path class="st5" d="M117.2,117.1c-0.1,1.6,1.1,2.9,2.7,3c1.5,0.2,2.9-0.9,3-2.4c0,0,0-0.1,0-0.1c0.1-1.6-1.1-2.9-2.7-3
		C118.7,114.4,117.3,115.5,117.2,117.1C117.2,117,117.2,117,117.2,117.1z"/>
	<path class="st5" d="M113.4,111.8c0.3,0.4,2.6-1.2,5.7-1.1s5.3,1.7,5.7,1.4c0.2-0.2-0.2-0.9-1.1-1.6c-1.3-1-2.9-1.5-4.5-1.6
		c-1.6-0.1-3.2,0.4-4.5,1.3C113.6,110.9,113.3,111.6,113.4,111.8z"/>
	<path class="st5" d="M146,118.7c-0.1,1.6,1.1,2.9,2.7,3c1.5,0.1,2.9-1,3-2.5c0,0,0,0,0,0c0.1-1.6-1.1-2.9-2.7-3
		C147.5,116.1,146.2,117.2,146,118.7C146,118.7,146,118.7,146,118.7z"/>
	<path class="st5" d="M143.9,113.3c0.3,0.4,2.6-1.2,5.7-1.1s5.3,1.7,5.7,1.4c0.2-0.2-0.2-0.9-1.1-1.6c-1.3-1-2.9-1.5-4.5-1.6
		c-1.6-0.1-3.2,0.4-4.5,1.3C144,112.4,143.7,113.1,143.9,113.3z"/>
	<path class="st5" d="M131.9,135.9c0-0.2-1.9-0.6-5-1.1c-0.8-0.1-1.5-0.3-1.6-0.8c0-0.8,0.2-1.6,0.6-2.3c0.8-1.9,1.6-3.9,2.5-6
		c3.5-8.5,6.1-15.5,5.7-15.6s-3.5,6.6-7,15.1c-0.9,2.1-1.7,4.1-2.4,6c-0.5,0.9-0.7,2-0.5,3.1c0.2,0.6,0.7,1,1.3,1.2
		c0.4,0.1,0.9,0.2,1.3,0.2C129.9,136,131.9,136.1,131.9,135.9z"/>
	<path class="st9" d="M127.9,172.5c10.8,0.5,21.6-2,31.1-7.1c0,0-8.1,15.4-31.2,12.7L127.9,172.5z"/>
	<path class="st9" d="M133,143.4c1.2-1.5,3.2-2.2,5.1-1.9c1.4,0.2,2.6,0.9,3.5,2c0.8,1.1,0.9,2.6,0.1,3.7c-1.1,1.1-2.7,1.5-4.1,0.9
		c-1.5-0.6-2.8-1.4-3.9-2.5c-0.3-0.3-0.6-0.6-0.9-0.9c-0.2-0.4-0.2-0.8,0.1-1.2"/>
	<path class="st5" d="M140.9,138.3c-0.5,0-0.6,3.3-3.6,5.6s-6.5,1.8-6.6,2.3c-0.1,0.2,0.8,0.7,2.3,0.8c2,0.1,3.9-0.5,5.5-1.7
		c1.5-1.2,2.5-2.8,2.8-4.7C141.5,139.2,141.2,138.3,140.9,138.3z"/>
	<path class="st5" d="M143.4,104.5c0.3,0.9,3.4,0.5,7,1.1s6.5,1.6,7,0.9c0.2-0.4-0.3-1.2-1.4-2c-3.1-2.1-7.1-2.7-10.7-1.5
		C144,103.5,143.3,104.1,143.4,104.5z"/>
	<path class="st5" d="M113.8,101.1c0.5,0.7,2.7,0.1,5.2,0.1s4.7,0.6,5.2-0.1c0.2-0.4-0.1-1.1-1-1.8c-2.6-1.7-5.9-1.7-8.4,0
		C113.9,100.1,113.6,100.8,113.8,101.1z"/>
	<path class="st5" d="M157.4,78.3c-0.6,1.8-1.6,3.4-2.9,4.7c-1.5,1.2-3.8,1.4-5,0c-2,1.9-5.2,1.8-7.1-0.2c-0.2-0.2-0.4-0.5-0.6-0.8
		c-2.4,1.9-5.7,2.1-8.2,0.3l-6.8,1c-2.4,0.4-5.5,0.5-6.9-1.6c-0.3-0.5-0.5-1.1-1-1.3c-0.6-0.2-1.1-0.2-1.7-0.1c-2,0-3.8-1-4.9-2.7
		c-1-1.6-1.8-3.5-2.2-5.3c-0.8-2.9-1.4-6.5,1.1-8.3c1-0.6,2.1-1,3.3-1.1c2.4-0.4,4.8-0.7,7.1-0.1c2.8,0.8,5,3,6.6,5.5
		c-0.4-1.6,0.6-3.3,2.2-3.8c1.6-0.4,3.3-0.1,4.6,0.7c2.1,1.1,3.8,2.7,5,4.8c3.8,0.2,7.2,2.6,8.7,6.1c1.8-1,3.9-1.3,5.8-0.7
		c0.7,0.1,1.3,0.6,1.7,1.2c0.3,0.6,0.1,1.3-0.5,1.6c-0.1,0-0.1,0.1-0.2,0.1"/>
	<path class="st5" d="M135.7,78.3c1.3,3.9-0.9,8.1-4.8,9.3c-2.4,0.8-5.1,0.3-7.1-1.4c-1.3,3.1-4.7,4.8-7.9,3.9
		c-0.2,3.9-2.5,7.4-6.1,9.1c0.7,2,0.6,4.2-0.2,6.1c-0.5,1.3-1.5,2.3-2.7,2.8c-1.6,0.4-3.2,0.2-4.6-0.6c-2.1-0.9-3.7-2.7-4.4-4.9
		c-0.6-2.2,0.4-4.9,2.5-5.7c-1.8-1.9-3.2-4.2-4.1-6.7c-0.6-1.4-0.7-3-0.1-4.4c0.7-1.3,2.7-2.1,3.8-1c-1.5-3.3-0.1-7.2,3.2-8.8
		c1.4-0.6,2.9-0.8,4.4-0.4c0.2-3,2.9-5.3,5.9-5.1c1.3,0.1,2.5,0.7,3.5,1.6"/>
	<path class="st5" d="M158.5,78.3c-3.2,5.8,0.2,14.1,6.5,16c-3,0.9-4.7,4-3.8,7c0.6,2,2.2,3.5,4.3,3.9c-2.7,4.3-1.9,10,1.9,13.4
		c-2.2,1-3.5,3.2-3.5,5.6c0.1,2.3,2.5,4.5,4.8,4c-0.2,3.5,1.9,6.8,5.1,8c-2,3-1.2,7,1.7,9c1,0.7,2.1,1,3.3,1.1
		c-1.6,1.1-1.3,3.7,0.1,5.1c2.5,2.6,7.3,2,9.7-0.8s2.7-6.8,1.7-10.3c1.7,0.8,3.7-0.5,4.3-2.2c0.5-1.8,0.3-3.7-0.5-5.3
		c-0.8-1.6-1.5-3.3-2-5.1c-0.1-0.5-0.1-1.1,0.1-1.6c0.4-0.8,1.2-1.1,2-1.5c2.8-1.6,3.7-5.3,3.2-8.4s-1.9-6.1-2.8-9.1
		c-0.3-0.6-0.3-1.3-0.1-2c0.3-0.7,1.1-1.1,1.8-1.6c3.2-2.2,4-6.6,1.8-9.7c-0.8-1.1-1.8-2-3.1-2.5c1.9-0.9,2-3.6,1.1-5.5
		s-2.8-3-4.3-4.5c-2.8-2.7-4.9-6.3-8.5-8c-3.7-1.6-8-0.8-10.8,2.1c-2.4-1.3-5-2.6-7.7-2.4s-5.5,2.3-5.4,5.1"/>
	<path class="st6" d="M212.5,83.5c0.4-0.9,0.5-1.8,0.4-2.7c-0.1-1.1-0.6-2.1-1.4-2.9c-1.1-1-2.5-1.5-4-1.3h-0.3l0.1-0.3
		c0.5-1.4,0-3-1.1-3.9c-1.3-1-3.1-1.5-4.8-1.1h-0.4l0.1-0.3c0.5-1.3,0.1-2.7-1-3.6c-1.2-0.9-2.9-0.8-4,0.2l-0.4,0.3l-0.1-0.5
		c-0.2-2.6-2.5-4.5-5.1-4.3c-1.4,0.1-2.7,0.9-3.5,2.1l-0.4-0.2v-0.1c0.2-0.6,0.1-1.3-0.2-1.8c-0.3-0.5-0.9-0.9-1.5-1.2
		c-1.3-0.3-2.6-0.2-3.8,0.3l-3.7,1.2c-0.6,0.2-1.1,0.5-1.6,0.9c-0.4,0.3-0.6,0.9-0.5,1.4l-0.5,0.1c-0.1-1.1-0.9-2-2-2.3
		c-1-0.3-2.1-0.2-3,0.4c-0.8,0.6-1.4,1.4-1.8,2.3c-0.3,0.9-0.6,1.8-0.6,2.8v0.3l-0.2-0.1c-1.6-0.8-3.4-0.9-5-0.3
		c-1.2,0.5-2.3,1.3-3.1,2.4c-0.5,0.7-0.8,1.5-1,2.3c-0.1,0.6-0.1,0.9-0.2,0.9c0-0.1,0-0.2,0-0.2c0-0.2,0-0.4,0.1-0.5
		c0.1-0.9,0.5-1.7,0.9-2.4c0.7-1.2,1.8-2.1,3.1-2.6c1.7-0.7,3.7-0.6,5.3,0.2l-0.3,0.2c0-1,0.2-2,0.6-2.9c0.4-1,1.1-1.9,2-2.6
		c1-0.7,2.2-0.9,3.4-0.5c0.6,0.2,1.2,0.5,1.6,1c0.5,0.5,0.7,1.1,0.8,1.8l0.1,1.6l-0.5-1.5c-0.1-0.3-0.1-0.7,0-1.1
		c0.1-0.3,0.3-0.6,0.6-0.8c0.5-0.4,1.1-0.8,1.7-1l3.7-1.3c1.3-0.5,2.8-0.7,4.1-0.3c0.7,0.2,1.3,0.7,1.8,1.4c0.5,0.7,0.6,1.5,0.3,2.3
		l-0.1,0.1l-0.4-0.3c1.6-2.4,4.8-3.1,7.2-1.5c1.3,0.9,2.2,2.3,2.3,3.9l-0.4-0.2c1.5-1.3,3.7-1.3,5.1,0.2c0.9,1,1.2,2.4,0.7,3.7
		l-0.2-0.3c1.8-0.3,3.6,0.2,5.1,1.3c1.2,1.1,1.7,2.8,1.2,4.3l-0.2-0.2c1.6-0.2,3.1,0.4,4.2,1.5c0.8,0.8,1.3,1.9,1.4,3.1
		c0.1,0.7,0,1.4-0.3,2.1C212.8,83.1,212.7,83.3,212.5,83.5z"/>
	<path class="st6" d="M188.6,50.9c-0.7-0.5-1.6-0.8-2.4-1c-1-0.2-2-0.1-3,0.2c-1.3,0.4-2.4,1.2-3.1,2.3l-0.1,0.2l-0.2-0.2
		c-1.5-1.2-3.4-1.5-5.1-0.9c-2,0.7-3.4,2.6-3.5,4.7v0.6l-0.4-0.4c-0.1-0.2-0.3-0.3-0.5-0.3c-0.8-0.2-1.7,0-2.4,0.6
		c-0.7,0.5-1.2,1.2-1.6,2c-0.7,1.4-0.9,3.1-0.6,4.7l0.1,0.4l-0.4-0.1c-1.6-0.4-3.3-0.3-4.7,0.5c-1.1,0.6-2,1.6-2.5,2.7
		c-0.4,0.7-0.6,1.5-0.6,2.4c0,0.6,0,0.9,0,0.9s0-0.1-0.1-0.2c0-0.2-0.1-0.4-0.1-0.7c0-2.2,1.2-4.3,3.1-5.4c1.5-0.9,3.3-1.1,5-0.7
		l-0.3,0.3c-0.4-1.7-0.2-3.4,0.6-5c0.4-0.9,1-1.6,1.7-2.2c0.8-0.7,1.9-0.9,2.9-0.7c0.3,0.1,0.5,0.3,0.7,0.5l-0.4,0.2
		c0.2-3.2,3-5.6,6.2-5.3c1.2,0.1,2.4,0.6,3.3,1.3h-0.3c0.8-1.2,2-2.1,3.3-2.4c1-0.3,2.1-0.3,3.2-0.1c0.7,0.1,1.3,0.4,1.9,0.8
		C188.3,50.5,188.5,50.7,188.6,50.9z"/>
	<path class="st6" d="M108.8,42.2c0,0,0-0.1,0.1-0.2l0.5-0.6c0.6-0.8,1.3-1.5,2-2.2c1.2-1.1,2.6-1.8,4.2-1.9c1,0,2,0.3,2.8,0.8
		c1,0.6,1.7,1.6,1.8,2.7l-0.3-0.1c1.5-1.5,3.6-2.3,5.8-2.3c1.2,0.1,2.3,0.7,3.2,1.6c0.9,0.9,1.3,2.3,1.1,3.6l-0.4-0.2
		c2.3-2.3,6.1-2.3,8.3,0.1c0.9,0.9,1.5,2.2,1.7,3.5V47l-0.4-0.2c2.6-0.9,5.5,0.4,6.4,3c0.6,1.6,0.3,3.3-0.7,4.6l-0.2-0.4
		c3-0.5,5.9,1.5,6.4,4.5c0.4,2.3-0.6,4.5-2.6,5.7l-0.1-0.4c2,0.2,3.8,1.2,4.9,2.8c0.9,1.2,1.3,2.7,1.1,4.2c-0.1,0.9-0.3,1.8-0.8,2.6
		c-0.1,0.2-0.2,0.4-0.4,0.6c0,0.1-0.1,0.1-0.2,0.2c0,0,0.2-0.3,0.4-0.8c0.4-0.8,0.6-1.7,0.6-2.6c0.1-1.4-0.3-2.8-1.2-4
		c-1.1-1.5-2.8-2.5-4.7-2.6h-0.6l0.5-0.3c1.9-1.2,2.8-3.5,2.3-5.7c-0.7-2.5-3.2-4.1-5.8-3.7l-0.6,0.1l0.4-0.5c1.5-2,1-4.8-0.9-6.3
		c-1.2-0.9-2.8-1.1-4.2-0.6l-0.3,0.1v-0.3V47c-0.3-2.1-1.7-3.9-3.7-4.5c-1.9-0.6-4-0.1-5.4,1.3l-0.6,0.6l0.2-0.8
		c0.2-1.1-0.2-2.3-1-3.1c-0.7-0.8-1.8-1.3-2.9-1.4c-2-0.1-4,0.7-5.5,2.1l-0.3,0.3v-0.4c-0.1-1-0.7-2-1.6-2.5
		c-0.8-0.5-1.7-0.8-2.6-0.8c-0.8,0-1.6,0.2-2.4,0.6c-0.6,0.3-1.2,0.7-1.8,1.2c-0.7,0.6-1.4,1.3-2.1,2.1
		C109.3,41.7,109.1,42,108.8,42.2z"/>
	<path class="st6" d="M79.2,98c-0.2-0.3-0.3-0.6-0.4-0.9c-0.8-2.3-0.5-4.8,0.9-6.8c1.2-1.6,2.9-2.7,4.9-3.1l-0.2,0.2
		c0-3.5,2.3-6.5,5.7-7.4l-0.1,0.3c-1.4-2.3-0.6-5.3,1.8-6.7c1.1-0.6,2.3-0.8,3.5-0.6l-0.3,0.3c-1.2-3.1,0.4-6.6,3.5-7.7
		c2.2-0.8,4.7-0.3,6.3,1.4l-0.4,0.1c0.4-1.2,0.9-2.3,1.7-3.3c1.2-1.7,3.1-2.7,5.1-2.9c2-0.2,4,0.7,5.2,2.3l-0.5,0.1
		c0.6-2.8,3.3-4.6,6.1-4c1.7,0.3,3.2,1.5,3.8,3.2h-0.4c0.8-1.4,2.3-2.3,4-2.3c1.5,0,3,0.5,4.1,1.5c1,0.9,1.9,1.9,2.5,3.1
		c0.6,1,1.1,2.1,1.6,3.2l-0.2-0.1c1.8-0.4,3.7-0.2,5.4,0.7c1.2,0.6,2.3,1.5,3.1,2.7c0.5,0.7,0.9,1.5,1.1,2.3
		c0.1,0.2,0.1,0.4,0.1,0.6c0,0.1,0,0.2,0,0.2c-0.2-1.1-0.7-2.2-1.4-3.1c-0.8-1.1-1.8-1.9-3.1-2.5c-1.6-0.8-3.4-1-5.2-0.6h-0.1
		l-0.1-0.1c-0.9-2-1.9-4.4-4-6.2c-1.1-0.9-2.4-1.4-3.8-1.3c-1.5-0.1-2.9,0.7-3.6,2l-0.2,0.5l-0.2-0.5c-0.9-2.4-3.6-3.6-6-2.6
		c-1.5,0.6-2.6,1.9-2.9,3.4l-0.1,0.6l-0.3-0.5c-1.1-1.5-2.9-2.3-4.8-2.1c-1.9,0.2-3.7,1.2-4.8,2.7c-0.7,0.9-1.3,2-1.6,3.2l-0.1,0.4
		l-0.3-0.3c-2.2-2.1-5.7-2-7.8,0.2c-1.4,1.5-1.9,3.7-1.2,5.6l0.2,0.4L95,73.5c-2.4-0.5-4.7,1-5.3,3.4c-0.2,1.1-0.1,2.2,0.5,3.2
		l0.1,0.2l-0.3,0.1c-3.2,0.8-5.4,3.7-5.4,7v0.2h-0.2c-1.9,0.3-3.6,1.3-4.7,2.9c-0.9,1.2-1.3,2.6-1.4,4c0,0.9,0.1,1.8,0.4,2.7
		C79,97.7,79.2,98,79.2,98z"/>
	<path class="st6" d="M145.4,39.3c0.3,0.1,0.5,0.2,0.8,0.3c0.7,0.3,1.4,0.7,2,1.1c1,0.6,1.9,1.3,2.8,2.1c0.6,0.5,1,1.1,1.1,1.9
		c0.1,0.4,0,0.8-0.2,1.2c-0.2,0.4-0.6,0.7-1,0.9v-0.5c1,0.4,1.9,1.2,2.4,2.2c0.6,1,0.8,2.1,0.6,3.2c-0.1,1-0.6,2-1.3,2.7l-0.1-0.4
		c1,0.5,1.8,1.4,2.2,2.4c0.3,0.8,0.5,1.7,0.4,2.5c-0.1,0.6-0.2,1.1-0.5,1.6c-0.1,0.2-0.2,0.3-0.4,0.5c0.3-0.6,0.5-1.3,0.6-2.1
		c0.1-0.8-0.1-1.6-0.4-2.3c-0.4-0.9-1.1-1.7-2.1-2.2l-0.3-0.1l0.2-0.2c1.3-1.5,1.6-3.6,0.6-5.4c-0.5-0.9-1.2-1.5-2.1-1.9l-0.7-0.3
		l0.7-0.2c0.6-0.2,1-0.9,0.8-1.5c-0.1-0.6-0.5-1.2-0.9-1.6c-0.8-0.8-1.7-1.5-2.7-2.1C146.4,39.9,145.3,39.4,145.4,39.3z"/>
	<path class="st6" d="M75,112.2c-0.1-0.3-0.1-0.6-0.1-0.9c0-0.9,0.1-1.8,0.3-2.6c0.3-1.4,1-2.6,2-3.6c0.7-0.6,1.5-1,2.4-1.1
		c1-0.2,2,0.1,2.8,0.7l-0.4,0.2c-0.1-2.1,1.1-4,3-4.9c2.1-0.8,4.4-1,6.6-0.4l-0.3,0.3c-0.1-0.8,0-1.6,0.4-2.3
		c0.5-1.1,1.4-1.9,2.4-2.5c1-0.5,2-0.9,3.1-1.2c1-0.3,2.1-0.5,3.1-0.5c1,0,2,0.2,2.9,0.8l-0.4,0.2c0.1-1.2,0.7-2.2,1.7-2.8
		c0.8-0.6,1.7-1,2.7-1.1c1.6-0.3,3.2-0.4,4.8-0.2c1,0.1,2,0.2,3,0.4c0.4,0,0.8,0.2,1.2,0.3c-0.4,0-0.7-0.1-1.1-0.1
		c-0.7-0.1-1.7-0.2-3-0.3c-1.6-0.1-3.1,0-4.6,0.4c-0.9,0.2-1.8,0.6-2.6,1.1c-0.9,0.5-1.4,1.5-1.4,2.5v0.4l-0.4-0.2
		c-1.5-1-3.7-0.8-5.6-0.2c-1,0.3-2.1,0.6-3,1.1c-1,0.5-1.7,1.3-2.2,2.3c-0.3,0.6-0.4,1.3-0.3,2l0.1,0.4l-0.4-0.1
		c-2.1-0.5-4.3-0.4-6.2,0.3c-1.7,0.7-2.9,2.5-2.8,4.4l0.1,0.6l-0.4-0.4c-0.7-0.6-1.6-0.8-2.5-0.7c-0.8,0.1-1.6,0.5-2.2,1
		c-1,0.9-1.7,2.1-2,3.4C75.2,109.9,75,111,75,112.2z"/>
	<path class="st6" d="M201.2,151.7c0.3,0.2,0.7,0.4,1.1,0.5c1.1,0.3,2.2,0.2,3.2-0.4c1.5-0.9,2.7-2.4,3.2-4.1c0.4-1,0.6-2.1,0.6-3.3
		c0-0.6-0.2-1.2-0.4-1.7c-0.3-0.5-0.8-1-1.4-1.1l-0.4-0.1l0.3-0.2c0.9-0.6,1.9-1.3,2.9-2.1c0.5-0.4,1-0.8,1.4-1.2
		c0.5-0.4,0.9-0.9,1.3-1.4c0.3-0.5,0.1-1.1-0.3-1.7c-0.4-0.6-0.8-1.1-1.3-1.6c-1-1-2.2-1.9-3.6-2.4l-0.3-0.1l0.3-0.2
		c3.3-3.2,3.4-8.4,0.3-11.7c-1.6-1.7-3.9-2.6-6.3-2.5h-0.6l0.4-0.4c2.7-3.4,2.1-8.4-1.3-11.1c-1.8-1.4-4.2-2-6.4-1.5l-0.4,0.1
		l0.1-0.4c0.4-1.8,0.5-3.7,0.3-5.6c-0.2-1.8-1.2-3.4-2.7-4.3c-1.5-0.8-3.2-1.1-4.9-0.8c-1.6,0.3-3.2,0.7-4.7,1.3l-0.5,0.2l0.2-0.5
		c0.6-1.5,0.3-3.2-0.8-4.5c-0.9-1.2-2.2-2.1-3.7-2.4c-2.9-0.7-5.6,0.1-8,0.6l-0.4,0.1l0.2-0.3c0.5-0.9,0.5-2,0.1-3
		c-0.4-0.9-1-1.6-1.8-2.1c-1.3-0.8-2.8-1-4.3-0.7c-0.9,0.2-1.8,0.5-2.7,0.9c-0.6,0.3-0.9,0.4-0.9,0.4c0.1-0.1,0.1-0.1,0.2-0.1
		c0.1-0.1,0.4-0.2,0.6-0.4c0.8-0.5,1.8-0.8,2.7-1c1.5-0.4,3.1-0.2,4.5,0.6c0.8,0.5,1.5,1.3,1.9,2.2c0.5,1,0.5,2.3-0.1,3.3l-0.2-0.2
		c1.3-0.3,2.5-0.6,3.8-0.8c1.4-0.2,2.9-0.2,4.3,0.1c1.6,0.3,3,1.2,4,2.5c1.2,1.4,1.5,3.2,0.9,4.9l-0.3-0.3c1.6-0.6,3.2-1,4.8-1.3
		c1.8-0.3,3.6,0,5.2,0.8c1.6,1,2.7,2.7,2.9,4.6c0.2,1.9,0.1,3.8-0.3,5.7l-0.3-0.3c4.5-0.9,9,2,9.9,6.5c0.5,2.4-0.1,5-1.7,6.9
		l-0.2-0.4c4.8-0.2,8.9,3.5,9.2,8.3c0.1,2.6-0.9,5-2.7,6.8l-0.1-0.4c1.4,0.6,2.7,1.4,3.7,2.5c0.5,0.5,0.9,1.1,1.3,1.7
		c0.2,0.3,0.4,0.6,0.5,1c0.1,0.4,0.1,0.8-0.1,1.1c-0.4,0.6-0.9,1.1-1.4,1.5c-0.5,0.4-1,0.9-1.5,1.2c-1,0.8-2,1.5-2.9,2.1v-0.3
		c0.6,0.2,1.2,0.7,1.5,1.3c0.3,0.6,0.4,1.2,0.5,1.9c0,1.2-0.2,2.3-0.6,3.4c-0.6,1.8-1.8,3.3-3.4,4.2c-1,0.5-2.2,0.6-3.4,0.3
		C201.9,152.2,201.5,152,201.2,151.7z"/>
	<path class="st6" d="M181,119.4c-0.3,0.2-0.7,0.4-1.1,0.4c-1.1,0.2-2.2,0-3.1-0.6c-1.4-1-2.4-2.4-2.7-4.1c-0.3-1-0.4-2-0.3-3.1
		c0.1-0.6,0.3-1.1,0.8-1.6c0.5-0.5,1.2-0.6,1.8-0.3l1.6,0.8l-1.8-0.3c-1.8-0.4-3.4-1.3-4.7-2.6c-1.4-1.5-2.2-3.4-2.2-5.4
		c-0.1-2.2,0.7-4.4,2.1-6.1l0.1,0.4c-2.6-0.7-5.1-2.1-7-4.1c-1.5-1.5-2.8-3.3-3.6-5.3c-0.5-1.3-0.9-2.7-1.1-4.1
		c-0.1-0.5,0-0.9-0.1-1.1c0-0.1,0-0.3,0-0.4c0.2,1.9,0.7,3.8,1.4,5.5c0.9,1.9,2.1,3.7,3.6,5.2c1.9,1.9,4.3,3.2,6.8,3.9l0.4,0.1
		l-0.3,0.3c-1.4,1.6-2.1,3.6-2,5.7c0.1,1.9,0.8,3.7,2.1,5.1c1.2,1.3,2.7,2.1,4.4,2.5l-0.1,0.4c-0.5-0.2-1-0.1-1.3,0.3
		c-0.4,0.3-0.6,0.8-0.6,1.3c-0.1,1,0,2,0.2,2.9c0.3,1.6,1.2,3,2.5,4c0.9,0.6,1.9,0.9,3,0.7C180.3,119.6,180.7,119.5,181,119.4z"/>
	<path class="st3" d="M80.2,250.6l13.1,77.1c0,0-36,53.3-36,95.1h169.2c0,0-4.6-57.7-35.5-89.4l40.2-121.3L183.9,190l-2-18.2
		l-57.7,2.6v13.6L87.7,190L80.2,250.6z"/>
	<path class="st4" d="M186.7,310.8c0,0-1,0.2-2.9,0.4c-2.8,0.3-5.6,0.4-8.4,0.3c-4.5-0.2-8.9-1-13.1-2.4c-5.6-1.9-10.7-5.2-14.7-9.5
		c-1.1-1.3-2.2-2.6-3.1-4c-1-1.5-1.8-3-2.6-4.6c-0.7-1.7-1.3-3.4-1.8-5.2c-0.4-1.9-0.6-3.8-0.6-5.7c0-4,0.9-8,2.7-11.6
		c0.9-1.9,2.1-3.6,3.5-5.2c1.4-1.6,3.1-3,5-4.1c1.9-1.1,4.1-1.8,6.3-1.9c2.3-0.3,4.6,0.3,6.5,1.6c0.9,0.7,1.7,1.6,2.2,2.7
		c0.5,1.1,0.7,2.3,0.7,3.5c-0.1,2.4-1,4.7-2.6,6.5c-1.6,1.8-3.7,3.2-5.9,4c-2.3,0.9-4.6,1.5-7,1.9c-4.9,0.8-9.9,0.9-14.8,0.2
		c-9.7-1.3-18.9-5.3-26.5-11.5l-1.4-1c-0.4-0.4-0.9-0.8-1.3-1.2l-1.3-1.2l-1.2-1.3c-1.6-1.7-3-3.5-4.2-5.4c-2.5-3.7-4-8.1-4.3-12.5
		c-0.1-2.2,0.3-4.3,1.1-6.4c0.8-2,2-3.7,3.6-5.2c1.5-1.4,3.3-2.5,5.2-3.1c1.9-0.6,4-0.6,5.9-0.1c1.9,0.6,3.5,1.7,4.7,3.2
		c1.2,1.4,2,3.1,2.5,4.9c0.9,3.4,0.6,7-1.1,10.1c-1.5,2.8-3.8,5-6.6,6.6c-1.2,0.7-2.6,1.3-3.9,1.8c-1.3,0.4-2.6,0.8-3.9,1
		c-4.4,0.6-8.9,0.4-13.3-0.7c-3.6-0.8-6.3-1.7-8.1-2.3l-2.1-0.7l-0.7-0.2l0.7,0.2l2.1,0.6c1.8,0.5,4.6,1.4,8.1,2.2
		c4.3,1,8.8,1.2,13.2,0.6c1.3-0.2,2.6-0.6,3.9-1c1.3-0.5,2.6-1,3.9-1.8c2.7-1.5,4.9-3.7,6.4-6.4c1.6-3,1.9-6.5,1-9.8
		c-0.5-1.7-1.3-3.4-2.4-4.7c-2.4-3-6.5-4.2-10.2-3c-1.9,0.6-3.6,1.6-5.1,3c-3.1,2.9-4.7,7-4.5,11.2c0.3,4.4,1.7,8.6,4.2,12.3
		c1.2,1.9,2.6,3.7,4.2,5.4l1.2,1.3l1.2,1.2c0.4,0.4,0.8,0.8,1.3,1.2l1.4,1.1c7.5,6.2,16.6,10.1,26.3,11.4c4.9,0.6,9.8,0.6,14.6-0.2
		c2.4-0.3,4.7-0.9,6.9-1.8c2.2-0.8,4.2-2.2,5.7-3.9c1.5-1.7,2.4-3.9,2.4-6.2c0-1.1-0.2-2.2-0.7-3.2c-0.5-1-1.2-1.9-2.1-2.5
		c-1.8-1.2-4-1.8-6.2-1.6c-2.2,0.2-4.2,0.8-6.1,1.9c-1.8,1.1-3.4,2.4-4.9,4c-1.4,1.5-2.5,3.3-3.4,5.1c-1.7,3.5-2.7,7.4-2.7,11.4
		c0,1.9,0.2,3.7,0.6,5.6c0.4,1.8,1,3.5,1.7,5.1c0.7,1.6,1.6,3.1,2.5,4.6c0.9,1.4,2,2.7,3.1,3.9c2.1,2.3,4.5,4.3,7.1,5.9
		c2.3,1.5,4.8,2.7,7.4,3.6c4.2,1.5,8.6,2.3,13,2.5c2.8,0.1,5.6,0.1,8.4-0.2c1-0.1,1.7-0.2,2.2-0.2L186.7,310.8z"/>
	<g class="st10">
		<path d="M193,327.2c-4.1-0.1-7-0.5-10.1-3.1c-3-2.8-5.8-5.9-8.1-9.2L151,283.4c-4.3-5.6-8.6-11.5-10.5-18.3
			c-2.4-9.3,0.1-19.2,6.6-26.3l17.5,32.2L193,327.2z"/>
	</g>
	<path class="st5" d="M124.4,285.1c-0.1,0.1-0.3,0.1-0.4,0.1c-0.3,0-0.7,0.1-1.2,0.2c-1.5,0.2-2.9,0.3-4.4,0.2
		c-9.9-0.2-19-5.6-24-14.2c-0.7-1.3-1.4-2.6-1.9-4c-0.2-0.5-0.3-0.9-0.4-1.1S92,266,92,266c0.3,0.5,0.5,1,0.7,1.5
		c0.6,1.3,1.3,2.6,2,3.8c5.1,8.3,14,13.6,23.7,14c1.4,0.1,2.9,0.1,4.4-0.1C123.3,285.1,123.9,285.1,124.4,285.1z"/>
	<path class="st5" d="M187.8,333.7h-0.2h-0.7l-2.8,0.1c-2.4,0.1-5.8,0.2-10.1,0.3c-8.6,0.2-20.4,0.1-33.4-0.7s-24.8-2.1-33.2-3.3
		c-4.2-0.6-7.7-1.1-10-1.5l-2.7-0.5l-0.7-0.1c-0.1,0-0.2,0-0.2-0.1c0.1,0,0.2,0,0.2,0l0.7,0.1l2.7,0.4c2.4,0.4,5.8,0.8,10,1.4
		c8.5,1.1,20.2,2.4,33.2,3.1s24.8,0.9,33.4,0.9c4.3,0,7.7-0.1,10.1-0.2l2.8,0h1L187.8,333.7z"/>
	<g class="st10">
		<path d="M18.7,211.6c17.6,12,40.1,14.2,59.8,6c10.2-4.4,19.9-11.6,30.9-11c6.6,0.4,12.9,3.6,19.4,3.2c5.8-0.4,11-3.6,16.7-4.9
			c10-2.3,21,1.5,30.6-2.2c2.1-0.8,4.2-2.2,4.5-4.4c0.1-2-0.9-3.9-2.7-4.9c-1.8-0.9-3.7-1.4-5.7-1.6c-11-1.5-22-2.7-33-3.8
			c-11.3-1-22.8-1.8-33.9,0.5c-14.7,3-27.7,11.1-41.3,17.3s-29.1,10.8-43.4,6.3"/>
	</g>
	<path class="st8" d="M113.9,190c0,0,6.9,7.4,11.5,7.8c3.6,0.2,7.1,0.2,10.7,0c0,0,10.1,4.2,12.9,4s5.9-3,4.2-5s-6.5-3.6-6.5-3.6
		l33.5-0.4c2.3,0,4.2-1.7,4.4-4c0.1-0.9-0.2-1.8-1.1-2h-2.6c0,0-0.2-1.8-1.6-1.8h-10.9c0,0,1.4-2.3-1.8-2.6
		c-1.4-0.1-18,0.5-27.3-2.8s-23.5-4.4-23.5-4.4h-12.1l0.8,16.5L113.9,190z"/>
	<path class="st9" d="M103.5,175.3c0,0,0.3,0,0.8,0h2.3l9-0.1l0,0c2.9,0.2,6.4,0.6,10.2,1.2c4.3,0.6,8.5,1.6,12.6,2.9
		c4.8,1.6,9.8,2.5,14.9,2.7c2.7,0.2,5.5,0.2,8.3,0.3c1.4,0,2.9,0,4.4,0c0.8,0,1.6,0.2,2.2,0.7c0.3,0.3,0.5,0.7,0.5,1.2
		c0,0.4-0.1,0.8-0.3,1.2l-0.2-0.4h10.9c0.4,0,0.7,0.1,1,0.3c0.5,0.4,0.8,1,0.9,1.7l-0.2-0.2h2.6c0.5,0.1,1,0.5,1.2,1
		c0.1,0.5,0.2,1,0.1,1.5c-0.1,1-0.6,1.9-1.4,2.6c-0.7,0.7-1.7,1.2-2.7,1.3c-1,0.1-2,0-2.9,0.1l-31.1,0.3l0.1-0.5
		c1.3,0.4,2.5,1,3.7,1.6c1.2,0.5,2.3,1.3,3.2,2.3c0.4,0.6,0.5,1.3,0.2,2c-0.3,0.6-0.7,1.1-1.2,1.6c-1,0.8-2.2,1.3-3.4,1.5
		c-1.2,0-2.4-0.2-3.6-0.6c-1.1-0.3-2.2-0.7-3.3-1c-2.1-0.7-4.2-1.5-6.2-2.3h0.1c-2.6,0.1-5.1,0.2-7.4,0.1c-1.2,0-2.3-0.1-3.4-0.2
		c-1.1-0.2-2.1-0.6-3.1-1.1c-1.7-1-3.3-2.1-4.8-3.4c-1.3-1.1-2.4-2.2-3.6-3.4h0.1l-7.8,1.3l-2,0.3l-0.7,0.1l0.7-0.1l2-0.4l7.7-1.3
		h0.1l0,0c1.1,1.2,2.3,2.3,3.6,3.3c1.5,1.3,3,2.4,4.7,3.3c0.9,0.5,1.9,0.9,3,1c1.1,0.1,2.2,0.1,3.4,0.2c2.3,0,4.8-0.1,7.4-0.2l0,0
		h0.1c1.9,0.8,4,1.6,6.1,2.3c1.1,0.4,2.2,0.7,3.3,1c1.1,0.4,2.3,0.6,3.4,0.6c1.2-0.1,2.3-0.6,3.2-1.4c0.5-0.4,0.8-0.8,1.1-1.4
		c0.2-0.5,0.2-1.1-0.2-1.6c-0.8-0.9-1.9-1.7-3-2.2c-1.2-0.6-2.4-1.1-3.6-1.5l-1.3-0.5h1.4l31.1-0.4c1,0,2,0,2.9-0.1
		c0.9-0.1,1.7-0.5,2.4-1.1c0.6-0.6,1.1-1.4,1.2-2.3c0.1-0.9-0.1-1.8-0.9-2h-2.7v-0.2c0-0.5-0.3-1-0.7-1.3c-0.2-0.1-0.4-0.2-0.6-0.2
		h-11.3l0.2-0.4c0.4-0.5,0.3-1.3-0.1-1.8c-0.6-0.4-1.2-0.6-1.9-0.5c-1.4-0.1-2.9,0-4.3-0.1c-2.9,0-5.6-0.1-8.4-0.3
		c-5.1-0.2-10.2-1.1-15-2.8c-4.1-1.3-8.3-2.3-12.6-3c-3.8-0.6-7.3-1-10.2-1.3l0,0l-9-0.1h-2.3L103.5,175.3z"/>
	<path class="st9" d="M145.7,193.2c-0.3,0.1-0.6,0.2-0.9,0.3c-0.6,0.2-1.4,0.3-2.5,0.5c-2.8,0.5-5.6,0.7-8.4,0.4
		c-2.8-0.3-5.5-0.8-8.2-1.6c-1-0.3-1.9-0.6-2.4-0.8c-0.3-0.1-0.6-0.2-0.9-0.4c1.1,0.2,2.3,0.4,3.4,0.8c2.7,0.7,5.4,1.2,8.2,1.4
		c2.8,0.2,5.5,0.1,8.3-0.3C144.3,193.4,145.6,193.1,145.7,193.2z"/>
	<path class="st9" d="M168.5,185.2c-1.1,0.2-2.3,0.3-3.4,0.4c-2.1,0.1-5.1,0.2-8.4,0.3s-6.2-0.1-8.4-0.1c-1.2,0-2.3-0.1-3.5-0.3
		c1.2-0.1,2.3-0.1,3.5-0.1h8.4l8.4-0.1C166.1,185.1,167.3,185.1,168.5,185.2z"/>
	<path class="st9" d="M180.3,185.7c0,0,0.4,0.3,0.5,1c0.1,0.4,0.1,0.9,0,1.3c0,0.3-0.2,0.6-0.3,0.8c-0.2,0.2-0.5,0.4-0.8,0.5
		c-0.7,0.2-1.4,0.3-2.1,0.3l-2.3,0.1l-5.3,0.1c-3.8,0.1-7.2,0.1-9.6,0.1c-1.2,0-2.2,0-2.9,0c-0.4,0-0.7,0-1.1-0.1
		c0.3-0.1,0.7-0.1,1.1-0.1l2.9-0.1c2.5-0.1,5.9-0.2,9.6-0.2l5.3-0.1c1.4,0.1,2.8,0,4.2-0.3c0.3-0.1,0.5-0.2,0.7-0.4
		c0.2-0.2,0.3-0.4,0.3-0.6C180.7,187.2,180.6,186.5,180.3,185.7L180.3,185.7z"/>
	<path class="st3" d="M2.1,189.3c-4.3,12-2.8,25.2,12.6,36.8c15.4,11.7,66.5,26.1,66.5,26.1l4.4-46.2l16.6-6.6
		c1.7-0.8,2.9-2.4,2.9-4.3c0.3-8.6,0.2-20.5,0.2-20.5H87.9C87.9,174.7,11.6,163,2.1,189.3z"/>
	<path class="st5" d="M105.4,174.9c0,0.1,0,0.2,0,0.3v0.9c0,0.8,0,2,0,3.4c0,3,0.2,7.2,0.2,12.6c0.1,1.4,0,2.8-0.3,4.2
		c-0.5,1.5-1.6,2.7-3,3.4c-1.4,0.8-2.9,1.4-4.5,1.9l-4.8,1.9l-21.2,8.3c-7.5,2.9-14.9,5.4-21.9,6.2c-6.2,0.7-12.5,0.2-18.5-1.4
		c-4.1-1-8-2.5-11.8-4.3c-1.3-0.6-2.4-1.2-3-1.6l-0.8-0.4c-0.1,0-0.2-0.1-0.3-0.2c0.1,0,0.2,0.1,0.3,0.1l0.8,0.4
		c0.7,0.4,1.7,0.8,3.1,1.4c3.8,1.7,7.8,3.1,11.8,4.1c6,1.5,12.2,1.9,18.4,1.2c7-0.8,14.3-3.3,21.8-6.2l21.2-8.2l4.8-1.8
		c1.5-0.5,3-1.2,4.4-1.9c1.3-0.7,2.3-1.8,2.8-3.2c0.3-1.3,0.4-2.7,0.3-4.1c0.1-5.3,0-9.6,0-12.5c0-1.5,0-2.6,0.1-3.4
		c0-0.4,0-0.7,0-0.9C105.3,175,105.4,174.9,105.4,174.9z"/>
	<path class="st5" d="M64.5,222.3c0.4,0.2,0.8,0.5,1.2,0.8c0.4,0.3,0.8,0.6,1.3,1s1.1,0.9,1.7,1.5c1.4,1.3,2.7,2.8,3.9,4.3
		c1.4,1.9,2.7,3.8,3.9,5.9c1.1,2.1,2.1,4.3,2.8,6.5c0.6,1.8,1.1,3.7,1.5,5.6c0.2,0.8,0.2,1.5,0.3,2.2c0.1,0.5,0.1,1.1,0.2,1.7
		c0,0.5,0,1,0,1.4c-0.1-0.5-0.2-0.9-0.2-1.4c0-0.5-0.1-1-0.2-1.6s-0.2-1.4-0.4-2.2c-0.4-1.9-0.9-3.7-1.6-5.5
		c-0.8-2.2-1.7-4.3-2.8-6.4c-1.1-2-2.4-4-3.8-5.9c-1.2-1.5-2.4-3-3.8-4.3c-0.6-0.6-1.1-1.1-1.6-1.5s-0.9-0.8-1.2-1.1
		C65.1,222.9,64.8,222.6,64.5,222.3z"/>
	<g class="st10">
		<path d="M94.2,270.7c-0.4,5.2-0.6,10.7,2.4,15.1c2.9,4.5,7.6,7.5,12.9,8.1c5.4,0.6,10.6-1.9,13.6-6.3c0.2-0.3,0.3-0.6,0.4-1
			c0-0.7-0.6-1.4-1.3-1.5c-0.7-0.1-1.5-0.1-2.2,0C109.6,286.5,99,280.1,94.2,270.7"/>
	</g>
	<path class="st3" d="M169.5,299.9c0.4-0.8,33.3,41,43.1,45.7c9.8,4.7,35.7,5.9,36.5-23s-4.5-74.1-4.5-74.1s-1.8-33.1-13.6-36.2
		c-2.6-0.7-6,8.1-6.9,8.6s-13.2,31.4-13.2,31.4l-2.7,40.4l-13.4-10.8L169.5,299.9z"/>
	<path class="st5" d="M218.4,300.9c-0.2-0.1-0.3-0.2-0.5-0.3l-1.3-1l-4.9-3.8l-17.2-13.7h0.3l-22.2,15.9l-3,2.1v-0.4
		c10.2,11.2,18.6,21.8,25,29.2c3.2,3.7,5.9,6.5,7.8,8.5c0.9,1,1.7,1.7,2.2,2.2l0.6,0.6c0.1,0.1,0.2,0.2,0.2,0.2l-0.2-0.2l-0.6-0.5
		c-0.5-0.5-1.3-1.2-2.2-2.2c-1.9-1.9-4.7-4.7-7.9-8.4c-6.5-7.3-14.9-17.9-25-29l-0.2-0.2l0.2-0.2l3-2.1l22.2-15.8l0.1-0.1l0.1,0.1
		c7,5.7,12.9,10.5,17.1,13.8l4.8,3.9l1.2,1C218.2,300.7,218.3,300.8,218.4,300.9z"/>
	<path class="st5" d="M225.9,215c-0.2,0.2-0.5,0.3-0.7,0.4c-0.7,0.4-1.4,0.8-2,1.3c-2.4,1.7-4.5,3.9-6.1,6.3
		c-2.4,3.6-4.2,7.7-5.1,12c-1.1,5.3-1.7,10.6-1.7,16c-0.4,11.5-1,21.9-1.3,29.4c-0.2,3.7-0.4,6.8-0.5,8.9c-0.1,1-0.1,1.8-0.1,2.4
		s-0.1,0.8-0.1,0.8c0-0.3,0-0.6,0-0.9c0-0.6,0-1.4,0.1-2.4c0.1-2.2,0.2-5.2,0.3-8.9c0.3-7.6,0.7-17.9,1.2-29.4
		c0-5.4,0.6-10.8,1.8-16.1c1-4.3,2.7-8.4,5.2-12.1c1.7-2.5,3.8-4.6,6.3-6.3c0.7-0.5,1.4-0.9,2.1-1.2
		C225.4,215.2,225.6,215.1,225.9,215z"/>
	<g class="st10">
		<path d="M84.8,214.7c0,0-7.4,4.1-11.9,5s-31.7,4.5-44.2-3.7c0,0,12.9,2.6,22.8,1.5c10.2-1.2,34.2-11.4,34.2-11.4L84.8,214.7z"/>
	</g>
	<path class="st4" d="M206,353.9l-0.6,0.7c-0.4,0.5-0.9,1.1-1.8,2c-2.3,2.5-4.9,4.7-7.7,6.7c-4.4,3.1-9.3,5.5-14.4,7.1
		c-3.2,1-6.5,1.7-9.9,2.1c-3.8,0.4-7.6,0-11.2-1.1c-2-0.6-3.8-1.6-5.4-2.9c-1.6-1.4-2.9-3.2-3.6-5.2c-0.7-2.1-0.8-4.4-0.3-6.6
		c0.5-2.3,1.6-4.4,3-6.2c1.5-1.9,3.3-3.5,5.5-4.6c2.2-1.1,4.7-1.6,7.2-1.4c5.2,0.5,9.9,3.1,13.2,7.3c1.7,2.1,3,4.5,3.9,7
		c0.8,2.6,1.2,5.3,1.1,8.1c-0.3,5.6-2.1,11.1-5.1,15.9c-0.8,1.2-1.6,2.4-2.5,3.5c-0.4,0.6-0.9,1.1-1.4,1.7s-1,1-1.5,1.6L173,391
		c-0.5,0.5-1.1,0.9-1.7,1.4l-1.7,1.4c-0.6,0.5-1.2,0.8-1.8,1.2c-5,3.3-10.5,5.7-16.4,7c-11.6,2.7-23.8,1-34.3-4.6
		c-2.5-1.4-4.8-3-7-4.8c-2.1-1.8-4-3.9-5.6-6.2c-1.6-2.2-2.7-4.8-3.3-7.5c-0.6-2.7-0.4-5.4,0.4-8c0.8-2.5,2.3-4.8,4.4-6.4
		c2-1.6,4.6-2.4,7.2-2.2c2.5,0.3,4.8,1.3,6.8,2.9c0.9,0.8,1.8,1.7,2.4,2.7c0.7,1,1.2,2,1.6,3.2c0.7,2.2,0.9,4.6,0.5,6.9
		c-0.4,2.2-1.1,4.3-2.2,6.2c-2.2,3.6-5.3,6.5-9.1,8.3c-3.4,1.7-7.1,2.8-10.9,3.2c-3.3,0.4-6.7,0.5-10.1,0.2
		c-2.9-0.3-5.8-0.8-8.6-1.6c-2.4-0.7-4.7-1.5-6.9-2.6c-3.1-1.4-6-3.2-8.7-5.3c-0.9-0.7-1.6-1.3-2-1.7l-0.7-0.6c0,0,0.2,0.2,0.7,0.6
		s1.1,1,2.1,1.7c2.7,2.1,5.6,3.8,8.7,5.2c2.2,1,4.5,1.9,6.9,2.5c2.8,0.8,5.7,1.3,8.6,1.6c3.3,0.3,6.7,0.2,10-0.2
		c3.7-0.5,7.3-1.6,10.7-3.2c3.7-1.8,6.8-4.6,8.9-8.2c1.1-1.9,1.8-3.9,2.2-6.1c0.4-2.2,0.2-4.5-0.5-6.7c-1.6-4.6-5.6-7.8-10.4-8.4
		c-2.5-0.2-4.9,0.5-6.9,2.1c-2,1.6-3.4,3.8-4.2,6.2c-0.8,2.5-1,5.1-0.4,7.7c0.6,2.6,1.7,5.1,3.2,7.3c1.6,2.2,3.4,4.3,5.5,6.1
		c2.2,1.8,4.5,3.4,6.9,4.8c10.4,5.6,22.4,7.2,33.9,4.5c5.8-1.3,11.3-3.6,16.2-6.9c0.6-0.4,1.2-0.8,1.8-1.2l1.7-1.4
		c0.6-0.5,1.1-0.9,1.6-1.4l1.5-1.5c0.5-0.5,1-1,1.5-1.5s0.9-1.1,1.4-1.6c0.9-1.1,1.7-2.3,2.4-3.5c3-4.7,4.8-10.1,5.1-15.6
		c0.1-2.7-0.3-5.3-1.1-7.9c-0.8-2.5-2.1-4.8-3.8-6.8c-3.1-4-7.8-6.6-12.8-7.1c-2.4-0.2-4.8,0.3-7,1.4c-2.1,1.1-3.9,2.6-5.3,4.4
		c-1.4,1.8-2.4,3.8-2.9,6c-0.5,2.1-0.4,4.3,0.3,6.4c0.7,2,1.9,3.7,3.5,5.1c1.5,1.3,3.3,2.3,5.2,2.9c3.6,1.1,7.3,1.5,11.1,1.1
		c3.3-0.3,6.6-1,9.8-2c8.4-2.6,16-7.3,22.1-13.6c0.8-0.8,1.4-1.5,1.8-2S206,353.9,206,353.9z"/>
	<path class="st4" d="M40.5,216.6c-0.1-0.1-0.1-0.1-0.2-0.2l-0.6-0.6c-0.3-0.3-0.6-0.7-0.9-1.1c-0.4-0.5-0.7-1-1-1.6
		c-0.9-1.5-1.6-3-2.2-4.7c-0.7-2.2-1.1-4.4-1.1-6.7c-0.1-2.8,0.3-5.5,1.2-8.2c1-3,2.7-5.8,5-8.1c5.3-5.2,12.7-7.6,20-6.6
		c1.9,0.3,3.7,0.8,5.5,1.6c1.7,0.7,3.3,1.8,4.5,3.3c1.2,1.5,1.7,3.4,1.3,5.2c-0.2,0.9-0.7,1.7-1.3,2.3c-0.7,0.6-1.5,1-2.3,1.2
		c-1.6,0.3-3.3,0.3-4.9-0.2c-1.5-0.4-3-0.8-4.4-1.3c-2.6-0.9-5.1-2.4-7.1-4.3c-0.9-0.8-1.6-1.8-2.2-2.9c-0.5-1-0.8-2-1-3.1
		c-0.3-1.7-0.1-3.5,0.6-5.1c0.4-1,1.1-1.9,2-2.6c0.3-0.2,0.6-0.4,1-0.6c0,0-0.3,0.2-0.9,0.7c-0.8,0.7-1.5,1.6-1.9,2.6
		c-0.6,1.6-0.8,3.3-0.5,5c0.2,1,0.5,2.1,1,3c0.6,1,1.3,2,2.1,2.8c2,1.8,4.4,3.2,7,4.1c1.4,0.5,2.9,1,4.4,1.3
		c1.5,0.4,3.1,0.4,4.7,0.1c0.8-0.2,1.5-0.6,2.1-1.1c0.6-0.6,1-1.3,1.2-2.1c0.3-1.7-0.1-3.5-1.2-4.8c-1.2-1.4-2.7-2.4-4.3-3.1
		c-1.7-0.7-3.5-1.3-5.4-1.6c-7.2-1.1-14.5,1.3-19.7,6.3c-2.2,2.2-3.9,4.9-4.9,7.9c-0.9,2.6-1.3,5.3-1.2,8c0.1,2.3,0.4,4.5,1.1,6.6
		c0.5,1.6,1.2,3.2,2,4.6C38.8,214.2,39.6,215.4,40.5,216.6z"/>
	<path class="st4" d="M51,216.6c0.1,0.3,0.2,0.7,0.2,1c0.1,0.4,0.1,0.8,0.2,1.1c0,0.5,0.1,1,0.1,1.5c0,1.3-0.1,2.7-0.3,4
		c-0.6,3.3-1.8,6.3-3.7,9.1c-0.8,1.1-1.6,2.1-2.6,3.1c-0.4,0.4-0.7,0.7-1.2,1c-0.3,0.3-0.6,0.5-0.9,0.7c-0.3,0.2-0.5,0.4-0.8,0.5
		c-0.1-0.1,1.1-0.9,2.6-2.5c0.9-0.9,1.7-2,2.5-3.1c1.8-2.7,3-5.7,3.6-8.9c0.2-1.3,0.4-2.6,0.4-3.9C51.2,218,50.9,216.6,51,216.6z"/>
	<path class="st4" d="M209.5,235.3c-0.2,0-0.3-0.1-0.5-0.1c-0.3-0.1-0.8-0.2-1.4-0.5c-1.7-0.7-3.3-1.5-4.8-2.5
		c-10.4-6.7-15.8-19.1-13.4-31.3c0.3-1.8,0.8-3.6,1.5-5.2c0.2-0.6,0.5-1.1,0.6-1.4c0.1-0.2,0.1-0.3,0.2-0.4c0,0-0.2,0.7-0.6,1.9
		c-0.6,1.7-1,3.5-1.3,5.2c-2.1,12,3.1,24.2,13.3,30.9c1.5,1,3.1,1.9,4.7,2.6C208.3,234.7,208.9,235,209.5,235.3z"/>
	<path class="st4" d="M243.5,246h-1c-0.9,0-1.9,0.1-2.8,0.2c-3.4,0.4-6.7,1.6-9.7,3.5c-4.4,2.8-7.6,7-9.1,11.9
		c-0.9,2.9-1.2,5.9-0.9,8.9c0.2,1.6,0.5,3.1,1,4.6c0.5,1.5,1.4,2.9,2.6,4.1c1.2,1.1,2.7,1.7,4.3,1.8c1.6,0,3-0.7,3.9-2
		c0.8-1.3,1.3-2.7,1.3-4.2c0-1.5-0.2-2.9-0.8-4.3c-1-2.6-2.6-4.8-4.8-6.5c-1.9-1.5-4.1-2.3-6.5-2.5c-2-0.1-3.9,0.4-5.6,1.3
		c-1.3,0.7-2.4,1.7-3.3,2.9c-0.8,1-1.3,2.2-1.7,3.4c0-0.1,0-0.2,0-0.2c0-0.2,0.1-0.4,0.2-0.7c0.3-0.9,0.7-1.8,1.3-2.5
		c0.9-1.2,2.1-2.3,3.4-3c1.8-1,3.8-1.5,5.8-1.5c2.5,0.1,4.8,1,6.8,2.5c2.3,1.7,4,4,5,6.6c0.6,1.4,0.8,2.9,0.8,4.5
		c0,1.6-0.5,3.2-1.4,4.5c-1,1.4-2.6,2.2-4.4,2.2c-1.7,0-3.4-0.7-4.7-1.9c-1.2-1.2-2.2-2.6-2.7-4.3c-0.5-1.5-0.9-3.1-1-4.8
		c-0.3-3.1,0.1-6.2,1-9.1c0.8-2.7,2.2-5.1,3.9-7.3c1.5-1.9,3.4-3.5,5.4-4.8c3-1.9,6.4-3,9.9-3.3C241,245.8,242.2,245.8,243.5,246z"
		/>
	<path class="st4" d="M244.4,338.6c-0.2,0.1-0.4,0.3-0.6,0.4c-0.6,0.4-1.2,0.7-1.8,0.9c-2.3,1-4.8,1.5-7.4,1.5
		c-3.8,0.1-7.5-0.8-10.9-2.4c-4.1-2.1-7.6-5.2-10.2-9.1c-2.6-3.8-4.3-8.1-5.2-12.7c-0.7-3.7-0.9-7.4-0.6-11.2c0.2-2.5,0.5-5,1.1-7.5
		c0.2-0.9,0.4-1.5,0.5-2c0.1-0.2,0.1-0.5,0.2-0.7c0,0.2,0,0.5-0.1,0.7c-0.1,0.5-0.2,1.2-0.4,2c-0.4,2.5-0.7,5-0.9,7.5
		c-0.2,3.7,0,7.4,0.7,11.1c0.9,4.5,2.6,8.7,5.1,12.5c2.5,3.8,6,6.9,10,8.9c3.3,1.6,7,2.5,10.7,2.5c2.5,0,5-0.5,7.3-1.4
		c0.6-0.2,1.3-0.5,1.9-0.8C244,338.7,244.2,338.6,244.4,338.6z"/>
	<path class="st8" d="M171.2,259.4l0.1-0.2c0,0-9.8-51.6-10-53c-0.5-3.4-4-8-6.4-3.1l-0.9-6.2c0,0-5.7-0.5-5,6.3c0,0-4-0.1-3.3,8.5
		c0.6,7.4,1.1,23.4,1.1,23.4s-3.5-7.8-5-11.3s-5.2-4-7.5-1c0,0,6.9,16.8,6.2,19.3s0.7,17.8,7.1,23c1,0.8,2,1.4,3.1,2l16.6,23.5
		l5.2,7.3l20-14.8L171.2,259.4z"/>
	<path class="st9" d="M152,231c-0.1-0.2-0.1-0.5-0.1-0.7c-0.1-0.5-0.2-1.2-0.3-2c-0.2-1.8-0.6-4.4-1-7.6s-0.9-7.1-1.4-11.6
		c-0.1-1.1-0.2-2.3-0.4-3.4c-0.2-1.2-0.2-2.5,0-3.7c0.2-1.3,0.8-2.5,1.7-3.5c1-1,2.2-1.7,3.6-1.9h0.2v0.3c0.5,5.5,1.2,11.5,2,17.7
		c1.1,9.3,2.1,18,2.7,25.6v0.3h-0.3c-0.3,0-0.5,0.2-0.6,0.4c-0.2,0.2-0.4,0.4-0.6,0.7c-0.3,0.5-0.6,1.1-0.9,1.7
		c-0.5,1.1-0.9,2.3-1.2,3.4c-0.7,2.3-1.1,4.4-1.6,6.4c-1,3.9-1.8,7.2-2.4,9.6l0,0c0,0.7,0.2,1.4,0.5,2c0.2,0.4,0.5,0.9,0.8,1.3
		c0.5,0.6,0.8,1,0.8,1c-0.3-0.3-0.6-0.6-0.9-0.9c-0.3-0.4-0.6-0.8-0.9-1.3c-0.4-0.6-0.6-1.3-0.6-2.1l0,0l2.3-9.6
		c0.5-2,0.9-4.1,1.6-6.4c0.3-1.2,0.7-2.4,1.2-3.5c0.3-0.6,0.6-1.2,0.9-1.7c0.2-0.3,0.4-0.6,0.6-0.8c0.3-0.3,0.7-0.5,1.1-0.5
		l-0.3,0.2c-0.6-7.6-1.7-16.3-2.7-25.6c-0.7-6.2-1.4-12.2-2-17.8l0.3,0.2c-1.3,0.2-2.4,0.8-3.3,1.7c-0.8,0.9-1.4,2-1.6,3.3
		c-0.2,1.2-0.2,2.4,0,3.6c0.1,1.2,0.2,2.3,0.3,3.4c0.4,4.4,0.9,8.3,1.3,11.6s0.7,5.8,0.9,7.6c0.1,0.9,0.1,1.5,0.2,2
		C152,230.6,152,230.8,152,231z"/>
	<path class="st9" d="M144.7,229.9c0.4,0.4,0.7,0.8,0.9,1.3c0.6,1.2,1.1,2.5,1.5,3.8l-0.2-0.2c1.4,0.3,2.7,0.9,3.9,1.6
		c2,1.3,3.6,3.1,4.6,5.2c0.3,0.6,0.5,1.3,0.7,2c0.1,0.5,0.1,0.8,0.1,0.8s-0.3-1.1-1.1-2.6c-1.1-2-2.6-3.7-4.5-4.9
		c-1.1-0.7-2.4-1.3-3.7-1.6h-0.1v-0.1C146.2,233.3,145.5,231.6,144.7,229.9z"/>
</g>
<g id="Stopwatch--inject-35">
	
		<rect x="488.9" y="78.1" transform="matrix(0.5194 -0.8545 0.8545 0.5194 164.8469 461.7658)" class="st5" width="8" height="12.5"/>
	<path class="st6" d="M495.2,76l-8.6,14.1l-11.5-7c1.5-5.4,4.5-10.2,8.6-14.1L495.2,76z"/>
	<path class="st5" d="M488,87.7c-0.1,0.2-2.9-1.2-6.3-3.2s-5.9-3.8-5.8-4s2.9,1.2,6.3,3.2S488.2,87.5,488,87.7z"/>
	<path class="st5" d="M489.6,85c-0.2,0.2-3-1.3-6.3-3.5s-5.9-4-5.8-4.2s3,1.2,6.4,3.4S489.8,84.8,489.6,85z"/>
	<path class="st5" d="M491.8,81.4c-0.1,0.2-3-1.4-6.3-3.6s-6-4.1-5.9-4.3s3,1.3,6.4,3.5S491.9,81.2,491.8,81.4z"/>
	<path class="st5" d="M493.8,78.1c-0.1,0.2-2.9-1.2-6.2-3.3s-5.9-3.9-5.8-4.1s2.9,1.2,6.2,3.3S493.9,77.9,493.8,78.1z"/>
	
		<rect x="581.5" y="50.9" transform="matrix(0.4739 -0.8806 0.8806 0.4739 260.7929 546.4059)" class="st5" width="12.5" height="8"/>
	<path class="st6" d="M596.2,56.7l-14.5-7.8l6.4-11.8c5.5,1.3,10.5,4,14.5,7.8L596.2,56.7z"/>
	<path class="st5" d="M584.1,50.2c-0.2-0.1,1-3,2.9-6.4s3.5-6.1,3.7-6s-1,3-2.9,6.4S584.3,50.3,584.1,50.2z"/>
	<path class="st5" d="M586.9,51.7c-0.2-0.1,1.2-3,3.1-6.5s3.7-6.1,3.9-6.1s-1.1,3.1-3,6.5S587.1,51.8,586.9,51.7z"/>
	<path class="st5" d="M590.6,53.6c-0.2-0.1,1.2-3,3.2-6.5s3.8-6.2,4-6.1s-1.1,3.1-3.1,6.6S590.8,53.8,590.6,53.6z"/>
	<path class="st5" d="M594,55.4c-0.2-0.1,1.1-3,2.9-6.4s3.5-6.1,3.8-6s-1.1,3-2.9,6.4S594.2,55.5,594,55.4z"/>
	<rect x="530.2" y="41.9" transform="matrix(0.951 -0.3092 0.3092 0.951 10.957 167.8007)" class="st5" width="9.5" height="14.8"/>
	<path class="st3" d="M543.3,43.5l-18.5,6l-4.9-15.2c5.5-3.6,11.9-5.7,18.5-6L543.3,43.5z"/>
	<path class="st5" d="M538.6,28.3c0.2,0.1-3.1,3.7-8.7,5.4c-5.5,1.8-10.3,1-10.2,0.8s4.6,0.1,9.9-1.7
		C535,31.1,538.4,28.1,538.6,28.3z"/>
	<path class="st5" d="M530.9,47.5c-0.2,0.1-1.4-2.8-2.6-6.3s-1.9-6.6-1.7-6.7s1.4,2.8,2.6,6.3S531.2,47.4,530.9,47.5z"/>
	<path class="st5" d="M534.4,46.4c-0.3,0.1-1.4-2.8-2.6-6.4s-1.9-6.6-1.7-6.7s1.4,2.8,2.6,6.4S534.7,46.3,534.4,46.4z"/>
	<path class="st5" d="M538,45.2c-0.2,0.1-1.4-2.8-2.6-6.4s-1.9-6.6-1.7-6.7s1.4,2.8,2.6,6.4S538.2,45.1,538,45.2z"/>
	<path class="st5" d="M540.9,44.3c-0.3,0.1-1.5-3-2.8-6.9s-2.1-7.1-1.8-7.2s1.5,3,2.8,6.9S541.2,44.2,540.9,44.3z"/>
	<path class="st5" d="M527.5,48.5c-0.2,0.1-1.5-3-2.8-6.9s-2.1-7.1-1.8-7.2s1.5,3,2.8,6.9S527.8,48.4,527.5,48.5z"/>
	
		<ellipse transform="matrix(0.7071 -0.7071 0.7071 0.7071 79.4698 427.7227)" class="st3" cx="556" cy="117.9" rx="68.9" ry="68.9"/>
	<circle class="st7" cx="555.8" cy="117.4" r="57.9"/>
	<path class="st5" d="M610.9,99.5c0,0-0.2-0.3-0.4-0.9s-0.6-1.5-1-2.6c-0.2-0.6-0.5-1.2-0.8-1.9s-0.7-1.4-1.1-2.2
		c-0.9-1.8-1.9-3.6-3-5.3c-3-4.7-6.6-9-10.8-12.6c-12.5-10.8-28.9-15.8-45.3-13.7c-2.4,0.3-4.8,0.8-7.2,1.5c-1.2,0.3-2.4,0.6-3.6,1
		l-3.5,1.4c-0.6,0.2-1.2,0.4-1.8,0.7l-1.7,0.9c-1.2,0.6-2.3,1.1-3.5,1.8c-4.6,2.8-8.9,6.1-12.7,10c-1,1-1.8,2.1-2.7,3.1
		c-0.9,1.1-1.8,2.2-2.5,3.3c-1.7,2.3-3.2,4.8-4.5,7.3c-1.3,2.6-2.4,5.3-3.3,8.1c-1.9,5.7-2.9,11.6-2.9,17.6
		c-0.1,12.4,3.8,24.5,11.2,34.4c3.5,4.8,7.8,9.1,12.7,12.5c4.6,3.4,9.8,6.1,15.3,7.8c1.3,0.5,2.6,0.9,4,1.2c1.4,0.3,2.7,0.7,4.1,0.9
		c2.7,0.5,5.4,0.7,8.1,0.8c2.7,0.1,5.3,0,8-0.2c1.3-0.1,2.6-0.4,3.9-0.6l1.9-0.3c0.6-0.1,1.2-0.3,1.9-0.5l3.7-1
		c1.2-0.4,2.4-0.9,3.5-1.3c2.3-0.8,4.5-1.8,6.7-3c14.5-7.9,24.9-21.7,28.6-37.7c1.3-5.4,1.7-11,1.4-16.6c-0.1-2-0.3-4.1-0.7-6.1
		c-0.2-0.9-0.2-1.7-0.4-2.4s-0.3-1.4-0.5-2c-0.3-1.1-0.5-2-0.7-2.7S610.9,99.5,610.9,99.5c0,0,0.1,0.3,0.3,0.9s0.4,1.5,0.8,2.6
		c0.2,0.6,0.3,1.2,0.5,2s0.3,1.5,0.5,2.4c0.4,2,0.7,4,0.8,6.1c0.5,5.6,0,11.2-1.2,16.7c-3.6,16.3-14.1,30.3-28.7,38.3
		c-2.2,1.2-4.4,2.2-6.7,3.1c-1.2,0.4-2.3,0.9-3.6,1.3l-3.7,1c-0.6,0.2-1.2,0.4-1.9,0.5l-1.9,0.3c-1.3,0.2-2.6,0.5-3.9,0.6
		c-2.7,0.3-5.4,0.3-8.1,0.2c-2.8-0.1-5.5-0.3-8.3-0.8c-1.4-0.2-2.7-0.6-4.1-0.9c-1.4-0.3-2.8-0.7-4.1-1.2
		c-5.6-1.8-10.8-4.5-15.6-7.9c-5-3.5-9.3-7.8-12.9-12.7c-7.5-10.1-11.5-22.4-11.4-35c0-6.1,1-12.1,3-17.9c0.9-2.8,2.1-5.5,3.4-8.2
		c1.4-2.6,2.9-5,4.6-7.4c0.8-1.2,1.7-2.3,2.6-3.4c0.9-1.1,1.8-2.2,2.8-3.2c1.9-2,4-3.8,6.2-5.5c2.1-1.7,4.4-3.2,6.7-4.6
		c1.2-0.7,2.4-1.2,3.5-1.8l1.8-0.9c0.6-0.3,1.2-0.5,1.8-0.7l3.6-1.4c1.2-0.4,2.5-0.7,3.7-1c2.4-0.6,4.8-1.1,7.3-1.4
		c16.6-2.1,33.2,3,45.8,14c4.2,3.7,7.9,8,10.8,12.8c1.1,1.7,2.1,3.5,2.9,5.3c0.4,0.8,0.8,1.5,1.1,2.2s0.5,1.3,0.7,1.9
		c0.4,1.1,0.7,2,0.9,2.6S610.9,99.5,610.9,99.5z"/>
	<path class="st5" d="M602.5,101.3c-5,1.7-9.2,2.8-9.3,2.4s3.7-2.2,8.7-4.2s9.1-3,9.3-2.4S607.5,99.5,602.5,101.3z"/>
	<path class="st5" d="M600.4,138.8c-4.8-2.3-8.5-4.4-8.3-4.8s4.2,1,9.1,3.1s8.6,4.2,8.3,4.8S605.2,141.1,600.4,138.8z"/>
	<path class="st5" d="M572.5,163.9c-1.8-5-2.9-9.1-2.5-9.3s2.3,3.7,4.2,8.6s3.1,9,2.5,9.3S574.2,168.9,572.5,163.9z"/>
	<path class="st5" d="M534.9,162.2c2.2-4.8,4.4-8.5,4.7-8.4s-1,4.2-3,9.1s-4.2,8.6-4.7,8.4S532.7,167,534.9,162.2z"/>
	<path class="st5" d="M509.5,134.6c5-1.8,9.1-3,9.2-2.6s-3.7,2.3-8.6,4.3s-9,3.2-9.2,2.6S504.5,136.4,509.5,134.6z"/>
	<path class="st5" d="M510.8,97c4.8,2.2,8.6,4.3,8.4,4.6s-4.2-1-9.2-2.9s-8.7-4.1-8.4-4.6S506,94.9,510.8,97z"/>
	<path class="st5" d="M538.2,71.2c1.9,4.9,3.1,9.1,2.7,9.2s-2.3-3.7-4.4-8.5s-3.3-9-2.7-9.2S536.3,66.3,538.2,71.2z"/>
	<path class="st5" d="M575.7,72.1c-2.1,4.8-4.2,8.6-4.5,8.5s0.9-4.3,2.8-9.2s4-8.7,4.5-8.5S577.9,67.3,575.7,72.1z"/>
	<path class="st5" d="M601.8,99.2c-4.9,1.9-9,3.2-9.2,2.8s3.7-2.4,8.5-4.5s8.9-3.4,9.2-2.8S606.7,97.3,601.8,99.2z"/>
	<path class="st4" d="M515.1,64.8c-0.8,0.8-1.6,1.5-2.4,2.2c-2.2,2-4.3,4.1-6.3,6.3c-13.2,14.9-19.1,34.9-16,54.6
		c0.4,2.9,1.1,5.9,1.9,8.7c0.3,1,0.6,2.1,0.9,3.2c0,0-0.2-0.2-0.4-0.8s-0.5-1.3-0.8-2.3c-0.9-2.9-1.7-5.8-2.2-8.7
		c-3.5-19.9,2.5-40.3,16.2-55.2c2-2.2,4.2-4.3,6.5-6.2c0.8-0.7,1.5-1.1,2-1.5S515.1,64.8,515.1,64.8z"/>
	<path class="st4" d="M532.2,55.3c0.1,0.3-2.7,1.6-6.1,3.2s-6.2,3-6.3,2.7s2.5-2,5.9-3.6S532.2,55.1,532.2,55.3z"/>
	<g class="st11">
		<path d="M522.6,164.8c0,0,43.2,35.7,79.9-1.7c38.4-39.1-5.1-85.9-5.1-85.9s36,36.9,0.3,80.2c-8.9,10.8-21.1,14.8-30.7,16.9
			C542.4,179.5,522.6,164.8,522.6,164.8z"/>
	</g>
	<path class="st2" d="M561.7,83.2c2.9,8,5.3,16.1,7.1,24.4c0.8,3,1.1,6,1,9.1c-0.1,3.1-1.4,6-3.6,8.1c-2.3,2-5.9,2.7-8.5,1
		L561.7,83.2z"/>
	<polygon class="st3" points="553.2,113.4 562.3,73.3 562.6,115.2 557,119.1 	"/>
	<g class="st11">
		<polygon points="562.3,73.3 558.6,112.5 562.6,115.2 		"/>
	</g>
	<path class="st7" d="M563.4,117c1.2,3.6-0.8,7.4-4.4,8.5c-3.6,1.2-7.4-0.8-8.5-4.4c-1.2-3.6,0.8-7.4,4.3-8.5
		C558.5,111.5,562.3,113.4,563.4,117C563.4,117,563.4,117,563.4,117z"/>
	<path class="st5" d="M563.4,117c-0.1,0-0.3-0.6-0.9-1.4c-0.8-1.2-2.1-2.1-3.5-2.6c-3.3-1.1-6.9,0.7-8,4c-1.1,3.3,0.7,6.9,4,8
		c2.6,0.9,5.6-0.1,7.2-2.3c0.9-1.2,1.3-2.6,1.3-4.1C563.6,117.6,563.3,117,563.4,117c0.3,0.5,0.5,1,0.5,1.6c0.2,1.6-0.2,3.2-1.1,4.5
		c-1.3,2-3.6,3.2-6.1,3.2c-4-0.1-7.1-3.4-7-7.4c0.1-2.2,1.1-4.2,2.8-5.5c1.9-1.5,4.5-1.9,6.8-1c1.5,0.6,2.8,1.6,3.5,3
		C563.2,115.8,563.4,116.4,563.4,117z"/>
	<path class="st6" d="M561.8,117.5c0.8,2.6-0.6,5.4-3.3,6.3c-2.6,0.8-5.4-0.6-6.3-3.3c-0.8-2.6,0.6-5.4,3.2-6.3
		C558.1,113.4,560.9,114.8,561.8,117.5C561.8,117.4,561.8,117.5,561.8,117.5z"/>
	<path class="st5" d="M520,0c0,0,0,0.1-0.1,0.3l-0.2,0.8c-0.3,1-0.7,2-1.2,3c-2.9,6.3-7.7,11.4-13.8,14.6c-2.9,1.6-6.1,2.6-9.3,3.1
		c-7.8,1.2-15.7-0.5-22.3-4.8l0.4-0.3c3.9,7.8,3.9,18.3-0.9,27.1c-1.8,3.4-4.4,6.4-7.5,8.8c-8.6,6.4-19.9,7.7-29.8,3.5l0.2-0.4
		c4.8,3.5,8.2,8.6,9.6,14.4c1.7,7.4-0.1,15.2-4.9,21.1c-0.6,0.8-1.3,1.6-2.1,2.2c0,0,0,0,0.1-0.1l0.4-0.4c0.4-0.4,0.9-1,1.5-1.7
		c1.8-2.3,3.2-4.9,4.1-7.6c1.4-4.3,1.6-8.9,0.6-13.3c-1.4-5.7-4.8-10.7-9.5-14.2l-1.8-1.3l2,0.9c6.2,2.6,13.1,3.1,19.6,1.2
		c3.5-1,6.8-2.6,9.8-4.8c3-2.3,5.6-5.2,7.4-8.6c4.7-8.6,4.7-18.9,0.9-26.6l-0.4-0.8l0.8,0.5c6.5,4.3,14.3,6,22,4.8
		c6-1,11.6-3.7,16-7.9c2.9-2.7,5.3-6,7-9.5c0.5-1,0.9-1.9,1.2-2.9l0.3-0.8C520,0.1,520,0,520,0z"/>
	<path class="st5" d="M576.3,14.9c-0.4,0.2-0.9,0.3-1.4,0.4c-0.5,0.2-1.1,0.3-1.7,0.3c-0.7,0.1-1.5,0.2-2.2,0.2h-1.3
		c-0.5,0-0.9,0-1.4-0.1c-1-0.1-2.1-0.2-3.1-0.4c-2.3-0.5-4.6-1.2-6.8-2.2c-2.1-1.1-4.1-2.4-5.9-3.9c-0.8-0.7-1.5-1.4-2.2-2.2
		c-0.3-0.4-0.7-0.7-0.9-1.1l-0.8-1c-0.4-0.6-0.8-1.2-1.2-1.9c-0.3-0.5-0.6-1-0.8-1.5c-0.2-0.4-0.4-0.9-0.5-1.3
		c0.1-0.1,0.9,1.9,2.8,4.5l0.8,1c0.3,0.3,0.6,0.7,0.9,1c0.7,0.8,1.4,1.5,2.2,2.1c1.8,1.5,3.8,2.8,5.8,3.8c2.1,1,4.3,1.7,6.6,2.2
		c1,0.2,2,0.3,3,0.4c0.5,0,0.9,0.1,1.4,0.1h1.3C574.3,15.3,576.3,14.7,576.3,14.9z"/>
	<path class="st5" d="M663.4,134.3c0,0-0.1,0.1-0.3,0.1l-0.8,0.4c-0.4,0.2-0.8,0.4-1.3,0.6s-1.1,0.6-1.8,1c-6.4,3.8-11.7,9.3-15,16
		c-1.6,3.2-2.7,6.6-3.3,10.1c-1.4,8.2-0.1,16.7,3.8,24.1l0.2,0.5l-0.5-0.1c-6.7-1.3-13.6-0.4-19.8,2.4c-3,1.3-5.7,3.1-8.1,5.3
		c-2.3,2.1-4.3,4.5-5.9,7.2c-3,5-4.6,10.7-4.7,16.5v0.5l-0.4-0.4c-2.4-2.2-5.2-4-8.3-5.2c-1.4-0.6-2.9-1-4.3-1.4
		c-1.4-0.3-2.8-0.5-4.3-0.7c-4.9-0.5-9.8,0.2-14.3,2c-2.9,1.1-5.7,2.7-8.1,4.7c-0.8,0.7-1.4,1.3-1.8,1.7l-0.5,0.4
		c-0.1,0.1-0.2,0.1-0.2,0.1c0.8-0.8,1.5-1.6,2.4-2.4c2.4-2.1,5.1-3.7,8.1-4.9c4.6-1.8,9.5-2.5,14.5-2.1c1.5,0.1,2.9,0.3,4.3,0.6
		c1.5,0.4,3,0.8,4.4,1.4c3.1,1.2,6,3,8.4,5.2l-0.4,0.2c0.1-9.2,4-17.9,10.8-24.1c2.4-2.2,5.2-4,8.2-5.4c6.3-2.9,13.3-3.7,20.1-2.4
		l-0.3,0.4c-3.9-7.5-5.2-16.1-3.8-24.4c0.6-3.5,1.7-7,3.4-10.2c1.4-2.7,3.1-5.3,5.1-7.6c2.9-3.3,6.3-6.1,10.1-8.3
		C660.5,135.6,661.9,134.9,663.4,134.3z"/>
	<path class="st5" d="M653.6,107.9c-0.1-0.1-0.2-0.2-0.3-0.4c-0.3-0.4-0.6-0.8-0.9-1.2c-2.5-4.1-2.9-9.2-1.1-13.6
		c1.4-3.4,4.1-6.2,7.4-7.8v0.5c-4.1-1-8.1-2.6-11.8-4.7c-4.5-2.5-8.3-6.2-10.9-10.8c-2-3.8-2.8-8-2.5-12.3c0.2-2.9,1.2-5.6,2.8-8
		l0.8-1.1c0.2-0.3,0.5-0.5,0.7-0.7c0.2-0.2,0.4-0.4,0.6-0.6c-0.2,0.2-0.3,0.4-0.5,0.6c-0.2,0.2-0.4,0.4-0.6,0.8s-0.5,0.7-0.8,1.1
		c-1.5,2.4-2.4,5.1-2.6,7.9c-0.3,4.2,0.5,8.3,2.5,12c2.6,4.4,6.3,8.1,10.8,10.6c3.7,2.1,7.6,3.6,11.7,4.6l0.7,0.2l-0.6,0.3
		c-3.2,1.6-5.8,4.2-7.2,7.5c-1.1,2.6-1.5,5.4-1,8.2c0.3,1.8,0.9,3.6,1.8,5.2C653.2,107.3,653.6,107.9,653.6,107.9z"/>
</g>
<g id="Table--inject-35">
	<path class="st5" d="M646.2,422.8c0,0.1-140.6,0.3-314,0.3s-314-0.1-314-0.3s140.6-0.3,314-0.3S646.2,422.7,646.2,422.8z"/>
</g>
</svg>
