<?xml version="1.0" encoding="utf-8"?>
<!-- Generator: Adobe Illustrator 24.1.3, SVG Export Plug-In . SVG Version: 6.00 Build 0)  -->
<svg version="1.1" id="Layer_1" xmlns="http://www.w3.org/2000/svg" xmlns:xlink="http://www.w3.org/1999/xlink" x="0px" y="0px"
	 viewBox="0 0 458.9 237.5" style="enable-background:new 0 0 458.9 237.5;" xml:space="preserve">
<style type="text/css">
	.st0{fill:#263238;}
	.st1{fill:#455A64;}
	.st2{opacity:0.2;enable-background:new    ;}
	.st3{opacity:0.2;}
	.st4{fill:#FFBE9D;}
	.st5{fill:#EB996E;}
	.st6{fill:#0061F2;}
	.st7{fill:#FFFFFF;}
	.st8{opacity:0.3;enable-background:new    ;}
	.st9{opacity:0.5;fill:#FFFFFF;enable-background:new    ;}
</style>
<g id="Floor--inject-462">
	<path class="st0" d="M458.9,237.1c0,0.1-102.7,0.3-229.4,0.3S0,237.3,0,237.1s102.7-0.3,229.4-0.3S458.9,237,458.9,237.1z"/>
</g>
<g id="Character--inject-462">
	<polygon class="st1" points="246.5,148.4 244.5,237.4 240.5,237.4 240.8,148.6 	"/>
	<polygon class="st1" points="260.7,147.4 279.8,237.4 284.1,237.4 268.3,147.4 	"/>
	<polygon class="st1" points="224.9,148.4 203.8,237.4 199.4,237.4 218.6,148 	"/>
	<path class="st1" d="M279.8,63.1c0,0,21.1-1.2,19,23.2s-3.3,49.1-11.1,57.5s-86.7,8.7-93.3,1.8s12.6-6.6,16.2-6.6
		s25.9,2.1,33.1-16.9S249.1,61.8,279.8,63.1z"/>
	<path class="st1" d="M281.2,63.1c0,0,16.1,3.3,14.6,20.2s-5.7,46.4-13.5,53.9s-38.5,9.2-55.1,8.1c-19.3-1.2-31.4-4.9-31.4-4.9
		s-3.5,2.3-2.4,3.7s10.5,7.3,56,6.3s42.4-7.7,44.3-15s5.9-46.5,5.3-55.1S294,64.5,281.2,63.1z"/>
	<path class="st2" d="M281.2,63.1c0,0,16.1,3.3,14.6,20.2s-5.7,46.4-13.5,53.9s-38.5,9.2-55.1,8.1c-19.3-1.2-31.4-4.9-31.4-4.9
		s-3.5,2.3-2.4,3.7s10.5,7.3,56,6.3s42.4-7.7,44.3-15s5.9-46.5,5.3-55.1S294,64.5,281.2,63.1z"/>
	<path class="st1" d="M268,95.9c0.2,1,1.2,1.6,2.2,1.3c1-0.2,1.6-1.2,1.3-2.2c-0.2-0.8-0.9-1.4-1.8-1.4
		C268.6,93.8,267.8,94.8,268,95.9C268,95.9,268,95.9,268,95.9z"/>
	<path class="st1" d="M269.2,86c-0.3,1.1-0.5,2.1-0.6,3.2c0,1.2,0.3,2.4,0.8,3.4c0.3,0.6,0.7,1.2,1.1,1.7c0.3,0.3,0.6,0.6,0.8,0.9
		c0.3,0.4,0.4,0.9,0.3,1.3c-0.2,0.8-0.5,1.5-0.9,2.2c-0.2,0.7-0.3,1.3-0.3,2c0,1.2,0.3,2.3,0.9,3.4c0.6,0.9,1.2,1.8,2,2.6
		c0,0-0.3-0.1-0.8-0.5c-0.6-0.5-1.2-1.2-1.6-1.9c-0.7-1.1-1-2.3-1.1-3.6c0-0.8,0.1-1.5,0.3-2.2c0.3-0.7,0.6-1.4,0.9-2.1
		c0.2-0.7-0.4-1.1-0.9-1.7c-0.5-0.6-0.9-1.2-1.2-1.9c-0.5-1.1-0.8-2.4-0.7-3.7c0-0.8,0.2-1.7,0.5-2.5
		C268.8,86.5,268.9,86.2,269.2,86z"/>
	<path class="st1" d="M264.4,93c0.1,0,0,0.5,0.2,1.3c0.3,1,0.9,1.8,1.8,2.4c0.9,0.5,1.8,0.9,2.9,1c0.8,0.1,1.3,0.1,1.3,0.2
		S270,98,269.2,98c-1.1,0-2.2-0.3-3.2-0.9c-1-0.6-1.6-1.6-1.8-2.8C264.1,93.5,264.3,92.9,264.4,93z"/>
	<g class="st3">
		<path d="M268,95.9c0.2,1,1.2,1.6,2.2,1.3c1-0.2,1.6-1.2,1.3-2.2c-0.2-0.8-0.9-1.4-1.8-1.4C268.6,93.8,267.8,94.8,268,95.9
			C268,95.9,268,95.9,268,95.9z"/>
		<path d="M269.2,86c-0.3,1.1-0.5,2.1-0.6,3.2c0,1.2,0.3,2.4,0.8,3.4c0.3,0.6,0.7,1.2,1.1,1.7c0.3,0.3,0.6,0.6,0.8,0.9
			c0.3,0.4,0.4,0.9,0.3,1.3c-0.2,0.8-0.5,1.5-0.9,2.2c-0.2,0.7-0.3,1.3-0.3,2c0,1.2,0.3,2.3,0.9,3.4c0.6,0.9,1.2,1.8,2,2.6
			c0,0-0.3-0.1-0.8-0.5c-0.6-0.5-1.2-1.2-1.6-1.9c-0.7-1.1-1-2.3-1.1-3.6c0-0.8,0.1-1.5,0.3-2.2c0.3-0.7,0.6-1.4,0.9-2.1
			c0.2-0.7-0.4-1.1-0.9-1.7c-0.5-0.6-0.9-1.2-1.2-1.9c-0.5-1.1-0.8-2.4-0.7-3.7c0-0.8,0.2-1.7,0.5-2.5
			C268.8,86.5,268.9,86.2,269.2,86z"/>
		<path d="M264.4,93c0.1,0,0,0.5,0.2,1.3c0.3,1,0.9,1.8,1.8,2.4c0.9,0.5,1.8,0.9,2.9,1c0.8,0.1,1.3,0.1,1.3,0.2S270,98,269.2,98
			c-1.1,0-2.2-0.3-3.2-0.9c-1-0.6-1.6-1.6-1.8-2.8C264.1,93.5,264.3,92.9,264.4,93z"/>
	</g>
	<path class="st0" d="M243.8,2.2c-0.3-0.1-0.6-0.2-1.1-0.3c-1.6-0.4-3.2-0.6-4.8-0.4c-2.4,0.2-4.7,1.2-6.5,2.9c-1,1-1.9,2.2-2.4,3.6
		c-0.3,0.7-0.4,1.5-0.4,2.2c0,0.8,0.1,1.5,0,2.3c0,0.7-0.3,1.4-0.8,1.9c-0.6,0.4-1.2,0.8-1.9,1c-0.7,0.3-1.3,0.6-1.9,1.1
		c-1.6,1.4-2.2,3.5-1.7,5.5c0.4,1.1,0.8,2.1,1.4,3c0.2,0.4,0.4,0.8,0.6,1.1c0,0.3,0,0.6,0,0.9c-0.2,1.4-0.9,2.6-1.9,3.6
		c-1,0.9-1.9,2-2.6,3.2c-0.7,1.2-0.7,2.7,0.2,3.9c1,1.2,2.8,1.2,4.3,1.1c5.3,0,10.7,0.3,16,0.9l4.3-37.2
		C244.5,2.4,244.1,2.3,243.8,2.2z M230.3,8.8c-0.2,1.5,0,3.1-0.7,4.4s-2.3,2.1-3.5,3.1c-1.9,1.7-2.8,4.2-2.3,6.7
		c0.1,0.6,0.3,1.2,0.5,1.9l-0.1-0.1c-0.6-0.9-1-1.9-1.3-3c-0.3-1.2-0.2-2.4,0.4-3.5c0.3-0.6,0.7-1.1,1.2-1.5c0.5-0.4,1.1-0.8,1.8-1
		c0.7-0.3,1.4-0.6,2-1.1c0.6-0.6,0.9-1.4,0.9-2.2c0-0.8-0.1-1.6,0-2.3c0-0.7,0.2-1.4,0.4-2.1c0.5-1.3,1.2-2.4,2.2-3.4
		c1.7-1.6,3.9-2.6,6.2-2.8c0.5-0.1,1-0.1,1.5-0.1c-1.2,0-2.3,0.3-3.5,0.6C233.1,3.3,230.9,5.8,230.3,8.8L230.3,8.8z"/>
	<path class="st4" d="M237.7,46.2c0.3-1.7-0.2-8.9-0.2-8.9s-6.4-0.8-6.7-7.4s0.4-21.6,0.4-21.6l11.8-5.7l10.3,11.7l0.2,31.7
		L237.7,46.2z"/>
	<path class="st0" d="M232.8,19.3c0,0.5,0.4,0.8,0.8,0.8c0.5,0,0.8-0.4,0.8-0.8c0-0.4-0.4-0.8-0.8-0.8
		C233.1,18.5,232.8,18.8,232.8,19.3z"/>
	<path class="st0" d="M231.4,18.4c0.1,0.1,0.7-0.4,1.6-0.4c0.9,0,1.5,0.4,1.6,0.3s-0.1-0.2-0.3-0.5c-0.4-0.3-0.8-0.4-1.3-0.4
		c-0.5,0-0.9,0.2-1.3,0.5C231.5,18.1,231.4,18.3,231.4,18.4z"/>
	<path class="st0" d="M242.3,19.3c0,0.5,0.4,0.8,0.8,0.8c0.5,0,0.8-0.4,0.8-0.8c0-0.4-0.4-0.8-0.8-0.8
		C242.7,18.5,242.3,18.8,242.3,19.3z"/>
	<path class="st0" d="M241.1,18.5c0.1,0.1,0.7-0.4,1.6-0.4s1.5,0.4,1.6,0.3s-0.1-0.2-0.3-0.5c-0.4-0.3-0.8-0.4-1.3-0.4
		c-0.5,0-0.9,0.2-1.3,0.5C241.2,18.3,241.1,18.5,241.1,18.5z"/>
	<path class="st0" d="M237.9,26.1c-0.5-0.1-0.9-0.2-1.4-0.2c-0.2,0-0.4,0-0.5-0.2c0-0.2,0-0.5,0.1-0.7c0.2-0.6,0.4-1.2,0.6-1.9
		c0.6-1.6,1.1-3.2,1.4-4.8c-0.7,1.5-1.3,3.1-1.8,4.7c-0.2,0.6-0.4,1.3-0.6,1.9c-0.1,0.3-0.2,0.6-0.1,0.9c0.1,0.2,0.2,0.3,0.4,0.3
		c0.1,0,0.3,0,0.4,0C236.9,26.1,237.4,26.1,237.9,26.1z"/>
	<path class="st5" d="M237.4,37.2c3-0.1,6-1,8.5-2.8c0,0-2,4.8-8.4,4.4L237.4,37.2z"/>
	<path class="st0" d="M269.2,23.1c-0.4,0.1-0.8,0.1-1.2,0c-0.7-1.2-2.1-2-3.1-3.1c-0.2-1-0.1-1.9,0.2-2.9c0.2-0.5,0.3-1,0.5-1.6
		c0.1-0.6,0.1-1.2-0.1-1.8c-0.5-1.1-1.4-1.9-2.6-2.4c-0.9-1.2-2.5-1.8-3.6-2.9c-0.2-0.6-0.4-1.2-0.5-1.8c-0.1-1-0.4-1.9-0.8-2.9
		c-0.4-0.8-1-1.5-1.7-2c-0.8-0.6-1.8-1-2.8-1.2c-0.7-0.4-1.5-0.6-2.3-0.8c-2.5-0.4-5,0.5-6.7,2.2c-3.6-0.9-7.4-0.3-10.6,1.6
		c-1.4,0.8-2.6,2-3.4,3.4c-0.5,1.4-0.7,2.8-0.6,4.2c0,1,0,2.1,0,3.1c0,0.3,0,0.5,0.1,0.8c0.3,0.3,0.7,0.5,1.1,0.4L236,16
		c0.3,0,0.7,0,1-0.1c0.5-0.3,0.8-0.9,0.8-1.5c0-0.4,0-1.4,0-1.6c0.2,0.6,0.3,1.2,0.6,1.9c0.1,0.7,0.4,1.3,1,1.7
		c0.4,0.2,0.9,0.3,1.4,0.2c0.7,0,1.4,0,2.1,0c0.4,0,0.7-0.1,1-0.2c0.4-0.4,0.5-1,0.4-1.5c-0.2-0.7-0.3-1.4-0.3-2.1
		c0.6,1.2,0.9,2.7,1.7,2.9c0.8,0.1,1.6,0.1,2.3-0.2c0.8-0.2,1.3-0.4,1.9-0.6c0,0.3-0.1,0.6-0.2,0.9c-0.6,1.6-1.9,3.1-1.4,4.7
		s2.1,2.2,2.9,3.4c0.8,1.5,0.9,3.2,0.2,4.8c-0.7,1.5-1.3,3.1-1.8,4.6c-0.4,1.6-0.1,3.5,1.2,4.5c1.1,0.7,2.4,1,3.7,0.8l11.6,0.1
		c0.7,0.1,1.5,0,2.2-0.2c0.7-0.2,1.3-0.8,1.5-1.6c0-0.9-0.3-1.8-1.1-2.3c-0.7-0.6-1.3-1.2-1.8-2c-0.6-1.3,0-2.8,0.7-4.1
		s1.5-2.6,1.2-4.1c-0.1-0.3-0.2-0.7-0.3-1c0.4,0,0.8,0,1.1-0.1c0.3-0.1,0.7-0.2,0.9-0.4c0.2-0.1,0.3-0.2,0.2-0.2
		C270.1,22.8,269.7,23,269.2,23.1z M254.4,1.3c0.7,0.2,1.3,0.6,1.8,1c0.6,0.5,1.2,1.2,1.5,1.9c0.3,0.9,0.6,1.8,0.7,2.8
		c0,0.2,0.1,0.4,0.1,0.6c-0.6-1-0.8-2.1-1.3-3.2C256.5,3.2,255.6,2.1,254.4,1.3L254.4,1.3z M263.4,12.3c0.7,0.4,1.3,1,1.7,1.7
		c0.2,1,0.1,2.1-0.3,3c-0.3,0.8-0.4,1.6-0.3,2.4c-0.2-0.3-0.4-0.6-0.5-0.9C263.1,16.6,264.1,14.2,263.4,12.3L263.4,12.3z"/>
	<path class="st5" d="M238.2,28.4c0.1-0.6,0.5-1,1-1.2c0.4-0.2,0.8-0.2,1.1,0c0.4,0.2,0.6,0.6,0.5,1c-0.1,0.4-0.5,0.8-0.9,0.8
		c-0.4,0.1-0.9,0-1.3-0.1c-0.1,0-0.2-0.1-0.3-0.1C238.2,28.7,238.1,28.6,238.2,28.4"/>
	<path class="st0" d="M240.3,26.1c0.1,0,0.2,0.2,0.1,0.7c-0.1,0.6-0.3,1.1-0.7,1.5c-0.4,0.4-1,0.6-1.5,0.6c-0.4,0-0.7-0.1-0.7-0.2
		s1-0.1,1.8-0.8S240.2,26.1,240.3,26.1z"/>
	<path class="st4" d="M225.1,49.3c0,0-19.4,16.8-19.9,14.8c-2.7-11.1-2-25.4-1.5-30.8c0.3-0.5,0.6-1,1.1-1.6
		c0.5-0.6,1.1-1.2,1.8-1.6c0.8-0.6,1.7-1.1,2.6-1.5c0.9-0.3,1-1.4,0.3-1.7s-3.2,0.4-5.6,2.3s-1.4-2.6-1.1-4.3s1-6.9,0.6-7.4
		c-0.6-0.7-1.6-0.1-1.8,1.5s-1.4,6.6-2.3,6.5s0.8-8.7,0.8-8.7s0.7-1.8-0.3-2c-1.8-0.4-2.9,8.7-3,9.6c-0.1,0.6-1,0.4-0.9-0.2
		s1.9-8.4,0-8.9c-1.4-0.4-1,7.5-2.3,8.9s0.3-6-1.1-6.3c-0.5-0.1-0.9-0.1-1.2,4.3c-0.1,3.5,0.1,7.1,0.4,10.6
		c-1.2,12-3.6,48.9,13.1,47.6c19.6-1.5,24.1-17,24.1-17L225.1,49.3z"/>
	<path class="st6" d="M279.4,76.1L276,59.2c-2.5-13.8-21.8-14.7-21.8-14.7l-15.2-0.2c0,0-10.1-0.3-18.2,6.3
		c-8.1,6.6-13.5,11.7-13.5,11.7L220,77l7.5-5c0,0-2.7,4.9-2.3,9c0.4,4,4.6,7.1,4.6,7.1l-3.2,33.9l49.5-2l-6.4-43.8H279.4z"/>
	<path class="st7" d="M277,62.9c-0.2,0.4-0.4,0.8-0.6,1.2c-1.7,3-4.5,5.2-7.8,6.3c-2.7,0.8-5.5,0.9-8.2,0.1c-1.6-0.4-3-1.2-4.3-2.2
		c-1.4-1.1-2.3-2.8-2.5-4.6c-0.1-2,0.9-3.9,2.6-4.9c0.9-0.5,2-0.6,3-0.2c1,0.4,1.8,1,2.4,1.9c0.6,0.9,1,1.9,1,3
		c0,1.1-0.2,2.2-0.7,3.1c-1,2-2.5,3.7-4.3,4.9c-3.8,2.6-8.5,3.7-13.1,2.8c-2.3-0.4-4.5-1.4-6.4-2.8c-1.9-1.3-3.3-3.2-4.1-5.4
		c-0.7-2.1-0.7-4.4,0.2-6.5c0.8-2,2.6-3.5,4.8-3.9c2.1-0.3,4.2,1,4.8,3c0.2,1,0,2-0.5,2.9c-0.5,0.8-1.2,1.5-2,2
		c-1.6,0.8-3.4,1-5.2,0.7c-1.6-0.3-3.1-0.7-4.6-1.3c-2.6-0.9-5-2.4-6.9-4.5c-1.4-1.6-2.1-3.6-2.2-5.8c-0.1-1.3,0.2-2.6,0.9-3.8
		c0.2-0.4,0.5-0.8,0.8-1.1c0,0-0.3,0.4-0.7,1.1c-0.6,1.2-0.8,2.5-0.7,3.8c0.1,2.1,0.9,4,2.2,5.6c1.8,2,4.2,3.5,6.8,4.3
		c1.5,0.5,3,1,4.6,1.2c1.7,0.3,3.4,0.1,4.9-0.6c0.8-0.4,1.4-1.1,1.8-1.8c0.5-0.8,0.6-1.7,0.4-2.6c-0.6-1.8-2.4-3-4.3-2.7
		c-2,0.4-3.6,1.7-4.4,3.6c-0.8,1.9-0.9,4.1-0.2,6.1c0.7,2.1,2.1,3.8,3.9,5.1c1.8,1.3,3.9,2.2,6.2,2.6c4.4,0.8,9-0.2,12.7-2.7
		c1.8-1.2,3.2-2.8,4.1-4.7c0.4-0.9,0.7-1.9,0.6-2.9c0-1-0.4-1.9-0.9-2.7c-0.5-0.8-1.3-1.4-2.2-1.7c-0.9-0.3-1.8-0.3-2.6,0.2
		c-1.6,0.9-2.5,2.6-2.4,4.4c0.2,1.7,1,3.2,2.3,4.3c1.2,1,2.6,1.8,4.1,2.2c2.6,0.8,5.4,0.8,8,0c2-0.6,3.8-1.6,5.3-3
		c1-0.9,1.8-1.9,2.5-3l0.5-0.9L277,62.9z"/>
	<path class="st7" d="M275,114.4l-0.3,0.1c-0.2,0.1-0.5,0.2-0.8,0.3c-1.1,0.3-2.2,0.5-3.3,0.6c-1.8,0.1-3.5-0.1-5.2-0.6
		c-2.2-0.7-4.3-1.8-6-3.4c-3.2-3.1-4.9-7.5-4.7-11.9c0.1-1.7,0.5-3.3,1.4-4.8c0.5-0.8,1.1-1.4,1.9-1.9c0.8-0.5,1.7-0.7,2.6-0.7
		c1,0,1.9,0.4,2.5,1.2c0.7,0.7,1,1.7,1,2.7c0,1-0.3,1.9-0.8,2.8c-0.5,0.8-1.3,1.5-2.1,2c-1.7,1.1-3.5,1.8-5.5,2.1
		c-3.9,0.6-7.8-0.2-11.1-2.2c-1.6-1-3-2.2-4.1-3.7c-1.1-1.4-1.8-3.1-2.1-4.8c-0.2-1.7,0.3-3.5,1.4-4.8c0.5-0.6,1.2-1.1,2-1.4
		c0.8-0.3,1.6-0.3,2.4-0.1c0.8,0.2,1.5,0.6,2,1.2c0.5,0.6,0.8,1.3,0.8,2.1c0,1.4-0.7,2.8-1.8,3.6c-0.9,0.8-2,1.4-3.2,1.8
		c-1,0.3-2.1,0.6-3.2,0.6c-1.8,0.1-3.5-0.2-5.2-0.8c-1-0.4-2-1-2.9-1.6c-0.2-0.2-0.5-0.4-0.7-0.6c-0.1-0.1-0.2-0.2-0.2-0.2
		s0.3,0.2,0.9,0.7c2.3,1.7,5.2,2.5,8,2.2c1.1-0.1,2.1-0.3,3.1-0.7c1.1-0.4,2.2-0.9,3.1-1.7c1-0.8,1.6-2,1.6-3.3
		c-0.1-1.4-1.2-2.6-2.5-2.8c-0.7-0.2-1.4-0.2-2.1,0.1c-0.7,0.2-1.3,0.7-1.8,1.3c-1,1.2-1.5,2.9-1.2,4.5c0.3,1.7,0.9,3.3,2,4.6
		c1.1,1.4,2.4,2.6,3.9,3.5c3.2,2,7,2.7,10.8,2.2c1.9-0.3,3.7-1,5.3-2c1.6-0.9,2.6-2.6,2.7-4.4c0-0.9-0.3-1.7-0.8-2.4
		c-0.6-0.6-1.4-1-2.2-1c-0.8,0-1.7,0.2-2.4,0.6c-0.7,0.4-1.3,1-1.7,1.7c-0.8,1.4-1.3,3-1.3,4.6c-0.1,1.5,0,3.1,0.4,4.6
		c0.7,2.7,2.1,5.1,4,7.1c1.6,1.6,3.6,2.8,5.8,3.4c2.7,0.8,5.6,0.9,8.4,0.2C274.6,114.5,274.9,114.4,275,114.4z"/>
	<path class="st0" d="M258.2,58.2c0.1,0.3,0.2,0.7,0.3,1.1c0.2,0.8,0.4,1.8,0.6,3c0.5,2.6,1.2,6,1.9,9.7s1.4,7.3,1.8,9.8
		c0.2,1.3,0.3,2.3,0.4,3c0.1,0.4,0.1,0.7,0.1,1.1c-0.1-0.3-0.2-0.7-0.3-1.1c-0.2-0.8-0.4-1.8-0.6-3c-0.5-2.6-1.2-6-1.9-9.8
		s-1.4-7.3-1.7-9.8c-0.2-1.3-0.3-2.3-0.4-3C258.2,58.9,258.2,58.6,258.2,58.2z"/>
	<path class="st0" d="M279.7,76.2c-3,0.3-6.1,0.4-9.1,0.3c-3.1,0.1-6.1,0-9.1-0.2c3-0.3,6.1-0.4,9.1-0.3
		C273.6,75.9,276.6,76,279.7,76.2z"/>
	<path class="st0" d="M220,76.9c-2.2-2.3-4.3-4.8-6.3-7.3c-2.1-2.4-4.1-5-5.9-7.6c2.2,2.3,4.3,4.7,6.3,7.3
		C216.2,71.8,218.2,74.3,220,76.9z"/>
	<path class="st0" d="M252.9,44.5c-0.7,0.2-1.5,0.3-2.3,0.3c-1.4,0.1-3.4,0.1-5.5,0.1s-4.1-0.1-5.5-0.3c-0.8,0-1.5-0.1-2.3-0.3
		c0.8-0.1,1.5-0.1,2.3,0l5.5,0.1l5.5,0.1C251.3,44.4,252.1,44.4,252.9,44.5z"/>
	<path class="st0" d="M225.4,76.3c0.2-0.7,0.5-1.4,0.9-2l1.1-2.1c0.5-0.8,0.8-1.7,0.8-2.6c-0.4-2-0.7-3.9-0.9-5.2
		c-0.2-0.7-0.2-1.5-0.2-2.2c0.3,0.7,0.5,1.4,0.6,2.1c0.3,1.3,0.7,3.2,1.1,5.2c0.1,0.5,0,1.1-0.2,1.6c-0.2,0.4-0.4,0.9-0.7,1.3
		c-0.4,0.7-0.8,1.4-1.2,2.1C226.3,75.2,225.9,75.8,225.4,76.3z"/>
	<path class="st6" d="M185.2,231.9v-10.3l18.5-0.1l0.2,15.4l-1.1,0.1c-5.1,0.3-25.9,1-29.4-0.1C169.6,235.7,185.2,231.9,185.2,231.9
		z"/>
	<path class="st0" d="M172.9,236c0,0.2,6.9,0.3,15.4,0.3s15.4-0.1,15.4-0.3s-6.9-0.3-15.4-0.3S172.9,235.8,172.9,236z"/>
	<path class="st0" d="M184.9,234.1c0.1-0.1,0-0.6-0.4-1.2s-0.9-0.8-1-0.7s0.1,0.6,0.5,1.1S184.8,234.1,184.9,234.1z"/>
	<path class="st0" d="M183.7,234.7c0.2-0.1,0.1-0.7-0.3-1.3s-0.8-1-1-0.9s0.1,0.6,0.4,1.2S183.6,234.8,183.7,234.7z"/>
	<path class="st0" d="M198.2,235.9c0.1,0,0.3-0.2,0.7-0.7c0.5-0.6,1-1.1,1.6-1.6c0.6-0.5,1.3-0.8,2-0.9c0.6-0.1,0.9,0,1-0.1
		s-0.3-0.3-1-0.4c-0.9,0-1.7,0.3-2.4,0.8c-0.6,0.5-1.2,1.1-1.6,1.9C198.3,235.5,198.2,235.9,198.2,235.9z"/>
	<path class="st0" d="M184.9,232.1c-0.1,0.1,0.2,0.5,0.8,0.7s1,0.1,1,0s-0.4-0.4-0.8-0.5S185,232,184.9,232.1z"/>
	<path class="st0" d="M185.2,231.1c0,0.2,0.5,0.3,1.1,0.3s1.1-0.1,1.1-0.3s-0.5-0.3-1.1-0.3S185.2,230.9,185.2,231.1z"/>
	<path class="st6" d="M224.2,231.9v-10.3l18.5-0.1l0.2,15.4l-1.1,0.1c-5.1,0.3-25.9,1-29.4-0.1C208.6,235.7,224.2,231.9,224.2,231.9
		z"/>
	<path class="st0" d="M211.9,236c0,0.2,6.9,0.3,15.4,0.3c8.5,0,15.4-0.1,15.4-0.3s-6.9-0.3-15.4-0.3S211.9,235.8,211.9,236z"/>
	<path class="st0" d="M223.9,234.1c0.2-0.1,0-0.6-0.4-1.2s-0.9-0.8-1-0.7s0.1,0.6,0.5,1.1S223.8,234.1,223.9,234.1z"/>
	<path class="st0" d="M222.8,234.7c0.2-0.1,0.1-0.7-0.3-1.3s-0.8-1-1-0.9s0.1,0.6,0.4,1.2S222.6,234.8,222.8,234.7z"/>
	<path class="st0" d="M237.2,235.9c0.1,0,0.4-0.2,0.8-0.7c0.5-0.6,1-1.1,1.6-1.6c0.6-0.5,1.3-0.8,2-0.9c0.6-0.1,0.9,0,1-0.1
		s-0.3-0.3-1-0.4c-0.9,0-1.7,0.3-2.4,0.8c-0.6,0.5-1.2,1.1-1.6,1.9C237.3,235.5,237.2,235.9,237.2,235.9z"/>
	<path class="st0" d="M223.9,232.1c-0.1,0.1,0.2,0.5,0.8,0.7s1,0.1,1,0s-0.4-0.4-0.8-0.5S224,232,223.9,232.1z"/>
	<path class="st0" d="M224.2,231.1c0,0.2,0.5,0.3,1.1,0.3s1.1-0.1,1.1-0.3s-0.5-0.3-1.1-0.3S224.2,230.9,224.2,231.1z"/>
	<path class="st4" d="M281.5,89.6c-1-8.1-2.1-13.3-2.1-13.3l-17.6,0.3c0,0,1.6,8.9,1.1,11.3c-0.4,2.1-34.4,3.5-43.3,3.6
		c-0.5-0.4-1.3,0.3-2-0.3c-0.6-0.5-1.1-1.2-1.5-1.9c-0.5-0.9-0.9-1.8-1.2-2.8c0-0.5-0.5-0.9-1-0.8c-0.3,0-0.6,0.2-0.7,0.5
		c-0.4,0.8,0,3.3,1.7,5.7s-2.7,1.2-4.3,0.7s-6.7-1.5-7.2-1.1c-0.8,0.6-0.3,1.5,1.3,1.9s6.4,1.9,6.1,2.8s-8.4-1.5-8.4-1.5
		s-1.7-0.8-2,0.2c-0.6,1.8,8.3,3.6,9.1,3.7c0.6,0.1,0.3,1-0.3,0.9s-8.1-2.5-8.8-0.7c-0.5,1.4,7.3,1.5,8.6,2.9s-5.9-0.8-6.3,0.6
		c-0.1,0.5,2.8,0.7,7.1,1.3c4.4,0.4,8.8,0.6,13.3,0.5c10,0.5,45.2,1.3,52.7,0.7C284.6,104.3,281.8,92.3,281.5,89.6z"/>
	<path class="st0" d="M200.3,118.1c15.2-1.5,30.4-1.7,45.6-0.6l-19.3,27.7l-17.4,0.1l-3.6,85.1h-23.1l2.2-94.9
		C185,126.6,191.6,119.2,200.3,118.1z"/>
	<path class="st2" d="M200.3,118.1c15.2-1.5,30.4-1.7,45.6-0.6l-19.3,27.7l-17.4,0.1l-3.6,85.1h-23.1l2.2-94.9
		C185,126.6,191.6,119.2,200.3,118.1z"/>
	<path class="st0" d="M242.7,147.4c0,0,34.5,2.3,33.6-28.6c0,0-47.9-5.8-57.1,4.1c-7.7,8.3-0.7,107.5-0.7,107.5l25.6-1.2"/>
	<path class="st1" d="M249.9,117.1c-0.2,0-0.5,0-0.7,0l-2,0.1c-1.7,0.1-4.1,0.2-7.1,0.4l-4.9,0.4c-1.8,0.2-3.7,0.3-5.6,0.7
		c-2,0.4-4.1,0.9-6,1.6c-2,0.8-4,1.9-5,4c-0.9,2-1.5,4.2-1.7,6.4c-0.2,2.1-0.4,4.2-0.4,6.2c-0.1,4-0.3,7.6-0.4,10.6
		s-0.2,5.4-0.3,7.1c0,0.8-0.1,1.5-0.1,2c0,0.2,0,0.5-0.1,0.7c0-0.2-0.1-0.5-0.1-0.7c0-0.4,0-1.1,0-2c0-1.7,0-4.1,0.1-7.2
		s0.2-6.6,0.3-10.6c0-2.1,0.2-4.2,0.4-6.3c0.2-2.3,0.8-4.5,1.7-6.6c0.5-1.1,1.3-2,2.3-2.7c0.9-0.6,1.9-1.2,3-1.6
		c2-0.7,4-1.3,6.1-1.6c2-0.3,3.9-0.5,5.7-0.6s3.4-0.2,5-0.3c3-0.2,5.5-0.2,7.2-0.3c0.8,0,1.5,0,2,0C249.4,117,249.6,117,249.9,117.1
		z"/>
	<path class="st1" d="M244.4,222.6c-0.3,0.1-0.7,0.2-1,0.2c-0.6,0.1-1.6,0.1-2.8,0.2c-2.4,0.2-5.6,0.4-9.2,0.5s-6.9,0.3-9.2,0.4
		c-1.2,0-2.1,0.1-2.8,0.1c-0.3,0-0.7,0-1,0c0.3-0.1,0.7-0.1,1-0.1c0.7-0.1,1.6-0.1,2.8-0.2c2.4-0.2,5.6-0.4,9.2-0.5s6.9-0.3,9.2-0.4
		c1.2,0,2.1,0,2.8,0C243.7,222.5,244,222.6,244.4,222.6z"/>
	<path class="st1" d="M206.4,223.8c0,0.1-5.4,0.3-12,0.3s-12-0.1-12-0.3s5.4-0.3,12-0.3S206.4,223.6,206.4,223.8z"/>
	<path class="st1" d="M217,128.3c-0.1,0-0.2,0-0.3,0l-0.9-0.1c-0.7-0.1-1.8-0.2-3.3-0.2s-3.2-0.1-5.2,0c-1.1,0-2.1,0.2-3.2,0.3
		c-1.2,0.2-2.3,0.5-3.4,1.1c-0.5,0.3-1,0.7-1.3,1.3c-0.3,0.6-0.5,1.3-0.6,1.9c-0.4,1.4-0.6,2.8-0.8,4.2c-0.3,3-0.6,6.1-0.8,9.5
		c-0.5,6.7-0.8,14.1-1.1,21.8c-0.5,15.5-1.1,29.6-1.5,39.7c-0.2,5-0.4,9.1-0.5,12c-0.1,1.4-0.1,2.5-0.2,3.3c0,0.4,0,0.6-0.1,0.9
		c0,0.1,0,0.2,0,0.3c0-0.1,0-0.2,0-0.3v-0.9c0-0.8,0-1.9,0.1-3.3c0.1-2.9,0.2-7,0.4-12c0.4-10.2,0.9-24.2,1.4-39.7
		c0.3-7.8,0.6-15.1,1.1-21.9c0.3-3.3,0.5-6.5,0.8-9.5c0.2-1.4,0.5-2.9,0.9-4.3c0.2-0.7,0.4-1.3,0.7-2c0.3-0.6,0.8-1.1,1.4-1.5
		c1.1-0.6,2.3-0.9,3.5-1.1c1.1-0.2,2.2-0.3,3.2-0.3c1.7-0.1,3.5,0,5.2,0.1c1.4,0.1,2.5,0.2,3.3,0.3l0.9,0.1
		C216.8,128.2,216.9,128.3,217,128.3z"/>
	<path class="st1" d="M270.6,118.2c0,0.1,0,0.2,0,0.4c0,0.2,0,0.6-0.1,1c-0.2,1.3-0.7,2.6-1.4,3.7c-1.8,3-4.9,5-8.4,5.5
		c-1.5,0.1-3,0.2-4.4,0.1h-15.8c-1,0-2,0-2.9,0c-1,0-1.9,0.3-2.8,0.7c-1.9,0.9-3.3,2.4-4,4.4c-0.3,1-0.5,2-0.5,3.1v3.3
		c0,4.5,0,9.1,0,13.8c0,18.9-0.1,36-0.1,48.4c0,6.2-0.1,11.2-0.1,14.7c0,1.7,0,3,0,4c0,0.4,0,0.8,0,1s0,0.4,0,0.4c0-0.1,0-0.2,0-0.4
		c0-0.3,0-0.6,0-1c0-1,0-2.3,0-4c0-3.5,0-8.5-0.1-14.7c0-12.4-0.1-29.5-0.1-48.4c0-4.7,0-9.3,0-13.8v-3.3c0-1.1,0.1-2.2,0.5-3.3
		c0.8-2.1,2.3-3.7,4.3-4.6c0.9-0.4,2-0.7,3-0.7c1,0,2,0,3,0h5.6l10.1,0.1c1.5,0.1,2.9,0,4.4-0.1c3.4-0.4,6.4-2.4,8.2-5.3
		c0.7-1.1,1.2-2.4,1.5-3.7c0.1-0.4,0.1-0.8,0.2-1S270.6,118.2,270.6,118.2z"/>
	<path class="st1" d="M243,140.5c0.2,2.6,0.1,5.3-0.5,7.9c-0.2-1.3-0.2-2.7,0-4C242.6,143.1,242.7,141.8,243,140.5z"/>
	<path class="st0" d="M99.9,83.4c0,0-1.1-8.8-0.2-8.8s1.4,8.8,1.4,8.8h-1.5"/>
	<path class="st6" d="M102.8,83.4c0,0-1.1-8.8-0.2-8.8s1.4,8.8,1.4,8.8h-1.5"/>
	<path class="st8" d="M102.8,83.4c0,0-1.1-8.8-0.2-8.8s1.4,8.8,1.4,8.8h-1.5"/>
	<path class="st0" d="M107.2,83.4c0,0-1.1-8.8-0.2-8.8s1.4,8.8,1.4,8.8h-1.5"/>
	<path class="st1" d="M104.6,83.8c0,0,0-8.9,0.9-8.8s0.3,8.9,0.3,8.9l-1.4-0.2"/>
	<path class="st6" d="M101.9,83.4c0,0-1.1-8.8-0.2-8.8s1.4,8.8,1.4,8.8h-1.5"/>
	<path class="st9" d="M101.9,83.4c0,0-1.1-8.8-0.2-8.8s1.4,8.8,1.4,8.8h-1.5"/>
	<polygon class="st6" points="99.7,97.3 98.3,83.4 110,83.4 110,97.3 	"/>
	<polygon class="st0" points="350.2,97.3 89.9,97.3 89.9,104.3 103.8,104.3 96.6,236.9 100.6,236.9 107.8,104.3 336,104.3 
		342.1,236.9 346.5,237.1 340,104.3 350.2,104.3 	"/>
	<polygon class="st0" points="175.1,56.3 189.6,98.4 254.9,98.4 254.4,96.3 228,95.5 215.8,56.2 	"/>
	<path class="st7" d="M204.1,76.1c0.4,1.7-0.3,3.4-1.7,3.8s-2.8-0.8-3.2-2.5s0.3-3.4,1.6-3.8S203.7,74.3,204.1,76.1z"/>
	<path class="st6" d="M330.6,84.4c-1.2-0.9-2.6-1.3-4-1.2c0-0.8,0-1.3,0-1.3h-22.2c0,0-0.7,14.6,10.5,15.1c5,0.2,7.9-2,9.5-4.8
		c0.8,0.2,1.7,0.3,2.5,0.3c1.2,0,2.5-0.3,3.5-1c1.1-0.9,1.8-2.3,1.7-3.7C332.1,86.5,331.5,85.3,330.6,84.4z M329,89.8
		c-1,0.7-2.6,0.6-3.7,0.4c0.6-1.5,0.9-3.2,1.1-4.8c1-0.1,2,0.1,2.8,0.6c0.5,0.5,0.7,1.1,0.7,1.8C329.9,88.6,329.6,89.4,329,89.8
		L329,89.8z"/>
	<path class="st0" d="M324.6,80.4c-0.2-0.2-0.4-0.4-0.5-0.6c-0.4-0.7-0.8-1.4-0.9-2.2c-0.3-1.2-0.2-2.5,0.3-3.7
		c0.8-1.5,1.8-2.7,3.1-3.8c1.4-1.3,2.4-3.1,2.8-5c0.4-2.2,0-4.5-1.2-6.3c-0.6-1-1.5-1.9-2.5-2.6c-1.1-0.7-2.2-1.2-3.4-1.5
		c-1.3-0.4-2.5-1-3.6-1.8c-0.5-0.5-1-1-1.3-1.7c-0.3-0.7-0.4-1.4-0.3-2.2l0.1-0.3l0.3,0.3c-1.2,0.5-2,1.7-2,3
		c-0.1,1.3,0.2,2.5,0.8,3.7c0.5,1.1,1.2,2.2,1.7,3.4c0.6,1.1,0.8,2.4,0.7,3.7c-0.2,1.2-0.7,2.3-1.6,3.1c-0.8,0.8-1.8,1.4-2.8,1.9
		c-1.9,0.9-3.9,1.4-5.4,2.3c-1.4,0.8-2.5,2-3.1,3.5c-0.5,1.1-0.8,2.3-0.8,3.5c0,1,0.2,2,0.6,3c0,0,0-0.1-0.1-0.2
		c-0.1-0.2-0.2-0.4-0.2-0.5c-0.3-0.7-0.4-1.5-0.4-2.3c0-1.2,0.2-2.5,0.7-3.6c0.6-1.5,1.8-2.8,3.2-3.6c1.7-0.9,3.5-1.7,5.4-2.4
		c1-0.4,1.9-1,2.6-1.8c0.8-0.8,1.3-1.8,1.5-2.9c0.1-1.2-0.2-2.4-0.7-3.4c-0.5-1.1-1.2-2.2-1.7-3.4c-0.7-1.2-1-2.6-0.9-3.9
		c0.1-0.7,0.3-1.4,0.7-2c0.4-0.6,1-1.1,1.7-1.4l0.5-0.2l-0.1,0.5l-0.1,0.2c-0.2,1.3,0.4,2.6,1.4,3.4c1,0.8,2.2,1.4,3.4,1.7
		c1.3,0.4,2.4,0.9,3.5,1.6c1,0.7,1.9,1.6,2.6,2.7c1.3,2,1.7,4.4,1.2,6.7c-0.4,2-1.5,3.8-3,5.1c-1.3,1-2.3,2.2-3.1,3.6
		c-0.5,1.1-0.6,2.3-0.4,3.5C323.6,78.6,324,79.6,324.6,80.4z"/>
	<polygon class="st0" points="120.4,61 120.2,51.4 153.7,54.2 154.7,62.8 	"/>
	<path class="st1" d="M124.1,61.2c-0.3-1.5-0.5-3.1-0.4-4.7c-0.1-1.6-0.1-3.2,0.1-4.7c0.3,1.5,0.5,3.1,0.4,4.7
		C124.3,58,124.2,59.6,124.1,61.2z"/>
	<path class="st1" d="M125.3,51.8c0.3,1.5,0.4,3.1,0.4,4.7c0.1,1.6,0.1,3.2-0.2,4.7c-0.3-1.5-0.4-3.1-0.4-4.7
		C125,55,125.1,53.4,125.3,51.8z"/>
	<path class="st7" d="M128.4,56.1c5.8,0.6,12.7,1,18.6,1.5"/>
	<path class="st1" d="M147,57.6c-0.9,0.1-1.8,0-2.7,0c-1.7-0.1-4-0.2-6.6-0.4s-4.9-0.4-6.6-0.6c-0.9-0.1-1.8-0.2-2.7-0.5
		c0.9-0.1,1.8,0,2.7,0.1l6.6,0.5c2.6,0.2,4.9,0.4,6.6,0.6C145.2,57.2,146.1,57.3,147,57.6z"/>
	<path class="st1" d="M149.4,62.5c-0.5-2.8-0.6-5.7-0.4-8.5C149.5,56.8,149.7,59.6,149.4,62.5z"/>
	<path class="st1" d="M151.6,62.6c-0.4-1.4-0.6-2.8-0.7-4.3c-0.2-1.4-0.3-2.9-0.2-4.3c0.4,1.4,0.6,2.8,0.7,4.3
		C151.6,59.7,151.7,61.2,151.6,62.6z"/>
	<path class="st7" d="M133.3,58.2c3.7,0.2,6.5,0.4,9.4,0.5"/>
	<path class="st1" d="M142.8,58.7c-1.6,0.2-3.2,0.2-4.7,0c-1.6,0-3.2-0.2-4.7-0.5c1.6-0.2,3.2-0.2,4.7,0
		C139.6,58.2,141.2,58.3,142.8,58.7z"/>
	<polygon class="st6" points="126.8,97.4 125.9,87.9 159.6,88 161.4,97.3 	"/>
	<polygon class="st9" points="126.8,97.4 125.9,87.9 159.6,88 161.4,97.3 	"/>
	
		<rect x="143.3" y="82" transform="matrix(1.745302e-03 -1 1 1.745302e-03 51.3521 236.4653)" class="st0" width="1.7" height="21"/>
	<polygon class="st0" points="122.1,88.7 121.3,79.2 154.9,79.6 156.5,88.1 	"/>
	<polygon class="st7" points="121.4,80.5 121.9,86.9 154.6,86.6 153.6,80.7 	"/>
	<path class="st0" d="M151.9,83.3c-0.4,0.1-0.8,0.1-1.2,0.1h-3.2c-2.7,0-6.5,0-10.6-0.1s-7.9-0.2-10.6-0.3l-3.2-0.1
		c-0.4,0-0.8,0-1.2-0.1c0.4-0.1,0.8-0.1,1.2-0.1h3.2c2.7,0,6.5,0,10.6,0.1s7.9,0.2,10.6,0.3l3.2,0.1
		C151.1,83.2,151.5,83.2,151.9,83.3z"/>
	<path class="st0" d="M151.9,84.1c-0.4,0.1-0.8,0.1-1.2,0.1l-3.2,0.1c-2.7,0.1-6.5,0.2-10.7,0.2s-8,0.1-10.7,0.1h-3.2
		c-0.4,0-0.8,0-1.2-0.1c0.4-0.1,0.8-0.1,1.2-0.1l3.2-0.1c2.7-0.1,6.5-0.2,10.7-0.2s7.9-0.1,10.7-0.1h3.2
		C151.1,84,151.5,84.1,151.9,84.1z"/>
	<polygon class="st1" points="122.6,79.6 122,70.1 155.6,71.1 157,79.6 	"/>
	<polygon class="st7" points="123.9,78.4 156.6,78 155.7,72 123.3,71.4 	"/>
	<polygon class="st6" points="123.5,70.3 123.2,60.7 156.8,62.9 157.9,71.4 	"/>
	
		<rect x="140" y="54.2" transform="matrix(5.989229e-02 -0.9982 0.9982 5.989229e-02 67.7795 201.4794)" class="st0" width="1.7" height="21.1"/>
	<path class="st0" d="M156.1,74.5c-0.4,0.1-0.9,0.1-1.3,0.1l-3.5,0.1c-3,0.1-7,0.1-11.5,0.1s-8.6,0-11.6,0l-3.5-0.1
		c-0.4,0-0.9,0-1.3-0.1c0.4-0.1,0.9-0.1,1.3-0.1l3.5-0.1c3-0.1,7-0.1,11.6-0.1s8.6,0,11.5,0l3.5,0.1
		C155.2,74.3,155.6,74.4,156.1,74.5z"/>
	<path class="st0" d="M156.4,76.3c-0.4,0.1-0.9,0.1-1.3,0.1h-3.5c-3,0-7.1,0-11.6-0.1s-8.6-0.1-11.6-0.2l-3.5-0.1
		c-0.4,0-0.9,0-1.3-0.1c0.4-0.1,0.9-0.1,1.3-0.1h3.5c3,0,7.1,0,11.6,0.1s8.6,0.1,11.6,0.2l3.5,0.1C155.6,76.2,156,76.2,156.4,76.3z"
		/>
</g>
</svg>
