<?xml version="1.0" encoding="utf-8"?>
<!-- Generator: Adobe Illustrator 24.1.3, SVG Export Plug-In . SVG Version: 6.00 Build 0)  -->
<svg version="1.1" id="Layer_1" xmlns="http://www.w3.org/2000/svg" xmlns:xlink="http://www.w3.org/1999/xlink" x="0px" y="0px"
	 viewBox="0 0 461.3 453.4" style="enable-background:new 0 0 461.3 453.4;" xml:space="preserve">
<style type="text/css">
	.st0{fill:#E0E0E0;}
	.st1{fill:#F5F5F5;}
	.st2{fill:#EBEBEB;}
	.st3{fill:#FFFFFF;}
	.st4{fill:#263238;}
	.st5{fill-rule:evenodd;clip-rule:evenodd;fill:#6900C7;}
	.st6{fill:#6900C7;}
	.st7{opacity:0.6;}
	.st8{opacity:0.3;}
	.st9{fill:#455A64;}
	.st10{fill:#FFBE9D;}
	.st11{fill:#EB996E;}
	.st12{fill:#FAFAFA;}
</style>
<g id="background-complete--inject-2">
	<path class="st0" d="M97.4,148.3c1.5-0.9,3-1.5,4.7-2l1-4.6l7.8-0.1l1.1,4.6c1.7,0.4,3.2,1,4.7,1.9l3.9-2.6l5.6,5.4l-2.4,4
		c0.9,1.5,1.5,3,2,4.7l4.6,1l0.1,7.8l-4.6,1.1c-0.4,1.7-1,3.2-1.9,4.7l2.6,3.9l-5.4,5.6l-4-2.4c-1.5,0.9-3,1.5-4.7,2l-1,4.6
		l-7.8,0.1l-1.1-4.6c-1.7-0.4-3.2-1-4.7-1.9l-3.9,2.6l-5.6-5.4l2.4-4c-0.9-1.5-1.5-3-2-4.7l-4.6-1l-0.1-7.8l4.5-1.1
		c0.4-1.7,1-3.2,1.9-4.7l-2.6-3.9l5.4-5.6L97.4,148.3L97.4,148.3z M101.6,158.7c-3.2,3.3-3.1,8.6,0.2,11.8s8.6,3.1,11.8-0.2
		c3.2-3.3,3.1-8.6-0.2-11.8C110.1,155.3,104.8,155.4,101.6,158.7z"/>
	<path class="st0" d="M101.6,158.7c0.4-0.5,1-1,1.6-1.4c1.6-1,3.5-1.5,5.5-1.3c2.9,0.3,5.4,2.1,6.7,4.7c0.4,0.7,0.6,1.5,0.8,2.4
		c0.1,0.9,0.1,1.7,0,2.6c-0.5,3.7-3.4,6.7-7.1,7.3c-0.9,0.1-1.7,0.1-2.6,0c-0.8-0.1-1.6-0.3-2.4-0.7c-1.4-0.6-2.6-1.6-3.5-2.9
		c-1.9-2.7-2-6.3-0.3-9.2C100.6,159.7,101,159.1,101.6,158.7c-0.5,0.5-0.8,1.1-1.2,1.7c-0.9,1.6-1.2,3.5-0.9,5.4
		c0.4,2.7,2.2,5.1,4.8,6.2c1.5,0.7,3.1,0.9,4.7,0.6c3.5-0.6,6.2-3.3,6.7-6.8c0.1-0.8,0.1-1.6,0-2.4c-0.1-0.8-0.4-1.5-0.7-2.2
		c-1.2-2.5-3.6-4.2-6.3-4.6c-1.8-0.2-3.7,0.2-5.3,1.1C102.7,157.9,102.1,158.3,101.6,158.7z"/>
	<path class="st0" d="M97.4,148.3l-0.3-0.1l-0.8-0.4l-3-1.8h0.1l-5.4,5.6v-0.1c0.8,1.2,1.7,2.5,2.6,3.9v0.1v0.1
		c-0.8,1.5-1.4,3.1-1.8,4.7v0.1h-0.1l-4.6,1.1l0.1-0.2c0.1,2.4,0.1,5.1,0.2,7.8l-0.2-0.2l4.6,1h0.1v0.1c0.5,1.6,1.1,3.2,2,4.6
		l0.1,0.1l-0.1,0.1l-2.4,4v-0.3l5.6,5.4H94l3.9-2.6l0.1-0.1l0.1,0.1c1.5,0.8,3,1.4,4.7,1.8h0.1v0.1c0.3,1.4,0.7,3,1.1,4.6l-0.2-0.2
		l7.8-0.1l-0.2,0.2c0.3-1.5,0.6-3,1-4.6v-0.1h0.1c1.6-0.5,3.2-1.1,4.6-2l0,0l0.1-0.1l0.1,0.1l4,2.4h-0.3c1.8-1.9,3.6-3.8,5.4-5.6
		v0.3c-0.9-1.3-1.7-2.6-2.6-3.9l-0.1-0.1l0.1-0.1c0.8-1.5,1.4-3,1.9-4.7v-0.1h0.1l4.6-1.1l-0.2,0.2c0-2.7-0.1-5.3-0.1-7.8l0.2,0.2
		l-4.6-1h-0.1v-0.1c-0.5-1.6-1.1-3.2-2-4.6l-0.1-0.1l0.1-0.1c0.8-1.4,1.7-2.7,2.4-4v0.2l-5.6-5.4h0.2l-4,2.6l-0.1,0.1l-0.1-0.1
		c-1.5-0.8-3-1.4-4.7-1.9h-0.1v-0.1c-0.4-1.7-0.8-3.2-1.1-4.6l0.1,0.1l-7.8,0.1l0.1-0.1c-0.4,1.8-0.7,3.4-1,4.6l0,0l0,0
		c-1.2,0.3-2.4,0.8-3.6,1.4l-0.8,0.4L97.4,148.3l0.3-0.1c0.2-0.1,0.4-0.3,0.8-0.5c1.1-0.6,2.3-1.1,3.6-1.4l-0.1,0.1
		c0.2-1.3,0.6-2.8,0.9-4.6v-0.1h0.1l7.8-0.2h0.1v0.1c0.4,1.4,0.7,2.9,1.1,4.6L112,146c1.7,0.4,3.3,1,4.8,1.9h-0.2l3.9-2.6l0.1-0.1
		l0.1,0.1l5.6,5.4l0.1,0.1l-0.1,0.1c-0.8,1.3-1.6,2.7-2.4,4v-0.2c0.9,1.5,1.6,3.1,2.1,4.7l-0.2-0.1l4.6,1h0.2v0.2
		c0.1,2.5,0.1,5.1,0.1,7.8v0.2l-0.2,0.1l-4.5,1.2l0.2-0.2c-0.4,1.7-1,3.3-1.9,4.8V174l2.6,3.9l0.1,0.2l-0.1,0.1l-5.4,5.6l-0.1,0.1
		l-0.2-0.1l-4-2.4h0.2c-1.5,0.9-3.1,1.5-4.7,2l0.2-0.2c-0.3,1.6-0.7,3.2-1,4.6v0.2h-0.2l-7.8,0.1h-0.2v-0.2
		c-0.4-1.6-0.8-3.1-1.1-4.6l0.2,0.2c-1.7-0.4-3.3-1-4.8-1.9h0.2l-3.9,2.6l-0.2,0.1l-0.1-0.1l-5.6-5.4l-0.1-0.1l0.1-0.1l2.4-4v0.2
		c-0.9-1.5-1.5-3.1-2-4.7l0.2,0.1l-4.6-1h-0.2v-0.1c0-2.7-0.1-5.3-0.1-7.8v-0.1h0.1l4.6-1.1l-0.1,0.1c0.4-1.7,1.1-3.3,1.9-4.8v0.1
		c-0.9-1.4-1.8-2.8-2.6-3.9v-0.1l0.1-0.1l5.4-5.6l0,0l0,0l3,1.9c0.3,0.2,0.6,0.4,0.8,0.5L97.4,148.3z"/>
	<path class="st1" d="M326.3,203.7c0.9-0.5,1.8-0.9,2.8-1.2l0.5-2.8l4.7-0.1l0.7,2.7c1,0.3,1.9,0.6,2.8,1.1l2.4-1.6l3.4,3.2
		l-1.5,2.4c0.5,0.9,0.9,1.8,1.2,2.8l2.8,0.6l0.1,4.7l-2.7,0.7c-0.2,1-0.6,1.9-1.1,2.8l1.5,2.4l-3.2,3.4l-2.4-1.5
		c-0.9,0.5-1.8,0.9-2.8,1.2l-0.6,2.8l-4.7,0.1l-0.7-2.7c-1-0.3-1.9-0.6-2.8-1.1l-2.4,1.6l-3.4-3.2l1.5-2.4c-0.5-0.9-0.9-1.8-1.2-2.8
		l-2.8-0.6l-0.1-4.7l2.7-0.7c0.2-1,0.6-1.9,1.1-2.8l-1.6-2.4l3.2-3.4L326.3,203.7L326.3,203.7z M328.8,209.9c-1.9,2-1.9,5.2,0.1,7.1
		c2,1.9,5.2,1.9,7.1-0.1c1.9-2,1.9-5.1-0.1-7.1C333.9,207.8,330.7,207.9,328.8,209.9C328.8,209.9,328.8,209.9,328.8,209.9
		L328.8,209.9z"/>
	<path class="st1" d="M328.8,209.9c0.3-0.3,0.6-0.6,0.9-0.8c1.7-1.1,3.8-1.1,5.5,0c0.8,0.5,1.4,1.2,1.8,2c0.2,0.4,0.4,0.9,0.5,1.4
		c0.1,0.5,0.1,1,0,1.5c-0.3,2.2-2,4-4.2,4.4c-0.5,0.1-1,0.1-1.5,0c-0.5-0.1-1-0.2-1.4-0.4c-0.8-0.4-1.6-1-2.1-1.7
		c-0.5-0.7-0.8-1.4-0.9-2.2c-0.2-1.1,0.1-2.3,0.7-3.3C328.2,210.4,328.5,210.1,328.8,209.9c0-0.1-0.3,0.2-0.7,0.9
		c-0.5,1-0.7,2.1-0.5,3.2c0.3,1.6,1.3,3,2.9,3.7c0.4,0.2,0.9,0.3,1.3,0.4c0.5,0.1,1,0.1,1.5,0c2.1-0.4,3.7-2,4-4.1
		c0.1-0.5,0.1-1,0-1.5c-0.1-0.5-0.2-0.9-0.4-1.3c-0.4-0.8-1-1.5-1.7-1.9c-1.6-1.1-3.7-1.1-5.3-0.1
		C329.1,209.6,328.8,209.9,328.8,209.9z"/>
	<path class="st1" d="M326.3,203.7c0,0,0,0-0.2-0.1l-0.5-0.3l-1.8-1.1h0l-3.2,3.4v-0.1l1.5,2.4l0,0v0.1c-0.5,0.9-0.9,1.8-1.1,2.8
		v0.1h-0.1l-2.7,0.7l0.1-0.1c0,1.5,0.1,3,0.1,4.7l-0.1-0.1l2.8,0.6h0.1v0.1c0.3,1,0.7,1.9,1.2,2.8v0.1v0.1l-1.5,2.4v-0.2l3.4,3.2
		h-0.2c0.7-0.5,1.5-1,2.4-1.6l0.1-0.1h0.1c0.9,0.5,1.8,0.9,2.8,1.1h0.1v0.1l0.7,2.7l-0.1-0.1l4.7-0.1l-0.1,0.1
		c0.2-0.9,0.4-1.8,0.6-2.8v-0.1h0.1c1-0.3,1.9-0.7,2.8-1.2l0,0l0.1-0.1l0.1,0.1l2.4,1.5h-0.2c1.1-1.1,2.2-2.2,3.2-3.4v0.2l-1.5-2.4
		l0-0.1V219c0.5-0.9,0.9-1.8,1.1-2.8v-0.1h0.1l2.7-0.7l-0.1,0.1c0-1.6,0-3.1-0.1-4.7l0.1,0.1l-2.8-0.6h-0.1v-0.1
		c-0.3-1-0.7-1.9-1.2-2.8v-0.1v-0.1l1.5-2.4v0.1l-3.4-3.2h0.1l-2.4,1.5h-0.1l0,0c-0.9-0.5-1.8-0.9-2.8-1.1h0v-0.1
		c-0.2-1-0.5-1.9-0.7-2.8l0.1,0.1l-4.7,0.1h0.1c-0.2,1.1-0.4,2-0.6,2.8l0,0l0,0c-0.7,0.2-1.5,0.5-2.1,0.8l-0.5,0.3
		C326.4,203.6,326.3,203.7,326.3,203.7l0.2-0.1c0.1-0.1,0.3-0.2,0.5-0.3c0.7-0.4,1.4-0.7,2.1-0.9l0,0c0.2-0.8,0.3-1.7,0.6-2.8v0h0
		l4.7-0.1h0.1v0.1c0.2,0.9,0.4,1.8,0.7,2.7l-0.1-0.1c1,0.2,2,0.6,2.9,1.1h-0.1l2.4-1.6h0.1l0.1,0.1l3.4,3.2l0.1,0.1l0,0.1l-1.4,2.4
		v-0.1c0.5,0.9,0.9,1.8,1.2,2.8l-0.1-0.1l2.8,0.6h0.1v0.1c0,1.5,0.1,3.1,0.1,4.7v0.1h-0.1l-2.7,0.7l0.1-0.1c-0.2,1-0.6,2-1.1,2.9
		V219c0.5,0.8,1,1.6,1.5,2.4l0.1,0.1l-0.1,0.1l-3.2,3.4l-0.1,0.1l-0.1-0.1l-2.4-1.5h0.2c-0.9,0.5-1.8,0.9-2.8,1.2l0.1-0.1
		c-0.2,1-0.4,1.9-0.6,2.8v0.1h-0.1l-4.7,0.1h-0.1v-0.1l-0.7-2.7l0.1,0.1c-1-0.2-2-0.6-2.9-1.1h0.1l-2.4,1.5l-0.1,0.1l-0.1-0.1
		l-3.3-3.2l-0.1-0.1l0.1-0.1l1.5-2.4v0.1c-0.5-0.9-0.9-1.8-1.2-2.8l0.1,0.1l-2.8-0.6h-0.1v-0.1c0-1.6,0-3.2-0.1-4.7v-0.1h0.1
		l2.7-0.7l-0.1,0.1c0.2-1,0.6-2,1.1-2.9v0.1l-1.5-2.3l0,0l0,0c1.3-1.4,2.4-2.5,3.3-3.3l0,0l0,0l1.8,1.1c0.2,0.1,0.3,0.2,0.5,0.3
		L326.3,203.7z"/>
	<path class="st1" d="M363,32.3c1.1-0.7,2.3-1.2,3.6-1.6l0.7-3.6l6-0.1l0.9,3.5c1.3,0.3,2.5,0.8,3.6,1.4l3-2l4.3,4.2l-1.9,3.1
		c0.7,1.1,1.2,2.3,1.6,3.6l3.6,0.7l0.1,6l-3.5,0.9c-0.3,1.3-0.8,2.5-1.4,3.7l2,3l-4.2,4.3l-3.1-1.8c-1.1,0.7-2.3,1.2-3.6,1.6
		l-0.7,3.6l-6,0.1l-0.9-3.5c-1.3-0.3-2.5-0.8-3.6-1.4l-3,2l-4.3-4.2l1.9-3.1c-0.7-1.1-1.2-2.3-1.6-3.6l-3.6-0.8l-0.1-6l3.5-0.9
		c0.3-1.3,0.8-2.5,1.4-3.7l-2-3l4.2-4.3L363,32.3L363,32.3z M366.2,40.3c-2.5,2.6-2.4,6.6,0.2,9.1c2.6,2.5,6.6,2.4,9.1-0.2
		s2.4-6.6-0.2-9.1c0,0,0,0,0,0C372.7,37.7,368.7,37.8,366.2,40.3L366.2,40.3z"/>
	<path class="st1" d="M366.2,40.3c0.3-0.4,0.7-0.8,1.2-1.1c1.2-0.8,2.7-1.2,4.2-1c2.2,0.2,4.2,1.6,5.2,3.6c0.3,0.6,0.5,1.2,0.6,1.8
		c0.1,0.7,0.1,1.3,0,2c-0.4,2.9-2.6,5.2-5.4,5.6c-0.7,0.1-1.3,0.1-2,0c-0.6-0.1-1.3-0.3-1.8-0.5c-1.1-0.5-2-1.2-2.6-2.2
		c-1.5-2.1-1.6-4.9-0.3-7.1C365.4,41.1,365.8,40.7,366.2,40.3c0,0.1-0.4,0.5-0.9,1.4c-0.7,1.3-0.9,2.7-0.7,4.1
		c0.2,0.9,0.5,1.8,1.1,2.6c0.7,0.9,1.5,1.6,2.6,2.1c0.6,0.2,1.1,0.4,1.7,0.5c0.6,0.1,1.3,0.1,1.9,0c2.7-0.4,4.8-2.6,5.2-5.3
		c0.2-1.2,0-2.5-0.6-3.6c-0.9-1.9-2.8-3.2-4.9-3.5c-1.4-0.2-2.9,0.1-4.1,0.9C366.6,39.9,366.2,40.4,366.2,40.3z"/>
	<path class="st1" d="M363,32.3l-0.2-0.1l-0.6-0.3l-2.3-1.4h0.1l-4.2,4.3v-0.2c0.6,0.9,1.3,1.9,2,3v0.1v0.1
		c-0.6,1.1-1.1,2.4-1.4,3.6v0.1h-0.1l-3.5,0.9l0.1-0.1c0,1.9,0.1,3.9,0.1,6l-0.1-0.1l3.6,0.7h0.1v0.1c0.4,1.3,0.9,2.4,1.5,3.6l0,0.1
		l0,0.1l-1.9,3.1v-0.2l4.3,4.2h-0.2l3-2l0.1-0.1h0.1c1.1,0.6,2.3,1.1,3.6,1.4h0.1v0.1l0.9,3.5l-0.2-0.1l6-0.1l-0.2,0.2
		c0.2-1.1,0.5-2.3,0.7-3.6v-0.1h0.1c1.2-0.4,2.4-0.9,3.5-1.5l0,0l0.1-0.1l0.1,0.1l3.1,1.9h-0.2l4.2-4.3v0.2l-2-3l-0.1-0.1l0-0.1
		c0.6-1.1,1.1-2.3,1.4-3.6v-0.1h0.1l3.5-0.9l-0.1,0.2c0-2.1-0.1-4.1-0.1-6l0.1,0.2l-3.5-0.7h-0.1v-0.1c-0.4-1.2-0.9-2.4-1.5-3.6
		l0-0.1l0-0.1l1.9-3.1v0.2l-4.3-4.2h0.2l-3,2h-0.1h-0.1c-1.1-0.6-2.3-1.1-3.6-1.4H374v-0.1c-0.3-1.3-0.6-2.4-0.8-3.5l0.1,0.1l-6,0.1
		l0.1-0.1c-0.3,1.4-0.5,2.6-0.8,3.5l0,0l0,0c-0.9,0.3-1.9,0.6-2.8,1.1l-0.7,0.3L363,32.3l0.2-0.2l0.6-0.4c0.9-0.4,1.8-0.8,2.8-1.1
		l0,0c0.2-1,0.4-2.1,0.7-3.6V27h0.1l6-0.1h0.1V27c0.3,1.1,0.6,2.2,0.9,3.5l-0.1-0.1c1.3,0.3,2.5,0.8,3.7,1.4h-0.1l3-2l0.1-0.1
		l0.1,0.1l4.3,4.2l0.1,0.1l-0.1,0.1c-0.6,1-1.2,2-1.9,3.1v-0.2c0.7,1.1,1.2,2.4,1.6,3.6l-0.1-0.1l3.5,0.7h0.1v0.2c0,1.9,0,3.9,0.1,6
		v0.1h-0.1l-3.5,0.9l0.1-0.1c-0.3,1.3-0.8,2.5-1.5,3.7V52c0.7,1,1.3,2,2,3l0.1,0.1l-0.1,0.1l-4.2,4.4l-0.1,0.1l-0.1-0.1l-3.1-1.9
		h0.2c-1.1,0.7-2.4,1.2-3.6,1.6l0.1-0.1c-0.2,1.2-0.5,2.4-0.7,3.6v0.2H374l-6,0.1h-0.1v-0.1c-0.3-1.2-0.6-2.4-0.9-3.5l0.1,0.1
		c-1.3-0.3-2.5-0.8-3.7-1.5h0.2l-3,2l-0.1,0.1l-0.1-0.1l-4.3-4.2l-0.1-0.1l0.1-0.1l1.9-3.1v0.2c-0.7-1.1-1.2-2.4-1.6-3.6l0.1,0.1
		l-3.6-0.7h-0.1v-0.1c0-2.1-0.1-4.1-0.1-6v-0.1h0.1l3.5-0.9l-0.1,0.1c0.3-1.3,0.8-2.5,1.5-3.7v0.1l-2-3v-0.1l-0.1-0.2l4.2-4.3l0,0
		l0,0l2.3,1.4l0.6,0.4L363,32.3z"/>
	<path class="st1" d="M264.9,58.9c0.9-0.5,1.8-0.9,2.8-1.2l0.6-2.8l4.7-0.1l0.7,2.7c1,0.3,1.9,0.6,2.8,1.1l2.4-1.6l3.4,3.2l-1.5,2.4
		c0.5,0.9,0.9,1.8,1.2,2.8l2.8,0.6l0.1,4.7l-2.7,0.7c-0.2,1-0.6,1.9-1.1,2.8l1.5,2.4l-3.2,3.4l-2.4-1.5c-0.9,0.5-1.8,0.9-2.8,1.2
		l-0.6,2.8l-4.7,0.1l-0.7-2.7c-1-0.3-1.9-0.6-2.8-1.1l-2.3,1.6l-3.4-3.2l1.5-2.4c-0.5-0.9-0.9-1.8-1.2-2.8l-2.8-0.6l-0.1-4.7
		l2.7-0.7c0.2-1,0.6-1.9,1.1-2.8l-1.5-2.4l3.2-3.4L264.9,58.9L264.9,58.9z M267.4,65.2c-1.9,2-1.9,5.2,0.1,7.1
		c2,1.9,5.2,1.9,7.1-0.1c1.9-2,1.9-5.1-0.1-7.1C272.5,63.1,269.3,63.2,267.4,65.2C267.4,65.2,267.4,65.2,267.4,65.2z"/>
	<path class="st1" d="M267.4,65.2c0.3-0.3,0.6-0.6,0.9-0.8c1.7-1.1,3.8-1.1,5.5,0c0.8,0.5,1.4,1.2,1.8,2c0.2,0.4,0.4,0.9,0.5,1.4
		c0.1,0.5,0.1,1,0,1.5c-0.1,1.1-0.6,2.1-1.4,2.9c-0.8,0.8-1.8,1.3-2.8,1.5c-0.5,0.1-1,0.1-1.5,0c-0.5-0.1-1-0.2-1.4-0.4
		c-0.8-0.4-1.6-1-2.1-1.7c-0.5-0.7-0.8-1.4-0.9-2.2c-0.2-1.1,0.1-2.3,0.7-3.3c0.2-0.4,0.5-0.7,0.8-1c0,0-0.3,0.3-0.7,1
		c-0.5,1-0.7,2.1-0.5,3.2c0.1,0.7,0.4,1.5,0.9,2.1c0.5,0.7,1.2,1.3,2,1.6c0.4,0.2,0.9,0.3,1.4,0.4c0.5,0.1,1,0.1,1.5,0
		c2.1-0.3,3.7-2,4-4.1c0.1-0.5,0.1-1,0-1.5c-0.1-0.5-0.2-0.9-0.4-1.3c-0.7-1.5-2.2-2.5-3.8-2.7c-1.1-0.1-2.2,0.1-3.2,0.7
		C267.7,64.9,267.4,65.2,267.4,65.2z"/>
	<path class="st1" d="M264.9,58.9c0,0,0,0-0.2-0.1l-0.5-0.3l-1.8-1.1h0.1l-3.2,3.4v-0.1l1.6,2.3l0,0l0,0c-0.5,0.9-0.9,1.8-1.1,2.8
		V66h-0.1l-2.7,0.7l0.1-0.1c0,1.5,0.1,3,0.1,4.7l-0.1-0.1l2.8,0.6h0.1v0.1c0.3,1,0.7,1.9,1.2,2.8v0.1v0.1c-0.5,0.8-1,1.6-1.5,2.4V77
		l3.4,3.2h-0.2l2.4-1.6h0.1h0.1c0.9,0.5,1.8,0.9,2.8,1.1h0.1v0.1l0.7,2.7l-0.1-0.1l4.7-0.1l-0.1,0.1c0.2-0.9,0.4-1.8,0.6-2.8v-0.1
		h0.1c1-0.3,1.9-0.7,2.8-1.2l0,0h0.1h0.1l2.4,1.5H279c1.1-1.1,2.2-2.3,3.2-3.4v0.2l-1.5-2.4l0-0.1l0-0.1c0.5-0.9,0.9-1.8,1.1-2.8
		v-0.1h0.1l2.7-0.7l-0.1,0.1c0-1.6,0-3.2-0.1-4.7l0.1,0.1l-2.8-0.6h-0.1v-0.1c-0.3-1-0.7-1.9-1.2-2.8v-0.1v-0.1l1.5-2.4v0.2
		l-3.3-3.2h0.1l-2.4,1.5h0h-0.1c-0.9-0.5-1.8-0.9-2.8-1.1h-0.1v0c-0.2-1-0.5-1.9-0.7-2.8l0.1,0.1l-4.7,0.1l0.1-0.1
		c-0.2,1.1-0.4,2-0.6,2.8l0,0l0,0c-0.7,0.2-1.5,0.5-2.1,0.8l-0.5,0.3C264.9,58.9,264.9,58.9,264.9,58.9l0.2-0.1
		c0.1-0.1,0.3-0.2,0.5-0.3c0.7-0.4,1.4-0.7,2.1-0.9l0,0c0.2-0.8,0.3-1.7,0.6-2.8v-0.1l0,0l4.7-0.1h0.1v0.1c0.2,0.8,0.4,1.8,0.7,2.7
		l-0.1-0.1c1,0.3,2,0.7,2.9,1.2h-0.1l2.3-1.6h0.1l0.1,0.1l3.4,3.2l0.1,0.1l0,0.1l-1.5,2.4v-0.1c0.5,0.9,0.9,1.8,1.2,2.8l-0.1-0.1
		l2.8,0.6h0.1v0.1c0,1.5,0.1,3.1,0.1,4.7V71h-0.1l-2.7,0.7l0.1-0.1c-0.2,1-0.6,2-1.1,2.9v-0.1l1.5,2.3l0.1,0.1l-0.1,0.1l-3.2,3.4
		l-0.1,0.1l-0.1-0.1l-2.5-1.5h0.1c-0.9,0.5-1.8,0.9-2.8,1.2l0.1-0.1c-0.2,1-0.4,1.9-0.6,2.8v0.1h-0.1l-4.7,0.1h-0.1v-0.1L268,80
		l0.1,0.1c-1-0.2-2-0.6-2.9-1.1h0.1l-2.4,1.5l-0.1,0.1l-0.1-0.1l-3.3-3.2l-0.1-0.1l0.1-0.1l1.5-2.4v0.1c-0.5-0.9-0.9-1.8-1.2-2.8
		l0.1,0.1l-2.8-0.6H257v-0.1c0-1.6,0-3.2-0.1-4.7v-0.1h0.1l2.7-0.7l-0.1,0.1c0.2-1,0.6-2,1-2.9v0.1c-0.6-0.8-1.1-1.7-1.5-2.4l0,0
		l0,0c1.3-1.4,2.4-2.5,3.3-3.3l0,0l0,0l1.8,1.1c0.2,0.1,0.4,0.2,0.5,0.3L264.9,58.9z"/>
	<path class="st1" d="M51,141.3c0.9-0.5,1.8-0.9,2.8-1.2l0.6-2.8l4.7-0.1l0.7,2.7c1,0.2,1.9,0.6,2.8,1.1l2.4-1.6l3.4,3.2l-1.5,2.4
		c0.5,0.9,0.9,1.8,1.2,2.8l2.8,0.6l0.1,4.7l-2.7,0.7c-0.2,1-0.6,1.9-1.1,2.8l1.6,2.4l-3.2,3.4l-2.4-1.5c-0.9,0.5-1.8,0.9-2.8,1.2
		l-0.6,2.8l-4.7,0.1l-0.7-2.7c-1-0.2-1.9-0.6-2.8-1.1l-2.4,1.6l-3.3-3.2l1.5-2.4c-0.5-0.9-0.9-1.8-1.2-2.8l-2.8-0.6L43,149l2.7-0.7
		c0.2-1,0.6-1.9,1.1-2.8l-1.6-2.4l3.2-3.4L51,141.3L51,141.3z M53.5,147.5c-1.9,2-1.9,5.2,0.1,7.1c2,1.9,5.2,1.9,7.1-0.1
		c1.9-2,1.9-5.1-0.1-7.1C58.6,145.4,55.4,145.5,53.5,147.5C53.5,147.5,53.5,147.5,53.5,147.5z"/>
	<path class="st1" d="M53.5,147.5c0.3-0.3,0.6-0.6,0.9-0.8c1.7-1.1,3.8-1.1,5.5,0c0.8,0.5,1.4,1.2,1.8,2c0.2,0.4,0.4,0.9,0.4,1.4
		c0.1,0.5,0.1,1,0,1.5c-0.1,1.1-0.6,2.1-1.4,2.9c-0.8,0.8-1.8,1.3-2.8,1.5c-0.5,0.1-1,0.1-1.6,0c-0.5-0.1-1-0.2-1.4-0.4
		c-1.6-0.7-2.7-2.2-3-3.9c-0.2-1.1,0.1-2.3,0.7-3.3C52.8,148,53.1,147.7,53.5,147.5c-0.1-0.1-0.4,0.2-0.8,0.9
		c-1.3,2.4-0.5,5.4,1.9,6.7c0.1,0.1,0.3,0.1,0.4,0.2c0.4,0.2,0.9,0.3,1.3,0.4c0.5,0.1,1,0.1,1.5,0c2.1-0.3,3.7-2,4-4.1
		c0.1-0.5,0.1-1,0-1.5c-0.1-0.5-0.2-0.9-0.4-1.3c-0.7-1.5-2.2-2.5-3.8-2.7c-1.1-0.1-2.2,0.1-3.2,0.7
		C53.8,147.2,53.5,147.5,53.5,147.5z"/>
	<path class="st1" d="M51,141.3c0,0-0.1,0-0.2-0.1l-0.5-0.3l-1.8-1.1h0.1l-3.2,3.4v-0.1l1.6,2.4l0,0v0.1c-0.5,0.9-0.9,1.8-1.1,2.8
		v0.1l0,0l-2.7,0.7l0.1-0.1c0,1.5,0.1,3,0.1,4.7l-0.1-0.1l2.8,0.6h0.1v0.1c0.3,1,0.7,1.9,1.2,2.8v0.1v0.1l-1.5,2.4v-0.2l3.3,3.3
		h-0.2l2.4-1.6h0.1h0.1c0.9,0.5,1.8,0.9,2.8,1.1h0.1v0.1c0.2,0.9,0.4,1.8,0.7,2.7l-0.1-0.1l4.7-0.1l-0.1,0.1
		c0.2-0.9,0.4-1.8,0.6-2.8v-0.1H60c1-0.3,1.9-0.7,2.8-1.2l0,0l0.1-0.1l0.1,0.1l2.4,1.5h-0.2l3.2-3.4v0.2l-1.6-2.4v-0.1v-0.1
		c0.5-0.9,0.9-1.8,1.1-2.8v-0.1H68l2.7-0.7l-0.1,0.1c0-1.6,0-3.1-0.1-4.7l0.1,0.1l-2.8-0.6h-0.1v-0.1c-0.3-1-0.7-1.9-1.2-2.8v-0.1
		v-0.1l1.5-2.5v0.1c-1.2-1.1-2.3-2.2-3.3-3.2h0.1l-2.4,1.5h-0.1h-0.1c-0.9-0.5-1.8-0.9-2.8-1.1h-0.1v-0.1l-0.7-2.7l0.1,0.1l-4.7,0.1
		l0.1-0.1c-0.2,1.1-0.4,2-0.6,2.8l0,0l0,0c-0.7,0.2-1.4,0.5-2.1,0.8l-0.5,0.3C51.1,141.2,51,141.2,51,141.3l0.2-0.2
		c0.1-0.1,0.3-0.2,0.5-0.3c0.7-0.4,1.4-0.6,2.1-0.9l0,0c0.2-0.8,0.3-1.7,0.6-2.8v-0.1l0,0L59,137h0.1v0.1c0.2,0.8,0.4,1.7,0.7,2.7
		l-0.1-0.1c1,0.2,2,0.6,2.9,1.1h-0.1l2.3-1.6h0.1l0.1,0.1l3.4,3.3l0.1,0.1v0.1l-1.5,2.4v-0.1c0.5,0.9,1,1.8,1.2,2.8l-0.1-0.1
		l2.8,0.6h0.1v0.1c0,1.5,0.1,3.1,0.1,4.7v0.1h-0.1l-2.7,0.7l0.1-0.1c-0.2,1-0.6,2-1.1,2.9v-0.1l1.5,2.3l0.1,0.1l-0.1,0.1l-3.2,3.4
		l-0.1,0.1l-0.1-0.1l-2.4-1.5h0.1c-0.9,0.5-1.8,0.9-2.8,1.2l0.1-0.1c-0.2,1-0.4,1.9-0.6,2.8v0.1h-0.1l-4.7,0.1h-0.1v-0.1l-0.7-2.7
		l0.1,0.1c-1-0.2-2-0.6-2.9-1.1h0.1l-2.4,1.5l-0.1,0.1l-0.1-0.1l-3.3-3.2l-0.1-0.1v-0.1L47,157v0.1c-0.5-0.9-0.9-1.8-1.2-2.8
		l0.1,0.1l-2.8-0.6H43v-0.1c0-1.6,0-3.2-0.1-4.7v-0.1H43l2.7-0.7l-0.1,0.1c0.3-1,0.6-2,1.1-2.9v0.1l-1.5-2.4l0,0l0,0l3.3-3.3l0,0
		l0,0l1.8,1.1l0.5,0.3L51,141.3z"/>
	<path class="st0" d="M85,289.2L85,289.2l-2.1-8.7c-3.1-0.8-6.2-2-9-3.5l-7.5,4.9l0,0l-10.6-10.3l0,0l4.6-7.6
		c-1.7-2.8-2.9-5.7-3.8-8.8l-8.8-1.8l0,0l-0.3-14.8l0,0l8.7-2.1c0.8-3.1,2-6.2,3.5-9l-4.9-7.5l0,0l10.3-10.7l0,0l7.6,4.6
		c2.8-1.7,5.7-3,8.8-3.8l1.8-8.8l0,0l14.8-0.3l0,0l2.1,8.7c3.1,0.8,6.2,1.9,9,3.5l7.5-4.9l0,0l10.7,10.4l0,0l-4.6,7.6
		c1.7,2.8,3,5.7,3.8,8.8l8.8,1.8l0,0l0.3,14.8l0,0l-8.7,2.1c-0.8,3.1-2,6.2-3.5,9l4.9,7.5l0,0L118.2,281l0,0l-7.6-4.6
		c-2.8,1.7-5.7,3-8.8,3.8l-1.8,8.8l0,0L85,289.2z M73.9,276.9L73.9,276.9c2.8,1.6,5.9,2.8,9,3.5l0,0l0,0l2.1,8.7l14.8-0.2l1.8-8.8
		l0,0c3.1-0.9,6.1-2.2,8.8-3.8l0,0l7.6,4.6l10.2-10.6l-4.9-7.5l0,0c1.6-2.8,2.8-5.9,3.5-9l0,0l8.7-2.2l-0.3-14.8l-8.7-1.8l0,0
		c-0.9-3.1-2.2-6.1-3.8-8.8l0,0l4.6-7.6l-10.6-10.2l-7.5,4.9l0,0c-2.8-1.6-5.9-2.8-9-3.5l0,0l0,0l-2.1-8.7l-14.8,0.3l-1.8,8.7l0,0
		c-3.1,0.9-6.1,2.2-8.8,3.8l0,0l-7.6-4.6l-10.3,10.6l4.9,7.5l0,0c-1.6,2.8-2.8,5.9-3.5,9l0,0l-8.7,2.1l0.3,14.8l8.7,1.8l0,0
		c0.9,3.1,2.2,6.1,3.8,8.8l0,0l-4.6,7.6l10.6,10.2L73.9,276.9z M92.1,260.5c-8.8,0-15.9-7.1-15.9-15.9c0-4.1,1.6-8.1,4.5-11l0,0l0,0
		c2.9-3,6.9-4.8,11.2-4.9h0.3c8.8-0.1,16,7,16,15.8c0.1,8.8-7,16-15.8,16l0,0L92.1,260.5z M92.1,228.8c-8.7-0.2-16,6.7-16.2,15.4
		c-0.2,8.7,6.7,16,15.4,16.2c0.3,0,0.5,0,0.8,0h0.3c8.7-0.3,15.6-7.6,15.3-16.3C107.4,235.7,100.6,228.9,92.1,228.8L92.1,228.8z"/>
	<path class="st2" d="M80.7,233.6c0.8-1,1.9-1.9,3-2.6c3.1-2,6.7-2.9,10.3-2.5c5.5,0.6,10.3,4,12.7,8.9c0.7,1.4,1.2,2.9,1.4,4.5
		c0.3,1.6,0.3,3.3,0.1,4.9c-0.9,7.1-6.4,12.7-13.4,13.9c-1.6,0.3-3.3,0.3-4.9,0.1c-1.6-0.2-3.1-0.6-4.5-1.3
		c-2.6-1.2-4.9-3.1-6.6-5.5c-1.5-2.1-2.4-4.5-2.8-7c-0.5-3.6,0.2-7.2,2.1-10.3C78.9,235.5,79.7,234.5,80.7,233.6
		c0.1,0.1-1,1.1-2.1,3.3c-1.7,3.1-2.3,6.7-1.8,10.2c0.9,5.2,4.3,9.5,9.1,11.6c1.4,0.6,2.8,1,4.3,1.2c1.5,0.2,3.1,0.2,4.6-0.1
		c6.6-1.1,11.8-6.4,12.7-13.1c0.4-3-0.1-6.1-1.4-8.9c-2.3-4.7-6.8-8-12-8.6c-3.5-0.4-7.1,0.3-10.1,2.1
		C81.7,232.6,80.8,233.7,80.7,233.6z"/>
	<path class="st2" d="M72.8,213.9c-0.2-0.1-0.3-0.2-0.5-0.3l-1.5-0.9l-5.8-3.4h0.2l-10.2,10.7v-0.3l4.9,7.4l0.1,0.1l-0.1,0.1
		c-1.5,2.8-2.7,5.8-3.5,8.9v0.2h-0.2l-8.7,2.2l0.2-0.3c0.1,4.6,0.2,9.6,0.3,14.8l-0.3-0.4l8.7,1.8h0.2l0.1,0.2
		c0.9,3.1,2.2,6,3.8,8.8l0.1,0.2l-0.1,0.2l-4.6,7.6l-0.1-0.5l10.7,10.3l-0.5,0l7.5-4.9l0.2-0.1l0.2,0.1c2.8,1.5,5.8,2.7,8.9,3.5
		l0.3,0.1l0.1,0.3c0.7,2.7,1.4,5.7,2.1,8.7l-0.4-0.3l14.8-0.3l-0.4,0.4c0.6-2.8,1.2-5.8,1.8-8.8l0.1-0.3l0.3-0.1
		c3.1-0.9,6-2.1,8.7-3.8l0,0l0.2-0.1l0.2,0.1l7.6,4.6l-0.6,0.1L128,270v0.6l-4.9-7.5l-0.1-0.2l0.1-0.2c1.6-2.8,2.7-5.8,3.5-8.9
		l0.1-0.3l0.3-0.1l8.7-2.1l-0.3,0.4c-0.1-5-0.2-10-0.2-14.8l0.3,0.4l-8.7-1.8l-0.2,0l-0.1-0.2c-0.9-3.1-2.1-6-3.8-8.8l-0.1-0.2
		l0.1-0.2c1.6-2.6,3.1-5.2,4.6-7.6l0.1,0.5l-10.6-10.3h0.4l-7.5,4.9l-0.2,0.1l-0.2-0.1c-2.8-1.6-5.8-2.7-8.9-3.5h-0.2v-0.2
		c-0.8-3.2-1.4-6-2.1-8.7l0.3,0.2l-14.8,0.2l0.2-0.2c-0.8,3.5-1.4,6.4-1.9,8.7v0.1h-0.1c-2.3,0.6-4.6,1.5-6.8,2.6l-1.6,0.8
		c-0.2,0.1-0.3,0.2-0.5,0.3c0.2-0.1,0.3-0.2,0.5-0.3c0.3-0.2,0.8-0.5,1.6-0.9c2.1-1.1,4.4-2.1,6.8-2.8l-0.1,0.1
		c0.5-2.4,1.1-5.3,1.8-8.8v-0.2h0.2l14.8-0.3h0.2l0.1,0.2c0.7,2.7,1.4,5.5,2.2,8.7l-0.2-0.2c3.2,0.8,6.2,2,9.1,3.5h-0.3l7.4-4.9
		l0.2-0.2l0.2,0.2l10.7,10.2l0.2,0.2l-0.2,0.3l-4.6,7.6v-0.4c1.7,2.8,3,5.8,3.9,8.9l-0.3-0.3l8.8,1.8l0.3,0.1v0.3
		c0.1,4.8,0.2,9.7,0.3,14.8v0.4l-0.3,0.1l-8.7,2.1l0.3-0.3c-0.8,3.2-2,6.2-3.6,9.1v-0.5l4.9,7.5l0.2,0.3l-0.2,0.3l-10.3,10.6
		l-0.2,0.3l-0.3-0.2l-7.7-4.7h0.5c-2.8,1.7-5.8,3-9,3.9l0.3-0.3c-0.6,3-1.2,6-1.8,8.8l-0.1,0.4h-0.4L85,289.6h-0.3l-0.1-0.4
		c-0.7-3-1.4-6-2.1-8.7l0.3,0.3c-3.2-0.8-6.2-2-9.1-3.6h0.4l-7.5,4.9l-0.3,0.2l-0.2-0.2l-10.6-10.3l-0.2-0.2l0.2-0.3l4.7-7.6v0.4
		c-1.7-2.8-3-5.8-3.9-8.9l0.3,0.3l-8.8-1.8l-0.3-0.1v-0.3c-0.1-5.2-0.2-10.1-0.2-14.8v-0.3l0.2-0.1l8.7-2.1l-0.2,0.2
		c0.8-3.1,2-6.2,3.6-9v0.3c-1.8-2.7-3.4-5.2-4.9-7.5l-0.1-0.1l0.1-0.1l10.3-10.6l0.1-0.1l0.1,0.1l5.6,3.5l1.4,0.9
		C72.5,213.7,72.7,213.8,72.8,213.9z"/>
	<path class="st0" d="M327.8,64.7c2.2,0,4.3,0.4,6.4,1l4.2-4.3l8.5,5.2l-1.9,5.7c1.5,1.6,2.8,3.3,3.8,5.2l6-0.1l2.4,9.7l-5.4,2.7
		c0,2.2-0.4,4.3-1,6.4l4.3,4.2l-5.2,8.5l-5.7-1.9c-1.6,1.5-3.3,2.8-5.2,3.8l0.1,6l-9.7,2.4l-2.7-5.4c-2.2,0-4.3-0.4-6.4-1l-4.2,4.3
		l-8.5-5.2l1.9-5.7c-1.5-1.6-2.8-3.3-3.8-5.2l-6,0.1l-2.4-9.7l5.4-2.7c0.1-2.2,0.4-4.3,1-6.4l-4.3-4.2l5.1-8.5l5.7,1.9
		c1.6-1.5,3.3-2.8,5.2-3.8l-0.1-6l9.7-2.4L327.8,64.7z M325.2,78.7c-5.7,1.4-9.2,7.2-7.8,12.9c1.4,5.7,7.2,9.2,12.9,7.8
		c5.7-1.4,9.2-7.2,7.8-12.9c0,0,0,0,0,0C336.7,80.8,331,77.3,325.2,78.7L325.2,78.7z"/>
	<path class="st0" d="M325.2,78.7c0.8-0.3,1.7-0.4,2.6-0.4c2.5,0,4.8,0.8,6.8,2.3c1.3,1.1,2.4,2.4,3.1,4c0.8,1.8,1.1,3.7,0.9,5.7
		c-0.1,1-0.4,2-0.8,3c-0.4,1-1,2-1.7,2.8c-3.1,3.7-8.2,5-12.6,3.1c-2-0.8-3.7-2.2-4.9-4c-2.1-3.1-2.4-7-0.9-10.4
		c1-2.2,2.7-4.1,4.9-5.2C323.5,79.1,324.4,78.8,325.2,78.7c-0.8,0.3-1.6,0.7-2.4,1.1c-2.1,1.2-3.7,3-4.6,5.2c-1.4,3.3-1,7,0.9,9.9
		c0.6,0.8,1.2,1.6,2,2.2c0.8,0.7,1.7,1.2,2.7,1.6c4.2,1.7,9,0.6,11.9-2.9c0.7-0.8,1.2-1.7,1.6-2.7c0.4-0.9,0.7-1.9,0.8-2.9
		c0.2-1.8-0.1-3.7-0.8-5.4c-0.7-1.5-1.7-2.8-2.9-3.8c-1.8-1.5-4.1-2.4-6.5-2.4C327,78.5,326.1,78.6,325.2,78.7z"/>
	<path class="st0" d="M327.8,64.7c-0.1-0.1-0.1-0.2-0.2-0.3c-0.1-0.2-0.3-0.6-0.5-1c-0.5-0.9-1.2-2.3-2-4h0.1l-9.6,2.4l0.1-0.1
		c0,1.8,0.1,3.8,0.1,6v0.1l-0.1,0.1c-1.9,1-3.6,2.3-5.2,3.8l-0.1,0.1h-0.1l-5.7-1.9l0.3-0.1l-5.2,8.5v-0.3l4.3,4.2l0.1,0.1l0,0.2
		c-0.6,2.1-0.9,4.2-1,6.3v0.2l-0.2,0.1l-5.4,2.7l0.1-0.3c0.8,3,1.6,6.3,2.4,9.7l-0.3-0.2l6-0.1h0.2l0.1,0.1c1,1.9,2.3,3.6,3.8,5.2
		l0.1,0.1l-0.1,0.2c-0.6,1.8-1.2,3.7-1.9,5.7l-0.1-0.4l8.5,5.1l-0.4,0.1l4.2-4.3l0.1-0.1l0.2,0.1c2.1,0.6,4.2,1,6.3,1h0.2l0.1,0.2
		c0.9,1.8,1.8,3.6,2.7,5.4l-0.3-0.2l9.7-2.4l-0.2,0.3c0-2-0.1-4-0.1-6v-0.2l0.2-0.1c1.9-1,3.6-2.3,5.2-3.8l0.1-0.1l0.2,0.1l5.7,1.9
		l-0.3,0.1c1.8-2.9,3.5-5.7,5.2-8.5v0.3l-4.3-4.2l-0.1-0.1l0-0.2c0.6-2.1,0.9-4.2,1-6.3v-0.2l0.1-0.1l5.4-2.7L357,87
		c-0.8-3.4-1.6-6.6-2.3-9.7l0.2,0.2l-6,0.1h-0.1l-0.1-0.1c-1-1.9-2.3-3.6-3.8-5.2l-0.1-0.1v-0.1l1.9-5.7l0.1,0.2l-8.5-5.2h0.2
		l-4.2,4.3l0,0h-0.1c-1.6-0.5-3.2-0.8-4.8-1l-1.2-0.1C328.1,64.7,328,64.7,327.8,64.7c0.1,0,0.3,0,0.4,0c0.3,0,0.7,0,1.2,0
		c1.6,0.1,3.3,0.4,4.8,0.9h-0.1l4.1-4.4l0.1-0.1l0.1,0.1l8.5,5.1l0.1,0.1v0.1c-0.6,1.8-1.2,3.6-1.9,5.7V72c1.5,1.6,2.8,3.3,3.9,5.3
		l-0.2-0.1l6-0.1h0.2l0,0.2c0.8,3,1.5,6.3,2.4,9.7V87l-0.2,0.1l-5.4,2.7l0.2-0.2c0,2.2-0.4,4.4-1,6.5l-0.1-0.3l4.3,4.2l0.2,0.2
		l-0.1,0.2c-1.7,2.8-3.4,5.6-5.1,8.5l-0.1,0.2L350,109l-5.7-1.9l0.3-0.1c-1.6,1.5-3.4,2.8-5.3,3.9l0.2-0.3c0,2,0.1,4,0.1,6v0.2
		l-0.2,0.1l-9.6,2.5l-0.2,0.1l-0.1-0.2c-0.9-1.8-1.8-3.6-2.7-5.4l0.3,0.2l0,0c-2.2,0-4.4-0.4-6.5-1l0.3-0.1l-4.2,4.3l-0.2,0.2
		l-0.2-0.1l-8.5-5.2l-0.2-0.1l0.1-0.2c0.7-2,1.3-3.9,1.9-5.7l0.1,0.3c-1.5-1.6-2.8-3.4-3.9-5.3l0.3,0.1l-6,0.1h-0.2l0-0.2l-2.4-9.7
		v-0.2l0.2-0.1l5.4-2.7l-0.2,0.2c0-2.2,0.4-4.4,1-6.5l0.1,0.2c-1.5-1.5-3-2.9-4.3-4.2l-0.1-0.1l0.1-0.2l5.2-8.5l0.1-0.2l0.2,0.1
		l5.7,1.9h-0.2c1.6-1.5,3.4-2.8,5.3-3.8l-0.1,0.2c0-2.2-0.1-4.2-0.1-6v-0.1h0.1l9.7-2.3h0.1v0.1l2,4l0.5,1
		C327.8,64.5,327.8,64.7,327.8,64.7z"/>
	<path class="st2" d="M355.7,254.2c0.8-0.3,1.7-0.4,2.6-0.4c4.3,0,8.2,2.4,10,6.3c0.8,1.8,1.1,3.8,0.9,5.7c-0.2,2.2-1.1,4.2-2.5,5.9
		c-3.1,3.7-8.3,5-12.7,3.1c-1-0.4-2-1-2.8-1.7c-0.8-0.7-1.5-1.5-2.1-2.4c-2.1-3.1-2.4-7.1-0.9-10.5c1-2.3,2.8-4.1,5-5.2
		C354,254.6,354.9,254.3,355.7,254.2c-0.8,0.3-1.6,0.7-2.4,1.1c-2.1,1.2-3.8,3-4.7,5.2c-0.6,1.5-0.9,3.1-0.8,4.8
		c0.1,1.9,0.7,3.7,1.8,5.2c0.6,0.8,1.2,1.6,2,2.2c0.8,0.7,1.7,1.2,2.7,1.6c4.2,1.7,9.1,0.6,12-2.9c0.7-0.8,1.2-1.7,1.6-2.7
		c0.4-0.9,0.7-1.9,0.8-2.9c0.4-3.6-1-7.1-3.8-9.3c-1.9-1.5-4.2-2.4-6.6-2.4C357.5,254,356.6,254.1,355.7,254.2z"/>
	<path class="st2" d="M358.3,240l-0.2-0.3c-0.1-0.2-0.3-0.6-0.5-1l-2.1-4h0.1l-9.7,2.4l0.1-0.1c0,1.8,0.1,3.9,0.1,6.1v0.1l-0.1,0.1
		c-1.9,1-3.7,2.3-5.2,3.9l-0.1,0.1h-0.1l-5.8-1.9l0.3-0.1l-5.2,8.6v-0.3l4.4,4.2l0.1,0.1v0.1c-0.6,2.1-1,4.2-1,6.4v0.2l-0.1,0.1
		l-5.4,2.7l0.2-0.3c0.8,3.1,1.6,6.4,2.4,9.8l-0.3-0.2l6.1-0.1h0.2l0.1,0.2c1,1.9,2.3,3.6,3.8,5.2l0.1,0.1l-0.1,0.2
		c-0.6,1.8-1.2,3.8-1.9,5.8l-0.1-0.4l8.6,5.2l-0.4,0l4.2-4.4l0.1-0.1l0.2,0c2.1,0.6,4.2,1,6.4,1h0.2l0.1,0.2
		c0.9,1.8,1.8,3.6,2.7,5.4l-0.3-0.2l9.8-2.4l-0.2,0.3c0-2-0.1-4.1-0.1-6.1v-0.2l0.2-0.1c1.9-1,3.7-2.3,5.2-3.8l0.1-0.1l0.2,0.1
		l5.8,1.9l-0.3,0.1l5.2-8.6l0,0.4l-4.4-4.2l-0.1-0.1l0-0.2c0.6-2.1,1-4.2,1-6.4v-0.2l0.1-0.1l5.4-2.7l-0.1,0.3
		c-0.8-3.4-1.6-6.7-2.4-9.8l0.2,0.2l-6.1,0.1h-0.1l-0.1-0.1c-1-1.9-2.3-3.7-3.8-5.2l-0.1-0.1v-0.1c0.7-2.1,1.3-4,1.9-5.8l0.1,0.2
		l-8.6-5.2h0.2c-1.7,1.7-3.1,3.1-4.2,4.3h0h0c-1.6-0.5-3.2-0.8-4.8-1l-1.2-0.1h-0.4h0.4c0.3,0,0.7,0,1.2,0c1.6,0.1,3.3,0.4,4.9,0.9
		h-0.1l4.2-4.4l0.1-0.1l0.1,0.1l8.5,5.1l0.1,0.1l0,0.1l-1.9,5.8l0-0.2c1.5,1.6,2.9,3.4,3.9,5.3l-0.2-0.1l6.1-0.1h0.2l0,0.2l2.4,9.8
		v0.2l-0.2,0.1l-5.4,2.7l0.2-0.2c0,2.2-0.4,4.4-1,6.5l-0.1-0.3l4.4,4.2l0.2,0.2l-0.1,0.2c-1.7,2.8-3.4,5.7-5.2,8.6l-0.1,0.2
		l-0.2-0.1l-5.8-1.9l0.3-0.1c-1.6,1.5-3.4,2.9-5.3,3.9l0.2-0.3c0,2,0.1,4,0.1,6.1v0.2l-0.2,0.1l-9.8,2.4l-0.2,0.1l-0.1-0.2
		c-0.9-1.8-1.8-3.6-2.7-5.4l0.3,0.2l0,0c-2.2,0-4.4-0.4-6.5-1l0.3-0.1c-1.5,1.5-2.9,3-4.2,4.4l-0.2,0.2l-0.2-0.1l-8.6-5.2l-0.2-0.1
		l0.1-0.2c0.7-2,1.3-4,1.9-5.8l0.1,0.3c-1.5-1.6-2.9-3.4-3.9-5.3l0.3,0.1L330,277h-0.2l0-0.2c-0.8-3.4-1.6-6.7-2.4-9.8l0-0.2
		l0.2-0.1c1.9-0.9,3.7-1.9,5.4-2.7l-0.2,0.2c0-2.2,0.4-4.4,1-6.5l0.1,0.3l-4.4-4.2l-0.1-0.1l0.1-0.2c1.8-3,3.6-5.9,5.2-8.6l0.1-0.1
		l0.2,0l5.8,1.9l-0.2,0c1.6-1.5,3.4-2.8,5.3-3.9l-0.1,0.2c0-2.2-0.1-4.2-0.1-6.1v-0.1h0.1l9.8-2.3h0.1v0.1c0.8,1.8,1.5,3.1,2,4
		l0.5,1C358.2,239.8,358.3,239.9,358.3,240z"/>
	<polygon class="st1" points="36.9,422.1 36.9,453 82,453 131.7,453 131.7,422.1 	"/>
	<polygon class="st0" points="32.9,413.5 32.9,422.1 135.1,422.1 135.1,413.5 82,413.5 	"/>
	<polygon class="st0" points="84,453 131.7,453 131.7,422.1 135.1,422.1 135.1,413.5 82,413.5 82,421.3 	"/>
	<rect x="50.1" y="427.1" class="st0" width="19.2" height="4.6"/>
	<rect x="47.7" y="437.5" class="st3" width="24.7" height="9.8"/>
	<polygon class="st1" points="51.5,382.7 51.5,413.5 96.6,413.5 146.3,413.5 146.3,382.7 	"/>
	<polygon class="st0" points="47.5,374.1 47.5,382.7 149.6,382.7 149.6,374.1 96.6,374.1 	"/>
	<polygon class="st0" points="98.6,413.5 146.3,413.5 146.3,382.7 149.6,382.7 149.6,374.1 96.6,374.1 96.6,381.9 	"/>
	<rect x="64.7" y="387.7" class="st0" width="19.2" height="4.6"/>
	<rect x="62.3" y="398.1" class="st3" width="24.7" height="9.8"/>
</g>
<g id="Floor--inject-2">
	<path class="st4" d="M461.3,453c0,0.1-103.3,0.3-230.7,0.3S0,453.1,0,453s103.3-0.3,230.7-0.3S461.3,452.8,461.3,453z"/>
</g>
<g id="Gears--inject-2">
	<path class="st5" d="M66.8,33.1c3.7-2.2,7.7-3.9,11.8-5.1l2.4-11.6l19.6-0.3l2.8,11.5c4.2,1,8.2,2.6,11.9,4.7l9.9-6.5l14.1,13.7
		l-6.2,10.1c2.2,3.7,3.9,7.6,5.1,11.8l11.6,2.5l0.3,19.6l-11.5,2.8c-1,4.2-2.6,8.2-4.7,11.9l6.5,9.9l-13.7,14.1l-10.1-6.2
		c-3.7,2.2-7.6,3.9-11.8,5.1l-2.5,11.6l-19.6,0.3l-2.8-11.5c-4.2-1-8.2-2.6-11.9-4.7l-10,6.5l-14-13.7l6.2-10.1
		c-2.2-3.7-3.9-7.7-5.1-11.8l-11.6-2.5l-0.3-19.5l11.5-2.8c1-4.2,2.6-8.2,4.7-11.9L43,41l13.7-14.1C56.7,26.9,66.8,33.1,66.8,33.1z"
		/>
	<path class="st3" d="M103.3,68.8c-0.1-1.4-0.3-2.8-0.6-4.2c-0.4-1.6-1-3.1-1.9-4.5c-2.5-4.1-6.6-7-11.4-7.9c-2.9-0.5-6-0.3-8.8,0.8
		c-1.5,0.5-2.9,1.3-4.2,2.3c-1.4,1-2.6,2.2-3.5,3.6c-4.3,5.9-4.3,13.9,0,19.8c0.5,0.7,1.1,1.4,1.6,2c0.6,0.6,1.2,1.1,1.9,1.6
		c1.3,1,2.7,1.7,4.2,2.3c2.8,1,5.9,1.3,8.8,0.7c4.7-0.9,8.9-3.8,11.4-7.9c0.9-1.4,1.5-2.9,1.9-4.5C103,71.6,103.2,70.2,103.3,68.8
		c0,0.1,0,0.2,0,0.3c0,0.2,0,0.5,0,0.8c0,0.4,0,0.9-0.1,1.3c-0.1,0.6-0.2,1.2-0.3,1.8c-0.4,1.6-1,3.2-1.8,4.6
		c-2.5,4.3-6.7,7.2-11.6,8.2c-3,0.6-6.1,0.3-9-0.7c-1.6-0.6-3.1-1.4-4.4-2.4c-1.4-1-2.6-2.2-3.7-3.7c-4.5-6.1-4.5-14.3,0-20.4
		c0.5-0.7,1.1-1.4,1.7-2c0.6-0.6,1.3-1.2,2-1.7c1.3-1,2.8-1.8,4.3-2.3c5.5-2,11.6-1,16.2,2.5c1.7,1.3,3.2,3,4.3,4.9
		c0.9,1.4,1.5,3,1.9,4.6c0.2,0.6,0.3,1.2,0.3,1.8c0.1,0.4,0.1,0.9,0.1,1.3c0,0.3,0,0.6,0,0.8C103.3,68.6,103.3,68.7,103.3,68.8z"/>
	<path class="st3" d="M97.9,81.2c0.1-0.1,3.8,3.4,8.3,7.9s8,8.2,7.9,8.3s-3.8-3.4-8.3-7.9S97.8,81.3,97.9,81.2z"/>
	<path class="st5" d="M201.1,107.4c4.7-2.8,9.8-5,15.1-6.5l3.2-14.9l25.2-0.3l3.6,14.8c5.3,1.3,10.5,3.4,15.3,6.1l12.8-8.3
		l18.1,17.6l-7.9,13c2.8,4.7,5,9.8,6.5,15.1l14.9,3.2l0.4,25.2l-14.8,3.6c-1.3,5.3-3.4,10.5-6.1,15.3l8.3,12.8l-17.6,18.1l-13-7.9
		c-4.7,2.8-9.8,5-15.1,6.5l-3.1,14.9l-25.2,0.4l-3.6-14.8c-5.3-1.3-10.5-3.4-15.3-6.1l-12.8,8.3l-18.1-17.6l7.9-13
		c-2.8-4.7-5-9.8-6.5-15.1l-14.9-3.1l-0.4-25.2l14.8-3.6c1.3-5.3,3.4-10.5,6.1-15.3l-8.3-12.8l17.6-18.1L201.1,107.4L201.1,107.4z"
		/>
	<path class="st3" d="M224.5,186.9h0.3h0.9h3.3l12.4-0.1l-0.1,0.1c0-2.1-0.1-4.5-0.2-7.1v-0.1l0.1-0.1c3.9-1.8,7.5-4.3,10.6-7.3
		c1.7-1.7,3.2-3.6,4.4-5.7c1.3-2.2,2.1-4.7,2.4-7.2c0.6-5.6-0.7-11.2-3.8-15.8c-3.3-5-8.2-8.9-13.8-11c-4.2-1.6-8.8-1.9-13.2-0.9
		c-4.2,0.8-8.2,2.6-11.5,5.3c-3.1,2.5-5.5,5.9-6.9,9.6c-0.3,0.9-0.7,1.8-0.9,2.7s-0.4,1.8-0.7,2.7c-0.3,1.8-0.5,3.5-0.5,5.3
		c0,1.7,0.3,3.4,0.6,5c0.4,1.5,0.9,3,1.6,4.5c1.3,2.6,3,4.9,5,6.9c3,3,6.5,5.4,10.3,7.1h0.1v0.1c-0.1,1.9-0.2,3.4-0.3,4.4
		c0,0.5,0,0.9-0.1,1.1C224.5,186.6,224.5,186.8,224.5,186.9c0-0.2,0-0.3,0-0.4c0-0.3,0-0.6,0-1.1c0-1,0.1-2.5,0.2-4.5l0.1,0.1
		c-3.9-1.7-7.4-4-10.5-7c-2.1-2-3.8-4.4-5.1-7c-0.7-1.5-1.3-3-1.7-4.6c-0.4-1.7-0.6-3.4-0.7-5.1c0-1.8,0.1-3.6,0.5-5.4
		c0.2-0.9,0.4-1.8,0.7-2.8s0.6-1.8,0.9-2.7c1.5-3.8,3.9-7.2,7.1-9.8c3.4-2.7,7.4-4.6,11.7-5.3c4.5-1,9.2-0.7,13.5,0.9
		c5.7,2.2,10.6,6.1,14,11.2c1.6,2.4,2.7,5.1,3.4,7.9c0.2,0.7,0.3,1.4,0.4,2.1c0.1,0.7,0.2,1.4,0.2,2.1c0,0.7,0.1,1.4,0.1,2.1l-0.2,2
		c-0.3,2.6-1.2,5.1-2.5,7.4c-1.2,2.1-2.8,4.1-4.5,5.8c-3.1,3-6.8,5.5-10.7,7.3l0.1-0.2c0,2.6,0.1,5,0.1,7.1v0.2h-0.2l-12.5-0.1h-3.3
		h-0.8L224.5,186.9z"/>
	<path class="st3" d="M241.6,191.7c-2.9,0.3-5.8,0.4-8.6,0.3c-2.9,0.1-5.8,0-8.6-0.3c2.9-0.3,5.8-0.3,8.6-0.3
		C235.8,191.3,238.7,191.4,241.6,191.7z"/>
	<path class="st3" d="M235.9,198.2c-1,0.4-2,0.5-3.1,0.4c-1,0-2.1-0.1-3-0.6c1-0.1,2-0.1,3.1,0C233.9,197.9,235,198,235.9,198.2z"/>
	<path class="st3" d="M228,186.9c0-0.1,0-0.2,0-0.3v-0.8c0-0.8,0-1.9,0.1-3.2c0.1-2.8,0.2-6.9,0.3-11.8c0.1-2.5,0.1-5.2,0.2-8.2
		c0-0.7-0.1-1.4-0.3-2.1c-0.2-0.7-0.8-1.1-1.5-1c-0.7,0.2-1.2,0.8-1.3,1.5c-0.2,0.7-0.1,1.5,0.3,2.2c0.8,1.4,2.2,2.4,3.9,2.6
		c1.7,0.2,3.4-0.5,4.5-1.8c1.2-1.3,1.8-3.1,1.9-4.8c0.1-0.9-0.1-1.8-0.5-2.6c-0.4-0.7-1.3-1.1-2.1-0.9c-0.8,0.4-1.2,1.2-1,2.1
		c0.2,0.9,0.6,1.7,1.2,2.4c1.1,1.4,2.5,2.6,4.2,3.2c0.8,0.3,1.7,0.4,2.5,0.3c0.8-0.1,1.6-0.5,2.3-0.9c0.7-0.5,1.2-1.1,1.4-1.9
		c0.3-0.7,0.2-1.5-0.1-2.2c-0.3-0.7-1-1.1-1.7-1.2c-0.7,0.1-1.4,0.5-1.8,1.1c-0.8,1.2-0.8,2.8-1,4.3c-0.3,2.9-0.5,5.6-0.7,8.1
		c-0.3,5-0.6,9-0.8,11.8c-0.1,1.4-0.2,2.4-0.2,3.2c0,0.4,0,0.6-0.1,0.8c0,0.1,0,0.2,0,0.3c0-0.1,0-0.2,0-0.3c0-0.2,0-0.5,0-0.8
		c0-0.8,0.1-1.9,0.1-3.2c0.1-2.8,0.3-6.8,0.6-11.8c0.2-2.5,0.4-5.2,0.6-8.2c0.1-0.7,0.2-1.5,0.3-2.2c0.1-0.8,0.4-1.6,0.8-2.2
		c0.5-0.7,1.3-1.2,2.2-1.3c0.9,0,1.8,0.6,2.1,1.4c0.4,0.8,0.5,1.8,0.2,2.6c-0.3,0.9-0.9,1.6-1.6,2.1c-0.7,0.6-1.6,0.9-2.5,1.1
		c-0.9,0.1-1.9,0-2.8-0.3c-1.8-0.7-3.3-1.9-4.4-3.4c-0.7-0.7-1.1-1.6-1.3-2.6c-0.2-1.1,0.4-2.2,1.4-2.6c1.1-0.3,2.2,0.2,2.7,1.1
		c0.5,0.9,0.7,1.9,0.6,2.9c0,1.9-0.8,3.7-2,5.2c-1.2,1.5-3.1,2.2-4.9,2c-1.8-0.2-3.4-1.3-4.2-2.9c-0.4-0.8-0.5-1.7-0.3-2.5
		c0.2-0.9,0.8-1.6,1.7-1.8c0.4-0.1,0.9,0,1.3,0.3c0.3,0.3,0.6,0.6,0.8,1c0.3,0.7,0.4,1.5,0.3,2.3c-0.1,2.9-0.2,5.7-0.3,8.2
		c-0.2,5-0.3,9-0.4,11.8c-0.1,1.4-0.1,2.4-0.1,3.2c0,0.3,0,0.6,0,0.8C228.1,186.8,228.1,186.9,228,186.9z"/>
	<path class="st3" d="M240,194.9c-2.3,0.3-4.7,0.3-7,0.3c-2.3,0.1-4.7,0-7-0.3c2.3-0.3,4.7-0.3,7-0.3
		C235.4,194.5,237.7,194.6,240,194.9z"/>
	<path class="st5" d="M366.6,147.7c3-1.9,6.3-3.4,9.7-4.4l1.9-9.7l16.3-0.5l2.5,9.6c3.5,0.8,6.9,2.1,10,3.8l8.2-5.5l11.9,11.2
		l-5,8.5c1.9,3,3.3,6.3,4.4,9.7l9.7,1.9l0.5,16.3l-9.6,2.5c-0.8,3.5-2.1,6.9-3.8,10l5.5,8.2l-11.2,11.9l-8.5-5
		c-3,1.9-6.3,3.4-9.7,4.4l-1.9,9.7l-16.4,0.5l-2.5-9.6c-3.5-0.8-6.8-2.1-10-3.8l-8.2,5.5l-11.9-11.2l5-8.5c-1.9-3-3.3-6.3-4.4-9.7
		l-9.7-1.9l-0.5-16.4l9.6-2.5c0.8-3.5,2.1-6.9,3.8-10l-5.5-8.2l11.2-11.8L366.6,147.7z"/>
	<path class="st3" d="M409.8,199.5c-0.3,0-0.5,0.1-0.8,0.1h-2.3l-8.4,0.1l-27.6,0.1h-2.2v-0.3c0-10.3,0.1-19.6,0.1-26.3
		c0-3.3,0.1-6,0.1-7.9c0-0.9,0-1.6,0-2.1c0-0.2,0-0.5,0-0.7c0,0.2,0,0.5,0,0.7c0,0.5,0,1.2,0,2.1c0,1.9,0,4.6,0.1,7.9
		c0,6.7,0,16,0.1,26.3l-0.3-0.3h2l27.6,0.1l8.4,0.1h2.3C409.2,199.3,409.5,199.4,409.8,199.5z"/>
	<path class="st3" d="M405.2,171.4c-0.4,0.4-0.8,0.8-1.2,1.2l-3.5,3c-2.9,2.6-7,6.1-11.5,9.9l-0.7,0.6l-0.2,0.1l-0.2-0.2l-5.1-4.8
		h0.3l-7.5,6.2l-2.2,1.8c-0.3,0.2-0.5,0.4-0.8,0.6c0.2-0.3,0.5-0.5,0.7-0.7l2.1-1.9l7.4-6.4l0.2-0.1l0.2,0.1l5.2,4.8H388l0.7-0.6
		c4.5-3.8,8.6-7.3,11.6-9.8l3.6-2.9C404.3,172,404.7,171.7,405.2,171.4z"/>
	<path class="st3" d="M405.2,180c-0.1-0.8-0.2-1.7-0.2-2.6c0-1.6-0.1-3.8-0.1-6.2l0.3,0.3h-0.4c-2.5,0-4.9,0-6.5-0.1
		c-0.9,0-1.8,0-2.7-0.2c0.9-0.1,1.8-0.2,2.7-0.2c1.7,0,4-0.1,6.5-0.1h0.7v0.3c0,2.4,0,4.6-0.1,6.2
		C405.4,178.3,405.3,179.1,405.2,180z"/>
	<path class="st4" d="M140.7,200.9c-0.5-0.9-0.9-1.8-1.2-2.8c-0.4-0.9-0.6-1.9-0.7-2.9c0.5,0.9,0.9,1.8,1.2,2.8
		C140.4,198.9,140.6,199.9,140.7,200.9z"/>
	<path class="st4" d="M151.3,222.3c-2.5-3.1-4.5-6.6-6-10.4c1.1,1.7,2.1,3.4,3.1,5.1C149.4,218.8,150.4,220.5,151.3,222.3z"/>
	<path class="st4" d="M166.9,240.4c-3.2-2.4-6-5.3-8.4-8.5c1.5,1.3,2.9,2.7,4.2,4.2C164.2,237.4,165.6,238.9,166.9,240.4z"/>
	<path class="st4" d="M186.7,253.8c-1.9-0.7-3.7-1.5-5.4-2.6c-1.8-0.9-3.4-2.1-4.9-3.4c1.8,0.9,3.5,1.9,5.2,3
		C183.3,251.6,185,252.7,186.7,253.8z"/>
	<path class="st4" d="M209.4,261.1c-4-0.3-7.9-1.3-11.6-2.8c2,0.3,3.9,0.8,5.8,1.4C205.6,260,207.5,260.4,209.4,261.1z"/>
	<path class="st4" d="M233.2,261.6c-2,0.5-4,0.7-6,0.7c-2,0.2-4,0.1-6-0.2c2-0.2,4-0.3,6-0.3C229.2,261.6,231.2,261.6,233.2,261.6z"
		/>
	<path class="st4" d="M256.6,256.5c-1.8,0.9-3.7,1.5-5.6,2c-1.9,0.6-3.9,1-5.9,1.2c1.9-0.7,3.8-1.2,5.7-1.7
		C252.7,257.3,254.6,256.8,256.6,256.5z"/>
	<path class="st4" d="M278.2,246.3c-3.2,2.4-6.8,4.3-10.6,5.7c1.7-1.1,3.4-2,5.2-2.9C274.6,248.1,276.4,247.1,278.2,246.3z"/>
	<path class="st4" d="M296.8,231.3c-1.2,1.6-2.5,3.1-4.1,4.4c-1.4,1.4-3,2.7-4.7,3.7c1.4-1.4,2.8-2.8,4.4-4.1
		C294.8,233.1,296.7,231.2,296.8,231.3z"/>
	<path class="st4" d="M310,211.4c-0.6,1.9-1.4,3.8-2.5,5.5c-0.9,1.8-2,3.5-3.3,5c-0.1-0.1,1.3-2.4,2.9-5.2
		C308,214.9,308.9,213.1,310,211.4z"/>
	<path class="st4" d="M318.2,189c-0.4,2-0.9,3.9-1.6,5.8c-0.5,1.9-1.3,3.8-2.1,5.6c0.4-2,0.9-3.9,1.6-5.8
		C316.6,192.6,317.3,190.8,318.2,189z"/>
	<path class="st4" d="M325.8,166.3c0.2,0.1-0.8,2.6-1.8,5.7c-0.6,1.9-1.3,3.8-2.2,5.6c0.4-2,1-3.9,1.7-5.7c0.5-1.6,1.1-3,1.5-3.9
		C325.2,167.3,325.5,166.8,325.8,166.3z"/>
	<path class="st4" d="M336.5,144.9c-0.8,1.8-1.8,3.6-2.8,5.3c-0.9,1.8-1.9,3.5-3,5.2c0.6-1.9,1.5-3.7,2.5-5.4
		C334.1,148.1,335.2,146.4,336.5,144.9z"/>
	<path class="st4" d="M352.4,127.2c0.1,0.1-2,1.8-4.4,4c-2.4,2.2-4.2,4.2-4.4,4.1c1.1-1.7,2.5-3.2,4-4.5
		C349.1,129.4,350.7,128.2,352.4,127.2z"/>
	<path class="st4" d="M374,117.1c-1.8,0.8-3.7,1.4-5.6,2c-3.1,1.1-5.6,2.1-5.6,2c1.7-1.1,3.5-1.9,5.5-2.5
		C370.1,117.8,372,117.3,374,117.1z"/>
	<path class="st4" d="M397.7,114.4c0,0.1-2.7,0.1-6,0.2s-6,0.3-6,0.2c2-0.5,4-0.7,6-0.7C393.7,114,395.7,114.1,397.7,114.4z"/>
	<path class="st4" d="M420.8,120.3c-1.9-0.5-3.8-1.2-5.7-1.9c-3.1-1.1-5.7-1.9-5.6-2c2,0.3,3.9,0.8,5.8,1.6
		C417.2,118.5,419,119.3,420.8,120.3z"/>
	<path class="st4" d="M441.1,132.8c-0.1,0.1-2.2-1.5-4.9-3.4c-2.7-1.9-4.9-3.4-4.9-3.5c1.8,0.8,3.6,1.9,5.2,3.1
		C438.2,130,439.8,131.3,441.1,132.8z"/>
	<path class="st4" d="M453.1,146.1c-1.4-1.5-2.6-3.1-3.6-4.8C451.1,142.6,452.3,144.2,453.1,146.1z"/>
	<path class="st4" d="M13.2,60.3c0,0,0-0.3,0.2-0.9l0.6-2.7c0.9-3.4,2-6.7,3.3-9.9c2.2-5,5-9.8,8.3-14.2C29.9,26.8,35,21.5,40.8,17
		c7-5.4,14.9-9.7,23.3-12.6c4.7-1.6,9.5-2.7,14.4-3.5C83.6,0.2,88.8-0.1,94.1,0c5.5,0.1,11,0.8,16.3,2.1c5.6,1.3,11,3.2,16.2,5.7
		c5.3,2.7,10.3,6,14.8,9.8c4.7,4,8.8,8.5,12.2,13.6c3.5,5.1,6.3,10.6,8.3,16.4c1.9,5.6,3.1,11.4,3.7,17.3c0.1,1.5,0.3,2.9,0.3,4.3
		s0.1,2.9,0.1,4.3S166,76.5,166,78s-0.2,2.8-0.4,4.2c-0.7,5.5-2.2,10.8-4.3,15.9c-2.1,4.8-4.4,9.5-7.1,14c-2.6,4.4-5.1,8.6-7.5,12.7
		c-4.4,7.7-7.3,16.1-8.7,24.8c-0.7,3.8-1.1,7.6-1.4,11.4c-0.3,3.6-0.4,7.1-0.4,10.3c-0.1,5.5,0.1,11,0.8,16.4
		c0.5,3.4,1.3,6.8,2.3,10.1c0.4,1.1,0.7,2,0.9,2.6c0.1,0.3,0.2,0.5,0.3,0.6c0,0.1,0.1,0.1,0.1,0.2c-0.5-1.1-1-2.2-1.4-3.4
		c-1.1-3.3-1.9-6.7-2.4-10.1c-0.7-5.5-1-11-0.9-16.5c0-3.2,0.1-6.7,0.4-10.3c0.3-3.9,0.7-7.7,1.4-11.5c1.4-8.8,4.4-17.2,8.7-24.9
		l7.4-12.7c2.6-4.5,5-9.1,7.1-13.9c2.1-5.1,3.5-10.4,4.2-15.8c0.2-1.4,0.3-2.8,0.4-4.2s0.1-2.8,0.1-4.2s-0.1-2.9-0.1-4.3
		s-0.2-2.9-0.3-4.3c-0.6-5.9-1.8-11.7-3.7-17.3c-2-5.8-4.7-11.2-8.2-16.2c-3.5-5-7.6-9.5-12.2-13.5c-4.5-3.9-9.4-7.1-14.7-9.8
		c-5.1-2.5-10.5-4.4-16.1-5.7C105,1.4,99.5,0.7,94.1,0.5c-5.2-0.1-10.4,0.1-15.6,0.9c-4.9,0.7-9.6,1.9-14.3,3.4
		C55.9,7.7,48,11.9,41,17.3c-5.7,4.5-10.9,9.7-15.2,15.5c-3.3,4.4-6.1,9.2-8.3,14.2c-1.4,3.2-2.5,6.5-3.4,9.8l-0.7,2.6L13.2,60.3z"
		/>
</g>
<g id="Character--inject-2">
	<path class="st6" d="M256.6,428.1l15,5.3l-0.2,14.4c-7.2,2-8.2,5.7-8.2,5.7l15-0.3l13.1-26.6l-10.3-6.8l-19.3-8.5"/>
	<g class="st7">
		<polygon class="st3" points="291.3,426.5 278.2,453.1 263.2,453.4 264.8,451.1 277,450.2 289.1,425.1 		"/>
	</g>
	<path class="st4" d="M271.3,441.1c0.1,0.1,1-0.4,2.1-0.4s2,0.5,2.1,0.3s-0.7-1-2.1-1C272.1,440.1,271.2,441,271.3,441.1z"/>
	<path class="st4" d="M271.5,437.6c0.2,0.1,0.8-0.8,2-1.1s2.2,0.3,2.2,0.1c0.1-0.2-0.1-0.3-0.5-0.5c-0.6-0.3-1.2-0.4-1.9-0.2
		c-0.6,0.1-1.2,0.5-1.6,1C271.5,437.2,271.4,437.5,271.5,437.6z"/>
	<path class="st4" d="M271.3,433c0.2,0.1,0.7-0.8,1.7-1.2c1-0.4,2-0.1,2.1-0.2s-0.2-0.3-0.6-0.4c-1.1-0.4-2.4,0.1-3,1.1
		C271.2,432.7,271.2,432.9,271.3,433z"/>
	<path class="st4" d="M270.2,433c0.2,0,0.1-1,0.5-2c0.4-1,1.2-1.6,1.1-1.8c-0.1-0.2-1.2,0.2-1.7,1.5C269.6,431.9,270,433,270.2,433z
		"/>
	<path class="st4" d="M268.4,431.3c0.2-0.6,0.3-1.3,0.3-2c0.1-0.7,0.1-1.5,0.2-2.2c0.1-0.5,0.1-0.9,0-1.4c-0.1-0.3-0.3-0.6-0.5-0.7
		c-0.3-0.2-0.7-0.2-1,0c-0.4,0.4-0.7,0.8-0.9,1.3c-0.2,0.4-0.2,0.9-0.3,1.4c0,0.8,0.1,1.6,0.4,2.3c0.5,1.2,1.3,1.7,1.3,1.6
		c-0.3-0.6-0.6-1.2-0.9-1.8c-0.2-0.7-0.3-1.4-0.2-2.1c0-0.4,0.1-0.8,0.3-1.2c0.1-0.4,0.3-0.7,0.6-1c0.1-0.1,0.2-0.1,0.3,0
		c0.1,0.1,0.2,0.2,0.2,0.4c0,0.4,0,0.8,0,1.2c0,0.8,0,1.5-0.1,2.2C268.2,429.9,268.3,430.6,268.4,431.3z"/>
	<path class="st4" d="M268.2,431.9c0.1,0-0.4-0.7-1.5-1.1c-1.6-0.5-3.3,0.1-4.3,1.5c-0.1,0.2,0,0.4,0.1,0.6c0.1,0.1,0.2,0.3,0.4,0.3
		c0.2,0.1,0.5,0.1,0.7,0.1c0.4,0,0.8,0,1.2,0c0.7-0.1,1.4-0.2,2-0.5C267.8,432.4,268.3,431.9,268.2,431.9c0-0.2-0.5,0.2-1.6,0.6
		c-0.6,0.2-1.2,0.3-1.9,0.3c-0.4,0-0.7,0-1.1,0c-0.2,0-0.3,0-0.5-0.1c-0.1-0.1-0.1,0-0.1-0.1c0.1-0.1,0.2-0.3,0.3-0.4
		c0.1-0.1,0.3-0.3,0.4-0.4c0.3-0.2,0.6-0.4,1-0.5c0.6-0.2,1.2-0.2,1.8-0.1C267.1,431.5,267.7,431.7,268.2,431.9z"/>
	<g class="st7">
		<path class="st3" d="M279.3,426.3c0,1,0.8,1.8,1.8,1.7c1,0,1.8-0.8,1.7-1.8s-0.8-1.8-1.8-1.7C280.1,424.5,279.3,425.3,279.3,426.3
			z"/>
	</g>
	<path class="st6" d="M179.5,422l0.2,19.6c0,0-19.9,6.8-20.2,10.5l38.1,1l0.9-30.6L179.5,422z"/>
	<g class="st7">
		<path class="st3" d="M191.6,440.3c0.7,0.3,1.2,1,1,1.8c-0.2,0.8-1,1.2-1.8,1c-0.8-0.3-1.3-1.1-1.1-1.9c0.3-0.8,1.2-1.2,2-0.9"/>
	</g>
	<g class="st7">
		<path class="st3" d="M197.7,453.1V450l-36.6,0.2c0,0-1.7,0.7-1.6,1.9L197.7,453.1z"/>
	</g>
	<path class="st4" d="M179.1,441.5c0,0.2,0.9,0.3,1.8,0.9s1.4,1.4,1.5,1.4s-0.1-1.1-1.2-1.9S179.1,441.3,179.1,441.5z"/>
	<path class="st4" d="M175.1,443c-0.1,0.2,0.8,0.5,1.4,1.3s0.8,1.6,1,1.6s0.3-1-0.4-2S175.1,442.8,175.1,443z"/>
	<path class="st4" d="M172.7,447.7c0.2,0,0.4-0.9,0-1.9s-1.3-1.5-1.4-1.3s0.4,0.7,0.8,1.6S172.5,447.7,172.7,447.7z"/>
	<path class="st4" d="M179.6,437c0.1,0.2,0.9-0.1,2,0s1.9,0.5,2,0.3s-0.7-0.9-1.9-0.9S179.5,436.8,179.6,437z"/>
	<g class="st8">
		<polygon points="179.6,425.9 179.6,429.4 198.4,429.7 198.5,426.6 		"/>
	</g>
	<path class="st4" d="M179.7,433c0.6,0.2,1.3,0.2,1.9,0c0.7-0.1,1.4-0.3,2-0.6c0.4-0.2,0.8-0.3,1.1-0.6c0.2-0.1,0.4-0.3,0.6-0.4
		c0.3-0.3,0.3-0.7,0.1-1c-0.2-0.3-0.5-0.4-0.8-0.5c-0.2,0-0.5,0-0.7,0.1c-0.4,0.1-0.8,0.2-1.2,0.4c-0.7,0.3-1.3,0.6-1.8,1.1
		C180,432.4,179.6,433.1,179.7,433c0.1,0.1,0.6-0.4,1.5-1.1c0.5-0.4,1.1-0.7,1.7-0.9c0.4-0.1,0.7-0.2,1.1-0.3
		c0.4-0.1,0.8-0.1,0.9,0.1s0,0.1,0,0.2c-0.1,0.1-0.3,0.2-0.4,0.3c-0.3,0.2-0.7,0.4-1,0.5c-0.6,0.3-1.2,0.5-1.9,0.7
		C180.9,432.7,180.3,432.8,179.7,433z"/>
	<path class="st4" d="M179.9,433.3c0.1,0,0.4-0.6,0.6-1.8c0.1-0.7,0-1.4-0.2-2.1c-0.1-0.4-0.3-0.8-0.5-1.2c-0.2-0.5-0.6-0.9-1.2-1
		c-0.3,0-0.7,0.2-0.8,0.5c-0.1,0.2-0.2,0.5-0.2,0.7c-0.1,0.4-0.1,0.9,0,1.3c0.1,0.7,0.3,1.4,0.8,2c0.7,1,1.5,1.2,1.5,1.2
		s-0.6-0.5-1.1-1.4c-0.3-0.6-0.5-1.2-0.6-1.8c0-0.4,0-0.7,0.1-1.1c0.1-0.4,0.2-0.7,0.4-0.7s0.5,0.3,0.6,0.6c0.2,0.3,0.3,0.7,0.4,1
		c0.2,0.6,0.3,1.3,0.3,1.9C180,432.6,179.8,433.3,179.9,433.3z"/>
	<polygon class="st4" points="268.2,412 224.3,395.7 270.5,389.2 272.8,366.7 186.4,374.2 174.3,391.8 177.5,413.8 261.6,435.2 	"/>
	<path class="st4" d="M175.1,427.7l-4.2-80.4c0.2-7.8,4.5-15,11.3-18.9l0,0c5.6-3.2,12.3-3.9,18.5-1.9l56,18.7l30.7,7.9
		c0,0,5.2,12.9,2.2,23c-3,9.8-13.8,16.4-23.2,13.5c-11.8-3.5-65.8-26.7-65.8-26.7v65.4L175.1,427.7z"/>
	<path class="st9" d="M265.5,389.9c-0.1,0-0.2-0.1-0.3-0.1l-1-0.4l-3.7-1.5l-13.5-5.5l-44.3-18.3l-2.3-0.9l0.4-0.2
		c0,18.2-0.1,34.5-0.1,46.4c0,5.9-0.1,10.6-0.1,14c0,1.6,0,2.9,0,3.8c0,0.4,0,0.7,0,1c0,0.1,0,0.2,0,0.3c0-0.1,0-0.2,0-0.3
		c0-0.2,0-0.6,0-1c0-0.9,0-2.2-0.1-3.8c0-3.3,0-8.1-0.1-14c0-11.8,0-28.2-0.1-46.4v-0.4l0.4,0.1l2.3,0.9l44.3,18.5l13.4,5.6l3.6,1.6
		l0.9,0.4C265.4,389.8,265.4,389.8,265.5,389.9z"/>
	<path class="st9" d="M213.7,390c4.1,0.7,7.8,2.8,10.5,5.8c-0.1,0.1-2.1-1.7-5-3.3S213.7,390.1,213.7,390z"/>
	<path class="st9" d="M195.7,352.1c1.2,1.7,2.2,3.5,3,5.4c0.9,1.9,1.6,3.8,2.1,5.8c-0.9-1.8-1.8-3.7-2.6-5.6
		C197.3,355.9,196.4,354,195.7,352.1z"/>
	<polygon class="st10" points="195.8,316.7 185.9,314.8 175.4,325.4 177.4,332.2 189.5,327.7 	"/>
	<path class="st11" d="M159.1,198.8l-2.7,0.2c0,0-4.8,0.8-4.8,0.9s-2.1,3.1-2.1,3.1l-1.9,3c0.9,0.3,2,0.1,2.7-0.5l-0.7,1.5
		c1.4,0.5,3-0.1,3.7-1.4c0.6-1,1.3-2,2.1-3l0.9-0.1c0.1,0.2,3.5,5,3.5,4.9s2.9-2.8,2.9-2.8L159.1,198.8z"/>
	<path class="st10" d="M166.3,219.7l0.8-14.8l-7.5-8.5l-8.3,0.5l-3.4,2.4c0.2,0.8,2.5,1.4,5.1,0.6c1.7-0.4,3.5-0.5,5.2-0.2l3.2,5.6
		l-2.1,2.3l2.7,14.2L166.3,219.7z"/>
	<path class="st4" d="M144.4,200.1h26.9c0.7,0,1.2,0.6,1.2,1.2l0,0c0,0.7-0.6,1.2-1.2,1.2h-26.9l-2.6-1.2L144.4,200.1z"/>
	<path class="st10" d="M158,223.7l-2.7-6.7c-0.3-0.9-0.5-1.8-0.5-2.7c0.1-2.4,0.3-7.3-0.1-8.4c-0.5-1.5-2.5-6.6-1.4-7.4s2.7-1,3.8,2
		s4.5,9.5,4.5,9.5l2.6,10.7L158,223.7z"/>
	<path class="st11" d="M161.3,209.3c-0.6-0.9-1.1-1.9-1.6-2.9c-0.9-1.8-2.1-4.4-3.4-7.1c-0.3-0.6-0.9-1-1.6-1c-0.6,0-1.1,0.4-1.3,1
		c-0.1,0.6-0.1,1.2,0.1,1.8c0.1,0.6,0.2,1.1,0.4,1.6c0.5,1.9,1.1,3.1,1,3.1s-0.2-0.2-0.5-0.8c-0.4-0.7-0.6-1.5-0.9-2.2
		c-0.1-0.5-0.3-1-0.4-1.6c-0.2-0.6-0.2-1.3-0.1-2c0.2-0.8,1-1.3,1.8-1.4c0.8,0.1,1.6,0.5,2,1.3c1.4,2.8,2.5,5.3,3.3,7.2
		C160.5,207.2,160.9,208.3,161.3,209.3z"/>
	<polygon class="st10" points="286.5,353 283.8,348.2 254.5,340.8 257.9,346.8 	"/>
	<path class="st6" d="M155.4,223.7l18.4,43.7c1.7,4.1,5,7.4,9.2,9.1l39.8,16.4l9.3-25.6l-38.8-13.7l-25.2-35.9L155.4,223.7z"/>
	<path class="st6" d="M215.4,267.6c0,1-4.3,32.8-4.3,39.3s12.4,13.5,12.4,13.5l13.6,28.9h48.5l-16.6-31.1l-7.5-25
		c-2.8-9.5-8-18.1-15.1-25l-8.1-5.4L215.4,267.6z"/>
	<path class="st6" d="M229.5,292.7l8.2,34.2l-41.1-11.6l-7,12.4l53.5,24.4c6.6,3,14.4,0.9,18.5-5l0,0c2.5-3.6,3.3-8.1,2.2-12.4
		l-12-46.8c-1.6-6.1-7.8-9.8-13.9-8.2c-0.3,0.1-0.5,0.1-0.8,0.2l0,0C231.7,281.7,228.5,287.1,229.5,292.7z"/>
	<path class="st4" d="M223.5,320.5c-0.2,0-0.3-0.1-0.5-0.2c-0.3-0.1-0.7-0.4-1.3-0.7c-1.6-0.9-3.1-1.9-4.5-3c-2.2-1.6-4-3.6-5.3-6
		c-1.3-2.9-1.2-6.4-0.8-9.8s1.2-6.7,1.6-9.7s0.8-5.7,0.9-7.9s0.2-4.1,0.2-5.4c0-0.7,0-1.3,0-2c0,0.2,0.1,0.3,0.1,0.5
		c0,0.3,0.1,0.8,0.1,1.5c0.1,1.8,0.1,3.6,0,5.4c-0.1,2.3-0.4,5-0.8,8s-1.1,6.2-1.6,9.7s-0.6,6.8,0.7,9.5c1.3,2.3,3,4.4,5.1,6
		c1.4,1.1,2.9,2.2,4.4,3.1C222.9,320.1,223.5,320.4,223.5,320.5z"/>
	<path class="st4" d="M246.2,283.7c-1.8-0.7-3.6-1.1-5.5-1.3c-1.9,0-3.8,0.2-5.7,0.6c1.7-0.9,3.7-1.3,5.7-1.1
		C242.7,281.9,244.6,282.5,246.2,283.7z"/>
	<path class="st4" d="M240.7,265.2c0,0-0.2,0.3-0.7,0.8s-1.2,1.2-2.2,2.1c-1.9,1.7-4.5,4.1-7.6,6.5s-5.9,4.5-8,6
		c-1,0.7-1.9,1.3-2.5,1.7c-0.3,0.2-0.6,0.4-1,0.5c0.3-0.3,0.5-0.5,0.9-0.7l2.4-1.8c2-1.5,4.9-3.6,7.9-6.1s5.7-4.7,7.6-6.4l2.3-2
		C240,265.6,240.3,265.4,240.7,265.2z"/>
	<path class="st4" d="M193.4,253.5c0.1,0.1-1.4,0.8-3.1,1.9s-2.8,2.2-2.9,2.1C188.8,255.5,190.9,254.1,193.4,253.5L193.4,253.5z"/>
	<path class="st12" d="M233.4,308.2c-0.3,0.1-0.6,0.2-0.9,0.3c-0.8,0.2-1.7,0.4-2.5,0.4c-1.3,0.1-2.5,0.2-3.8,0.1
		c-3.1-0.2-6.2-0.9-9-2.2c-1.2-0.5-2.3-1.2-3.3-1.9c-0.7-0.5-1.4-1-2-1.6c-0.4-0.4-0.7-0.6-0.6-0.7s1.1,0.8,2.9,2
		c2.4,1.5,4.9,2.6,7.6,3.2c2.7,0.7,5.5,0.9,8.2,0.7C232.1,308.4,233.4,308.1,233.4,308.2z"/>
	<path class="st12" d="M236.2,323.2c-0.6,0.2-1.2,0.3-1.8,0.3c-1.5,0.1-3,0-4.5-0.3c-1.5-0.3-2.9-0.8-4.3-1.5
		c-0.6-0.2-1.1-0.6-1.6-1c1.9,0.8,3.9,1.5,5.9,2C232,323.1,234.1,323.3,236.2,323.2z"/>
	<path class="st12" d="M257.5,313.9c-0.2,0.2-0.5,0.3-0.8,0.5c-0.7,0.4-1.5,0.7-2.2,1c-5,2-10.4,2.7-15.7,2.2
		c-0.8-0.1-1.6-0.2-2.4-0.4c-0.3,0-0.6-0.1-0.9-0.2c0-0.1,1.3,0.1,3.3,0.2c5.3,0.3,10.6-0.4,15.5-2.1
		C256.3,314.3,257.4,313.8,257.5,313.9z"/>
	<path class="st12" d="M253.7,297.2c0,0.1-1.3-0.2-3.3-0.4c-2.7-0.3-5.3-0.4-8-0.3c-2.7,0.1-5.4,0.4-8,0.9c-2,0.4-3.2,0.7-3.3,0.6
		c0.3-0.2,0.5-0.3,0.8-0.3c0.6-0.2,1.4-0.4,2.4-0.7c2.6-0.6,5.3-1,8-1.1c2.7-0.1,5.4,0.1,8.1,0.5c1,0.2,1.9,0.3,2.4,0.5
		C253.1,296.9,253.4,297,253.7,297.2z"/>
	<path class="st12" d="M262.1,343.9c-0.4,0-0.8-0.1-1.2-0.2c-1.1-0.3-2.1-0.6-3.1-1c-6.8-2.5-12.7-6.7-17.4-12.2
		c-0.7-0.8-1.4-1.7-2-2.6c-0.2-0.3-0.5-0.6-0.6-1c0.1,0,1,1.3,2.9,3.4c4.7,5.3,10.6,9.5,17.2,12.1
		C260.5,343.4,262.1,343.9,262.1,343.9z"/>
	<path class="st12" d="M225.3,343.4c-0.2-0.9-0.2-1.9-0.1-2.8c0.1-2.3,0.4-4.6,1-6.8c0.6-2.2,1.4-4.4,2.5-6.4
		c0.4-0.9,0.9-1.7,1.5-2.4c-0.3,0.9-0.7,1.7-1.2,2.6c-0.9,2.1-1.7,4.2-2.3,6.4c-0.6,2.2-1,4.4-1.1,6.7
		C225.5,341.5,225.4,342.5,225.3,343.4z"/>
	<path class="st12" d="M200.5,332.2c-0.1-0.8-0.1-1.6,0-2.4c0.2-1.9,0.8-3.8,1.8-5.5c1-1.6,2.3-3.1,3.9-4.3c0.6-0.5,1.2-1,1.9-1.4
		c-0.5,0.6-1.1,1.2-1.7,1.7c-1.4,1.3-2.6,2.7-3.7,4.3c-0.9,1.6-1.6,3.4-1.9,5.3C200.8,330.6,200.7,331.4,200.5,332.2z"/>
	<path class="st12" d="M282.5,343.2c-0.9,0.5-1.9,0.9-2.9,1.3c-2.4,0.9-4.8,1.6-7.3,2.2c-2.5,0.6-5,0.9-7.6,0.8
		c-0.4,0-0.9,0-1.3-0.1c-0.3,0-0.7-0.1-1-0.1c-0.3,0-0.6-0.1-0.8-0.2c0-0.1,1.2,0.1,3.1,0.1c2.5-0.1,5-0.4,7.5-1
		c2.9-0.6,5.5-1.4,7.3-2C280.4,343.7,281.4,343.4,282.5,343.2z"/>
	<path class="st12" d="M271.5,323.4c0,0-0.3,0.6-1.1,1.2c-1.1,0.8-2.3,1.4-3.5,1.9c-1.2,0.5-2.5,0.9-3.8,1.1
		c-0.4,0.1-0.8,0.1-1.2,0.1c-0.3,0-0.5-0.1-0.4-0.1c0,0,0.6-0.1,1.6-0.4c1-0.3,2.3-0.7,3.7-1.2c1.2-0.5,2.4-1,3.5-1.7
		C271,323.8,271.4,323.4,271.5,323.4z"/>
	<path class="st12" d="M264.6,303.3c0,0,0,0.2-0.1,0.4c-0.2,0.3-0.5,0.5-0.8,0.6c-0.9,0.6-2,1-3,1.4c-1,0.4-2.1,0.7-3.2,0.9
		c-0.8,0.1-1.4,0-1.4,0c0,0,0.5-0.1,1.3-0.3s1.9-0.6,3.1-1c1-0.4,2-0.8,3-1.2c0.3-0.1,0.6-0.3,0.8-0.5
		C264.5,303.4,264.6,303.3,264.6,303.3z"/>
	<path class="st12" d="M228.9,292.7c-0.8,0.1-1.6,0.2-2.4,0.1c-1.9-0.1-3.8-0.4-5.6-0.8c-1.8-0.4-3.6-1-5.4-1.8
		c-0.7-0.3-1.4-0.7-2.1-1.1c0.1-0.1,3.3,1.5,7.6,2.5S228.9,292.6,228.9,292.7z"/>
	<path class="st12" d="M257.7,283.7c0.1,0.1-1.3,1.1-3.3,1.9c-1.9,0.8-3.6,1.1-3.7,0.9s1.6-0.6,3.5-1.4
		C256.2,284.3,257.7,283.6,257.7,283.7z"/>
	<path class="st12" d="M235.3,270.7c0.5,0.3,1,0.6,1.4,1.1c2,2.1,3.3,4.8,3.5,7.7c0.1,0.6,0.1,1.2-0.1,1.8
		C239.8,277.3,238.1,273.5,235.3,270.7z"/>
	<path class="st12" d="M203.8,284.9c-0.2-0.3-0.4-0.6-0.5-0.9c-0.3-0.9-0.6-1.8-0.8-2.8c-0.6-3.1-0.6-6.3,0.1-9.4
		c0.6-3.1,1.5-6.1,2.7-9c0.4-1.1,0.8-2,1.1-2.6c0.1-0.3,0.3-0.6,0.5-0.9c-0.1,0.3-0.2,0.7-0.3,1c-0.3,0.7-0.6,1.6-0.9,2.7
		c-1.1,2.9-1.9,5.9-2.6,9c-0.6,3-0.7,6.2-0.2,9.2C203.3,283.5,203.9,284.9,203.8,284.9z"/>
	<path class="st12" d="M180.3,275.3c0-0.3,0.1-0.7,0.2-1c0.2-0.9,0.5-1.8,0.8-2.7c2.1-5.8,5.6-11,10.4-14.9c0.7-0.6,1.5-1.2,2.2-1.7
		c0.3-0.2,0.6-0.4,0.9-0.5c0.1,0.1-1.1,0.9-2.9,2.5c-4.6,4-8.1,9.1-10.3,14.8C180.7,273.9,180.4,275.3,180.3,275.3z"/>
	<path class="st12" d="M184.1,240.2c0,0.1-1.1,0.1-2.9,0.6c-2.3,0.7-4.5,1.6-6.5,2.9c-2,1.2-3.9,2.7-5.6,4.4c-1.3,1.3-2,2.2-2,2.2
		s0.1-0.3,0.4-0.7c0.2-0.3,0.4-0.5,0.6-0.8c0.3-0.3,0.5-0.6,0.8-1c1.7-1.8,3.6-3.3,5.6-4.5c2.1-1.3,4.3-2.2,6.7-2.8
		c0.4-0.1,0.8-0.2,1.2-0.2c0.3-0.1,0.6-0.1,0.9-0.1C183.5,240.1,183.8,240.1,184.1,240.2z"/>
	<path class="st12" d="M174.7,226.5c-2.9-0.2-5.8,0-8.6,0.7c-2.8,0.8-5.4,2-7.9,3.5c0.6-0.6,1.3-1.2,2-1.6c1.8-1.1,3.7-1.9,5.7-2.4
		c2-0.5,4.1-0.7,6.2-0.6C173.1,226.1,173.9,226.2,174.7,226.5z"/>
	<path class="st4" d="M229.5,292.7c0.1,0.2,0.2,0.4,0.2,0.7c0.1,0.5,0.3,1.1,0.5,1.9l1.8,7.1c1.5,6.1,3.6,14.7,5.9,24.5l0.1,0.4
		l-0.4-0.1l-10.5-3l-30.6-8.7l0.2-0.1l-5.2,9l-1.4,2.4l-0.4,0.6c0,0.1-0.1,0.1-0.1,0.2c0,0,0-0.1,0.1-0.2l0.3-0.6l1.4-2.5
		c1.2-2.2,2.9-5.3,5.1-9.1l0.1-0.1h0.1l30.6,8.6l10.4,3l-0.3,0.3c-2.3-9.8-4.3-18.4-5.7-24.5c-0.7-3-1.2-5.4-1.6-7.2l-0.4-1.9
		C229.5,293.1,229.5,292.9,229.5,292.7z"/>
	<path class="st4" d="M252,290.6c0.1,0.2,0.2,0.4,0.2,0.6c0.1,0.5,0.3,1,0.5,1.7c0.4,1.5,1,3.7,1.6,6.3c1.4,5.4,3.2,12.7,5.3,20.9
		c1,4.1,2,7.9,2.8,11.5c0.8,3.1,1.1,6.4,0.8,9.6c-0.3,2.2-1,4.3-2.3,6.1c-0.4,0.7-1,1.3-1.6,1.8c0.5-0.6,1-1.2,1.5-1.9
		c1.2-1.8,1.9-3.9,2.1-6c0.3-3.2,0-6.4-0.9-9.5c-0.9-3.5-1.8-7.4-2.9-11.5c-2-8.1-3.8-15.5-5.1-20.9l-1.5-6.3
		c-0.1-0.7-0.3-1.3-0.4-1.7C252,291,252,290.8,252,290.6z"/>
	<g class="st8">
		<path d="M259.5,349.4c6,0.6,9.5-2.9,10.2-7.6c0.3-2.6-0.5-5.2-1.3-7.6c-3.7-10.8-7.4-21.7-13.3-31.5c2.2,9.8,5,19.2,7.2,29.1
			c0.7,2.7,1,5.5,0.9,8.4C263,343.5,261.7,346.8,259.5,349.4"/>
	</g>
	<path class="st4" d="M237.3,260.8c6.5,2,13.3-1.7,15.3-8.2c0.1-0.4,0.2-0.7,0.3-1.1c1.7,1.5,4,2.1,6.2,1.6c2.2-0.5,4.2-1.6,5.8-3.1
		c3.1-2.8,4.9-6.7,4.9-10.9c-0.1-4.2-2.7-7.9-6.6-9.5c-3.9-1.4-8.7,0.4-10.3,4.2c-0.7-2.1,1.1-5,0.7-7.2c-0.9-4.4-3.5-7.1-5.8-7.1"
		/>
	<path class="st4" d="M242.1,259.7c4.4-7.7,5.7-17.9,6.8-26.8c0.5-4.2,1.5-10.1-1.4-12.7c-3-2.8-3.3-7.1-6.8-9.2s-8.2-2.3-11.5,0.1"
		/>
	<path class="st10" d="M219.3,274.9v-12c0,0-12.6-2.3-13.3-12.3s-0.5-33.3-0.5-33.3l0,0c10.9-5.8,24.2-4.9,34.3,2.2l-0.5,35.4v11.5
		l-10.3,8.3l-9.8,7.7L219.3,274.9z"/>
	<path class="st4" d="M215.7,238.3c1.7-2.1,4.4-3,6.7-1.5c2.3,1.7,3.1,4.7,1.9,7.3c-1,1.9-2.7,3.2-4.8,3.7c0,0,4.5,8.2,7.4,10.4
		c3.4,2.6,5,3.9,9.2,4.4s3.7,0.5,6.1-3c1.6-2.4,2.4-5.3,2.4-8.2c0.1-7.4,0.3-14.8,0.4-22.2c0.2-2.7,0-5.4-0.5-8
		c-0.5-2.6-2-5-4.1-6.6c-2.4-1.6-5.4-1.7-8.1-2.6c-3.4-1.1-6.3-3.4-9.4-5.1s-7-2.6-10.2-1c-2.3,1.2-3.8,3.5-6,4.8
		c-3.1,1.9-7.4,1.4-9,6.2c-0.5,1.7-0.5,3.5,0.1,5.1c2.2,6.5,10,9.1,15.6,6.3c0.1,1.1-0.9,3.6,0.2,7
		C213.8,236.5,213.9,238.2,215.7,238.3"/>
	<path class="st11" d="M217.4,244.6c0,0,0,0.2,0.1,0.4c0.3,0.3,0.7,0.5,1.1,0.6c1.4-0.1,2.5-1.3,2.5-2.8c0.1-0.8-0.2-1.5-0.7-2.1
		c-0.4-0.5-0.9-0.8-1.5-0.9c-1-0.2-1.6,0.2-1.5,0.2s0.6,0,1.4,0.2c1.1,0.4,1.7,1.4,1.7,2.5c0,1.1-0.7,2.1-1.8,2.3
		C217.8,245.1,217.5,244.5,217.4,244.6z"/>
	<path class="st9" d="M268.4,239.3c-0.1,0.3-0.2,0.6-0.3,1c-0.3,0.8-0.8,1.6-1.3,2.3c-1.8,2.4-4.5,4.1-7.5,4.6
		c-3,0.4-6.1-0.4-8.5-2.2c-0.7-0.5-1.4-1.2-1.9-1.9c-0.2-0.2-0.4-0.5-0.5-0.8c0.8,0.9,1.7,1.7,2.7,2.4c2.4,1.7,5.3,2.4,8.2,2
		c2.9-0.5,5.4-2,7.2-4.3C267.2,241.4,267.9,240.4,268.4,239.3z"/>
	<path class="st9" d="M267,237.7c-0.1,0.3-0.2,0.5-0.3,0.8c-0.4,0.7-0.8,1.3-1.4,1.9c-1.7,1.9-4,3.3-6.5,3.9
		c-2.5,0.6-5.2,0.3-7.5-0.7c-0.7-0.3-1.4-0.7-2-1.1c-0.2-0.1-0.5-0.3-0.6-0.5c0.1-0.1,1,0.7,2.8,1.4c2.3,0.9,4.8,1.1,7.2,0.5
		c2.4-0.6,4.6-1.8,6.4-3.6C266.4,238.7,266.9,237.7,267,237.7z"/>
	<path class="st9" d="M250.2,250.6c0,0-0.1,0.1-0.4,0.2c-0.4,0.2-0.9,0.3-1.3,0.4c-1.7,0.1-3.4-0.3-4.8-1.3c-2-1.5-3.6-3.5-4.5-5.9
		c-1.2-2.5-2.2-5.4-4.1-8c-0.9-1.2-2.1-2.2-3.4-2.9c-1.3-0.6-2.7-1-4.1-1.1c-2.7-0.3-5.2-0.1-7.4-0.4c-1.7-0.2-3.3-0.7-4.8-1.5
		c-0.4-0.2-0.8-0.5-1.1-0.8c-0.1-0.1-0.2-0.2-0.3-0.4c0,0,0.5,0.4,1.5,1c1.5,0.7,3.1,1.2,4.7,1.3c2.1,0.2,4.6,0,7.4,0.3
		c1.5,0.1,2.9,0.5,4.3,1.1c1.4,0.7,2.7,1.8,3.6,3.1c2,2.6,2.9,5.6,4.1,8.1c0.9,2.3,2.4,4.3,4.3,5.8c1.3,1,2.9,1.5,4.6,1.4
		C249,250.9,249.6,250.8,250.2,250.6z"/>
	<path class="st9" d="M249.2,247c-0.1,0-0.3,0.1-0.5,0c-0.4,0-0.9-0.1-1.3-0.2c-1.5-0.5-2.9-1.4-3.9-2.6c-0.7-0.8-1.4-1.7-1.9-2.7
		c-0.6-1-1.1-2.2-1.7-3.4c-0.6-1.2-1.3-2.4-2-3.5c-0.4-0.6-0.9-1.1-1.4-1.6c-0.3-0.2-0.6-0.4-0.9-0.6c-0.3-0.2-0.6-0.4-0.9-0.6
		c-1.3-0.7-2.7-1.1-4.1-1.2c-1.4-0.2-2.7-0.2-4.1-0.2c-2.3,0.1-4.7,0-7-0.2c-1.6-0.2-3.1-0.6-4.5-1.4c-0.4-0.2-0.7-0.5-1.1-0.7
		c-0.1-0.1-0.2-0.2-0.3-0.3c0,0,0.5,0.3,1.5,0.8c1.4,0.6,2.9,1,4.5,1.2c2.3,0.2,4.7,0.2,7,0.1c1.4,0,2.8,0,4.1,0.2
		c1.5,0.2,3,0.6,4.3,1.3c0.4,0.2,0.7,0.4,1,0.6c0.3,0.2,0.6,0.4,0.9,0.7c0.6,0.5,1.1,1,1.5,1.6c0.8,1.1,1.5,2.3,2.1,3.6
		c0.6,1.2,1.1,2.3,1.6,3.4c0.5,0.9,1.1,1.8,1.8,2.7c0.9,1.2,2.2,2.2,3.7,2.7C248.1,246.8,248.7,246.9,249.2,247z"/>
	<path class="st6" d="M251.7,252.1c0,0-0.2-0.1-0.6-0.5c-0.5-0.5-0.9-1-1.2-1.5c-1.2-1.9-1.8-4-1.9-6.2c-0.1-2.2,0.4-4.4,1.5-6.3
		c0.3-0.6,0.7-1.1,1.1-1.6c0.3-0.4,0.5-0.5,0.5-0.5s-0.6,0.8-1.3,2.3c-1.8,3.9-1.7,8.4,0.5,12.1C251,251.3,251.7,252.1,251.7,252.1z
		"/>
</g>
<g id="Plant--inject-2">
	<path class="st6" d="M390.8,390.6c6.9,2.4,15.9,0.2,21.8-4.1c5.9-4.3,10.2-10.5,13.9-16.7c1.6-2.7,3.2-5.5,3.7-8.5
		s-0.2-6.5-2.6-8.5c-3.7-3.1-9.4-1.5-13.6,0.9C400.6,361.3,392,375.1,390.8,390.6"/>
	<path class="st6" d="M398.2,407.1c4.1,5.5,11.3,7.9,18.1,8.2s13.6-1.6,20-4c2.3-0.9,4.9-2.1,5.7-4.5c0.5-1.8,0.1-3.8-1.2-5.3
		c-1.3-1.4-2.8-2.5-4.6-3.1c-6.4-2.6-13.5-2.9-20.2-1.1C409.4,399,403.6,402.9,398.2,407.1"/>
	<path class="st6" d="M390.7,361c5.7,0.1,10-4.9,12.6-10c3.6-7.1,4.8-15.2,3.4-23.1c-0.5-2.9-1.6-6.1-4.2-7.5s-6.1-0.5-8.3,1.5
		c-2.2,2-3.5,4.9-4.3,7.8C386.7,339.7,387.4,351.1,390.7,361"/>
	<path class="st6" d="M371.9,392.6c9.7-16.6,11.4-36.9,5.6-55.2c-0.9-3-2.7-6.4-5.8-6.6c-3.4-0.2-5.6,3.6-6.5,6.9
		c-3.3,11.6-2.6,24-1.9,36.1C363.8,381.3,366.3,387.7,371.9,392.6"/>
	<path class="st6" d="M361.8,399.4c-3.7-11.5-12.4-20.7-23.6-25.1c-2.6-1-5.9-1.5-7.8,0.5s-1.3,5.2-0.1,7.6c2,3.9,5.1,7.1,8.3,10.1
		c2.9,2.8,5.9,5.5,9.5,7.1C351.8,401.2,358.5,401.6,361.8,399.4"/>
	<path class="st4" d="M422.2,356.8c0,0,0,0.1-0.2,0.1l-0.5,0.4l-2,1.5L418,360c-0.5,0.4-1.1,0.9-1.7,1.4c-1.2,1-2.6,2.1-4.1,3.5
		l-2.3,2.1c-0.8,0.7-1.6,1.5-2.4,2.4c-1.7,1.6-3.3,3.5-5,5.4c-7.4,8.6-13.4,18.3-17.8,28.8c-1,2.4-1.9,4.7-2.6,6.9
		c-0.4,1.1-0.8,2.2-1.1,3.2s-0.6,2-0.8,3c-0.6,1.9-0.9,3.6-1.3,5.2c-0.2,0.8-0.4,1.5-0.5,2.1s-0.2,1.3-0.3,1.8
		c-0.2,1.1-0.3,1.9-0.5,2.5c-0.1,0.3-0.1,0.5-0.1,0.7l-0.1,0.2c0-0.1,0-0.2,0-0.2c0-0.2,0-0.4,0.1-0.7c0.1-0.6,0.2-1.5,0.4-2.5
		c0.1-0.5,0.2-1.2,0.3-1.8c0.1-0.7,0.3-1.4,0.4-2.1c0.3-1.5,0.7-3.3,1.2-5.2c0.3-1,0.5-2,0.8-3c0.3-1,0.7-2.1,1-3.2
		c0.7-2.2,1.6-4.5,2.6-7c4.3-10.5,10.4-20.3,17.9-28.9c1.8-1.9,3.4-3.8,5.1-5.4c0.8-0.8,1.6-1.6,2.4-2.4l2.3-2.1
		c1.5-1.4,2.9-2.4,4.1-3.4c0.6-0.5,1.2-1,1.7-1.4l1.5-1.1c0.9-0.6,1.6-1.1,2.1-1.5l0.6-0.4C422.1,356.9,422.2,356.8,422.2,356.8z"/>
	<path class="st4" d="M435.1,402.8c-0.2,0-0.5-0.1-0.7-0.1c-0.4-0.1-1.1-0.2-1.9-0.4c-2.3-0.4-4.7-0.7-7-0.9
		c-15.9-1-31.3,5.4-41.8,17.4c-1.6,1.8-3,3.6-4.3,5.6c-0.5,0.7-0.8,1.2-1.1,1.6c-0.1,0.2-0.2,0.4-0.4,0.6c0.1-0.2,0.2-0.4,0.3-0.6
		c0.2-0.4,0.5-1,1-1.7c1.3-2,2.7-3.9,4.3-5.7c10.4-12.2,26-18.6,42-17.5c2.4,0.2,4.7,0.5,7.1,1c0.8,0.2,1.5,0.4,1.9,0.5
		C434.6,402.6,434.9,402.7,435.1,402.8z"/>
	<path class="st4" d="M399.1,327.1c0,0,0,0.1,0,0.3s-0.1,0.4-0.2,0.7c-0.1,0.7-0.4,1.6-0.6,2.9c-0.6,2.5-1.4,6-2.5,10.5
		c-2.1,8.8-5.3,21-8.5,34.4c-1.6,6.7-3.1,13.2-4.3,19c-1.3,5.8-2.3,11.2-3.1,15.6c-0.4,2.2-0.7,4.2-1,6s-0.5,3.3-0.7,4.6l-0.5,2.9
		l-0.1,0.7l-0.1,0.3c0-0.1,0-0.2,0-0.3c0-0.2,0-0.5,0.1-0.8c0.1-0.7,0.2-1.7,0.4-2.9c0.2-1.2,0.4-2.8,0.6-4.6c0.3-1.8,0.6-3.8,1-6
		c0.7-4.5,1.8-9.8,3-15.7s2.7-12.3,4.3-19c3.2-13.5,6.4-25.6,8.7-34.4c1.1-4.4,2-7.9,2.6-10.4c0.3-1.2,0.5-2.1,0.7-2.8
		c0.1-0.3,0.2-0.5,0.2-0.7C399.1,327.2,399.1,327.2,399.1,327.1z"/>
	<path class="st4" d="M376.8,423.7c0-0.1-0.1-0.1-0.1-0.2c0-0.2-0.1-0.4-0.1-0.6l-0.5-2.3c-0.4-2-1-4.9-1.6-8.5
		c-1.2-7.2-2.7-17.2-3.6-28.4c-0.4-5.6-0.7-10.9-0.8-15.7s0-9.2,0.1-12.9c0-1.8,0.2-3.5,0.2-4.9c0.1-1.4,0.2-2.7,0.3-3.7
		c0.1-1,0.2-1.8,0.2-2.3c0-0.2,0-0.5,0.1-0.6c0-0.1,0-0.1,0-0.2c0,0.1,0,0.1,0,0.2c0,0.2,0,0.4,0,0.6c0,0.6-0.1,1.4-0.1,2.4
		c-0.1,1-0.1,2.3-0.2,3.7s-0.2,3.1-0.2,4.9c-0.1,3.7-0.1,8,0,12.8s0.4,10.1,0.8,15.7c0.9,11.1,2.3,21.1,3.5,28.4
		c0.6,3.6,1.1,6.5,1.4,8.5c0.2,1,0.3,1.8,0.4,2.3c0,0.2,0.1,0.4,0.1,0.6C376.7,423.5,376.8,423.6,376.8,423.7z"/>
	<path class="st4" d="M377.5,425.8c-0.1-0.2-0.2-0.4-0.3-0.6c-0.2-0.4-0.4-1-0.6-1.7l-0.5-1.2l-0.6-1.4l-0.7-1.6
		c-0.3-0.6-0.6-1.1-0.9-1.8l-1-1.9l-1.2-2c-0.8-1.4-1.8-2.9-2.8-4.4c-2.3-3.3-4.7-6.4-7.3-9.4c-2.7-2.9-5.5-5.8-8.4-8.4
		c-1.4-1.2-2.7-2.4-4-3.4l-1.9-1.5l-1.7-1.3c-1.1-0.8-2.1-1.5-3-2.1s-1.7-1.1-2.4-1.5l-1.5-1c-0.2-0.1-0.4-0.2-0.5-0.4
		c0.2,0.1,0.4,0.2,0.6,0.3l1.6,0.9c0.7,0.4,1.5,0.9,2.4,1.5c0.9,0.6,2,1.3,3.1,2.1l1.8,1.3l1.9,1.5c1.3,1,2.6,2.2,4,3.3
		c3,2.7,5.8,5.5,8.5,8.4c2.6,3,5.1,6.1,7.3,9.4c1,1.6,2,3,2.8,4.4l1.2,2.1c0.3,0.7,0.7,1.3,1,2c0.3,0.7,0.6,1.2,0.9,1.8
		s0.5,1.1,0.7,1.6c0.2,0.5,0.4,1,0.6,1.4l0.4,1.2l0.6,1.7C377.4,425.4,377.4,425.6,377.5,425.8z"/>
	<path class="st4" d="M418.6,376.1c0,0.1-1.2,0.1-3.1,0.2c-4.9,0.3-9.8,1.2-14.5,2.8c-1.8,0.6-2.9,1-2.9,1c0.2-0.2,0.5-0.3,0.7-0.4
		c0.5-0.2,1.2-0.5,2.1-0.9c2.3-0.9,4.7-1.5,7.2-2c2.4-0.5,4.9-0.7,7.4-0.8c1,0,1.7,0,2.3,0C418,376,418.3,376,418.6,376.1z"/>
	<path class="st4" d="M425.9,411.9c-2-4.5-5.4-8.2-9.7-10.5c0.7,0.2,1.4,0.5,2,0.9c3,1.8,5.5,4.4,7,7.6
		C425.5,410.5,425.8,411.2,425.9,411.9z"/>
	<path class="st4" d="M400.9,340.6c0.1,0.1-1.7,1.9-3.7,4.3c-2,2.4-3.3,4.5-3.5,4.4C395.5,345.9,397.9,342.9,400.9,340.6z"/>
	<path class="st4" d="M395,330.4c0.5,1.2,0.7,2.5,0.9,3.9c0.3,1.3,0.4,2.6,0.4,3.9c-0.5-1.2-0.7-2.5-0.9-3.9
		C395.1,333,395,331.7,395,330.4z"/>
	<path class="st4" d="M376.8,362.3c-0.8,2.1-1.8,4.1-2.8,6c-1,2-2,3.9-3.3,5.8c0.8-2.1,1.8-4.1,2.9-6
		C374.5,366.1,375.6,364.1,376.8,362.3z"/>
	<path class="st4" d="M365.9,351.5c0.9,1.4,1.7,2.8,2.4,4.3c0.8,1.5,1.5,3,2,4.5c-0.9-1.4-1.8-2.8-2.4-4.3
		C367.1,354.5,366.4,353,365.9,351.5z"/>
	<path class="st4" d="M350,388.5c0,0.1-2-0.2-4.4-0.4s-4.4-0.1-4.4-0.2C344.2,387.3,347.2,387.5,350,388.5z"/>
	<path class="st4" d="M360.9,421.2l5.4,28.5c0.4,1.9,2,3.2,3.9,3.2h16c2,0,3.6-1.4,3.9-3.3l4.7-28.4L360.9,421.2z"/>
	<polygon class="st9" points="362.6,430.5 393.3,430.5 394.9,421.2 360.9,421.2 	"/>
	<polygon class="st12" points="362.6,430.5 363.3,433.8 392.8,433.8 393.3,430.5 	"/>
</g>
</svg>
