<?xml version="1.0" encoding="utf-8"?>
<!-- Generator: Adobe Illustrator 24.2.0, SVG Export Plug-In . SVG Version: 6.00 Build 0)  -->
<svg version="1.1" id="Layer_1" xmlns="http://www.w3.org/2000/svg" xmlns:xlink="http://www.w3.org/1999/xlink" x="0px" y="0px"
	 viewBox="0 0 605.7 364.2" style="enable-background:new 0 0 605.7 364.2;" xml:space="preserve">
<style type="text/css">
	.st0{fill:#263238;}
	.st1{fill:#0061F2;}
	.st2{opacity:0.2;}
	.st3{fill:#FFFFFF;}
	.st4{fill:#E6E6E6;}
	.st5{fill:#E0E0E0;}
	.st6{opacity:0.1;}
	.st7{fill:#455A64;}
	.st8{fill:#E5BAAB;}
	.st9{fill:#D78776;}
</style>
<g id="freepik--Floor--inject-499">
	<path class="st0" d="M605.7,363.2c0,0.1-135.6,0.3-302.8,0.3S0,363.4,0,363.2s135.6-0.3,302.9-0.3S605.7,363.1,605.7,363.2z"/>
</g>
<g id="freepik--Plant--inject-499">
	<path class="st1" d="M62.3,332.2c-3.6-1.7-7.7-2.2-11.6-1.4c-2.1,0.4-4.3,1-5.7,2.6s-1.7,4.4-0.1,5.7c1.1,0.7,2.3,1,3.6,0.9
		c3.1,0,6.5-0.6,8.9,1.3c1.4,1,2.3,2.8,4,3.3c1.7,0.4,3.5-0.4,4.4-1.9c0.8-1.5,1-3.3,0.5-5C65.9,335.3,64.4,333.3,62.3,332.2z"/>
	<path class="st1" d="M70.4,316.6c-2.2,3.1-6.4,2.1-8.3,0.2s-2.8-4.6-3.5-7.2c-1.7-6-3.4-12.2-2.2-18.2c0.3-1.9,1.1-3.6,2.3-5
		c1.2-1.4,3.2-2,5-1.7c2.1,0.5,3.4,2.6,4.4,4.6c2.8,5.8,4.3,12.2,4.3,18.7C72.4,310.9,72.1,314.1,70.4,316.6"/>
	<g class="st2">
		<path d="M70.4,316.6c-2.2,3.1-6.4,2.1-8.3,0.2s-2.8-4.6-3.5-7.2c-1.7-6-3.4-12.2-2.2-18.2c0.3-1.9,1.1-3.6,2.3-5
			c1.2-1.4,3.2-2,5-1.7c2.1,0.5,3.4,2.6,4.4,4.6c2.8,5.8,4.3,12.2,4.3,18.7C72.4,310.9,72.1,314.1,70.4,316.6"/>
	</g>
	<path class="st1" d="M76.3,321c-2.3-2.9-2.9-6.8-1.7-10.3c1.2-3.5,3.3-6.5,6.1-8.9c3.2-2.9,6.9-5.1,11-6.5c1.6-0.6,3.2-0.9,4.9-0.8
		c1.7,0.1,3.2,1,4.1,2.5c1.2,2.2,0.1,4.9-1.1,7c-2.1,3.9-4.5,7.5-7.2,11c-2.1,2.8-4.6,5.5-7.9,6.8s-6.7,1.1-8.4-1.2"/>
	<path class="st0" d="M70.5,363.1c-0.1-0.5-0.2-0.9-0.2-1.4c-0.1-1-0.2-2.3-0.4-3.8s-0.4-3.5-0.9-5.6c-0.5-2.3-1.2-4.5-2-6.6
		c-0.8-2.2-2-4.2-3.4-6c-1.1-1.5-2.6-2.7-4.3-3.6c-1.1-0.6-2.4-0.9-3.6-1.1c-0.5,0-0.9-0.1-1.4-0.2c0.5-0.1,0.9-0.1,1.4,0
		c1.3,0.1,2.6,0.4,3.8,1c1.8,0.8,3.3,2.1,4.5,3.6c1.5,1.9,2.6,3.9,3.5,6.1c0.9,2.2,1.5,4.4,2,6.7c0.4,1.9,0.6,3.8,0.7,5.7
		c0.1,1.6,0.2,2.9,0.2,3.9C70.6,362.2,70.6,362.7,70.5,363.1z"/>
	<path class="st0" d="M70.3,360.2c0-0.2,0-0.4,0-0.6c0-0.5,0-1.1,0-1.9c0-1.6,0-4-0.1-6.8c-0.1-5.8-0.6-13.7-1.6-22.5
		s-2.2-16.6-3.4-22.3c-0.3-1.4-0.6-2.7-0.8-3.8s-0.5-2.1-0.7-2.9s-0.3-1.3-0.4-1.8c-0.1-0.2-0.1-0.4-0.1-0.6
		c0.1,0.2,0.2,0.4,0.2,0.6l0.5,1.8c0.2,0.8,0.5,1.7,0.8,2.9s0.6,2.4,0.9,3.8c1.6,7.4,2.8,14.8,3.6,22.3c1,8.8,1.4,16.8,1.4,22.5
		c0,2.9,0,5.2-0.1,6.9c0,0.8-0.1,1.4-0.1,1.9C70.4,359.8,70.3,360,70.3,360.2z"/>
	<path class="st0" d="M70.2,344.8c-0.1-0.6-0.1-1.3,0-2c0.1-1.2,0.2-3,0.6-5.3c0.4-2.6,1-5.1,1.7-7.7c0.9-3.1,1.9-6.1,3.2-9.1
		c2.2-5.4,5.4-10.4,9.4-14.7c0.7-0.7,1.4-1.4,2.2-2.1c0.3-0.3,0.6-0.6,0.9-0.8l0.9-0.6c0.5-0.4,1.1-0.7,1.6-1
		c-1.9,1.5-3.7,3.1-5.4,4.8c-3.9,4.3-7,9.3-9.2,14.6c-1.3,2.9-2.3,5.9-3.2,9c-0.8,2.8-1.4,5.4-1.8,7.6s-0.6,4-0.8,5.2
		C70.4,343.5,70.4,344.2,70.2,344.8z"/>
</g>
<g id="freepik--Windows--inject-499">
	<rect x="149.4" y="19.5" class="st3" width="307.4" height="239.2"/>
	<path class="st0" d="M456.7,258.7c0-1.8-0.1-94.8-0.2-239.2l0.2,0.2H149.4l0,0l0.3-0.3c0,86.2,0,167.8,0,239.2l-0.2-0.2
		L456.7,258.7l-307.3,0.2h-0.2v-0.2c0-71.4,0-153,0-239.2v-0.3h0.3h307.3h0.2v0.2C456.9,163.9,456.7,256.9,456.7,258.7z"/>
	<path class="st0" d="M233.9,238.6c-0.1,0-0.3-26-0.3-58.1s0.1-58.1,0.3-58.1s0.3,26,0.3,58.1S234,238.6,233.9,238.6z"/>
	<path class="st0" d="M367.3,238.6c-0.1,0-0.3-26-0.3-58.1s0.1-58.1,0.3-58.1s0.3,26,0.3,58.1S367.4,238.6,367.3,238.6z"/>
	<path class="st0" d="M279.4,238.6c-0.1,0-0.3-33.2-0.3-74.2s0.1-74.2,0.3-74.2s0.3,33.2,0.3,74.2S279.6,238.6,279.4,238.6z"/>
	<path class="st0" d="M187.1,238.6c-0.1,0-0.3-33.2-0.3-74.2s0.1-74.2,0.3-74.2s0.3,33.2,0.3,74.2S187.2,238.6,187.1,238.6z"/>
	<path class="st0" d="M419.6,238.6c-0.1,0-0.3-33.2-0.3-74.2s0.1-74.2,0.3-74.2s0.3,33.2,0.3,74.2S419.8,238.6,419.6,238.6z"/>
	<path class="st0" d="M319.3,238.6c-0.1,0-0.3-38.4-0.3-85.7s0.1-85.7,0.3-85.7s0.3,38.4,0.3,85.7S319.5,238.6,319.3,238.6z"/>
	<path class="st0" d="M235,122.5c0,0.6-0.5,1.1-1.1,1.1c-0.6,0-1.1-0.5-1.1-1.1c0-0.6,0.5-1.1,1.1-1.1l0,0
		C234.5,121.4,235,121.9,235,122.5z"/>
	<circle class="st0" cx="279.4" cy="90.1" r="1.1"/>
	<path class="st0" d="M279.4,94c-2.1,0-3.8-1.7-3.8-3.8c0-2.1,1.7-3.8,3.8-3.8c2.1,0,3.8,1.7,3.8,3.8
		C283.2,92.2,281.5,93.9,279.4,94z M279.4,86.6c-2,0-3.6,1.6-3.6,3.6c0,2,1.6,3.6,3.6,3.6c2,0,3.6-1.6,3.6-3.6
		C283,88.2,281.4,86.6,279.4,86.6z"/>
	<circle class="st0" cx="319.3" cy="67.2" r="1.1"/>
	<circle class="st0" cx="367.3" cy="123.5" r="1.1"/>
	<circle class="st0" cx="419.6" cy="90.1" r="1.1"/>
	<path class="st0" d="M188.2,91.2c0,0.6-0.5,1.1-1.1,1.1c-0.6,0-1.1-0.5-1.1-1.1s0.5-1.1,1.1-1.1c0,0,0,0,0,0
		C187.7,90.1,188.2,90.6,188.2,91.2C188.2,91.2,188.2,91.2,188.2,91.2z"/>
	<path class="st1" d="M429.9,142.7c-0.3,0.1-0.6,0.2-0.9,0.3c-0.8,0.2-1.7,0.5-2.5,0.9c-3,1.4-5.7,3.5-7.9,6c-3,3.2-6,7.7-9.7,12.7
		c-2,2.7-4.2,5.3-6.6,7.6c-1.3,1.3-2.8,2.5-4.3,3.5c-1.6,1.1-3.3,2-5.1,2.8c-3.9,1.6-8.1,2.3-12.3,2.1c-2.2,0-4.5-0.3-6.6-0.8
		c-2.3-0.5-4.5-1.5-6.4-2.8c-2-1.4-3.7-3.2-5-5.2c-1.4-2-2.6-4.1-3.8-6.3c-2.4-4.3-4.9-8.7-7.7-13.1c-2.8-4.4-5.4-9.1-8.2-13.7
		c-2.8-4.7-6.2-9.1-10.1-13c-2-1.9-4.3-3.6-6.8-4.8c-2.5-1.3-5.2-2.1-8-2.4c-5.8-0.6-11.6,0.7-16.6,3.6c-5,3-9.3,7-12.7,11.8
		c-3.3,4.7-6.4,9.5-9.1,14.6c-2.7,4.9-5.6,9.7-8.8,14.3c-3.1,4.4-6.6,8.5-10.6,12.1c-1,0.9-2,1.7-3.1,2.5c-1,0.8-2.1,1.5-3.3,2.1
		c-2.2,1.3-4.6,2.3-7.1,2.9c-1.2,0.3-2.5,0.6-3.7,0.7c-0.6,0.1-1.2,0.1-1.9,0.1c-0.6,0-1.2,0-1.9,0c-2.4-0.1-4.8-0.6-7.1-1.3
		c-4.3-1.5-8.3-3.6-12-6.3c-3.6-2.5-6.8-5-10-7.3c-3-2.2-6.1-4.2-9.5-5.8c-3-1.4-6.2-2.3-9.5-2.7c-2.8-0.3-5.7-0.2-8.5,0.5
		c-0.6,0.2-1.2,0.4-1.8,0.6c-0.6,0.2-1.2,0.4-1.7,0.7c-1,0.5-2,1-3,1.7c-1.6,1.1-3.1,2.3-4.5,3.6l-1.6,1.7c-0.5,0.5-0.9,1-1.3,1.5
		l-1.6,2.1c-0.2,0.2-0.4,0.5-0.6,0.7c0.1-0.3,0.3-0.5,0.5-0.8l1.5-2.2c0.4-0.5,0.8-1,1.2-1.5l1.5-1.8c1.4-1.4,2.9-2.7,4.5-3.8
		c1-0.7,2-1.3,3-1.8c0.6-0.3,1.1-0.5,1.8-0.7c0.6-0.3,1.2-0.5,1.9-0.6c2.9-0.8,5.8-1,8.8-0.7c3.4,0.4,6.7,1.3,9.8,2.6
		c3.4,1.6,6.7,3.5,9.7,5.8c3.2,2.3,6.5,4.8,10,7.2c3.6,2.5,7.5,4.6,11.7,6c2.2,0.7,4.5,1.1,6.8,1.2c0.6,0,1.2,0,1.8,0
		c0.6,0,1.2,0,1.8-0.1c1.2-0.1,2.4-0.4,3.5-0.7c4.8-1.4,9.2-3.8,12.9-7.2c3.9-3.6,7.4-7.5,10.4-11.9c3.2-4.6,6-9.3,8.7-14.1
		c2.7-5.1,5.8-10,9.1-14.8c3.5-5,8-9.1,13.2-12.3c2.7-1.5,5.6-2.6,8.6-3.2c3-0.6,6-0.8,9-0.5c3,0.3,5.9,1.2,8.6,2.5
		c2.6,1.3,5,3.1,7.1,5.1c4,4,7.4,8.5,10.3,13.3c2.9,4.6,5.4,9.3,8.2,13.7c2.7,4.4,5.3,8.9,7.7,13.2s4.7,8.5,8.4,11.1
		c1.8,1.3,3.8,2.2,6,2.7c2.1,0.5,4.2,0.8,6.4,0.8c4,0.2,8.1-0.4,11.9-1.9c1.7-0.7,3.4-1.6,5-2.7c1.5-1,2.9-2.2,4.2-3.4
		c2.4-2.3,4.6-4.8,6.6-7.5c3.8-5,6.9-9.4,9.9-12.6c2.3-2.6,5.1-4.6,8.3-5.9c0.8-0.3,1.7-0.6,2.5-0.7
		C429.4,142.8,429.6,142.7,429.9,142.7z"/>
	<rect x="186" y="46.3" class="st0" width="53.6" height="3"/>
	<rect x="186" y="53.3" class="st0" width="26.5" height="3"/>
	<path class="st0" d="M153.5,0h298.7c2.5,0,4.5,2,4.5,4.5c0,0,0,0,0,0v15l0,0H149l0,0v-15C149,2,151,0,153.5,0z"/>
	<path class="st3" d="M164.9,10.1c0,1.2-0.9,2.1-2.1,2.1c-1.2,0-2.1-0.9-2.1-2.1c0-1.2,0.9-2.1,2.1-2.1C164,8,164.9,9,164.9,10.1
		C164.9,10.1,164.9,10.1,164.9,10.1z"/>
	<path class="st3" d="M174.1,10.1c0,1.2-0.9,2.1-2.1,2.1c-1.2,0-2.1-0.9-2.1-2.1c0-1.2,0.9-2.1,2.1-2.1C173.2,8,174.1,9,174.1,10.1
		C174.1,10.1,174.1,10.1,174.1,10.1z"/>
	<path class="st3" d="M183.3,10.1c0,1.2-0.9,2.1-2.1,2.1c-1.2,0-2.1-0.9-2.1-2.1c0-1.2,0.9-2.1,2.1-2.1C182.3,8,183.3,9,183.3,10.1
		C183.3,10.1,183.3,10.1,183.3,10.1z"/>
	<path class="st4" d="M34.1,160.2h119.7c1.8,0,3.2,1.4,3.2,3.2v28.9c0,1.8-1.4,3.2-3.2,3.2H34.1c-1.8,0-3.2-1.4-3.2-3.2v-28.9
		C30.8,161.7,32.3,160.2,34.1,160.2z"/>
	<path class="st3" d="M57.4,183.8c-2.7,3.3-7.5,3.8-10.8,1.2c-3.3-2.7-3.8-7.5-1.2-10.8c2.7-3.3,7.5-3.8,10.8-1.2l0,0
		C59.5,175.7,60.1,180.5,57.4,183.8C57.4,183.8,57.4,183.8,57.4,183.8z"/>
	<path class="st0" d="M55.8,176.4c-1.3,1.6-2.7,3.1-4.2,4.4c-0.3,0.3-0.7,0.7-1,1l-0.2,0.2l-0.2-0.2c-1.1-1.1-2.2-2.2-3.1-3.5
		c1.3,0.9,2.4,2,3.5,3.1h-0.3l1-1C52.6,179,54.1,177.6,55.8,176.4z"/>
	<path class="st0" d="M144.7,175.4c0,0.1-16,0.3-35.8,0.3s-35.8-0.1-35.8-0.3s16-0.3,35.8-0.3S144.7,175.2,144.7,175.4z"/>
	<path class="st0" d="M115.3,182.4c0,0.1-9.3,0.3-20.7,0.3s-20.8-0.1-20.8-0.3s9.3-0.3,20.7-0.3S115.3,182.2,115.3,182.4z"/>
	<path class="st5" d="M70.7,75h119.2c1.4,0,2.6,1.2,2.6,2.6V124c0,1.4-1.2,2.6-2.6,2.6H70.7c-1.4,0-2.6-1.2-2.6-2.6V77.6
		C68.1,76.2,69.2,75,70.7,75z"/>
	<path class="st1" d="M93.9,91.3c0,3.2-2.6,5.8-5.8,5.8s-5.8-2.6-5.8-5.8c0-3.2,2.6-5.8,5.8-5.8S93.9,88.1,93.9,91.3L93.9,91.3z"/>
	<rect x="99.7" y="87.3" class="st1" width="40.4" height="2.2"/>
	<rect x="99.7" y="92.4" class="st3" width="78.6" height="2.2"/>
	<path class="st1" d="M93.9,109.2c0,3.2-2.6,5.8-5.8,5.8s-5.8-2.6-5.8-5.8c0-3.2,2.6-5.8,5.8-5.8C91.3,103.3,93.9,105.9,93.9,109.2
		C93.9,109.1,93.9,109.1,93.9,109.2z"/>
	<rect x="99.7" y="105.2" class="st1" width="20.6" height="2.2"/>
	<rect x="99.7" y="110.2" class="st3" width="78.6" height="2.2"/>
	<path class="st5" d="M94,210.9h152.6c2.2,0,4,1.8,4,4v60.3c0,2.2-1.8,4-4,4H94c-2.2,0-4-1.8-4-4v-60.3
		C90,212.7,91.8,210.9,94,210.9z"/>
	<path class="st1" d="M119.4,243.9l-0.1-13.8c-4.2,0.1-8.3,1.7-11.4,4.5c-4.1,3.6-6.2,8.9-5.5,14.3c0.1,0.7,0.2,1.3,0.3,2
		c0,0,0,0,0,0l0,0l16.7-3.8L119.4,243.9z"/>
	<path class="st1" d="M136.6,239.6c-2.5-5.3-7.6-8.9-13.5-9.4l-0.5,0h-0.3c-0.3,0-0.7,0-1,0h-0.1l0.1,13.8v3.2l16.7,3.6l0,0
		c0.3-1.2,0.4-2.4,0.4-3.6C138.3,244.6,137.7,242,136.6,239.6z"/>
	<g class="st2">
		<path d="M136.6,239.6c-2.5-5.3-7.6-8.9-13.5-9.4l-0.5,0h-0.3c-0.3,0-0.7,0-1,0h-0.1l0.1,13.8v3.2l16.7,3.6l0,0
			c0.3-1.2,0.4-2.4,0.4-3.6C138.3,244.6,137.7,242,136.6,239.6z"/>
	</g>
	<path class="st1" d="M120.3,248.8l-16.7,3.8c2.1,9.2,11.2,15,20.5,12.9c6.5-1.5,11.5-6.5,12.9-13L120.3,248.8"/>
	<g class="st6">
		<path d="M120.3,248.8l-16.7,3.8c2.1,9.2,11.2,15,20.5,12.9c6.5-1.5,11.5-6.5,12.9-13L120.3,248.8"/>
	</g>
	<rect x="149.5" y="234.1" class="st3" width="84.7" height="3.8"/>
	<rect x="149.5" y="244.3" class="st3" width="84.7" height="3.8"/>
	<rect x="149.5" y="255.5" class="st3" width="45.8" height="3.8"/>
	<path class="st4" d="M285.5,162.5h150.6c4.6,0,8.4,3.8,8.4,8.4v144.4c0,4.6-3.8,8.4-8.4,8.4H285.5c-4.6,0-8.4-3.8-8.4-8.4V170.9
		C277.1,166.3,280.9,162.5,285.5,162.5z"/>
	<rect x="288.8" y="272.9" class="st0" width="5.5" height="1.6"/>
	<rect x="301.3" y="281.4" class="st0" width="7" height="1.6"/>
	<rect x="325.7" y="281.4" class="st0" width="7" height="1.6"/>
	<rect x="350.2" y="281.4" class="st0" width="7" height="1.6"/>
	<rect x="374.6" y="281.4" class="st0" width="7" height="1.6"/>
	<rect x="399.1" y="281.4" class="st0" width="7" height="1.6"/>
	<rect x="423.6" y="281.4" class="st0" width="7" height="1.6"/>
	<rect x="288.8" y="251.8" class="st0" width="5.5" height="1.6"/>
	<rect x="288.8" y="212" class="st0" width="5.5" height="1.6"/>
	<rect x="288.8" y="192" class="st0" width="5.5" height="1.6"/>
	<rect x="289.1" y="231.9" class="st0" width="5.5" height="1.6"/>
	<path class="st0" d="M430.4,274.5h-0.6h-1.7l-6.6,0l-24.5,0.1l-80.7,0.1h-19.4v-0.2c0-27,0.1-50.7,0.1-67.7c0-8.5,0.1-15.3,0.1-20
		c0-2.3,0-4.1,0-5.4c0-0.6,0-1.1,0-1.4c0-0.2,0-0.3,0-0.5c0,0.2,0,0.3,0,0.5c0,0.3,0,0.8,0,1.4c0,1.2,0,3,0,5.4c0,4.7,0,11.5,0.1,20
		c0,17,0,40.8,0.1,67.7l-0.3-0.3h19.1l80.7,0.1l24.5,0.1l6.6,0h1.7L430.4,274.5z"/>
	<path class="st0" d="M431.9,232.6c0,0.1-29,0.3-64.7,0.3s-64.7-0.1-64.7-0.3s29-0.3,64.7-0.3S431.9,232.5,431.9,232.6z"/>
	<path class="st0" d="M431.9,212.8c0,0.1-29,0.3-64.7,0.3s-64.7-0.1-64.7-0.3s29-0.3,64.7-0.3S431.9,212.6,431.9,212.8z"/>
	<path class="st0" d="M431.9,192.8c0,0.1-29,0.3-64.7,0.3s-64.7-0.1-64.7-0.3s29-0.3,64.7-0.3S431.9,192.6,431.9,192.8z"/>
	<path class="st0" d="M431.9,252.6c0,0.1-29,0.3-64.7,0.3s-64.7-0.1-64.7-0.3s29-0.3,64.7-0.3S431.9,252.4,431.9,252.6z"/>
	<path class="st1" d="M303.9,270.2v-17.6l11-17.1l7.5,5.7l15.3-23.8l9,6.4l12.6-22l10.2,8.3l15.3-29.1l16.5,32.6l13.4-16.3l15.7-4.5
		v77.4L303.9,270.2z"/>
	<path class="st0" d="M431.9,186.5h-0.3h-0.8h-3.2l-12.1,0.1h0.1l-12.9,16.9l-0.1,0.1h-0.1l-32.4,0l0.2-0.1l-13.6,22.7l-13.4,22.2
		l-0.2,0.3l-0.2-0.3l-17.5-24.1h0.4l-16,24.9c-1.9,3-3.4,5.3-4.5,6.9c-0.5,0.8-0.9,1.4-1.2,1.8s-0.4,0.6-0.4,0.6s0.1-0.2,0.4-0.6
		s0.6-1,1.1-1.8l4.4-7l15.8-25l0.2-0.3l0.2,0.2c5.2,7.2,11.2,15.3,17.6,24.1h-0.4l13.3-22.2l13.6-22.6l0.1-0.1h0.1h32.4l-0.2,0.1
		l13-16.8v-0.1h0.1l12.1,0.1h3.2h0.8L431.9,186.5z"/>
	<path class="st0" d="M331,229.8c0,0.7-0.5,1.3-1.2,1.3c-0.7,0-1.3-0.5-1.3-1.2c0-0.7,0.5-1.3,1.2-1.3c0,0,0,0,0,0
		C330.4,228.6,331,229.1,331,229.8C331,229.8,331,229.8,331,229.8z"/>
	<path class="st0" d="M368.4,208.6c0,0.7-0.5,1.3-1.2,1.3c-0.7,0-1.3-0.5-1.3-1.2c0-0.7,0.5-1.3,1.2-1.3c0,0,0,0,0,0
		C367.8,207.3,368.3,207.9,368.4,208.6C368.4,208.6,368.4,208.6,368.4,208.6z"/>
	<path class="st0" d="M397.4,203.4c0,0.7-0.5,1.3-1.2,1.3c-0.7,0-1.3-0.5-1.3-1.2c0-0.7,0.5-1.3,1.2-1.3c0,0,0,0,0.1,0
		C396.8,202.1,397.4,202.7,397.4,203.4C397.4,203.3,397.4,203.3,397.4,203.4z"/>
	<ellipse class="st3" cx="309.3" cy="302.5" rx="8" ry="7.7"/>
	<rect x="329.2" y="297.3" class="st3" width="94.3" height="2.9"/>
	<rect x="329.2" y="304.6" class="st3" width="39.2" height="2.9"/>
	<path class="st4" d="M395.6,37.3h101.3c2.7,0,4.9,2.2,4.9,4.9v82.3c0,2.7-2.2,4.9-4.9,4.9H395.6c-2.7,0-4.9-2.2-4.9-4.9V42.2
		C390.6,39.5,392.9,37.3,395.6,37.3z"/>
	<rect x="410" y="74.2" class="st1" width="6" height="45.2"/>
	<rect x="437.3" y="70.5" class="st1" width="6" height="48.9"/>
	<rect x="465.5" y="64.3" class="st1" width="6" height="55.1"/>
	<rect x="452.2" y="97.4" class="st1" width="6" height="22"/>
	<g class="st2">
		<rect x="452.2" y="97.4" width="6" height="22"/>
	</g>
	<rect x="417" y="69.4" class="st1" width="6" height="50.1"/>
	<g class="st6">
		<rect x="417" y="69.4" width="6" height="50.1"/>
	</g>
	<rect x="444.7" y="58.9" class="st1" width="6" height="60.6"/>
	<g class="st6">
		<rect x="444.7" y="58.9" width="6" height="60.6"/>
	</g>
	<rect x="480.9" y="58.9" class="st1" width="6" height="60.6"/>
	<g class="st2">
		<rect x="480.9" y="58.9" width="6" height="60.6"/>
	</g>
	<rect x="473.1" y="46.9" class="st1" width="6" height="72.5"/>
	<g class="st6">
		<rect x="473.1" y="46.9" width="6" height="72.5"/>
	</g>
	<rect x="424.4" y="87.7" class="st1" width="6" height="31.8"/>
	<g class="st2">
		<rect x="424.4" y="87.7" width="6" height="31.8"/>
	</g>
	<path class="st0" d="M495.5,122.2c0,0.1-21.4,0.3-47.7,0.3s-47.8-0.1-47.8-0.3s21.4-0.3,47.8-0.3S495.5,122,495.5,122.2z"/>
	<rect x="397.2" y="111.4" class="st0" width="3.7" height="1.2"/>
	<rect x="397.2" y="95.3" class="st0" width="3.7" height="1.2"/>
	<rect x="397.2" y="65" class="st0" width="3.7" height="1.2"/>
	<rect x="397.2" y="49.8" class="st0" width="3.7" height="1.2"/>
	<rect x="397.4" y="80.2" class="st0" width="3.7" height="1.2"/>
	<path class="st1" d="M265.9,29.8h107.5c1.8,0,3.2,1.4,3.2,3.2v25.5c0,1.8-1.4,3.2-3.2,3.2H265.9c-1.8,0-3.2-1.4-3.2-3.2V33.1
		C262.7,31.3,264.1,29.8,265.9,29.8z"/>
	<path class="st3" d="M286.7,51.1c-2.4,3-6.8,3.5-9.8,1.1s-3.5-6.8-1.1-9.8c2.4-3,6.8-3.5,9.8-1.1c0,0,0,0,0,0
		C288.6,43.8,289.1,48.1,286.7,51.1z"/>
	<path class="st0" d="M281.3,53.8c-3.9-0.2-6.8-3.5-6.6-7.4c0.2-3.3,2.6-6,5.9-6.5c0.3,0,0.5,0,0.8,0c3.9,0,7,3.2,6.9,7.1
		c0,1.5-0.5,3-1.5,4.3l0,0c-1.2,1.4-2.8,2.4-4.7,2.6C281.8,53.8,281.5,53.8,281.3,53.8z M281.3,39.9c-0.3,0-0.5,0-0.8,0
		c-3.8,0.4-6.5,3.8-6.1,7.6c0.4,3.8,3.8,6.5,7.6,6.1c1.8-0.2,3.5-1.1,4.6-2.5l0,0c2.4-3,1.9-7.3-1.1-9.7
		C284.4,40.4,282.8,39.9,281.3,39.9L281.3,39.9z"/>
	<path class="st1" d="M285.2,44.4c-1.1,1.5-2.4,2.8-3.7,4l-0.9,0.9l-0.2,0.2l-0.2-0.2c-1-1-2-2-2.8-3.1c1.1,0.8,2.2,1.8,3.1,2.8
		h-0.4l0.9-0.9C282.3,46.7,283.7,45.5,285.2,44.4z"/>
	<path class="st3" d="M365.5,43.5c0,0.1-14.5,0.3-32.4,0.3s-32.4-0.1-32.4-0.3s14.5-0.3,32.4-0.3S365.5,43.3,365.5,43.5z"/>
	<path class="st3" d="M339,49.8c0,0.1-8.4,0.3-18.7,0.3s-18.7-0.1-18.7-0.3s8.4-0.3,18.7-0.3S339,49.6,339,49.8z"/>
</g>
<g id="freepik--speech-bubble--inject-499">
	<path class="st0" d="M551.5,90.6c0,0-0.1,0.2-0.4,0.5c-0.3,0.3-0.7,0.8-1.3,1.4c-1.7,1.6-3.7,3-5.8,4c-0.7,0.4-1.5,0.7-2.2,1
		l-1.2,0.4l-1.3,0.4c-0.9,0.2-1.9,0.4-2.8,0.5c-0.5,0.1-1,0.1-1.5,0.1c-0.5,0-1.1,0-1.6,0c-4.9,0-9.7-1.6-13.7-4.4h0.2l-11.9,2.4
		l-0.7,0.1l0.5-0.5l6.5-7.5v0.3c-1.2-1.6-2.2-3.4-2.9-5.2c-0.8-1.9-1.3-3.9-1.6-6c-0.6-4.3,0.1-8.7,1.8-12.7
		c4.5-10.2,15.4-16,26.4-14c4.6,0.9,8.9,3.1,12.3,6.4c7.5,7.1,9.4,18.3,4.9,27.6c-0.2,0.5-0.5,0.9-0.7,1.3s-0.5,0.8-0.7,1.1
		c-0.3,0.6-0.7,1.1-1.2,1.7l-0.8,1C551.7,90.5,551.6,90.6,551.5,90.6c0.1,0,0.1-0.2,0.2-0.3l0.8-1c0.4-0.5,0.8-1.1,1.1-1.7
		c0.2-0.3,0.4-0.7,0.7-1.1s0.4-0.9,0.6-1.3c2.5-5.3,2.9-11.4,1.2-17c-1.2-3.9-3.3-7.4-6.2-10.1c-1.6-1.6-3.4-2.9-5.4-3.9
		c-2.1-1.1-4.4-1.9-6.7-2.3c-12.8-2.3-25.1,6.1-27.4,18.9c-0.4,2.4-0.5,4.8-0.2,7.3c0.3,2,0.8,4,1.5,5.9c0.8,1.8,1.7,3.5,2.9,5.1
		l0.1,0.2l-0.1,0.1l-6.6,7.4l-0.2-0.4l11.9-2.2h0.1h0.1c3.9,2.8,8.6,4.3,13.4,4.4c0.5,0,1,0,1.6,0c0.5,0,1,0,1.5-0.1
		c0.9-0.1,1.9-0.3,2.8-0.5l1.3-0.3l1.2-0.4c0.8-0.3,1.5-0.6,2.2-0.9c2.1-1,4.1-2.3,5.8-3.9c0.6-0.6,1-1,1.3-1.3
		C551.4,90.7,551.5,90.6,551.5,90.6z"/>
	<polygon class="st0" points="533.8,70 529.8,68.7 525.8,67.3 526.7,71.5 527.5,75.6 529.7,73.7 539.1,84.3 541.1,82.5 531.7,72 	
		"/>
</g>
<g id="freepik--character-2--inject-499">
	<path class="st1" d="M514.4,348.6l-6.5-6.5l12.1-12.2l9.6,9.4l-0.7,0.8c-3.2,3.6-16.3,17.9-19.2,19.4
		C506.4,361.3,514.4,348.6,514.4,348.6z"/>
	<path class="st0" d="M525.1,343.6c-0.8-1.2-1.2-2.7-1.1-4.1c0.2-1.4,0.8-2.8,1.9-3.7l3.4,3.4L525.1,343.6z"/>
	<path class="st0" d="M510.7,355c0,0-2.6,4.7-1.5,4.8s14.9-13.8,20.4-20.5l-0.3-0.2l-16,16.4C513.3,355.4,511.4,354.3,510.7,355z"/>
	<path class="st7" d="M529.4,338.8c-0.1,0.1-0.1,0.2-0.2,0.2c-0.2,0.2-0.4,0.4-0.6,0.6l-2.1,2.3c-1.8,1.9-4.3,4.6-7.1,7.5
		c-2.8,2.9-5.4,5.4-7.4,7.2l-2.2,2.1l-0.6,0.6c-0.1,0.1-0.1,0.1-0.2,0.2l0.2-0.2l0.6-0.6l2.3-2.2c1.9-1.8,4.5-4.4,7.3-7.3
		c2.8-2.9,5.3-5.5,7.2-7.4l2.2-2.3l0.6-0.6C529.3,338.9,529.4,338.9,529.4,338.8z"/>
	<path class="st7" d="M513.5,355.6c-0.5-0.3-1-0.5-1.5-0.6c-0.5-0.1-1.1-0.1-1.6-0.1c0.5-0.2,1.1-0.3,1.6-0.1
		C512.6,354.9,513.1,355.2,513.5,355.6z"/>
	<path class="st7" d="M515.2,350.2c-0.3,0-0.6,0-0.8-0.1c-0.3,0-0.6-0.1-0.8-0.3c0-0.1,0.4,0,0.8,0.1S515.2,350.1,515.2,350.2z"/>
	<path class="st7" d="M515.7,348.7c0,0.1-0.3,0.1-0.7,0.1c-0.2,0-0.5,0-0.7-0.1c0-0.1,0.3-0.1,0.7-0.1S515.7,348.6,515.7,348.7z"/>
	<path class="st7" d="M515.2,346.9c0,0-0.2,0.4-0.6,0.7s-0.7,0.6-0.7,0.6s0.2-0.4,0.5-0.7C514.6,347.3,514.9,347.1,515.2,346.9z"/>
	<path class="st7" d="M514.6,345.9c-0.1,0.3-0.2,0.7-0.5,0.9c-0.2,0.3-0.5,0.5-0.8,0.6c0,0,0.3-0.4,0.7-0.8S514.5,345.9,514.6,345.9
		z"/>
	<path class="st7" d="M513.8,349.6c-0.2,0.3-0.5,0.6-0.8,0.8c-0.3,0.2-0.6,0.5-1,0.6c-0.2,0.1-0.4,0.2-0.7,0.3
		c-0.1,0.1-0.3,0.1-0.4,0c-0.1-0.1-0.2-0.3-0.2-0.4c0.3-0.9,1.2-1.5,2.2-1.4c0.3,0,0.5,0.1,0.8,0.3c0.2,0.1,0.2,0.2,0.2,0.2
		c-0.3-0.2-0.6-0.3-1-0.3c-0.4,0-0.8,0.1-1.1,0.2c-0.4,0.2-0.7,0.6-0.9,1c0,0.2,0.2,0.3,0.4,0.2c0.2-0.1,0.4-0.2,0.6-0.3
		c0.3-0.2,0.7-0.4,1-0.6C513.4,349.8,513.7,349.5,513.8,349.6z"/>
	<path class="st7" d="M513.6,349.8c0,0-0.3-0.1-0.6-0.5c-0.2-0.2-0.3-0.5-0.4-0.8c-0.1-0.4,0-0.7,0.2-1c0.2-0.1,0.5-0.1,0.6,0.1
		c0.1,0.1,0.2,0.3,0.2,0.5c0.1,0.3,0.1,0.6,0.1,0.8C513.8,349.3,513.8,349.5,513.6,349.8c0,0,0-0.3,0-0.8c0-0.3-0.1-0.5-0.2-0.8
		c-0.1-0.3-0.3-0.6-0.5-0.5c-0.2,0.2-0.3,0.6-0.2,0.9c0,0.3,0.1,0.5,0.3,0.7C513.3,349.5,513.4,349.6,513.6,349.8z"/>
	<path class="st7" d="M525.8,335.8c0,0-0.4,0.3-0.9,0.9c-1.3,1.6-1.5,3.9-0.6,5.7c0.3,0.7,0.7,1.1,0.7,1.1c0,0-0.1-0.1-0.2-0.2
		c-0.2-0.2-0.4-0.5-0.5-0.8c-1-1.9-0.8-4.2,0.6-5.9c0.2-0.2,0.4-0.5,0.7-0.7C525.6,335.9,525.7,335.8,525.8,335.8z"/>
	<path class="st7" d="M519.5,332c0.9,0.7,1.8,1.5,2.6,2.4c0.9,0.8,1.7,1.6,2.5,2.5c-0.9-0.7-1.8-1.5-2.6-2.4
		C521.1,333.7,520.3,332.9,519.5,332z"/>
	<path class="st7" d="M522.4,344c-0.4,0.7-1,1.4-1.6,2c-0.6,0.6-1.2,1.2-1.9,1.6c0,0,0.8-0.8,1.8-1.8
		C521.6,344.8,522.3,343.9,522.4,344z"/>
	<path class="st7" d="M524.7,341.6c0.1,0,0.1,0.2,0.2,0.5c0.1,0.3,0.2,0.5,0.2,0.5c0,0-0.3-0.1-0.4-0.4S524.7,341.6,524.7,341.6z"/>
	<path class="st7" d="M524.5,339.6c0.1,0,0.1,0.2,0.1,0.5s0,0.5-0.1,0.5s-0.1-0.2-0.1-0.5S524.4,339.6,524.5,339.6z"/>
	<path class="st7" d="M525.3,337.8c0,0-0.1,0.2-0.2,0.5s-0.1,0.5-0.2,0.5c-0.1,0-0.1-0.3,0-0.6S525.2,337.7,525.3,337.8z"/>
	<path class="st7" d="M525.9,336.6c0,0,0,0.1,0,0.3s-0.2,0.2-0.2,0.2c0,0,0-0.1,0-0.3S525.8,336.6,525.9,336.6z"/>
	<path class="st1" d="M464.9,359.3l0.2-9.2l17.2,0.3l-0.2,13.4l-1.1,0c-4.7,0.2-24.2,0.6-27.3-0.5
		C450.2,362.4,464.9,359.3,464.9,359.3z"/>
	<path class="st0" d="M475.9,363.6c0.3-1.4,1.1-2.7,2.3-3.6c1.1-0.9,2.6-1.3,4-1.2l-0.1,4.8L475.9,363.6z"/>
	<path class="st0" d="M457.7,361.1c0,0-5.2,1.4-4.5,2.2s20.2,1.2,28.9,0.6v-0.4l-22.9-0.2C459.2,363.3,458.7,361.1,457.7,361.1z"/>
	<path class="st7" d="M482.3,363.5H482h-0.8l-3.1,0.1c-2.6,0-6.3,0.1-10.3,0s-7.7-0.2-10.3-0.3l-3.1-0.2l-0.8-0.1h-0.3
		c0.1,0,0.2,0,0.3,0h0.8l3.1,0.1c2.6,0.1,6.3,0.2,10.3,0.3s7.7,0.1,10.3,0h4C482.1,363.4,482.2,363.5,482.3,363.5z"/>
	<path class="st7" d="M459.1,363.6c-0.2-1.1-0.8-2-1.6-2.7c0.5,0.2,1,0.6,1.2,1.1C459.1,362.4,459.2,363,459.1,363.6z"/>
	<path class="st7" d="M464.3,361.1c0,0-0.3-0.3-0.5-0.7s-0.4-0.8-0.3-0.8s0.3,0.3,0.5,0.7S464.3,361,464.3,361.1z"/>
	<path class="st7" d="M465.7,360.4c0,0-0.3-0.1-0.6-0.4s-0.5-0.5-0.5-0.6s0.3,0.1,0.6,0.4S465.7,360.3,465.7,360.4z"/>
	<path class="st7" d="M466.6,358.8c-0.3,0.1-0.6,0.1-0.9,0.1c-0.3,0-0.6,0-0.9-0.1c0.3-0.1,0.6-0.1,0.9-0.1
		C466,358.6,466.3,358.7,466.6,358.8z"/>
	<path class="st7" d="M466.9,357.6c-0.3,0.2-0.6,0.3-1,0.3c-0.3,0-0.7,0-1-0.1c0.3,0,0.7-0.1,1-0.1
		C466.2,357.6,466.5,357.6,466.9,357.6z"/>
	<path class="st7" d="M463.7,359.6c-0.4,0.1-0.7,0.1-1.1,0c-0.4-0.1-0.8-0.1-1.2-0.3c-0.2-0.1-0.5-0.2-0.7-0.3
		c-0.1-0.1-0.2-0.2-0.3-0.4c0-0.2,0-0.3,0.2-0.4c0.9-0.4,1.9-0.2,2.5,0.6c0.2,0.2,0.3,0.5,0.3,0.7c0,0.1,0,0.2,0,0.3
		c-0.1-0.3-0.3-0.7-0.5-1c-0.2-0.3-0.6-0.5-0.9-0.6c-0.4-0.2-0.9-0.1-1.3,0.1c-0.2,0.1-0.1,0.3,0.1,0.5c0.2,0.1,0.4,0.2,0.6,0.3
		c0.4,0.1,0.8,0.2,1.1,0.3C463.3,359.5,463.7,359.5,463.7,359.6z"/>
	<path class="st7" d="M463.4,359.6c-0.1-0.2-0.2-0.5-0.1-0.8c0-0.3,0.1-0.6,0.3-0.8c0.2-0.3,0.5-0.5,0.9-0.5c0.2,0,0.4,0.3,0.3,0.5
		c0,0,0,0,0,0c0,0.2-0.1,0.3-0.2,0.5c-0.1,0.2-0.3,0.5-0.5,0.7C464,359.4,463.7,359.5,463.4,359.6c0.1,0,0.3-0.2,0.6-0.6
		c0.2-0.2,0.3-0.4,0.5-0.6c0.2-0.2,0.3-0.6,0-0.7s-0.6,0.2-0.7,0.5c-0.2,0.2-0.3,0.5-0.3,0.7C463.4,359.1,463.4,359.4,463.4,359.6z"
		/>
	<path class="st7" d="M482,358.8c0,0-0.5-0.1-1.3,0c-2.1,0.2-3.9,1.6-4.6,3.5c-0.3,0.7-0.3,1.2-0.3,1.2c0-0.1,0-0.2,0-0.3
		c0-0.3,0.1-0.6,0.2-0.9c0.7-2.1,2.5-3.5,4.7-3.6c0.3,0,0.6,0,0.9,0C481.9,358.7,482,358.8,482,358.8z"/>
	<path class="st7" d="M480.4,351.6c0.1,1.2,0.1,2.4,0.1,3.5c0,1.2,0,2.4-0.1,3.5c-0.1-1.2-0.1-2.4-0.1-3.5
		C480.2,353.9,480.3,352.8,480.4,351.6z"/>
	<path class="st7" d="M473.7,361.9c-0.8,0.2-1.7,0.2-2.5,0.2c-0.8,0-1.7-0.1-2.5-0.2c0-0.1,1.1,0,2.5,0S473.7,361.9,473.7,361.9z"/>
	<path class="st7" d="M477.1,362c0,0-0.1,0.2-0.2,0.5s-0.2,0.5-0.2,0.5s-0.1-0.3,0-0.6S477,361.9,477.1,362z"/>
	<path class="st7" d="M478.4,360.4c0,0-0.1,0.2-0.2,0.4s-0.4,0.3-0.4,0.2s0.1-0.2,0.2-0.4S478.3,360.4,478.4,360.4z"/>
	<path class="st7" d="M480.2,359.7c0,0.1-0.2,0-0.5,0.1s-0.4,0.2-0.5,0.2s0.1-0.3,0.4-0.4S480.2,359.7,480.2,359.7z"/>
	<path class="st7" d="M481.5,359.4c0,0.1-0.1,0.1-0.2,0.2s-0.3,0-0.3,0s0.1-0.1,0.2-0.2S481.5,359.4,481.5,359.4z"/>
	<path class="st8" d="M474,162.7c-6.4,18.8-17.8,52.9-17.8,52.9c-1.5,0.9-3.1,1.7-4.8,2.3c-1.1,0.3-2.3,0.4-3.5,0.4
		c-0.6-0.1-1.2,0.2-1.3,0.8c-0.1,0.3,0,0.7,0.2,0.9c0.7,0.7,3.7,1.2,7,0.2s0.9,4.1-0.2,5.7s-4.2,7.2-4,7.9c0.4,1.1,1.7,0.6,2.8-1.1
		s4.2-6.6,4.7-6.4c0.9,0.5-4.6,9.2-4.6,9.2s-1.3,1.5-0.3,2.3c1.8,1.4,7.1-8,7.6-9c0.3-0.6,0.8-0.1,0.4,0.5s-5.1,8.4-3.7,9.2
		s4.7-6.8,6.1-8.2c1.5-1.6-3.1,6.4-1.7,7.4c0.5,0.4,0.9,0.6,3.2-4.1c2-4.5,3.7-9.2,5.2-13.9c4.9-9.8,18.9-40.2,23.6-60.8"/>
	<path class="st1" d="M477.4,116.8c0,0,13.6-3.9,16.3,16.9c1.7,13.1,5.5,44.6,7,60.9c0.1,1.5-0.8,0.9-0.7,2.2
		c0.1,1.5,1.4,2.7,1.4,3.7c0,3.4-3.8,3.3-3.8,3.3l-35.6,1.7c0,0-3.3,0.1-3.3-2.8c0-2.2,1.4-3.2,1.5-4.5c1.5-19.5,1.5-68.1,3.7-74.8
		C466,116.9,467.3,116.8,477.4,116.8z"/>
	<path class="st0" d="M480.1,117.8c0.3,0.3,0.6,0.6,0.8,0.9c0.5,0.6,1.2,1.3,2,2.2s1.4,1.7,1.8,2.3c0.2,0.3,0.5,0.6,0.7,1
		c-0.3-0.3-0.5-0.6-0.8-0.9c-0.5-0.6-1.1-1.4-1.8-2.3s-1.4-1.7-1.9-2.2C480.6,118.4,480.3,118.1,480.1,117.8z"/>
	<path class="st0" d="M481.7,117.4c-0.2,0.1-0.4,0.2-0.6,0.3l-1.6,0.6c-1.3,0.5-3.2,1.2-5.3,2s-4,1.3-5.4,1.7l-1.6,0.5
		c-0.2,0.1-0.4,0.1-0.6,0.1c0.2-0.1,0.4-0.2,0.6-0.2l1.6-0.5c1.4-0.4,3.3-1.1,5.3-1.8s3.9-1.4,5.3-1.9l1.6-0.6
		C481.3,117.6,481.5,117.5,481.7,117.4z"/>
	<path class="st0" d="M466.9,118.8c0.1,1.3,0.1,2.5,0,3.8C466.7,121.3,466.7,120.1,466.9,118.8z"/>
	<path class="st5" d="M491.2,124.2c0,0.1-6,0.1-13.5,0.1s-13.5,0-13.5-0.1s6-0.1,13.5-0.1S491.2,124.2,491.2,124.2z"/>
	<path class="st5" d="M492.9,128.7c-0.1,0-0.2,0-0.3,0h-0.9l-3.2-0.1l-10.6-0.3l-10.6-0.2h-3.2h-0.9H463c0.1,0,0.2,0,0.3,0h0.9h3.2
		c2.7,0,6.5,0,10.6,0.1s7.9,0.3,10.6,0.4l3.2,0.2l0.9,0.1L492.9,128.7z"/>
	<path class="st5" d="M493.4,132.6c0,0.1-6.8,0.1-15.3,0.1s-15.3,0-15.3-0.1s6.8-0.1,15.3-0.1S493.4,132.6,493.4,132.6z"/>
	<path class="st5" d="M494.1,136.9c0,0.1-7.1,0.1-15.8,0.1s-15.8-0.1-15.8-0.1s7.1-0.1,15.8-0.1S494.1,136.8,494.1,136.9z"/>
	<path class="st5" d="M494.9,141.5c0,0.1-7.2,0.1-16.2,0.1s-16.2,0-16.2-0.1s7.2-0.1,16.2-0.1S494.9,141.5,494.9,141.5z"/>
	<path class="st5" d="M495.3,146.2c0,0-7.4,0.1-16.4,0.1s-16.4,0-16.4-0.1s7.3-0.1,16.4-0.1S495.3,146.2,495.3,146.2z"/>
	<path class="st5" d="M495.9,151.2c0,0.1-7.5,0.1-16.7,0.1s-16.7,0-16.7-0.1s7.5-0.1,16.7-0.1S495.9,151.2,495.9,151.2z"/>
	<path class="st5" d="M496.4,155.6c0,0.1-7.6,0.1-17,0.1s-17,0-17-0.1s7.6-0.1,17-0.1S496.4,155.5,496.4,155.6z"/>
	<path class="st5" d="M497.2,160.4c0,0.1-7.8,0.1-17.3,0.1s-17.3,0-17.3-0.1s7.8-0.1,17.3-0.1S497.2,160.3,497.2,160.4z"/>
	<path class="st5" d="M497.6,165.1c0,0-7.9,0.1-17.5,0.1s-17.5,0-17.5-0.1c0,0,7.9-0.1,17.5-0.1S497.6,165.1,497.6,165.1z"/>
	<path class="st5" d="M498.1,169.9c0,0.1-8,0.1-17.8,0.1s-17.8,0-17.8-0.1s8-0.1,17.8-0.1S498.1,169.8,498.1,169.9z"/>
	<path class="st5" d="M498.7,174.6c0,0.1-8.1,0.1-18.1,0.1s-18.1,0-18.1-0.1s8.1-0.1,18.1-0.1S498.7,174.6,498.7,174.6z"/>
	<path class="st5" d="M499.2,179.4c0,0.1-8.4,0.1-18.8,0.1s-18.8,0-18.8-0.1s8.4-0.1,18.8-0.1S499.2,179.4,499.2,179.4z"/>
	<path class="st5" d="M499.7,184.2c0,0.1-8.7,0.1-19.4,0.1s-19.4,0-19.4-0.1s8.7-0.1,19.4-0.1S499.7,184.1,499.7,184.2z"/>
	<path class="st5" d="M500.2,189c0,0-8.8,0.1-19.7,0.1s-19.7,0-19.7-0.1s8.8-0.1,19.7-0.1S500.2,188.9,500.2,189z"/>
	<path class="st5" d="M500.7,193.7c0,0.1-8.9,0.1-19.9,0.1s-19.9,0-19.9-0.1s8.9-0.1,19.9-0.1S500.7,193.7,500.7,193.7z"/>
	<path class="st5" d="M500.4,198.5c0,0.1-9,0-20.1-0.1s-20.1-0.2-20.1-0.3s9,0,20.1,0.1S500.4,198.4,500.4,198.5z"/>
	<path class="st5" d="M500.4,202.9c0,0.1-9.3,0.2-20.8,0.3s-20.8,0.1-20.8,0.1s9.3-0.2,20.8-0.3S500.4,202.8,500.4,202.9z"/>
	<path class="st1" d="M473.5,180.6c2.3,0.3,4.6-0.3,6.5-1.7c1.8-1.4,3.4-3.2,4.6-5.1c4.7-7,7.5-15.2,8.1-23.6
		c0.2-4.3,0.2-8.6-0.1-12.9c-1.1,8.4-3.2,16.6-6.3,24.4c-2.6,6.6-6.3,12.7-10.9,18.1"/>
	<g class="st2">
		<path d="M473.5,180.6c2.3,0.3,4.6-0.3,6.5-1.7c1.8-1.4,3.4-3.2,4.6-5.1c4.7-7,7.5-15.2,8.1-23.6c0.2-4.3,0.2-8.6-0.1-12.9
			c-1.1,8.4-3.2,16.6-6.3,24.4c-2.6,6.6-6.3,12.7-10.9,18.1"/>
	</g>
	<path class="st0" d="M496,184.9c-1.1,1.2-2.3,2.3-3.5,3.4c-1.4,1.1-2.8,2.2-4.3,3.2c-3.6,2.4-7.6,4.3-11.7,5.6
		c-1.7,0.5-3.4,1-5.2,1.3c-1.6,0.3-3.2,0.5-4.9,0.6l0.3-0.1l1-0.1c0.8-0.1,2-0.3,3.5-0.6c1.7-0.3,3.4-0.8,5.1-1.3
		c2-0.7,4.1-1.5,6-2.4c1.9-0.9,3.8-2,5.7-3.2c1.5-1,2.9-2,4.3-3.1c1.2-1,2.1-1.8,2.7-2.4l0.7-0.7L496,184.9z"/>
	<path class="st0" d="M486.2,162.3c0,0-0.1,0-0.2-0.1l-0.6-0.2l-2-0.7l-6.7-2.5c-2.6-1-5-1.7-6.8-2.2l-2.1-0.6l-0.6-0.2l-0.2-0.1
		h0.2l0.6,0.1c0.5,0.1,1.2,0.3,2.1,0.5c1.8,0.5,4.2,1.2,6.8,2.2s5,1.9,6.7,2.5l2,0.8l0.5,0.2L486.2,162.3z"/>
	<path class="st0" d="M486.2,162.3c0,0,0.1-0.3,0.3-0.8l0.8-2.2c0.7-1.9,1.7-4.7,2.7-8.3c1-4.2,1.8-8.4,2.3-12.7
		c0.5-2.5,0.4-5.1-0.3-7.5c-0.4-1.3-1.1-2.4-2-3.4c-0.5-0.5-0.9-1-1.5-1.4c-0.5-0.5-1.1-0.9-1.7-1.1c-1.3-0.5-2.7-0.7-4-0.4
		c-1.3,0.2-2.6,0.8-3.7,1.5c-2.2,1.4-3.3,3.9-4.1,6.2c-1.5,4.6-2.9,8.8-4.1,12.2l-2.8,8.2c-0.3,0.9-0.6,1.7-0.8,2.2
		c-0.2,0.6-0.3,0.8-0.3,0.8l0.2-0.8l0.7-2.2c0.7-2,1.6-4.8,2.7-8.3c1.1-3.5,2.5-7.6,4-12.3c0.4-1.2,0.9-2.3,1.5-3.4
		c0.6-1.1,1.6-2.1,2.7-2.9c1.1-0.8,2.4-1.3,3.7-1.5c1.4-0.3,2.8-0.1,4.1,0.4c0.6,0.3,1.2,0.7,1.8,1.2c0.5,0.5,1,0.9,1.5,1.5
		c0.9,1,1.6,2.2,2,3.5c0.7,2.5,0.8,5.1,0.3,7.6c-0.6,4.3-1.3,8.5-2.4,12.7c-1,3.5-2,6.3-2.7,8.3
		C486.6,161.3,486.2,162.3,486.2,162.3z"/>
	<path class="st0" d="M494.7,219.6l0.8,58.1c0,4,0.5,8,1.2,11.9c1.1,5.4,3,12.4,6.1,16.7c4.7,6.6,21.3,25.2,21.3,25.2l-14,16.3
		c0,0-29.6-23.6-31.5-45.4c-1-11.1,0-77.3,0-77.3L494.7,219.6z"/>
	<path class="st0" d="M462,205.5l-0.4,150.4h23.2l4.1-130.9c0,0,6.7-4.4,7.9-10.1c1.6-7.6,0.9-11.2,0.9-11.2L462,205.5z"/>
	<rect x="460.6" y="352.3" class="st7" width="25.2" height="3.6"/>
	
		<rect x="503.7" y="336.7" transform="matrix(0.6881 -0.7256 0.7256 0.6881 -84.6237 480.2129)" class="st7" width="25.2" height="3.6"/>
	<path class="st0" d="M522.7,329.5c0,0.1-0.1,0.1-0.1,0.2l-0.4,0.5l-1.6,1.7c-1.3,1.5-3.2,3.5-5.3,5.7s-4,4-5.5,5.5l-1.7,1.6
		l-0.5,0.4c-0.1,0.1-0.1,0.1-0.2,0.1c0-0.1,0.1-0.1,0.1-0.2l0.4-0.5l1.6-1.7l5.4-5.6l5.3-5.6l1.7-1.7l0.5-0.4
		C522.5,329.6,522.6,329.5,522.7,329.5z"/>
	<path class="st7" d="M479.6,204.7c0,0,0,0.1-0.1,0.4c-0.2,1-0.7,1.9-1.3,2.6c-0.6,0.6-1.1,1.2-1.8,1.8c-0.8,0.7-1.5,1.5-2.1,2.3
		c-0.7,1-0.6,2.3-0.7,3.6c-0.1,2.7-0.2,5.8-0.3,9.1s-0.2,7.1-0.4,11.1s-0.2,8.2-0.3,12.7c-0.2,9-0.6,18.8-0.8,29.2
		c-0.3,20.7-0.7,39.4-0.9,53c-0.2,13.2-0.4,20.5-0.4,22c0,0,0-0.5,0-1.5s0-2.5,0-4.4c0-3.8,0.1-9.3,0.2-16.1
		c0.2-13.6,0.5-32.3,0.8-53c0.2-10.4,0.6-20.2,0.8-29.2c0.1-4.5,0.3-8.8,0.4-12.7s0.3-7.7,0.4-11.1s0.2-6.5,0.3-9.1
		c0.1-1.3,0-2.7,0.7-3.7c0.6-0.8,1.4-1.6,2.1-2.3c0.6-0.6,1.2-1.2,1.8-1.8c0.4-0.5,0.7-1,1-1.5c0.2-0.3,0.3-0.7,0.4-1.1L479.6,204.7
		z"/>
	<path class="st7" d="M465.8,206.5c0,0-0.2-0.1-0.3-0.4s-0.2-0.5-0.1-0.5s0.2,0.1,0.3,0.4S465.9,206.5,465.8,206.5z"/>
	<path class="st7" d="M467.1,208c0,0-0.2-0.1-0.4-0.3s-0.3-0.4-0.3-0.4s0.2,0.1,0.4,0.3S467.1,208,467.1,208z"/>
	<path class="st7" d="M468.9,209.1c0,0-0.2,0-0.5-0.1s-0.4-0.3-0.4-0.3s0.2,0,0.5,0.1S468.9,209,468.9,209.1z"/>
	<path class="st7" d="M470.7,209.6c0,0-0.2,0-0.5,0s-0.5-0.1-0.5-0.2s0.2-0.1,0.5,0S470.7,209.5,470.7,209.6z"/>
	<path class="st7" d="M472.7,209.5c0,0.1-0.2,0.1-0.5,0.2s-0.5,0-0.5,0s0.2-0.1,0.5-0.1S472.7,209.5,472.7,209.5z"/>
	<path class="st7" d="M474.6,208.8c0,0-0.2,0.2-0.4,0.3s-0.5,0.2-0.5,0.1s0.2-0.2,0.4-0.3S474.6,208.8,474.6,208.8z"/>
	<path class="st7" d="M476.2,207.6c0,0-0.1,0.2-0.3,0.4s-0.4,0.3-0.5,0.2s0.1-0.2,0.3-0.4S476.2,207.6,476.2,207.6z"/>
	<path class="st7" d="M477.4,206.1c0,0,0,0.2-0.2,0.5s-0.3,0.4-0.4,0.4s0-0.2,0.2-0.5S477.4,206,477.4,206.1z"/>
	<path class="st7" d="M477.9,204.8c0,0,0.1,0.1,0,0.2s-0.1,0.2-0.2,0.1s-0.1-0.1,0-0.2S477.9,204.8,477.9,204.8z"/>
	<path class="st7" d="M471.8,213.4c-0.1,0-0.1-0.2-0.1-0.5s0.1-0.5,0.1-0.5s0.1,0.2,0.1,0.5S471.9,213.4,471.8,213.4z"/>
	<path class="st7" d="M471.7,215.4c-0.1,0-0.1-0.2-0.1-0.5s0.1-0.5,0.1-0.5s0.1,0.2,0.1,0.5S471.8,215.4,471.7,215.4z"/>
	<path class="st7" d="M471.6,217.4c0,0-0.1-0.2-0.1-0.5s0.1-0.5,0.1-0.5s0.1,0.2,0.1,0.5S471.7,217.4,471.6,217.4z"/>
	<path class="st7" d="M471.6,219.4c-0.1,0-0.1-0.2-0.1-0.5s0.1-0.5,0.1-0.5s0.1,0.2,0.1,0.5S471.6,219.4,471.6,219.4z"/>
	<path class="st7" d="M471.5,221.4c-0.1,0-0.1-0.2-0.1-0.5s0.1-0.5,0.1-0.5s0.1,0.2,0.1,0.5S471.6,221.4,471.5,221.4z"/>
	<path class="st7" d="M471.5,223.4c-0.1,0-0.1-0.2-0.1-0.5s0.1-0.5,0.1-0.5s0.1,0.2,0.1,0.5S471.5,223.4,471.5,223.4z"/>
	<path class="st7" d="M471.4,225.4c-0.1,0-0.1-0.2-0.1-0.5s0.1-0.5,0.1-0.5s0.1,0.2,0.1,0.5S471.5,225.4,471.4,225.4z"/>
	<path class="st7" d="M471.3,227.4c-0.1,0-0.1-0.2-0.1-0.5s0.1-0.5,0.1-0.5s0.1,0.2,0.1,0.5S471.4,227.4,471.3,227.4z"/>
	<path class="st7" d="M471.3,229.4c0,0-0.1-0.2-0.1-0.5s0.1-0.5,0.1-0.5s0.1,0.2,0.1,0.5S471.3,229.4,471.3,229.4z"/>
	<path class="st7" d="M471.2,231.4c-0.1,0-0.1-0.2-0.1-0.5s0.1-0.5,0.1-0.5s0.1,0.2,0.1,0.5S471.3,231.4,471.2,231.4z"/>
	<path class="st7" d="M471.2,233.4c0,0-0.1-0.2-0.1-0.5s0.1-0.5,0.1-0.5s0.1,0.2,0.1,0.5S471.2,233.4,471.2,233.4z"/>
	<path class="st7" d="M471.1,235.4c-0.1,0-0.1-0.2-0.1-0.5s0.1-0.5,0.1-0.5s0.1,0.2,0.1,0.5S471.2,235.4,471.1,235.4z"/>
	<path class="st7" d="M471.1,237.4c-0.1,0-0.1-0.2-0.1-0.5s0.1-0.5,0.1-0.5s0.1,0.2,0.1,0.5S471.1,237.4,471.1,237.4z"/>
	<path class="st7" d="M471,239.4c-0.1,0-0.1-0.2-0.1-0.5s0-0.5,0.1-0.5s0.1,0.2,0.1,0.5S471.1,239.4,471,239.4z"/>
	<path class="st7" d="M471,241.4c-0.1,0-0.1-0.2-0.1-0.5s0.1-0.5,0.1-0.5s0.1,0.2,0.1,0.5S471,241.5,471,241.4z"/>
	<path class="st7" d="M470.9,243.5c-0.1,0-0.1-0.2-0.1-0.5s0-0.5,0.1-0.5s0.1,0.2,0.1,0.5S471,243.5,470.9,243.5z"/>
	<path class="st7" d="M470.9,245.5c-0.1,0-0.1-0.2-0.1-0.5s0.1-0.5,0.1-0.5s0.1,0.2,0.1,0.5S470.9,245.5,470.9,245.5z"/>
	<path class="st7" d="M470.9,247.5c0,0-0.1-0.2-0.1-0.5s0.1-0.5,0.1-0.5s0.1,0.2,0.1,0.5S470.9,247.5,470.9,247.5z"/>
	<path class="st7" d="M470.8,249.5c-0.1,0-0.1-0.2-0.1-0.5s0.1-0.5,0.1-0.5s0.1,0.2,0.1,0.5S470.9,249.5,470.8,249.5z"/>
	<path class="st7" d="M470.7,251.5c-0.1,0-0.1-0.2-0.1-0.5s0.1-0.5,0.1-0.5s0.1,0.2,0.1,0.5S470.8,251.5,470.7,251.5z"/>
	<path class="st7" d="M470.7,253.5c-0.1,0-0.1-0.2-0.1-0.5s0.1-0.5,0.1-0.5s0.1,0.2,0.1,0.5S470.7,253.5,470.7,253.5z"/>
	<path class="st7" d="M470.6,255.5c0,0-0.1-0.2-0.1-0.5s0.1-0.5,0.1-0.5s0.1,0.2,0.1,0.5S470.7,255.5,470.6,255.5z"/>
	<path class="st7" d="M470.6,257.5c-0.1,0-0.1-0.2-0.1-0.5s0-0.5,0.1-0.5s0.1,0.2,0.1,0.5S470.7,257.5,470.6,257.5z"/>
	<path class="st7" d="M470.6,259.5c-0.1,0-0.1-0.2-0.1-0.5s0.1-0.5,0.1-0.5s0.1,0.2,0.1,0.5S470.6,259.5,470.6,259.5z"/>
	<path class="st7" d="M470.5,261.5c-0.1,0-0.1-0.2-0.1-0.5s0.1-0.5,0.1-0.5s0.1,0.2,0.1,0.5S470.6,261.5,470.5,261.5z"/>
	<path class="st7" d="M470.5,263.5c0,0-0.1-0.2-0.1-0.5s0.1-0.5,0.1-0.5s0.1,0.2,0.1,0.5S470.5,263.5,470.5,263.5z"/>
	<path class="st7" d="M470.4,265.5c0,0-0.1-0.2-0.1-0.5s0.1-0.5,0.1-0.5s0.1,0.2,0.1,0.5S470.5,265.5,470.4,265.5z"/>
	<path class="st7" d="M470.4,267.5c0,0-0.1-0.2-0.1-0.5s0.1-0.5,0.1-0.5s0.1,0.2,0.1,0.5S470.4,267.5,470.4,267.5z"/>
	<path class="st7" d="M470.4,269.5c0,0-0.1-0.2-0.1-0.5s0.1-0.5,0.1-0.5s0.1,0.2,0.1,0.5S470.4,269.5,470.4,269.5z"/>
	<path class="st7" d="M470.3,271.5c-0.1,0-0.1-0.2-0.1-0.5s0.1-0.5,0.1-0.5s0.1,0.2,0.1,0.5S470.4,271.5,470.3,271.5z"/>
	<path class="st7" d="M470.3,273.5c-0.1,0-0.1-0.2-0.1-0.5s0.1-0.5,0.1-0.5s0.1,0.2,0.1,0.5S470.3,273.5,470.3,273.5z"/>
	<path class="st7" d="M470.2,275.5c-0.1,0-0.1-0.2-0.1-0.5s0.1-0.5,0.1-0.5s0.1,0.2,0.1,0.5S470.3,275.5,470.2,275.5z"/>
	<path class="st7" d="M470.2,277.5c-0.1,0-0.1-0.2-0.1-0.5s0-0.5,0.1-0.5s0.1,0.2,0.1,0.5S470.3,277.5,470.2,277.5z"/>
	<path class="st7" d="M470.2,279.5c0,0-0.1-0.2-0.1-0.5s0-0.5,0.1-0.5s0.1,0.2,0.1,0.5S470.2,279.5,470.2,279.5z"/>
	<path class="st7" d="M470.1,281.6c-0.1,0-0.1-0.2-0.1-0.5s0.1-0.5,0.1-0.5s0.1,0.2,0.1,0.5S470.2,281.6,470.1,281.6z"/>
	<path class="st7" d="M470.1,283.6c-0.1,0-0.1-0.2-0.1-0.5s0.1-0.5,0.1-0.5s0.1,0.2,0.1,0.5S470.1,283.6,470.1,283.6z"/>
	<path class="st7" d="M470.1,285.6c-0.1,0-0.1-0.2-0.1-0.5s0-0.5,0.1-0.5s0.1,0.2,0.1,0.5S470.1,285.6,470.1,285.6z"/>
	<path class="st7" d="M470,287.6c-0.1,0-0.1-0.2-0.1-0.5s0.1-0.5,0.1-0.5s0.1,0.2,0.1,0.5S470.1,287.6,470,287.6z"/>
	<path class="st7" d="M470,289.6c-0.1,0-0.1-0.2-0.1-0.5s0.1-0.5,0.1-0.5s0.1,0.2,0.1,0.5S470,289.6,470,289.6z"/>
	<path class="st7" d="M469.9,291.6c-0.1,0-0.1-0.2-0.1-0.5s0-0.5,0.1-0.5s0.1,0.2,0.1,0.5S470,291.6,469.9,291.6z"/>
	<path class="st7" d="M469.9,293.6c-0.1,0-0.1-0.2-0.1-0.5s0.1-0.5,0.1-0.5s0.1,0.2,0.1,0.5S470,293.6,469.9,293.6z"/>
	<path class="st7" d="M469.9,295.6c-0.1,0-0.1-0.2-0.1-0.5s0.1-0.5,0.1-0.5s0.1,0.2,0.1,0.5S469.9,295.6,469.9,295.6z"/>
	<path class="st7" d="M469.9,297.6c-0.1,0-0.1-0.2-0.1-0.5s0-0.5,0.1-0.5s0.1,0.2,0.1,0.5S469.9,297.6,469.9,297.6z"/>
	<path class="st7" d="M469.8,299.6c0,0-0.1-0.2-0.1-0.5s0.1-0.5,0.1-0.5s0.1,0.2,0.1,0.5S469.9,299.6,469.8,299.6z"/>
	<path class="st7" d="M469.8,301.6c-0.1,0-0.1-0.2-0.1-0.5s0.1-0.5,0.1-0.5s0.1,0.2,0.1,0.5S469.9,301.6,469.8,301.6z"/>
	<path class="st7" d="M469.7,303.6c-0.1,0-0.1-0.2-0.1-0.5s0-0.5,0.1-0.5s0.1,0.2,0.1,0.5S469.8,303.6,469.7,303.6z"/>
	<path class="st7" d="M469.7,305.6c0,0-0.1-0.2-0.1-0.5s0-0.5,0.1-0.5s0.1,0.2,0.1,0.5S469.7,305.6,469.7,305.6z"/>
	<path class="st7" d="M469.6,307.6c-0.1,0-0.1-0.2-0.1-0.5s0.1-0.5,0.1-0.5s0.1,0.2,0.1,0.5S469.7,307.6,469.6,307.6z"/>
	<path class="st7" d="M469.6,309.6c-0.1,0-0.1-0.2-0.1-0.5s0.1-0.5,0.1-0.5s0.1,0.2,0.1,0.5S469.7,309.6,469.6,309.6z"/>
	<path class="st7" d="M469.6,311.6c-0.1,0-0.1-0.2-0.1-0.5s0.1-0.5,0.1-0.5s0.1,0.2,0.1,0.5S469.6,311.6,469.6,311.6z"/>
	<path class="st7" d="M469.5,313.6c-0.1,0-0.1-0.2-0.1-0.5s0-0.5,0.1-0.5s0.1,0.2,0.1,0.5S469.6,313.6,469.5,313.6z"/>
	<path class="st7" d="M469.5,315.6c-0.1,0-0.1-0.2-0.1-0.5s0-0.5,0.1-0.5s0.1,0.2,0.1,0.5S469.6,315.6,469.5,315.6z"/>
	<path class="st7" d="M469.4,317.6c-0.1,0-0.1-0.2-0.1-0.5s0-0.5,0.1-0.5s0.1,0.2,0.1,0.5S469.5,317.6,469.4,317.6z"/>
	<path class="st7" d="M469.4,319.7c-0.1,0-0.1-0.2-0.1-0.5s0-0.5,0.1-0.5s0.1,0.2,0.1,0.5S469.5,319.7,469.4,319.7z"/>
	<path class="st7" d="M469.4,321.7c-0.1,0-0.1-0.2-0.1-0.5s0-0.5,0.1-0.5s0.1,0.2,0.1,0.5S469.4,321.7,469.4,321.7z"/>
	<path class="st7" d="M469.3,323.7c-0.1,0-0.1-0.2-0.1-0.5s0.1-0.5,0.1-0.5s0.1,0.2,0.1,0.5S469.4,323.7,469.3,323.7z"/>
	<path class="st7" d="M469.3,325.7c-0.1,0-0.1-0.2-0.1-0.5s0.1-0.5,0.1-0.5s0.1,0.2,0.1,0.5S469.3,325.7,469.3,325.7z"/>
	<path class="st7" d="M469.2,327.7c0,0-0.1-0.2-0.1-0.5s0.1-0.5,0.1-0.5s0.1,0.2,0.1,0.5S469.3,327.7,469.2,327.7z"/>
	<path class="st7" d="M469.2,329.7c-0.1,0-0.1-0.2-0.1-0.5s0-0.5,0.1-0.5s0.1,0.2,0.1,0.5S469.3,329.7,469.2,329.7z"/>
	<path class="st7" d="M469.2,331.7c-0.1,0-0.1-0.2-0.1-0.5s0.1-0.5,0.1-0.5s0.1,0.2,0.1,0.5S469.2,331.7,469.2,331.7z"/>
	<path class="st7" d="M469.1,333.7c-0.1,0-0.1-0.2-0.1-0.5s0.1-0.5,0.1-0.5s0.1,0.2,0.1,0.5S469.2,333.7,469.1,333.7z"/>
	<path class="st7" d="M469.1,335.7c-0.1,0-0.1-0.2-0.1-0.5s0.1-0.5,0.1-0.5s0.1,0.2,0.1,0.5S469.1,335.7,469.1,335.7z"/>
	<path class="st7" d="M469,337.7c-0.1,0-0.1-0.2-0.1-0.5s0-0.5,0.1-0.5s0.1,0.2,0.1,0.5S469.1,337.7,469,337.7z"/>
	<path class="st7" d="M469,339.7c-0.1,0-0.1-0.2-0.1-0.5s0.1-0.5,0.1-0.5s0.1,0.2,0.1,0.5S469,339.7,469,339.7z"/>
	<path class="st7" d="M468.9,341.7c-0.1,0-0.1-0.2-0.1-0.5s0.1-0.5,0.1-0.5s0.1,0.2,0.1,0.5S469,341.7,468.9,341.7z"/>
	<path class="st7" d="M468.9,343.7c-0.1,0-0.1-0.2-0.1-0.5s0.1-0.5,0.1-0.5s0.1,0.2,0.1,0.5S468.9,343.7,468.9,343.7z"/>
	<path class="st7" d="M468.9,345.7c-0.1,0-0.1-0.2-0.1-0.5s0.1-0.5,0.1-0.5s0.1,0.2,0.1,0.5S468.9,345.7,468.9,345.7z"/>
	<path class="st7" d="M468.8,347.7c-0.1,0-0.1-0.2-0.1-0.5s0.1-0.5,0.1-0.5s0.1,0.2,0.1,0.5S468.9,347.7,468.8,347.7z"/>
	<path class="st7" d="M468.7,349.7c-0.1,0-0.1-0.2-0.1-0.5s0.1-0.5,0.1-0.5s0.1,0.2,0.1,0.5S468.8,349.7,468.7,349.7z"/>
	<path class="st7" d="M468.7,351.6c-0.1,0-0.1-0.2-0.1-0.5s0.1-0.5,0.1-0.5s0.1,0.2,0.1,0.5S468.7,351.6,468.7,351.6z"/>
	<path class="st8" d="M467,122.1c-0.1-2-0.7-10.9-0.7-10.9s-6.3-0.4-6.9-6.6s-0.9-20.4-0.9-20.4l0,0c6.9-3.7,15.2-3.5,21.9,0.6
		l1.6,1l0.2,7.2l-0.4,6.5l-0.3,17.7L467,122.1C467.1,122.1,467,122.1,467,122.1z"/>
	<path class="st0" d="M459.5,94.1c0,0.4,0.4,0.8,0.8,0.8c0,0,0,0,0,0c0.4,0,0.8-0.4,0.8-0.8c0-0.4-0.4-0.8-0.8-0.8
		C459.8,93.3,459.5,93.7,459.5,94.1z"/>
	<path class="st0" d="M459.5,93.8c0.1,0.1,0.7-0.4,1.5-0.5s1.5,0.3,1.6,0.2s-0.1-0.2-0.4-0.4c-0.4-0.2-0.8-0.3-1.3-0.3
		c-0.4,0-0.9,0.2-1.2,0.5C459.5,93.6,459.4,93.8,459.5,93.8z"/>
	<path class="st0" d="M469.2,93.1c-0.3,0.3-0.4,0.7-0.2,1.1c0,0,0,0,0,0c0.3,0.3,0.8,0.4,1.1,0.2c0.3-0.3,0.4-0.8,0.1-1.1
		C470,92.9,469.5,92.8,469.2,93.1L469.2,93.1L469.2,93.1z"/>
	<path class="st0" d="M468.9,93.4c0.1,0.1,0.7-0.4,1.5-0.5s1.5,0.3,1.6,0.2s-0.1-0.2-0.4-0.4c-0.4-0.2-0.8-0.3-1.3-0.3
		c-0.4,0-0.9,0.2-1.2,0.5C468.9,93.2,468.9,93.4,468.9,93.4z"/>
	<path class="st0" d="M466.1,100.8c-0.5,0.1-0.9,0.2-1.4,0.2c-0.3,0.1-0.6-0.1-0.8-0.3c-0.1-0.3-0.1-0.6,0-0.9
		c0.2-0.6,0.3-1.2,0.5-1.8c0.3-1.6,0.8-3.1,1.5-4.6c-0.2,1.6-0.6,3.1-1,4.7c-0.2,0.6-0.3,1.2-0.5,1.8c-0.1,0.2-0.1,0.4-0.1,0.7
		c0,0.1,0.2,0.2,0.4,0.2C465.2,100.6,465.7,100.7,466.1,100.8z"/>
	<path class="st3" d="M469,101.4c0.8-0.6-2.3,1.5-4.1,1.6c0.7,0.9,1.9,1.2,2.9,0.7C469.6,102.9,469,101.4,469,101.4z"/>
	<path class="st9" d="M466.4,111.3c2.9-0.3,5.7-1.3,8.1-3.1c0,0-1.7,4.6-7.9,4.6L466.4,111.3z"/>
	<path class="st0" d="M478.7,80.6c-1.7-1.5-3.6-2.7-5.7-3.6c-2.1-0.9-4.5-1-6.6-0.1c-0.9,0.4-1.8,1.1-2.7,1.5
		c-2,0.8-4.5,0.2-6.3,1.5c-1.6,1.3-2,3.6-1,5.4c1,1.7,2.8,2.9,4.9,3.1c2,0.2,4-0.1,5.9-0.9c1-0.5,2.3-0.7,3.4-0.4
		c1,0.4,1.8,1.6,2.9,1.6s2.1-0.6,2.8,0c0.3,0.3,0.4,0.7,0.5,1.1c0.4,2.1,1.6,6.4,2,8.6c1.4,0.6,2.1-1.3,3.6-1.3
		c0.2-4.7,2.3-9.4,1.1-14c-0.2-1.2-0.9-2.2-1.8-2.9c-1-0.7-2.3-0.5-3.1,0.4"/>
	<path class="st8" d="M479.7,92.1c0.1-0.1,4.1-1.6,4.8,3.4s-4.5,4.1-4.6,3.9S479.7,92.1,479.7,92.1z"/>
	<path class="st9" d="M481.2,97.5c0,0,0.1,0.1,0.2,0.1c0.2,0.1,0.5,0,0.7-0.1c0.6-0.5,0.9-1.3,0.7-2.1c-0.1-0.4-0.2-0.8-0.4-1.2
		c-0.1-0.3-0.4-0.5-0.8-0.6c-0.2,0-0.4,0.1-0.5,0.3c0,0.1,0,0.2,0,0.3s-0.1-0.1-0.1-0.3c0-0.1,0.1-0.2,0.2-0.3
		c0.1-0.1,0.3-0.2,0.5-0.2c0.4,0,0.8,0.3,1,0.6c0.3,0.4,0.4,0.9,0.5,1.3c0.2,0.9-0.2,1.8-1,2.3c-0.3,0.1-0.6,0.1-0.8,0
		C481.3,97.6,481.2,97.5,481.2,97.5z"/>
	<path class="st0" d="M477.7,77.3c0.1,0,0.4,0.8,0.7,1.8s0.3,1.9,0.2,1.9s-0.5-0.8-0.7-1.8S477.5,77.3,477.7,77.3z"/>
	<path class="st0" d="M479.9,77.5c0.1,0-0.1,0.9-0.5,1.8s-0.8,1.7-1,1.6s0.1-0.9,0.5-1.8S479.7,77.4,479.9,77.5z"/>
	<path class="st8" d="M467.8,156.1c-0.3,1.4-0.9,2.7-1.8,3.9c-2.8,3.1-27.4-23.6-27.4-23.6c-0.2-1.7-0.3-3.5-0.2-5.2
		c0.2-1.1,0.6-2.3,1.1-3.3c0.6-0.9-0.3-2-1.2-1.7s-2.5,2.8-2.9,6.3c-0.4,3.4-4-0.8-5.1-2.5s-4.8-6.6-5.6-6.7
		c-1.1-0.1-1.2,1.3-0.1,2.9s4.3,6.4,3.9,6.7c-0.8,0.6-6.6-7.8-6.6-7.8s-0.9-1.7-2-1.2c-1.9,1,4.5,9.6,5.1,10.4
		c0.4,0.6-0.2,0.8-0.6,0.1c-0.4-0.6-5.6-7.9-6.9-7c-1.4,0.9,4.3,7,5,8.7c0.9,2-4.6-5.3-6-4.5c-0.5,0.3-0.9,0.6,2.4,4.5
		c3.3,3.6,6.9,7,10.6,10.1c7,8.3,31.1,35.9,42.4,34.3c2.6-0.3,4.8-1.7,6.2-3.9c3-4.7,5.6-9.6,7.7-14.8L467.8,156.1z"/>
</g>
<g id="freepik--character-1--inject-499">
	<path class="st1" d="M202.4,357.5l-0.2-9.2l-17.2,0.3l0.2,13.4l1.1,0c4.8,0.2,24.1,0.6,27.3-0.4C217,360.5,202.4,357.5,202.4,357.5
		z"/>
	<path class="st0" d="M191.3,361.8c-0.3-1.4-1.1-2.7-2.3-3.6c-1.1-0.9-2.6-1.3-4-1.2l0.1,4.8H191.3z"/>
	<path class="st0" d="M209.5,359.2c0,0,5.1,1.4,4.5,2.2s-20.2,1.2-28.9,0.6v-0.4l22.9-0.2C208,361.4,208.5,359.2,209.5,359.2z"/>
	<path class="st7" d="M184.9,361.6h4.3c2.6,0,6.3,0,10.3-0.1s7.7-0.2,10.3-0.3l3.1-0.1h0.9c0.1,0,0.2,0,0.3,0h-0.3l-0.9,0.1
		l-3.1,0.2c-2.6,0.1-6.3,0.3-10.3,0.3s-7.7,0-10.3,0l-3.1-0.1h-0.9L184.9,361.6z"/>
	<path class="st7" d="M208,361.7c-0.1-0.6,0.1-1.1,0.4-1.6c0.3-0.5,0.7-0.9,1.2-1.1c-0.4,0.4-0.7,0.8-1,1.2
		C208.4,360.7,208.2,361.2,208,361.7z"/>
	<path class="st7" d="M202.9,359.2c0,0,0.1-0.4,0.4-0.8s0.5-0.7,0.5-0.7s-0.1,0.4-0.4,0.8S203,359.2,202.9,359.2z"/>
	<path class="st7" d="M201.5,358.5c0,0,0.2-0.3,0.5-0.6s0.6-0.5,0.6-0.4s-0.2,0.3-0.5,0.6S201.6,358.5,201.5,358.5z"/>
	<path class="st7" d="M200.6,356.9c0.3-0.1,0.6-0.1,0.9-0.1c0.3,0,0.6,0,0.9,0.1c-0.3,0.1-0.6,0.1-0.9,0.1
		C201.2,357,200.9,357,200.6,356.9z"/>
	<path class="st7" d="M200.3,355.8c0.3,0,0.7,0,1,0.1c0.3,0,0.7,0,1,0c-0.3,0.2-0.7,0.2-1,0.2C200.9,356.1,200.6,356,200.3,355.8z"
		/>
	<path class="st7" d="M203.5,357.7c0,0,0.4,0,1.1-0.2c0.4-0.1,0.8-0.2,1.1-0.3c0.2-0.1,0.4-0.2,0.6-0.3c0.2-0.1,0.3-0.3,0.1-0.5
		c-0.4-0.2-0.9-0.2-1.3-0.1c-0.4,0.1-0.7,0.3-0.9,0.6c-0.2,0.3-0.4,0.6-0.5,1c0-0.1,0-0.2,0-0.3c0.1-0.3,0.2-0.5,0.4-0.7
		c0.6-0.8,1.6-1.1,2.5-0.6c0.1,0.1,0.2,0.3,0.2,0.4c0,0.1-0.1,0.3-0.3,0.4c-0.2,0.1-0.4,0.2-0.7,0.3c-0.4,0.1-0.8,0.2-1.2,0.3
		C204.2,357.7,203.8,357.7,203.5,357.7z"/>
	<path class="st7" d="M203.8,357.8c0-0.2,0-0.5,0-0.7c-0.1-0.3-0.2-0.5-0.3-0.7c-0.2-0.2-0.5-0.5-0.7-0.5s-0.2,0.5,0,0.7
		c0.1,0.2,0.3,0.5,0.5,0.7C203.5,357.6,203.7,357.8,203.8,357.8c-0.3-0.1-0.5-0.3-0.7-0.4c-0.2-0.2-0.4-0.4-0.5-0.7
		c-0.1-0.1-0.2-0.3-0.2-0.5c0-0.2,0.1-0.5,0.3-0.5c0.4,0,0.7,0.2,0.9,0.5c0.2,0.2,0.3,0.5,0.3,0.8
		C204,357.3,203.9,357.6,203.8,357.8z"/>
	<path class="st7" d="M185.1,356.9c0,0,0.1,0,0.3-0.1c0.3,0,0.6,0,1,0c1.1,0.1,2.1,0.4,2.9,1.1c0.8,0.6,1.5,1.5,1.8,2.5
		c0.1,0.3,0.2,0.6,0.2,0.9c0,0.1,0,0.2,0,0.4c0,0-0.1-0.5-0.4-1.2c-0.7-2-2.5-3.3-4.6-3.5C186,356.9,185.6,356.9,185.1,356.9z"/>
	<path class="st7" d="M186.9,349.7c0.1,1.2,0.1,2.4,0.1,3.5c0,1.2,0,2.4-0.1,3.5c-0.1-1.2-0.2-2.4-0.1-3.5
		C186.7,352.1,186.7,350.9,186.9,349.7z"/>
	<path class="st7" d="M193.5,360.1c0-0.1,1.1,0,2.5,0s2.5-0.1,2.5,0c-0.8,0.2-1.7,0.3-2.5,0.2C195.2,360.3,194.3,360.2,193.5,360.1z
		"/>
	<path class="st7" d="M190.1,360.1c0,0,0.3,0.1,0.4,0.4s0.1,0.6,0.1,0.6s-0.1-0.2-0.2-0.5S190.1,360.1,190.1,360.1z"/>
	<path class="st7" d="M188.9,358.5c0,0,0.2,0.1,0.4,0.2s0.3,0.4,0.3,0.4s-0.2-0.1-0.4-0.2S188.8,358.6,188.9,358.5z"/>
	<path class="st7" d="M187,357.9c0,0,0.2-0.2,0.5-0.1s0.5,0.3,0.4,0.4s-0.2-0.1-0.5-0.2S187,357.9,187,357.9z"/>
	<path class="st7" d="M185.7,357.5c0,0,0.1,0,0.3,0s0.2,0.1,0.2,0.2s-0.2,0.1-0.3,0S185.7,357.6,185.7,357.5z"/>
	<path class="st8" d="M262.6,100.1c0,0,14.7-15.1,16-14.5s-5.4,6.8-4.5,7.6s8,6.2-3.4,14.7L262.6,100.1z"/>
	<path class="st9" d="M275.2,95.7c-0.1,0.2-0.1,0.3-0.2,0.4c-0.2,0.4-0.5,0.8-0.7,1.2s-0.7,1.1-1.1,1.7c-0.2,0.4-0.5,0.7-0.9,0.9
		c-0.4,0.2-1,0.2-1.3-0.2c-0.3-0.4-0.2-0.9,0.1-1.3c0.2-0.4,0.4-0.7,0.6-1c0.4-0.6,0.8-1.1,1.1-1.7l0.8-1.1c0.1-0.1,0.2-0.3,0.3-0.4
		c-0.1,0.2-0.1,0.3-0.2,0.4l-0.7,1.2c-0.4,0.6-0.7,1.1-1.1,1.7l-0.6,1c-0.2,0.3-0.3,0.7-0.1,1.1c0.3,0.2,0.7,0.3,1,0.1
		c0.3-0.2,0.6-0.5,0.8-0.8l1.1-1.7l0.8-1.1C274.9,95.9,275,95.8,275.2,95.7z"/>
	<path class="st9" d="M275.9,97.3c0,0.1,0,0.3-0.1,0.4c-0.1,0.4-0.2,0.8-0.4,1.1c-0.2,0.5-0.6,1-1,1.5c-0.2,0.3-0.5,0.5-0.8,0.7
		c-0.4,0.2-0.8,0.2-1.1-0.1c-0.3-0.3-0.3-0.8-0.1-1.2c0.1-0.3,0.3-0.6,0.5-0.9c0.4-0.5,0.7-1,0.9-1.5c0.2-0.3,0.4-0.7,0.6-1
		c0.1-0.1,0.2-0.2,0.3-0.3c-0.1,0.1-0.1,0.3-0.2,0.4c-0.2,0.3-0.4,0.7-0.6,1s-0.5,0.9-0.9,1.5c-0.2,0.3-0.4,0.6-0.5,0.9
		c-0.1,0.3-0.1,0.7,0.1,0.9c0.3,0.2,0.6,0.2,0.9,0.1c0.3-0.2,0.6-0.4,0.8-0.6c0.4-0.4,0.7-0.9,1-1.4
		C275.6,98.3,275.8,97.8,275.9,97.3z"/>
	<path class="st8" d="M267.1,97l5.4-0.4c0.1,0,0.2,0,0.3,0c0.3,0.1,0.3,0.5,0.3,0.8c-0.3,0.9-1,1.7-1.9,2c-0.9,0.3-1.8,0.5-2.8,0.5
		l-2.6,0.1"/>
	<path class="st9" d="M265.9,100c0.2,0,0.4-0.1,0.6-0.1l1.6-0.1c0.8,0,1.6-0.1,2.3-0.3c0.9-0.2,1.8-0.7,2.3-1.4
		c0.2-0.4,0.5-0.9,0.2-1.3c-0.1-0.2-0.3-0.1-0.6-0.1l-0.7,0.1l-2.3,0.1l-1.6,0.1c-0.2,0-0.4,0-0.6,0c0.2,0,0.4-0.1,0.6-0.1l1.6-0.1
		l2.3-0.2h0.7c0.1,0,0.2,0,0.4,0c0.2,0,0.3,0.1,0.4,0.2c0.1,0.2,0.2,0.5,0.1,0.8c-0.1,0.3-0.2,0.5-0.3,0.7c-0.6,0.8-1.5,1.3-2.5,1.5
		c-0.8,0.1-1.6,0.2-2.4,0.2l-1.6,0.1C266.2,100.1,266,100,265.9,100z"/>
	<path class="st9" d="M276.9,98.8c0,0,0,0.1-0.1,0.3c-0.1,0.3-0.2,0.6-0.3,0.9c-0.1,0.5-0.3,0.9-0.5,1.3c-0.2,0.2-0.4,0.5-0.6,0.6
		c-0.1,0.1-0.3,0.1-0.5,0.1c-0.2,0-0.3-0.1-0.4-0.3c-0.2-0.3-0.2-0.6-0.1-0.9c0.1-0.3,0.2-0.5,0.3-0.8l0.6-1.3
		c0.2-0.4,0.4-0.8,0.6-1.1c-0.1,0.4-0.3,0.8-0.4,1.2l-0.5,1.3c-0.2,0.5-0.6,1-0.3,1.5c0.1,0.2,0.4,0.3,0.6,0.1c0,0,0,0,0.1,0
		c0.2-0.1,0.4-0.3,0.5-0.5c0.2-0.4,0.4-0.8,0.5-1.3C276.4,99.5,276.6,99.1,276.9,98.8z"/>
	<path class="st9" d="M270,104.3c-0.1,0,0.2-1,0.3-2.3s-0.1-2.3,0-2.3c0.2,0.8,0.3,1.5,0.2,2.3C270.5,102.8,270.3,103.6,270,104.3z"
		/>
	<path class="st0" d="M200.3,95c0,4,2.1,7.6,5.4,9.7c0.9,0.5,1.8,1,2.7,1.6c0.9,0.6,1.4,1.6,1.5,2.6c-0.1,1.6-1.7,2.7-3.2,3.4
		c1.6,1.5,1.7,4.1,0.2,5.7c-1.5,1.6-4.1,1.7-5.7,0.2c-0.1-0.1-0.2-0.2-0.3-0.3c-0.3,3.1-2.4,5.8-5.5,6.6c-3,0.7-6.2,0.1-8.7-1.8
		c-2.4-1.9-4.4-4.4-5.5-7.2"/>
	<path class="st8" d="M192.9,123.6c-0.3-1.5,0.4-8,0.4-8s5.9-0.6,6.3-6.5s0-19.5,0-19.5l-10.8-5.3l-11.9,9l1.8,29.4L192.9,123.6z"/>
	<path class="st0" d="M198.3,99.5c0,0.4-0.3,0.8-0.8,0.8s-0.8-0.3-0.8-0.8s0.3-0.8,0.8-0.8S198.3,99.1,198.3,99.5z"/>
	<path class="st0" d="M199.1,98.7c-0.1,0.1-0.6-0.4-1.5-0.4s-1.4,0.4-1.5,0.2s0.1-0.2,0.3-0.4c0.4-0.2,0.8-0.3,1.2-0.3
		c0.4,0,0.8,0.2,1.2,0.5C199,98.5,199.1,98.6,199.1,98.7z"/>
	<path class="st0" d="M189.6,99.5c0,0.4-0.3,0.8-0.7,0.8c-0.4,0-0.8-0.3-0.8-0.7c0-0.4,0.3-0.8,0.7-0.8c0,0,0,0,0,0
		C189.3,98.8,189.6,99.1,189.6,99.5z"/>
	<path class="st0" d="M190.1,98.7c-0.1,0.1-0.7-0.4-1.5-0.4s-1.4,0.4-1.5,0.2s0.1-0.2,0.3-0.4c0.4-0.2,0.8-0.3,1.2-0.3
		c0.4,0,0.8,0.2,1.2,0.5C190.1,98.5,190.1,98.6,190.1,98.7z"/>
	<path class="st0" d="M193,105.5c0.4-0.1,0.9-0.2,1.3-0.2c0.2,0,0.4,0,0.5-0.2c0-0.2,0-0.5-0.1-0.6l-0.5-1.7c-0.4-1.2-0.7-2.3-1-3.1
		c-0.1-0.4-0.2-0.9-0.3-1.3c0.2,0.4,0.4,0.8,0.5,1.2c0.3,0.8,0.6,1.8,1,3c0.2,0.6,0.4,1.1,0.5,1.7c0.1,0.3,0.1,0.6,0.1,0.8
		c-0.1,0.2-0.4,0.4-0.7,0.3C193.9,105.5,193.4,105.5,193,105.5z"/>
	<path class="st3" d="M190.3,106.3c-0.8-0.6,2.3,1.4,3.9,1.4c-0.6,0.8-1.7,1.2-2.7,0.8C189.9,107.7,190.3,106.3,190.3,106.3z"/>
	<path class="st9" d="M193.2,115.6c-2.8-0.1-5.5-1-7.8-2.6c0,0,1.8,4.3,7.7,4.1L193.2,115.6z"/>
	<path class="st0" d="M197.1,85.3c-5.8-6.1-9.8-4.8-12.1-4.8c-5.1,0.6-9.7,3.2-12.7,7.4l0,0c-1.6,1.7-4,7.2-4.2,9.1
		c-0.1,2-0.1,3.9,0,5.9c0,2-0.5,4.1-1.9,5.4c-0.9,0.8-2.2,1.3-2.8,2.4c-0.5,1.4,0,3,1.3,3.8c1.3,0.7,2.7,1,4.2,0.9
		c-0.2,3,1.8,5.7,4.8,6.3c1.5,0.2,3-0.2,4.2-1.1c1,1,2,1.9,3.1,2.7c0.2-8.6,0.1-17.1-0.5-25.7c3.9-0.7,11-2.8,12.2-9.1
		c1.6,3.6,4,5.5,7.1,8.2C199.7,96.7,202.9,91.3,197.1,85.3z"/>
	<path class="st0" d="M180.9,95.3c0.8-0.1,1.6-0.1,2.4,0c1.9,0.2,3.8,0,5.6-0.7c0.9-0.4,1.8-1,2.3-1.9c0.5-0.7,0.8-1.5,0.9-2.3
		c0.3-1.4,0.1-2.4,0.2-2.4c0.3,0.8,0.3,1.6,0.1,2.4c-0.1,0.9-0.4,1.8-0.9,2.5c-0.6,0.9-1.5,1.7-2.5,2.1c-1.9,0.7-3.9,0.9-5.8,0.5
		C182.4,95.6,181.6,95.5,180.9,95.3z"/>
	<path class="st0" d="M165.5,109.7c0.3,0,0.7-0.1,1-0.1c0.8-0.3,1.4-1,1.6-1.9c0.2-1.3-0.1-2.6-0.7-3.8c-0.3-0.7-0.6-1.5-0.8-2.3
		c-0.2-0.9-0.3-1.8-0.2-2.6c0.2-1.7,0.8-3.3,1.8-4.7c0.8-1.1,1.7-2.2,2.6-3.1c0.8-0.8,1.6-1.4,2.1-1.8c0.2-0.2,0.5-0.4,0.8-0.6
		c0.1,0.1-1,1-2.6,2.7c-0.9,1-1.8,2-2.5,3.1c-0.9,1.4-1.4,2.9-1.6,4.5c-0.1,0.8,0,1.7,0.1,2.5c0.2,0.8,0.5,1.5,0.8,2.2
		c0.6,1.3,0.9,2.7,0.6,4.1c-0.2,1-1,1.7-1.9,2c-0.3,0.1-0.5,0.1-0.8,0C165.7,109.7,165.6,109.7,165.5,109.7z"/>
	<path class="st0" d="M208.2,101.3c0,0,0.2,0.2,0.2,0.7c0,0.7-0.4,1.3-1,1.7c-0.9,0.5-2,0.5-3,0c-1.1-0.6-1.9-1.5-2.5-2.6
		c-1.1-1.9-1.8-3.9-2.1-6.1c-0.1-0.9-0.1-1.8,0-2.7c0.1,0,0.1,1,0.4,2.6c0.4,2.1,1.1,4.1,2.1,5.9c0.5,1,1.3,1.8,2.3,2.4
		c0.8,0.5,1.7,0.5,2.5,0.1c0.5-0.3,0.9-0.8,1-1.4C208.3,101.5,208.2,101.3,208.2,101.3z"/>
	<path class="st0" d="M199.1,193.8c0,0,20,65.1,18.8,86.1S202,353.1,202,353.1L199.1,193.8z"/>
	<path class="st0" d="M170.9,182.7c-0.4-0.1-9.2,12.8-9.5,23.9c0,1.1,0,2.2,0.1,3.3c0.4,3.9,1.3,7.7,2.8,11.3
		c7.4,18.8,15.1,41,15.2,46.1c0.4,15.6,3.4,87.5,3.4,87.5l21.6-1.5l-0.7-85.9l-5.3-85.3L170.9,182.7z"/>
	<path class="st7" d="M182.6,182.3c0.1,0,0.2,2.4,0.2,6.8s-0.2,10.7,0.1,18.5c0.1,2,0.1,4,0.3,6.1s0.3,4.3,0.6,6.6
		c0.5,4.6,1.1,9.4,1.9,14.5s1.7,10.4,2.5,16s1.4,11.3,1.7,17.3s0.3,11.8,0.4,17.4s0.2,11,0.4,16.2c0.3,10.3,0.7,19.6,1,27.4
		l0.7,18.5c0.1,2.2,0.1,3.9,0.2,5s0,1.8,0,1.8c0-1.4-0.4-9.9-1-25.2c-0.3-7.8-0.7-17.1-1-27.4c-0.1-5.1-0.3-10.6-0.4-16.2
		s0-11.4-0.4-17.4s-0.9-11.7-1.7-17.2s-1.7-10.9-2.5-16s-1.5-10-1.9-14.5c-0.2-2.3-0.4-4.5-0.6-6.6s-0.2-4.2-0.3-6.1
		c-0.3-7.8,0-14.1,0-18.5c0-2.2,0-3.9,0-5C182.8,183.5,182.7,182.9,182.6,182.3z"/>
	<rect x="182.7" y="351.7" class="st7" width="21.7" height="3.3"/>
	<path class="st7" d="M184.1,183c-0.1,0-0.1-0.2-0.1-0.5s0-0.5,0.1-0.5s0.1,0.2,0.1,0.5S184.1,183,184.1,183z"/>
	<path class="st7" d="M184.1,185c0,0-0.1-0.2-0.1-0.5s0-0.5,0.1-0.5s0.1,0.2,0.1,0.5S184.2,185,184.1,185z"/>
	<path class="st7" d="M184.2,187c0,0-0.1-0.2-0.1-0.5s0-0.5,0.1-0.5s0.1,0.2,0.1,0.5S184.3,187,184.2,187z"/>
	<path class="st7" d="M184.3,189c-0.1,0-0.1-0.2-0.1-0.5s0-0.5,0.1-0.5s0.1,0.2,0.1,0.5S184.3,189,184.3,189z"/>
	<path class="st7" d="M184.3,191c-0.1,0-0.1-0.2-0.1-0.5s0-0.5,0.1-0.5s0.1,0.2,0.1,0.5S184.4,191,184.3,191z"/>
	<path class="st7" d="M184.4,193c-0.1,0-0.1-0.2-0.1-0.5s0-0.5,0.1-0.5s0.1,0.2,0.1,0.5S184.4,193,184.4,193z"/>
	<path class="st7" d="M184.4,195c-0.1,0-0.1-0.2-0.1-0.5s0-0.5,0.1-0.5s0.1,0.2,0.1,0.5S184.5,195,184.4,195z"/>
	<path class="st7" d="M184.5,197c-0.1,0-0.1-0.2-0.1-0.5s0-0.5,0.1-0.5s0.1,0.2,0.1,0.5S184.6,197,184.5,197z"/>
	<path class="st7" d="M184.6,199c0,0-0.1-0.2-0.1-0.5s0-0.5,0.1-0.5s0.1,0.2,0.1,0.5S184.6,199,184.6,199z"/>
	<path class="st7" d="M184.6,201c-0.1,0-0.1-0.2-0.1-0.5s0-0.5,0.1-0.5s0.1,0.2,0.1,0.5S184.7,201,184.6,201z"/>
	<path class="st7" d="M184.7,203c-0.1,0-0.1-0.2-0.1-0.5s0-0.5,0.1-0.5s0.1,0.2,0.1,0.5S184.7,203,184.7,203z"/>
	<path class="st7" d="M184.7,205c-0.1,0-0.1-0.2-0.1-0.5s0-0.5,0.1-0.5s0.1,0.2,0.1,0.5S184.7,205,184.7,205z"/>
	<path class="st7" d="M184.7,207c-0.1,0-0.1-0.2-0.1-0.5s0-0.5,0.1-0.5s0.1,0.2,0.1,0.5S184.8,207,184.7,207z"/>
	<path class="st7" d="M184.8,209c0,0-0.1-0.2-0.1-0.5s0-0.5,0.1-0.5s0.1,0.2,0.1,0.5S184.9,209,184.8,209z"/>
	<path class="st7" d="M184.9,211c-0.1,0-0.1-0.2-0.1-0.5s0-0.5,0.1-0.5s0.1,0.2,0.1,0.5S184.9,211,184.9,211z"/>
	<path class="st7" d="M184.9,213c0,0-0.1-0.2-0.1-0.5s0-0.5,0.1-0.5s0.1,0.2,0.1,0.5S185,213,184.9,213z"/>
	<path class="st7" d="M185,215c-0.1,0-0.1-0.2-0.1-0.5s0-0.5,0.1-0.5s0.1,0.2,0.1,0.5S185.1,215,185,215z"/>
	<path class="st7" d="M185.1,217c-0.1,0-0.1-0.2-0.1-0.5s0-0.5,0.1-0.5s0.1,0.2,0.1,0.5S185.2,217,185.1,217z"/>
	<path class="st7" d="M185.3,219c-0.1,0-0.1-0.2-0.1-0.5s0-0.5,0.1-0.5s0.1,0.2,0.1,0.5S185.4,219,185.3,219z"/>
	<path class="st7" d="M185.5,221c-0.1,0-0.1-0.2-0.1-0.5s0-0.5,0.1-0.5s0.1,0.2,0.1,0.5S185.5,221,185.5,221z"/>
	<path class="st7" d="M185.7,223c-0.1,0-0.1-0.2-0.1-0.5s0-0.5,0-0.5s0.1,0.2,0.1,0.5S185.7,223,185.7,223z"/>
	<path class="st7" d="M185.9,225c-0.1,0-0.1-0.2-0.2-0.5s0-0.5,0-0.5s0.1,0.2,0.2,0.5S185.9,225,185.9,225z"/>
	<path class="st7" d="M186.1,227c-0.1,0-0.1-0.2-0.2-0.5s0-0.5,0-0.5s0.1,0.2,0.2,0.5S186.2,227,186.1,227z"/>
	<path class="st7" d="M186.4,228.9c-0.1,0-0.1-0.2-0.2-0.5s0-0.5,0-0.5s0.1,0.2,0.2,0.5S186.4,228.9,186.4,228.9z"/>
	<path class="st7" d="M186.7,230.9c-0.1,0-0.1-0.2-0.2-0.5s0-0.5,0-0.5s0.1,0.2,0.2,0.5S186.7,230.9,186.7,230.9z"/>
	<path class="st7" d="M187,232.9c0,0-0.1-0.2-0.2-0.5s0-0.5,0-0.5s0.1,0.2,0.2,0.5S187,232.9,187,232.9z"/>
	<path class="st7" d="M187.3,234.9c0,0-0.1-0.2-0.2-0.5s0-0.5,0-0.5s0.1,0.2,0.2,0.5S187.3,234.9,187.3,234.9z"/>
	<path class="st7" d="M187.6,236.8c0,0-0.1-0.2-0.2-0.5s0-0.5,0-0.5s0.1,0.2,0.2,0.5S187.6,236.8,187.6,236.8z"/>
	<path class="st7" d="M187.9,238.8c0,0-0.1-0.2-0.2-0.5s0-0.5,0-0.5s0.1,0.2,0.2,0.5S188,238.8,187.9,238.8z"/>
	<path class="st7" d="M188.2,240.8c-0.1,0-0.1-0.2-0.2-0.5s0-0.5,0-0.5s0.1,0.2,0.2,0.5S188.3,240.8,188.2,240.8z"/>
	<path class="st7" d="M188.6,242.7c-0.1,0-0.1-0.2-0.2-0.5s0-0.5,0-0.5s0.1,0.2,0.2,0.5S188.6,242.7,188.6,242.7z"/>
	<path class="st7" d="M188.9,244.7c0,0-0.1-0.2-0.2-0.5s0-0.5,0-0.5s0.1,0.2,0.2,0.5S189,244.7,188.9,244.7z"/>
	<path class="st7" d="M189.2,246.7c-0.1,0-0.1-0.2-0.2-0.5s0-0.5,0-0.5s0.1,0.2,0.2,0.5S189.3,246.6,189.2,246.7z"/>
	<path class="st7" d="M189.6,248.6c-0.1,0-0.1-0.2-0.2-0.5s0-0.5,0-0.5s0.1,0.2,0.2,0.5S189.6,248.6,189.6,248.6z"/>
	<path class="st7" d="M189.9,250.6c0,0-0.1-0.2-0.2-0.5s0-0.5,0-0.5s0.1,0.2,0.2,0.5S189.9,250.6,189.9,250.6z"/>
	<path class="st7" d="M190.1,252.6c-0.1,0-0.1-0.2-0.2-0.5s0-0.5,0-0.5s0.1,0.2,0.2,0.5S190.2,252.6,190.1,252.6z"/>
	<path class="st7" d="M190.4,254.6c0,0-0.1-0.2-0.2-0.5s0-0.5,0-0.5s0.1,0.2,0.2,0.5S190.5,254.6,190.4,254.6z"/>
	<path class="st7" d="M190.6,256.5c-0.1,0-0.1-0.2-0.2-0.5s0-0.5,0-0.5s0.1,0.2,0.2,0.5S190.7,256.5,190.6,256.5z"/>
	<path class="st7" d="M190.9,258.5c-0.1,0-0.1-0.2-0.2-0.5s0-0.5,0-0.5s0.1,0.2,0.1,0.5S190.9,258.5,190.9,258.5z"/>
	<path class="st7" d="M191.1,260.5c-0.1,0-0.1-0.2-0.1-0.5s0-0.5,0-0.5s0.1,0.2,0.1,0.5S191.1,260.5,191.1,260.5z"/>
	<path class="st7" d="M191.3,262.5c-0.1,0-0.1-0.2-0.1-0.5s0-0.5,0.1-0.5s0.1,0.2,0.1,0.5S191.3,262.5,191.3,262.5z"/>
	<path class="st7" d="M191.4,264.5c-0.1,0-0.1-0.2-0.1-0.5s0-0.5,0.1-0.5s0.1,0.2,0.1,0.5S191.5,264.5,191.4,264.5z"/>
	<path class="st7" d="M191.6,266.5c-0.1,0-0.1-0.2-0.1-0.5s0-0.5,0.1-0.5s0.1,0.2,0.1,0.5S191.6,266.5,191.6,266.5z"/>
	<path class="st7" d="M191.7,268.5c0,0-0.1-0.2-0.1-0.5s0-0.5,0.1-0.5s0.1,0.2,0.1,0.5S191.7,268.5,191.7,268.5z"/>
	<path class="st7" d="M191.8,270.5c0,0-0.1-0.2-0.1-0.5s0-0.5,0.1-0.5s0.1,0.2,0.1,0.5S191.9,270.5,191.8,270.5z"/>
	<path class="st7" d="M191.9,272.5c0,0-0.1-0.2-0.1-0.5s0-0.5,0.1-0.5s0.1,0.2,0.1,0.5S191.9,272.5,191.9,272.5z"/>
	<path class="st7" d="M191.9,274.5c0,0-0.1-0.2-0.1-0.5s0-0.5,0.1-0.5s0.1,0.2,0.1,0.5S191.9,274.5,191.9,274.5z"/>
	<path class="st7" d="M191.9,276.5c0,0-0.1-0.2-0.1-0.5s0-0.5,0.1-0.5s0.1,0.2,0.1,0.5S192,276.5,191.9,276.5z"/>
	<path class="st7" d="M191.9,278.5c-0.1,0-0.1-0.2-0.1-0.5s0-0.5,0.1-0.5s0.1,0.2,0.1,0.5S192,278.5,191.9,278.5z"/>
	<path class="st7" d="M191.9,280.5c-0.1,0-0.1-0.2-0.1-0.5s0-0.5,0.1-0.5s0.1,0.2,0.1,0.5S192,280.5,191.9,280.5z"/>
	<path class="st7" d="M192,282.5c-0.1,0-0.1-0.2-0.1-0.5s0-0.5,0.1-0.5s0.1,0.2,0.1,0.5S192,282.5,192,282.5z"/>
	<path class="st7" d="M192,284.5c0,0-0.1-0.2-0.1-0.5s0-0.5,0.1-0.5s0.1,0.2,0.1,0.5S192,284.5,192,284.5z"/>
	<path class="st7" d="M192,286.5c-0.1,0-0.1-0.2-0.1-0.5s0-0.5,0.1-0.5s0.1,0.2,0.1,0.5S192.1,286.5,192,286.5z"/>
	<path class="st7" d="M192.1,288.5c-0.1,0-0.1-0.2-0.1-0.5s0-0.5,0.1-0.5s0.1,0.2,0.1,0.5S192.1,288.5,192.1,288.5z"/>
	<path class="st7" d="M192.1,290.5c-0.1,0-0.1-0.2-0.1-0.5s0-0.5,0.1-0.5s0.1,0.2,0.1,0.5S192.1,290.5,192.1,290.5z"/>
	<path class="st7" d="M192.1,292.5c0,0-0.1-0.2-0.1-0.5s0-0.5,0.1-0.5s0.1,0.2,0.1,0.5S192.2,292.5,192.1,292.5z"/>
	<path class="st7" d="M192.2,294.5c-0.1,0-0.1-0.2-0.1-0.5s0-0.5,0.1-0.5s0.1,0.2,0.1,0.5S192.2,294.5,192.2,294.5z"/>
	<path class="st7" d="M192.2,296.5c-0.1,0-0.1-0.2-0.1-0.5s0-0.5,0.1-0.5s0.1,0.2,0.1,0.5S192.3,296.5,192.2,296.5z"/>
	<path class="st7" d="M192.3,298.5c-0.1,0-0.1-0.2-0.1-0.5s0-0.5,0.1-0.5s0.1,0.2,0.1,0.5S192.3,298.5,192.3,298.5z"/>
	<path class="st7" d="M192.3,300.5c-0.1,0-0.1-0.2-0.1-0.5s0-0.5,0.1-0.5s0.1,0.2,0.1,0.5S192.4,300.5,192.3,300.5z"/>
	<path class="st7" d="M192.4,302.5c-0.1,0-0.1-0.2-0.1-0.5s0-0.5,0.1-0.5s0.1,0.2,0.1,0.5S192.5,302.5,192.4,302.5z"/>
	<path class="st7" d="M192.5,304.5c0,0-0.1-0.2-0.1-0.5s0-0.5,0.1-0.5s0.1,0.2,0.1,0.5S192.5,304.5,192.5,304.5z"/>
	<path class="st7" d="M192.5,306.5c-0.1,0-0.1-0.2-0.1-0.5s0-0.5,0.1-0.5s0.1,0.2,0.1,0.5S192.6,306.5,192.5,306.5z"/>
	<path class="st7" d="M192.6,308.5c-0.1,0-0.1-0.2-0.1-0.5s0-0.5,0.1-0.5s0.1,0.2,0.1,0.5S192.6,308.5,192.6,308.5z"/>
	<path class="st7" d="M192.7,310.5c0,0-0.1-0.2-0.1-0.5s0-0.5,0.1-0.5s0.1,0.2,0.1,0.5S192.7,310.4,192.7,310.5z"/>
	<path class="st7" d="M192.7,312.4c-0.1,0-0.1-0.2-0.1-0.5s0-0.5,0.1-0.5s0.1,0.2,0.1,0.5S192.8,312.4,192.7,312.4z"/>
	<path class="st7" d="M192.9,314.4c-0.1,0-0.1-0.2-0.1-0.5s0-0.5,0.1-0.5s0.1,0.2,0.1,0.5S192.9,314.4,192.9,314.4z"/>
	<path class="st7" d="M192.9,316.4c-0.1,0-0.1-0.2-0.1-0.5s0-0.5,0.1-0.5s0.1,0.2,0.1,0.5S192.9,316.4,192.9,316.4z"/>
	<path class="st7" d="M193,318.4c-0.1,0-0.1-0.2-0.1-0.5s0-0.5,0.1-0.5s0.1,0.2,0.1,0.5S193,318.4,193,318.4z"/>
	<path class="st7" d="M193,320.4c0,0-0.1-0.2-0.1-0.5s0-0.5,0.1-0.5s0.1,0.2,0.1,0.5S193.1,320.4,193,320.4z"/>
	<path class="st7" d="M193.1,322.4c-0.1,0-0.1-0.2-0.1-0.5s0-0.5,0.1-0.5s0.1,0.2,0.1,0.5S193.2,322.4,193.1,322.4z"/>
	<path class="st7" d="M193.2,324.4c-0.1,0-0.1-0.2-0.1-0.5s0-0.5,0.1-0.5s0.1,0.2,0.1,0.5S193.2,324.4,193.2,324.4z"/>
	<path class="st7" d="M193.3,326.4c-0.1,0-0.1-0.2-0.1-0.5s0-0.5,0.1-0.5s0.1,0.2,0.1,0.5S193.3,326.4,193.3,326.4z"/>
	<path class="st7" d="M193.4,328.4c-0.1,0-0.1-0.2-0.1-0.5s0-0.5,0.1-0.5s0.1,0.2,0.1,0.5S193.4,328.4,193.4,328.4z"/>
	<path class="st7" d="M193.4,330.4c-0.1,0-0.1-0.2-0.1-0.5s0-0.5,0.1-0.5s0.1,0.2,0.1,0.5S193.5,330.4,193.4,330.4z"/>
	<path class="st7" d="M193.5,332.4c-0.1,0-0.1-0.2-0.1-0.5s0-0.5,0.1-0.5s0.1,0.2,0.1,0.5S193.6,332.4,193.5,332.4z"/>
	<path class="st7" d="M193.6,334.4c-0.1,0-0.1-0.2-0.1-0.5s0-0.5,0.1-0.5s0.1,0.2,0.1,0.5S193.6,334.4,193.6,334.4z"/>
	<path class="st7" d="M193.7,336.4c-0.1,0-0.1-0.2-0.1-0.5s0-0.5,0.1-0.5s0.1,0.2,0.1,0.5S193.7,336.4,193.7,336.4z"/>
	<path class="st7" d="M193.7,338.4c0,0-0.1-0.2-0.1-0.5s0-0.5,0.1-0.5s0.1,0.2,0.1,0.5S193.9,338.4,193.7,338.4z"/>
	<path class="st7" d="M193.9,340.4c-0.1,0-0.1-0.2-0.1-0.5s0-0.5,0.1-0.5s0.1,0.2,0.1,0.5S193.9,340.4,193.9,340.4z"/>
	<path class="st7" d="M193.9,342.4c-0.1,0-0.1-0.2-0.1-0.5s0-0.5,0.1-0.5s0.1,0.2,0.1,0.5S194,342.4,193.9,342.4z"/>
	<path class="st7" d="M194,344.4c-0.1,0-0.1-0.2-0.1-0.5s0-0.5,0.1-0.5s0.1,0.2,0.1,0.5S194,344.4,194,344.4z"/>
	<path class="st7" d="M194.1,346.4c-0.1,0-0.1-0.2-0.1-0.5s0-0.5,0.1-0.5s0.1,0.2,0.1,0.5S194.1,346.4,194.1,346.4z"/>
	<path class="st7" d="M194.1,348.4c-0.1,0-0.1-0.2-0.1-0.5s0-0.5,0.1-0.5s0.1,0.2,0.1,0.5S194.2,348.4,194.1,348.4z"/>
	<path class="st7" d="M194.2,350.4c-0.1,0-0.1-0.2-0.1-0.5s0-0.5,0.1-0.5s0.1,0.2,0.1,0.5S194.2,350.4,194.2,350.4z"/>
	<path class="st7" d="M194.2,352.4c0,0-0.1-0.2-0.1-0.5s0-0.5,0.1-0.5s0.1,0.2,0.1,0.5S194.3,352.4,194.2,352.4z"/>
	<path class="st7" d="M194.3,353.9c-0.1,0-0.1-0.1-0.1-0.2s0-0.2,0.1-0.2s0.1,0.1,0.1,0.2S194.4,353.9,194.3,353.9z"/>
	<path class="st7" d="M200,204.9c-0.3,0.2-0.6,0.2-0.9,0c-0.4-0.1-0.7-0.4-0.9-0.7c-0.3-0.4-0.4-0.9-0.5-1.4
		c-0.2-2.1-0.3-5.1-0.5-8.4s-0.3-6.1-0.4-8.4l-0.1-2.5c0-0.2,0-0.5,0-0.7c0-0.1,0-0.2,0-0.2c0,0.1,0,0.2,0,0.2c0,0.2,0,0.4,0.1,0.7
		c0,0.7,0.1,1.6,0.2,2.5c0.1,2.3,0.3,5.2,0.5,8.4s0.3,6.1,0.4,8.4c0,0.5,0.2,0.9,0.4,1.3c0.2,0.3,0.5,0.5,0.8,0.7
		C199.4,205,199.7,205,200,204.9z"/>
	<path class="st7" d="M164,220.2c0.3,0,0.5-0.1,0.8-0.2c0.7-0.4,1.2-0.9,1.5-1.6c0.4-1.1,0.5-2.2,0.4-3.3c-0.1-1.4-0.2-2.8-0.4-4.1
		c-0.4-2.4-1-4.8-1.9-7.1l0.1,0l-2.4,0.4l-0.6,0.1h-0.2c0.1,0,0.1-0.1,0.2-0.1l0.6-0.1l2.4-0.5h0.1v0.1c0.9,2.3,1.6,4.7,2,7.1
		c0.2,1.4,0.4,2.8,0.4,4.1c0.1,1.1,0,2.3-0.4,3.4c-0.3,0.7-0.9,1.3-1.6,1.6C164.6,220.2,164.3,220.2,164,220.2z"/>
	<path class="st7" d="M165.2,206.9c-0.6,0.3-1.2,0.4-1.9,0.5c-0.7,0.2-1.3,0.3-2,0.3c0.6-0.2,1.3-0.4,1.9-0.5
		C163.8,207,164.5,206.9,165.2,206.9z"/>
	<path class="st7" d="M273.5,108.3l-11.2-9.2c-30.4,27.5-69.7,24.3-69.7,24.3v0.1c-1.8-0.3-11-1.8-14.1-1.8c-2.4,0-7.9-0.5-11.8,3.2
		l0,0c-0.1,0.1-0.2,0.2-0.3,0.3c-3.5,3.5-39,38.4-35.2,47c4,9.1,37.6,28.9,37.6,28.9l8.2-14.8c0,0-2.5-1.7-6-4l27.5-0.7l1.2-20.6
		c0,0,4.7-5.2,4.7-9c0-2.6-1.5-7-3.3-11.4C244.4,137,273.5,108.3,273.5,108.3z M151.6,167.3c0.3-1.1,7.4-8.8,13.7-15.6
		c2.2,13.5,5.2,29,5.5,30.5C163.1,177,151.2,168.7,151.6,167.3L151.6,167.3z"/>
	<path class="st3" d="M202.8,156.5c-0.3,0-0.7,0-1,0c-1,0-1.9-0.1-2.9-0.4c-1.5-0.4-2.8-1.4-3.5-2.8c-0.4-0.9-0.4-2,0-2.9
		c0.5-1,1.5-1.7,2.6-1.7c1.3,0.2,2.3,1.1,2.5,2.4c0.2,1.3-0.1,2.7-1,3.7c-1.9,2.3-4.7,3.4-7.6,3.1c-1.6-0.1-3.1-0.6-4.4-1.5
		c-1.4-0.9-2.4-2.2-2.9-3.8c-0.2-0.8-0.2-1.7,0.1-2.5c0.4-0.8,1-1.4,1.9-1.8c0.8-0.4,1.8-0.2,2.5,0.3c0.7,0.6,1,1.5,0.9,2.4
		c-0.1,0.9-0.4,1.7-0.9,2.5c-0.5,0.7-1.1,1.3-1.8,1.9c-1.3,1-2.9,1.7-4.6,1.9c-3.2,0.5-6.4-0.7-8.5-3.1c-0.5-0.6-0.8-1.3-0.9-2.1
		c-0.1-0.7,0-1.5,0.3-2.2c0.3-0.7,0.9-1.2,1.6-1.4c0.7-0.2,1.4-0.1,2.1,0.2c1.2,0.6,2.1,1.8,2.1,3.1c0,1.2-0.5,2.4-1.4,3.3
		c-1.5,1.5-3.5,2.3-5.6,2.1c-1.6-0.1-3.1-0.6-4.4-1.4c-0.8-0.5-1.5-1.2-2.1-2c-0.2-0.3-0.4-0.6-0.5-0.9c0,0,0.2,0.3,0.6,0.8
		c0.6,0.8,1.3,1.4,2.1,1.9c1.3,0.8,2.8,1.3,4.3,1.3c2,0.1,4-0.6,5.4-2.1c0.8-0.8,1.3-1.9,1.3-3.1c-0.1-1.3-0.8-2.4-2-2.9
		c-0.6-0.3-1.3-0.3-1.9-0.2c-0.6,0.2-1.1,0.7-1.4,1.3c-0.3,0.6-0.4,1.3-0.2,2c0.1,0.7,0.5,1.4,0.9,1.9c2,2.4,5.2,3.5,8.3,3
		c1.6-0.2,3.2-0.8,4.5-1.8c0.7-0.5,1.2-1.1,1.7-1.8c0.5-0.7,0.7-1.5,0.8-2.3c0.1-0.8-0.2-1.6-0.8-2.2c-0.6-0.5-1.5-0.6-2.2-0.3
		c-0.7,0.3-1.3,0.9-1.7,1.6c-0.3,0.7-0.3,1.5-0.1,2.3c0.4,1.5,1.4,2.8,2.8,3.6c1.3,0.8,2.7,1.3,4.2,1.4c2.8,0.3,5.6-0.8,7.4-3
		c0.8-1,1.2-2.2,1-3.5c-0.2-1.1-1.2-2-2.3-2.2c-1.1,0-2,0.6-2.5,1.6c-0.4,0.8-0.4,1.8,0,2.7c0.7,1.4,1.9,2.4,3.4,2.8
		c0.9,0.3,1.9,0.4,2.9,0.4L202.8,156.5L202.8,156.5z"/>
	<path class="st3" d="M198.9,175.5l-0.5,0.3c-0.3,0.2-0.8,0.5-1.5,0.9c-0.8,0.5-1.6,0.9-2.5,1.2c-1.2,0.4-2.4,0.5-3.6,0.3
		c-1.5-0.1-2.9-0.6-4.1-1.6c-0.6-0.6-1-1.4-1.1-2.2c-0.1-0.9,0.3-1.8,1-2.4c0.4-0.3,0.8-0.5,1.3-0.5c0.5,0,1,0.2,1.4,0.5
		c0.8,0.7,1.1,1.7,0.9,2.7c-0.3,1-0.8,1.9-1.6,2.5c-0.8,0.6-1.7,1.2-2.6,1.5c-1.9,0.7-4,0.8-5.9,0.4c-1.9-0.4-3.5-1.4-4.6-3
		c-0.5-0.8-0.6-1.7-0.2-2.6c0.4-0.8,1.1-1.3,2-1.5c0.4-0.1,0.8,0.1,1.2,0.3c0.3,0.3,0.5,0.6,0.6,1c0.2,0.7,0,1.5-0.4,2.1
		c-0.8,1-1.8,1.7-3,2.1c-0.9,0.3-1.8,0.4-2.7,0.4c-0.6,0-1.2-0.1-1.7-0.3c-0.2-0.1-0.4-0.1-0.6-0.2c0.7,0.2,1.5,0.3,2.3,0.3
		c0.9,0,1.8-0.1,2.6-0.5c1.1-0.4,2.1-1.1,2.8-2c0.4-0.5,0.5-1.2,0.4-1.9c-0.1-0.7-0.8-1.2-1.5-1.1c-0.8,0.1-1.4,0.6-1.8,1.3
		c-0.3,0.8-0.2,1.6,0.2,2.3c1.1,1.5,2.7,2.5,4.4,2.9c1.9,0.5,3.9,0.3,5.8-0.4c0.9-0.4,1.8-0.9,2.5-1.5c0.7-0.6,1.3-1.4,1.5-2.3
		c0.2-0.9-0.1-1.8-0.8-2.4c-0.7-0.6-1.6-0.6-2.3,0c-0.7,0.5-1,1.3-0.9,2.1c0.1,0.8,0.4,1.5,1,2c1.1,0.9,2.5,1.5,3.9,1.6
		c1.2,0.2,2.4,0.1,3.5-0.3c0.9-0.3,1.7-0.7,2.5-1.1l1.5-0.9C198.6,175.6,198.9,175.5,198.9,175.5z"/>
	<path class="st3" d="M213.9,122.2c0.4,0.2,0.8,0.5,1.1,0.8c0.9,0.9,1.5,2,1.6,3.3c0.1,0.9,0,1.7-0.3,2.5c-0.4,0.9-1,1.8-1.7,2.4
		c-0.9,0.7-1.9,1.1-3,1.3c-0.6,0.1-1.2,0.1-1.7,0c-0.6-0.1-1.2-0.4-1.6-0.9c-0.2-0.3-0.3-0.7-0.2-1c0.1-0.3,0.3-0.6,0.6-0.8
		c0.5-0.3,1.1-0.5,1.7-0.5c1.1,0,2.2,0.5,3,1.3c0.7,0.7,1.1,1.7,1.1,2.7c0.1,0.9-0.1,1.7-0.4,2.5c-0.5,1.1-1.4,2.1-2.5,2.7
		c-0.3,0.2-0.6,0.3-0.9,0.5c-0.1,0-0.2,0.1-0.3,0.1c0,0,0.5-0.2,1.2-0.7c1-0.7,1.8-1.6,2.4-2.7c0.3-0.8,0.5-1.6,0.4-2.4
		c-0.1-0.9-0.4-1.8-1.1-2.5c-0.7-0.8-1.7-1.2-2.8-1.2c-0.5,0-1.1,0.1-1.5,0.4c-0.4,0.3-0.6,0.9-0.3,1.3c0.3,0.4,0.8,0.7,1.4,0.8
		c0.5,0.1,1.1,0.1,1.6,0c1-0.2,2-0.6,2.8-1.2c2.3-1.8,2.7-5.1,0.9-7.4c-0.1-0.2-0.3-0.3-0.4-0.5
		C214.6,122.7,214.2,122.5,213.9,122.2z"/>
	<path class="st3" d="M228.5,118.6c0.2,0.2,0.4,0.4,0.5,0.6c0.1,0.3,0.2,0.6,0.2,0.9c-0.1,0.4-0.2,0.8-0.4,1.1
		c-0.5,0.9-1.1,1.8-1.8,2.6c-0.9,0.9-1.7,1.8-2.5,2.9c-1.2,1.9-1.8,4.2-1.6,6.5c0.1,0.9,0.3,1.9,0.5,2.8c-0.1-0.2-0.2-0.5-0.3-0.7
		c-0.2-0.7-0.4-1.4-0.4-2.1c-0.2-2.3,0.3-4.7,1.6-6.7c0.7-1.1,1.6-2,2.5-2.9c0.7-0.7,1.3-1.6,1.8-2.4c0.2-0.3,0.4-0.7,0.4-1.1
		c0-0.3,0-0.6-0.1-0.8C228.7,118.9,228.5,118.7,228.5,118.6z"/>
	<path class="st3" d="M239.5,130.5c-0.5,0.2-1,0.3-1.5,0.3c-1.4,0-2.8-0.7-3.6-1.9c-1-1.8-1.1-4.1-0.2-6c0.5-1.2,1.2-2.2,2.2-2.9
		c1.1-0.9,2.5-1.1,3.8-0.8c1.4,0.4,2.3,1.7,2.2,3.1c0,0.7-0.3,1.3-0.8,1.7c-0.5,0.4-1.1,0.6-1.7,0.6c-1.1,0-2.3-0.4-3.1-1.2
		c-0.7-0.7-1.2-1.5-1.5-2.5c-0.4-1.4-0.3-2.8,0.2-4.1c0.2-0.5,0.5-0.9,0.9-1.3c-0.3,0.4-0.5,0.9-0.7,1.3c-0.5,1.3-0.6,2.7-0.2,4
		c0.3,0.9,0.8,1.7,1.5,2.4c0.8,0.7,1.8,1.1,2.9,1.1c0.6,0,1.1-0.2,1.5-0.6c0.4-0.4,0.7-0.9,0.7-1.5c0.1-1.3-0.8-2.4-2-2.8
		c-1.2-0.3-2.5-0.1-3.5,0.7c-0.9,0.7-1.7,1.7-2.1,2.8c-0.9,1.8-0.9,4,0.1,5.8c0.8,1.2,2,1.9,3.4,1.9
		C238.6,130.7,239,130.6,239.5,130.5z"/>
	<path class="st3" d="M247.4,110.2c0.2,0.1,0.4,0.1,0.6,0.2c0.5,0.3,1,0.6,1.5,1c0.7,0.6,1.3,1.3,1.7,2.1c0.5,1,0.9,2,1.1,3.1
		c0.4,2,0.2,4-0.7,5.9c-0.2,0.5-0.6,1.1-0.9,1.6c-0.1,0.2-0.3,0.4-0.4,0.5c0.4-0.7,0.8-1.4,1.1-2.1c0.7-1.8,0.9-3.8,0.6-5.7
		c-0.2-1-0.6-2.1-1.1-3c-0.4-0.7-1-1.4-1.6-2C248.8,111.2,248.1,110.7,247.4,110.2z"/>
	<path class="st3" d="M263.9,116.3c-0.4,0.2-0.8,0.3-1.3,0.3c-0.5,0-1,0-1.5-0.1c-0.7-0.2-1.3-0.6-1.7-1.1c-1.2-1.4-1.8-3.2-1.5-5
		c0.1-1.1,0.7-2.1,1.6-2.7c0.5-0.3,1-0.5,1.6-0.5c0.6,0,1.2,0.2,1.7,0.6c0.5,0.4,0.8,0.9,0.9,1.5c0.1,0.6-0.1,1.2-0.5,1.6
		c-0.7,0.8-1.8,1.2-2.9,1.1c-1.8-0.2-3.4-1.2-4.4-2.8c-0.4-0.6-0.6-1.3-0.6-2c0-0.5,0.2-1,0.4-1.5c0.2-0.4,0.3-0.7,0.4-0.9
		c0-0.1,0.1-0.2,0.2-0.3c0,0.1-0.1,0.2-0.1,0.3c-0.1,0.3-0.2,0.6-0.4,0.9c-0.2,0.5-0.3,0.9-0.4,1.4c0,0.7,0.2,1.3,0.6,1.8
		c1,1.5,2.5,2.4,4.2,2.6c1,0.1,2-0.2,2.7-1c0.3-0.4,0.5-0.9,0.4-1.4c-0.1-0.5-0.4-1-0.8-1.3c-0.9-0.7-2.1-0.7-2.9,0
		c-0.8,0.6-1.4,1.5-1.5,2.5c-0.3,1.7,0.3,3.5,1.4,4.8c0.8,0.9,1.9,1.4,3.1,1.3C263,116.4,263.4,116.3,263.9,116.3z"/>
	<path class="st3" d="M199,165.8c-0.3,0.3-0.6,0.6-0.9,0.8c-0.9,0.7-2,1.1-3.1,1.4c-1.7,0.4-3.4,0.5-5,0.3c-2-0.3-4.1-0.7-6.1-1.2
		c-2-0.5-4-0.9-6-1c-1.7-0.1-3.4,0.1-5,0.7c-1.1,0.4-2,0.9-2.9,1.7c-0.6,0.5-0.8,0.9-0.9,0.9c0.2-0.4,0.5-0.7,0.8-1
		c0.8-0.8,1.8-1.4,2.9-1.8c1.6-0.6,3.3-0.8,5-0.8c2.1,0.1,4.1,0.5,6.1,1c2,0.5,4,1,6,1.2c1.7,0.2,3.4,0.1,5-0.2
		C196.4,167.4,197.8,166.8,199,165.8z"/>
	<path class="st3" d="M156.6,135.2c0.5-0.4,1.2-0.5,1.9-0.4c0.8,0.2,1.5,0.5,2.1,1c0.7,0.5,1.4,1.2,2.3,1.9s1.7,1.6,2.7,2.4
		c1.1,0.8,2.3,1.4,3.7,1.6c3.1,0.4,6.3,0,9.2-1.3c3.1-1.2,6-2.8,8.8-3.5c1.3-0.4,2.7-0.6,4.1-0.6c1.2,0,2.4,0.3,3.6,0.6
		c1.7,0.5,3.2,1.6,4.2,3.1c0.2,0.2,0.3,0.5,0.4,0.7c0.1,0.2,0.2,0.4,0.2,0.6c0.1,0.2,0.1,0.3,0.1,0.5c-0.2-0.6-0.5-1.2-0.9-1.7
		c-1-1.4-2.5-2.4-4.1-2.9c-1.1-0.4-2.3-0.6-3.5-0.6c-1.4,0-2.7,0.2-4,0.6c-2.8,0.8-5.7,2.3-8.8,3.5c-2.9,1.3-6.2,1.8-9.4,1.3
		c-1.4-0.3-2.7-0.9-3.8-1.7c-1-0.8-1.9-1.7-2.7-2.4c-0.8-0.7-1.6-1.4-2.3-1.9c-0.6-0.5-1.3-0.8-2-1
		C157.8,134.9,157.2,134.9,156.6,135.2z"/>
	<path class="st3" d="M202.1,123.5c0.1,0.3,0.1,0.5,0.1,0.8c0.1,0.8,0,1.6-0.1,2.4c-0.3,1.2-0.9,2.4-1.7,3.3
		c-1.1,1.3-2.6,2.2-4.2,2.5c-2,0.3-4.1-0.1-5.8-1.3c-1-0.6-1.7-1.5-2.2-2.5c-0.3-0.6-0.2-1.3,0.2-1.8c0.4-0.5,1-0.8,1.6-0.8
		c0.7-0.1,1.3,0.1,1.8,0.6c0.5,0.5,0.7,1.1,0.8,1.8c0.1,1.4-0.5,2.7-1.6,3.5c-1.1,0.8-2.3,1.4-3.7,1.7c-1.3,0.4-2.7,0.6-4.1,0.5
		c-1.4-0.1-2.8-0.6-3.9-1.4c-1.1-0.9-1.8-2.2-1.8-3.6c-0.1-1.4,0.6-2.7,1.8-3.4c1.2-0.6,2.6-0.5,3.6,0.4c0.9,0.9,1.1,2.3,0.6,3.4
		c-0.5,1.1-1.3,1.9-2.4,2.3c-1.9,0.8-3.9,1.1-5.9,0.8c-2.9-0.4-5.6-1.8-7.5-4c-0.5-0.6-1-1.2-1.4-1.9c-0.3-0.5-0.4-0.7-0.4-0.7
		c0.5,0.9,1.1,1.8,1.9,2.5c2,2.1,4.6,3.4,7.5,3.8c2,0.3,3.9,0,5.8-0.8c1-0.4,1.8-1.2,2.2-2.2c0.5-1,0.3-2.3-0.5-3.1
		c-0.9-0.8-2.2-0.9-3.3-0.3c-1.1,0.6-1.7,1.8-1.6,3.1c0,1.3,0.7,2.5,1.7,3.3c1.1,0.8,2.4,1.3,3.7,1.4c1.4,0.1,2.7-0.1,4-0.5
		c1.3-0.3,2.5-0.9,3.6-1.6c1-0.7,1.6-2,1.5-3.2c0-0.6-0.3-1.2-0.7-1.6c-0.4-0.4-1-0.6-1.6-0.5c-0.6,0-1.1,0.3-1.5,0.7
		c-0.3,0.4-0.4,1-0.1,1.5c0.5,1,1.2,1.8,2.1,2.4c1.6,1.1,3.6,1.6,5.6,1.3c1.6-0.3,3.1-1.1,4.1-2.3c0.8-0.9,1.4-2,1.7-3.2
		C202.2,125.6,202.2,124.5,202.1,123.5z"/>
	<path class="st3" d="M151,141c0.1-0.1,0.3-0.1,0.4-0.2c0.3-0.1,0.7-0.2,1.2-0.4c1.5-0.4,3-0.4,4.5,0.2c1,0.4,1.9,1,2.6,1.8
		c0.8,0.9,1.3,2.1,1.4,3.3c0.1,2.7-2.1,5-4.8,5c-0.3,0-0.5,0-0.8,0c-0.7-0.1-1.4-0.4-2-0.9c-0.6-0.5-0.8-1.3-0.6-2
		c0.2-0.7,0.6-1.3,1.2-1.7c0.5-0.4,1.1-0.7,1.8-0.8c2.2-0.6,4.6,0,6.3,1.6c1.1,1.1,1.9,2.5,2.1,4c0.1,0.5,0.1,1.1,0,1.7
		c0-0.5-0.1-1.1-0.1-1.6c-0.3-1.5-1-2.8-2.1-3.8c-1.7-1.5-4-2-6.1-1.5c-0.6,0.1-1.2,0.4-1.7,0.8c-0.5,0.4-0.9,0.9-1.1,1.5
		c-0.1,0.6,0.1,1.3,0.6,1.8c0.5,0.5,1.2,0.7,1.9,0.8c2.5,0.3,4.8-1.5,5.2-4c0-0.2,0-0.4,0-0.7c0-1.2-0.5-2.3-1.3-3.2
		c-0.7-0.8-1.5-1.4-2.5-1.8c-1.4-0.6-2.9-0.7-4.4-0.3c-0.5,0.1-0.9,0.2-1.2,0.3C151.3,141,151.2,141,151,141z"/>
	<path class="st3" d="M155.3,162.7c0.1-0.3,0.1-0.6,0.1-0.9c-0.2-0.8-0.5-1.5-1-2.2c-0.7-1-1.9-1.4-3.1-1.2c-1.3,0-2.8,0.6-4.4,0.5
		c-2.9-0.1-5.2-2.6-5.1-5.5c0-0.8,0.2-1.7,0.6-2.4c0.2-0.3,0.4-0.5,0.6-0.6c0,0-0.2,0.2-0.5,0.7c-0.4,0.7-0.6,1.5-0.5,2.3
		c0,1.2,0.4,2.4,1.1,3.3c0.9,1.1,2.3,1.8,3.8,1.9c1.5,0.1,3-0.5,4.4-0.5c0.7-0.1,1.4,0,2,0.3c0.6,0.2,1,0.6,1.3,1.1
		c0.5,0.7,0.8,1.5,0.9,2.3C155.6,162.1,155.5,162.4,155.3,162.7z"/>
	<path class="st3" d="M144.3,185c0.5,0,0.9-0.2,1.4-0.4c0.5-0.3,0.9-0.7,1.1-1.2c0.3-0.7,0.3-1.4,0.2-2.1c-0.1-0.9-0.3-1.8-0.6-2.6
		c-0.3-1-0.7-1.9-1.3-2.7c-0.7-0.9-1.8-1.3-2.9-1.1c-0.6,0.1-1,0.5-1.2,1.1c-0.2,0.6-0.2,1.2,0,1.7c0.5,1.1,1.6,1.8,2.8,1.8
		c1.1,0,2.2-0.4,3.1-1.1c1.5-1.3,2.6-2.8,3.5-4.5c0.6-1.2,1-2.4,1.1-3.7c0.1-0.9,0-1.4,0.1-1.4c0.1,0.5,0.1,1,0.1,1.5
		c-0.1,1.3-0.5,2.6-1.1,3.8c-0.8,1.8-2,3.4-3.5,4.7c-0.9,0.8-2.1,1.2-3.2,1.2c-0.6,0-1.3-0.2-1.8-0.5c-0.6-0.3-1-0.9-1.2-1.5
		c-0.2-0.6-0.2-1.3,0-2c0.2-0.6,0.8-1.1,1.4-1.3c1.2-0.2,2.5,0.2,3.2,1.2c0.6,0.8,1.1,1.8,1.4,2.8c0.3,0.9,0.5,1.8,0.6,2.7
		c0.1,0.8,0,1.5-0.3,2.2c-0.3,0.5-0.7,0.9-1.2,1.2c-0.3,0.2-0.7,0.2-1.1,0.3C144.5,185,144.4,185,144.3,185z"/>
	<path class="st3" d="M157.4,192.7c0.3,0,0.5-0.1,0.8-0.2c0.7-0.3,1.2-0.9,1.4-1.5c0.3-1,0.3-2.1-0.1-3.1c-0.4-1.1-1.1-2.3-1.6-3.7
		c-0.2-0.7-0.3-1.4-0.3-2.1c0.1-0.7,0.3-1.3,0.7-1.9c0.7-0.9,1.7-1.6,2.8-1.8c0.7-0.2,1.5-0.2,2.2-0.1c0.3,0,0.5,0.1,0.8,0.2
		c-1-0.1-2,0-3,0.2c-1,0.3-2,0.9-2.6,1.8c-0.4,0.5-0.6,1.1-0.7,1.7c0,0.7,0,1.4,0.3,2c0.4,1.3,1.2,2.5,1.6,3.7
		c0.5,1.1,0.5,2.2,0.1,3.3c-0.3,0.7-0.9,1.3-1.6,1.6C158,192.7,157.7,192.8,157.4,192.7z"/>
	<path class="st0" d="M163.6,153.6c0.3-0.4,0.6-0.9,1-1.3c0.6-0.8,1.6-1.9,2.8-3.3c1.2-1.4,2.6-3,4.1-4.8c0.8-0.9,1.5-1.9,2.3-2.9
		c0.8-1,1.6-2.1,2.2-3.3c1.2-2.3,1.9-4.8,2-7.3c0.1-2.1-0.7-4.1-2.1-5.7c-1-1-2.2-1.7-3.6-2c-0.5-0.1-1-0.1-1.5-0.1
		c0,0,0.1,0,0.4-0.1c0.4-0.1,0.8-0.1,1.2,0c1.5,0.2,2.8,0.9,3.8,1.9c1.5,1.6,2.3,3.7,2.3,5.9c-0.1,2.6-0.7,5.2-2,7.6
		c-0.6,1.2-1.4,2.3-2.2,3.4c-0.8,1-1.6,2-2.4,2.9c-1.6,1.8-3,3.4-4.2,4.7l-2.9,3.1C164.4,152.9,164,153.2,163.6,153.6z"/>
	<path class="st0" d="M152.4,167.3c-1.1,0.6-2.3,1-3.5,1.3c-1.2,0.4-2.4,0.7-3.6,0.8c1.1-0.6,2.3-1,3.5-1.3
		C150,167.7,151.2,167.4,152.4,167.3z"/>
	<path class="st0" d="M152,167.2c0.1,0.1-1.1,0.9-2.2,2.1s-1.8,2.5-1.9,2.4C148.4,169.6,149.9,168,152,167.2L152,167.2z"/>
	<path class="st0" d="M202.4,143.5c-0.5-0.6-0.9-1.3-1.2-2.1c-0.8-1.7-1.6-3.5-2.2-5.3c-0.6-1.8-1.2-3.6-1.6-5.5
		c-0.2-0.8-0.4-1.5-0.4-2.3c0.3,0.7,0.6,1.5,0.7,2.2c0.4,1.4,1,3.3,1.7,5.4s1.5,4,2,5.3C201.9,142,202.1,142.7,202.4,143.5z"/>
	<path class="st0" d="M191.8,153.1c-0.3,0.7-0.7,1.4-1.3,2c-2.6,3-6.5,4.7-10.5,4.5c-0.8,0-1.6-0.1-2.4-0.4c0-0.1,0.9,0.1,2.4,0.1
		c3.9-0.1,7.5-1.6,10.2-4.4C191.2,153.8,191.7,153,191.8,153.1z"/>
	<path class="st8" d="M184.9,202.5c0,0-6.9,1.5-7.8,0.7s1.3-1.6,1.3-1.6s-2,0.2-2-0.5s0.7-1.2,0.7-1.2L184.9,202.5z"/>
	<path class="st8" d="M175.5,189.1c0,0,9.7,4.4,9.8,4.7s0.4,7.3-0.5,8.7s-13.7-5.5-13.7-5.5L175.5,189.1z"/>
	<path class="st9" d="M182.7,200.9c-0.2,0-0.3,0-0.5,0l-1.3-0.2c-1.5-0.2-2.9-0.5-4.3-0.9c-1.4-0.4-2.8-1-4-1.9l-1.1-0.8
		c-0.3-0.2-0.4-0.3-0.4-0.3c0.1,0.1,0.3,0.1,0.4,0.2l1.1,0.7c1.2,0.8,2.5,1.4,3.9,1.8c1.4,0.4,2.8,0.7,4.3,1l1.3,0.2
		C182.3,200.8,182.5,200.8,182.7,200.9z"/>
	<path class="st9" d="M182.6,201c-0.7,0.3-1.5,0.5-2.2,0.6c-0.8,0.1-1.5,0.2-2.3,0.1c0-0.1,1-0.1,2.3-0.3S182.6,201,182.6,201z"/>
</g>
</svg>
