<?xml version="1.0" encoding="utf-8"?>
<!-- Generator: Adobe Illustrator 24.2.0, SVG Export Plug-In . SVG Version: 6.00 Build 0)  -->
<svg version="1.1" id="Layer_1" xmlns="http://www.w3.org/2000/svg" xmlns:xlink="http://www.w3.org/1999/xlink" x="0px" y="0px"
	 viewBox="0 0 461 423.4" style="enable-background:new 0 0 461 423.4;" xml:space="preserve">
<style type="text/css">
	.st0{fill:#E0E0E0;}
	.st1{fill:#F5F5F5;}
	.st2{fill:#FFFFFF;}
	.st3{fill:#EBEBEB;}
	.st4{fill:#263238;}
	.st5{fill:#936754;}
	.st6{fill:#7C5142;}
	.st7{fill:#0061F2;}
	.st8{opacity:0.6;}
	.st9{opacity:0.3;}
	.st10{fill:#455A64;}
	.st11{fill:#FAFAFA;}
	.st12{fill:#EB996E;}
	.st13{fill:#D1734A;}
	.st14{fill:#FFBE9D;}
	.st15{opacity:0.2;}
	.st16{fill:#B78876;}
</style>
<g id="freepik--background-complete--inject-2">
	<rect x="326" y="11" class="st0" width="70.3" height="101.9"/>
	<rect x="322.5" y="11" class="st1" width="70.3" height="101.9"/>
	<rect x="331.2" y="22.1" class="st2" width="52.8" height="79.8"/>
	<path class="st0" d="M384.1,101.9c0,0,0-0.1,0-0.4v-1.1c0-1,0-2.5,0-4.4c0-3.8,0-9.4,0-16.4c0-14.1,0-34-0.1-57.5l0.2,0.2h-52.9
		l0.2-0.2c0,30.1,0,57.9,0,79.8l-0.1-0.1l38.5,0.1h10.6h2.8L384.1,101.9l-0.9-0.1h-2.8h-10.6l-38.5,0.1h-0.2v-0.1
		c0-22,0-49.7,0-79.8v-0.2h0.2h52.8h0.2v0.2c0,23.5-0.1,43.5-0.1,57.6c0,7,0,12.6,0,16.4c0,1.9,0,3.4,0,4.4c0,0.5,0,0.9,0,1.1
		S384.1,101.9,384.1,101.9z"/>
	<path class="st0" d="M393,11c-0.4,0.6-0.8,1.2-1.2,1.8c-0.8,1.1-2,2.6-3.3,4.2c-1.3,1.6-2.6,3-3.5,4c-0.5,0.6-1,1.1-1.5,1.6
		c0.4-0.6,0.8-1.2,1.3-1.8l3.4-4.1l3.4-4.1C392,12.1,392.5,11.5,393,11z"/>
	<path class="st2" d="M384.3,101.6c2.6,4.2,5.7,8,9.2,11.5"/>
	<path class="st0" d="M393.6,113.2c-0.6-0.4-1.1-0.9-1.6-1.5c-1.2-1.2-2.4-2.6-3.5-3.9c-1.1-1.4-2.1-2.8-3.1-4.3
		c-0.4-0.6-0.8-1.2-1.1-1.9c0.5,0.5,0.9,1.1,1.3,1.7c0.8,1.1,1.9,2.6,3.1,4.2s2.5,3,3.4,4C392.7,112,393.1,112.6,393.6,113.2z"/>
	<path class="st2" d="M322.5,112.8l9.2-11.4"/>
	<path class="st0" d="M331.7,101.5c-1.4,2-2.9,3.9-4.5,5.8c-1.5,1.9-3.1,3.8-4.8,5.6c1.4-2,2.9-3.9,4.5-5.8
		C328.4,105.1,330,103.3,331.7,101.5z"/>
	<path class="st0" d="M322.5,11c1.6,1.7,3.1,3.5,4.5,5.3c1.5,1.8,2.9,3.6,4.2,5.6c-1.6-1.7-3.1-3.5-4.5-5.3
		C325.2,14.8,323.8,13,322.5,11z"/>
	<rect x="349.9" y="38.3" class="st0" width="17.7" height="50.2"/>
	<polygon class="st0" points="216,0 216,66.2 120.9,66.2 117.5,0.5 	"/>
	<rect x="117.5" y="0.5" class="st2" width="95.1" height="65.6"/>
	<path class="st0" d="M213.1,66.5h-96V0h96V66.5z M118,65.6h94.2V0.9H118V65.6z"/>
	<rect x="127.8" y="8.6" class="st2" width="74.5" height="49.3"/>
	<path class="st0" d="M202.3,8.6H202h-1.1h-4.1h-15.4l-53.6,0.1l0.2-0.2c0,15.1,0,31.8,0,49.3l0,0l-0.2-0.2h74.5l-0.2,0.2
		c0-15,0.1-27.3,0.1-35.9c0-4.3,0-7.6,0-9.9c0-1.1,0-2,0-2.6s0-0.9,0-0.9s0,0.3,0,0.9s0,1.5,0,2.6c0,2.3,0,5.6,0,9.9
		c0,8.6,0.1,20.9,0.1,36v0.4h-0.2l-74.5,0.1h-0.1V58l0,0c0-17.5,0-34.2,0-49.3V8.4h0.2l53.8,0.1l15.3,0.1h4.1L202.3,8.6L202.3,8.6z"
		/>
	<path class="st0" d="M117.5,0.3c0.6,0.3,1.1,0.6,1.6,1.1c1,0.7,2.3,1.7,3.7,2.8s2.7,2.2,3.6,3c0.5,0.4,1,0.9,1.4,1.4
		c-0.1,0.1-2.4-1.8-5.2-4.1C120.8,3.2,119.1,1.8,117.5,0.3z"/>
	<path class="st0" d="M212.6,0.5c-1.6,1.5-3.2,3-5,4.3c-1.7,1.4-3.4,2.7-5.3,3.9c1.6-1.5,3.2-3,5-4.3C208.9,2.9,210.7,1.6,212.6,0.5
		z"/>
	<path class="st2" d="M212.6,66.1L202,57.5"/>
	<path class="st0" d="M201.9,57.5c1.9,1.2,3.7,2.6,5.4,4.1c1.8,1.4,3.5,2.9,5.2,4.5c-1.9-1.2-3.7-2.6-5.4-4.1
		C205.3,60.6,203.5,59.1,201.9,57.5z"/>
	<path class="st0" d="M117.5,66.1c1.6-1.5,3.2-2.9,4.9-4.2c1.7-1.4,3.4-2.7,5.2-3.8c-1.6,1.5-3.2,2.9-5,4.2
		C121.1,63.6,119.3,64.9,117.5,66.1z"/>
	<rect x="142.9" y="24" class="st0" width="46.9" height="16.5"/>
	<path class="st1" d="M39.1,386.6c0.9-3.7-1.5-7.4-4.2-10.1s-6-5.1-7.4-8.6c-2.3-5.7,0.7-13.2-3.2-18c-2.3-2.8-6.5-3.7-8.5-6.7
		c-1-1.7-1.6-3.5-1.9-5.4c-2.2-9.5-7-18.3-13.8-25.4c-0.4,8.5,1.5,17,5.5,24.5c1.6,3,3.6,5.9,4.1,9.3c0.9,5.5-2.1,11.1-0.8,16.5
		c1.6,6.1,8.5,10.2,8.9,16.5c0.3,5.3-4.3,10.1-3.9,15.4c0.3,2.3,1.1,4.4,2.4,6.3c4.2,6.8,10.3,11.5,19.5,11.3l11.3,0.3L39.1,386.6z"
		/>
	<path class="st0" d="M49.2,412.9c1,0.1,2.1,0.1,3.1-0.1c1.2-0.2,2.5-0.5,3.7-0.9c1.6-0.6,3.2-1.4,4.5-2.5c0.8-0.7,1.4-1.5,1.8-2.5
		c0.3-1.1,0.5-2.2,0.5-3.4c0-1.2,0.1-2.4,0.2-3.6c0.2-1.3,0.7-2.5,1.4-3.6c1.3-2.3,3.5-4.6,4.2-7.7s0.2-6.5-0.4-9.9
		s-1.1-7.1,0.2-10.6s3.7-6.7,4.9-10.7s0.6-8.3,0.8-12.6c0.1-2.2,0.6-4.3,1.4-6.3c0.9-2,2.2-3.9,3.1-6c2-4.3,2.3-9.1,2.8-13.8
		c0.3-2.4,0.5-4.8,0.8-7.2c0.1-2.4,0.6-4.9,1.2-7.2c0.7-2.4,1.6-4.7,2.7-7c0.5-1.2,1-2.4,1.3-3.6c0.2-1.3,0.3-2.6,0.3-3.9
		c0.1-2.6,0-5.2-0.3-7.8c-0.3-2.6-0.8-5.2-1.1-7.8c0-0.1,0-0.3,0-0.5l-0.1-0.5l-0.5,0.2c-2.4,1.2-4.4,3-6,5.1
		c-1.6,2.1-2.8,4.4-3.7,6.9c-1.9,4.9-2.5,9.9-3.4,14.8s-2.1,9.6-4.6,13.7c-1.2,2-2.7,3.9-4,5.8c-1.4,1.9-2.3,4.1-2.8,6.4
		c-0.6,4.8,2,8.9,1.5,13.2c-0.2,2.1-0.9,4.1-2,5.9c-1,1.8-2.2,3.5-3.3,5.2c-1.2,1.6-2.2,3.4-3,5.2c-0.8,1.8-1.2,3.7-1.3,5.7
		c-0.3,3.8,0.3,7.4,0,10.8c-0.3,3.2-1.2,6.4-2.7,9.3c-1.4,2.8-2.9,5.3-4.2,7.8c-0.6,1.2-1.2,2.4-1.7,3.6c-0.5,1.2-0.8,2.3-1,3.6
		c-0.3,2.1-0.3,4.3,0,6.4c0.3,3,1.4,5.8,3.3,8.2c0.3,0.4,0.6,0.7,0.9,1c0.2,0.2,0.5,0.4,0.8,0.6C49,412.9,49.2,413,49.2,412.9
		c-0.8-0.6-1.5-1.3-2.2-2.1c-1.8-2.4-2.8-5.2-3.1-8.1c-0.3-2.1-0.2-4.2,0.1-6.3c0.2-1.2,0.5-2.4,1-3.5c0.5-1.2,1.1-2.4,1.7-3.5
		c1.3-2.4,2.8-4.9,4.2-7.7c1.5-2.9,2.5-6.2,2.8-9.5c0.3-3.5-0.3-7.1,0-10.8c0.1-1.9,0.6-3.7,1.3-5.5c0.8-1.8,1.8-3.5,3-5.1
		c1.1-1.7,2.3-3.4,3.4-5.2c1.1-1.9,1.9-3.9,2.1-6.1c0.5-4.5-2.1-8.7-1.5-13.1c0.4-2.2,1.3-4.3,2.6-6.2c1.3-1.9,2.8-3.8,4-5.8
		c2.5-4.2,3.8-9,4.7-13.9s1.6-9.9,3.4-14.6c0.9-2.4,2.1-4.7,3.6-6.7c1.5-2.1,3.5-3.8,5.8-4.9l-0.5-0.3c0,0.1,0,0.3,0,0.5
		c0.3,2.6,0.8,5.2,1.1,7.8c0.3,2.5,0.4,5.1,0.3,7.7c0,1.3-0.1,2.5-0.3,3.8c-0.3,1.2-0.7,2.4-1.2,3.5c-1,2.3-1.9,4.7-2.7,7.1
		c-0.7,2.4-1.1,4.9-1.2,7.3c-0.2,2.4-0.5,4.8-0.8,7.2c-0.5,4.7-0.8,9.5-2.7,13.6c-0.9,2-2.2,3.9-3.1,6c-0.9,2.1-1.4,4.3-1.5,6.5
		c-0.2,4.4,0.4,8.6-0.8,12.5s-3.6,7-4.8,10.7s-0.7,7.5-0.2,10.9s1.1,6.7,0.4,9.7s-2.8,5.2-4.1,7.6c-0.7,1.2-1.2,2.4-1.4,3.8
		c-0.1,1.2-0.2,2.5-0.2,3.7c0,1.1-0.2,2.2-0.5,3.3c-0.4,0.9-1,1.7-1.7,2.4c-1.3,1.1-2.8,1.9-4.4,2.5c-1.2,0.5-2.4,0.8-3.6,1
		c-0.8,0.1-1.5,0.2-2.3,0.2C49.5,412.9,49.2,412.9,49.2,412.9z"/>
	<path class="st0" d="M84.1,280c-0.1,0.1-0.1,0.2-0.1,0.3c-0.1,0.3-0.1,0.6-0.2,1c-0.2,0.9-0.5,2.2-0.9,3.9s-1.4,3.6-2.3,5.9
		s-1.8,5-2.6,8s-1.6,6.4-2.4,9.9s-1.6,7.4-3.6,11c-0.9,1.8-1.9,3.7-2.8,5.7c-0.8,2.1-1.3,4.3-1.6,6.5c-0.5,4.6-1.3,9.1-2.3,13.6
		c-2.2,9.2-4.3,18.1-6.2,26.1l-5.2,21.3c-1.4,6-2.6,10.9-3.4,14.4c-0.4,1.7-0.7,3-0.9,3.9l-0.2,1c0,0.1,0,0.2,0,0.4
		c0,0,0.1-0.1,0.1-0.3s0.2-0.6,0.3-1c0.3-0.9,0.6-2.2,1-3.9c0.9-3.4,2.1-8.3,3.7-14.3s3.3-13.2,5.4-21.2s4.1-16.8,6.3-26.1
		c1-4.5,1.8-9.1,2.3-13.7c0.2-2.2,0.8-4.3,1.5-6.3c0.8-2,1.8-3.8,2.7-5.7c2-3.7,2.8-7.6,3.5-11.2s1.5-6.9,2.3-9.9s1.7-5.7,2.5-8
		s1.8-4.2,2.2-6s0.6-3,0.8-4c0.1-0.4,0.1-0.8,0.2-1C84.1,280.2,84.1,280.1,84.1,280z"/>
	<path class="st0" d="M51.2,413c7.4-4.4,9.4-17.7,6.3-25.7s-8.5-15.2-9.4-23.8c-0.7-6.5,1.4-13.3-0.1-19.7
		c-2.1-8.6-10.6-15.3-10.5-24.2c0-5,2.8-9.7,2.6-14.7c-0.3-6.1-5-10.9-8-16.3c-4.4-8.2-4.8-18-6.4-27.2s-5.1-19.1-13.3-23.6
		c-1.2,7.9-3.2,13.2-2.5,23.9c0.2,3.8,4.7,11.1,5.4,19.4c0.4,5,0.7,10,1,15c0.3,5,0.7,9.8,2.4,14.4c1.4,3.5,3.5,6.6,4.5,10.2
		c1.9,6.8-0.5,14.1,1,21c1.3,5.8,5.4,10.8,6.2,16.7c1.2,8.3-4.1,16.9-1.3,24.8c1.4,3.9,4.6,7,5.6,11.1c0.7,3.1,0,6.5,0.6,9.6
		c1.1,5.1,10.8,9,16,8.6"/>
	<path class="st3" d="M14.3,245.7c0,0.1,0,0.3,0,0.4c0,0.3,0.1,0.8,0.2,1.3c0.2,1.1,0.4,2.8,0.8,4.9s1.6,4.6,2.5,7.5
		s1.9,6.3,2.8,10.1s1.6,8,2.3,12.5s1.6,9.4,3.9,14.1c1,2.4,2.2,4.7,3.1,7.2c0.9,2.6,1.4,5.2,1.6,8c0.4,5.7,1.2,11.5,2.2,17.1
		c2.3,11.6,4.5,22.7,6.5,32.7c2,10.1,4,19,5.6,26.6s2.9,13.7,3.8,18c0.5,2.1,0.8,3.7,1.1,4.9c0.1,0.5,0.2,0.9,0.3,1.3
		c0,0.1,0.1,0.3,0.1,0.4c0-0.1,0-0.3,0-0.4c-0.1-0.3-0.1-0.8-0.2-1.3c-0.2-1.2-0.6-2.8-1-4.9c-0.9-4.3-2.1-10.4-3.6-18
		s-3.4-16.6-5.5-26.7s-4.2-21.1-6.5-32.7c-1.1-5.6-1.8-11.4-2.3-17.1c-0.2-2.8-0.8-5.5-1.7-8.1c-0.9-2.6-2.1-4.9-3.1-7.2
		c-2.2-4.6-3.1-9.4-3.9-13.9s-1.5-8.7-2.5-12.5c-0.8-3.4-1.7-6.8-2.9-10.1c-1-2.9-2.1-5.3-2.6-7.5s-0.7-3.8-0.9-4.9l-0.2-1.3
		C14.4,246,14.4,245.9,14.3,245.7z"/>
	<path class="st1" d="M396.4,400.1c-18.3-10.9-23.9-33.1-24.7-53.4c-0.1-3.4-0.8-6.9,0.6-10s5-5.4,8.1-4.2c2.6,1,3.9,3.8,5.5,6.1
		c2.1,3.1,5.1,5.5,8.5,7c2.2,1,5,1.5,7,0.1c2.8-1.8,2.9-5.9,2.6-9.2c-0.5-6.3-1-12.5-1.5-18.8c-0.3-3.4-0.5-6.8,0.3-10.1
		s2.9-6.4,6-7.5s7.2,0.4,8.1,3.7c0.2,1.4,0.4,2.8,0.4,4.2c0.2,1.4,1,2.9,2.3,3.2s2.6-0.8,3.6-1.8c3.2-3.6,5.2-8.2,7.1-12.7
		s3.7-9.1,6.6-13.1s7-7.2,11.8-7.8s10.1,2,11.7,6.6s-0.8,9.7-3.6,13.7c-4,6-8.9,11.4-14.5,16.1c-1.1,0.7-1.9,1.8-2.4,3
		c-0.6,2.3,1.7,4.4,4,4.9c2.6,0.6,5.3,0.2,7.9,0.3s5.6,1.1,6.7,3.5c1.6,3.3-1,7.1-3.6,9.7c-5.3,5.1-11.5,9.3-18.2,12.4
		c-2.4,1.1-5,2.1-6.8,4s-2.9,5-1.5,7.3s4.5,2.8,7.1,2.1s4.8-2.2,7.2-3.4c4.5-2.1,10.5-2.2,13.7,1.6c2.1,2.5,2.6,6.1,1.8,9.3
		c-0.9,3.2-2.4,6.1-4.5,8.7c-6.7,9.3-15.7,16.7-26.2,21.5C417.2,401.6,407.4,403.3,396.4,400.1"/>
	<path class="st0" d="M399.7,401.1c0.1-8.1-1.3-3.6,1-14c2.5-11.3,5.7-22.4,9.6-33.3c1-2.9,2-5.8,3-8.6s1.9-5.6,3.1-8.3
		c2.2-5.1,4.6-10.1,7.3-15c2.5-4.7,5.1-9,7.6-13s4.8-7.8,7.1-11c3.6-5.2,7.6-10.1,12-14.7c1.5-1.6,2.8-2.8,3.6-3.7l1-0.9
		c0.1-0.1,0.2-0.2,0.4-0.3c-0.1,0.1-0.2,0.2-0.3,0.4l-0.9,1c-0.8,0.9-2,2.1-3.6,3.7c-4.3,4.6-8.3,9.6-11.8,14.8
		c-2.3,3.3-4.6,7-7.1,11.1s-5,8.4-7.5,13.1c-2.7,4.9-5.1,9.9-7.2,15c-1.1,2.7-2.1,5.4-3,8.3s-2,5.7-3,8.6c-3.8,10.9-7,22-9.6,33.3
		c-2.3,10.4-0.9,5.9-1.1,13.9"/>
	<path class="st0" d="M416.5,336.8c-0.2-0.5-0.3-0.9-0.4-1.4c-0.2-0.9-0.6-2.2-0.9-3.9c-0.7-3.3-1.6-7.9-2.5-13s-1.8-9.7-2.6-13
		c-0.4-1.6-0.7-3-0.9-3.9c-0.2-0.5-0.3-1-0.3-1.5c0.2,0.4,0.4,0.9,0.5,1.4c0.3,0.9,0.7,2.2,1.1,3.9c0.9,3.3,1.9,7.9,2.8,13
		s1.7,9.6,2.3,13c0.3,1.6,0.5,2.9,0.7,4C416.4,335.8,416.5,336.3,416.5,336.8z"/>
	<path class="st0" d="M459.1,325.5c-0.6,0.2-1.1,0.3-1.7,0.3c-1.1,0.2-2.7,0.4-4.7,0.8c-3.9,0.7-9.3,1.9-15.2,3.5
		s-11.2,3.2-14.9,4.5c-1.9,0.6-3.4,1.2-4.5,1.6c-0.5,0.2-1.1,0.4-1.7,0.5c0.5-0.3,1-0.6,1.6-0.8c1-0.5,2.5-1.1,4.4-1.8
		c3.8-1.4,9-3.1,14.9-4.7c5-1.4,10.2-2.5,15.3-3.3c2-0.3,3.6-0.5,4.7-0.6C458,325.5,458.5,325.5,459.1,325.5z"/>
	<path class="st0" d="M401.2,386.2c-0.1-0.2-0.2-0.3-0.3-0.5c-0.2-0.4-0.5-0.9-0.9-1.5c-0.7-1.3-1.8-3.2-3-5.6
		c-2.5-4.8-5.6-11.5-9-19s-6.5-14.2-8.9-19.1c-1.1-2.4-2.1-4.3-2.8-5.7l-0.7-1.6c-0.1-0.2-0.2-0.4-0.2-0.6c0.1,0.2,0.2,0.3,0.3,0.5
		c0.2,0.4,0.5,0.9,0.9,1.5c0.7,1.3,1.8,3.2,3,5.6c2.5,4.8,5.6,11.5,9,19s6.5,14.2,8.9,19.1c1.2,2.4,2.1,4.3,2.8,5.7
		c0.3,0.6,0.5,1.1,0.8,1.6C401.1,385.8,401.1,386,401.2,386.2z"/>
	<path class="st0" d="M457.3,363.5c-0.2,0.1-0.4,0.2-0.5,0.3l-1.6,0.7c-1.5,0.6-3.5,1.5-6,2.5c-5.1,2.1-12,5-19.7,8.3
		s-14.7,6.1-19.8,8.1c-2.6,1-4.6,1.8-6.1,2.3l-1.7,0.6c-0.2,0.1-0.4,0.1-0.6,0.2c0.2-0.1,0.4-0.2,0.5-0.3l1.6-0.7l6-2.5
		c5.1-2.1,12-5,19.8-8.3s14.7-6.1,19.8-8.1c2.6-1,4.6-1.8,6.1-2.3l1.7-0.6C456.9,363.6,457.1,363.5,457.3,363.5z"/>
</g>
<g id="freepik--Floor--inject-2">
	<path class="st4" d="M447.2,410.4c0,0.1-98.2,0.3-219.3,0.3S8.5,410.5,8.5,410.4s98.2-0.3,219.4-0.3S447.2,410.2,447.2,410.4z"/>
</g>
<g id="freepik--character-4--inject-2">
	<path class="st4" d="M363.9,53.2c-7.2-3.1-15.5,1.3-18.7,6.2s-4.6,10.7-5.5,16.5c-1.9,11.9-2.2,24-0.9,36c0.4,3.5,1.1,7.4,3.8,9.7
		s6.3,2.4,9.6,1.8c3-0.5,6-1.7,8-4c3-3.6,2.6-8.8,2.3-13.5c-1.1-16.1,0.6-32.3,5-47.8"/>
	<path class="st4" d="M348.3,59.8c3.3-6.5,13.3-10.1,21.4-7.9c6.8,1.8,14.1,8.8,14.6,16c0.7,10.4-4.9,21.1-1.6,31
		c3.9,11.5,18.2,17.1,21.9,28.7c1.5,4.9,1,10.1-1.6,14.5c-1.3,2.2-3.3,4.3-5.8,4.7c-3.2,0.5-6.1-1.6-8.6-3.6
		c-6.8-5.4-13.6-11-18.4-18.3c-5.5-8.6-7.7-19-7.8-29.3s1.7-20.4,3.6-30.4"/>
	<path class="st5" d="M376.8,72.4c1.1-8.4-4.9-16.2-13.4-17.2c-0.2,0-0.3,0-0.5-0.1c-8.2-0.8-15.5,5.3-16.8,13.5
		c-1.1,7.2-2,14.4-2,17c0.1,7.9,4.7,11,6.6,11.9c0.7,0.2,1.4,0.4,2.1,0.5l0,0c0,0,0,0,0,0.1l-1.8,9.1c-0.8,5.9,2.5,11.2,8.5,12.1
		s10.6-3.7,11.5-9.6L376.8,72.4z"/>
	<path class="st4" d="M348,72.6c-0.1,0.7,0.3,1.3,1,1.4c0.7,0.1,1.3-0.3,1.4-0.9c0,0,0,0,0,0c0.1-0.7-0.3-1.3-1-1.4
		C348.8,71.5,348.2,71.9,348,72.6C348,72.6,348,72.6,348,72.6z"/>
	<path class="st4" d="M348,70.8c0.1,0.2,1.2-0.4,2.5-0.2s2.2,1,2.4,0.9s0-0.4-0.4-0.8c-0.5-0.5-1.2-0.8-1.9-0.9
		c-0.7-0.1-1.4,0-2,0.3C348.2,70.5,348,70.7,348,70.8z"/>
	<path class="st4" d="M360.7,74.6c-0.1,0.7,0.3,1.3,1,1.4c0.6,0.2,1.3-0.2,1.4-0.9c0,0,0,0,0,0c0.1-0.7-0.3-1.3-1-1.4
		C361.5,73.6,360.9,74,360.7,74.6C360.7,74.6,360.7,74.6,360.7,74.6z"/>
	<path class="st4" d="M361.2,73c0.1,0.2,1.2-0.4,2.5-0.2s2.2,1,2.4,0.9s0-0.4-0.4-0.8c-0.5-0.5-1.2-0.8-1.9-0.9
		c-0.7-0.1-1.4,0-2,0.3C361.3,72.6,361.1,72.9,361.2,73z"/>
	<path class="st4" d="M354.9,82.2c-0.7-0.3-1.4-0.6-2.1-0.7c-0.3-0.1-0.6-0.2-0.7-0.4c0-0.4,0.2-0.7,0.4-1c0.4-0.8,0.9-1.6,1.4-2.4
		c1.3-2.1,2.3-4.2,3.3-6.5c-1.4,2-2.7,4-3.8,6.2c-0.5,0.9-0.9,1.7-1.4,2.5c-0.3,0.4-0.4,0.9-0.4,1.4c0.1,0.3,0.2,0.5,0.5,0.6
		c0.2,0.1,0.4,0.1,0.6,0.2C353.4,82.1,354.1,82.2,354.9,82.2z"/>
	<path class="st6" d="M353,98.2c0,0,5.1,1.2,12.1-1.8c0,0-3,6.5-12.6,4.2L353,98.2z"/>
	<path class="st6" d="M355,85.5c0.6-0.6,1.5-0.8,2.3-0.6c0.6,0.1,1.1,0.5,1.4,1c0.3,0.5,0.2,1.2-0.1,1.6c-0.5,0.4-1.2,0.5-1.8,0.2
		c-0.6-0.3-1.1-0.8-1.6-1.3c-0.1-0.1-0.2-0.3-0.3-0.4C354.7,85.8,354.8,85.6,355,85.5"/>
	<path class="st4" d="M358.7,83.7c-0.2,0-0.4,1.4-1.8,2.3s-2.9,0.5-3,0.7s0.3,0.3,1,0.4c0.9,0.1,1.7,0,2.5-0.5
		c0.7-0.4,1.2-1.1,1.4-1.9C358.9,84.1,358.8,83.7,358.7,83.7z"/>
	<path class="st4" d="M360.9,70.5c0.1,0.4,1.4,0.4,3,0.8s2.8,1,3,0.7c0.1-0.1,0-0.5-0.5-0.9c-0.6-0.5-1.4-0.9-2.1-1.1
		c-0.8-0.2-1.6-0.2-2.4-0.1C361.2,70.2,360.9,70.4,360.9,70.5z"/>
	<path class="st4" d="M348.9,68.2c0.2,0.3,1.2,0.2,2.3,0.3s2,0.5,2.3,0.2s0-0.5-0.4-0.8c-0.5-0.4-1.1-0.7-1.8-0.8
		c-0.7-0.1-1.3,0-1.9,0.3C349,67.7,348.9,68,348.9,68.2z"/>
	<path class="st4" d="M352.4,56.2c1,6.1,5.4,11.2,11.3,13l-0.5-2.2c2.6,5.1,7.1,9.1,12.5,11.1c4.4-7.5,1.9-17.2-5.6-21.7
		c-5.6-3.3-12.5-2.8-17.7,1.1"/>
	<path class="st4" d="M403.6,133.7c0.6-0.7,1.1-1.6,1.5-2.4c1.1-2.4,1.3-5,0.8-7.6c-0.4-1.8-1-3.5-1.9-5c-1.1-1.8-2.3-3.4-3.8-4.9
		c-3-3.2-7-6-10.6-9.6c-1.8-1.7-3.3-3.8-4.4-6c-1-2.1-1.6-4.4-1.9-6.7c-0.4-3.9-0.4-7.8,0-11.7c0.2-3.3,0.5-6,0.7-7.8
		c0.1-0.9,0.1-1.6,0.2-2.1c0-0.2,0.1-0.5,0.1-0.7c0,0.2,0,0.5,0,0.8c0,0.5-0.1,1.2-0.1,2.1c-0.1,1.9-0.3,4.6-0.5,7.8
		c-0.3,3.9-0.3,7.7,0.2,11.6c0.3,2.3,0.9,4.4,1.9,6.5c1.1,2.2,2.5,4.2,4.3,5.9c3.6,3.6,7.5,6.4,10.5,9.6c1.5,1.5,2.7,3.2,3.8,5
		c0.9,1.6,1.6,3.3,1.9,5.1c0.5,2.6,0.2,5.3-1,7.7c-0.3,0.6-0.7,1.2-1.2,1.8C404,133.4,403.8,133.6,403.6,133.7z"/>
	<path class="st7" d="M411.3,379.2l4.7,23.2l9,17.3c0.6,1.2,0.2,2.7-1,3.3c-0.1,0-0.1,0.1-0.2,0.1l0,0c-0.7,0.3-1.5,0.3-2.2-0.1
		c-4.3-2.6-20.1-12.1-20.3-13.9c-0.3-2-6.6-24.2-6.6-24.2L411.3,379.2z"/>
	<g class="st8">
		<path class="st2" d="M423.9,423.1L401,407.6l0.2,1c0.2,0.8,0.7,1.6,1.4,2.1c1.9,1.4,7.1,5.1,19,12.4
			C422.3,423.5,423.1,423.5,423.9,423.1L423.9,423.1z"/>
	</g>
	<g class="st8">
		<path class="st2" d="M404,399c0.7,0.3,1,1.1,0.8,1.8c-0.3,0.7-1,1.1-1.8,0.8c-0.7-0.3-1.1-1.1-0.9-1.9c0.4-0.7,1.2-1,1.9-0.7"/>
	</g>
	<path class="st4" d="M416.3,414.2c0.4-0.8,0.9-1.6,1.6-2.3c0.8-0.5,1.6-0.9,2.5-1.1c0-0.1-0.3-0.2-0.9-0.1
		c-1.5,0.2-2.8,1.2-3.2,2.6C416.2,413.9,416.2,414.2,416.3,414.2z"/>
	<path class="st4" d="M418.6,417c0.1,0.1,0.7-0.9,1.8-1.5c0.7-0.3,1.5-0.6,2.2-0.8c-0.8-0.3-1.7-0.1-2.5,0.4
		C418.9,415.8,418.5,416.9,418.6,417z"/>
	<path class="st4" d="M412.3,411c0.8-0.9,1.7-1.7,2.7-2.5c1-0.6,2.1-1.1,3.2-1.6C415.6,407,413.3,408.6,412.3,411L412.3,411z"/>
	<path class="st4" d="M410.3,404c0.1,0.1,1.2-0.7,2.9-1.1s3-0.3,3.1-0.5C414.1,401.8,411.8,402.4,410.3,404L410.3,404z"/>
	<path class="st4" d="M408.7,397.2c0.9-0.5,1.9-1,3-1.3c1.1-0.1,2.2-0.1,3.2,0.1c0-0.1-0.3-0.3-0.9-0.5c-1.6-0.5-3.4-0.1-4.7,0.9
		C408.9,396.9,408.7,397.2,408.7,397.2z"/>
	<path class="st4" d="M411.4,394.7c0-0.3,0-0.6-0.2-0.9c-0.3-0.8-0.7-1.5-1.2-2.1c-0.4-0.5-0.9-0.8-1.5-1c-0.4-0.1-0.8,0.1-1,0.5
		c-0.2,0.3-0.2,0.8-0.1,1.1c0.5,1.6,2,2.6,3.6,2.4c1.6-0.2,2.9-1.3,3.4-2.9c0.1-0.4,0-0.8-0.2-1.1c-0.3-0.3-0.7-0.4-1.1-0.3
		c-0.5,0.3-1,0.6-1.3,1.1c-0.5,0.6-0.9,1.4-1.2,2.2c-0.1,0.3-0.2,0.6-0.2,0.9c0.4-1,1-2,1.6-2.8c0.3-0.4,0.7-0.8,1.2-1
		c0.2-0.1,0.5,0,0.6,0.1c0.1,0.2,0.2,0.5,0.1,0.8c-0.4,1.3-1.6,2.3-3,2.5c-1.4,0.1-2.7-0.7-3.1-2c-0.1-0.3-0.1-0.5,0-0.8
		c0.1-0.2,0.3-0.3,0.6-0.3c0.5,0.1,0.9,0.4,1.2,0.9C410.4,392.8,411,393.7,411.4,394.7z"/>
	<path class="st7" d="M348.5,381.7l1.1,18.9c0,0-18.8,7.5-19,11l36.7-0.8l-0.5-29.5L348.5,381.7z"/>
	<g class="st8">
		<path class="st2" d="M360.9,398.7c0.7,0.2,1.2,0.9,1.1,1.7c-0.2,0.7-0.9,1.2-1.7,1.1c-0.8-0.2-1.3-1-1.1-1.8
			c0.3-0.8,1.1-1.2,1.9-0.9"/>
	</g>
	<g class="st8">
		<path class="st2" d="M367.3,410.7l-0.2-3l-35.1,1.9c0,0-1.6,0.8-1.4,1.9L367.3,410.7z"/>
	</g>
	<path class="st4" d="M349,400.4c0,0.2,0.9,0.2,1.8,0.8s1.4,1.3,1.5,1.2s-0.1-1.1-1.2-1.8S349,400.2,349,400.4z"/>
	<path class="st4" d="M345.2,402.1c0,0.2,0.8,0.5,1.4,1.2s0.8,1.5,1,1.5s0.3-1-0.5-1.9S345.2,401.9,345.2,402.1z"/>
	<path class="st4" d="M343.1,406.7c0.2,0,0.4-0.9-0.1-1.8s-1.3-1.3-1.4-1.2s0.5,0.7,0.8,1.5S342.9,406.7,343.1,406.7z"/>
	<path class="st4" d="M349.2,396.1c0.1,0.2,0.9-0.1,1.9-0.1s1.8,0.4,1.9,0.2s-0.7-0.8-1.9-0.8S349.1,395.9,349.2,396.1z"/>
	<g class="st9">
		<polygon points="348.7,385.4 348.9,388.8 366.9,388.2 366.9,385.2 		"/>
	</g>
	<path class="st4" d="M349.1,392.2c0.6,0.1,1.2,0.1,1.8,0c0.7-0.1,1.3-0.3,1.9-0.6c0.3-0.2,0.7-0.4,1-0.6c0.2-0.1,0.4-0.3,0.5-0.4
		c0.3-0.3,0.3-0.7,0.1-1c-0.2-0.2-0.5-0.4-0.8-0.4c-0.2,0-0.5,0-0.7,0.1c-0.4,0.1-0.8,0.2-1.1,0.4c-0.6,0.3-1.2,0.7-1.7,1.1
		C349.3,391.6,349,392.3,349.1,392.2c0.1,0.1,0.5-0.4,1.4-1.1c0.5-0.4,1-0.7,1.6-1c0.3-0.1,0.7-0.3,1-0.4c0.4-0.1,0.7-0.1,0.8,0
		s0,0.1,0,0.2c-0.1,0.1-0.3,0.2-0.4,0.3c-0.3,0.2-0.7,0.4-1,0.6c-0.6,0.3-1.2,0.5-1.8,0.7C350.2,391.8,349.6,392,349.1,392.2z"/>
	<path class="st4" d="M349.3,392.5c0.3-0.5,0.5-1.2,0.4-1.8c0-0.7-0.1-1.4-0.3-2c-0.1-0.4-0.3-0.8-0.5-1.1c-0.2-0.5-0.7-0.8-1.2-0.9
		c-0.3,0-0.6,0.2-0.8,0.5c-0.1,0.2-0.2,0.4-0.2,0.7c-0.1,1.1,0.2,2.2,0.9,3.1c0.7,0.9,1.5,1.1,1.5,1.1s-0.6-0.4-1.1-1.3
		c-0.3-0.5-0.5-1.1-0.6-1.7c0-0.4,0-0.7,0-1.1c0-0.4,0.2-0.7,0.3-0.7s0.5,0.3,0.7,0.6c0.2,0.3,0.3,0.7,0.5,1
		c0.2,0.6,0.3,1.2,0.4,1.8C349.4,391.8,349.2,392.5,349.3,392.5z"/>
	<path class="st4" d="M377,179.7c0,0,10.8,23.4,12.4,30.2c1.6,6.8,31.7,187.3,31.7,187.3l-27.7,1.7l-37.6-176.5L371,397.7l-27.2,2.3
		c0,0-20.6-185.2-19.7-190.4c1.3-7.9,8-30.6,8-30.6L377,179.7z"/>
	<path class="st10" d="M355.7,221.3c0,0,0,0.1-0.2,0.3c-0.3,0.2-0.8,0.1-1.1-0.1c-0.4-0.4-0.6-1-0.6-1.6l-0.4-2.1
		c-0.5-3.2-1.2-7.6-1.9-12.5c-0.7-4.9-1.4-9.3-1.8-12.5c-0.2-1.5-0.4-2.8-0.5-3.8c-0.1-0.5-0.1-0.9-0.1-1.4c0.1,0.4,0.3,0.9,0.3,1.4
		c0.2,1,0.4,2.2,0.6,3.8c0.5,3.2,1.2,7.6,2,12.5c0.8,4.9,1.4,9.3,1.8,12.5c0.1,0.8,0.2,1.5,0.3,2.2c0,0.5,0.2,1,0.5,1.5
		c0.2,0.2,0.6,0.3,0.9,0.2C355.6,221.4,355.7,221.3,355.7,221.3z"/>
	<path class="st10" d="M352.9,191.1c0,0,0-0.2,0.3-0.3c0.3-0.2,0.7-0.2,1.1-0.2c0.6,0.1,1.1,0.6,1.2,1.2c0.1,0.7-0.2,1.5-0.9,1.8
		c-0.7,0.3-1.5,0.2-2-0.3c-0.4-0.4-0.6-1-0.5-1.6c0.2-1,0.9-1.2,0.9-1.1c-0.3,0.3-0.5,0.7-0.5,1.2c-0.1,0.4,0.1,0.9,0.4,1.2
		c0.4,0.4,1,0.4,1.5,0.2c0.5-0.3,0.7-0.8,0.6-1.3c-0.1-0.4-0.4-0.8-0.8-0.9C353.7,190.9,353.3,191,352.9,191.1z"/>
	<path class="st5" d="M305.3,76.3l-17-26.2l0,0l-5.2-8.6c0,0-1.5-8.6-2.3-11.1c-1.5-5-2-4.9-2.5-4.6c-1.5,0.7,2.3,8.9,0.5,7.6
		s-3.5-10.5-5-9.7c-2,1.1,2.2,9.6,2.5,10.3s-0.8,1.2-1,0.5c-0.3-1-4.1-11.2-6.1-10.2c-1.1,0.6,0.1,2.4,0.1,2.4s4.2,9.3,3.3,9.8
		s-3.6-4.9-4.4-6.8s-2-2.2-2.5-1.2c-0.4,0.7,1.9,6.5,2.7,8.4s3.1,6.9,0,5.3s-6.1-1.6-7-1c-0.5,0.4-0.5,1.1-0.1,1.6
		c0.2,0.3,0.5,0.4,0.9,0.4c1.2,0.2,2.3,0.5,3.4,0.9c0.9,0.3,1.7,0.8,2.4,1.4c0.9,0.7,1.5,1.4,2.1,1.9l4.2,8.8l0,0L293,92.8
		l38.9,32.2l9.8-17.7L305.3,76.3z"/>
	<path class="st5" d="M405.8,222.5c0.2,0.8,0.5,1.7,0.8,2.8c0.2,0.9,0.3,1.9,0.2,2.8c-0.1,1.2-0.3,2.3-0.7,3.5c-0.5,1,0.5,2,1.4,1.6
		s2.2-3.1,2.3-6.6s3.5,0.8,4.7,2.4s5.4,6.2,6.2,6.2c1.2,0,1.4-1.3,0-2.8s-4.9-6.4-4-7s7.2,7.4,7.2,7.4s1.1,1.9,2.1,1.2
		c1.8-1.3-5.5-9.3-6.3-10.1c-0.5-0.5,0.4-1.2,0.9-0.6s6.1,8.2,8,6.9c1.4-1-6-6.7-6.3-8.9s5.2,4.9,6.5,3.9c0.5-0.4,0.8-0.7-2.9-4.3
		c-1.8-1.8-8.8-7.1-8.8-7.1l-14.8-48.6l-18.4,0.3L405.8,222.5z"/>
	<path class="st7" d="M349,107.3L349,107.3c-3-1.1-5.9-2.5-8.8-3.9l-29.1-22.1l-13,17.4c0,0,33.2,30,33.8,29.8S349,107.3,349,107.3z
		"/>
	<path class="st7" d="M351.2,107.2l-2.2,0.1c-6.4,0.2-11.9,4.4-13.9,10.4c-2.2,6.7-2.1,8.9-3.6,13.9c-3.7,11.9,2.9,26.4,2.9,26.4
		l-2.3,21l44.9,0.8l2.3-25.3l8.4-37.8c0,0-1.9-8.1-9-8.8C375,107.5,351.2,107.2,351.2,107.2z"/>
	<path class="st7" d="M380,108.5c0,0,10.6-0.1,13.9,12.2s9.7,44.5,9.7,44.5l-20.2,6.1L372.6,127c-0.8-2.5-1-5.1-0.9-7.8
		C372,114.8,373.7,109.1,380,108.5z"/>
	<polygon class="st7" points="348,107.8 351.6,101 357.6,104.4 357.6,107.4 359.5,104.4 373.6,101 373.6,109.4 357.1,111.2 	"/>
	<path class="st4" d="M336.9,118.2c-0.2,0.5-0.5,1-0.8,1.4c-0.3,0.4-0.6,1-0.9,1.7s-0.7,1.4-1.1,2.3s-0.8,1.8-1.1,2.8
		s-0.7,2.2-1,3.3c-1.3,5.2-1.7,10.5-1,15.8c0.2,1.2,0.3,2.4,0.6,3.4c0.2,1,0.4,2,0.7,2.9c0.2,0.9,0.5,1.7,0.8,2.4
		c0.2,0.6,0.4,1.2,0.7,1.8c0.2,0.5,0.4,1,0.5,1.5c-0.3-0.5-0.5-0.9-0.7-1.5c-0.3-0.6-0.5-1.2-0.8-1.8c-0.2-0.7-0.6-1.5-0.8-2.4
		c-0.3-1-0.6-2-0.8-3c-0.3-1.1-0.4-2.2-0.6-3.5c-0.3-2.7-0.4-5.3-0.3-8c0.2-2.7,0.6-5.3,1.3-8c0.4-1.2,0.7-2.3,1.1-3.3
		c0.3-1,0.7-1.9,1.2-2.8c0.3-0.8,0.7-1.5,1.1-2.2c0.3-0.6,0.6-1.1,1-1.6C336.3,119,336.6,118.6,336.9,118.2z"/>
	<path class="st4" d="M356.5,103.9c-0.1,0.7-0.3,1.4-0.5,2.1c-0.4,1.2-1,3-1.6,4.8c-0.1,0.3-0.2,0.6-0.3,0.9l-0.1,0.3l-0.3-0.2
		c-1.3-0.8-2.5-1.7-3.6-2.8c-0.5-0.4-0.9-0.9-1.2-1.4c1.6,1.3,3.3,2.6,5,3.7l-0.4,0.1l0.3-0.9c0.7-1.9,1.3-3.6,1.8-4.8
		C355.8,105.2,356.1,104.5,356.5,103.9z"/>
	<path class="st4" d="M368.1,110.2c-0.7,0.4-1.4,0.7-2.1,0.9c-1.3,0.5-3.2,1.2-5.3,1.9l-0.3,0.1v-0.3v-0.3c-0.3-2.2-0.6-4.3-0.8-5.7
		c-0.1-0.8-0.2-1.6-0.2-2.4c0.3,0.8,0.4,1.5,0.5,2.4c0.3,1.4,0.6,3.5,0.9,5.7v0.3l-0.3-0.2c2.1-0.7,4-1.3,5.4-1.7
		C366.6,110.4,367.4,110.3,368.1,110.2z"/>
	<path class="st4" d="M375.6,170.8c2,2.1,2.5,5.3,1.3,7.9c0.2-1.4,0.2-2.7,0-4.1C376.6,173.3,376.1,172,375.6,170.8z"/>
	<path class="st11" d="M401.9,158.1c-0.9,0.4-1.9,0.7-2.9,0.9c-1.8,0.5-4.3,1-7.1,1.6s-5.3,0.9-7.2,1.1c-1,0.2-2,0.2-3,0.2
		c1-0.3,2-0.5,3-0.6c1.8-0.3,4.4-0.7,7.1-1.2c2.8-0.5,5.3-1,7.1-1.4C399.9,158.4,400.9,158.2,401.9,158.1z"/>
	<path class="st11" d="M399.6,145.9c-1,0.5-2,0.8-3,1.1c-1.9,0.6-4.5,1.3-7.3,2s-5.5,1.4-7.4,1.8c-1,0.3-2,0.6-3.1,0.7
		c1-0.5,2-0.8,3-1.1c1.9-0.6,4.5-1.3,7.3-2c2.9-0.7,5.5-1.3,7.4-1.8C397.5,146.3,398.5,146.1,399.6,145.9z"/>
	<path class="st4" d="M383.4,171.3c-0.2-0.4-0.3-0.8-0.4-1.2c-0.2-0.9-0.5-1.9-0.8-3.2c-0.7-2.7-1.5-6.5-2.5-10.7
		c-0.9-4.2-1.8-8-2.3-10.7c-0.3-1.3-0.5-2.4-0.6-3.3c-0.1-0.4-0.2-0.8-0.2-1.2c0.2,0.4,0.3,0.8,0.4,1.2l0.8,3.2
		c0.7,2.7,1.5,6.5,2.5,10.7s1.8,8,2.3,10.7c0.3,1.3,0.5,2.4,0.6,3.3C383.3,170.5,383.4,170.9,383.4,171.3z"/>
	<path class="st11" d="M398.5,136.5c0,0.1-15.1-0.1-33.6-0.6s-33.6-1-33.6-1.2s15.1,0.1,33.6,0.6S398.5,136.3,398.5,136.5z"/>
	<path class="st11" d="M393.3,119.3c-0.2,0.1-0.4,0.1-0.6,0.1l-1.7,0.1c-1.5,0.1-3.6,0.3-6.2,0.4c-5.2,0.3-12.4,0.6-20.4,0.9
		s-15.2,0.3-20.4,0.2c-2.6,0-4.7,0-6.2-0.1l-1.7-0.1c-0.2,0-0.4,0-0.6-0.1c0.2,0,0.4,0,0.6,0l1.7-0.1l6.2-0.1
		c5.2-0.1,12.4-0.2,20.4-0.4s15.1-0.5,20.4-0.7l6.2-0.2h1.7C392.9,119.4,393.1,119.3,393.3,119.3z"/>
	<path class="st11" d="M321.3,120.1c-0.1-0.1,3.3-4.2,7.7-9.2s8-9,8.1-8.9s-3.3,4.2-7.7,9.2S321.4,120.2,321.3,120.1z"/>
	<path class="st11" d="M377.7,155.1c0,0.1-10.3-0.8-22.9-2c-12.6-1.2-22.9-2.4-22.9-2.5c0-0.2,10.3,0.8,22.9,2
		C367.5,153.8,377.7,155,377.7,155.1z"/>
	<path class="st11" d="M378.2,169c0,0.1-10,0-22.3-0.2c-12.3-0.2-22.2-0.6-22.2-0.8c0-0.1,10,0,22.3,0.2
		C368.2,168.5,378.2,168.9,378.2,169z"/>
	<path class="st4" d="M348,178.8c0-0.2,0-0.5,0-0.7c0-0.5,0-1.2,0-2.1c0-1.8,0.1-4.5,0.4-7.8c0.1-1.6,0.2-3.4,0.5-5.4s0.5-4,0.8-6.1
		c0.5-4.3,1-9.1,1.5-14c0.7-8.5,1.9-17,3.6-25.4c0.7-3.2,1.5-5.8,2-7.5c0.3-0.8,0.5-1.5,0.7-2c0.1-0.2,0.2-0.5,0.3-0.7
		c0,0.2-0.1,0.5-0.2,0.7c-0.2,0.5-0.4,1.2-0.6,2c-0.5,1.8-1.2,4.3-1.9,7.5c-1.6,8.4-2.8,16.9-3.5,25.4c-0.5,5-1,9.7-1.5,14
		c-0.3,2.1-0.6,4.2-0.8,6.1s-0.4,3.7-0.5,5.3c-0.3,3.3-0.4,5.9-0.5,7.8l-0.1,2.1C348.1,178.3,348.1,178.5,348,178.8z"/>
	<rect x="364.3" y="134.6" class="st11" width="10.9" height="2.8"/>
	<g class="st9">
		<path d="M376.9,143.2c-4.9,7.7-4.6,17.5,0.8,24.9c0.7-4.7,1.3-9.3,2-14"/>
	</g>
	<path class="st4" d="M370.6,73.4c1.3,2.6,0.6,5.8-0.3,8.6c-0.9,2.8-2.1,5.6-1.9,8.5c0.2,2.7,1.7,5.2,1.9,7.9
		c0.5,4.6-2.5,8.7-3.7,13.1c-1.5,5.8-0.1,12,3.9,16.5c0.4,0.5,0.9,0.8,1.5,0.9c0.7-0.1,1.3-0.7,1.4-1.4c0.1-0.7,0.1-1.4,0-2.1
		c-0.5-6.5,5.7-11.8,6.6-18.3c0.6-4.2-1.1-8.4-1.4-12.7c-0.3-5.4,1.7-10.6,2.4-15.9c0.3-1.8,0.2-3.7-0.3-5.4
		c-0.5-1.8-1.9-3.2-3.7-3.8c-1.8-0.5-3.8,0.4-4.5,2.2"/>
</g>
<g id="freepik--character-3--inject-2">
	<path class="st12" d="M249.5,113.4l-21.2,13.4l15-41.1l4-8.1c0.5-0.7,1.2-1.5,2-2.3c0.7-0.8,1.5-1.4,2.5-1.9
		c1.1-0.6,2.3-1.1,3.6-1.4c0.7,0,1.1-0.6,1.1-1.3c0-0.4-0.2-0.7-0.5-0.9c-1-0.5-4.2-0.1-7.4,2s-1.4-3.6-0.7-5.7s2.3-8.6,1.8-9.3
		c-0.7-1-2-0.4-2.5,1.7s-2.8,8.3-3.9,7.9s2.3-11,2.3-11s1.1-2.2-0.1-2.6c-2.2-0.9-5,10.6-5.2,11.7c-0.2,0.8-1.4,0.4-1.1-0.4
		s3.6-10.5,1.3-11.4c-1.8-0.7-2.4,9.5-4.2,11.1s1.2-7.7-0.5-8.3c-0.6-0.2-1.1-0.3-2.1,5.3c-0.5,2.7-1,12.2-1,12.2l-4.9,9.7l0.1,0.1
		l-20.2,42.6c-3.9,10.2,2.4,18.5,8.8,22.2l0,0c5.9,3.5,13.3,3.3,19-0.5l24.5-16.3L249.5,113.4z"/>
	<path class="st12" d="M363.3,203.4c0.5,0.8,1.1,1.6,1.7,2.7c0.5,0.9,0.9,1.9,1.1,3c0.3,1.3,0.4,2.7,0.3,4c-0.2,0.7,0.2,1.3,0.9,1.5
		c0.4,0.1,0.8,0,1.1-0.3c0.8-0.8,1.4-4.1,0.4-7.9s4-0.2,5.9,1.1s7.8,5,8.7,4.7c1.2-0.4,1.1-1.8-0.8-3s-7.3-5.4-6.6-6.3
		c0.7-0.9,10.1,5.7,10.1,5.7s1.8,1.7,2.6,0.7c1.6-1.9-8.9-8.3-9.9-8.9c-0.7-0.4,0-1.5,0.8-1c0.8,0.5,9.2,6.9,10.8,4.9
		c1.2-1.5-8.6-5.3-9.6-7.6s7.2,3.7,8.3,2.2c0.4-0.6,0.7-1-4.5-3.8c-2.5-1.3-11.7-4.9-11.7-4.9l-56.5-73l-16.4,14.8L363.3,203.4z"/>
	<path class="st10" d="M262.7,382l1.1,18.5c0,0-18.5,7.3-18.6,10.8l36-0.2l-0.5-29.5L262.7,382z"/>
	<g class="st8">
		<path class="st2" d="M274.8,398.7c0.7,0.2,1.2,0.9,1.1,1.7c-0.2,0.7-0.9,1.2-1.6,1.1c-0.8-0.2-1.2-1-1.1-1.8
			c0.3-0.7,1.1-1.1,1.8-0.9"/>
	</g>
	<g class="st8">
		<path class="st2" d="M281.1,411.1v-3l-34.6,1.3c0,0-1.6,0.7-1.4,1.9L281.1,411.1z"/>
	</g>
	<path class="st4" d="M263.2,400.3c0,0.2,0.9,0.2,1.8,0.8s1.4,1.3,1.5,1.2s-0.1-1.1-1.2-1.7S263.1,400.1,263.2,400.3z"/>
	<path class="st4" d="M259.4,402c0,0.2,0.7,0.5,1.4,1.2s0.8,1.5,1,1.5s0.3-1-0.5-1.9S259.4,401.8,259.4,402z"/>
	<path class="st4" d="M257.4,406.5c0.2,0,0.4-0.9-0.1-1.8s-1.3-1.3-1.4-1.2s0.5,0.6,0.8,1.4S257.2,406.5,257.4,406.5z"/>
	<path class="st4" d="M263.4,396.1c0.1,0.2,0.9-0.1,1.9,0s1.8,0.3,1.9,0.2s-0.7-0.8-1.8-0.8S263.3,395.9,263.4,396.1z"/>
	<path class="st4" d="M263.2,392.3c0.6,0.2,1.2,0.1,1.8,0c0.6-0.1,1.3-0.3,1.9-0.6c0.3-0.2,0.7-0.4,1-0.6c0.2-0.1,0.4-0.3,0.5-0.4
		c0.2-0.3,0.3-0.6,0.1-0.9c-0.2-0.2-0.5-0.4-0.8-0.4c-0.2,0-0.5,0-0.7,0.1c-0.4,0.1-0.8,0.2-1.1,0.4c-0.6,0.3-1.2,0.7-1.6,1.1
		c-0.8,0.8-1.1,1.5-1,1.5s0.5-0.5,1.3-1.2c0.5-0.4,1-0.7,1.6-1c0.3-0.1,0.7-0.2,1-0.3c0.4-0.1,0.7-0.1,0.8,0s0,0.1,0,0.2
		c-0.1,0.1-0.2,0.2-0.4,0.3c-0.3,0.2-0.6,0.4-0.9,0.6c-0.6,0.3-1.1,0.5-1.7,0.7C264.4,392,263.8,392.1,263.2,392.3z"/>
	<path class="st4" d="M263.5,392.6c0.3-0.5,0.5-1.1,0.4-1.8c0-0.7-0.1-1.4-0.3-2c-0.1-0.4-0.3-0.7-0.5-1.1c-0.2-0.5-0.7-0.8-1.2-0.9
		c-0.3,0-0.6,0.2-0.7,0.5c-0.1,0.2-0.1,0.4-0.2,0.7c-0.1,0.4-0.1,0.8,0,1.2c0.1,0.7,0.4,1.3,0.8,1.9c0.7,0.9,1.5,1.1,1.5,1
		s-0.6-0.4-1.1-1.3c-0.3-0.5-0.5-1.1-0.6-1.7c0-0.3,0-0.7,0-1c0-0.4,0.2-0.7,0.3-0.7s0.5,0.3,0.6,0.6c0.2,0.3,0.3,0.7,0.5,1
		c0.2,0.6,0.3,1.2,0.4,1.8C263.6,391.9,263.4,392.5,263.5,392.6z"/>
	<path class="st10" d="M325,381.7l1.4,18.5c0,0-18.3,7.6-18.4,11.1l36-1.4l-2.9-28.8L325,381.7z"/>
	<g class="st8">
		<path class="st2" d="M337.4,398.1c0.7,0.2,1.2,0.9,1.1,1.6c-0.2,0.7-0.9,1.2-1.6,1.1c-0.8-0.2-1.3-1-1.1-1.7
			c0.2-0.7,1-1.2,1.8-0.9"/>
	</g>
	<g class="st8">
		<path class="st2" d="M343.9,409.8l-0.2-2.9l-34.4,2.5c0,0-1.6,0.8-1.3,1.9L343.9,409.8z"/>
	</g>
	<path class="st4" d="M325.8,400c0,0.2,0.9,0.2,1.8,0.8s1.4,1.2,1.5,1.2s-0.1-1.1-1.2-1.7S325.7,399.9,325.8,400z"/>
	<path class="st4" d="M322.1,401.8c0,0.2,0.7,0.4,1.4,1.1s0.8,1.5,1,1.5s0.2-1-0.5-1.9S322.1,401.6,322.1,401.8z"/>
	<path class="st4" d="M320.1,406.4c0.2,0,0.4-0.9-0.1-1.8s-1.3-1.3-1.4-1.1s0.5,0.6,0.9,1.4S319.9,406.3,320.1,406.4z"/>
	<path class="st4" d="M325.9,395.8c0.1,0.2,0.9-0.1,1.9-0.1s1.8,0.3,1.9,0.2s-0.7-0.8-1.9-0.8S325.8,395.6,325.9,395.8z"/>
	<path class="st4" d="M325.7,392c0.6,0.1,1.2,0.1,1.8-0.1c0.6-0.1,1.3-0.4,1.9-0.6c0.3-0.2,0.7-0.4,1-0.6c0.2-0.1,0.4-0.3,0.5-0.5
		c0.2-0.3,0.2-0.7,0-0.9c-0.2-0.2-0.5-0.4-0.8-0.4c-0.2,0-0.5,0-0.7,0.1c-0.4,0.1-0.8,0.3-1.1,0.4c-0.6,0.3-1.1,0.7-1.6,1.2
		c-0.8,0.8-1.1,1.5-1,1.5s0.5-0.5,1.3-1.2c0.8-0.6,1.6-1.1,2.6-1.3c0.4-0.1,0.7-0.1,0.8,0s0,0.1,0,0.2c-0.1,0.1-0.2,0.2-0.4,0.3
		c-0.3,0.2-0.6,0.4-0.9,0.6c-0.5,0.3-1.1,0.5-1.7,0.7C326.8,391.6,326.2,391.8,325.7,392z"/>
	<path class="st4" d="M325.9,392.3c0.3-0.5,0.5-1.1,0.4-1.8c0-0.7-0.1-1.4-0.3-2c-0.1-0.4-0.3-0.7-0.5-1.1c-0.2-0.5-0.7-0.8-1.2-0.9
		c-0.3,0-0.6,0.2-0.7,0.5c-0.1,0.2-0.1,0.4-0.2,0.7c0,0.4,0,0.8,0,1.2c0.1,0.7,0.4,1.3,0.8,1.8c0.7,0.9,1.5,1.1,1.5,1
		s-0.6-0.4-1.1-1.3c-0.3-0.5-0.5-1.1-0.6-1.7c-0.1-0.3-0.1-0.7,0-1c0-0.4,0.2-0.7,0.3-0.7s0.5,0.3,0.6,0.6c0.2,0.3,0.4,0.7,0.5,1
		c0.2,0.6,0.4,1.2,0.4,1.8C326,391.6,325.8,392.3,325.9,392.3z"/>
	<path class="st12" d="M295.3,68.3l-3.5,41l-20.5-1.6c-0.1-2.4,0-11.7,0-11.7s-8.5-1.3-8.6-9.9c-0.1-4.2,0.5-12.7,1.2-20.4
		c0.7-8.6,8.1-15,16.7-14.5l0,0c8.7,0.5,15.3,8,14.8,16.7C295.3,68,295.3,68.1,295.3,68.3z"/>
	<path class="st13" d="M271.3,95.8c3.9,0.1,7.8-1,11.1-3.2c0,0-2.6,6.1-11.1,5.4L271.3,95.8z"/>
	<path class="st4" d="M265.9,72.7c0.1,0.2,1.1-0.5,2.4-0.4s2.2,0.8,2.4,0.6s-0.1-0.4-0.5-0.7c-1.1-0.9-2.6-0.9-3.8-0.2
		C266,72.3,265.8,72.6,265.9,72.7z"/>
	<path class="st4" d="M277.9,72.9c0.2,0.2,1.1-0.6,2.4-0.6s2.3,0.6,2.4,0.4s-0.1-0.4-0.5-0.7c-0.6-0.4-1.3-0.6-2-0.5
		c-0.7,0-1.3,0.3-1.9,0.7C277.9,72.5,277.8,72.8,277.9,72.9z"/>
	<path class="st4" d="M273.8,80.8c-0.7-0.2-1.4-0.4-2.1-0.4c-0.3,0-0.6-0.1-0.7-0.3c0-0.3,0-0.7,0.2-1c0.3-0.8,0.7-1.7,1-2.6
		c0.9-2.2,1.7-4.4,2.2-6.7c-1.1,2.1-2,4.3-2.8,6.5c-0.3,0.9-0.6,1.7-1,2.6c-0.2,0.4-0.3,0.9-0.2,1.3c0.1,0.2,0.3,0.4,0.5,0.5
		c0.2,0.1,0.4,0.1,0.6,0.1C272.4,80.9,273.1,80.9,273.8,80.8z"/>
	<path class="st4" d="M277.7,81.7c-0.2,0-0.2,1.4-1.4,2.4s-2.7,0.9-2.7,1.1s0.3,0.3,1,0.3c0.8,0,1.6-0.3,2.3-0.8
		c0.6-0.5,1-1.2,1.1-2C277.9,82.1,277.8,81.7,277.7,81.7z"/>
	<path class="st4" d="M278.2,66.8c0.1,0.4,1.4,0.2,3,0.4s2.8,0.6,3,0.3c0.1-0.2-0.1-0.5-0.6-0.8c-0.7-0.4-1.4-0.7-2.2-0.8
		c-0.8-0.1-1.6,0-2.3,0.3C278.5,66.4,278.2,66.6,278.2,66.8z"/>
	<path class="st4" d="M266.2,67.4c0.3,0.3,1.3,0,2.5,0s2.3,0.2,2.5-0.1c0.1-0.2-0.1-0.5-0.5-0.8c-1.3-0.8-2.9-0.7-4.1,0.1
		C266.2,66.9,266,67.2,266.2,67.4z"/>
	<path class="st4" d="M286.1,58.9L286.1,58.9c1.4,1.1,2.3,2.6,2.5,4.3v0.2c0.3,2.4,0.3,4.9,0.6,7.3c0.2,2.5,1.3,4.8,3,6.6
		c0.7,0.7,2,1.2,2.6,0.4c0.2-0.3,0.3-0.7,0.3-1.1c0.5-5.9,2.1-11.1,2-17.2c0-1.7-0.8-3.2-2.1-4.2c-1.3-0.9-2.9-1.9-4.3-1.2
		s-3.3,3.4-4.4,4.5"/>
	<path class="st12" d="M292.4,72.2c0.1-0.1,5.9-1.7,5.7,4.1s-6,4.4-6,4.3S292.4,72.2,292.4,72.2z"/>
	<path class="st13" d="M294,78.3c0,0,0.1,0.1,0.3,0.2c0.2,0.1,0.5,0.1,0.8,0c0.8-0.5,1.3-1.3,1.2-2.2c0-0.5-0.1-1-0.2-1.5
		c-0.1-0.4-0.4-0.7-0.7-0.8c-0.2-0.1-0.5,0-0.6,0.3c-0.1,0.2,0,0.3-0.1,0.3s-0.1-0.1-0.1-0.3c0-0.1,0.1-0.3,0.2-0.4
		c0.2-0.1,0.4-0.2,0.6-0.1c0.5,0.1,0.8,0.5,1,0.9c0.2,0.5,0.3,1.1,0.3,1.6c0,1.1-0.6,2-1.6,2.5c-0.3,0.1-0.7,0-0.9-0.2
		C294,78.5,293.9,78.4,294,78.3z"/>
	<path class="st4" d="M291,54.9c1.4-2.3-2.5-5.7-5.4-6.6s-6.7,0.5-9.5,1.4c-1.8,0.6-3.6,1.4-5.5,1.4c-1.3-0.1-2.5-0.4-3.7-0.9
		c-1.2-0.5-2.4-0.8-3.7-0.7c-1.3,0-2.5,0.8-3.1,1.9c-0.5,1.1,0,2.4,1.2,2.9c0.1,0,0.2,0.1,0.3,0.1c-1.4-0.8-3.1-0.2-3.9,1.1
		c-0.8,1.4-0.2,3.1,1.1,3.9c0.6,0.3,1.3,0.4,2,0.3c-0.8-0.6-2.1,0.4-2,1.4c0.2,1,1,1.9,2,2.2c2.4,1.1,5.3,0.7,7.8-0.1
		s4.9-2.2,7.3-3.1s6.7-2.5,9.2-1.7c1.9,0.7,3.1,2.9,4.2,2.4c1-0.5,1.7-1.5,1.9-2.6C291.3,57.1,291.2,56,291,54.9"/>
	<path class="st10" d="M260.9,54.2c0,0,0.3,0.4,0.9,1.1c0.9,0.9,2,1.7,3.2,2.1c1.8,0.7,3.8,0.6,5.5-0.2c2-0.9,3.7-2.7,5.6-4.3
		c1.8-1.7,4.1-2.8,6.5-3.1c2.1-0.3,4.1,0.5,5.6,1.9c0.9,1,1.4,2.4,1.3,3.8c0,0.4-0.1,0.7-0.2,1.1c-0.1,0.2-0.2,0.3-0.2,0.3
		c0.1-0.5,0.2-0.9,0.2-1.4c0-1.3-0.5-2.5-1.4-3.5c-1.4-1.3-3.3-2-5.2-1.7c-2.4,0.4-4.5,1.5-6.3,3.1c-1.9,1.6-3.7,3.5-5.8,4.4
		c-1.9,0.8-4,0.9-5.9,0.1c-1.3-0.5-2.4-1.3-3.3-2.3c-0.2-0.3-0.4-0.6-0.6-0.9C260.9,54.4,260.9,54.3,260.9,54.2z"/>
	<path class="st10" d="M293.9,71.9c0,0-0.2-0.2-0.5-0.6c-0.3-0.7-0.4-1.4-0.3-2.1c0.1-1.9,1.8-3.9,2-6.5c0.2-1.2,0-2.4-0.6-3.5
		c-0.5-0.8-1.3-1.5-2.2-1.9c-0.6-0.3-1.3-0.4-1.9-0.3c-0.5,0.1-0.7,0.2-0.7,0.1s0.2-0.2,0.7-0.4c0.7-0.2,1.5-0.1,2.1,0.1
		c1,0.4,1.9,1.1,2.5,2c0.7,1.2,0.9,2.5,0.8,3.8c-0.1,1.3-0.5,2.5-1.1,3.7c-0.5,0.9-0.8,1.8-1,2.8C293.4,70.1,293.5,71,293.9,71.9z"
		/>
	<polygon class="st4" points="311.5,200.5 345,395.5 318.6,398.7 281.1,224.8 284.2,396.2 258.9,396.2 248.9,198.8 	"/>
	<path class="st7" d="M251.4,138.4l-9.5,5.9l-10.7-20.6c4.7-3.4,19.8-13.1,23.6-15.6c0.9-0.6,2-1.2,3-1.6c2.5-1,5.2-1.6,7.9-1.9
		c2.4-0.3,4.3-0.5,5.5-0.6c6.9,2.2,14.3,2.2,21.2,0l0,0c0.8,0,1.6,0.1,2.4,0.2l0,0c7,1,13.8,5.9,18,10.5l16.7,15l-16.4,19.6l-5.1-6
		l1.2,27.6l4.8,34.4h-65.4c0,0-0.1-8.1,0.5-19.4c0.8-15.8,1.7-40.5,1.7-40.5"/>
	<path class="st4" d="M250.7,155.8c0.2-1.5,0.4-3,0.4-4.6c0.2-2.8,0.4-6.7,0.8-11s0.7-8.1,1-10.9c0.2-1.5,0.3-3,0.3-4.5
		c-0.4,1.5-0.7,3-0.8,4.5c-0.4,2.8-0.9,6.7-1.2,10.9s-0.5,8.2-0.6,11C250.5,152.7,250.6,154.3,250.7,155.8z"/>
	<path class="st4" d="M306.9,128.5c-0.2,1-0.2,2.1-0.2,3.1c0,1.9,0.1,4.6,0.3,7.5c0.2,2.9,0.5,5.6,0.8,7.5c0.1,1,0.3,2.1,0.6,3.1
		c0.1-1,0-2.1-0.1-3.1c-0.2-2.2-0.4-4.7-0.6-7.5s-0.4-5.3-0.5-7.5C307.2,130.6,307.1,129.6,306.9,128.5z"/>
	<rect x="290.6" y="131.8" class="st11" width="10.9" height="2.8"/>
	<path class="st11" d="M311.7,113.7c-0.8-0.2-1.7-0.4-2.6-0.4c-2.4,0.1-4.7,1-6.6,2.4c-1.3,0.8-2.6,1.9-4,2.9
		c-1.6,1.1-3.2,2.1-5,2.9c-2,0.8-4,1.5-6.1,1.8c-2.3,0.4-4.6,0.5-6.9,0.4c-2.3-0.1-4.6-0.6-6.8-1.3c-1-0.3-2.1-0.7-3.1-1.2
		c-0.9-0.4-1.9-0.9-2.8-1.5c-3.5-2.1-5.9-5-8.4-6.7c-1.9-1.5-4.3-2.3-6.7-2.2c-0.9,0.1-1.7,0.3-2.5,0.7l0.1-0.1
		c0.1-0.1,0.3-0.2,0.5-0.3c0.6-0.3,1.2-0.5,1.9-0.6c2.5-0.2,4.9,0.6,6.9,2.1c2.6,1.7,5,4.6,8.4,6.6c0.9,0.5,1.8,1,2.7,1.4
		c1,0.4,2,0.8,3,1.1c2.2,0.7,4.4,1.1,6.6,1.2c2.2,0.1,4.5,0,6.7-0.3c2.1-0.4,4.1-1,6-1.8c1.7-0.8,3.4-1.7,5-2.8
		c1.5-1,2.8-2.1,4.1-2.9c2-1.4,4.4-2.3,6.9-2.3c0.7,0,1.4,0.1,2,0.3c0.2,0,0.3,0.1,0.5,0.2C311.7,113.7,311.7,113.7,311.7,113.7z"/>
	<path class="st11" d="M251.5,134.8c-0.1,0-0.7-0.9-2-2c-0.8-0.7-1.6-1.3-2.5-1.8c-1.1-0.6-2.3-1.1-3.5-1.5
		c-1.2-0.4-2.5-0.6-3.7-0.7c-1-0.1-2.1-0.1-3.1,0c-1.8,0.2-2.8,0.6-2.8,0.5c0-0.1,0.2-0.1,0.7-0.3c0.7-0.2,1.4-0.4,2.1-0.5
		c1.1-0.2,2.1-0.2,3.2-0.2c1.3,0.1,2.6,0.3,3.8,0.7c1.2,0.4,2.4,1,3.5,1.6c0.9,0.6,1.8,1.2,2.5,2c0.3,0.3,0.6,0.6,0.8,0.9
		c0.2,0.2,0.4,0.5,0.6,0.7C251.4,134.5,251.5,134.7,251.5,134.8z"/>
	<path class="st11" d="M306.7,144.4c-0.2,0.1-0.3,0.2-0.5,0.3l-1.5,0.8l-1.1,0.6c-0.4,0.2-0.9,0.4-1.3,0.6c-1,0.4-2,0.9-3.3,1.3
		l-2,0.6c-0.7,0.2-1.4,0.4-2.1,0.6c-1.5,0.4-3.1,0.7-4.8,1c-3.7,0.6-7.5,0.8-11.2,0.7c-3.8-0.2-7.5-0.7-11.2-1.6
		c-1.7-0.5-3.3-0.9-4.7-1.4c-0.7-0.3-1.4-0.5-2.1-0.8l-1.9-0.8c-1.2-0.5-2.2-1.1-3.2-1.5c-0.5-0.2-0.9-0.5-1.3-0.7l-1-0.6l-1.4-0.9
		c-0.2-0.1-0.3-0.2-0.5-0.4c0.2,0.1,0.4,0.2,0.5,0.3l1.5,0.8l1.1,0.6c0.4,0.2,0.8,0.4,1.3,0.6c0.9,0.4,2,1,3.2,1.5l1.9,0.8
		c0.7,0.3,1.4,0.5,2.1,0.7c1.4,0.5,3,0.9,4.7,1.4c7.3,1.8,14.8,2.1,22.2,0.9c1.7-0.3,3.3-0.6,4.8-1c0.7-0.2,1.5-0.3,2.1-0.5l2-0.6
		c1.2-0.4,2.3-0.8,3.3-1.2c0.5-0.2,0.9-0.4,1.4-0.5l1.1-0.5l1.5-0.7C306.3,144.5,306.5,144.4,306.7,144.4z"/>
	<path class="st11" d="M324.6,127.6c-1-0.2-2-0.2-3-0.2c-2.5,0.1-4.8,0.8-7,2.1c-2.1,1.3-4.1,2.8-5.8,4.5c-0.7,0.7-1.5,1.4-2.3,2.1
		c0.6-0.8,1.3-1.6,2-2.3c1.7-1.8,3.7-3.4,5.8-4.7c2.2-1.3,4.7-2,7.2-2c0.8,0,1.5,0.1,2.3,0.3C324.1,127.3,324.3,127.4,324.6,127.6z"
		/>
	<path class="st11" d="M308,165.5c-0.2,0.1-0.4,0.2-0.5,0.3l-1.6,0.7c-0.7,0.3-1.5,0.7-2.5,1c-1,0.3-2.1,0.8-3.4,1.2l-2,0.6
		c-0.7,0.2-1.5,0.4-2.2,0.6c-1.5,0.4-3.2,0.7-4.9,1c-7.6,1.3-15.4,1.4-23,0.2c-1.8-0.3-3.4-0.6-5-1c-0.8-0.2-1.5-0.3-2.2-0.5l-2-0.6
		c-1.3-0.3-2.4-0.8-3.5-1.1s-1.9-0.7-2.6-1l-1.6-0.7c-0.2-0.1-0.4-0.2-0.5-0.3c0.2,0,0.4,0.1,0.6,0.2l1.6,0.6
		c0.7,0.3,1.5,0.6,2.6,0.9s2.2,0.7,3.5,1l2,0.5c0.7,0.2,1.5,0.3,2.2,0.5c1.5,0.4,3.2,0.6,4.9,0.9c7.6,1.1,15.3,1.1,22.9-0.2
		c1.7-0.3,3.4-0.6,4.9-1c0.8-0.2,1.5-0.3,2.2-0.5l2-0.6c1.3-0.3,2.4-0.8,3.4-1.1c1-0.3,1.9-0.6,2.6-0.9l1.6-0.6
		C307.6,165.4,307.8,165.4,308,165.5z"/>
	<path class="st11" d="M311.8,191.7c-0.2,0-0.4,0-0.6,0l-1.8-0.2c-1.6-0.2-3.8-0.5-6.6-0.8c-2.8-0.3-6.2-0.6-9.9-0.7
		s-7.8-0.2-12.1-0.1c-4.3,0.1-8.4,0.4-12.1,0.7c-3.7,0.3-7,0.8-9.8,1.2c-2.8,0.4-5,0.8-6.6,1.1l-1.8,0.3c-0.2,0-0.4,0.1-0.6,0.1
		c0.2-0.1,0.4-0.1,0.6-0.2l1.8-0.4c1.5-0.4,3.8-0.8,6.6-1.2c2.8-0.5,6.1-0.9,9.9-1.3c3.7-0.4,7.8-0.6,12.1-0.7
		c4.3-0.1,8.4,0,12.2,0.2s7.1,0.5,9.9,0.9s5.1,0.7,6.6,0.9l1.8,0.3C311.3,191.6,311.5,191.7,311.8,191.7z"/>
</g>
<g id="freepik--character-1--inject-2">
	<path class="st4" d="M82,55c-9,0-16.7,6.3-18.5,15.2c-0.8,4.4,0.1,9.3-2,13.3c-2.7,5.3-9.8,7.8-11.4,13.5c-1.3,4.8,1.8,10,0.5,14.8
		c-1,3.5-4.1,5.9-5.6,9.2c-1.5,3.2-1.2,7,0.7,10c2,3,5.5,4.5,9,4.1c2.2-0.3,4.2-1.4,6.3-2.1c4.6-1.5,9.5-1,14.2-0.3
		c4.7,0.7,9.6,1.4,14.3,0.3c4.7-1.1,9.1-4.5,9.8-9.3c0.4-3.1-0.7-6.1-1.7-9.1c-6.2-19.6-3.3-40.9-7.8-60.9"/>
	<path class="st4" d="M64.6,73c-1.2-1.6-2.6-2.9-4.2-4.1c-1.6-1.2-3.6-1.7-5.5-1.4c-2,0.3-3.6,1.7-4.1,3.7c-0.4,2,0.9,3.8,2.9,4.2
		c0,0,0.1,0,0.1,0c-1.5-0.5-3.1,0.2-3.6,1.7c-0.1,0.2-0.1,0.3-0.1,0.5c-0.2,1.7,0.8,3.3,2.4,4c1.6,0.6,3.3,0.6,4.9-0.1
		c1.5-0.7,3-1.6,4.2-2.7l4.5-3.4"/>
	<path class="st10" d="M48.9,129.8c-0.3-0.1-0.5-0.2-0.8-0.4c-0.7-0.5-1.2-1.2-1.5-1.9c-0.5-1.2-0.5-2.6-0.1-3.9
		c0.6-1.6,1.6-3.1,2.8-4.3c1.5-1.4,2.8-3,4-4.7c1.1-2.1,1.4-4.5,0.8-6.8c-0.4-2.4-1.4-5-1.4-7.8c0-1.5,0.4-2.9,1.2-4.1
		c0.9-1.2,1.9-2.2,3.2-3c2.5-1.6,5.2-2.4,7.5-4c1.1-0.7,2-1.6,2.7-2.7c0.6-1.1,1.1-2.3,1.3-3.6c0.3-2.4,0.4-4.7,0.5-7.1
		c0.1-2.1,0.4-4.2,1.1-6.2c0.8-3,2.7-5.5,5.2-7.3c0.7-0.5,1.4-0.8,2.2-1.1c0.2-0.1,0.4-0.1,0.6-0.2c0.1,0,0.2,0,0.2,0
		c-1,0.3-2,0.8-2.9,1.5c-2.4,1.8-4.2,4.3-5,7.2c-0.6,2-0.9,4-1,6.1c0,2.4-0.1,4.8-0.4,7.2c-0.2,1.3-0.6,2.6-1.3,3.7
		c-0.7,1.2-1.7,2.2-2.9,3c-2.3,1.6-5.1,2.5-7.5,4c-1.2,0.7-2.2,1.7-3,2.8c-0.7,1.1-1.1,2.5-1.2,3.8c0,2.7,0.9,5.2,1.4,7.7
		c0.3,1.2,0.4,2.5,0.2,3.7c-0.1,1.2-0.5,2.3-1.1,3.4c-1.2,1.7-2.6,3.3-4.1,4.8c-1.2,1.2-2.2,2.6-2.8,4.2c-0.4,1.2-0.4,2.5,0,3.7
		c0.3,0.8,0.7,1.4,1.4,1.9C48.7,129.7,49,129.8,48.9,129.8z"/>
	<path class="st10" d="M63,79.2c0.4-1.3,0.7-2.6,0.9-3.9c0-1.3-0.2-2.6-0.5-3.9C64.8,73.8,64.7,76.9,63,79.2z"/>
	<path class="st10" d="M68.2,111.6c0,0-0.1-0.1-0.4-0.4c-0.3-0.4-0.6-0.9-0.8-1.3c-0.6-1.8-0.6-3.8,0.1-5.6c0.7-2.3,2.5-4.6,4.2-7.1
		c0.9-1.3,1.7-2.7,2.3-4.2c0.5-1.6,0.8-3.4,0.8-5.1c0.1-3.6-0.6-6.9-0.8-10.1c-0.3-2.8,0-5.6,1-8.2c0.7-1.8,1.8-3.3,3.3-4.5
		c0.4-0.3,0.9-0.6,1.3-0.8c0.2-0.1,0.3-0.1,0.5-0.2c-0.6,0.3-1.1,0.7-1.7,1.1c-1.4,1.2-2.5,2.7-3.1,4.5c-0.9,2.6-1.2,5.4-0.8,8.1
		c0.2,3.1,0.9,6.5,0.9,10.1c0,1.8-0.3,3.6-0.9,5.2c-0.6,1.5-1.4,3-2.4,4.3c-1.8,2.5-3.6,4.7-4.3,7c-0.7,1.7-0.8,3.6-0.2,5.4
		C67.5,110.5,67.8,111.1,68.2,111.6z"/>
	<path class="st4" d="M41.8,113.7c0,0,0.1,0.2,0.3,0.5c0.3,0.4,0.7,0.8,1.1,1c0.7,0.4,1.5,0.5,2.3,0.5c1.1-0.1,2.1-0.6,2.8-1.4
		c0.9-1,1.4-2.2,1.6-3.5c0.2-1.5,0.1-3-0.4-4.5c-0.4-1.6-1-3.1-1.4-4.9c-0.6-1.8-0.7-3.7-0.4-5.5c0.4-1.8,1.3-3.5,2.6-4.9
		c1.2-1.3,2.5-2.4,3.9-3.4c1.3-1,2.6-1.8,3.8-2.6c1.1-0.8,2.1-1.6,3-2.6c1.4-1.3,2.5-2.9,3.1-4.8c0.2-0.7,0.3-1.4,0.4-2.1
		c0.1,0.7,0,1.4-0.2,2.1c-0.5,1.9-1.6,3.6-3,5c-0.9,1-1.9,1.8-3,2.6c-1.2,0.9-2.5,1.7-3.8,2.7c-1.4,1-2.7,2.1-3.8,3.3
		c-1.2,1.3-2.1,2.9-2.4,4.7c-0.3,1.8-0.1,3.6,0.4,5.3c0.4,1.7,1,3.3,1.4,4.9c0.4,1.5,0.5,3.1,0.3,4.6c-0.2,1.4-0.8,2.7-1.7,3.7
		c-0.8,0.8-1.9,1.4-3,1.4c-0.9,0-1.7-0.2-2.5-0.6c-0.5-0.3-0.9-0.7-1.1-1.1c-0.1-0.1-0.1-0.2-0.2-0.4
		C41.8,113.8,41.8,113.7,41.8,113.7z"/>
	<path class="st4" d="M105.1,64.5c0.8,5.2,2.2,10.3,4.4,13.5c1.8,2.6,5.3,4,5.8,7.1c0.4,2.6-1.1,5.2-0.9,7.8c0.4,4.1,5,6.7,6.3,10.6
		c1.1,3.3-0.4,7-2.9,9.4s-5.9,3.6-9.2,4.6c-4.8,1.3-10.6,1.7-14-1.9c-2.3-2.4-2.9-6.1-3.2-9.4c-0.8-9-0.8-18.1-0.7-27.2"/>
	<path class="st14" d="M73.9,73.2c-1.1-8.5,5-16.3,13.5-17.3c0.2,0,0.4,0,0.5-0.1c8.3-0.8,15.6,5.4,16.9,13.6c1.1,7.2,2,14.5,2,17.1
		c-0.1,8-4.8,11.1-6.7,12c-0.7,0.2-1.4,0.4-2.1,0.5l0,0c0,0-0.1,0-0.1,0.1l1.8,9.1c0.8,6-2.5,11.3-8.5,12.2s-10.7-3.7-11.6-9.7
		L73.9,73.2z"/>
	<path class="st4" d="M103.2,72.9c-0.1,0.2-1.2-0.4-2.5-0.2s-2.2,1-2.4,0.9s0-0.4,0.4-0.8c0.5-0.5,1.2-0.8,1.9-0.9
		c0.7-0.1,1.4,0,2,0.3C103.1,72.5,103.2,72.8,103.2,72.9z"/>
	<path class="st4" d="M91,75.3c-0.1,0.2-1.2-0.4-2.5-0.2s-2.2,1-2.4,0.9s0-0.4,0.4-0.8c0.5-0.5,1.2-0.8,1.9-0.9c0.7-0.1,1.4,0,2,0.3
		C90.9,74.9,91.1,75.2,91,75.3z"/>
	<path class="st4" d="M96.1,83c0.7-0.3,1.4-0.6,2.1-0.7c0.3-0.1,0.7-0.2,0.7-0.4c0-0.4-0.2-0.7-0.4-1c-0.4-0.8-0.9-1.6-1.4-2.5
		c-1.3-2.1-2.4-4.3-3.3-6.5c0.2-0.1,1.8,2.7,3.8,6.2l1.4,2.5c0.3,0.4,0.4,0.9,0.4,1.3c-0.1,0.3-0.3,0.5-0.5,0.6
		c-0.2,0.1-0.4,0.1-0.6,0.2C97.6,82.9,96.8,83,96.1,83z"/>
	<path class="st12" d="M97.9,99.1c0,0-5.2,1.2-12.2-1.8c0,0,3,6.6,12.7,4.2L97.9,99.1z"/>
	<path class="st12" d="M96,86.4c-0.6-0.6-1.5-0.8-2.3-0.6c-0.6,0.1-1.1,0.5-1.4,1c-0.3,0.5-0.3,1.2,0.1,1.6c0.5,0.4,1.2,0.5,1.8,0.2
		c0.6-0.3,1.1-0.8,1.6-1.3c0.1-0.1,0.3-0.3,0.3-0.5C96.2,86.7,96.1,86.5,96,86.4"/>
	<path class="st4" d="M92.2,84.6c0.2,0,0.4,1.4,1.8,2.3s2.9,0.5,3,0.7s-0.3,0.3-1,0.4c-0.9,0.1-1.7,0-2.5-0.5
		c-0.7-0.4-1.2-1.1-1.4-1.9C92,85,92.1,84.6,92.2,84.6z"/>
	<path class="st4" d="M90.3,71.4c-0.1,0.4-1.5,0.4-3,0.8s-2.8,1-3,0.7s0-0.5,0.5-1c1.3-1.1,3-1.5,4.6-1.2C90,71,90.3,71.2,90.3,71.4
		z"/>
	<path class="st4" d="M102,69.2c-0.2,0.3-1.2,0.2-2.3,0.3s-2,0.5-2.3,0.2c-0.1-0.1,0-0.5,0.4-0.8c0.5-0.4,1.1-0.7,1.8-0.7
		c0.7-0.1,1.3,0,1.9,0.3C101.9,68.7,102.1,69,102,69.2z"/>
	<path class="st4" d="M100.8,74c-0.1,0.7,0.3,1.3,1,1.4c0.6,0.1,1.3-0.3,1.4-0.9c0,0,0,0,0,0c0.1-0.7-0.3-1.3-1-1.4
		C101.6,72.9,101,73.4,100.8,74C100.8,74,100.8,74,100.8,74z"/>
	<path class="st4" d="M88.5,76.3c-0.1,0.7,0.3,1.3,1,1.4c0.6,0.2,1.3-0.2,1.4-0.9c0,0,0,0,0,0c0.1-0.7-0.3-1.3-1-1.4
		C89.3,75.2,88.6,75.6,88.5,76.3C88.5,76.3,88.5,76.3,88.5,76.3z"/>
	<path class="st14" d="M74.8,111.1l30.3-5.9l-0.9,16.9c0,0-13.5,4.2-14,4.4s-9.3,0-9.3,0L74.8,111.1z"/>
	<path class="st14" d="M41.2,225.9c-0.2,0.8-0.5,1.7-0.7,2.8c-0.2,0.9-0.2,1.9-0.1,2.8c0.1,1.2,0.4,2.3,0.8,3.4c0.5,1-0.5,2-1.3,1.6
		s-2.3-3.1-2.4-6.6s-3.5,0.9-4.7,2.5s-5.3,6.3-6.1,6.3c-1.2,0-1.4-1.2-0.1-2.8s4.8-6.5,3.9-7.1s-7.1,7.5-7.1,7.5s-1,2-2.1,1.3
		c-1.8-1.2,5.4-9.4,6.1-10.2c0.5-0.5-0.4-1.2-0.9-0.6s-6,8.3-7.9,7c-1.5-1,5.9-6.8,6.2-9s-5.1,5-6.5,4c-0.5-0.4-0.8-0.7,2.9-4.4
		c1.8-1.8,8.7-7.2,8.7-7.2l14-48.9h18.3L41.2,225.9z"/>
	<path class="st14" d="M130.4,98c0,0,26.1-10.4,30.3-13.6s30.2-26.7,30.2-26.7l3.5-2.9c0.4-0.7,0.9-1.5,1.4-2.5
		c0.4-0.8,0.8-1.7,0.9-2.7c0.2-1.2,0.3-2.4,0.2-3.5c-0.2-0.6,0.2-1.2,0.8-1.3c0.3-0.1,0.7,0,0.9,0.2c0.7,0.7,1.4,3.6,0.5,7
		s3.6,0.1,5.2-1.1s6.8-4.6,7.6-4.4c1.1,0.3,1,1.6-0.7,2.7s-6.4,4.9-5.7,5.8s8.9-5.3,8.9-5.3s1.5-1.6,2.3-0.7
		c1.4,1.7-7.8,7.6-8.6,8.1c-0.6,0.4,0.1,1.3,0.7,0.9s8.1-6.3,9.5-4.6c1.1,1.3-7.5,4.9-8.4,7s6.3-3.4,7.3-2.1
		c0.4,0.5,0.6,0.9-3.9,3.4c-2.2,1.2-10.3,4.6-10.3,4.6l-0.9,0.9l-34.8,36l-31.9,12.8L130.4,98z"/>
	<path class="st7" d="M32.6,372.4l-5.1,23.1l-9.3,17.1c-0.6,1.2-0.2,2.7,1,3.3c0,0,0.1,0.1,0.1,0.1l0,0c0.7,0.3,1.5,0.3,2.2-0.1
		c4.3-2.5,20.3-11.8,20.5-13.5c0.3-2,7-24.1,7-24.1L32.6,372.4z"/>
	<g class="st8">
		<path class="st2" d="M19.3,416l23.1-15.2l-0.2,1c-0.2,0.8-0.7,1.6-1.4,2.1c-1.9,1.4-7.2,5-19.2,12C20.9,416.3,20,416.4,19.3,416
			L19.3,416z"/>
	</g>
	<g class="st8">
		<path class="st2" d="M39.5,392.2c-0.7,0.3-1.1,1-0.8,1.8c0.3,0.7,1,1.1,1.8,0.9c0.7-0.3,1.1-1.1,0.9-1.9c-0.4-0.7-1.2-1-1.9-0.7"
			/>
	</g>
	<path class="st4" d="M27,407.3c-0.4-0.9-0.9-1.6-1.6-2.3c-0.8-0.5-1.6-0.9-2.5-1.2c0-0.1,0.3-0.2,0.9-0.1c0.7,0.1,1.4,0.4,2,0.9
		c0.6,0.5,1,1.1,1.2,1.8C27.1,406.9,27.1,407.2,27,407.3z"/>
	<path class="st4" d="M24.6,409.9c-0.1,0.1-0.7-0.9-1.8-1.5s-2.2-0.7-2.2-0.9c0.8-0.3,1.7-0.1,2.4,0.4
		C24.3,408.7,24.7,409.9,24.6,409.9z"/>
	<path class="st4" d="M31,404c-0.8-0.9-1.7-1.7-2.6-2.5c-1-0.6-2.1-1.2-3.2-1.6c1.3,0,2.5,0.4,3.5,1.2C29.8,401.8,30.6,402.8,31,404
		z"/>
	<path class="st4" d="M33.2,397.1c-0.1,0.1-1.2-0.7-2.9-1.2s-3-0.4-3.1-0.5c1-0.4,2.2-0.3,3.2,0C31.5,395.7,32.5,396.3,33.2,397.1z"
		/>
	<path class="st4" d="M34.8,390.4c-0.9-0.6-1.9-1-3-1.3c-1.1-0.1-2.2-0.1-3.2,0c0-0.1,0.3-0.3,0.9-0.5c0.8-0.2,1.6-0.2,2.5-0.1
		c0.8,0.2,1.6,0.5,2.2,1C34.7,390,34.9,390.3,34.8,390.4z"/>
	<path class="st4" d="M32.2,387.8c0-0.3,0.1-0.6,0.2-0.9c0.3-0.8,0.7-1.5,1.2-2.1c0.4-0.5,0.9-0.8,1.5-1c0.4-0.1,0.8,0.1,1,0.5
		c0.2,0.4,0.2,0.8,0.1,1.1c-0.5,1.6-2,2.6-3.7,2.4c-1.6-0.2-2.9-1.4-3.3-3c-0.1-0.4,0-0.8,0.2-1.1c0.3-0.3,0.7-0.4,1.1-0.3
		c0.5,0.3,1,0.7,1.3,1.2c0.5,0.7,0.9,1.4,1.1,2.2c0.1,0.3,0.2,0.6,0.2,0.9c-0.4-1-0.9-2-1.6-2.8c-0.3-0.4-0.7-0.8-1.2-1
		c-0.2-0.1-0.5,0-0.6,0.1c-0.1,0.2-0.2,0.5-0.1,0.8c0.4,1.3,1.5,2.3,2.9,2.5c1.4,0.2,2.7-0.7,3.2-2c0.1-0.3,0.1-0.5,0-0.8
		c-0.1-0.2-0.3-0.3-0.5-0.3c-0.5,0.1-0.9,0.4-1.3,0.8C33.2,385.8,32.6,386.8,32.2,387.8z"/>
	<path class="st7" d="M104.8,380.9l-0.7,18.5c0,0,18.6,6.9,18.8,10.4l-36-0.1l-0.1-28.9L104.8,380.9z"/>
	<g class="st8">
		<path class="st2" d="M92.9,397.9c-0.7,0.2-1.1,0.9-1,1.7c0.2,0.7,0.9,1.1,1.7,1c0.8-0.2,1.2-1,1.1-1.8c-0.3-0.7-1.1-1.1-1.8-0.9"
			/>
	</g>
	<g class="st8">
		<path class="st2" d="M86.9,409.7l0.1-2.9l34.5,1.2c0,0,1.6,0.7,1.4,1.8L86.9,409.7z"/>
	</g>
	<path class="st4" d="M104.7,399.2c0,0.2-0.9,0.2-1.8,0.8s-1.3,1.3-1.5,1.2s0.1-1.1,1.2-1.8S104.7,399.1,104.7,399.2z"/>
	<path class="st4" d="M108.4,400.8c0,0.2-0.7,0.5-1.3,1.2s-0.8,1.5-0.9,1.5s-0.3-1,0.5-1.9S108.4,400.6,108.4,400.8z"/>
	<path class="st4" d="M110.6,405.3c-0.2,0-0.4-0.8,0-1.8s1.3-1.4,1.4-1.2s-0.4,0.7-0.8,1.5S110.7,405.3,110.6,405.3z"/>
	<path class="st4" d="M104.3,395c-0.1,0.2-0.9-0.1-1.9,0s-1.8,0.4-1.9,0.2s0.7-0.8,1.8-0.8S104.4,394.9,104.3,395z"/>
	<g class="st9">
		<polygon points="104.6,384.6 104.5,387.9 86.8,387.7 86.8,384.7 		"/>
	</g>
	<path class="st4" d="M104.4,391.3c-0.6,0.2-1.2,0.2-1.8,0c-1-0.2-2-0.6-2.9-1.1c-0.2-0.1-0.4-0.3-0.5-0.4c-0.2-0.3-0.3-0.6-0.1-0.9
		c0.2-0.2,0.5-0.4,0.8-0.4c0.2,0,0.5,0,0.7,0.1c1,0.2,2,0.8,2.8,1.5c0.8,0.8,1.1,1.4,1.1,1.5s-0.5-0.5-1.3-1.1
		c-0.5-0.4-1-0.7-1.6-0.9c-0.3-0.1-0.7-0.2-1-0.3c-0.4-0.1-0.7-0.1-0.8,0.1s0,0.1,0,0.2c0.1,0.1,0.3,0.2,0.4,0.3
		c0.3,0.2,0.7,0.4,1,0.5c0.6,0.3,1.1,0.5,1.7,0.7C103.3,390.9,103.9,391.1,104.4,391.3z"/>
	<path class="st4" d="M104.2,391.5c-0.1,0-0.4-0.6-0.5-1.7c0-0.7,0.1-1.4,0.2-2c0.1-0.4,0.3-0.7,0.5-1.1c0.2-0.5,0.6-0.8,1.1-0.9
		c0.3,0,0.6,0.2,0.8,0.5c0.1,0.2,0.2,0.4,0.2,0.7c0.1,0.4,0.1,0.8,0,1.2c-0.1,0.7-0.4,1.3-0.8,1.9c-0.7,0.9-1.4,1.1-1.5,1.1
		s0.6-0.4,1.1-1.3c0.3-0.5,0.5-1.1,0.6-1.7c0-0.3,0-0.7,0-1c0-0.4-0.2-0.7-0.3-0.6s-0.5,0.3-0.6,0.6c-0.2,0.3-0.3,0.7-0.4,1
		c-0.2,0.6-0.3,1.2-0.3,1.8C104.1,390.8,104.3,391.5,104.2,391.5z"/>
	<path class="st4" d="M69.6,177.3c0,0-11.4,18-13,24.9c-1.5,6.2-26.4,140.2-31.5,168c-0.5,2.8,1.2,5.6,4,6.5l22.5,6.8
		c3,0.9,6.2-0.8,7.1-3.8c0-0.2,0.1-0.3,0.1-0.5l27.8-129.9L78.4,378c-0.2,3.6,2.5,6.8,6.1,7c0.2,0,0.4,0,0.6,0l22.1-0.7
		c3.4-0.1,6.1-2.8,6.3-6.2c1.9-31,10.5-172,8.8-176.4c-1.9-5-7.1-22.3-7.1-22.3L69.6,177.3z"/>
	<path class="st10" d="M60.6,372.8c-0.5,0-0.9-0.1-1.4-0.2c-0.9-0.1-2.2-0.4-3.7-0.7c-3.1-0.6-7.4-1.6-12.1-3s-8.9-2.8-11.9-4
		c-1.5-0.6-2.7-1-3.5-1.4c-0.4-0.2-0.9-0.4-1.3-0.6c0.5,0.1,0.9,0.2,1.3,0.4l3.6,1.2c3,1,7.2,2.4,11.8,3.8s8.9,2.4,12,3.2l3.7,0.9
		C59.7,372.6,60.2,372.7,60.6,372.8z"/>
	<path class="st10" d="M32.7,364.6c-0.8-0.6-1.3-1.5-1.4-2.5c-0.3-0.9-0.2-1.9,0.2-2.8c0.2,0,0,1.3,0.3,2.7S32.8,364.5,32.7,364.6z"
		/>
	<path class="st10" d="M35.5,359.8c0.2,0.9,0.1,1.8-0.3,2.7c-0.2,0.9-0.6,1.7-1.2,2.4c0.2-0.9,0.4-1.7,0.7-2.5
		C34.9,361.5,35.2,360.6,35.5,359.8z"/>
	<path class="st10" d="M106.2,366.6c0.4,0.7,0.6,1.5,0.6,2.3c0.2,0.8,0.3,1.6,0.1,2.4C106.3,369.9,106.1,368.2,106.2,366.6z"/>
	<path class="st10" d="M108.8,365.4c0.3,1.7,0.3,3.4-0.1,5c-0.3-0.8-0.3-1.7-0.2-2.5C108.5,367,108.6,366.2,108.8,365.4z"/>
	<path class="st10" d="M96.4,183.6c0,0.2,0,0.5,0,0.7c0,0.5,0,1.2-0.1,2c-0.1,1.8-0.2,4.3-0.4,7.4c-0.5,6.3-1.3,15-2.7,24.5
		c-1.4,9.5-3,18.1-4.3,24.2c-0.6,3.1-1.2,5.6-1.6,7.3c-0.2,0.8-0.3,1.5-0.5,2c0,0.2-0.1,0.5-0.2,0.7c0-0.2,0-0.5,0.1-0.7
		c0.1-0.5,0.2-1.2,0.4-2c0.3-1.8,0.8-4.3,1.4-7.3c1.2-6.2,2.8-14.7,4.2-24.2s2.3-18.1,2.9-24.4c0.2-3.1,0.5-5.6,0.6-7.4
		c0.1-0.8,0.1-1.5,0.2-2C96.3,184.1,96.4,183.8,96.4,183.6z"/>
	<path class="st10" d="M116.6,183.6c-0.2,0-0.3,0.1-0.5,0.1l-1.4,0.1c-1.2,0.1-3.1,0.1-5.3,0.1c-4.5,0.1-10.7,0.1-17.6-0.1
		s-13.1-0.5-17.5-0.9c-2.2-0.2-4.1-0.3-5.3-0.4l-1.4-0.1c-0.2,0-0.3,0-0.5-0.1c0.2,0,0.3,0,0.5,0l1.4,0.1l5.3,0.3
		c4.5,0.2,10.7,0.5,17.5,0.7s13.1,0.2,17.6,0.3h5.3h1.4C116.2,183.5,116.4,183.5,116.6,183.6z"/>
	<path class="st10" d="M100.3,183.4c0,0.6,0,1.1,0,1.7c0,1.2-0.1,2.7-0.2,4.6c-0.2,3.9-0.4,9.3-0.7,15.3c-0.2,3-0.3,5.8-0.5,8.4
		c-0.1,2.3-0.7,4.6-1.8,6.7c-0.7,1.4-1.8,2.6-3.2,3.4c-0.4,0.2-0.8,0.4-1.2,0.5c-0.1,0-0.3,0.1-0.4,0.1c0-0.1,0.6-0.2,1.5-0.8
		c1.3-0.9,2.3-2,3-3.4c1-2,1.5-4.3,1.6-6.5c0.2-2.6,0.3-5.4,0.4-8.4c0.3-6,0.6-11.4,0.8-15.3c0.1-1.9,0.2-3.4,0.3-4.6
		C100.1,184.5,100.2,183.9,100.3,183.4z"/>
	<path class="st10" d="M74.6,194.5c0.1,0.4,0.1,0.8,0,1.2c-0.1,1.1-0.3,2.1-0.6,3.1c-1.9,6.9-7.5,12.2-14.6,13.6
		c-1,0.2-2.1,0.3-3.1,0.3c-0.4,0-0.8,0-1.2-0.1c1.4-0.1,2.8-0.3,4.2-0.6c6.8-1.6,12.3-6.7,14.3-13.4C74,197.2,74.3,195.9,74.6,194.5
		z"/>
	<path class="st10" d="M122.3,213.3c0,0-0.3,0-0.8-0.2c-0.7-0.2-1.4-0.5-2-0.9c-1-0.5-1.9-1.1-2.7-1.8c-1-0.9-2-1.8-2.8-2.9
		c-0.8-1.1-1.5-2.2-2.1-3.5c-0.5-1-0.8-2-1.1-3.1c-0.2-0.7-0.3-1.4-0.3-2.2c0-0.3,0-0.5,0-0.8c0.1,0,0.2,1.1,0.7,2.9
		c0.3,1,0.7,2,1.1,3c0.6,1.2,1.3,2.3,2.1,3.3c0.8,1,1.7,2,2.7,2.9c0.8,0.7,1.7,1.3,2.6,1.9C121.2,212.8,122.3,213.1,122.3,213.3z"/>
	<path class="st10" d="M82.2,197.7c0,0,0,0.2,0,0.4c0,0.3-0.1,0.8-0.2,1.3c-0.2,1.2-0.4,2.9-0.7,5c-0.6,4.4-1.6,10.7-2.8,18.5
		c-2.4,15.6-6.2,37.1-11,60.7s-10,44.8-13.9,60.1c-1.9,7.6-3.6,13.8-4.8,18.1c-0.6,2.1-1,3.8-1.3,4.9l-0.4,1.3
		c0,0.1-0.1,0.3-0.1,0.4c0,0,0-0.1,0.1-0.4s0.2-0.7,0.3-1.3c0.3-1.1,0.7-2.8,1.3-4.9c1.1-4.3,2.7-10.5,4.6-18.1
		c3.8-15.3,8.8-36.5,13.7-60.1s8.7-45.1,11.2-60.6c1.3-7.8,2.3-14.1,2.9-18.5c0.3-2.2,0.6-3.9,0.8-5l0.2-1.3
		C82.2,197.9,82.2,197.7,82.2,197.7z"/>
	<path class="st10" d="M100.6,372.7c0-0.1,0-0.3,0-0.4c0-0.3,0.1-0.7,0.1-1.2c0.1-1.1,0.2-2.7,0.4-4.8c0.4-4.2,0.9-10.1,1.6-17.5
		c1.3-14.8,3.4-35.2,5-57.9c0.8-11.3,1.3-22.1,1.5-31.9s0.2-18.7,0-26.1s-0.6-13.4-0.9-17.6c-0.1-2-0.3-3.6-0.4-4.8
		c0-0.5-0.1-0.9-0.1-1.2c0-0.1,0-0.3,0-0.4c0,0.1,0.1,0.3,0.1,0.4c0,0.3,0.1,0.7,0.1,1.2c0.1,1.1,0.2,2.7,0.4,4.8
		c0.4,4.1,0.8,10.1,1,17.6s0.4,16.3,0.1,26.1s-0.7,20.6-1.5,32c-1.6,22.6-3.7,43.1-5.1,57.9c-0.7,7.4-1.3,13.4-1.7,17.5
		c-0.2,2-0.4,3.6-0.5,4.8c-0.1,0.5-0.1,0.9-0.1,1.2C100.6,372.5,100.6,372.6,100.6,372.7z"/>
	<path class="st10" d="M114.2,370.4c0,0.1-7.9,1.1-17.7,2.2s-17.7,1.8-17.8,1.7s7.9-1.1,17.7-2.2S114.2,370.2,114.2,370.4z"/>
	<path class="st4" d="M84.5,59.6c-3,3.6-3.8,8.5-2.2,12.9c1.1,2.9,3.3,5.5,3.2,8.6c-0.2,3.8-4.1,6.8-3.9,10.6
		c0.2,4.3,5.8,7,5.8,11.4s-2.7,6.1-7.8,7c-3.3,0.6-5.1-3.5-6.8-6.4s-2.2-6.3-2.5-9.6c-0.6-5.5-0.6-11.1-0.2-16.6
		c0.3-4.5,1-9.1,3.3-12.9c2.4-4,6.4-6.7,11-7.7"/>
	<path class="st4" d="M106.3,67.6c-1.6,2.5-6.9,1-10-0.8c-3.4,2.2-8,1.2-10.3-2.1c-1.8,2.3-5.5,1.5-6.8-1s-0.6-6.2,1.2-8.4
		c1.9-2.1,4.4-3.5,7.2-3.9c6.5-1.3,13.2,1.5,16.9,7C106.4,61,107.4,64.5,106.3,67.6"/>
	<path class="st10" d="M106.4,67.2c-0.1,0.1-1-1.6-3-3.8c-2.5-2.9-5.8-5.1-9.5-6.2c-3.7-1.1-7.7-0.8-11.2,0.9
		c-1.4,0.7-2.7,1.7-3.8,2.9c0,0,0-0.1,0.2-0.3c0.2-0.3,0.4-0.5,0.6-0.8c0.8-0.9,1.8-1.6,2.8-2.2c3.6-1.8,7.7-2.1,11.5-1
		c2.1,0.6,4,1.6,5.8,2.9c1.4,1,2.7,2.3,3.8,3.6c0.8,0.9,1.5,1.9,2.1,2.9C106,66.4,106.2,66.8,106.4,67.2z"/>
	<path class="st10" d="M90.8,68.2c-0.1,0-0.3-0.9-0.9-2.2c-0.8-1.7-2-3.2-3.6-4.3c-1.6-1.1-3.5-1.5-5.4-1.3
		c-0.8,0.1-1.5,0.4-2.3,0.6c0,0,0.2-0.2,0.5-0.4c0.5-0.3,1.1-0.5,1.7-0.6c2-0.4,4.1,0.1,5.8,1.2c1.6,1.1,2.9,2.8,3.6,4.6
		C90.6,66.5,90.8,67.3,90.8,68.2z"/>
	<path class="st7" d="M74.8,111.1c0,0-13.5,3.9-18.6,12.2s-20.7,66.9-20.7,66.9l17.9,2l14.9-39l3.7,12.2l-2.3,12l45.7,2.1l3.2-52.6
		l48.8-23.8l5.5-5.7l-14.2-15l-5.4,5.1l-49,17.9c0,0,1.8,14.5-11.4,16.6S74.8,111.1,74.8,111.1z"/>
	<rect x="100.9" y="130.7" class="st11" width="10.9" height="2.8"/>
	<path class="st4" d="M63.2,135.8c0.1,0,2.2,6.4,4.6,14.4s4.2,14.5,4.1,14.5c-0.1,0.1-2.2-6.4-4.6-14.4
		C64.9,142.4,63.1,135.9,63.2,135.8z"/>
	<path class="st4" d="M127.3,115.4c-2,1.6-3.9,3.4-5.5,5.4c-1.5,2.1-2.7,4.4-3.6,6.8c0.1-0.8,0.3-1.5,0.6-2.2
		c1.3-3.5,3.6-6.5,6.6-8.8C125.9,116.1,126.6,115.7,127.3,115.4z"/>
	<g class="st15">
		<path d="M64.1,138.6c-1,4.9-1.6,10-1.6,15c0,1.2,0.1,2.5,0.4,3.7c0.3,1.2,1.1,2.2,2.2,2.9c1.3-1.9,2.8-4,3-6.4
			c0-1.7-0.2-3.3-0.8-4.9c-1-3.6-2.1-7.2-3.1-10.9"/>
	</g>
	<path class="st4" d="M76.1,108.2c2.4,1.7,3.2,4.9,3.1,7.9s-1,5.8-1.1,8.8s0.6,6.2,3,7.9l11.6-3.9c-2.3-1.3-2.8-4.4-2.3-7
		s1.7-5,1.8-7.7c0.4-6.9-4.6-12.8-6.9-15.6"/>
</g>
<g id="freepik--character-2--inject-2">
	<polygon class="st7" points="123.8,384.5 119.3,410.2 141.5,410.2 144,385.9 	"/>
	<path class="st4" d="M142,408.1c-1.1,0.2-2.2,0.2-3.2,0.2c-2,0-4.8,0-7.8-0.1l-7.8-0.3c-1.1,0-2.2-0.1-3.2-0.3
		c1.1-0.2,2.2-0.2,3.2-0.2c2,0,4.8,0,7.8,0.1l7.8,0.3C139.8,407.9,140.9,408,142,408.1z"/>
	<g class="st8">
		<polyline class="st2" points="119.3,410.2 141.5,410.2 141.8,408.1 119.7,407.5 119.3,410 		"/>
	</g>
	<path class="st4" d="M130.2,408.1c0.2-3.3,0.6-6.6,1.2-9.8c0.4-3.3,1-6.5,1.7-9.7c-0.2,3.3-0.6,6.6-1.2,9.8
		C131.5,401.6,130.9,404.9,130.2,408.1z"/>
	<path class="st4" d="M140.8,408c0.2-1.6,0.1-3.2-0.4-4.7c-0.5-1.6-1.5-3.1-2.8-4.1c-1.6-1.3-3.6-2-5.7-2c-2.1,0-4.1,0.6-5.8,1.9
		c-1.4,1.1-2.4,2.4-3.1,4c-0.6,1.5-1,3-1,4.6c0,0,0-0.1-0.1-0.3c0-0.3,0-0.7,0-1c0-1.2,0.3-2.4,0.7-3.5c0.7-1.6,1.8-3.1,3.1-4.2
		c1.7-1.3,3.9-2,6.1-2c4.1,0,7.7,2.6,8.9,6.6c0.4,1.1,0.5,2.3,0.3,3.5c0,0.3-0.1,0.6-0.2,1C140.8,407.9,140.8,408.1,140.8,408z"/>
	<path class="st7" d="M219.5,377.3l5.4,17.7c0,0,19.9,0.5,21.2,3.6l-34,11.7l-9.6-27.3L219.5,377.3z"/>
	<g class="st8">
		<path class="st2" d="M213.9,397.1c-0.6,0.4-0.8,1.3-0.4,1.9c0.4,0.6,1.2,0.8,1.9,0.4c0.6-0.5,0.8-1.3,0.4-2
			c-0.5-0.6-1.4-0.7-2-0.2"/>
	</g>
	<g class="st8">
		<path class="st2" d="M212.1,410.4l-0.9-2.8l32.9-10.2c0,0,1.7,0.1,1.9,1.3L212.1,410.4z"/>
	</g>
	<path class="st4" d="M225.4,394.7c0.1,0.2-0.8,0.5-1.4,1.4s-0.8,1.7-1,1.6s-0.3-1.1,0.5-2S225.4,394.5,225.4,394.7z"/>
	<path class="st4" d="M229.5,394.9c0.1,0.1-0.5,0.7-0.9,1.6s-0.2,1.7-0.4,1.8s-0.6-0.9-0.2-2S229.4,394.8,229.5,394.9z"/>
	<path class="st4" d="M233,398.5c-0.1,0.1-0.6-0.7-0.5-1.7s0.8-1.7,0.9-1.6s-0.2,0.8-0.3,1.6S233.2,398.4,233,398.5z"/>
	<path class="st4" d="M223.7,390.8c0,0.2-0.9,0.2-1.8,0.6s-1.6,0.9-1.7,0.8s0.4-1,1.4-1.4S223.8,390.6,223.7,390.8z"/>
	<g class="st9">
		<polygon points="220.6,380.8 221.6,383.9 204.8,389.6 203.8,386.8 		"/>
	</g>
	<path class="st4" d="M222.6,387.1c-0.5,0.3-1.1,0.5-1.7,0.6c-0.7,0.1-1.3,0.1-2,0.1c-0.4,0-0.8-0.1-1.2-0.2c-0.2,0-0.5-0.1-0.7-0.2
		c-0.3-0.2-0.5-0.5-0.4-0.9c0.1-0.3,0.3-0.5,0.6-0.6c0.2-0.1,0.4-0.1,0.7-0.1c0.4,0,0.8,0,1.2,0c0.7,0.1,1.3,0.2,1.9,0.5
		c1,0.5,1.5,1,1.5,1s-0.6-0.3-1.6-0.6c-0.6-0.2-1.2-0.3-1.8-0.3c-0.4,0-0.7,0-1.1,0c-0.4,0-0.7,0.1-0.7,0.3s0,0.1,0.1,0.2
		c0.2,0.1,0.3,0.1,0.5,0.2c0.4,0.1,0.7,0.2,1.1,0.2c0.6,0.1,1.2,0.1,1.9,0.1C221.4,387.2,222,387.1,222.6,387.1z"/>
	<path class="st4" d="M222.4,387.5c-0.1,0-0.6-0.4-1-1.5c-0.2-0.6-0.4-1.3-0.4-1.9c0-0.4,0-0.8,0.1-1.2c0-0.5,0.3-1,0.8-1.2
		c0.3-0.1,0.7,0,0.9,0.2c0.2,0.2,0.3,0.4,0.4,0.6c0.5,1,0.6,2.1,0.3,3.2c-0.4,1.1-1,1.5-1,1.5c0.2-0.5,0.4-1.1,0.6-1.6
		c0.1-0.6,0.1-1.2,0-1.8c-0.1-0.4-0.2-0.7-0.4-1c-0.2-0.3-0.4-0.6-0.5-0.5s-0.4,0.4-0.4,0.8c-0.1,0.4-0.1,0.7-0.1,1.1
		c0,0.6,0.1,1.2,0.2,1.8C222.1,386.9,222.6,387.4,222.4,387.5z"/>
	<path class="st16" d="M119.7,153l-6.4,13.2c-2.9,6-1.9,13.1,2.6,18l0,0c3.5,3.8,8.6,5.7,13.7,5.1l24.9-2.8v-14.8l-24.5,0.7
		l6.1-10.8L119.7,153z"/>
	<path class="st4" d="M151.3,106c-4.1-6.9-5.3-16.2-6.3-24.2c-0.5-3.8-1.4-9.1,1.3-11.5c2.8-2.5,3.1-6.4,6.4-8.4s7.7-2.1,10.8,0.1"
		/>
	<path class="st16" d="M162.7,130.6L162.7,130.6c6.1,0.5,11.5-4.1,12-10.2c0-0.1,0-0.3,0-0.4c0.2-6.1,0.5-12.2,0.5-12.2
		s9.2-0.8,9.9-9.9s0.4-30.1,0.4-30.1l0,0c-10.2-5.2-22.5-4.4-32,2l0.5,32l-0.1,17.2C153.9,124.8,156.9,130.1,162.7,130.6z"/>
	<path class="st4" d="M176,86.8c-1.6-1.9-4.1-2.7-6.2-1.4c-2.1,1.5-2.9,4.3-1.8,6.6c0.9,1.7,2.6,2.9,4.4,3.4c1.7,0.4,2.9,2,2.7,3.8
		c-0.3,2.3-4.1,3.1-5.8,5c-2.7,2.9-8.5,4.2-12.5,4.6s-3.4,0.5-5.6-2.7c-1.5-2.2-2.3-4.8-2.2-7.4l-0.4-20.1c-0.1-2.4,0-4.8,0.5-7.2
		c0.5-2.4,1.8-4.6,3.8-6c2.2-1.4,5-1.6,7.6-2.4c3.1-1,5.8-3.1,8.8-4.6s6.6-2.4,9.5-0.9c2.1,1.1,3.5,3.2,5.6,4.4
		c2.9,1.7,6.9,1.3,8.4,5.6c0.5,1.5,0.5,3.1-0.1,4.6c-2,5.9-9.3,8.2-14.6,5.7c-0.1,1,0.9,3.2-0.2,6.4C177.7,85.1,177.6,86.7,176,86.8
		"/>
	<path class="st6" d="M174.4,92.4c0,0,0,0.2-0.1,0.4c-0.2,0.3-0.6,0.5-1,0.5c-1.3-0.1-2.4-1.2-2.4-2.5c0-0.7,0.2-1.4,0.7-1.9
		c0.4-0.4,0.9-0.7,1.4-0.8c0.9-0.2,1.5,0.1,1.4,0.2s-0.6,0-1.3,0.2c-1,0.3-1.6,1.2-1.6,2.3c0,1,0.7,1.9,1.7,2.1
		C174,92.9,174.3,92.4,174.4,92.4z"/>
	<path class="st4" d="M152,71.6c5.4-2.3,7.9-8.6,5.5-14c-2.3-5.4-8.6-7.9-14-5.5c-4.8,2.1-7.3,7.3-6.1,12.3c0.2,0.6,0.2,1.3,0,1.9
		c-0.4,0.7-1.3,0.8-2,1c-2.6,1-2.9,4.9-1,6.9s5,2.3,7.7,1.6c-0.6,2.3,1.4,4.8,3.9,5.1c2.5,0.1,4.8-1.1,6.1-3.2
		c1.2-2.1,1.9-4.5,2.1-6.9"/>
	<path class="st1" d="M158.2,60.5c0,0.3,0,0.6,0,0.9c0,0.8-0.2,1.7-0.4,2.5c-1.3,5.6-5.6,10-11.2,11.3c-0.8,0.2-1.7,0.3-2.5,0.4
		c-0.3,0.1-0.6,0.1-0.9,0c0-0.1,1.3-0.1,3.4-0.7c5.4-1.5,9.5-5.7,11-11.1C158,61.8,158.1,60.5,158.2,60.5z"/>
	<path class="st10" d="M148.1,52.1c0,0,0.1-0.1,0.3-0.1c0.3-0.1,0.6-0.1,0.8-0.1c1,0,2.1,0.4,2.9,1.1c0.6,0.4,1,1,1.4,1.6
		c0.4,0.7,0.7,1.5,0.9,2.3c0.3,1.8,0.2,3.7-0.2,5.6c-0.7,3.3-2.2,6.4-4.3,9c-0.6,0.8-1.3,1.5-2,2.2c-0.3,0.3-0.5,0.5-0.9,0.7
		c-0.1-0.1,1.1-1.1,2.6-3.2c1.9-2.7,3.3-5.7,4.1-8.9c0.4-1.7,0.5-3.6,0.3-5.3c-0.1-0.8-0.4-1.5-0.8-2.2c-0.3-0.6-0.8-1.1-1.3-1.5
		c-0.8-0.6-1.7-1-2.7-1.1C148.5,52,148.1,52.2,148.1,52.1z"/>
	<path class="st10" d="M137,66.6c0,0,0.1-0.3,0.3-0.7c0.4-0.6,0.8-1.1,1.3-1.6c3.3-3.4,8.4-4.2,12.6-2c0.6,0.3,1.2,0.7,1.7,1.1
		c0.4,0.3,0.5,0.5,0.5,0.5s-0.9-0.6-2.4-1.3c-4.1-1.9-8.9-1.1-12.2,2C137.6,65.7,137.1,66.6,137,66.6z"/>
	<path class="st10" d="M154.9,70.2c0.1-0.1,1.2,0.9,3.2,2.2c2.6,1.7,5.3,3.2,8.1,4.5c1.6,0.7,3.2,1.3,4.8,1.8c1.3,0.5,2.6,0.8,4,0.9
		c0.9,0,1.8-0.2,2.6-0.7c0.6-0.3,0.8-0.7,0.8-0.6s-0.1,0.4-0.7,0.8c-0.8,0.6-1.8,0.9-2.7,0.9c-1.4-0.1-2.8-0.3-4.2-0.8
		c-4.7-1.4-9.1-3.5-13-6.4c-1-0.7-1.7-1.3-2.2-1.8C155.3,70.7,155.1,70.4,154.9,70.2z"/>
	<path class="st4" d="M152.2,58.7c-0.1-0.4-0.1-0.8-0.1-1.3c0-1.2,0.2-2.3,0.6-3.4c0.6-1.7,1.8-3,3.4-3.8c0.9-0.5,2-0.7,3.1-0.6
		c1.1,0.1,2.2,0.7,3,1.5c0.8,0.8,1.4,1.8,1.7,2.9c0.3,1,0.3,2,0.2,3.1c-0.2,1.7-0.8,3.4-1.7,4.8c-0.6,1-1.3,1.9-2,2.8
		c-0.2,0.4-0.5,0.7-0.8,1c0.2-0.4,0.4-0.7,0.7-1.1c0.4-0.7,1.1-1.6,1.8-2.9c0.8-1.5,1.4-3.1,1.6-4.7c0.1-1,0-2-0.2-2.9
		c-0.3-1-0.8-1.9-1.6-2.6c-0.7-0.7-1.7-1.2-2.7-1.3c-1-0.1-1.9,0.1-2.8,0.5c-1.5,0.7-2.7,2-3.3,3.5c-0.4,1.1-0.7,2.2-0.8,3.3
		C152.2,57.8,152.2,58.2,152.2,58.7z"/>
	<path class="st16" d="M255.9,37.6c-1.5-0.8-5.8,7.2-5.8,5s6.3-9.1,4.8-9.8c-2.1-0.9-6.4,7.4-6.8,8.1s-1.4,0.1-1-0.5
		c0.6-0.9,6.5-10,4.5-11c-1.1-0.5-1.9,1.6-1.9,1.6s-5,9-5.9,8.5s1.8-5.8,2.8-7.6s0.6-2.9-0.5-2.8c-0.8,0.1-4.1,5.4-5.1,7.1
		s-3.6,6.6-4.3,3.2s-2.4-5.9-3.4-6.2c-0.6-0.1-1.2,0.3-1.3,0.9c-0.1,0.3,0,0.7,0.2,0.9c0.6,1,1,2.1,1.3,3.3c0.3,0.9,0.4,1.9,0.3,2.8
		c-0.1,1.1-0.2,2-0.3,2.8l-1.9,4.1c0,0-14.1,32.2-16.5,36.8s-22,24.9-22,24.9l4.1,23.7L229,99.2L245.8,52l0.4-1.2c0,0,6-6.4,7.5-8.4
		C256.9,38.2,256.5,37.9,255.9,37.6z"/>
	<path class="st10" d="M138.7,196.8c0,0-10,22.6-12.1,45L116,385.4l35.3,3.7l10.3-148.9c0,0,32.4,150.3,33.6,150.3
		s28.4-10.1,28.4-10.1l-31.9-182.9L138.7,196.8z"/>
	<path class="st4" d="M176.6,243.9c0,0.2-7.2-1.4-16-3.6s-15.9-4-15.8-4.2s7.2,1.4,16,3.6S176.6,243.7,176.6,243.9z"/>
	<path class="st11" d="M153.3,358c0,0-0.1,0-0.4,0.1c-0.4,0.1-0.7,0.1-1.1,0.1c-1.3,0-2.6,0-3.9-0.2c-1.9-0.3-3.8-0.8-5.7-1.4
		c-2.1-0.7-4.4-1.5-6.8-2.3c-2.2-0.8-4.5-1.3-6.9-1.6c-1.9-0.3-3.8-0.3-5.7,0c-1.8,0.3-3.5,0.8-5.1,1.6c0.1-0.1,0.2-0.2,0.3-0.2
		c0.3-0.2,0.6-0.4,0.9-0.5c1.2-0.6,2.5-1,3.8-1.2c1.9-0.3,3.9-0.3,5.9-0.1c2.4,0.3,4.7,0.9,7,1.6l6.8,2.3c1.8,0.6,3.7,1.1,5.6,1.5
		C149.7,357.9,151.5,358.1,153.3,358z"/>
	<path class="st11" d="M153.4,345.9c-0.5,0-1,0-1.4,0c-1.3,0-2.6,0-3.9,0.1c-3.3,0.2-7.8,1.3-12.7,2.3c-2.3,0.5-4.7,0.8-7.1,0.9
		c-2,0.1-3.9,0-5.8-0.4c-1.3-0.3-2.6-0.7-3.8-1.2c-0.3-0.2-0.6-0.3-0.9-0.5c-0.1-0.1-0.2-0.1-0.3-0.2c1.6,0.7,3.4,1.2,5.1,1.5
		c3.2,0.6,7.8,0.4,12.8-0.7s9.4-2,12.8-2.2c1.3-0.1,2.6-0.1,3.9,0C152.5,345.7,153,345.8,153.4,345.9z"/>
	<path class="st11" d="M216.3,331.9c0,0.1-0.1,0.2-0.2,0.3c-0.2,0.3-0.4,0.6-0.7,0.8c-1,0.9-2.1,1.6-3.4,2c-1.9,0.6-3.9,0.8-5.8,0.6
		c-2.2-0.2-4.6-0.7-7-1.1c-2.3-0.4-4.7-0.5-7-0.2c-1.9,0.2-3.8,0.7-5.5,1.5c-1.6,0.7-3.2,1.5-4.7,2.5c0,0,0.1-0.1,0.3-0.3
		s0.5-0.4,0.9-0.6c1.1-0.8,2.2-1.4,3.4-1.9c1.8-0.8,3.7-1.3,5.6-1.6c2.4-0.3,4.8-0.3,7.1,0.1c2.5,0.4,4.8,1,7,1.1
		c1.9,0.2,3.8,0,5.7-0.5c1.2-0.4,2.4-1,3.4-1.8C216,332.3,216.3,331.9,216.3,331.9z"/>
	<path class="st11" d="M221.7,358.4c-0.3,0.4-0.6,0.8-0.9,1.1c-0.9,1-1.9,1.8-2.9,2.6c-3.5,2.6-7.5,4.4-11.8,5.2
		c-4.3,0.8-8.7,0.5-12.9-0.7c-1.3-0.4-2.5-0.8-3.7-1.4c-0.4-0.2-0.9-0.4-1.3-0.7c0.5,0.1,0.9,0.3,1.3,0.5c1.2,0.5,2.4,0.9,3.7,1.2
		c4.1,1.1,8.5,1.3,12.7,0.5c4.2-0.8,8.2-2.5,11.7-4.9C220.3,359.9,221.6,358.3,221.7,358.4z"/>
	<path class="st11" d="M212.9,320.9c0,0-0.5,0-1.4,0c-1.3,0.1-2.5,0.3-3.7,0.9c-1.7,0.8-3.3,1.8-4.8,3c-1.7,1.3-3.4,3-5.4,4.4
		c-1.9,1.4-4.1,2.3-6.5,2.7c-1.9,0.3-3.8,0.3-5.7,0c-1.6-0.2-2.9-0.5-3.8-0.7c-0.5-0.1-0.9-0.2-1.4-0.4c0.5,0,0.9,0.1,1.4,0.2
		c0.9,0.1,2.2,0.3,3.8,0.5c1.9,0.2,3.7,0.2,5.6-0.1c2.3-0.4,4.4-1.3,6.2-2.6c2-1.4,3.7-3,5.4-4.3c1.5-1.2,3.1-2.2,4.9-2.9
		c1.2-0.5,2.5-0.7,3.8-0.7c0.3,0,0.7,0.1,1,0.1C212.7,320.8,212.8,320.8,212.9,320.9z"/>
	<path class="st11" d="M156.4,315.1c0,0-0.1,0.1-0.3,0.2c-0.3,0.2-0.7,0.4-1,0.5c-1.3,0.5-2.6,0.9-3.9,1c-2,0.2-4,0.1-6-0.3
		c-2.4-0.4-4.8-1.1-7.1-1.8c-2.3-0.8-4.7-1.4-7.1-1.9c-1.9-0.4-3.9-0.5-5.9-0.4c-1.8,0.2-3.6,0.6-5.3,1.3c0.1-0.1,0.2-0.2,0.3-0.2
		c0.3-0.2,0.7-0.4,1-0.5c1.3-0.5,2.6-0.9,3.9-1c2-0.2,4-0.1,6,0.3c2.4,0.5,4.8,1.1,7.1,1.8c2.3,0.8,4.6,1.4,7,1.8
		c1.9,0.4,3.9,0.5,5.9,0.4C153,316.3,154.7,315.9,156.4,315.1z"/>
	<path class="st11" d="M208.2,290.6c0,0,0,0.1-0.1,0.4c-0.1,0.3-0.3,0.7-0.4,1c-0.6,1.2-1.5,2.3-2.5,3.2c-1.5,1.4-3.3,2.4-5.2,3.1
		c-2.3,0.8-4.7,1.4-7.2,1.7c-2.6,0.3-5.1,0.6-7.3,0.9c-2,0.2-3.9,0.6-5.9,1c-1.3,0.4-2.5,1-3.5,1.8c-0.4,0.4-0.7,0.7-1.1,1
		c0.1-0.1,0.1-0.2,0.2-0.3c0.2-0.3,0.5-0.6,0.8-0.8c1-0.9,2.2-1.6,3.5-2c1.9-0.5,3.9-0.9,5.9-1.2c2.2-0.4,4.7-0.6,7.3-1
		c2.4-0.3,4.8-0.8,7.1-1.6c1.9-0.7,3.6-1.7,5.1-3C206.3,293.7,207.4,292.2,208.2,290.6z"/>
	<path class="st11" d="M122,287.7c1.5,1,3.2,1.8,5,2.3c1.9,0.6,3.9,0.7,5.9,0.5c2.4-0.3,4.8-1.1,6.9-2.4c2.3-1.2,4.4-2.6,6.6-3.5
		c1.9-0.9,3.9-1.4,5.9-1.5c1.4-0.1,2.8,0.2,4.1,0.7c0.4,0.2,0.7,0.3,1,0.6c0.1,0.1,0.2,0.1,0.3,0.2c0,0-0.5-0.3-1.4-0.6
		c-1.3-0.5-2.6-0.6-4-0.5c-2,0.2-3.9,0.7-5.8,1.6c-2.1,1-4.2,2.3-6.5,3.6c-2.2,1.3-4.6,2.1-7.1,2.4c-2,0.2-4.1,0-6.1-0.6
		c-1.3-0.4-2.6-1-3.7-1.8c-0.3-0.2-0.6-0.4-0.9-0.7C122.1,287.8,122,287.7,122,287.7z"/>
	<path class="st11" d="M202.5,261.4c-0.2,0.4-0.5,0.9-0.8,1.3c-0.8,1.1-1.7,2.1-2.7,3c-3.3,3-7.5,5-11.9,5.7c-2.4,0.3-4.9,0.3-7.3,0
		c-2-0.2-3.9-0.2-5.9,0.1c-1.3,0.2-2.6,0.6-3.7,1.3c-0.8,0.5-1.2,0.9-1.2,0.9s0.1-0.1,0.2-0.3c0.3-0.3,0.5-0.5,0.9-0.7
		c1.1-0.8,2.4-1.3,3.8-1.5c2-0.3,4-0.4,6-0.2c2.4,0.3,4.8,0.2,7.2-0.1c4.4-0.7,8.4-2.6,11.8-5.5
		C200.1,264.1,201.4,262.8,202.5,261.4z"/>
	<path class="st11" d="M157.9,258.9c-1.6-0.6-3.3-0.9-5.1-1c-1.9,0-3.7,0.3-5.5,0.9c-1,0.4-2,0.9-3.1,1.4c-0.6,0.2-1.2,0.4-1.8,0.5
		c-0.6,0.1-1.3,0-1.9-0.2c-1.1-0.5-2.2-1.1-3.2-1.8c-0.9-0.6-1.9-1-3-1.4c-1.8-0.6-3.6-0.8-5.5-0.7c-1.7,0.2-3.4,0.5-5,1.1
		c0,0,0.1-0.1,0.3-0.2c0.3-0.2,0.7-0.3,1-0.4c1.2-0.5,2.5-0.7,3.7-0.9c1.9-0.2,3.8,0.1,5.7,0.6c1.1,0.3,2.1,0.8,3.1,1.4
		c1,0.7,2,1.3,3.1,1.8c1.1,0.4,2.3,0.3,3.3-0.2c1.1-0.4,2-1,3.1-1.3c1.8-0.6,3.7-0.9,5.6-0.8c1.3,0.1,2.6,0.3,3.8,0.7
		c0.3,0.1,0.7,0.2,1,0.4C157.8,258.8,157.9,258.9,157.9,258.9z"/>
	<path class="st11" d="M202.5,255.3c-0.3,0.4-0.7,0.8-1.1,1.1c-1,1-2.1,1.9-3.2,2.7c-0.7,0.5-1.5,1.1-2.4,1.6
		c-0.4,0.3-0.9,0.6-1.4,0.8l-1.5,0.8c-2.3,1.1-4.7,2-7.2,2.6c-2.5,0.6-5,0.9-7.6,0.9l-1.7,0c-0.6,0-1.1-0.1-1.6-0.1
		c-1.1-0.1-2-0.3-2.9-0.4c-1.4-0.2-2.7-0.6-4.1-1c-0.5-0.1-1-0.3-1.4-0.5c0-0.1,2.1,0.6,5.6,1.2c0.9,0.1,1.8,0.3,2.9,0.4
		c0.5,0,1,0.1,1.6,0.1h1.7c2.5,0,5-0.3,7.5-0.9c2.4-0.6,4.8-1.5,7.1-2.5l1.5-0.8c0.5-0.3,0.9-0.5,1.4-0.8c0.9-0.5,1.7-1.1,2.4-1.5
		c1.4-1,2.6-1.9,3.3-2.5C201.7,255.9,202.1,255.6,202.5,255.3z"/>
	<path class="st11" d="M196.4,226.7c-0.2,0.2-0.4,0.3-0.6,0.4l-1.9,1c-1.7,0.9-4.1,2.1-7.2,3.5c-3.7,1.6-7.5,2.7-11.5,3.2
		c-2.3,0.3-4.7,0.2-7.1-0.1c-2.5-0.4-4.9-1.1-7.3-2c-4.9-1.8-9.3-3.9-13.6-5c-3.8-1-7.8-1.3-11.7-0.9c-2.6,0.3-5.3,0.8-7.8,1.7
		c-0.9,0.3-1.6,0.6-2,0.8c-0.2,0.1-0.5,0.2-0.7,0.3c0.2-0.1,0.4-0.2,0.6-0.3c0.4-0.2,1.1-0.5,2-0.9c2.5-1,5.1-1.6,7.8-1.9
		c4-0.5,8-0.2,11.9,0.8c4.4,1.1,8.9,3.2,13.7,5c2.3,0.9,4.8,1.5,7.2,2c2.3,0.4,4.6,0.4,6.9,0.2c3.9-0.5,7.7-1.5,11.4-3
		c3.1-1.3,5.6-2.5,7.3-3.3l2-1C196,226.9,196.2,226.8,196.4,226.7z"/>
	<path class="st11" d="M194.4,211.8c-0.6-0.7-1.2-1.2-1.9-1.8c-2-1.2-4.3-1.8-6.7-1.8c-1.6,0-3.2,0.3-4.7,0.8
		c-1.6,0.6-3.4,1.3-5.2,2.2c-3.9,1.9-7.9,3.5-12.1,4.6c-10,2.5-20.6,1.5-30-2.7c-0.8-0.4-1.3-0.7-1.7-0.9c-0.2-0.1-0.4-0.2-0.6-0.3
		c0.2,0.1,0.4,0.1,0.6,0.2l1.8,0.8c2.2,0.9,4.4,1.6,6.7,2.2c3.4,0.9,6.9,1.4,10.4,1.5c4.3,0.1,8.6-0.3,12.7-1.3
		c4.1-1.1,8.2-2.6,12-4.5c1.8-0.8,3.6-1.6,5.2-2.1c1.6-0.6,3.2-0.8,4.9-0.8c2.4,0,4.8,0.7,6.8,2c0.5,0.4,1,0.8,1.4,1.3
		C194.1,211.4,194.3,211.6,194.4,211.8z"/>
	<path class="st7" d="M214.5,118.9l-14.1-18.5l-0.6,0.4L177.4,115l-23.9,0.8c0,0-16.8,0-23.1,13.2c-0.7,1.4-14.5,29-14.5,29
		l21.3,7.8l3.4-9.8l4.4,22.3l-6.3,18.4l53.4,2.9l-4.5-26.7l4-32L214.5,118.9z"/>
	<path class="st4" d="M177.4,162c0.1,0.5,0.1,1,0,1.5c-0.1,1.4-0.5,2.8-1,4.1c-1.8,4.3-5.1,7.9-9.3,10c-4.2,2-8.8,3-13.5,2.7
		c-1.4,0-2.8-0.2-4.2-0.4c-0.5-0.1-1-0.2-1.5-0.4c0-0.1,2.2,0.3,5.7,0.3c4.6,0.1,9.1-0.9,13.2-2.8c4.1-2.1,7.3-5.4,9.2-9.6
		C176.6,165.7,177.1,163.9,177.4,162z"/>
	<path class="st4" d="M145.2,179.4c-0.2,0-2.7-11.6-5.7-25.9c-3-14.3-5.3-26-5.1-26s2.7,11.5,5.7,25.9
		C143.1,167.7,145.4,179.3,145.2,179.4z"/>
	<g class="st15">
		<path d="M151.8,180.3c-0.6-2.1,1.1-4.2,3-5.2s4.2-1.1,6.3-1.6c4.1-1,7.8-3.4,10.3-6.9c0.3-0.5,0.7-1,1.3-1c0.6,0,1.1,0.4,1.2,1
			c0.2,0.6,0.2,1.3,0.1,2c-1,5.1-5.1,7.3-9.4,9.5C160.4,180.5,157,180.7,151.8,180.3"/>
	</g>
</g>
</svg>
