<?xml version="1.0" encoding="utf-8"?>
<!-- Generator: Adobe Illustrator 24.1.3, SVG Export Plug-In . SVG Version: 6.00 Build 0)  -->
<svg version="1.1" id="Layer_1" xmlns="http://www.w3.org/2000/svg" xmlns:xlink="http://www.w3.org/1999/xlink" x="0px" y="0px"
	 viewBox="0 0 439.5 364.9" style="enable-background:new 0 0 439.5 364.9;" xml:space="preserve">
<style type="text/css">
	.st0{fill:#EBEBEB;}
	.st1{fill:#E0E0E0;}
	.st2{fill:#FAFAFA;}
	.st3{fill:#FFFFFF;}
	.st4{fill:#263238;}
	.st5{fill:#00AC69;}
	.st6{opacity:0.3;}
	.st7{opacity:0.3;enable-background:new    ;}
	.st8{opacity:0.6;fill:#FFFFFF;enable-background:new    ;}
	.st9{fill:#455A64;}
	.st10{fill:#FFBE9D;}
	.st11{opacity:0.6;}
	.st12{opacity:0.2;fill:#FFFFFF;enable-background:new    ;}
</style>
<g id="background-complete--inject-2">
	<path class="st0" d="M113.1,326.3c15.9-11.8,18.9-32.7,17.7-51.4c-0.2-3.1,0-6.4-1.6-9.1s-5.2-4.5-8-3c-2.3,1.2-3.2,3.9-4.5,6.2
		c-1.7,3-4.2,5.6-7.2,7.2c-2,1.1-4.5,1.8-6.5,0.8c-2.8-1.4-3.2-5.1-3.3-8.2l-0.4-17.4c-0.1-3.1-0.2-6.3-1.2-9.2s-3.3-5.6-6.3-6.3
		c-3-0.7-6.7,1.1-7.2,4.2c-0.1,1.3-0.1,2.6,0,3.9c0,1.3-0.6,2.7-1.8,3.1s-2.5-0.4-3.5-1.3c-3.4-3-5.7-7-7.9-11s-4.3-8-7.4-11.3
		c-3-3.3-7.2-5.9-11.7-6s-9.2,2.8-10.2,7.2s1.7,8.8,4.7,12.2c4.4,5.1,9.4,9.6,15.1,13.3c1.1,0.5,2,1.4,2.5,2.5
		c0.9,2-1.1,4.1-3.1,4.9c-2.3,0.9-4.9,0.7-7.3,1.1s-5.1,1.5-5.9,3.8c-1.2,3.2,1.6,6.5,4.3,8.5c5.5,4.2,11.6,7.4,18.1,9.6
		c2.3,0.8,4.8,1.4,6.7,3s3.1,4.3,2.1,6.5c-1.1,2.2-3.9,3-6.4,2.6s-4.6-1.6-7-2.4c-4.4-1.5-10-1-12.6,2.8c-1.6,2.6-1.9,5.9-0.8,8.7
		c1.1,2.8,2.8,5.4,5,7.5c7.1,7.9,16.3,13.8,26.4,17.1C93.9,329.6,103.2,330.3,113.1,326.3"/>
	<path class="st1" d="M46.4,220.3l0.3,0.3l1,0.8c0.8,0.7,2.1,1.7,3.7,3.1c4.5,3.8,8.6,8,12.4,12.4c2.4,2.8,5,6,7.6,9.4
		c2.7,3.4,5.5,7.2,8.3,11.2c3,4.2,5.7,8.5,8.2,13c1.3,2.3,2.5,4.8,3.6,7.3l3.6,7.6c4.6,9.6,8.7,19.5,12.2,29.5
		c2.8,8.2,4.9,16.7,6.1,25.3c0.8,5.8,1.1,11.7,0.8,17.5c-0.1,2.1-0.2,3.7-0.3,4.8c0,0.5-0.1,0.9-0.1,1.2s0,0.4,0,0.4
		s0.4-2.3,0.6-6.4c0.3-5.9,0.1-11.8-0.7-17.6c-1.2-8.6-3.2-17.2-6-25.4c-3.5-10.1-7.5-20-12.2-29.6c-1.2-2.6-2.4-5.1-3.6-7.6
		c-1.2-2.5-2.4-5-3.7-7.3c-2.5-4.5-5.3-8.8-8.3-13c-2.8-4-5.7-7.7-8.3-11.2s-5.2-6.6-7.7-9.4c-3.8-4.4-8-8.6-12.5-12.3
		c-1.6-1.3-2.9-2.3-3.7-3l-1-0.8L46.4,220.3z"/>
	<path class="st1" d="M88.3,270.3c0.1-0.4,0.2-0.9,0.2-1.3c0.1-0.9,0.3-2.1,0.4-3.7c0.3-3.1,0.6-7.4,1-12.2c0.3-4.8,0.7-9,1.1-12.1
		c0.2-1.5,0.4-2.8,0.5-3.7c0.1-0.4,0.1-0.9,0.1-1.4c-0.2,0.4-0.3,0.9-0.3,1.3c-0.2,0.9-0.4,2.1-0.6,3.6c-0.5,3.1-0.9,7.4-1.3,12.1
		s-0.6,9-0.9,12.2c-0.1,1.5-0.2,2.7-0.3,3.7C88.3,269.4,88.2,269.8,88.3,270.3z"/>
	<path class="st1" d="M47.6,264.1c0.1,0,0.3,0.1,0.4,0.1l1.2,0.1c1,0,2.6,0.1,4.4,0.3c3.7,0.3,8.8,0.8,14.5,1.7
		c5.6,0.9,10.7,1.9,14.3,2.7c1.8,0.4,3.3,0.8,4.3,1l1.2,0.3c0.1,0,0.3,0.1,0.4,0.1c-0.1-0.1-0.3-0.1-0.4-0.2l-1.1-0.4
		c-1-0.3-2.4-0.7-4.3-1.2c-3.6-0.9-8.7-2-14.3-2.9s-10.8-1.4-14.5-1.5c-1.9-0.1-3.4-0.1-4.4-0.1H48C47.8,264,47.7,264.1,47.6,264.1z
		"/>
	<path class="st1" d="M107.3,314c0.1-0.2,0.2-0.3,0.2-0.5c0.2-0.4,0.4-0.9,0.6-1.5c0.5-1.3,1.3-3.1,2.2-5.5
		c1.8-4.6,4.1-11.1,6.5-18.3s4.6-13.7,6.4-18.4c0.9-2.3,1.6-4.2,2.1-5.5c0.2-0.6,0.4-1.1,0.6-1.5c0.1-0.2,0.1-0.4,0.2-0.5
		c-0.1,0.2-0.2,0.3-0.2,0.5l-0.6,1.5c-0.6,1.3-1.3,3.1-2.2,5.5c-1.8,4.6-4.1,11.1-6.5,18.3s-4.6,13.7-6.4,18.4
		c-0.9,2.3-1.6,4.2-2.1,5.5c-0.2,0.6-0.4,1.1-0.6,1.5C107.4,313.7,107.3,313.9,107.3,314z"/>
	<path class="st1" d="M53,298.7c0.2,0.1,0.4,0.1,0.5,0.2l1.6,0.5L61,301c4.9,1.4,11.7,3.4,19.1,5.6s14.2,4.2,19.2,5.5
		c2.5,0.6,4.5,1.2,5.9,1.5l1.6,0.4c0.2,0.1,0.4,0.1,0.6,0.1c-0.2-0.1-0.4-0.1-0.6-0.2l-1.6-0.5l-5.8-1.6c-4.9-1.4-11.7-3.4-19.1-5.6
		S66,302,61.1,300.7c-2.5-0.7-4.5-1.2-5.9-1.5l-1.6-0.4C53.4,298.8,53.2,298.7,53,298.7z"/>
	<rect y="48.7" class="st0" width="159" height="106.5"/>
	<rect y="48.7" class="st1" width="159" height="10.6"/>
	<path class="st2" d="M6.9,54.1c0.1,0.7-0.5,1.3-1.2,1.4S4.4,55,4.3,54.3c-0.1-0.7,0.5-1.3,1.2-1.4c0,0,0.1,0,0.1,0
		C6.3,52.8,6.9,53.4,6.9,54.1C6.9,54.1,6.9,54.1,6.9,54.1z"/>
	<path class="st2" d="M11.1,54.1c0.1,0.7-0.5,1.3-1.2,1.4S8.6,55,8.5,54.3c-0.1-0.7,0.5-1.3,1.2-1.4c0,0,0.1,0,0.1,0
		C10.5,52.8,11.1,53.4,11.1,54.1C11.1,54.1,11.1,54.1,11.1,54.1z"/>
	<path class="st2" d="M15.2,54.1c0.1,0.7-0.5,1.3-1.2,1.4c-0.7,0.1-1.3-0.5-1.4-1.2c-0.1-0.7,0.5-1.3,1.2-1.4c0,0,0.1,0,0.1,0
		C14.6,52.8,15.2,53.4,15.2,54.1C15.2,54.1,15.2,54.1,15.2,54.1z"/>
	<rect x="280.3" y="45.6" class="st0" width="159" height="106.5"/>
	<rect x="280.3" y="45.6" class="st1" width="159" height="10.6"/>
	<path class="st2" d="M287.2,50.9c-0.1,0.7-0.7,1.2-1.4,1.2c-0.6-0.1-1.1-0.5-1.2-1.2c0.1-0.7,0.7-1.2,1.4-1.2
		C286.6,49.8,287.1,50.3,287.2,50.9z"/>
	<path class="st2" d="M291.3,50.9c0,0.7-0.5,1.3-1.2,1.4c-0.7,0-1.3-0.5-1.4-1.2c0-0.7,0.5-1.3,1.2-1.4c0,0,0.1,0,0.1,0
		C290.7,49.7,291.3,50.2,291.3,50.9C291.3,50.9,291.3,50.9,291.3,50.9z"/>
	<path class="st2" d="M295.5,50.9c0,0.7-0.5,1.3-1.2,1.4c-0.7,0-1.3-0.5-1.4-1.2c0-0.7,0.5-1.3,1.2-1.4c0,0,0.1,0,0.1,0
		C294.9,49.7,295.4,50.2,295.5,50.9C295.5,50.9,295.5,50.9,295.5,50.9z"/>
</g>
<g id="Windows--inject-2">
	<rect x="32.2" y="23.8" class="st3" width="202.8" height="135.9"/>
	<rect x="32.4" y="22.8" class="st0" width="202.8" height="13.6"/>
	<path class="st2" d="M43.2,28.6c0.1,0.9-0.6,1.7-1.5,1.7c-0.9,0.1-1.7-0.6-1.7-1.5c-0.1-0.9,0.6-1.7,1.5-1.7c0,0,0.1,0,0.1,0
		C42.4,27.1,43.1,27.8,43.2,28.6z"/>
	<path class="st2" d="M48.5,28.6c0.1,0.9-0.6,1.7-1.5,1.7c-0.9,0.1-1.7-0.6-1.7-1.5c-0.1-0.9,0.6-1.7,1.5-1.7c0,0,0.1,0,0.1,0
		C47.7,27.1,48.4,27.8,48.5,28.6z"/>
	<path class="st2" d="M53.8,28.6c0.1,0.9-0.6,1.7-1.5,1.7c-0.9,0.1-1.7-0.6-1.7-1.5c-0.1-0.9,0.6-1.7,1.5-1.7c0,0,0.1,0,0.1,0
		C53,27.1,53.7,27.7,53.8,28.6C53.7,28.6,53.7,28.6,53.8,28.6z"/>
	<path class="st4" d="M235.3,158.7c0,0,0-0.9,0-2.5s0-4,0-7.2c0-6.3,0-15.5-0.1-27.3c0-23.6-0.1-57.5-0.1-98.9l0.2,0.2L32.5,23.1
		l0,0l0.3-0.3c0,48.4,0,94.4,0,135.9l-0.3-0.3l146.1,0.1l41.7,0.1h11.1h2.9L235.3,158.7l-0.9-0.1h-2.8h-11l-41.7,0.1l-146.3,0.1
		h-0.3v-0.3c0-41.4,0-87.5,0-135.9v-0.3h0.3h202.8h0.2v0.2c0,41.4-0.1,75.4-0.1,99.1c0,11.8,0,21,0,27.3c0,3.1,0,5.5,0,7.1
		S235.3,158.7,235.3,158.7z"/>
	<rect x="45.6" y="98.6" class="st5" width="46.1" height="3.1"/>
	<rect x="105.2" y="55.8" class="st5" width="46.1" height="3.1"/>
	<path class="st4" d="M219.9,67.3c0,0.2-25.7,0.3-57.4,0.3s-57.4-0.1-57.4-0.3s25.7-0.3,57.4-0.3S219.9,67.1,219.9,67.3z"/>
	<path class="st4" d="M219.9,74c0,0.1-25.7,0.3-57.4,0.3s-57.4-0.1-57.4-0.3s25.7-0.3,57.4-0.3S219.9,73.9,219.9,74z"/>
	<path class="st4" d="M219.9,80.8c0,0.2-25.7,0.3-57.4,0.3s-57.4-0.1-57.4-0.3s25.7-0.3,57.4-0.3S219.9,80.6,219.9,80.8z"/>
	<path class="st4" d="M219.9,87.5c0,0.2-25.7,0.3-57.4,0.3s-57.4-0.1-57.4-0.3s25.7-0.3,57.4-0.3S219.9,87.4,219.9,87.5z"/>
	<path class="st4" d="M219.9,94.3c0,0.2-25.7,0.3-57.4,0.3s-57.4-0.1-57.4-0.3s25.7-0.3,57.4-0.3S219.9,94.1,219.9,94.3z"/>
	<path class="st4" d="M150,101c0,0.2-10,0.3-22.4,0.3s-22.4-0.1-22.4-0.3s10-0.3,22.4-0.3S150,100.8,150,101z"/>
	<path class="st4" d="M219.1,114.1c0,0.2-16.9,0.3-37.7,0.3s-37.7-0.1-37.7-0.3s16.9-0.3,37.7-0.3S219.1,113.9,219.1,114.1z"/>
	<path class="st4" d="M219.1,121.2c0,0.2-16.9,0.3-37.7,0.3s-37.7-0.1-37.7-0.3s16.9-0.3,37.7-0.3S219.1,121.1,219.1,121.2z"/>
	<path class="st4" d="M219.1,128.4c0,0.2-16.9,0.3-37.7,0.3s-37.7-0.1-37.7-0.3c0-0.2,16.9-0.3,37.7-0.3S219.1,128.2,219.1,128.4z"
		/>
	<path class="st4" d="M219.1,135.5c0,0.2-16.9,0.3-37.7,0.3s-37.7-0.1-37.7-0.3c0-0.2,16.9-0.3,37.7-0.3S219.1,135.4,219.1,135.5z"
		/>
	<path class="st4" d="M91.9,113.4c0,0.2-10.1,0.3-22.5,0.3s-22.5-0.1-22.5-0.3s10.1-0.3,22.5-0.3S91.9,113.2,91.9,113.4z"/>
	<path class="st4" d="M91.9,119c0,0.2-10.1,0.3-22.5,0.3s-22.5-0.1-22.5-0.3s10.1-0.3,22.5-0.3S91.9,118.8,91.9,119z"/>
	<path class="st4" d="M91.9,124.6c0,0.1-10.1,0.3-22.5,0.3s-22.5-0.1-22.5-0.3s10.1-0.3,22.5-0.3S91.9,124.5,91.9,124.6z"/>
	<path class="st4" d="M91.9,130.2c0,0.2-10.1,0.3-22.5,0.3s-22.5-0.1-22.5-0.3c0-0.2,10.1-0.3,22.5-0.3S91.9,130.1,91.9,130.2z"/>
	<path class="st4" d="M91.9,135.8c0,0.2-10.1,0.3-22.5,0.3s-22.5-0.1-22.5-0.3c0-0.2,10.1-0.3,22.5-0.3S91.9,135.7,91.9,135.8z"/>
	<rect x="105.2" y="110.7" class="st5" width="32.7" height="31.7"/>
	<g class="st6">
		<polygon points="107.7,139.6 116.8,123.3 124.2,133.7 128.7,128.2 135.4,139.6 		"/>
	</g>
	<g class="st6">
		<path d="M127.3,120.1c0,1.3-1.1,2.4-2.4,2.4s-2.4-1.1-2.4-2.4s1.1-2.4,2.4-2.4S127.3,118.8,127.3,120.1L127.3,120.1z"/>
	</g>
	<path class="st7" d="M135.4,139.7v-0.1c0-0.1,0-0.2,0-0.4c0-0.3,0-0.8,0-1.4c0-1.3,0-3.1,0-5.4c0-4.6,0-11.2-0.1-19.1l0.1,0.1
		h-27.6l0.1-0.1l0,0v13.9c0,4.4,0,8.6,0,12.5l-0.1-0.1l20,0.1h5.6h1.5h-1.4h-5.6l-20.1,0.1h-0.1v-0.1c0-3.9,0-8,0-12.5
		c0-2.2,0-4.5,0-6.8v-7.1l0,0l0.2-0.2h27.6h0.1v0.1c0,7.9,0,14.6-0.1,19.2c0,2.3,0,4.1,0,5.3c0,0.6,0,1.1,0,1.4v0.4
		C135.4,139.7,135.4,139.7,135.4,139.7z"/>
	<rect x="43.8" y="47" class="st5" width="46.2" height="44.7"/>
	<g class="st6">
		<polygon points="47.4,87.9 60.1,64.9 70.6,79.6 77,71.8 86.4,87.9 		"/>
	</g>
	<g class="st6">
		<circle cx="71.7" cy="60.4" r="3.3"/>
	</g>
	<path class="st7" d="M86.4,88c0-0.1,0-0.1,0-0.2c0-0.1,0-0.3,0-0.5c0-0.5,0-1.1,0-2c0-1.8,0-4.3-0.1-7.6c0-6.5-0.1-15.8-0.1-27
		l0.2,0.2H47.4c0.1-0.1,0.1-0.2,0.2-0.2l0,0v19.7c0,6.3,0,12.2,0,17.6l-0.2-0.2l28.3,0.1l8,0.1h2.1l0,0h-2.1L75.8,88l-28.4,0.1h-0.2
		v-0.2c0-5.4,0-11.4,0-17.6c0-3.1,0-6.4,0-9.6v-10l0,0c-0.2,0.2,0.3-0.3,0.2-0.2h39.1h0.2v0.2c0,11.2-0.1,20.6-0.1,27.1
		c0,3.2,0,5.8,0,7.6c0,0.9,0,1.5,0,2v0.5C86.6,87.9,86.5,88,86.4,88z"/>
	<rect x="211.3" y="30.3" class="st3" width="196.4" height="131.6"/>
	<rect x="211.5" y="29.4" class="st0" width="196.4" height="13.1"/>
	<path class="st2" d="M221.9,35c0.1,0.9-0.6,1.6-1.5,1.7c-0.9,0.1-1.6-0.6-1.7-1.5c-0.1-0.9,0.6-1.6,1.5-1.7c0,0,0.1,0,0.1,0
		C221.1,33.5,221.9,34.1,221.9,35C221.9,35,221.9,35,221.9,35z"/>
	<path class="st2" d="M227,35c0.1,0.9-0.6,1.6-1.5,1.7c-0.9,0.1-1.6-0.6-1.7-1.5c-0.1-0.9,0.6-1.6,1.5-1.7c0,0,0.1,0,0.1,0
		C226.3,33.5,227,34.2,227,35z"/>
	<path class="st2" d="M232.1,35c0.1,0.9-0.6,1.6-1.5,1.7c-0.9,0.1-1.6-0.6-1.7-1.5c-0.1-0.9,0.6-1.6,1.5-1.7c0,0,0.1,0,0.1,0
		C231.4,33.5,232.1,34.1,232.1,35C232.1,35,232.1,35,232.1,35z"/>
	<path class="st4" d="M407.9,160.9c0,0,0-0.8,0-2.4s0-3.9,0-6.9c0-6.1,0-15-0.1-26.5c0-22.9-0.1-55.7-0.1-95.8l0.2,0.2l-196.4,0.1
		l0,0l0.3-0.3c0,46.9,0,91.4,0,131.6l-0.3-0.3l141.5,0.1l40.4,0.1h10.8h2.8L407.9,160.9l-0.8-0.1h-2.7h-10.7l-40.4,0.1l-141.7,0.1
		h-0.3v-0.3c0-40.1,0-84.7,0-131.6v-0.1h0.3L408,29.2h0.2v0.2c0,40.1-0.1,73-0.1,95.9c0,11.4,0,20.3-0.1,26.4c0,3,0,5.3,0,6.9
		S407.9,160.9,407.9,160.9z"/>
	<rect x="224.3" y="102.8" class="st5" width="44.7" height="3"/>
	<rect x="282" y="61.3" class="st5" width="44.7" height="3"/>
	<path class="st4" d="M393.1,72.4c0,0.2-24.9,0.3-55.5,0.3S282,72.6,282,72.4s24.9-0.3,55.5-0.3S393.1,72.3,393.1,72.4z"/>
	<path class="st4" d="M393.1,78.9c0,0.2-24.9,0.3-55.5,0.3S282,79.1,282,78.9s24.9-0.3,55.5-0.3S393.1,78.8,393.1,78.9z"/>
	<path class="st4" d="M393.1,85.5c0,0.2-24.9,0.3-55.5,0.3S282,85.6,282,85.5s24.9-0.3,55.5-0.3S393.1,85.3,393.1,85.5z"/>
	<path class="st4" d="M393.1,92c0,0.2-24.9,0.3-55.5,0.3S282,92.2,282,92s24.9-0.3,55.5-0.3S393.1,91.8,393.1,92z"/>
	<path class="st4" d="M393.1,98.5c0,0.2-24.9,0.3-55.5,0.3S282,98.7,282,98.5s24.9-0.3,55.5-0.3S393.1,98.4,393.1,98.5z"/>
	<path class="st4" d="M325.3,105c0,0.2-9.7,0.3-21.7,0.3S282,105.2,282,105s9.7-0.3,21.7-0.3S325.3,104.9,325.3,105z"/>
	<path class="st4" d="M392.2,117.7c0,0.2-16.3,0.3-36.5,0.3s-36.5-0.1-36.5-0.3s16.3-0.3,36.5-0.3S392.2,117.5,392.2,117.7z"/>
	<path class="st4" d="M392.2,124.6c0,0.2-16.3,0.3-36.5,0.3s-36.5-0.1-36.5-0.3s16.3-0.3,36.5-0.3S392.2,124.5,392.2,124.6z"/>
	<path class="st4" d="M392.2,131.6c0,0.2-16.3,0.3-36.5,0.3s-36.5-0.1-36.5-0.3c0-0.2,16.3-0.3,36.5-0.3S392.2,131.4,392.2,131.6z"
		/>
	<path class="st4" d="M392.2,138.5c0,0.2-16.3,0.3-36.5,0.3s-36.5-0.1-36.5-0.3c0-0.2,16.3-0.3,36.5-0.3S392.2,138.3,392.2,138.5z"
		/>
	<path class="st4" d="M269.1,117c0,0.2-9.8,0.3-21.8,0.3s-21.8-0.1-21.8-0.3s9.7-0.3,21.8-0.3S269.1,116.9,269.1,117z"/>
	<path class="st4" d="M269.1,122.5c0,0.2-9.8,0.3-21.8,0.3s-21.8-0.1-21.8-0.3s9.7-0.3,21.8-0.3S269.1,122.3,269.1,122.5z"/>
	<path class="st4" d="M269.1,127.9c0,0.2-9.8,0.3-21.8,0.3s-21.8-0.1-21.8-0.3c0-0.2,9.7-0.3,21.8-0.3S269.1,127.8,269.1,127.9z"/>
	<path class="st4" d="M269.1,133.4c0,0.2-9.8,0.3-21.8,0.3s-21.8-0.1-21.8-0.3c0-0.2,9.7-0.3,21.8-0.3S269.1,133.2,269.1,133.4z"/>
	<path class="st4" d="M269.1,138.8c0,0.2-9.8,0.3-21.8,0.3s-21.8-0.1-21.8-0.3c0-0.2,9.7-0.3,21.8-0.3S269.1,138.6,269.1,138.8z"/>
	<rect x="281.9" y="114.4" class="st5" width="31.7" height="30.7"/>
	<g class="st6">
		<polygon points="284.4,142.4 293.2,126.7 300.3,136.8 304.7,131.4 311.2,142.4 		"/>
	</g>
	<g class="st6">
		<path d="M303.4,123.6c0,1.3-1,2.3-2.3,2.3s-2.3-1-2.3-2.3c0-1.3,1-2.3,2.3-2.3l0,0C302.4,121.3,303.4,122.3,303.4,123.6z"/>
	</g>
	<path class="st7" d="M311.2,142.5c0,0,0-0.1,0-0.1V142c0-0.3,0-0.8,0-1.4c0-1.2,0-3,0-5.2c0-4.5,0-10.9-0.1-18.5l0.1,0.1h-26.8
		c0,0,0.3-0.3,0.1-0.1l0,0v6.9c0,2.2,0,4.5,0,6.6c0,4.3,0,8.4,0,12.1l-0.1-0.1l19.4,0.1h5.5h1.4h-1.4h-5.4l-19.4,0.1h-0.1v-0.1
		c0-3.7,0-7.8,0-12.1v-13.3l0,0c-0.1,0.1,0.2-0.2,0.1-0.2h26.8h0.1v0.1c0,7.7,0,14.1-0.1,18.6c0,2.2,0,4,0,5.2c0,0.6,0,1,0,1.4
		c0,0.1,0,0.2,0,0.3C311.3,142.4,311.2,142.5,311.2,142.5z"/>
	<rect x="101.5" y="1.5" class="st3" width="258.3" height="173"/>
	<rect x="101.7" y="0.3" class="st1" width="258.3" height="17.3"/>
	<path class="st2" d="M115.4,7.7c0.1,1.2-0.8,2.2-1.9,2.2c-1.2,0.1-2.2-0.8-2.2-1.9s0.8-2.2,1.9-2.2c0.1,0,0.1,0,0.2,0
		C114.4,5.7,115.3,6.6,115.4,7.7C115.4,7.7,115.4,7.7,115.4,7.7z"/>
	<path class="st2" d="M122.1,7.7c0.1,1.2-0.8,2.2-1.9,2.2C119,10,118,9.2,117.9,8s0.8-2.2,1.9-2.2c0,0,0.1,0,0.1,0
		C121.1,5.7,122,6.6,122.1,7.7C122.1,7.7,122.1,7.7,122.1,7.7z"/>
	<path class="st2" d="M128.8,7.7c0.1,1.2-0.8,2.2-1.9,2.3c-1.2,0.1-2.2-0.8-2.3-1.9c-0.1-1.2,0.8-2.2,1.9-2.3c0.1,0,0.1,0,0.2,0
		C127.9,5.7,128.8,6.6,128.8,7.7C128.8,7.7,128.8,7.7,128.8,7.7z"/>
	<path class="st4" d="M360,173.3c0-1.9-0.1-67.6-0.2-173l0.2,0.2L101.7,0.6l0,0l0.3-0.3c0,61.6,0,120.2,0,173l-0.3-0.3L360,173.3
		l-258.3,0.3h-0.3v-0.3c0-52.8,0-111.4,0-173V0h0.3l258.3,0.1h0.2v0.2C360.1,105.7,360,171.4,360,173.3z"/>
	<rect x="118.5" y="96.8" class="st5" width="58.7" height="3.9"/>
	<rect x="194.4" y="42.3" class="st5" width="58.7" height="3.9"/>
	<path class="st4" d="M340.5,56.9c0,0.1-32.7,0.3-73,0.3s-73.1-0.1-73.1-0.3s32.7-0.3,73.1-0.3S340.5,56.8,340.5,56.9z"/>
	<path class="st4" d="M340.5,65.5c0,0.2-32.7,0.3-73,0.3s-73.1-0.1-73.1-0.3s32.7-0.3,73.1-0.3S340.5,65.3,340.5,65.5z"/>
	<path class="st4" d="M340.5,74.1c0,0.2-32.7,0.3-73,0.3s-73.1-0.1-73.1-0.3s32.7-0.3,73.1-0.3S340.5,73.9,340.5,74.1z"/>
	<path class="st4" d="M340.5,82.7c0,0.2-32.7,0.3-73,0.3s-73.1-0.1-73.1-0.3s32.7-0.3,73.1-0.3S340.5,82.5,340.5,82.7z"/>
	<path class="st4" d="M340.5,91.2c0,0.2-32.7,0.3-73,0.3s-73.1-0.1-73.1-0.3s32.7-0.3,73.1-0.3S340.5,91.1,340.5,91.2z"/>
	<path class="st4" d="M251.4,99.8c0,0.2-12.8,0.3-28.5,0.3s-28.5-0.1-28.5-0.3s12.8-0.3,28.5-0.3S251.4,99.7,251.4,99.8z"/>
	<path class="st4" d="M339.4,116.5c0,0.2-21.5,0.3-48,0.3s-48-0.1-48-0.3s21.5-0.3,48-0.3S339.4,116.3,339.4,116.5z"/>
	<path class="st4" d="M339.4,125.6c0,0.2-21.5,0.3-48,0.3s-48-0.1-48-0.3s21.5-0.3,48-0.3S339.4,125.4,339.4,125.6z"/>
	<path class="st4" d="M339.4,134.7c0,0.2-21.5,0.3-48,0.3s-48-0.1-48-0.3c0-0.2,21.5-0.3,48-0.3S339.4,134.5,339.4,134.7z"/>
	<path class="st4" d="M339.4,143.8c0,0.2-21.5,0.3-48,0.3s-48-0.1-48-0.3c0-0.2,21.5-0.3,48-0.3S339.4,143.6,339.4,143.8z"/>
	<path class="st4" d="M177.4,115.6c0,0.2-12.8,0.3-28.6,0.3s-28.6-0.1-28.6-0.3s12.8-0.3,28.6-0.3S177.4,115.4,177.4,115.6z"/>
	<path class="st4" d="M177.4,122.7c0,0.2-12.8,0.3-28.6,0.3s-28.6-0.1-28.6-0.3s12.8-0.3,28.6-0.3S177.4,122.6,177.4,122.7z"/>
	<path class="st4" d="M177.4,129.9c0,0.2-12.8,0.3-28.6,0.3s-28.6-0.1-28.6-0.3c0-0.2,12.8-0.3,28.6-0.3S177.4,129.7,177.4,129.9z"
		/>
	<path class="st4" d="M177.4,137c0,0.2-12.8,0.3-28.6,0.3s-28.6-0.1-28.6-0.3c0-0.2,12.8-0.3,28.6-0.3S177.4,136.9,177.4,137z"/>
	<path class="st4" d="M177.4,144.2c0,0.2-12.8,0.3-28.6,0.3s-28.6-0.1-28.6-0.3s12.8-0.3,28.6-0.3S177.4,144,177.4,144.2z"/>
	<rect x="194.3" y="112.1" class="st5" width="41.7" height="40.3"/>
	<g class="st6">
		<polygon points="197.6,149 209.1,128.2 218.5,141.5 224.3,134.5 232.8,149 		"/>
	</g>
	<g class="st6">
		<path d="M222.6,124.2c0,1.7-1.3,3-3,3s-3-1.3-3-3s1.3-3,3-3l0,0C221.2,121.2,222.6,122.6,222.6,124.2z"/>
	</g>
	<path class="st7" d="M232.8,149.1c0,0,0-0.1,0-0.2s0-0.3,0-0.5c0-0.4,0-1,0-1.8c0-1.6,0-3.9,0-6.8c0-5.9,0-14.3-0.1-24.4l0.2,0.2
		h-35.2l0.2-0.2l0,0v17.7c0,5.6,0,11,0,15.9l-0.2-0.2l25.5,0.1h7.2h1.9h0.7c0,0,0,0-0.1,0h-0.5h-1.9h-7.1l-25.6,0.1h-0.2v0
		c0-4.9,0-10.2,0-15.9v-17.7l0,0c-0.2,0.2,0.2-0.2,0.2-0.2h35.2h0.2v0.2c0,10.1-0.1,18.5-0.1,24.5c0,2.9,0,5.2,0,6.8
		c0,0.8,0,1.4,0,1.8c0,0.2,0,0.3,0,0.5C233,149.1,232.8,149.1,232.8,149.1z"/>
	<rect x="116.1" y="31" class="st5" width="58.9" height="57"/>
	<g class="st6">
		<polygon points="120.7,83.1 137,53.8 150.3,72.6 158.4,62.6 170.4,83.1 		"/>
	</g>
	<g class="st6">
		<path d="M156,48.1c0,2.3-1.9,4.2-4.2,4.2s-4.2-1.9-4.2-4.2c0-2.3,1.9-4.2,4.2-4.2C154.1,43.9,156,45.8,156,48.1
			C156,48.1,156,48.1,156,48.1z"/>
	</g>
	<path class="st7" d="M170.4,83.3c0-0.1,0-0.2,0-0.2c0-0.2,0-0.4,0-0.7c0-0.6,0-1.5,0-2.6c0-2.3,0-5.5-0.1-9.7
		c0-8.3-0.1-20.2-0.1-34.4l0.2,0.2h-49.7l0.3-0.3l0,0v12.8c0,4.2,0,8.3,0,12.3c0,8,0,15.5,0,22.5l-0.2-0.2l36,0.1l10.1,0.1h2.7h0.7
		l0,0h-0.7H167l-10.1,0.1l-36.1,0.1h-0.2v-0.2c0-6.9,0-14.5,0-22.5V48.6c0-2.1,0-4.2,0-6.4v-6.4l0,0c-0.2,0.2,0.3-0.4,0.3-0.3h49.7
		h0.2v0.2c0,14.3-0.1,26.2-0.1,34.6c0,4.1,0,7.4-0.1,9.6c0,1.1,0,1.9,0,2.5c0,0.3,0,0.5,0,0.6C170.6,83.2,170.5,83.2,170.4,83.3z"/>
</g>
<g id="Floor--inject-2">
	<path class="st4" d="M439.5,364.5c0,0.2-97.2,0.3-217,0.3s-217-0.1-217-0.3s97.1-0.3,217-0.3S439.5,364.4,439.5,364.5z"/>
</g>
<g id="Character--inject-2">
	<polygon class="st5" points="226.2,355.8 223.6,364.3 241.8,364.1 242.6,355 	"/>
	<path class="st4" d="M242.1,362.4c-0.9,0.2-1.8,0.2-2.6,0.2c-1.6,0-3.9,0-6.4,0l-6.4-0.2c-0.9,0-1.7-0.1-2.6-0.3
		c0.9-0.2,1.8-0.2,2.6-0.2c1.6,0,3.9,0,6.4,0l6.4,0.2C240.4,362.1,241.2,362.2,242.1,362.4z"/>
	<path class="st4" d="M234.3,354.7c0.2,1.3,0.2,2.6,0.1,3.8c0,1.3-0.1,2.6-0.5,3.8c-0.2-1.3-0.2-2.6-0.1-3.8
		C233.8,357.2,234,355.9,234.3,354.7z"/>
	<polyline class="st8" points="223.6,364.3 241.8,364.1 241.9,362.4 223.9,362.2 223.6,364.1 	"/>
	<path class="st4" d="M296.4,358.2l-31.4-162.4l0,0l-0.2-0.7l0,0l0,0c-4.8-19.1-8.6-23.8-8.6-23.8l-46.9,1.3
		c-3.7,6.6-4.1,22.5-4.1,22.5c-0.5,1.9,20.9,161.1,20.9,161.1l16.1-1.3l-5.5-149.8l42,153.5L296.4,358.2z"/>
	<path class="st9" d="M249.1,200c0,0.2-5.2,1.6-11.7,3.3s-11.8,2.9-11.8,2.8s5.2-1.6,11.7-3.3S249.1,199.9,249.1,200z"/>
	<path class="st10" d="M206.6,116.6l-36,2.2l-31-27.8l-0.3-1c-0.2-0.5-0.4-1.1-0.6-1.8c-0.2-0.8-0.3-1.6-0.3-2.4c0-1,0.1-2,0.4-3
		c0.4-0.9-0.5-1.7-1.2-1.2s-1.7,2.8-1.6,5.7s-2.9-0.5-4-1.8s-4.7-4.9-5.4-4.9c-0.9,0.1-1.1,1.1,0.1,2.3s4.3,5.1,3.6,5.7
		s-6.3-5.9-6.3-5.9s-1-1.6-1.8-0.9c-1.4,1.1,5,7.6,5.6,8.1c0.4,0.4-0.3,1.1-0.7,0.6s-5.4-6.6-6.9-5.4c-1.1,0.9,5.2,5.3,5.6,7.2
		s-4.5-3.9-5.6-3c-0.4,0.3-0.6,0.6,2.6,3.5c2.2,2.1,4.5,4,6.9,5.9l0,0l32.4,35.8l45.3,4L206.6,116.6z"/>
	<path class="st10" d="M318.5,58.8c-1.3-0.6-4.3,6.3-4.5,4.4s4.7-7.9,3.4-8.4c-1.7-0.7-4.8,6.5-5.1,7.1s-1.1,0.1-0.9-0.4
		c0.4-0.8,4.8-8.7,3.1-9.4c-0.9-0.4-1.4,1.4-1.4,1.4s-3.6,7.8-4.4,7.4s1.1-5,1.9-6.5s0.4-2.5-0.6-2.3c-0.6,0.1-3.1,4.7-3.8,6.2
		s-2.6,5.7-3.4,2.8s-2.3-4.8-3.1-5s-1.4,0.8-0.8,1.5c0.5,0.8,0.9,1.8,1.2,2.7c0.3,0.8,0.4,1.6,0.4,2.4c0,0.7,0,1.3,0,1.9l0,1
		l-22.1,35.3l-35.2,7.9l6.3,22.7l41.3-17.6l21.3-43.4l0,0c1.8-2.4,3.4-4.9,5-7.5C319.3,59.2,319,59,318.5,58.8z"/>
	<path class="st9" d="M252.1,136.8l0.6-2.1c1.4-0.9,18.4-11.5,19-11.6s-7.6-19.5-7.6-19.5l-19.3,2.8c-1.1-0.3-2.2-0.5-3.3-0.6
		l-22.7-0.2c0,0-6,1-8.6,2.9l-20.5,7.7l4.7,23.8l16.1-1.4c0.2,1.8,1.2,8.6,1.6,10.3c1.4,5.8,2.3,13.7-0.8,18.8
		c0,0-6.2,12.4-6.2,22.8l57.2-6.7c0,0-2.5-10-12.9-23.4l0.5-14.1L252.1,136.8z"/>
	<path class="st4" d="M220.1,61.3c-4.8,2.2-6.7,7.4-7.1,12.2s0,9.9-1.8,14.4c-1.6,3.8-4.8,7.3-4.4,11.4c0.3,3,2.5,5.7,2.9,8.8
		c0.8,5.9-5.4,11.1-4.3,17c0.5,2.7,2.6,5,5,6.5c2.5,1.5,5.3,2.7,8.1,3.5c3.8,1.3,8,2.5,11.7,1.2c3.3-1.2,5.5-4.2,9-5
		c3.5-0.9,6.8,0.5,10.2,0.6c3.1,0.1,6.2-1,8.4-3.2c2.1-2.1,2.8-5.2,1.7-8c-1.5-3.8-6.2-6.2-6.9-10.1c-0.6-3.6,2.2-7.1,1.3-10.6
		c-1-3.9-6.3-6-7.5-9.9c-1.5-4.6,3.3-9.6,1.5-14.1c-1.1-2.7-4.3-4.3-5.2-7.1c-0.6-1.9,0-3.9-0.4-5.8c-0.7-3.3-4.5-5.4-8.1-6.2
		c-4.4-1-9.1-0.3-13.1,1.8c-3.8,2.1-6.3,5.8-6.8,10.1"/>
	<path class="st4" d="M227.2,57.9c8.3-3.2,17.5,1,20.7,9.2c0.3,0.9,0.6,1.7,0.8,2.6c0.7,3.7,0.2,7.6,1.8,11
		c1.7,3.7,5.8,6.2,6.4,10.2s-2.3,7.4-2.9,11.3c-0.6,4,1.3,8.1,0.8,12.2c-0.7,5.8-5.9,10-11.7,9.4c-2.6-0.3-5-1.5-6.7-3.5"/>
	<path class="st4" d="M208,121.5c0,0,0-0.1-0.1-0.2c0-0.2-0.1-0.3-0.1-0.5c-0.1-0.6,0-1.3,0.3-1.9c0.4-0.9,0.9-1.8,1.4-2.7
		c0.8-1.1,1.4-2.2,1.8-3.5c0.4-1.5,0.2-3.2-0.4-4.6c-0.7-1.7-1.6-3.3-2.6-4.8c-1.2-1.7-2.2-3.5-2.9-5.5c-0.7-2.2-0.6-4.5,0.1-6.7
		c0.4-1.1,0.9-2.1,1.6-3c0.7-0.8,1.4-1.7,2.2-2.4c0.7-0.7,1.4-1.5,1.9-2.4c0.5-0.8,0.8-1.7,0.9-2.7c-0.1-1.8-0.3-3.7-0.7-5.4
		c-0.3-1.6-0.2-3.3,0.3-4.9c0.6-2.3,2-4.3,3.8-5.9c0.5-0.4,1-0.8,1.6-1.1c0.2-0.1,0.4-0.2,0.6-0.3c-0.7,0.5-1.4,1-2.1,1.5
		c-1.7,1.5-3,3.6-3.6,5.8c-0.4,1.5-0.5,3.1-0.2,4.7c0.5,1.8,0.7,3.7,0.8,5.6c-0.1,1.1-0.4,2.1-0.9,3c-0.6,0.9-1.2,1.7-2,2.5
		c-0.8,0.8-1.5,1.5-2.2,2.4c-0.7,0.9-1.2,1.8-1.5,2.9c-0.7,2-0.8,4.2-0.1,6.3c0.7,1.9,1.6,3.7,2.8,5.3c1.1,1.5,2,3.2,2.6,4.9
		c0.6,1.6,0.7,3.3,0.3,4.9c-0.5,1.3-1.1,2.5-1.9,3.6c-0.6,0.8-1.1,1.7-1.5,2.6C208,119.9,207.9,120.7,208,121.5z"/>
	<path class="st9" d="M250.7,130.9c0,0,0.2-0.2,0.6-0.7c0.6-0.7,0.9-1.6,1.1-2.5c0.3-1.4,0.1-2.9-0.4-4.2c-0.3-0.8-0.9-1.6-1.5-2.1
		c-0.8-0.6-1.7-1.1-2.6-1.3c-1.1-0.3-2.2-0.6-3.2-1.1c-1.2-0.6-1.9-1.9-1.9-3.2c0.2-1.4,0.8-2.6,1.8-3.6c0.9-1,2-1.9,2.9-3
		c1-1,1.4-2.4,1.1-3.8c-0.4-1.3-1.7-2.2-3-3c-1.4-0.7-2.8-1.6-4-2.6c-0.6-0.6-1.1-1.3-1.3-2.2c-0.2-0.8-0.2-1.7,0-2.6
		c0.4-1.6,1.1-3.1,1.5-4.6c0.5-1.4,0.3-3-0.6-4.2c-1.9-2.3-5.4-2.6-7.3-5c-0.9-1.1-1.5-2.5-1.7-3.9c-0.2-1.3-0.3-2.7-0.3-4
		c0.1-2.6,0.4-4.9,0.3-7c0-1.9-0.6-3.8-1.8-5.3c-0.9-1.1-2.2-1.8-3.6-2.1c-0.9-0.2-1.8-0.1-2.6,0.3c-0.6,0.3-0.8,0.5-0.8,0.5
		c0-0.1,0.1-0.1,0.2-0.2c0.2-0.2,0.4-0.3,0.6-0.4c0.8-0.5,1.8-0.6,2.7-0.4c1.5,0.3,2.8,1,3.8,2.1c1.3,1.5,2,3.5,2,5.5
		c0,2.3,0,4.7-0.2,7c0,1.3,0.1,2.6,0.3,3.9c0.2,1.3,0.8,2.6,1.6,3.6c1,1,2.1,1.9,3.5,2.4c1.4,0.6,2.8,1.5,3.9,2.6
		c0.5,0.7,0.9,1.4,0.9,2.3c0.1,0.8,0,1.7-0.2,2.5c-0.4,1.6-1.2,3-1.5,4.6c-0.4,1.5,0,3.1,1.1,4.2c1.2,1,2.5,1.8,3.9,2.5
		c0.7,0.4,1.3,0.8,1.9,1.3c0.6,0.5,1.1,1.2,1.3,2c0.3,0.8,0.3,1.6,0,2.3c-0.3,0.7-0.6,1.4-1.1,1.9c-0.9,1.1-2,2-2.9,3
		c-0.9,0.9-1.5,2-1.7,3.3c-0.1,1.2,0.5,2.3,1.6,2.8c1,0.5,2.1,0.8,3.1,1.1c1,0.3,2,0.8,2.8,1.4c0.7,0.6,1.2,1.4,1.6,2.3
		c0.6,1.4,0.7,2.9,0.4,4.4c-0.2,0.9-0.6,1.8-1.2,2.5C251.3,130.5,251,130.7,250.7,130.9z"/>
	<path class="st9" d="M218.9,134.1c-0.1-0.2-0.3-0.5-0.4-0.8c-0.2-0.5-0.5-1.3-0.9-2.2c-0.4-1.2-0.7-2.4-1-3.7
		c-0.4-1.6-0.5-3.3-0.4-5c0.2-2.1,1-4,2.4-5.6c0.7-0.8,1.4-1.7,2.1-2.6c0.6-1,0.9-2.1,0.9-3.3c-0.1-2.4-1.2-4.8-2.5-7.1
		s-2.7-4.9-2.9-7.8c-0.1-1.5,0.3-3,1.2-4.1c1-1,2-1.9,3.2-2.6c1-0.8,1.7-1.9,1.9-3.1c0.2-1.2,0.1-2.4-0.1-3.6
		c-0.5-2.4-1.4-4.6-1.8-6.7c-0.9-5,0.1-10.1,2.9-14.4c0.4-0.7,0.9-1.3,1.5-1.9c0.2-0.2,0.4-0.4,0.6-0.6c0,0-0.8,0.9-1.9,2.6
		c-1.5,2.5-2.5,5.3-2.8,8.2c-0.2,2-0.1,4,0.2,6c0.4,2.1,1.4,4.3,1.9,6.7c0.3,1.3,0.4,2.6,0.2,3.9c-0.3,1.4-1,2.6-2.1,3.4
		c-1.1,0.7-2.2,1.6-3.1,2.5c-0.8,1.1-1.2,2.4-1.1,3.8c0.1,2.8,1.5,5.3,2.8,7.6s2.5,4.8,2.6,7.3c0,1.3-0.3,2.5-1,3.6
		c-0.6,0.9-1.4,1.8-2.1,2.7c-1.3,1.5-2.1,3.4-2.3,5.4c-0.2,1.6-0.1,3.3,0.3,4.9c0.3,1.2,0.6,2.5,1,3.6c0.3,0.9,0.6,1.7,0.8,2.3
		C218.8,133.6,218.9,133.9,218.9,134.1z"/>
	<path class="st5" d="M297.4,359.9l-0.1-1.9l-18.8,0.5l0.2,6.1h1.2c5.2,0.1,26.2,0.3,29.7-0.8C313.4,362.8,297.4,359.9,297.4,359.9z
		"/>
	<g class="st11">
		<path class="st3" d="M285.5,364.3c-0.3-1.5-1.2-2.8-2.5-3.6c-1.3-0.9-2.8-1.3-4.4-1.1l0.1,4.9L285.5,364.3z"/>
	</g>
	<g class="st11">
		<path class="st3" d="M305.3,361.5c0,0,5.6,1.3,4.9,2.2s-22,1.4-31.4,0.9v-0.4l24.9-0.5C303.7,363.8,304.2,361.6,305.3,361.5z"/>
	</g>
	<path class="st4" d="M278.5,364.3h0.3h0.9l3.4,0c2.9,0,6.8,0,11.2-0.1s8.3-0.3,11.2-0.5l3.4-0.2l0.9-0.1h0.3h-0.3H309l-3.4,0.2
		c-2.9,0.1-6.8,0.3-11.2,0.4s-8.3,0.1-11.2,0.2h-3.4h-0.9L278.5,364.3z"/>
	<path class="st4" d="M303.7,364.1c0.2-1.1,0.8-2.1,1.7-2.8c-0.6,0.2-1,0.6-1.3,1.1C303.7,363,303.6,363.5,303.7,364.1z"/>
	<path class="st4" d="M298.1,361.6c0,0,0.3-0.3,0.6-0.7s0.4-0.8,0.4-0.8s-0.3,0.3-0.6,0.7S298.1,361.6,298.1,361.6z"/>
	<path class="st4" d="M296.6,360.9c0,0,0.3-0.1,0.6-0.4s0.5-0.5,0.5-0.6s-0.3,0.1-0.6,0.4S296.5,360.9,296.6,360.9z"/>
	<path class="st4" d="M295.5,359.3c0.3,0.1,0.7,0.1,1,0.1c0.3,0,0.7,0,1-0.1c-0.3-0.1-0.7-0.1-1-0.1
		C296.2,359.2,295.9,359.2,295.5,359.3z"/>
	<path class="st4" d="M295.2,358.1c0.7,0.3,1.5,0.4,2.2,0.1c-0.4,0-0.7,0-1.1,0C295.9,358.2,295.6,358.1,295.2,358.1z"/>
	<path class="st4" d="M298.7,360.1c0.4,0.1,0.8,0.1,1.2,0c0.4-0.1,0.9-0.2,1.3-0.3c0.3-0.1,0.5-0.2,0.7-0.3c0.1-0.1,0.2-0.2,0.3-0.4
		c0-0.2,0-0.4-0.2-0.5c-0.9-0.4-2.1-0.1-2.7,0.7c-0.2,0.2-0.3,0.5-0.4,0.8c0,0.2,0,0.3,0,0.3c0.1-0.4,0.3-0.7,0.5-1
		c0.3-0.3,0.6-0.5,1-0.6c0.5-0.2,1-0.2,1.4,0c0.2,0.1,0.1,0.3-0.1,0.5c-0.2,0.1-0.4,0.2-0.7,0.3c-0.4,0.1-0.8,0.2-1.2,0.3
		C299.1,360,298.7,360.1,298.7,360.1z"/>
	<path class="st4" d="M299,360.1c0.1-0.2,0.2-0.5,0.1-0.8c-0.1-0.3-0.2-0.6-0.4-0.8c-0.2-0.3-0.6-0.5-1-0.5c-0.2,0-0.4,0.3-0.4,0.5
		c0,0,0,0,0,0c0,0.2,0.1,0.3,0.2,0.5c0.2,0.2,0.4,0.5,0.6,0.7C298.4,359.9,298.6,360,299,360.1c-0.1,0-0.3-0.2-0.7-0.5
		c-0.2-0.2-0.4-0.4-0.5-0.7c-0.2-0.2-0.3-0.6,0-0.7c0.3,0,0.6,0.2,0.8,0.5c0.2,0.2,0.3,0.5,0.4,0.7C299,359.6,299,359.9,299,360.1z"
		/>
	<path class="st4" d="M278.8,359.5c0,0,0.5-0.1,1.4,0c1.1,0.1,2.1,0.5,3,1.1c0.9,0.6,1.6,1.4,2,2.4c0.2,0.4,0.3,0.8,0.4,1.2
		c0-0.1,0-0.2,0-0.4c0-0.3-0.1-0.6-0.2-0.9c-0.4-1-1.1-1.9-2-2.5c-0.9-0.6-2-1-3.2-1.1c-0.3,0-0.7,0-1,0
		C279,359.4,278.9,359.4,278.8,359.5z"/>
	<path class="st4" d="M287.9,362.6c0.9,0.2,1.8,0.2,2.7,0.2c0.9,0,1.8-0.1,2.7-0.3c0-0.1-1.2,0-2.7,0.1S287.9,362.5,287.9,362.6z"/>
	<path class="st4" d="M284.2,362.7c0,0,0.1,0.2,0.2,0.5s0.2,0.5,0.3,0.5s0.1-0.3-0.1-0.6S284.2,362.6,284.2,362.7z"/>
	<path class="st4" d="M282.8,361.1c0,0,0.1,0.2,0.3,0.4s0.4,0.3,0.4,0.2s-0.1-0.2-0.3-0.4S282.8,361.1,282.8,361.1z"/>
	<path class="st4" d="M280.8,360.4c0,0,0.3,0,0.5,0.1s0.5,0.2,0.5,0.2s-0.1-0.3-0.5-0.4S280.8,360.4,280.8,360.4z"/>
	<path class="st4" d="M279.4,360.1c0,0,0.1,0.1,0.2,0.2s0.3,0,0.3,0s-0.1-0.1-0.2-0.2S279.4,360.1,279.4,360.1z"/>
</g>
<g id="Plant--inject-2">
	<path class="st5" d="M378.9,340.2c2.9-1.3,6.1-1.7,9.2-1.1c1.7,0.1,3.3,0.8,4.5,2c1.1,1.2,1.4,3.4,0,4.5c-0.8,0.6-1.8,0.8-2.9,0.7
		c-2.4,0-5.1-0.5-7,1c-1.1,0.8-1.8,2.2-3.1,2.6c-1.4,0.3-2.8-0.3-3.4-1.5c-0.6-1.2-0.8-2.6-0.4-3.9
		C376.1,342.7,377.3,341.1,378.9,340.2z"/>
	<path class="st12" d="M378.9,340.2c2.9-1.3,6.1-1.7,9.2-1.1c1.7,0.1,3.3,0.8,4.5,2c1.1,1.2,1.4,3.4,0,4.5c-0.8,0.6-1.8,0.8-2.9,0.7
		c-2.4,0-5.1-0.5-7,1c-1.1,0.8-1.8,2.2-3.1,2.6c-1.4,0.3-2.8-0.3-3.4-1.5c-0.6-1.2-0.8-2.6-0.4-3.9
		C376.1,342.7,377.3,341.1,378.9,340.2z"/>
	<path class="st5" d="M372.5,327.9c1.7,2.4,5,1.6,6.5,0.1s2.2-3.6,2.8-5.7c1.4-4.7,2.7-9.6,1.7-14.4c-0.2-1.4-0.9-2.8-1.8-3.9
		c-1-1.1-2.5-1.6-4-1.3c-1.7,0.4-2.7,2.1-3.5,3.6c-2.2,4.6-3.4,9.6-3.4,14.7C370.8,323.5,371.3,325.9,372.5,327.9"/>
	<path class="st7" d="M372.5,327.9c1.7,2.4,5,1.6,6.5,0.1s2.2-3.6,2.8-5.7c1.4-4.7,2.7-9.6,1.7-14.4c-0.2-1.4-0.9-2.8-1.8-3.9
		c-1-1.1-2.5-1.6-4-1.3c-1.7,0.4-2.7,2.1-3.5,3.6c-2.2,4.6-3.4,9.6-3.4,14.7C370.8,323.5,371.3,325.9,372.5,327.9"/>
	<path class="st5" d="M367.9,331.4c1.8-2.3,2.3-5.4,1.4-8.1c-0.9-2.7-2.6-5.2-4.8-7c-2.5-2.2-5.4-4-8.6-5.1
		c-1.2-0.5-2.6-0.7-3.9-0.7c-1.4,0.1-2.6,0.8-3.3,2c-0.9,1.7,0,3.8,0.9,5.5c1.7,3,3.6,5.9,5.7,8.6c1.7,2.2,3.6,4.4,6.2,5.3
		s5.3,0.9,6.7-0.9"/>
	<path class="st4" d="M372.4,364.6c0.1-0.4,0.1-0.7,0.1-1.1l0.3-3c0.1-1.5,0.4-3,0.7-4.4c0.4-1.8,0.9-3.5,1.6-5.2
		c0.7-1.7,1.6-3.3,2.7-4.7c0.9-1.2,2.1-2.1,3.4-2.8c0.9-0.4,1.8-0.7,2.8-0.9c0.4,0,0.7-0.1,1.1-0.2c-0.4,0-0.7,0-1.1,0
		c-1,0.1-2.1,0.3-3,0.8c-1.4,0.7-2.6,1.6-3.5,2.8c-1.2,1.5-2.1,3.1-2.8,4.8c-0.7,1.7-1.2,3.5-1.6,5.3c-0.3,1.5-0.5,3-0.6,4.5
		c-0.1,1.3-0.1,2.3-0.1,3C372.4,363.8,372.4,364.2,372.4,364.6z"/>
	<path class="st4" d="M372.6,362.3c0-0.2,0-0.3,0-0.5c0-0.4,0-0.9,0-1.5c0-1.3,0-3.1,0.1-5.4c0.1-4.5,0.5-9.4,1.3-16.3
		c0.7-6.5,1.7-14,2.7-18.9c0.2-1.1,0.4-2.1,0.6-3s0.4-1.6,0.5-2.3s0.2-1,0.3-1.4c0-0.2,0.1-0.3,0.1-0.5c-0.1,0.2-0.1,0.3-0.2,0.5
		l-0.4,1.4c-0.2,0.6-0.4,1.4-0.6,2.2s-0.5,1.9-0.7,3c-1.2,5.8-2.2,11.7-2.8,17.6c-0.8,6.9-1.1,13.2-1.1,17.8c0,2.3,0,4.1,0.1,5.4
		c0,0.6,0.1,1.1,0.1,1.5C372.6,361.9,372.6,362.1,372.6,362.3z"/>
	<path class="st4" d="M372.7,350.1c0-0.5,0-1,0-1.5c-0.1-1-0.2-2.4-0.5-4.1c-0.3-2-0.8-4.1-1.4-6c-0.7-2.4-1.5-4.8-2.5-7.1
		c-1.8-4.3-4.3-8.2-7.4-11.6c-0.5-0.6-1.1-1.1-1.8-1.6c-0.3-0.2-0.5-0.5-0.7-0.6l-0.7-0.5c-0.4-0.3-0.8-0.6-1.3-0.8
		c1.5,1.2,2.9,2.4,4.2,3.8c3.1,3.4,5.5,7.3,7.2,11.5c1,2.3,1.9,4.7,2.5,7.1c0.6,2,1.1,4,1.4,6c0.3,1.7,0.5,3.1,0.6,4.1
		C372.5,349.1,372.6,349.6,372.7,350.1z"/>
</g>
</svg>
