<?xml version="1.0" encoding="utf-8"?>
<!-- Generator: Adobe Illustrator 24.1.3, SVG Export Plug-In . SVG Version: 6.00 Build 0)  -->
<svg version="1.1" id="Layer_1" xmlns="http://www.w3.org/2000/svg" xmlns:xlink="http://www.w3.org/1999/xlink" x="0px" y="0px"
	 viewBox="0 0 1440 195" style="enable-background:new 0 0 1440 195;" xml:space="preserve">
<style type="text/css">
	.st0{fill:#EFF3F9;}
</style>
<path class="st0" d="M0,0h26.7C53.3,0,107,0,160,10.8c53.3,10.8,107,32.5,160,46.9c53.3,14.7,107,21.5,160,14.5
	c53.3-7.2,107-28.9,160-32.5c53.3-3.9,107,11,160,32.5c53.3,21.9,107,50.3,160,50.5c53.3-0.2,107-28.6,160-46.9
	c53.3-18.3,107-25.1,160-32.5c53.3-7.4,107-14.2,133-18.1l27-3.6V195h-26.7c-26.6,0-80.3,0-133.3,0c-53.3,0-107,0-160,0
	c-53.3,0-107,0-160,0c-53.3,0-107,0-160,0c-53.3,0-107,0-160,0c-53.3,0-107,0-160,0c-53.3,0-107,0-160,0c-53.3,0-107,0-160,0
	c-53.3,0-107,0-133,0H0V0z"/>
</svg>
