<svg width="120" height="109" viewBox="0 0 120 109" fill="none" xmlns="http://www.w3.org/2000/svg">
  <g clip-path="url(#clip0_8388_22839)">
    <path d="M48.6441 18.5976C42.0557 16.0259 35.324 13.838 28.4827 12.0447C33.6208 15.2653 55.9044 29.4694 62.5504 34.4586C65.0636 34.9426 67.8187 36.041 69.4384 37.1021C71.058 38.1632 70.0341 40.5275 69.3267 42.7055C68.6192 44.8836 66.9624 48.1042 65.6034 47.7319C64.2444 47.3596 58.9574 46.0751 57.524 45.9261C56.6863 45.8331 54.4896 45.7772 51.995 45.7214C51.3434 47.1921 50.4312 49.0351 49.6121 50.7477L49.7238 50.9711C54.9177 54.6758 57.3937 60.5399 58.734 66.7204L58.8644 67.2603C58.9761 67.13 59.0878 66.9997 59.1995 66.888C60.093 69.2336 60.9866 71.5979 61.7126 74.018C62.0663 75.1908 62.2339 75.8796 62.1408 76.4381L62.3642 76.345C62.8855 76.1402 64.0583 76.8104 64.5051 77.2386C65.1566 77.8343 65.9757 79.3608 66.739 81.1108C67.1113 79.6959 67.8187 78.5417 69.2522 77.4434C68.0421 72.7335 75.4886 65.1194 79.3422 62.8855C79.4353 62.96 79.547 63.0344 79.6586 63.1275L79.6773 63.0903C80.8315 58.7155 83.0654 54.713 84.8526 50.543C85.8765 48.1601 87.2727 46.1309 88.5013 43.897C89.0784 42.8359 88.8923 42.3891 88.2593 41.2349C87.5519 39.9131 87.012 38.8706 86.1557 37.6233C84.9084 35.8176 83.6797 34.3469 82.842 33.0437C82.0043 31.7406 85.0015 32.0571 88.1476 32.5411C90.4374 32.8948 95.3521 34.0118 99.0195 34.7937C97.8118 33.4436 97.0966 31.7245 96.9903 29.9162C96.9531 29.4136 97.6233 29.2088 97.9398 29.5253C98.9636 30.5119 100.23 31.0704 101.57 31.48C100.416 27.9615 97.8653 24.7968 95.1287 22.3767C92.5783 20.1241 89.8045 18.1136 87.1237 16.0285L78.4486 9.27086C76.9221 8.07942 75.0791 9.17778 75.3397 11.0766C75.7429 13.9695 75.8116 16.8991 75.5445 19.8076C65.6388 11.6986 54.6085 5.07039 42.7986 0.130308C41.2162 -0.521259 39.9503 1.58237 40.695 2.86689C43.6324 7.96 46.2862 13.2116 48.6441 18.5976Z" fill="transparent"/>
    <path d="M48.309 95.2963C48.3649 94.4772 48.6999 91.7034 49.8728 91.4055C48.4952 89.6928 47.5085 88.7248 47.6761 86.2675C47.7691 85.0946 48.1601 82.4884 49.5191 81.6134C49.0599 81.19 48.7525 80.6275 48.6441 80.0124C48.3462 78.5976 47.4713 73.9994 47.4713 73.9994C47.7849 74.0001 48.0975 73.9626 48.4021 73.8877L48.1601 73.8132C48.1973 72.9755 47.6947 71.9888 47.3968 71.2256C45.9601 71.0791 44.554 70.7151 43.2268 70.1458C43.024 70.7903 42.7225 71.3995 42.3332 71.9516C41.5699 72.9383 40.3971 72.808 39.2243 72.5473C37.6978 72.1936 37.493 71.3931 37.735 69.9038C37.8839 68.9916 38.2376 66.3667 38.2376 66.3667L38.5727 66.3295C36.0782 66.0317 33.6208 63.7046 34.5144 60.6143C33.6953 59.6835 33.3043 58.4549 33.8628 56.8725C33.7929 56.727 33.7307 56.5778 33.6767 56.4257C33.2299 55.0667 33.7884 53.2982 34.5144 52.5163L34.9053 52.7955C34.5423 52.3953 34.275 51.9179 34.1235 51.3993C33.6394 49.1468 35.3707 47.6016 37.3627 47.3596C39.049 47.1695 40.7554 47.2703 42.4077 47.6575L42.3332 47.8995L42.5194 47.825C42.7986 46.9501 43.0592 46.1496 43.2454 45.5725C42.8731 45.5725 42.538 45.5538 42.2587 45.5352C39.8759 45.4421 29.9907 46.0751 27.2541 46.224C23.233 46.4474 19.3422 46.857 15.3956 47.4527C15.3211 47.4713 15.2652 47.4713 15.1908 47.4899C11.9339 50.0822 9.04647 53.1074 6.60871 56.4815C5.71513 57.7102 6.9438 59.1995 8.2097 59.274L31.089 60.8377C25.4712 65.6727 20.3681 71.0753 15.861 76.9594C14.986 78.1136 16.1774 79.789 17.462 79.7518C26.7328 79.5656 35.9851 79.0071 45.2187 78.0763C41.356 83.3895 38.2427 89.2089 35.9665 95.3708C35.4266 96.8228 36.9904 97.884 38.2563 97.6606C41.5699 97.0649 44.9209 96.4691 48.2532 95.7803C48.282 95.6203 48.3007 95.4587 48.309 95.2963Z" fill="transparent"/>
    <path d="M47.1734 68.3028C47.0483 68.3028 46.9258 68.2666 46.8208 68.1986C46.717 68.1314 45.7927 67.5224 45.3559 66.8237C44.7833 65.9034 44.3598 65.1721 44.1194 64.1304C43.781 62.7232 43.8774 60.4846 44.4806 58.9666C43.1473 58.5654 40.7263 57.6469 39.7767 56.0608C39.5862 55.7582 39.4606 55.4193 39.4079 55.0656C39.3551 54.7119 39.3764 54.3511 39.4704 54.0061C40.152 51.4337 44.1086 51.6482 46.3398 52.1804C47.2624 52.4055 49.0172 53.2734 50.04 54.5008C50.1506 54.6335 50.2039 54.8048 50.1883 54.9769C50.1726 55.149 50.0892 55.3078 49.9565 55.4184C49.8237 55.5291 49.6524 55.5824 49.4803 55.5668C49.3082 55.5511 49.1494 55.4677 49.0388 55.3349C48.1957 54.3232 46.641 53.5953 46.0339 53.4473C44.1933 53.0081 41.1224 52.8612 40.7307 54.3408C40.6819 54.5177 40.6713 54.703 40.6997 54.8843C40.7281 55.0656 40.7949 55.2388 40.8955 55.3923C41.5726 56.5236 43.7963 57.4928 45.5756 57.9148C45.6782 57.9391 45.7734 57.988 45.8529 58.0572C45.9325 58.1265 45.9941 58.214 46.0324 58.3122C46.0706 58.4105 46.0845 58.5166 46.0727 58.6214C46.061 58.7262 46.024 58.8266 45.9649 58.9139C45.2459 59.9767 45.0618 62.4737 45.3878 63.8325C45.5847 64.6859 45.9409 65.2982 46.4617 66.1351C46.6745 66.4754 47.2291 66.9109 47.5284 67.1052C47.6461 67.1818 47.7359 67.2944 47.7844 67.4262C47.8329 67.5579 47.8375 67.7018 47.7976 67.8364C47.7577 67.971 47.6754 68.0892 47.5629 68.1732C47.4504 68.2572 47.3138 68.3027 47.1734 68.3028Z" fill="#101828"/>
    <path d="M38.8291 55.5478C38.0758 55.5334 37.336 55.3448 36.6677 54.9969C35.1137 54.2239 33.7537 52.7427 33.5043 51.5512C33.3847 51.0335 33.3765 50.4963 33.4802 49.9752C33.584 49.4541 33.7972 48.961 34.106 48.5285C34.4865 48.0253 34.9668 47.606 35.5167 47.2968C36.0666 46.9876 36.6743 46.7951 37.302 46.7313C39.0648 46.5313 40.8488 46.6364 42.576 47.0418C42.6592 47.0615 42.7378 47.0973 42.8073 47.1474C42.8767 47.1974 42.9356 47.2606 42.9805 47.3334C43.0255 47.4062 43.0557 47.4871 43.0695 47.5716C43.0832 47.656 43.0801 47.7424 43.0605 47.8257C43.0408 47.9089 43.0049 47.9875 42.9549 48.0569C42.9049 48.1264 42.8417 48.1852 42.7689 48.2302C42.6961 48.2752 42.6152 48.3054 42.5307 48.3191C42.4462 48.3329 42.3599 48.3298 42.2766 48.3101C40.697 47.9394 39.0654 47.8432 37.4532 48.0257C37.0062 48.0708 36.573 48.2059 36.1797 48.4229C35.7864 48.6399 35.4411 48.9344 35.1647 49.2884C34.961 49.5743 34.8212 49.9006 34.7548 50.2453C34.6885 50.59 34.6971 50.9449 34.7801 51.2859C34.929 51.9948 35.9557 53.1874 37.248 53.83C37.9063 54.1575 38.8741 54.4613 39.7465 54.0491C39.9025 53.9771 40.0806 53.9696 40.2421 54.0282C40.4036 54.0869 40.5354 54.207 40.6088 54.3623C40.6822 54.5177 40.6913 54.6958 40.634 54.8578C40.5768 55.0198 40.4578 55.1526 40.3031 55.2274C39.8417 55.4423 39.3381 55.5517 38.8291 55.5478Z" fill="#101828"/>
    <path d="M58.7154 67.372C58.5667 67.3718 58.4225 67.3208 58.3068 67.2274C58.1911 67.1339 58.1108 67.0037 58.0793 66.8584C56.488 59.5206 53.7067 54.6406 49.3262 51.5C49.1877 51.3986 49.0948 51.2466 49.0678 51.0771C49.0407 50.9076 49.0816 50.7343 49.1816 50.5948C49.2816 50.4553 49.4326 50.3609 49.6019 50.3321C49.7711 50.3033 49.9448 50.3424 50.0853 50.4409C54.6802 53.7347 57.7116 59.0145 59.3526 66.5812C59.3735 66.6764 59.3727 66.775 59.3503 66.8699C59.328 66.9647 59.2846 67.0534 59.2235 67.1293C59.1623 67.2051 59.085 67.2663 58.997 67.3083C58.9091 67.3504 58.8129 67.3721 58.7154 67.372Z" fill="#101828"/>
    <path d="M39.4605 60.2556C38.3157 60.2544 37.181 60.0417 36.1135 59.6282C34.5952 58.9703 33.4514 57.8474 33.0566 56.6258C32.5394 55.0529 33.1597 53.0398 34.0317 52.0784C34.0885 52.0128 34.1579 51.9592 34.2357 51.9207C34.3135 51.8822 34.3983 51.8597 34.4849 51.8545C34.5716 51.8492 34.6584 51.8613 34.7404 51.8901C34.8223 51.9189 34.8976 51.9638 34.9619 52.0221C35.0263 52.0804 35.0783 52.151 35.1149 52.2297C35.1516 52.3084 35.1722 52.3936 35.1754 52.4804C35.1787 52.5671 35.1646 52.6537 35.1339 52.7349C35.1033 52.8161 35.0567 52.8904 34.9969 52.9534C34.3803 53.6331 33.9408 55.1425 34.2955 56.2217C34.6276 57.2496 35.7215 58.0378 36.635 58.4336C37.6065 58.8618 40.0622 59.2527 41.1695 58.6127C41.3137 58.5389 41.4368 58.4296 41.5271 58.2951C41.6173 58.1605 41.6718 58.0051 41.6853 57.8437C41.706 57.6735 41.793 57.5183 41.9273 57.4118C42.0616 57.3053 42.2326 57.256 42.403 57.2746C42.5734 57.2933 42.7296 57.3783 42.8378 57.5114C42.9459 57.6444 42.9972 57.8147 42.9807 57.9853C42.9454 58.3504 42.8213 58.7013 42.6191 59.0074C42.417 59.3134 42.143 59.5653 41.8211 59.741C41.1715 60.1167 40.3213 60.2556 39.4605 60.2556Z" fill="#101828"/>
    <path d="M39.6845 63.4682C39.0515 63.4853 38.4192 63.4173 37.8043 63.2662C36.562 62.8877 34.334 61.9748 33.3902 60.1201C32.863 59.0841 32.8149 57.9259 33.2476 56.6779C33.2752 56.5966 33.3187 56.5215 33.3754 56.4571C33.4322 56.3926 33.5011 56.34 33.5783 56.3023C33.6554 56.2645 33.7393 56.2424 33.825 56.2372C33.9108 56.232 33.9967 56.2438 34.0778 56.2719C34.159 56.3001 34.2338 56.344 34.2979 56.4011C34.362 56.4582 34.4142 56.5275 34.4515 56.6049C34.4888 56.6823 34.5104 56.7662 34.5151 56.852C34.5198 56.9378 34.5075 57.0236 34.4789 57.1046C34.1624 58.0177 34.1862 58.8108 34.5516 59.529C35.2777 60.9541 37.1393 61.7017 38.1859 62.0202C39.5134 62.4286 43.6516 62.0092 44.0424 60.8364C44.0694 60.7552 44.1122 60.6802 44.1683 60.6155C44.2243 60.5509 44.2926 60.4979 44.3691 60.4597C44.4457 60.4214 44.529 60.3986 44.6144 60.3925C44.6997 60.3865 44.7854 60.3973 44.8666 60.4243C44.9478 60.4514 45.0228 60.4942 45.0875 60.5503C45.1521 60.6063 45.2051 60.6746 45.2433 60.7511C45.2816 60.8276 45.3044 60.911 45.3105 60.9963C45.3165 61.0817 45.3057 61.1674 45.2787 61.2486C44.7226 62.916 41.8056 63.4682 39.6845 63.4682Z" fill="#101828"/>
    <path d="M38.9888 67.0228C38.9296 67.0228 38.87 67.0208 38.8099 67.017C37.9736 66.9551 37.1609 66.7113 36.4286 66.3026C35.6963 65.8939 35.0621 65.3303 34.5702 64.6511C34.1436 64.0465 33.8605 63.3526 33.7424 62.6222C33.6242 61.8918 33.6742 61.144 33.8885 60.4358C33.9116 60.3531 33.9508 60.2758 34.0038 60.2083C34.0569 60.1408 34.1228 60.0844 34.1977 60.0425C34.2726 60.0005 34.3551 59.9738 34.4404 59.9638C34.5256 59.9538 34.6121 59.9608 34.6946 59.9843C34.7772 60.0078 34.8543 60.0474 34.9215 60.1009C34.9888 60.1543 35.0447 60.2205 35.0863 60.2956C35.1278 60.3708 35.1541 60.4534 35.1637 60.5387C35.1732 60.624 35.1657 60.7104 35.1418 60.7929C34.9784 61.3137 34.938 61.8653 35.0236 62.4044C35.1092 62.9435 35.3186 63.4555 35.6353 63.9001C36.0165 64.419 36.505 64.8497 37.0675 65.1631C37.63 65.4766 38.2533 65.6653 38.8951 65.7165C39.1853 65.7364 39.4745 65.6672 39.7243 65.5183C39.9741 65.3694 40.1724 65.1478 40.2929 64.8832C40.4134 64.6185 40.4502 64.3234 40.3985 64.0373C40.3467 63.7511 40.2089 63.4876 40.0034 63.2818C39.8793 63.1622 39.8076 62.9983 39.8042 62.8259C39.8007 62.6536 39.8656 62.4869 39.9848 62.3623C40.1039 62.2378 40.2676 62.1655 40.4399 62.1614C40.6122 62.1572 40.7792 62.2216 40.9042 62.3402C41.1867 62.6146 41.4059 62.9474 41.5466 63.3152C41.6872 63.6831 41.7459 64.0772 41.7185 64.4701C41.6721 65.1625 41.3644 65.8114 40.8576 66.2853C40.3507 66.7593 39.6827 67.0229 38.9888 67.0228Z" fill="#101828"/>
    <path d="M42.3332 53.1492C42.1847 53.1491 42.0406 53.0982 41.925 53.005C41.8093 52.9118 41.729 52.7818 41.6973 52.6367C41.5223 51.8362 41.2133 51.3032 40.7776 51.0503C40.0469 50.628 39.1022 50.4229 38.1155 50.2332C38.0313 50.2173 37.951 50.1848 37.8793 50.1378C37.8076 50.0908 37.7459 50.0301 37.6977 49.9592C37.6496 49.8883 37.6158 49.8086 37.5985 49.7246C37.5812 49.6407 37.5806 49.5541 37.5968 49.4699C37.613 49.3857 37.6456 49.3056 37.6929 49.234C37.7401 49.1625 37.801 49.101 37.872 49.053C37.9431 49.005 38.0229 48.9715 38.1069 48.9545C38.1909 48.9374 38.2775 48.9371 38.3616 48.9535C39.4175 49.1566 40.5245 49.3986 41.4314 49.9229C42.1971 50.368 42.7145 51.1871 42.9706 52.3584C42.9915 52.4536 42.9907 52.5523 42.9683 52.6472C42.9459 52.742 42.9026 52.8307 42.8414 52.9065C42.7802 52.9824 42.7028 53.0436 42.6149 53.0856C42.5269 53.1276 42.4307 53.1494 42.3332 53.1492Z" fill="#101828"/>
    <path d="M48.1787 74.4462C48.1689 74.4462 48.1591 74.4462 48.1493 74.4462C47.9767 74.4385 47.8141 74.3625 47.6975 74.235C47.5809 74.1075 47.5196 73.9389 47.5273 73.7663C47.551 73.2328 47.2581 72.5319 46.9997 71.9134L46.9662 71.8315C45.3814 71.7198 43.8246 71.4778 42.8249 70.697C42.7574 70.6444 42.7009 70.5789 42.6587 70.5044C42.6165 70.4299 42.5894 70.3478 42.5789 70.2629C42.5685 70.1779 42.5748 70.0917 42.5977 70.0092C42.6206 69.9267 42.6595 69.8495 42.7123 69.782C42.765 69.7145 42.8305 69.6581 42.905 69.616C42.9796 69.5739 43.0617 69.5469 43.1467 69.5365C43.2317 69.5261 43.3179 69.5326 43.4004 69.5556C43.4829 69.5786 43.56 69.6176 43.6274 69.6704C44.5426 70.386 46.5083 70.5016 47.453 70.557C47.5775 70.5644 47.6972 70.6072 47.798 70.6806C47.8988 70.7539 47.9765 70.8546 48.0218 70.9707L48.202 71.411C48.5131 72.1556 48.8656 72.9993 48.829 73.8242C48.8214 73.9916 48.7495 74.1496 48.6284 74.2655C48.5073 74.3813 48.3463 74.446 48.1787 74.4462Z" fill="#101828"/>
    <path d="M40.5896 73.3906C40.0813 73.3772 39.576 73.3077 39.083 73.1832C36.9302 72.6845 36.8543 71.262 37.0911 69.7992C37.24 68.8913 37.5909 66.2807 37.5911 66.2796L38.8825 66.4537C38.8825 66.4537 38.5269 69.0919 38.3773 70.0094C38.1496 71.4106 38.3979 71.6878 39.3706 71.9131C40.5403 72.1737 41.3184 72.1981 41.8172 71.5534C42.2357 71.0027 42.5166 70.1871 42.7884 69.3982C42.9241 69.0039 43.057 68.6198 43.2028 68.2738C43.365 67.9068 43.5472 67.5489 43.7484 67.2018C44.0522 66.656 44.3393 66.1407 44.4268 65.625C44.4585 65.4573 44.5547 65.3086 44.6949 65.2111C44.835 65.1136 45.0078 65.0749 45.1762 65.1035C45.3445 65.1321 45.4949 65.2256 45.5949 65.364C45.695 65.5023 45.7368 65.6744 45.7113 65.8432C45.5864 66.5789 45.2308 67.2179 44.8868 67.8352C44.7087 68.1406 44.5475 68.4555 44.4037 68.7784C44.2684 69.0999 44.1461 69.4565 44.0202 69.8221C43.7151 70.708 43.3994 71.6243 42.8511 72.3457C42.2148 73.1695 41.3696 73.3906 40.5896 73.3906Z" fill="#101828"/>
    <path d="M41.6444 51.6227C41.5455 51.6228 41.4478 51.6003 41.3589 51.557C41.2699 51.5138 41.192 51.4508 41.131 51.3729C41.07 51.295 41.0275 51.2043 41.0068 51.1075C40.9861 51.0108 40.9877 50.9106 41.0115 50.8146C41.4431 49.0688 41.9724 47.3486 42.5968 45.6622C42.6578 45.5014 42.7799 45.3712 42.9365 45.3001C43.093 45.2289 43.2714 45.2225 43.4326 45.2823C43.5938 45.3421 43.7249 45.4633 43.7972 45.6193C43.8695 45.7753 43.8772 45.9536 43.8186 46.1153C43.2115 47.7559 42.697 49.4293 42.2774 51.1275C42.2424 51.2689 42.1611 51.3946 42.0463 51.4843C41.9316 51.5741 41.7901 51.6228 41.6444 51.6227Z" fill="#101828"/>
    <path d="M48.2904 54.229C48.182 54.2289 48.0753 54.2018 47.98 54.1501C47.8847 54.0985 47.8038 54.0238 47.7447 53.933C47.6855 53.8421 47.65 53.738 47.6412 53.6299C47.6325 53.5219 47.6508 53.4133 47.6946 53.3142C48.1923 52.186 48.7781 50.9844 49.3561 49.7989C50.0883 48.2971 50.7799 46.8786 51.2799 45.6441C51.3459 45.4856 51.4718 45.3596 51.6302 45.2934C51.7887 45.2272 51.9668 45.2262 52.126 45.2906C52.2851 45.3551 52.4124 45.4797 52.4801 45.6375C52.5479 45.7953 52.5506 45.9734 52.4877 46.1332C51.971 47.4093 51.2699 48.8474 50.5275 50.3698C49.9569 51.5402 49.3783 52.7265 48.887 53.8401C48.836 53.9558 48.7525 54.0542 48.6465 54.1233C48.5406 54.1923 48.4168 54.229 48.2904 54.229Z" fill="#101828"/>
    <path d="M5.9028 50.1591C4.74469 50.1591 3.72266 49.6855 2.80358 48.0741C1.48704 45.7359 0.845896 42.9044 0.348099 40.4336C-0.191771 37.7745 0.00909781 35.1161 0.20252 32.5452L0.243848 31.9914C0.560323 27.8334 1.34742 24.6763 2.43125 21.2148C3.33359 18.3509 4.46785 15.5652 5.82275 12.8856C7.52744 9.43171 9.75207 6.96693 12.4315 5.56587C13.9711 4.75327 17.1526 4.77189 18.7335 5.6031C20.3069 6.42817 25.5639 9.45126 28.3813 11.212C32.0595 13.4984 55.7021 28.5334 62.8201 33.8457C65.214 34.3111 67.9968 35.3909 69.7927 36.5544C71.6789 37.7762 70.8836 40.127 70.1817 42.2011L69.9464 42.9061C69.8649 43.157 67.9223 49.0421 65.4313 48.3595C64.0704 47.9872 58.8283 46.7159 57.4566 46.5734C56.1874 46.4465 51.4864 46.3592 47.709 46.2888C45.4293 46.2464 43.3597 46.2078 42.2532 46.1669C40.3383 46.0924 33.2556 46.5081 29.4504 46.7315L27.3081 46.8551C23.5722 47.0463 19.714 47.446 15.511 48.0774C13.8275 48.3634 12.1599 48.7362 10.515 49.1944C9.61524 49.4288 8.71385 49.6637 7.797 49.8733C7.17863 50.0408 6.54306 50.1367 5.9028 50.1591ZM15.5008 6.26826C14.5485 6.26826 13.6093 6.41719 13.0376 6.7197C10.606 7.99119 8.57143 10.2614 6.98738 13.4688C5.66363 16.086 4.5554 18.8068 3.6737 21.6041C2.61704 24.9788 1.84931 28.0539 1.54251 32.0872L1.50119 32.6413C1.3059 35.238 1.12123 37.6909 1.62461 40.1739C2.10286 42.5475 2.71533 45.2608 3.93674 47.4302C4.86048 49.0498 5.68964 49.0362 7.4997 48.6052C8.40984 48.3971 9.29858 48.1655 10.1856 47.935C11.8745 47.4646 13.5866 47.0824 15.3151 46.7899C19.5622 46.1518 23.4622 45.7474 27.2388 45.5546L29.3735 45.4313C33.4691 45.1908 40.3251 44.7881 42.3023 44.8654C43.4027 44.9062 45.4632 44.9443 47.7328 44.9866C51.7316 45.0611 56.2641 45.1452 57.5884 45.2778C57.8353 45.3034 58.1842 45.3597 58.6004 45.4375C60.2398 42.3161 61.6151 37.1985 61.8698 34.7643C54.5892 29.37 31.3359 14.5839 27.6919 12.3189C24.8949 10.5706 19.6851 7.57456 18.1273 6.75768C17.5094 6.43227 16.4978 6.26826 15.5008 6.26826ZM59.9264 45.7061C62.1194 46.176 64.9595 46.88 65.7757 47.1036C66.3576 47.2632 67.8543 45.1303 68.707 42.5043L68.9473 41.7842C69.6547 39.6914 70.0473 38.2729 69.0841 37.6488C67.7914 36.8111 65.5098 35.7863 63.1269 35.2429C62.7757 37.9957 61.4334 42.6763 59.9264 45.7061Z" fill="#101828"/>
    <path d="M8.47038 49.7239C8.31541 49.7239 8.1655 49.6687 8.04755 49.5682C7.92961 49.4677 7.85134 49.3284 7.82682 49.1754C7.80229 49.0224 7.8331 48.8657 7.91373 48.7333C7.99435 48.601 8.1195 48.5017 8.26672 48.4533C9.61118 48.0104 13.3117 43.9638 15.3312 39.8139C17.3376 35.6925 18.939 31.1253 19.6146 27.5968C20.1253 24.7059 20.309 21.7667 20.1623 18.8347C20.0333 16.2352 19.2056 11.8736 18.391 9.50095C18.3632 9.42002 18.3516 9.33441 18.3569 9.24901C18.3622 9.1636 18.3843 9.08008 18.4219 9.0032C18.4978 8.84795 18.6322 8.72921 18.7957 8.67309C18.9591 8.61698 19.1382 8.6281 19.2934 8.70399C19.4487 8.77989 19.5674 8.91436 19.6235 9.07781C20.4847 11.5867 21.3275 16.0252 21.4637 18.77C21.6154 21.8027 21.425 24.8429 20.8961 27.8331C20.1984 31.4768 18.5566 36.1655 16.5027 40.3843C14.3417 44.823 10.4524 49.1049 8.67423 49.6909C8.60846 49.7127 8.53965 49.7238 8.47038 49.7239Z" fill="#101828"/>
    <path d="M18.5976 34.3469C18.5105 34.3468 18.4243 34.3293 18.3442 34.2953C13.0062 32.0385 6.55177 29.1176 6.11467 28.0155C5.7133 27.0002 6.43952 23.2762 7.35413 22.5394C8.38621 21.7232 13.1858 22.394 15.2018 22.7201C16.2257 22.8877 20.7952 23.5564 20.7956 23.5564L20.6068 24.8457C20.6068 24.8457 16.0183 24.1742 14.9925 24.0063C12.2077 23.5558 8.71088 23.2663 8.14737 23.5716C7.73036 23.9776 7.10263 26.9211 7.32677 27.5369C7.8335 28.1605 13.595 30.8733 18.8513 33.0955C18.9896 33.1542 19.1033 33.2588 19.1733 33.3917C19.2433 33.5246 19.2652 33.6776 19.2354 33.8248C19.2055 33.972 19.1258 34.1044 19.0095 34.1995C18.8933 34.2946 18.7478 34.3467 18.5976 34.3469Z" fill="#101828"/>
    <path d="M6.72043 28.4083C6.56417 28.4084 6.41309 28.3523 6.29472 28.2503C6.17634 28.1483 6.09857 28.0072 6.07558 27.8526C6.05258 27.6981 6.0859 27.5404 6.16945 27.4084C6.253 27.2763 6.38122 27.1787 6.53073 27.1333C7.27333 26.9069 7.89493 26.1839 8.1146 25.2923C8.30523 24.5183 8.14885 23.7894 7.69629 23.3428C7.63464 23.2829 7.58547 23.2114 7.5516 23.1323C7.51773 23.0533 7.49983 22.9684 7.49894 22.8824C7.49805 22.7964 7.51419 22.7111 7.54642 22.6314C7.57865 22.5517 7.62634 22.4792 7.68673 22.418C7.74713 22.3568 7.81904 22.3081 7.89832 22.2749C7.97759 22.2416 8.06267 22.2243 8.14865 22.2241C8.23463 22.2239 8.31981 22.2406 8.39927 22.2735C8.47873 22.3063 8.55091 22.3545 8.61165 22.4154C9.39353 23.1876 9.68134 24.3796 9.37994 25.604C9.04746 26.9535 8.10119 28.0174 6.91032 28.38C6.84877 28.3988 6.78478 28.4083 6.72043 28.4083Z" fill="#101828"/>
    <path d="M59.1995 66.2364C59.3316 66.2364 59.4605 66.2765 59.5693 66.3515C59.678 66.4264 59.7614 66.5326 59.8084 66.656C60.8109 69.2876 61.6328 71.4867 62.3369 73.8307C63.2774 76.9865 62.8721 77.3803 60.2685 79.2123C57.5408 81.0954 54.4208 82.3339 51.1443 82.8344C50.1234 82.8424 48.4692 82.273 48.0427 80.1401C47.7279 78.7149 46.8501 74.1025 46.8501 74.1025C46.8324 74.0097 46.8352 73.9141 46.8581 73.8224C46.8811 73.7308 46.9237 73.6452 46.9831 73.5717C47.0424 73.4981 47.117 73.4383 47.2017 73.3965C47.2865 73.3547 47.3793 73.3318 47.4737 73.3294C49.3672 73.2817 51.2975 72.0661 53.0007 70.9936L53.3622 70.7665C55.2592 69.5721 57.2202 68.2239 58.7019 66.4678C58.763 66.3954 58.8392 66.3371 58.9252 66.2972C59.0111 66.2572 59.1047 66.2365 59.1995 66.2364ZM51.033 81.5389C54.0663 81.0627 56.9542 79.9118 59.4836 78.1711C61.7873 76.5498 61.7873 76.5498 61.0883 74.204C60.4874 72.2007 59.7923 70.2914 58.9672 68.1109C57.4989 69.6125 55.7509 70.8022 54.0551 71.8701L53.6951 72.0964C52.0589 73.1268 50.2289 74.279 48.2655 74.5664C48.523 75.9098 49.0794 78.7923 49.3179 79.872C49.6353 81.4593 50.8021 81.5389 51.033 81.5389Z" fill="#101828"/>
    <path d="M51.3435 108.086C51.2571 108.086 51.1716 108.069 51.092 108.035C51.0123 108.002 50.9401 107.953 50.8795 107.892C49.4223 106.414 48.3773 103.354 48.0611 101.772C47.6466 99.6249 47.5177 97.4321 47.6777 95.2509C47.7299 94.485 47.9628 92.2883 48.9319 91.2646C47.7602 89.8401 46.8609 88.6511 47.045 86.2185C47.1394 85.0287 47.5361 82.1499 49.1797 81.0692C49.3241 80.9743 49.5003 80.9406 49.6695 80.9756C49.8388 81.0105 49.9872 81.1113 50.0821 81.2557C50.1771 81.4001 50.2108 81.5763 50.1758 81.7455C50.1408 81.9148 50.0401 82.0632 49.8957 82.1581C48.9463 82.7827 48.4714 84.7173 48.3442 86.3192C48.1927 88.3199 48.8606 89.1302 50.0733 90.6009L50.3965 90.9943C50.4655 91.0791 50.512 91.18 50.5318 91.2876C50.5516 91.3952 50.5439 91.506 50.5096 91.6099C50.4753 91.7138 50.4154 91.8073 50.3354 91.8819C50.2554 91.9565 50.1579 92.0098 50.0519 92.0368C49.5917 92.1537 49.0898 93.6974 48.9777 95.3404C48.8256 97.4067 48.9472 99.4841 49.3392 101.519C49.6371 103.012 50.6293 105.782 51.8074 106.976C51.8977 107.068 51.9589 107.184 51.9834 107.31C52.0078 107.436 51.9944 107.567 51.9448 107.685C51.8952 107.804 51.8117 107.905 51.7047 107.976C51.5977 108.048 51.472 108.086 51.3435 108.086Z" fill="#101828"/>
    <path d="M117.524 101.365C117.403 101.365 117.284 101.331 117.18 101.267C117.077 101.203 116.994 101.112 116.94 101.003C116.576 100.269 116.207 99.552 115.839 98.8384C114.983 97.1739 114.098 95.4529 113.329 93.6112C113.119 93.1027 112.183 91.1093 111.07 88.7365C109.32 85.0064 107.144 80.3642 106.603 78.9842C106.191 77.927 105.225 76.0226 104.449 74.4921C103.688 72.992 103.215 72.0519 103.075 71.6403C102.852 71.0012 102.768 70.0993 102.687 69.2269C102.638 68.6945 102.588 68.1494 102.508 67.7028C99.0166 68.1353 94.946 68.2114 90.3967 67.9292C88.3059 67.7953 85.0366 67.2246 82.6993 66.0558C81.6983 65.5485 80.6847 64.7482 79.8696 64.1052C79.6621 63.9414 79.4666 63.7869 79.287 63.6497C75.2731 66.1739 68.841 73.2821 69.8638 77.2624C69.8954 77.3855 69.8904 77.5152 69.8492 77.6355C69.8081 77.7557 69.7326 77.8614 69.6322 77.9393C68.4112 78.8872 67.7604 79.8536 67.4115 81.045C68.7022 83.9864 69.835 87.4304 69.9714 88.4318C69.9755 88.4614 70.2693 91.4426 68.9684 92.0837C68.596 92.2671 67.9946 92.3257 67.2428 91.5656C66.1722 90.495 65.6956 87.3004 65.6956 86.2672C65.7042 84.2913 65.7115 82.6324 66.0441 81.1778C65.3285 79.5838 64.5993 78.2312 64.0433 77.7168C63.6305 77.3214 62.796 76.9253 62.5568 76.9591C62.4778 76.99 62.3934 77.0049 62.3087 77.0028C62.2239 77.0008 62.1404 76.9819 62.063 76.9472C61.9856 76.9125 61.9158 76.8628 61.8579 76.801C61.7999 76.7391 61.7548 76.6663 61.7252 76.5868C61.6644 76.4236 61.6703 76.2431 61.7417 76.0843C61.8131 75.9254 61.9441 75.8011 62.1064 75.7381C63.0559 75.3658 64.5131 76.3621 64.9361 76.7678C65.4574 77.2505 66.06 78.2342 66.6622 79.4392C67.119 78.5645 67.749 77.7917 68.5138 77.168C67.6492 71.8691 75.3645 64.4079 78.9947 62.3032C79.1023 62.2408 79.2255 62.2105 79.3498 62.2159C79.474 62.2213 79.5942 62.2622 79.696 62.3337C79.9741 62.529 80.3073 62.7915 80.6759 63.0826C81.4448 63.6897 82.4018 64.4453 83.2835 64.8921C85.443 65.9719 88.509 66.5028 90.477 66.6288C95.1949 66.9217 99.3791 66.823 102.913 66.3358C103.064 66.3152 103.217 66.3481 103.346 66.429C103.476 66.5098 103.572 66.6335 103.62 66.7783C103.825 67.4055 103.902 68.2322 103.983 69.1074C104.056 69.9014 104.132 70.7222 104.305 71.2153C104.424 71.5659 105.026 72.7539 105.609 73.9029C106.439 75.5393 107.38 77.3942 107.815 78.5097C108.34 79.8501 110.507 84.4704 112.248 88.1832C113.402 90.6439 114.315 92.5874 114.531 93.1109C115.278 94.9031 116.113 96.5251 116.996 98.2425C117.366 98.9616 117.738 99.6847 118.105 100.424C118.154 100.523 118.178 100.633 118.172 100.744C118.167 100.854 118.134 100.962 118.076 101.056C118.018 101.15 117.937 101.228 117.84 101.282C117.743 101.336 117.635 101.365 117.524 101.365ZM67.0474 83.5791C67.0079 84.374 67.0042 85.2618 66.9997 86.2702C66.9997 87.3526 67.5286 90.0076 68.1679 90.6469C68.2563 90.7545 68.3684 90.8403 68.4953 90.8977C68.6256 90.7027 68.7772 89.3114 68.6815 88.6079C68.5811 87.8746 67.9011 85.7648 67.0474 83.5791Z" fill="#101828"/>
    <path d="M76.6987 95.7803C76.5515 95.7804 76.4085 95.7307 76.2932 95.6392C76.1778 95.5477 76.0969 95.4198 76.0635 95.2764C76.0302 95.133 76.0463 94.9825 76.1095 94.8494C76.1726 94.7164 76.2789 94.6087 76.4111 94.5438C77.9294 93.7982 77.7159 91.3301 77.5746 89.6969L77.5374 89.2587C77.4003 87.546 78.2381 86.9279 78.9771 86.3827C79.239 86.2002 79.4855 85.9966 79.714 85.7737C81.3766 84.0746 81.8999 81.0878 82.3617 78.4525C82.5304 77.3687 82.7549 76.2943 83.0342 75.2336C83.0575 75.151 83.097 75.0739 83.1503 75.0066C83.2035 74.9393 83.2696 74.8832 83.3446 74.8415C83.4197 74.7998 83.5022 74.7733 83.5875 74.7636C83.6728 74.7539 83.7591 74.7611 83.8416 74.7849C83.9241 74.8087 84.001 74.8485 84.0681 74.9022C84.1351 74.9558 84.1909 75.0221 84.2322 75.0973C84.2735 75.1726 84.2996 75.2552 84.3089 75.3406C84.3181 75.4259 84.3105 75.5122 84.2863 75.5946C84.0206 76.6107 83.8067 77.6396 83.6453 78.6774C83.1509 81.4991 82.5905 84.6973 80.6448 86.6857C80.3677 86.9579 80.0689 87.207 79.7512 87.4304C79.0898 87.9183 78.7576 88.1633 78.8371 89.1557L78.8729 89.5839C79.0345 91.4502 79.3048 94.574 76.9856 95.7129C76.8964 95.7571 76.7982 95.7801 76.6987 95.7803Z" fill="#101828"/>
    <path d="M91.4986 93.081C90.5491 93.081 89.6031 93.048 88.6602 93.0153C87.737 92.9831 86.816 92.9507 85.8951 92.9507C85.7223 92.9507 85.5566 92.882 85.4344 92.7598C85.3122 92.6376 85.2435 92.4719 85.2435 92.2991C85.2435 92.1263 85.3122 91.9606 85.4344 91.8384C85.5566 91.7162 85.7223 91.6475 85.8951 91.6475C86.8311 91.6475 87.7671 91.6801 88.7061 91.7129C89.634 91.7453 90.5642 91.7778 91.4986 91.7778C92.5759 91.7778 98.1293 91.6475 98.1293 91.6475L98.1598 92.9507C98.1598 92.9507 92.5807 93.081 91.4986 93.081Z" fill="#101828"/>
    <path d="M95.2032 94.5516C95.0304 94.5516 94.8647 94.483 94.7425 94.3608C94.6203 94.2386 94.5516 94.0729 94.5516 93.9001V90.8098C94.5516 90.637 94.6203 90.4712 94.7425 90.3491C94.8647 90.2269 95.0304 90.1582 95.2032 90.1582C95.376 90.1582 95.5418 90.2269 95.6639 90.3491C95.7861 90.4712 95.8548 90.637 95.8548 90.8098V93.9001C95.8548 94.0729 95.7861 94.2386 95.6639 94.3608C95.5418 94.483 95.376 94.5516 95.2032 94.5516Z" fill="#101828"/>
    <path d="M92.9693 97.4186C92.8778 97.4187 92.7874 97.3996 92.7038 97.3624C92.6202 97.3253 92.5454 97.271 92.4842 97.203C92.423 97.1351 92.3768 97.055 92.3486 96.968C92.3204 96.881 92.3108 96.7891 92.3205 96.6981L92.3495 96.4256C92.5573 94.4822 92.7719 92.4728 92.3337 90.5847C92.3144 90.5014 92.3116 90.415 92.3256 90.3306C92.3397 90.2462 92.3702 90.1654 92.4154 90.0928C92.5068 89.9461 92.6527 89.8418 92.8211 89.8027C92.9894 89.7636 93.1664 89.793 93.3131 89.8844C93.4597 89.9758 93.5641 90.1217 93.6031 90.29C94.0913 92.3924 93.8638 94.5131 93.6454 96.5637L93.6164 96.8353C93.5995 96.9953 93.5241 97.1433 93.4046 97.251C93.2852 97.3587 93.1301 97.4183 92.9693 97.4186Z" fill="#101828"/>
    <path d="M89.6956 76.8235C89.377 76.8244 89.0588 76.7981 88.7447 76.7451C85.8979 76.2648 84.6202 73.1255 84.3233 70.1998C83.8808 70.5328 83.3408 70.9908 82.839 71.416C80.9264 73.0373 78.9483 74.7137 77.4201 74.5307C77.1828 74.5037 76.9538 74.4268 76.7483 74.305C76.5429 74.1833 76.3654 74.0195 76.2277 73.8244C75.1202 72.3126 76.25 69.4626 77.1585 67.1726C77.3944 66.5778 77.6018 66.0584 77.712 65.6815C77.7356 65.5989 77.7753 65.5218 77.8288 65.4546C77.8823 65.3874 77.9485 65.3315 78.0237 65.29C78.0989 65.2485 78.1816 65.2223 78.267 65.2129C78.3523 65.2035 78.4387 65.211 78.5212 65.2351C78.6036 65.2592 78.6805 65.2993 78.7473 65.3532C78.8142 65.4071 78.8697 65.4737 78.9108 65.5492C78.9518 65.6246 78.9776 65.7074 78.9865 65.7928C78.9954 65.8783 78.9873 65.9646 78.9628 66.0469C78.8442 66.4525 78.6238 67.0127 78.3699 67.6529C77.7069 69.325 76.5974 72.1236 77.2804 73.0559C77.3125 73.1066 77.3558 73.1493 77.407 73.1806C77.4581 73.212 77.5158 73.2312 77.5755 73.2368C78.5402 73.3525 80.6204 71.5889 81.997 70.4221C83.2816 69.333 84.1007 68.6565 84.7297 68.4769C84.8255 68.4495 84.9264 68.4444 85.0245 68.4621C85.1226 68.4798 85.2153 68.5198 85.2955 68.579C85.3757 68.6381 85.4413 68.7149 85.4872 68.8034C85.5331 68.8919 85.558 68.9897 85.5602 69.0893C85.6177 71.7732 86.5437 75.0521 88.9638 75.4606C90.6454 75.7493 92.6237 74.9449 94.1596 74.212C95.7216 73.4253 97.2288 72.534 98.6706 71.5441C98.8133 71.4473 98.9885 71.4111 99.1579 71.4432C99.3273 71.4754 99.477 71.5733 99.5743 71.7157C99.6715 71.858 99.7084 72.0331 99.6769 72.2025C99.6454 72.372 99.5479 72.5221 99.406 72.6199C97.9119 73.6453 96.3502 74.5684 94.7314 75.3827C93.2749 76.0779 91.4574 76.8235 89.6956 76.8235Z" fill="#101828"/>
    <path d="M102.445 67.7071C102.345 67.7072 102.247 67.6845 102.158 67.6407C102.068 67.5969 101.99 67.5332 101.929 67.4545C101.868 67.3758 101.826 67.2842 101.806 67.1867C101.786 67.0892 101.789 66.9884 101.814 66.8921C102.463 64.3835 104.011 60.9647 104.647 59.6113L105.36 58.0758C106.31 56.0139 107.293 53.882 108.442 52.0082C108.515 51.888 108.626 51.7949 108.757 51.743C108.888 51.691 109.033 51.683 109.169 51.7201C111.67 52.4024 117.496 53.9912 118.526 50.9484C118.768 50.233 118.74 49.6596 118.442 49.1961C117.508 47.7423 114.168 47.3974 111.958 47.1692C111.399 47.1114 110.899 47.0593 110.5 46.9984C110.399 46.983 110.303 46.944 110.22 46.8845C110.136 46.8251 110.068 46.7469 110.021 46.6562C109.974 46.5656 109.948 46.4651 109.947 46.3628C109.946 46.2606 109.968 46.1595 110.013 46.0676C110.923 44.2133 111.195 41.4041 110.077 39.9133C108.254 37.5018 104.418 36.5039 102.293 36.124C100.943 35.8853 98.6107 35.3778 96.1549 34.8432C93.0154 34.1596 89.7695 33.4529 88.0296 33.1852C85.1653 32.7446 83.9454 32.7163 83.4547 32.8082C83.905 33.5004 84.4091 34.1706 84.9574 34.9005C85.4995 35.6223 86.084 36.4008 86.6729 37.2532C87.3963 38.332 88.0548 39.4529 88.6451 40.6099L88.8149 40.9277C89.4817 42.1435 89.7967 42.8452 89.0548 44.2086C88.6423 44.9587 88.2128 45.6834 87.7845 46.4053C86.9181 47.8665 86.0999 49.2465 85.4323 50.8001C84.9023 52.0365 84.3339 53.2591 83.7641 54.4807C82.4479 57.3068 81.0869 60.229 80.2883 63.2563C80.2429 63.422 80.1339 63.563 79.9851 63.6487C79.8363 63.7344 79.6597 63.758 79.4936 63.7141C79.3276 63.6703 79.1855 63.5627 79.0984 63.4147C79.0113 63.2667 78.9861 63.0903 79.0283 62.9239C79.8567 59.7842 81.2425 56.8084 82.5829 53.9306C83.1462 52.7205 83.7099 51.5104 84.2347 50.2861C84.9358 48.6544 85.8141 47.1731 86.6634 45.7405C87.0847 45.0302 87.5073 44.3175 87.9107 43.5827C88.3213 42.8277 88.269 42.6436 87.6687 41.548L87.4961 41.2235C86.9293 40.1095 86.2962 39.0304 85.6002 37.9921C85.0231 37.1564 84.4486 36.3911 83.916 35.6837C83.2944 34.8562 82.729 34.1013 82.2755 33.3969C81.8773 32.7773 82.0501 32.3272 82.1888 32.1139C82.7007 31.3258 84.1683 31.2733 88.2284 31.8979C90.0078 32.1716 93.2734 32.8827 96.4328 33.5706C98.8685 34.101 101.181 34.6047 102.521 34.8417C104.835 35.2553 109.027 36.3623 111.119 39.1301C112.433 40.8819 112.33 43.6539 111.536 45.8154C111.713 45.834 111.899 45.8537 112.093 45.8737C114.699 46.1428 118.266 46.5114 119.539 48.4924C120.058 49.2994 120.132 50.2663 119.761 51.3664C118.41 55.3577 112.347 53.9261 109.303 53.1073C108.298 54.8167 107.407 56.7489 106.544 58.6222L105.827 60.1662C104.536 62.916 103.507 65.5528 103.076 67.2195C103.039 67.3592 102.958 67.4829 102.844 67.5711C102.729 67.6593 102.589 67.7072 102.445 67.7071Z" fill="#101828"/>
    <path d="M92.7202 45.8621C93.028 45.8612 93.3312 45.9372 93.6023 46.083C93.8734 46.2289 94.1039 46.4401 94.2728 46.6974C95.311 48.2549 94.5232 50.4021 94.257 51.0231C93.8359 51.9993 92.6765 54.2664 90.9954 54.2664C90.7547 54.2723 90.5157 54.2242 90.2961 54.1256C90.0764 54.0271 89.8816 53.8805 89.726 53.6967C89.2215 53.0927 89.088 52.0518 89.3295 50.6035C89.5632 49.3505 90.0429 48.1562 90.7409 47.0897C91.2266 46.3095 91.9482 45.8621 92.7202 45.8621ZM90.9865 52.9631C91.5874 52.9631 92.4363 51.9537 93.0598 50.5082C93.4542 49.5876 93.7257 48.226 93.1901 47.4231C93.1402 47.3436 93.0708 47.2782 92.9885 47.2331C92.9062 47.1879 92.8137 47.1646 92.7198 47.1653C92.4123 47.1653 92.0858 47.3946 91.8465 47.7785C91.2386 48.7032 90.8194 49.7389 90.613 50.8261C90.4189 51.9919 90.5438 52.6433 90.7259 52.8613C90.7578 52.8981 90.7982 52.9266 90.8436 52.9443C90.889 52.962 90.938 52.9685 90.9865 52.9631Z" fill="#101828"/>
    <path d="M95.4639 41.6072C95.3442 41.6073 95.2268 41.5744 95.1246 41.5122C95.0224 41.45 94.9392 41.3608 94.8844 41.2544L94.0094 39.5604C93.9689 39.4842 93.9439 39.4008 93.9359 39.315C93.9279 39.2291 93.937 39.1425 93.9627 39.0602C93.9884 38.9779 94.0302 38.9015 94.0856 38.8355C94.1411 38.7694 94.2091 38.7151 94.2857 38.6755C94.3623 38.6359 94.446 38.612 94.5319 38.605C94.6179 38.598 94.7043 38.6082 94.7863 38.6348C94.8683 38.6615 94.9442 38.7042 95.0096 38.7604C95.0749 38.8167 95.1285 38.8853 95.1671 38.9624L96.0421 40.6565C96.0934 40.7558 96.1183 40.8666 96.1145 40.9782C96.1106 41.0899 96.078 41.1987 96.02 41.2942C95.9619 41.3897 95.8803 41.4686 95.7829 41.5234C95.6855 41.5783 95.5756 41.6071 95.4639 41.6072Z" fill="#101828"/>
    <path d="M99.4105 43.897C99.2406 43.8973 99.0772 43.8313 98.9553 43.713C98.8334 43.5946 98.7625 43.4333 98.7578 43.2635C98.7531 43.0936 98.8149 42.9287 98.9301 42.8038C99.0453 42.6789 99.2047 42.6039 99.3744 42.5948L101.683 42.4645C101.855 42.4547 102.025 42.5139 102.154 42.629C102.282 42.7441 102.36 42.9057 102.37 43.0783C102.38 43.2508 102.321 43.4201 102.206 43.549C102.09 43.6779 101.929 43.7558 101.756 43.7656L99.4479 43.8959C99.4353 43.8966 99.4229 43.897 99.4105 43.897Z" fill="#101828"/>
    <path d="M115.496 50.8071C115.092 50.8007 114.69 50.7664 114.291 50.7046C113.897 50.6394 113.498 50.6101 113.099 50.6169C112.927 50.6236 112.758 50.5615 112.631 50.4442C112.505 50.3269 112.43 50.164 112.423 49.9913C112.416 49.8186 112.478 49.6503 112.595 49.5234C112.713 49.3965 112.876 49.3214 113.048 49.3147C113.522 49.3049 113.995 49.3379 114.463 49.4132C114.857 49.4783 115.256 49.5076 115.655 49.5008C115.827 49.4941 115.996 49.5562 116.122 49.6735C116.249 49.7908 116.324 49.9538 116.331 50.1264C116.338 50.2991 116.276 50.4674 116.159 50.5943C116.041 50.7212 115.878 50.7963 115.706 50.803C115.635 50.8059 115.565 50.8073 115.496 50.8071Z" fill="#101828"/>
    <path d="M113.373 39.4105C113.686 38.9146 113.889 38.3565 113.966 37.7748C114.043 37.193 113.993 36.6015 113.819 36.041C113.298 34.3655 111.809 33.5278 110.171 33.2299C109.147 33.0437 108.086 32.9879 107.062 32.8017C105.926 32.597 104.828 32.3177 103.711 32.0385C101.663 31.5172 99.5222 31.0146 97.9584 29.5067C97.6233 29.1902 96.9717 29.395 97.009 29.8976C97.4744 36.6925 104.828 38.4611 110.152 40.5647C109.558 41.0723 109.13 41.7468 108.923 42.5008C108.402 44.2507 109.091 46.0937 108.681 47.8622C108.588 48.309 109.072 48.7744 109.5 48.4952C110.433 47.9021 111.317 47.2361 112.144 46.5033C113.317 46.615 114.471 46.7825 115.607 47.0059C116.24 44.4369 115.737 40.8812 113.373 39.4105Z" fill="#101828"/>
    <path d="M107.341 55.4576C107.37 55.5214 107.412 55.5787 107.463 55.6263C107.514 55.6739 107.575 55.7109 107.64 55.7352C107.706 55.7594 107.776 55.7704 107.846 55.7675C107.916 55.7646 107.985 55.7478 108.048 55.7183C108.109 55.7286 108.171 55.7238 108.23 55.7043C108.288 55.6848 108.341 55.6513 108.383 55.6066C109.463 54.7875 110.599 53.9311 111.623 52.9817C110.617 52.7769 109.687 52.5163 108.998 52.3301C108.421 53.3354 107.862 54.3779 107.341 55.4576Z" fill="#101828"/>
  </g>
  <defs>
    <clipPath id="clip0_8388_22839">
      <rect width="120" height="108.086" fill="transparent"/>
    </clipPath>
  </defs>
</svg>
