<svg width="150" height="150" viewBox="0 0 150 150" fill="none" xmlns="http://www.w3.org/2000/svg">
<g clip-path="url(#clip0_0_3)">
<path fill-rule="evenodd" clip-rule="evenodd" d="M130.601 88.1444C142.239 88.1444 149.812 100.562 144.312 110.818C131.369 134.946 105.465 151.088 75.9181 149.943C37.4561 148.454 6.13547 117.093 4.69269 78.6294C3.10609 36.3326 36.9241 1.54648 78.8669 1.54648C107.074 1.54648 131.617 17.2903 144.171 40.4692C149.775 50.8176 142.372 63.4019 130.604 63.4019C124.999 63.4019 119.736 60.4222 117.101 55.4738C109.17 40.5821 92.775 30.8413 74.3825 32.7016C53.5694 34.8078 37.0556 51.9496 35.6654 72.8225C33.986 98.0288 54.0132 119.072 78.8669 119.072C95.3362 119.072 109.696 109.823 117.004 96.2519C119.698 91.2525 124.923 88.1444 130.601 88.1444Z" fill="#12B76A"/>
<path opacity="0.5" fill-rule="evenodd" clip-rule="evenodd" d="M103.609 75.7731C103.609 89.4388 92.5306 100.516 78.8669 100.516C65.2013 100.516 54.1244 89.4388 54.1244 75.7731C54.1244 62.1079 65.2013 51.0311 78.8669 51.0311C92.5306 51.0311 103.609 62.1079 103.609 75.7731Z" fill="#12B76A"/>
</g>
<defs>
<clipPath id="clip0_0_3">
<rect width="150" height="150" fill="white"/>
</clipPath>
</defs>
</svg>
