<svg xmlns="http://www.w3.org/2000/svg" width="762.20766" height="423.91397" viewBox="0 0 762.20766 423.91397" xmlns:xlink="http://www.w3.org/1999/xlink"><polygon points="116.48407 115.19826 133.42407 120.76826 133.42407 96.37826 118.05408 96.37826 116.48407 115.19826" fill="#efa4a7" stroke-width="0"/><circle cx="131.32407" cy="86.24827" r="16.88" fill="#efa4a7" stroke-width="0"/><path d="m126.69406,84.57827c2.82999-.09,4.67999-2.94,5.78-5.55s2.23001-5.60001,4.85001-6.67999c2.14001-.88,5.92001,5.07001,7.62,3.48,1.76001-1.64999.04001-10.13-1.82999-11.66s-4.42999-1.82001-6.84-1.92999c-5.88-.27-11.79999.2-17.57001,1.41-3.57001.74001-7.23999,1.86-9.81,4.44-3.26001,3.27-4.09,8.21001-4.32999,12.82001-.23999,4.72.03,9.66,2.32999,13.78999,2.29999,4.13,7.10001,7.17999,11.70001,6.12.45999-2.5,0-5.07001-.19-7.61-.17999-2.53999,0-5.28,1.56-7.31s4.85999-2.82001,6.67001-1.03" fill="#36344e" stroke-width="0"/><path d="m105.92407,90.42826c-1.69-1.24001-3.70999-2.27-5.79001-2.02-2.25.27-4.14001,2.12-4.72,4.31s.07001,4.60001,1.45999,6.39c1.39001,1.78999,3.45001,2.97,5.64001,3.56,1.26001.34,2.64999.48,3.85001-.03,1.78-.75999,2.73001-3.03,2.04001-4.84" fill="#36344e" stroke-width="0"/><rect x="122.07407" y="386.55825" width="15.87" height="22.51001" fill="#efa4a7" stroke-width="0"/><path d="m153.40408,422.69826c1.67001,0,3.14999-.04001,4.26999-.14001,4.22-.39001,8.23999-3.5,10.26001-5.32001.91-.82001,1.20001-2.12.73001-3.23999h0c-.34-.81-1.01999-1.41-1.85999-1.64999l-11.14001-3.17999-18.04001-12.17001-.20001.35999c-.07999.13-1.85001,3.32001-2.44,5.48001-.23001.82001-.17001,1.5.17999,2.03.23999.37.57001.57999.84.70001-.32999.34-1.35001,1.03-4.5,1.54001-4.60001.73001-5.57001-4.04001-5.60999-4.23999l-.03-.16-.14001-.09c-2.19-1.41-3.54001-2.04999-4-1.91-.29001.09-.78.23001-2.07999,13.22-.13.41-1.04999,3.39999-.42001,6.25.67999,3.10999,14.26001,2.04001,16.97,1.79001.07999,0,10.25.73001,17.20999.73001h0l.00003-.00003Z" fill="#36344e" stroke-width="0"/><rect x="66.41519" y="374.67855" width="22.51001" height="15.87" transform="translate(-288.08274 246.04643) rotate(-58.05)" fill="#efa4a7" stroke-width="0"/><path d="m94.77408,419.60827c1.85999,0,3.57001-.22,4.79001-.44,1.20001-.20999,2.14001-1.16,2.32999-2.37h0c.14001-.85999-.12-1.73001-.70001-2.38l-7.76999-8.59-8.85999-19.87-.35999.20001c-.14001.07001-3.32999,1.84-4.97,3.35999-.63.57999-.94,1.19-.92999,1.82001,0,.44.17001.79001.34,1.04001-.45999.12-1.69.16-4.63-1.07999-4.29001-1.81-2.59-6.37-2.51001-6.56l.06-.14999-.07001-.14999c-1.10999-2.35999-1.91-3.60999-2.38-3.73999-.29001-.07999-.78-.20999-8.76001,10.10999-.32999.26999-2.69,2.32999-3.67001,5.07999-1.07001,3,11.01999,9.26999,13.45001,10.5.07001.06,12.73001,9.26001,17.92001,11.87,2.06,1.04001,4.5,1.35999,6.72,1.35999h0v-.01001Z" fill="#36344e" stroke-width="0"/><path d="m110.39407,198.28826h44.42999s4.03,41.33002,4.03,41.33002l-17.64001,152.71002h-22.67999s9.07001-88.20001,9.07001-88.20001l-36.79001,79.63-20.16-14.10999,28.73001-74.34s-10.26001-64.76001-2.20001-80.88998c8.06-16.13,13.20999-16.13,13.20999-16.13h0l.00003-.00006Z" fill="#36344e" stroke-width="0"/><polygon points="88.29407 200.80825 158.85406 200.80825 137.68408 109.57827 106.94406 109.57827 88.29407 200.80825" fill="#f77f00" stroke-width="0"/><path id="uuid-dd7ab27a-713c-4954-9860-a8ae657a3e39-257" d="m176.37408,107.78826c1.13-5.55-.94-10.62-4.60001-11.32001-3.67001-.7-7.54999,3.23-8.67999,8.78-.48001,2.21001-.41,4.5.22,6.69l-4.45999,23.57001,11.53,1.82001,3.17001-23.42999c1.42999-1.78999,2.39999-3.88,2.82001-6.11h0l-.00003-.00002Z" fill="#efa4a7" stroke-width="0"/><path d="m107.69406,109.57827h27.11002s18.28,36.55,18.28,36.55l6.89001-27.39,15.14999,1.61s-3.57999,53.52-19.25,51.71001-52.20001-50.03-48.17999-62.48h0l-.00003-.00002Z" fill="#f77f00" stroke-width="0"/><path id="uuid-14e5555c-73c7-4293-a131-2bc60b1411bc-258" d="m77.41406,248.59826c-1.13,5.54999.94,10.62,4.60001,11.32001,3.67001.70001,7.54999-3.23001,8.67999-8.78.48001-2.20999.41-4.5-.22-6.69l4.45999-23.57001-11.53-1.82001-3.17001,23.42999c-1.42999,1.79001-2.39999,3.88-2.82001,6.10999h0l.00003.00003Z" fill="#efa4a7" stroke-width="0"/><path d="m123.14407,109.57827s-15.41-.64999-16.20999,0c-4.20001,3.44-28.87,127.34-28.87,127.34h15.62s29.45001-127.34,29.45001-127.34h.00998Z" fill="#f77f00" stroke-width="0"/><path d="m249.66998,422.72397c0,.65997-.53,1.19-1.19,1.19H1.19c-.65997,0-1.19-.53003-1.19-1.19,0-.65997.53003-1.19,1.19-1.19h247.28998c.66,0,1.19.53003,1.19,1.19Z" fill="#484565" stroke-width="0"/><rect x="176.70766" y="53.5" width="207" height="59" fill="#d5d5d5" stroke-width="0"/><line x1="195.20766" y1="66" x2="226.56474" y2="66" fill="none" stroke="#000" stroke-miterlimit="10" stroke-width="2"/><line x1="195.20766" y1="83" x2="364.20766" y2="83" fill="none" stroke="#000" stroke-miterlimit="10" stroke-width="2"/><line x1="414.40312" y1="83" x2="455.85711" y2="83" fill="none" stroke="#000" stroke-miterlimit="10" stroke-width="2"/><line x1="195.20766" y1="96.8549" x2="268.83822" y2="96.8549" fill="none" stroke="#000" stroke-miterlimit="10" stroke-width="2"/><line x1="195.20766" y1="183" x2="304.70766" y2="183" fill="none" stroke="#000" stroke-miterlimit="10" stroke-width="2"/><line x1="195.20766" y1="200" x2="287.70766" y2="200" fill="none" stroke="#000" stroke-miterlimit="10" stroke-width="2"/><line x1="195.20766" y1="213.8549" x2="268.83822" y2="213.8549" fill="none" stroke="#000" stroke-miterlimit="10" stroke-width="2"/><line x1="195.20766" y1="125.70321" x2="295.98956" y2="125.70321" fill="none" stroke="#000" stroke-miterlimit="10" stroke-width="2"/><line x1="195.20766" y1="140.12736" x2="364.20766" y2="140.12736" fill="none" stroke="#000" stroke-miterlimit="10" stroke-width="2"/><line x1="195.20766" y1="156.24847" x2="268.83822" y2="156.24847" fill="none" stroke="#000" stroke-miterlimit="10" stroke-width="2"/><line x1="391.20766" x2="391.20766" y2="291" fill="none" stroke="#000" stroke-miterlimit="10" stroke-width="2"/><line x1="414.40312" y1="115.5" x2="701.58955" y2="115.5" fill="none" stroke="#000" stroke-miterlimit="10" stroke-width="2"/><line x1="414.40312" y1="133.52798" x2="582.20766" y2="133.52798" fill="none" stroke="#000" stroke-miterlimit="10" stroke-width="2"/><line x1="414.40312" y1="148.5" x2="606.83993" y2="148.5" fill="none" stroke="#000" stroke-miterlimit="10" stroke-width="2"/><line x1="414.40312" y1="165.11119" x2="762.20766" y2="165.11119" fill="none" stroke="#000" stroke-miterlimit="10" stroke-width="2"/></svg>