<svg xmlns="http://www.w3.org/2000/svg" data-name="Layer 1" width="775.78986" height="669.28397" viewBox="0 0 775.78986 669.28397" xmlns:xlink="http://www.w3.org/1999/xlink"><path d="M322.20776,294.171h-62a12.51408,12.51408,0,0,1-12.5-12.5v-58a12.51408,12.51408,0,0,1,12.5-12.5h62a12.51408,12.51408,0,0,1,12.5,12.5v58A12.51408,12.51408,0,0,1,322.20776,294.171Z" transform="translate(-212.10507 -115.35802)" fill="#e6e6e6"/><path d="M471.70776,294.671h-62a12.51408,12.51408,0,0,1-12.5-12.5v-58a12.51408,12.51408,0,0,1,12.5-12.5h62a12.51408,12.51408,0,0,1,12.5,12.5v58A12.51408,12.51408,0,0,1,471.70776,294.671Z" transform="translate(-212.10507 -115.35802)" fill="#e6e6e6"/><path d="M621.20776,295.171h-62a12.51408,12.51408,0,0,1-12.5-12.5v-58a12.51408,12.51408,0,0,1,12.5-12.5h62a12.51408,12.51408,0,0,1,12.5,12.5v58A12.51408,12.51408,0,0,1,621.20776,295.171Z" transform="translate(-212.10507 -115.35802)" fill="#e6e6e6"/><path d="M322.20776,424.171h-62a12.51408,12.51408,0,0,1-12.5-12.5v-58a12.51408,12.51408,0,0,1,12.5-12.5h62a12.51408,12.51408,0,0,1,12.5,12.5v58A12.51408,12.51408,0,0,1,322.20776,424.171Z" transform="translate(-212.10507 -115.35802)" fill="#e6e6e6"/><path d="M471.70776,424.671h-62a12.51408,12.51408,0,0,1-12.5-12.5v-58a12.51408,12.51408,0,0,1,12.5-12.5h62a12.51408,12.51408,0,0,1,12.5,12.5v58A12.51408,12.51408,0,0,1,471.70776,424.671Z" transform="translate(-212.10507 -115.35802)" fill="#e6e6e6"/><path d="M621.20776,425.171h-62a12.51408,12.51408,0,0,1-12.5-12.5v-58a12.51408,12.51408,0,0,1,12.5-12.5h62a12.51408,12.51408,0,0,1,12.5,12.5v58A12.51408,12.51408,0,0,1,621.20776,425.171Z" transform="translate(-212.10507 -115.35802)" fill="#e6e6e6"/><path d="M322.20776,554.171h-62a12.51408,12.51408,0,0,1-12.5-12.5v-58a12.51408,12.51408,0,0,1,12.5-12.5h62a12.51408,12.51408,0,0,1,12.5,12.5v58A12.51408,12.51408,0,0,1,322.20776,554.171Z" transform="translate(-212.10507 -115.35802)" fill="#e6e6e6"/><path d="M471.70776,554.671h-62a12.51408,12.51408,0,0,1-12.5-12.5v-58a12.51408,12.51408,0,0,1,12.5-12.5h62a12.51408,12.51408,0,0,1,12.5,12.5v58A12.51408,12.51408,0,0,1,471.70776,554.671Z" transform="translate(-212.10507 -115.35802)" fill="#e6e6e6"/><path d="M621.20776,555.171h-62a12.51408,12.51408,0,0,1-12.5-12.5v-58a12.51408,12.51408,0,0,1,12.5-12.5h62a12.51408,12.51408,0,0,1,12.5,12.5v58A12.51408,12.51408,0,0,1,621.20776,555.171Z" transform="translate(-212.10507 -115.35802)" fill="#e6e6e6"/><path d="M772.98265,652.64836,725.00626,691.92a12.51408,12.51408,0,0,1-17.59034-1.755l-36.738-44.88114a12.51407,12.51407,0,0,1,1.755-17.59033l47.97639-39.2717a12.51409,12.51409,0,0,1,17.59034,1.755l36.738,44.88114A12.51408,12.51408,0,0,1,772.98265,652.64836Z" transform="translate(-212.10507 -115.35802)" fill="#f77f00"/><path d="M652.27948,731.528l-.93144-20.94324a67.64032,67.64032,0,0,0-31.54965-7.98643c15.15276,12.3885,13.25912,36.26927,23.53234,52.92887A40.68576,40.68576,0,0,0,673.166,774.3286l12.68036,7.76379a68.17645,68.17645,0,0,0-14.36986-55.24594,65.85447,65.85447,0,0,0-12.10282-11.24551C656.33671,723.60883,652.27948,731.528,652.27948,731.528Z" transform="translate(-212.10507 -115.35802)" fill="#f2f2f2"/><path d="M732.463,588.97789a9.17507,9.17507,0,0,0,.1566-14.06808l20.74078-54.22309-16.57568,3.5109-17.599,52.15579A9.22485,9.22485,0,0,0,732.463,588.97789Z" transform="translate(-212.10507 -115.35802)" fill="#ffb8b8"/><path d="M723.92418,529.59668l18.61935-77.468,8.00139-22.51942a14.70663,14.70663,0,0,1,18.88147-8.89794l-.00006.00037a14.77134,14.77134,0,0,1,9.42323,11.07547l2.00229,10.53434L743.57473,572.68061l-.08543.29762-24.27138-1.63288Z" transform="translate(-212.10507 -115.35802)" fill="#2f2e41"/><path d="M799.4939,400.26547,758.03584,484.108,731.80848,573.2599c55.25509,10.77459,124.58618,33.82364,129.57668.76672C858.31007,481.863,848.62211,452.465,828.62335,412.50994Z" transform="translate(-212.10507 -115.35802)" fill="#2f2e41"/><polygon points="550.299 654.288 537.282 654.287 531.089 604.078 550.302 604.079 550.299 654.288" fill="#ffb6b6"/><path d="M765.72409,782.26414l-41.973-.00155v-.53089a16.338,16.338,0,0,1,16.33707-16.33682h.001l7.66693-5.81653,14.30478,5.81742,3.664.00015Z" transform="translate(-212.10507 -115.35802)" fill="#2f2e41"/><polygon points="667.919 637.364 656.268 643.17 628.328 600.996 645.523 592.426 667.919 637.364" fill="#ffb6b6"/><path d="M888.62388,762.534,851.058,781.25661l-.23683-.47514a16.33793,16.33793,0,0,1,7.33364-21.9091l.00093-.00047,4.267-8.6259,15.3977-1.1748,3.27928-1.63436Z" transform="translate(-212.10507 -115.35802)" fill="#2f2e41"/><path d="M756.637,541.612l71.779,2.51227,5.36708,9.96744s5.62131,40.77928,2.74244,43.65815-4.31829,2.87886-2.87886,7.91688,5.16076,53.17459,5.16076,53.17459,29.65176,61.50435,31.0912,65.10293,2.87886,2.15915,1.43943,3.59858a53.00705,53.00705,0,0,0-3.59858,4.3183H844.27927s-12.63165-31.86322-24.19439-44.18793a70.00339,70.00339,0,0,1-18.45444-39.55748l-9.72737-46.04758L771.0313,672.60038s-3.59858,69.81246-2.87886,73.41105l.71971,3.59858-27.65093.30885s-2.87886-6.06658-1.43943-8.22573,1.35306-1.56978-.403-5.10319-1.03639-9.52065-1.03639-9.52065S748.7201,585.51472,748.7201,583.35557a7.17884,7.17884,0,0,0-.59787-3.23782V577.187l2.757-10.38488Z" transform="translate(-212.10507 -115.35802)" fill="#2f2e41"/><path d="M804.35225,412.69907l-4.88569-11.68917-15.12128.26548-15.76756,22.30368-16.54951,69.598s-5.94412,50.84123,0,53.52515,77.92119,1.25575,77.92119,1.25575c-3.3326-27.45625-5.81633-55.3868-8.434-72.07224C812.86419,420.74112,808.78115,432.346,804.35225,412.69907Z" transform="translate(-212.10507 -115.35802)" fill="#f77f00"/><path d="M784.34528,401.27538s-32.57278,18.82909-33.84683,28.65787-5.5396,130.12765-5.5396,130.12765l11.51886-7.44315,3.14817-43.84477c-2.19554-38.95954,3.16279-67.99889,14.05785-89.76719Z" transform="translate(-212.10507 -115.35802)" fill="#2f2e41"/><circle cx="579.92954" cy="258.24117" r="22.19951" fill="#ffb8b8"/><path d="M819.38775,372.281a38.60515,38.60515,0,0,1-5.28,12.65,8.6106,8.6106,0,0,1-2.88,3.27,3.14784,3.14784,0,0,1-4-.5l-.54-.44a11.45684,11.45684,0,0,0,2.80005-2.43,3.90152,3.90152,0,0,0,.75-3.49,2.40234,2.40234,0,0,0-2.94-1.57c-1.3.51-2.09,2.39-3.45,2.1-1.1-.24-1.33-1.69-1.33-2.83.04-5.96-2.84-14.43-5.07-14.17a17.98149,17.98149,0,0,1-6.65-.89,17.42259,17.42259,0,0,0-6.66-.85c-.16.02-.32.05-.49.08a14.74676,14.74676,0,0,0-1.48-3.23,17.2554,17.2554,0,0,1-.18,3.66,34.23084,34.23084,0,0,1-5.54,1.75c-2.06.29-6.59,6.45-6.8,5.82a14.74676,14.74676,0,0,0-1.48-3.23,17.2554,17.2554,0,0,1-.18,3.66c-.01.05-.01.09-.02.14-1-1.33-1.61-2.95-1.27-1.71-3.35-7.57995-2.05-13.01,3.22-19.4a10.1337,10.1337,0,0,1,3.95-3.17005,4.98116,4.98116,0,0,1,4.86005.48005,16.35136,16.35136,0,0,1,16.22-3.46c5.49,1.91,9.72,3.03,10.56,8.79,4.54-.73,9.21,1.85,11.71,5.7A18.45674,18.45674,0,0,1,819.38775,372.281Z" transform="translate(-212.10507 -115.35802)" fill="#2f2e41"/><path d="M881.59465,583.50043a9.1751,9.1751,0,0,0-6.65247-12.39678l-8.0042-57.5-12.823,11.0748,9.75814,54.17313a9.22485,9.22485,0,0,0,17.72149,4.64889Z" transform="translate(-212.10507 -115.35802)" fill="#ffb8b8"/><path d="M857.96838,562.38764,810.3922,435.09413l1.1629-10.65978a14.772,14.772,0,0,1,8.51817-11.78587,14.7058,14.7058,0,0,1,19.52552,7.37674l9.77171,21.85385,24.68373,75.76142,7.98108,41.20044Z" transform="translate(-212.10507 -115.35802)" fill="#2f2e41"/><path d="M987.89493,783.08876a1.54861,1.54861,0,0,1-1.5533,1.55322H568.29146a1.55322,1.55322,0,0,1,0-3.10644H986.34163A1.54866,1.54866,0,0,1,987.89493,783.08876Z" transform="translate(-212.10507 -115.35802)" fill="#ccc"/><path d="M668.16529,149.84221h-454.293a1.807,1.807,0,0,1,0-3.61318h454.293a1.807,1.807,0,0,1,0,3.61318Z" transform="translate(-212.10507 -115.35802)" fill="#cacaca"/><ellipse cx="32.69152" cy="10.82345" rx="10.58751" ry="10.82345" fill="#3f3d56"/><ellipse cx="69.26654" cy="10.82345" rx="10.58751" ry="10.82345" fill="#3f3d56"/><ellipse cx="105.84156" cy="10.82345" rx="10.58751" ry="10.82345" fill="#3f3d56"/><path d="M646.144,118.04072H620.163a1.96761,1.96761,0,0,0,0,3.93445h25.981a1.96761,1.96761,0,0,0,0-3.93445Z" transform="translate(-212.10507 -115.35802)" fill="#3f3d56"/><path d="M646.144,125.42509H620.163a1.96761,1.96761,0,0,0,0,3.93445h25.981a1.96761,1.96761,0,0,0,0-3.93445Z" transform="translate(-212.10507 -115.35802)" fill="#3f3d56"/><path d="M646.144,132.79976H620.163a1.96761,1.96761,0,0,0,0,3.93445h25.981a1.96761,1.96761,0,0,0,0-3.93445Z" transform="translate(-212.10507 -115.35802)" fill="#3f3d56"/></svg>