<svg xmlns="http://www.w3.org/2000/svg" width="492.45944" height="596.97748" viewBox="0 0 492.45944 596.97748" xmlns:xlink="http://www.w3.org/1999/xlink"><path d="M94.26861,234.12571c-.56942-.89051-4.15791-6.50166-6.81655-5.93327-5.03961,1.07736-2.30582,23.40791-9.63235,25.63486-1.60792,.48882-3.8711,.06132-8.92595,1.4133-2.01095,.53789-3.05343,.98014-3.37714,1.8704-.45935,1.26319,.92981,2.32496,2.99275,5.40338,3.09368,4.61672,2.14249,5.47115,4.86308,8.78039,2.01976,2.45661,3.60474,3.27591,3.29407,4.35387-.43965,1.52536-3.89743,.86984-4.72799,2.61858-.84739,1.78464,1.61296,4.86879,3.74093,6.75423,3.99321,3.53818,7.97286,3.8797,11.61727,5.03955,3.96057,1.26052,9.37704,4.07676,14.98408,11.11829l44.80915,60.65352c-3.61354-1.3695-10.65453-4.18296-20.25907-8.99352-8.10118-4.05986-16.13244-8.68034-23.8721-13.73844-3.33742-2.18041-6.25402-4.20982-8.87408-6.10022l.26589,.13909-1.27994-4.63206c-.49108-1.84085-.81287-3.34425-.1316-4.5537,.37589-.64653,1.08511-1.31441,1.91141-2.08762,.94761-.88463,2.02369-1.8861,3.07175-3.27699,.9716-1.25111,1.19271-2.36696,.70743-3.30213-.16451-.31821-.38087-.54389-.60894-.71007,.26063-.41253,.55733-.89979,.82132-1.48536,.55921-1.24399,.6962-2.30853,.79502-3.10117,.40608-3.18642-.11-5.0637-1.53957-5.5815-.6043-.21799-1.14988-.11839-1.60651,.09634-.03397-.65372-.121-1.42287-.35923-2.2516-.76686-2.66124-1.83418-4.01029-3.25457-4.12151-1.98477-.15701-2.98589,2.03619-4.14281,4.57075-.51862,1.12602-1.8794,4.12555-2.58995,4.12819-.08795-.00093-.33863-.05476-.56084-.1037-.60875-.13244-1.5267-.33175-2.9597-.37183-.80322-.02266-2.01626-.05786-2.75821,.93708-.66109,.95367-.33497,1.96748-.03475,2.77769,.09954,.26746,.21848,.58504,.33772,.97026,.27228,.8782,.31776,1.3518,.36245,1.81082,.05787,.59718,.11802,1.21708,.54597,2.23749,.03615,.08285,.06916,.16002,.10297,.23602-.40215,.09192-.82371,.28601-1.17779,.67958-1.33272,1.45042-.0895,3.85189,.50245,4.80757,1.06458,1.71028,2.41347,2.53174,3.49836,3.19268,.27363,.16681,.54245,.33047,.80224,.5075,1.34593,.91661,2.46234,2.30562,3.35678,4.0925-1.05806-.80557-2.06978-1.58221-3.01938-2.31277-3.40124-2.61689-6.59917-5.16757-9.71676-7.65336-3.20575-2.55695-6.34487-5.05919-9.53839-7.50029l.20127-.87754,.00004-.0001-.77153,.44794c-5.0359-3.82952-10.22262-7.50823-16.04595-10.99807-.23864-.14302-.52106-.31043-.81214-.48111l-.27722-1.0033c-.49108-1.84085-.81277-3.34421-.1316-4.5537,.37589-.64653,1.08521-1.31437,1.91151-2.08758,.94747-.88457,2.02359-1.88614,3.07165-3.27703,.9716-1.25111,1.19281-2.36692,.70739-3.30203-.16447-.31831-.38074-.54395-.6088-.71013,.26053-.41257,.55733-.89979,.82122-1.4854,.55921-1.24399,.6962-2.30853,.79502-3.10117,.40608-3.18642-.11-5.0637-1.53957-5.5815-.6042-.21795-1.14978-.11835-1.60651,.09634-.03387-.65368-.1209-1.42284-.35923-2.2516-.76686-2.66124-1.83408-4.01025-3.25447-4.12147-1.98477-.15701-2.98599,2.03615-4.14291,4.57071-.51862,1.12602-1.8794,4.12555-2.58995,4.12819-.08799-.00083-.33863-.05476-.56074-.10366-.60875-.13244-1.52679-.33179-2.9597-.37183-.80332-.02269-2.01626-.05786-2.75831,.93704-.66109,.95367-.33497,1.96748-.03465,2.77773,.09954,.26746,.21838,.585,.33772,.97026,.27219,.87816,.31766,1.35176,.36245,1.81082,.05777,.59714,.11792,1.21704,.54587,2.23745,.03625,.08289,.06926,.16006,.10297,.23602-.40215,.09192-.82362,.28605-1.17783,.67968-1.33268,1.45032-.08946,3.85179,.50259,4.80751,1.06458,1.71028,2.41337,2.5317,3.49826,3.19264,.27369,.16695,.54254,.33051,.80224,.5075,.76083,.5181,1.44519,1.19379,2.06449,1.99362-1.9754-.66644-4.25621-1.21523-6.82813-1.45085-3.0737-.28107-6.18774-.07365-9.29187,.60279-.02178-.23386-.04314-.46355-.06699-.71833-.26386-2.85525-.45694-4.03974-1.4409-5.14997-.4777-.54202-1.20941-1.13838-3.30131-1.81948-2.89951-.94437-5.38303-1.08703-6.07705-1.10875-3.46629-.09879-6.46018-.18355-9.17835,1.90733-.51865,.39604-2.09373,1.59617-2.9583,3.71306-.44256,1.07109-.52236,1.94043-.58641,2.63954-.06758,.73052-.11015,1.2139-.52041,1.89035-.25895,.43124-.57048,.78278-.81806,1.06573-.47812,.56699-1.37681,1.60495-.62362,2.73143,.181,.2727,.40976,.46417,.66976,.59353-.13797,.95585-.05384,1.9446,.41959,2.83982,.42418,.80528,1.15531,1.34463,3.12508,2.30661,3.01399,1.47329,5.44304,2.19051,5.92545,2.32638,3.12633,.88636,4.69401,1.33085,6.37448,1.26674,3.57602-.14263,6.17385-1.25155,7.72086-3.29801,.078-.09975,.15021-.20165,.21925-.30389l-.0001-.00004c1.08433-1.60732,1.20189-3.28926,1.38926-5.96763,.03543-.51703,.02489-1.11311-.02041-1.87274,2.93224-.68186,5.87067-.91399,8.76296-.64928,6.2608,.57362,10.70969,3.23986,12.84637,4.52179,5.32136,3.18897,10.11902,6.55571,14.77136,10.05748l-.5608,.32556c-1.65607,.9419-3.02863,1.63449-4.37134,1.28229-.72075-.1996-1.54673-.71619-2.50417-1.31935-1.09602-.69228-2.33773-1.4791-3.94898-2.14006-1.45659-.62243-2.59207-.55338-3.37353,.15333-.26608,.23981-.42952,.50631-.53241,.76904-.4652-.1474-1.01174-.31084-1.64516-.41766-1.34508-.22539-2.40964-.08783-3.20144,.01761-3.18517,.41543-4.87004,1.39082-5.00836,2.905-.05765,.6397,.1771,1.14224,.50063,1.52949-.62374,.1986-1.34567,.47795-2.08691,.91859-2.37967,1.41676-3.41381,2.7914-3.16115,4.19351,.35153,1.95974,2.72693,2.37176,5.47209,2.84801,1.22075,.21612,4.46738,.77152,4.6501,1.45815,.02147,.08532,.03289,.3415,.04195,.56877,.02628,.62237,.06636,1.56093,.39112,2.95718,.18176,.7828,.45539,1.96498,1.60594,2.43038,1.09021,.39762,1.98813-.17495,2.69579-.67092,.23339-.1641,.51042-.35962,.85276-.57281,.78043-.48604,1.22704-.65019,1.65967-.80989,.56297-.20737,1.14742-.42289,2.02592-1.09562,.07099-.056,.13724-.10746,.20209-.15947,.19099,.36574,.48561,.72416,.95613,.96688,1.741,.92132,3.7485-.89036,4.52281-1.70545,1.3844-1.46361,1.83671-2.97669,2.20096-4.1938,.09204-.30698,.18208-.60857,.28746-.90472,.66204-1.86287,2.04387-3.5857,4.10897-5.12205l.44645-.33229,.42671-1.86063c2.80317,2.16209,5.5788,4.36959,8.40508,6.62359,3.12829,2.49639,6.34075,5.05689,9.75579,7.6849,4.52825,3.48345,10.16166,7.81872,18.00763,12.94506,7.83381,5.11802,15.96423,9.7965,24.16938,13.907,7.30752,3.66061,13.16018,6.1835,17.17589,7.80248-11.70172,.78245-27.88869,1.71159-35.20412,1.84316-2.84452,.0511-5.77551,.00726-7.86468-1.96074-2.01143-1.89476-3.00017-5.3446-5.92657-8.94656-.34182-.42071-1.30808-1.57951-2.16331-1.37476-.70722,.16938-.69429,1.11659-1.35216,1.28455-.88247,.22525-1.62167-1.29608-3.4479-2.72683-1.28765-1.00891-2.46118-1.46003-3.4704-1.84802-.3042-.11688-4.86405-1.83758-5.70137-.58598l.0001,.00004c-.62906,.94019,1.38744,2.74314,.78869,3.53802-.59662,.79206-2.80635-.72238-6.14082-.59725-.60136,.02253-4.39074,.16471-4.87887,1.63368-.92531,2.78428,10.82344,7.88561,9.80251,12.12417-.22405,.93006-1.08692,1.91753-1.88179,4.78865-.31621,1.14216-.39993,1.78134-.05641,2.19712,.48745,.58995,1.40943,.21454,3.51548,.09022,3.15858-.1864,3.30345,.52708,5.7127,.14667,1.78849-.28256,2.64793-.82407,3.08729-.3605,.62178,.65581-.69765,2.16378-.07895,3.07602,.6314,.93083,2.85493,.61314,4.39438,.11276,2.88878-.93908,4.20456-2.79375,5.82535-4.24775,1.7614-1.58025,4.70651-3.4261,9.78042-4.14633l35.91541-3.77855c2.09974,.83693,3.6469,1.4091,4.54808,1.74167,.47977,.17665,.78797,.28711,.91556,.34484l.47576-.91524,.53294,.72149c-.16525-.2351-.34654-.49454-.52121-.74408l.20256-.38974,1.37548-.6101c-.18487-.42092-.38785-.60501-.93654-.84242l2.76093-.29049c-.83497,.06783-1.83982,.14438-2.91386,.22429-.2262-.09175-.50404-.19429-.85109-.32251-.40436-.149-.95267-.35187-1.60933-.59977-10.89261-15.70553-33.29738-48.98148-41.637-62.60129-2.60957-4.26161-5.15217-8.7387-4.03193-13.65384,1.07847-4.73217,5.4221-9.30019,8.27117-16.93754,.33283-.89194,1.22739-3.38654,.1558-4.49939-.88587-.91999-2.30858-.05742-3.14845-.90395-1.12668-1.1355,.51876-3.60915,1.05979-7.64794,.3814-2.84786,.01996-5.02629-.29099-6.89962-.09375-.56487-1.5472-9.00079-4.18769-9.15455l-.00004,.0001c-1.98357-.11552-2.91861,4.54258-4.65526,4.34345-1.73032-.19836-1.40413-4.89229-4.56175-9.8299Z" fill="#f2f2f2"/><path d="M461.33398,430.24766l-320.75318-44.33301c-10.7351-1.48246-19.59542-9.17477-22.57381-19.59541L44.33855,108.47926c-2.49622-8.73902-.63267-17.78801,5.11298-24.82894s14.2346-10.67969,23.29931-9.98788l323.15881,24.75856c11.69121,.89547,21.50539,9.12835,24.42314,20.48489l71.26207,277.41442c2.27385,8.85282,0,18.21028-6.08407,25.03109-5.23877,5.87443-12.66754,9.15531-20.41151,9.15531-1.24886,0-2.50745-.08535-3.7653-.25906Z" fill="#e6e6e6"/><path d="M380.22357,372.56528l-101.73541-14.06139c-3.40492-.4702-6.21521-2.91002-7.15988-6.21521l-23.36591-81.78081c-.79174-2.77181-.20067-5.64194,1.62172-7.87516s4.51488-3.38735,7.39-3.16792l102.49842,7.85284c3.70818,.28402,6.82101,2.8953,7.74645,6.49733l22.60266,87.98937c.72121,2.80791,0,5.77588-1.92973,7.93928-1.66162,1.86323-4.01785,2.90385-6.47405,2.90385-.39611,0-.79531-.02707-1.19426-.08217Z" fill="#fff"/><path d="M371.12188,145.67297l-188.856-17.38399c-4.76121-.43826-8.46671-2.62651-8.25951-4.87756s4.24983-3.72523,9.01104-3.28697l188.856,17.38399c4.76121,.43826,8.46499,2.62549,8.25779,4.87655s-4.24811,3.72625-9.00932,3.28799Z" fill="#fff"/><path d="M381.41997,195.31115l-188.856-17.38399c-4.76121-.43826-8.46671-2.62651-8.25951-4.87756,.20721-2.25105,4.24983-3.72523,9.01104-3.28697l188.856,17.38399c4.76121,.43826,8.46499,2.62549,8.25779,4.87655s-4.24811,3.72625-9.00932,3.28799Z" fill="#fff"/><path d="M385.05702,238.57513l-188.856-17.38399c-4.76121-.43826-8.46671-2.62651-8.25951-4.87756s4.24983-3.72523,9.01104-3.28697l188.856,17.38399c4.76121,.43826,8.46499,2.62549,8.25779,4.87655s-4.24811,3.72625-9.00932,3.28799Z" fill="#fff"/><g><path id="uuid-8cf563a5-feb8-4a87-a417-dd696e3ecec6-508" d="M271.26121,217.67726c4.7403-5.16455,11.24746-6.90498,14.53372-3.88768,3.28626,3.01729,2.10693,9.64876-2.63574,14.81452-1.8662,2.08949-4.20566,3.70169-6.82265,4.70168l-20.36117,21.62876-9.94608-9.77124,21.12846-20.28473c.77307-2.69371,2.18015-5.16306,4.10346-7.20131Z" fill="#ffb6b6"/><path d="M155.17907,222.49037s11.89811-10.88279,26.13604-1.38114c14.23793,9.50165,47.39396,33.80552,47.39396,33.80552l23.23243-28.81413,18.30734,16.59377s-32.29271,56.8801-53.15624,44.36158c-20.86352-12.51852-67.44004-48.255-65.32526-55.64906,2.11478-7.39406,3.41174-8.91653,3.41174-8.91653Z" fill="#f77f00"/></g><g><polygon points="243.27983 487.95421 224.32317 523.27784 208.71015 504.38323 226.67052 480.11375 243.27983 487.95421" fill="#ffb6b6"/><path d="M231.02098,518.39526l-8.02077,43.33853s-5.38366,15.03057-14.0372-.23649-24.32274-46.85369-15.31446-52.64242c9.00828-5.78873,19.88798-10.46584,19.88798-10.46584l17.48444,20.00623Z" fill="#2f2e41"/></g><polygon points="254.46685 526.42262 274.46685 562.42262 249.46685 565.42262 238.46685 536.42262 254.46685 526.42262" fill="#ffb6b6"/><path d="M148.46685,200.42262s-2,20-5,22c-3,2,35.01575,0,35.01575,0l-11.01575-22h-19Z" fill="#ffb6b6"/><path d="M189.45944,228.43834l-13.99259-11.01573h-34.2126l-22.7874,19,14.5,67.5-7,33,89,3-16-30s19-20,13-33c-6-13-22.50741-48.48427-22.50741-48.48427Z" fill="#f77f00"/><path d="M205.96685,331.92262l13,7s70,66,64,86c-6,20-46,77-46,77l-19-10,28-61-53.5-53.5,28.7189,50.62539,40.7811,106.87461-24,10-62-125s-51-35-54-57c-3-22,4-26,4-26l80-5Z" fill="#2f2e41"/><path d="M273.96685,553.92262l33,31s10,13-8,12c-18-1-54-5-54-16,0-11,2-23,2-23l27-4Z" fill="#2f2e41"/><circle cx="158.46685" cy="182.42262" r="23" fill="#ffb6b6"/><path d="M258.24284,274.19575l-18.95508,57.72683c-.50524,1.5387-1.81778,2.67341-3.41336,2.9509l-36.2499,6.30433c-3.25073,.56534-5.93697-2.5282-4.92131-5.66752l18.93005-58.51106c.51091-1.57919,1.87-2.73432,3.51089-2.98402l36.27493-5.5201c3.23003-.49153,5.84305,2.59649,4.82377,5.70064Z" fill="#fff"/><path d="M198.85543,342.24401c-1.54297,0-3.0083-.65918-4.04688-1.85547-1.24756-1.43652-1.64258-3.37598-1.05713-5.18555l18.93018-58.51172c.63184-1.95215,2.28418-3.35645,4.3125-3.66406l36.27441-5.52051c1.86084-.28418,3.70166,.40625,4.91943,1.84473,1.2168,1.43848,1.59277,3.36621,1.00488,5.15625l-18.95508,57.72656c-.62158,1.89355-2.22754,3.28223-4.19141,3.625l-36.25049,6.30371c-.31494,.05469-.62939,.08105-.94043,.08105Zm55.23193-72.7998c-.17139,0-.34473,.0127-.51807,.03906l-36.2749,5.52051c-1.2749,.19336-2.31299,1.07617-2.70947,2.30273l-18.8809,58.35942c-.34649,1.07097-.23327,2.27441,.43214,3.18229,.77783,1.06126,2.04338,1.56148,3.31693,1.34404l14.54647-2.52957c14.58923-2.537,26.59057-12.91214,31.2103-26.98126l12.04693-36.68819c.30345-.92415,.2657-1.95406-.21354-2.8005-.63042-1.11346-1.75482-1.74853-2.95589-1.74853Z" fill="#3f3d56"/><g><path id="uuid-43afbd22-a5bc-4202-86c3-15740b69aa20-509" d="M202.90739,319.16709c7.0054,.25938,12.55003,4.08423,12.38423,8.54249-.1658,4.45826-5.97866,7.86087-12.98653,7.60046-2.80078-.06563-5.54512-.80103-8.00342-2.1447l-29.66831-1.47385,.98839-13.90772,29.14276,2.92952c2.55187-1.15832,5.34407-1.68852,8.14288-1.5462Z" fill="#ffb6b6"/><path d="M123.96685,233.92262s16,2,18,19c2,17,5,58,5,58l37-1-.75984,24.69685s-64.24016,12.30315-68.24016-11.69685c-4-24-7-82.62992,0-85.81496,7-3.18504,9-3.18504,9-3.18504Z" fill="#f77f00"/></g><g><path d="M331.73661,73.41439l-8.22992-3.89856c3.37555,4.71082,6.28418,12.06805,7.84137,17.92249,2.63654-5.45343,6.88672-12.1261,11.09375-16.11194l-8.69812,2.23767c5.35974-26.26794,25.5191-45.12573,48.60437-45.12573l.32679-.9488c-24.11316,0-45.46577,18.59639-50.93824,45.92488Z" fill="#3f3d56"/><path d="M369.61582,113.43834h-52c-2.20557,0-4-1.79443-4-4s1.79443-4,4-4h52c2.20557,0,4,1.79443,4,4s-1.79443,4-4,4Z" fill="#f77f00"/></g><path d="M251.40687,283.12039l-34.09976,2.87341c-.85968,.07244-1.61813-.56812-1.69057-1.4278s.56815-1.61781,1.42783-1.69025l34.09976-2.87341c.85968-.07244,1.61778,.56782,1.69022,1.42751s-.5678,1.6181-1.42748,1.69055Z" fill="#3f3d56"/><path d="M248.40687,293.12039l-34.09976,2.87341c-.85968,.07244-1.61813-.56812-1.69057-1.4278s.56815-1.61781,1.42783-1.69025l34.09976-2.87341c.85968-.07244,1.61778,.56782,1.69022,1.42751s-.5678,1.6181-1.42748,1.69055Z" fill="#3f3d56"/><path d="M245.40687,303.12039l-34.09976,2.87341c-.85968,.07244-1.61813-.56812-1.69057-1.4278s.56815-1.61781,1.42783-1.69025l34.09976-2.87341c.85968-.07244,1.61778,.56782,1.69022,1.42751s-.5678,1.6181-1.42748,1.69055Z" fill="#3f3d56"/><path d="M152.31136,190.69244l16.09041-18.47502-2.68221-7.79274,8.6377,8.20814,4.45852-1.2111s-.03846-15.82124-12.67178-16.53595c-12.63332-.71471-21.69545,.61606-21.69545,.61606,0,0-18.0635,5.66061-18.76979,9.99885-.70629,4.33825-10.82576,10.10263-10.82576,10.10263,0,0-8.78027,6.53144-4.67575,17.47873,4.10452,10.94729,13.47048,24.61178,6.98717,31.27317-6.48331,6.66139-15.645,11.78866-11.18102,14.34552s12.516-9.43093,19.84909-4.63786,19.72427,24.04385,31.34747,14.10155c11.6232-9.9423,13.77247-21.45752,13.77247-21.45752l-18.54961-18.33181s-11.23819-19.16923-.09146-17.68266Z" fill="#2f2e41"/><g><path d="M408.02494,4.62193h-50.54648c-1.27432,0-2.3112-1.03689-2.3112-2.31121S356.20415,0,357.47847,0h50.54648c1.27432,0,2.31072,1.03641,2.31072,2.31073s-1.03641,2.3112-2.31072,2.3112Z" fill="#3f3d56"/><path d="M435.14872,29.2784h-104.79402c-1.27432,0-2.3112-1.03689-2.3112-2.31121s1.03689-2.31072,2.3112-2.31072h104.79402c1.27432,0,2.31072,1.03641,2.31072,2.31073,0,1.27432-1.03641,2.3112-2.31072,2.3112Z" fill="#3f3d56"/></g></svg>