<svg xmlns="http://www.w3.org/2000/svg" width="851.034" height="592.52834" viewBox="0 0 851.034 592.52834" xmlns:xlink="http://www.w3.org/1999/xlink"><path d="M225.26503,216s-19-7-28-7c-.85999,0-1.71002,.09998-2.56,.27997-5.76001,1.22003-11.06,6.17004-13.59998,8.87-.99005,1.06-1.56,1.77002-1.56,1.77002,0,0,.06-.69,.17999-1.90002,.58997-6.35999,2.76996-27.22998,6.67999-40.58997,1.39996-4.77002,3.01001-8.58002,4.85999-10.42999,4.31-4.32001,6.29999-9.5,7.21997-13.35999,.78003-3.31006,.78003-5.64001,.78003-5.64001l-7.28998-3.14001-1.35004-8.82001c-.23999,1.03998-1.34998,3.07001-5.07996,6.96002-.32001,.32996-.67004,.60999-1.04004,.84998-5.38,3.38-16.34998-2.5-22.26001-6.20001,2.46002-8.54999,6.92004-16.37,15.02002-17.64996,19-3,19-14,31-2,.98999,.98999,1.98999,1.94,2.98999,2.85999,3.84003,7.34003,5.23999,17.17999,5.73999,24.02002,.36005,4.78998,.27002,8.12,.27002,8.12,0,0,5,30,13,36s-5,27-5,27Z" fill="#2f2e41"/><polygon points="188.26503 168 174.75322 187.81924 205.26503 196 205.26503 168 188.26503 168" fill="#ffb6b6"/><polygon points="188.26503 168 174.75322 187.81924 205.26503 196 205.26503 168 188.26503 168" opacity=".1"/><g><path d="M696.21687,484.94291c1.45085-.57593,3.29845,2.66732,4.54445,2.09002,1.24153-.57518-.1608-3.99551,.97503-8.45776,.20481-.80472,1.49564-5.87573,3.61887-6.10831,4.02457-.44087,7.49967,16.88871,13.5138,16.74055,1.31988-.03248,2.90226-.91019,7.00609-1.14999,1.6326-.09538,2.5193-.02293,2.98056,.56111,.6545,.82871-.11938,1.96356-.89779,4.76889-1.1674,4.20714-.24693,4.60953-1.45893,7.74943-.89973,2.33089-1.87957,3.33331-1.38167,4.06053,.70454,1.0291,3.12155-.31362,4.17277,.78557,1.07268,1.1217-.00071,4.02948-1.12223,5.96112-2.1046,3.62488-4.98833,4.86226-7.42003,6.62718-2.64261,1.91804-5.98689,5.35591-8.43002,11.99216l-19.55323,59.69095c3.75333-12.44838,13.47611-47.00989,16.57267-60.25207,.89389-3.82275,1.68476-7.78965-.36439-11.17884-1.97283-3.26305-6.34031-5.59747-10.35107-10.59003-.46844-.58304-1.7516-2.22269-1.22719-3.31722,.43352-.9049,1.70762-.61291,2.12498-1.45167,.55984-1.12506-1.27812-2.56362-2.67888-5.44222-.98771-2.02985-1.25599-3.74383-1.48665-5.21778-.06955-.44438-1.06857-7.09499,.86282-7.86165l.00005,.00004Z" fill="#f2f2f2"/><path d="M742.58892,560.12892c.70131,.5459-.35744,2.38849,.28541,2.83346,.64053,.4434,1.91463-1.23175,4.43245-1.9618,.45404-.13165,3.3154-.96128,4.04217,.01375,1.3776,1.84806-6.12519,8.55381-4.3172,11.46286,.39676,.63842,1.28413,1.16183,2.58589,3.10682,.51787,.77377,.73816,1.22987,.5846,1.62478-.21789,.56033-.99818,.50799-2.59962,.93533-2.40171,.64092-2.33363,1.20882-4.2244,1.51992-1.40362,.23094-2.17834,.03927-2.39158,.49347-.30181,.64272,1.05459,1.44159,.81842,2.27467-.24104,.85013-1.97789,1.16227-3.24954,1.16917-2.38637,.01293-3.82572-1.04538-5.39359-1.72963-1.70386-.7436-4.35615-1.39306-8.31818-.67737l-34.93844,7.62589c7.19271-1.74959,26.96106-6.94968,34.35386-9.25069,2.13415-.66424,4.30931-1.42067,5.38151-3.40433,1.0323-1.90978,.91788-4.7269,2.21103-8.13593,.15101-.39815,.58553-1.50101,1.27402-1.55946,.56921-.04831,.79351,.66129,1.32562,.62411,.71373-.04987,.88947-1.36701,1.89816-2.88506,.71127-1.07044,1.4751-1.69665,2.13198-2.23516,.19803-.16234,3.17395-2.57157,4.10749-1.84487l-.00005,.00007Z" fill="#f2f2f2"/><path d="M726.12401,552.44192l3.3453-3.45567,.02786-.43631c.1282-2.01806,.67171-3.66582,1.61563-4.89936,.15003-.19614,.31011-.38455,.473-.57659,.64595-.76088,1.44913-1.70652,1.82077-3.24498,.20554-.85896,.53983-2.957-.81229-3.70962-.36133-.20614-.72359-.24681-1.04623-.21605,.00644-.06499,.01199-.1307,.01854-.20147,.06717-.86669-.04105-1.34391-.14535-1.80356-.07995-.35335-.163-.71782-.17679-1.44002-.00615-.31675,.00407-.58298,.0123-.80699,.02387-.67849,.01678-1.51508-.71179-2.06316-.79905-.55877-1.69505-.23304-2.28852-.01776-1.05886,.38366-1.69429,.75903-2.11557,1.00812-.15365,.09131-.32727,.19341-.39267,.21581-.53056,.17347-2.28611-1.72764-2.95094-2.43938-1.48874-1.60465-2.77696-2.99318-4.21846-2.38595-1.03188,.43367-1.4948,1.70332-1.4096,3.87746,.02692,.67691,.15193,1.27209,.28804,1.76798-.39357-.04733-.82509,.01306-1.22193,.32482h0c-.93831,.73921-.8597,2.26672,.22995,4.54296,.26945,.56675,.63447,1.32692,1.35871,2.11661,.34144,.37159,.68311,.66171,.97926,.905-.12902,.18029-.23464,.402-.27872,.67997-.13109,.81733,.3094,1.59491,1.34293,2.2881,1.12511,.7785,2.17497,1.2598,3.10008,1.68556,.8072,.37262,1.50111,.69564,1.94109,1.08499,.80673,.73383,.93798,1.93457,1.02628,3.42872l.18914,3.77074,.00002,.00002Z" fill="#f2f2f2"/><path d="M741.55294,528.40006l2.49413,4.11242,.41498,.13761c1.91956,.63588,3.37555,1.57956,4.32932,2.8055,.15168,.19489,.29331,.39751,.43776,.60379,.57216,.81781,1.28314,1.83461,2.67701,2.58431,.77874,.41672,2.72336,1.27221,3.79433,.15522,.29103-.29722,.42227-.63733,.47434-.95723,.06124,.02275,.12339,.04478,.19017,.06905,.82132,.28479,1.31039,.30118,1.78148,.31688,.36209,.01228,.73571,.02442,1.43777,.19424,.30796,.07441,.56288,.15182,.77747,.2166,.65024,.19522,1.46128,.40051,2.17623-.16522,.74317-.63118,.65536-1.58051,.59766-2.20919-.10255-1.12155-.30443-1.8314-.43853-2.3021-.04936-.17176-.10408-.36562-.10916-.43457-.03322-.5572,2.25099-1.77313,3.10809-2.2357,1.92978-1.03302,3.59966-1.9269,3.3779-3.47529-.15777-1.10812-1.26846-1.87797-3.39311-2.34703-.6616-.14566-1.26903-.17571-1.78322-.16982,.1456-.36869,.19668-.80144-.00427-1.26435h0c-.47705-1.09512-1.97452-1.40653-4.4527-.9299-.61656,.11687-1.44447,.27715-2.39202,.77739-.44603,.23602-.81331,.49293-1.12381,.7177-.14168-.17055-.32934-.32892-.58704-.44209-.75734-.33411-1.62125-.10528-2.55391,.71862-1.03843,.89084-1.77028,1.78429-2.41677,2.57116-.56519,.6863-1.05363,1.27558-1.54187,1.60239-.91447,.5942-2.1092,.4166-3.57691,.12302l-3.6954-.7735,.00007,.00009Z" fill="#f2f2f2"/><path d="M752.12565,518.77357l3.3453-3.45567,.02786-.43631c.1282-2.01806,.67171-3.66582,1.61563-4.89936,.15003-.19614,.31011-.38455,.473-.57659,.64595-.76088,1.44913-1.70652,1.82077-3.24498,.20554-.85896,.53983-2.957-.81229-3.70962-.36133-.20614-.72359-.24681-1.04623-.21605,.00644-.06499,.01199-.1307,.01854-.20147,.06717-.86669-.04105-1.34391-.14535-1.80356-.07995-.35335-.163-.71782-.17679-1.44002-.00615-.31675,.00407-.58298,.0123-.80699,.02387-.67849,.01678-1.51508-.71179-2.06316-.79905-.55877-1.69505-.23304-2.28852-.01776-1.05886,.38366-1.69429,.75903-2.11557,1.00812-.15365,.09131-.32727,.19341-.39267,.21581-.53056,.17347-2.28611-1.72764-2.95094-2.43938-1.48874-1.60465-2.77696-2.99318-4.21846-2.38595-1.03188,.43367-1.4948,1.70332-1.4096,3.87746,.02692,.67691,.15193,1.27209,.28804,1.76798-.39357-.04733-.82509,.01306-1.22193,.32482h0c-.93831,.73921-.8597,2.26672,.22995,4.54296,.26945,.56675,.63447,1.32692,1.35871,2.11661,.34144,.37159,.68311,.66171,.97926,.905-.12902,.18029-.23464,.402-.27872,.67997-.13109,.81733,.3094,1.59491,1.34293,2.2881,1.12511,.7785,2.17497,1.2598,3.10008,1.68556,.8072,.37262,1.50111,.69564,1.94109,1.08499,.80673,.73383,.93798,1.93457,1.02628,3.42872l.18914,3.77074,.00002,.00002Z" fill="#f2f2f2"/><path d="M691.54573,589.21465l1.17648,.11539,.89854-.76701-.89854,.76701,.84245,.81974c.08093-.07456,.28352-.23306,.5977-.48322,1.72002-1.37194,6.95659-5.5453,14.26932-12.83929,5.1046-5.09178,10.01316-10.58865,14.59203-16.34015,4.58591-5.76062,7.71689-10.38496,10.23398-14.10111,1.8981-2.80324,3.66181-5.50616,5.37844-8.14048,4.58823-7.0361,8.92304-13.68175,14.64688-20.32488,1.27703-1.48368,3.93669-4.57069,8.46454-6.54446,2.62624-1.14448,5.49225-1.74801,8.51747-1.79117l-.03402-2.36495c-3.34107,.05002-6.51365,.7201-9.42974,1.99067-5.02021,2.18838-7.91829,5.55203-9.31075,7.16818-5.82474,6.76059-10.20064,13.47076-14.83274,20.57502-1.71136,2.62378-3.46663,5.31572-5.35718,8.1073-2.49354,3.68189-5.59762,8.2657-10.1248,13.95215-4.52343,5.68349-9.3724,11.11266-14.41195,16.14097-7.22094,7.2016-12.38002,11.31233-14.0748,12.66293-.90439,.7217-1.09392,.87275-1.14334,1.3974l.00002-.00002Z" fill="#f2f2f2"/><path d="M771.40024,515.20621c.07672,.05925,.15576,.11738,.23854,.17255,1.65913,1.14426,3.87048,1.32989,6.57277,.55323,1.26913-.3671,2.32856-1.08568,4.44139-2.51877,.32625-.22045,1.96076-1.35514,3.84485-3.19817,1.23156-1.20388,1.64369-1.78663,1.76121-2.49197,.13202-.78454-.04932-1.54278-.38827-2.22154,.16199-.16069,.28531-.35997,.35296-.60809,.28361-1.02613-.64294-1.57838-1.13951-1.88315-.25455-.14993-.57369-.33516-.87335-.59284-.47303-.40321-.62412-.75321-.85485-1.28133-.22045-.50561-.49455-1.13428-1.08911-1.82382-1.1676-1.36537-2.63859-1.87153-3.12325-2.0388-2.54351-.8883-4.75545-.0858-7.31632,.84379-.51229,.18758-2.32927,.90724-4.25863,2.32747-1.39197,1.02458-1.79043,1.65-2.01291,2.1722-.45967,1.07097-.31124,2.00208,.19697,4.19672,.5285,2.29485,.79477,3.44531,1.13793,4.28478,.80108,1.95131,1.30407,3.17666,2.50963,4.1077l-.00004,.00005Z" fill="#f2f2f2"/></g><g><g><polygon points="696.3981 580.66447 678.77989 580.66275 670.3988 512.70599 696.40164 512.70782 696.3981 580.66447" fill="#a0616a"/><path d="M636.03587,580.26481h0c-.54857,.92389-.83802,3.90581-.83802,4.98022h0c0,3.30246,2.67713,5.97969,5.97969,5.97969h54.56157c2.25292,0,4.07937-1.82635,4.07937-4.07937v-2.27157s2.69911-6.82726-2.85788-15.24223c0,0-6.90659,6.58905-17.22681-3.73117l-3.04334-5.51324-22.02961,16.11134-12.21068,1.50302c-2.67145,.3288-5.03993-.05103-6.41409,2.26332h-.00021Z" fill="#2f2e41"/></g><g><polygon points="648.28875 580.66447 630.67053 580.66275 622.28944 512.70599 648.29229 512.70782 648.28875 580.66447" fill="#a0616a"/><path d="M587.92652,580.26481h0c-.54857,.92389-.83802,3.90581-.83802,4.98022h0c0,3.30246,2.67713,5.97969,5.97969,5.97969h54.56157c2.25292,0,4.07937-1.82635,4.07937-4.07937v-2.27157s2.69911-6.82726-2.85788-15.24223c0,0-6.90659,6.58905-17.22681-3.73117l-3.04334-5.51324-22.02961,16.11134-12.21068,1.50302c-2.67145,.3288-5.03993-.05103-6.41409,2.26332h-.00021Z" fill="#2f2e41"/></g><path d="M649.64102,93.59092s-9.17609,5.38138-6.16666,10.70321c3.00942,5.32184,7.20482,12.5708,4.35862,14.85379-2.84621,2.28299-7.54528,12.34873-7.54528,12.34873,0,0-20.05723-2.80138-18.17425,12.77885,1.88299,15.58022,11.30552,17.70434,3.22931,24.55848-8.07621,6.85415,8.39367,15.05162,8.39367,15.05162,0,0,11.37011-3.54322,13.96413-14.43907,2.59402-10.89586-2.31241,8.33126-.6669,9.70988,1.64552,1.37862,8.03494,10.46574,12.55609-1.61609,4.52115-12.08183,.04414-16.7662,6.01816-23.89677,5.97402-7.13057,10.03563-18.6639,9.8577-20.67999-.17793-2.01609,6.83356-20.4131-3.95862-27.58781-10.79218-7.17471-21.86597-11.78482-21.86597-11.78482Z" fill="#2f2e41"/><polygon points="653.85579 136.37404 647.36103 159.45895 683.00741 159.45895 671.26936 131.01483 653.85579 136.37404" fill="#a0616a"/><polygon points="653.85579 136.37404 647.36103 159.45895 683.00741 159.45895 671.26936 131.01483 653.85579 136.37404" opacity=".1"/><path d="M699.52224,297.49962s15.22681,19.37957,11.76617,58.13871c-3.46064,38.75914-15.22681,207.7123-15.22681,207.7123h-20.37416l-16.3086-157.87912-9.98135,157.87912-31.15979-1.44328,7.13296-277.05626,74.15158,12.64852Z" fill="#2f2e41"/><g><path id="uuid-15dc6cf4-99a2-4708-8e21-b6a3347dd403-506" d="M538.66124,164.04591c-4.59096-6.24939-5.08778-13.68384-1.11015-16.6049,3.97763-2.92106,10.92238-.22254,15.51414,6.02969,1.86847,2.47235,3.1177,5.35621,3.64315,8.41032l19.11767,26.72457-12.73228,8.70405-17.49487-27.26979c-2.75807-1.41525-5.13701-3.47058-6.93766-5.99395Z" fill="#a0616a"/><path d="M655.64452,189.83964l-54.1983,39.42375s-12.0263,8.09186-25.9353-9.5174c-13.90899-17.60926-27.92082-44.8255-27.92082-44.8255l12.53644-9.33104,15.27953,19.91249s10.08861,6.47187,10.30752,9.46037-2.1281,3.76134,1.4581,3.49863,4.03911-2.28313,3.66705,.84093c-.37206,3.12406-3.14164,6.33148,1.46482,3.59041s5.3793-.39405,5.3793-.39405l36.06365-32.68716s21.41438-11.18319,24.25828,3.03026c2.8439,14.21346-2.36026,16.99831-2.36026,16.99831Z" fill="#f77f00"/></g><polygon points="648.65087 156.65166 680.39609 156.65166 709.55809 202.33208 697.44586 265.66175 705.40533 306.15121 624.37066 284.8511 630.74614 282.32684 634.11619 256.31803 619.58151 211.93467 632.03981 175.33911 648.65087 156.65166" fill="#f77f00"/><path d="M683.79177,119.92355c0,11.85589-9.6111,21.46699-21.46699,21.46699-11.85589,0-21.46699-9.6111-21.46699-21.46699,0-11.85589,9.6111-21.46699,21.46699-21.46699,11.85589,0,21.46699,9.6111,21.46699,21.46699Z" fill="#a0616a"/><path d="M654.09576,95.95208s-3.57783,10.01793,2.1467,12.16463c5.72453,2.1467,13.59576,5.00897,12.8802,8.5868s2.1467,14.31133,2.1467,14.31133c0,0-17.1736,10.7335-5.72453,21.46699,11.44906,10.7335,20.03586,6.31051,18.24695,16.75102-1.78892,10.44051,16.10025,6.14711,16.10025,6.14711,0,0,6.4401-10.01793,1.43113-20.03586-5.00897-10.01793,3.57783,7.87123,5.72453,7.87123s12.8802,2.86227,8.5868-9.30236-10.7335-12.8802-10.7335-22.18256c0-9.30236-4.2934-20.75143-5.72453-22.18256-1.43113-1.43113-7.87123-20.03586-20.75143-18.60473s-24.32926,5.00897-24.32926,5.00897Z" fill="#2f2e41"/><g><path id="uuid-800338dd-1caa-42bd-b73f-d0ae9c40b57c-507" d="M681.8459,331.84982c-2.01384,7.80473-7.67325,13.09201-12.64001,11.80958-4.96677-1.28243-7.35932-8.64811-5.34373-16.45534,.76237-3.12972,2.26316-6.03135,4.37683-8.46213l8.95032-32.96118,15.37819,4.52982-10.45611,32.01296c.67357,3.15108,.58254,6.41766-.26549,9.5263Z" fill="#a0616a"/><path d="M677.76773,190.40318s8.71038-23.5386,18.25686-22.00607c9.54647,1.53253,18.25,16.32853,18.25,16.32853l-6.90115,83.73378-18.95588,47.78356-20.10721-7.9272,10.44424-47.75417-.98686-70.15842Z" fill="#f77f00"/></g></g><g><polygon points="148.92738 579.83007 167.23797 579.82829 175.94843 509.2009 148.9237 509.2028 148.92738 579.83007" fill="#ffb6b6"/><path d="M211.66178,579.4147h0c.57013,.9602,.87096,4.0593,.87096,5.17594h0c0,3.43224-2.78234,6.21469-6.21469,6.21469h-56.70578c-2.34146,0-4.23969-1.89812-4.23969-4.23969v-2.36084s-2.80518-7.09556,2.97019-15.84123c0,0,7.17801,6.84799,17.9038-3.8778l3.16294-5.72991,22.89534,16.7445,12.69054,1.56208c2.77643,.34172,5.238-.05304,6.66616,2.35226h.00022Z" fill="#2f2e41"/></g><g><polygon points="111.53158 540.75983 124.37416 553.81149 180.83037 510.48948 161.87644 491.22593 111.53158 540.75983" fill="#ffb6b6"/><path d="M155.82364,585.18945h0c-.28466,1.07982-2.28291,3.46768-3.07892,4.25078h0c-2.44671,2.40705-6.38148,2.37497-8.7886-.07182l-39.76806-40.42335c-1.64207-1.66913-1.62022-4.35347,.04899-5.99563l1.68295-1.65567s3.09086-6.97586,13.37561-8.9922c0,0,.15231,9.91946,15.32037,10.0434l6.30282-1.76368,4.12012,28.0642,7.78639,10.14209c1.70353,2.21886,3.71124,3.69677,2.99817,6.4017l.00016,.00016Z" fill="#2f2e41"/></g><g><path d="M225.20236,346.00085l-44.40896-109.48496,24.83414-3.7134,33.06864,100.47487,5.64053,14.79132c2.76841,2.60965,4.87171,5.84436,6.13365,9.43353,3.28199,8.93997,1.33139,17.87656-4.35595,19.96458-5.68733,2.08808-12.95712-3.4641-16.23661-12.40136-1.36029-3.55435-1.84921-7.3829-1.4261-11.1651l-3.05924-7.97524-.19011,.07576Z" fill="#ffb6b6"/><path d="M211.10416,205.18898l22.64158,91.87795s-24.52172-8.46673-35.45629,6.31282c0,0-24.91535-93.56019-19.86863-100.38152,5.04673-6.82133,30.04782-8.67281,32.52556,1.13555" fill="#e6e6e6"/></g><path d="M222.6594,286.83582l16,154-68,89-17-13,41.5-77.5-46.5-104.5s7-47,10-53c3-6,64,5,64,5Z" fill="#2f2e41"/><polygon points="157.6594 325.83582 148.6594 334.83582 142.1594 541.33582 177.1594 545.33582 185.4094 378.89487 157.6594 325.83582" fill="#2f2e41"/><path d="M178.1594,180.33582l26,9,22,46v57.76378s0,6.23622-8,3.23622c-8-3-39-15-39-15,0,0-19,12-24,9-5-3-5-4.90551-5-8.95276,0-4.04724-5.5-40.54724-5.5-40.54724l18-46,15.5-14.5Z" fill="#e6e6e6"/><path d="M169.77878,344.84851l-27.72961-114.84851h25.11023l17.84644,104.26044,3.39111,15.46283c2.35205,2.99036,3.95386,6.50055,4.67114,10.23688,1.92383,9.32703-1.3269,17.87689-7.2605,19.10089-5.93359,1.22406-12.30237-5.34216-14.22412-14.66614-.8197-3.71643-.73706-7.5752,.24072-11.25323l-1.84619-8.33997-.19922,.04681Z" fill="#ffb6b6"/><path d="M174.6594,203.83582l5.60563,76.16418s-17-2-30,11c0,0-13.60563-88.16418-7.60563-94.16418,6-6,31-4.13386,32,5.93307" fill="#e6e6e6"/><path d="M512.61171,233.5h-230.69336c-7.25293,0-13.15332-5.90039-13.15332-13.15332v-34.69336c0-7.25293,5.90039-13.15332,13.15332-13.15332h243.84668v47.84668c0,7.25293-5.90039,13.15332-13.15332,13.15332Z" fill="#e6e6e6"/><path d="M572.66396,159.54248c-.25391,0-.50781-.09619-.70264-.28857-.39307-.38818-.39697-1.02148-.00879-1.41406,2.62842-2.66016,4.06348-6.18457,4.04102-9.92383-.02246-3.73975-1.5-7.24658-4.15967-9.87451-2.63965-2.60791-6.13037-4.0415-9.83789-4.0415-.02881,0-.05762,0-.08643,.00049-3.73975,.02246-7.24658,1.49951-9.87451,4.15967-.38867,.39355-1.021,.39648-1.41406,.00879-.39307-.38818-.39697-1.02148-.00879-1.41406,3.00391-3.04053,7.01172-4.729,11.28516-4.75439,.0332-.00049,.06641-.00049,.09912-.00049,4.23682,0,8.22607,1.63818,11.24268,4.61865,3.04004,3.00391,4.72852,7.01172,4.75439,11.28516,.02588,4.27393-1.61426,8.30176-4.61816,11.3418-.1958,.19775-.45361,.29688-.71143,.29688Z" fill="#3f3d56"/><path d="M452.76503,208.5h-111c-2.75684,0-5-2.24316-5-5s2.24316-5,5-5h111c2.75684,0,5,2.24316,5,5s-2.24316,5-5,5Z" fill="#fff"/><path d="M562.76503,150.66504c-2.75684,0-5-2.24316-5-5s2.24316-5,5-5,5,2.24316,5,5-2.24316,5-5,5Zm0-8c-1.6543,0-3,1.3457-3,3s1.3457,3,3,3,3-1.3457,3-3-1.3457-3-3-3Z" fill="#3f3d56"/><rect x="242.26503" y="356" width="95" height="100" rx="7.25197" ry="7.25197" fill="#fff"/><path d="M330.01308,457h-80.49609c-4.55029,0-8.25195-3.70215-8.25195-8.25195v-85.49609c0-4.5498,3.70166-8.25195,8.25195-8.25195h80.49609c4.55029,0,8.25195,3.70215,8.25195,8.25195v85.49609c0,4.5498-3.70166,8.25195-8.25195,8.25195Zm-80.49609-100c-3.44727,0-6.25195,2.80469-6.25195,6.25195v85.49609c0,3.44727,2.80469,6.25195,6.25195,6.25195h80.49609c3.44727,0,6.25195-2.80469,6.25195-6.25195v-85.49609c0-3.44727-2.80469-6.25195-6.25195-6.25195h-80.49609Z" fill="#e6e6e6"/><rect x="255.26503" y="368" width="37" height="15.75926" fill="#e6e6e6"/><path d="M319.66493,414.5h-29.7998c-2.26074,0-4.1001-1.83984-4.1001-4.10059v-8.55859c0-2.26074,1.83936-4.09961,4.1001-4.09961h29.7998c2.26074,0,4.1001,1.83887,4.1001,4.09961v8.55859c0,2.26074-1.83936,4.10059-4.1001,4.10059Z" fill="#e6e6e6"/><path d="M294.66493,441h-29.7998c-2.53662,0-4.6001-2.06348-4.6001-4.60059v-8.55859c0-2.53613,2.06348-4.59961,4.6001-4.59961h29.7998c2.53662,0,4.6001,2.06348,4.6001,4.59961v8.55859c0,2.53711-2.06348,4.60059-4.6001,4.60059Zm-29.7998-15.75879c-1.43359,0-2.6001,1.16602-2.6001,2.59961v8.55859c0,1.43359,1.1665,2.60059,2.6001,2.60059h29.7998c1.43359,0,2.6001-1.16699,2.6001-2.60059v-8.55859c0-1.43359-1.1665-2.59961-2.6001-2.59961h-29.7998Z" fill="#e6e6e6"/><path d="M280.26503,378.5h-15c-1.37842,0-2.5-1.12109-2.5-2.5s1.12158-2.5,2.5-2.5h15c1.37842,0,2.5,1.12109,2.5,2.5s-1.12158,2.5-2.5,2.5Z" fill="#fff"/><path d="M313.26503,408.5h-15c-1.37842,0-2.5-1.12109-2.5-2.5s1.12158-2.5,2.5-2.5h15c1.37842,0,2.5,1.12109,2.5,2.5s-1.12158,2.5-2.5,2.5Z" fill="#fff"/><path d="M286.26503,434.5h-15c-1.37842,0-2.5-1.12109-2.5-2.5s1.12158-2.5,2.5-2.5h15c1.37842,0,2.5,1.12109,2.5,2.5s-1.12158,2.5-2.5,2.5Z" fill="#e6e6e6"/><g><path d="M343.77649,405.62655c16.29394-1.71478,31.74679-8.95134,43.69416-20.13131,12.78478-11.96359,20.78489-28.426,22.69736-45.80414,1.11621-10.14267,.22796-20.43201-2.75239-30.19757-.56374-1.84719-3.40417-.88044-2.83996,.96826,5.07464,16.62778,3.78949,35.01047-3.3798,50.83679-6.61784,14.60899-18.26293,26.44941-32.47694,33.79317-7.81881,4.03964-16.39759,6.62019-25.1482,7.54111-1.91333,.20136-1.72198,3.19657,.20576,2.99369h0Z" fill="#3f3d56"/><path d="M391.60911,319.28554l10.6335-22.81708-2.33784,.43992,17.7678,18.40992c1.34402,1.39259,3.33313-.85533,1.99946-2.2372l-17.7678-18.40992c-.66466-.68868-1.95009-.39209-2.33784,.43992l-10.6335,22.81708c-.81512,1.74905,1.85974,3.10932,2.67621,1.35736h0Z" fill="#3f3d56"/></g><g><circle cx="322.26503" cy="394" r="12" fill="#f77f00"/><path d="M326.4941,387.9284c-.4939-.13571-.87521,.16968-1.05437,.59863-1.1061,2.6483-2.21219,5.29663-3.31825,7.94489-1.15618-1.68394-2.31233-3.36785-3.46851-5.05176-.62057-.90384-2.10686-.04743-1.48026,.86523,1.46317,2.131,2.92634,4.262,4.38947,6.39303,.44751,.65175,1.28111,.47886,1.56665-.20476,1.32132-3.16364,2.64261-6.32725,3.96394-9.4909,.1785-.42739-.19256-.9428-.59867-1.05437Z" fill="#fff"/></g><rect id="uuid-fd87b38b-9a3a-463a-bd94-d3d374d132bf" y="590.84534" width="851.034" height="1.683" fill="#e6e6e6"/><g><path d="M304.37405,244h-36.21804c-5.45384,0-9.89098-4.43714-9.89098-9.89098v-36.21804c0-5.45384,4.43714-9.89098,9.89098-9.89098h36.21804c5.45384,0,9.89098,4.43714,9.89098,9.89098v36.21804c0,5.45384-4.43714,9.89098-9.89098,9.89098Zm-36.21804-53.45455c-4.0506,0-7.34553,3.29492-7.34553,7.34553v36.21804c0,4.0506,3.29492,7.34553,7.34553,7.34553h36.21804c4.0506,0,7.34553-3.29492,7.34553-7.34553v-36.21804c0-4.0506-3.29492-7.34553-7.34553-7.34553h-36.21804Z" fill="#3f3d56"/><path d="M304.34671,233.18182h-21.98997c-7.3188,0-13.27353-5.95472-13.27353-13.27353v-21.98997l35.26349,35.26349Z" fill="#f77f00"/></g><g><path d="M513.49355,44h-28.45703c-4.28516,0-7.77148-3.48633-7.77148-7.77148V7.77148c0-4.28516,3.48633-7.77148,7.77148-7.77148h28.45703c4.28516,0,7.77148,3.48633,7.77148,7.77148v28.45703c0,4.28516-3.48633,7.77148-7.77148,7.77148ZM485.03651,2c-3.18262,0-5.77148,2.58887-5.77148,5.77148v28.45703c0,3.18262,2.58887,5.77148,5.77148,5.77148h28.45703c3.18262,0,5.77148-2.58887,5.77148-5.77148V7.77148c0-3.18262-2.58887-5.77148-5.77148-5.77148h-28.45703Z" fill="#e6e6e6"/><path d="M513.47206,35.5h-17.27783c-5.75049,0-10.4292-4.67871-10.4292-10.4292V7.79297l27.70703,27.70703Z" fill="#f77f00"/></g><path d="M578.49355,106h-28.45703c-4.28516,0-7.77148-3.48633-7.77148-7.77148v-28.45703c0-4.28516,3.48633-7.77148,7.77148-7.77148h28.45703c4.28516,0,7.77148,3.48633,7.77148,7.77148v28.45703c0,4.28516-3.48633,7.77148-7.77148,7.77148Zm-28.45703-42c-3.18262,0-5.77148,2.58887-5.77148,5.77148v28.45703c0,3.18262,2.58887,5.77148,5.77148,5.77148h28.45703c3.18262,0,5.77148-2.58887,5.77148-5.77148v-28.45703c0-3.18262-2.58887-5.77148-5.77148-5.77148h-28.45703Z" fill="#e6e6e6"/><polygon points="551.26503 71 551.26503 97 577.26503 97 551.26503 71" fill="#f77f00"/><g><path d="M482.26503,206.28564v-35.57129c0-5.35645,4.35791-9.71436,9.71436-9.71436h35.57129c5.35645,0,9.71436,4.35791,9.71436,9.71436v35.57129c0,5.35645-4.35791,9.71436-9.71436,9.71436h-35.57129c-5.35645,0-9.71436-4.35791-9.71436-9.71436Zm9.71436-42.78564c-3.97827,0-7.21436,3.23608-7.21436,7.21436v35.57129c0,3.97827,3.23608,7.21436,7.21436,7.21436h35.57129c3.97827,0,7.21436-3.23608,7.21436-7.21436v-35.57129c0-3.97827-3.23608-7.21436-7.21436-7.21436h-35.57129Z" fill="#3f3d56"/><polygon points="493.51503 172.25 526.01503 172.25001 526.01502 204.75001 493.51503 172.25" fill="#f77f00"/></g><circle cx="194.72867" cy="151.26347" r="25.585" fill="#ffb6b6"/><path d="M229.26503,142c-5,5-9,10-9,10l-2-8s-.46002,.33997-1.27002,.88c-3.16998,2.15997-11.67999,7.58997-18.51001,8.76001-3.03998,.51996-5.73999,.18994-7.5-1.64001-3.72998-3.89001-4.83997-5.92004-5.07996-6.96002l-1.35004,8.82001-7.28998,3.14001s0,10.97998,8,19c.39001,.39001,.77002,.87,1.14001,1.42999,3.82001,5.76001,6.56,19.85999,8.29999,31.84998,1.53998,10.66003,2.27997,19.64001,2.27997,19.64001,0,0-7.56995-9.47998-15.87994-10.77002-.46002-.07001-.92004-.12-1.38-.13-.15002-.01996-.31-.01996-.46002-.01996-9,0-28,7-28,7,0,0-13-21-5-27s13-36,13-36c0,0-.33002-12.84003,2.97998-24.35004,2.46002-8.54999,6.92004-16.37,15.02002-17.64996,19-3,19-14,31-2,.98999,.98999,1.98999,1.94,2.98999,2.85999,11.17999,10.28003,22.60004,16.54999,18.01001,21.14001Z" fill="#2f2e41"/><g><path d="M562.93197,54.35963c1.49742-5.36633,1.14372-11.15791-.89557-16.33478-2.18222-5.53972-6.38576-10.1298-11.64085-12.90976-3.0671-1.62251-6.43149-2.62964-9.89215-2.90973-.65459-.05298-.70448,.96609-.04935,1.01912,5.89245,.47691,11.54367,3.18428,15.65009,7.43206,3.79057,3.92104,6.07651,9.08501,6.61917,14.49833,.29851,2.97775,.04056,6.01313-.76362,8.8951-.17584,.63015,.79512,.94457,.97228,.30968h0Z" fill="#e6e6e6"/><path d="M541.6208,28.42864l-5.88307-6.21812-.15355,.79422,8.04477-3.31323c.60853-.25062,.14679-1.16091-.45706-.91221l-8.04477,3.31323c-.30094,.12394-.36807,.56748-.15355,.79422l5.88307,6.21812c.45097,.47665,1.21587-.19879,.76415-.67624h0Z" fill="#e6e6e6"/></g><g><path d="M496.78218,56.39473c-1.49742,5.36633-1.14372,11.15791,.89557,16.33478,2.18222,5.53972,6.38576,10.1298,11.64085,12.90976,3.0671,1.62251,6.43149,2.62964,9.89215,2.90973,.65459,.05298,.70448-.96609,.04935-1.01912-5.89245-.47691-11.54367-3.18428-15.65009-7.43206-3.79057-3.92104-6.07651-9.08501-6.61917-14.49833-.29851-2.97775-.04056-6.01313,.76362-8.8951,.17584-.63015-.79512-.94457-.97228-.30968h0Z" fill="#e6e6e6"/><path d="M518.09335,82.32572l5.88307,6.21812,.15355-.79422-8.04477,3.31323c-.60853,.25062-.14679,1.16091,.45706,.91221l8.04477-3.31323c.30094-.12394,.36807-.56748,.15355-.79422l-5.88307-6.21812c-.45097-.47665-1.21587,.19879-.76415,.67624h0Z" fill="#e6e6e6"/></g></svg>