<svg xmlns="http://www.w3.org/2000/svg" width="985.55995" height="656.26996" viewBox="0 0 985.55995 656.26996" xmlns:xlink="http://www.w3.org/1999/xlink"><path d="M741.2778,25.35499c-7.44604,4.18419-19.46297-12.36583-22.18635-4.27051-2.72337,8.09532,3.87254,40.75952,7.27552,48.59347,1.69147,3.89391,4.08247,7.45526,5.74212,11.36284,1.65965,3.90758,2.54966,8.40046,1.08265,12.38436-2.553,6.93309-10.97863,9.7534-15.15625,15.84709-4.86561,7.09723-2.90045,16.65645-.62584,24.95531,1.96056,7.15308,4.04979,14.37088,7.82376,20.75582,3.77397,6.38494,9.46373,11.94446,16.57341,14.05697,9.05217,2.68968,18.72691-.50679,27.45347-4.11554,8.3899-3.46953,16.68998-7.40273,23.82581-13.01593,7.13583-5.6132,13.08989-13.06381,15.58432-21.79342,3.12894-10.95019,.51489-22.93375-4.90264-32.95109-5.41753-10.01735-13.43153-18.36275-21.65454-26.24178-13.84924-13.2699-28.58751-25.61182-44.08322-36.91558l3.24778-8.65201Z" fill="#2f2e41"/><polygon points="852.01221 587.21997 844.98243 652.82996 844.66236 655.82996 765.13233 655.51996 764.71241 652.51001 756.29248 592.39001 852.01221 587.21997" fill="#ffb6b6"/><path d="M730.41236,652.38c0,.98999-.01001,1.98999-.02002,3l-82.56006-.32001-.26978-3.01001-5.09009-57.07001,85.36987-10.34998s2.75,30.26996,2.57007,67.75Z" fill="#ffb6b6"/><path d="M721.22347,141.57927c13.11415,16.52002,36.23545,21.30726,54.89556,11.47403,26.63583-14.03615,63.00199-30.12293,69.42912-17.26866,10.34806,20.69611,10.34806,40.78112,10.34806,40.78112l10.34806,241.20339s5.17403,97.38987-59.50132,88.79365c-64.67535-8.59622-165.56889,27.62197-165.56889,27.62197l10.30583-106.85523,27.51902-40.28768,11.14772-115.58421-19.22191-92.98729,23.28312-10.34806s2.58701-18.1091,10.34806-18.1091c7.76104,0,9.6351-17.39614,16.45911-8.69807,.06824,.08698,.13774,.17503,.20846,.26412Z" fill="#f77f00"/><polygon points="861.53223 655.89996 844.66236 655.82996 765.13233 655.51996 754.78223 655.47998 754.18238 652.46997 738.18238 571.70001 735.68238 652.39996 735.59229 655.39996 730.39234 655.38 647.83228 655.06 641.91236 655.02997 641.89234 652.02997 641.54248 594.98999 641.22242 542.16998 641.17237 534.17999 641.18238 534.16998 665.90235 484.06 673.11231 469.44 674.59229 466.44 689.03223 437.16998 819.69239 419.07996 821.69239 418.79999 857.19239 413.89001 857.4524 428.44 857.6023 436.70001 858.13233 466.44 858.19239 469.44 858.25244 472.87 861.47242 652.89001 861.53223 655.89996" fill="#2f2e41"/><circle cx="759.87698" cy="79.87919" r="54.02757" fill="#ffb6b6"/><path d="M820.78178,164.49367c-12.61021,17.98822-19.05902,40.21362-18.03538,62.15776-14.29744-6.92587-23.94706-21.55871-27.23136-37.10213-3.2843-15.54342-.77872-31.86395,4.4989-46.84831,.05278-.14984,.10582-.29958,.15913-.4492,8.01328-22.49129,.56748-47.62868-18.78697-61.60995-13.05508-9.43073-24.37758-21.26216-33.06779-34.82419-4.906-7.65636-9.07592-17.2608-5.41091-25.58284,3.37716-7.66843,12.10155-11.25255,20.13018-13.65072,18.33289-5.47606,37.81176-8.59201,56.62865-5.12692,18.81688,3.46509,36.93118,14.28619,45.82431,31.22709,8.89313,16.9409,6.56345,40.06098-7.8712,52.61975,4.55266,1.47196,7.77379,6.29751,7.38711,11.06656-.38668,4.76905-4.34315,9.01263-9.07348,9.73191,3.08621-.10941,4.90798,3.9553,3.80741,6.84068-1.10057,2.88538-3.93884,4.67769-6.64641,6.16286-3.85672,2.11551-8.13193,4.32765-8.14841,9.86758-.00661,2.22131,.7854,4.37713,2.07958,6.1825,3.13624,4.37503,8.1998,6.34532,13.07407,8.19509-10.30942,3.03637-18.5303,12.25086-20.37579,22.83849l1.05836-1.69602Z" fill="#2f2e41"/><g><path id="uuid-949a288c-1385-4c96-9df8-4f861626eeb5-614" d="M590.39882,143.59281c-1.47438-15.46846,5.31182-28.76766,15.1562-29.70435,9.84438-.93669,19.01715,10.84279,20.48999,26.31696,.67312,6.17323-.1419,12.41789-2.37693,18.21153l5.41933,65.61939-30.84746,1.88677-2.06747-64.88941c-3.28983-5.26912-5.26964-11.24963-5.77366-17.4409Z" fill="#ffb6b6"/><path d="M758.46139,174.72192s-50.39668-29.6451-60.77246-25.19834c-10.37579,4.44677-60.77246,80.04178-60.77246,80.04178l-4.63329-13.79548-35.3876,3.41969s-20.75157,96.34659,25.19834,87.45306c45.94991-8.89353,121.54493-91.89982,121.54493-91.89982l14.82255-40.02089Z" fill="#f77f00"/></g><path d="M290.89514,334.00689s28.45524-16.68231,36.11824-1.21368c7.663,15.46863,78.45734,200.00361,78.45734,200.00361l-45.6196,8.88261-68.95597-207.67255Z" fill="#f77f00"/><path d="M228.83203,223.77003l1.34122,1.90969c-5.00067,2.88671-5.73791,10.17005-3.393,15.4549,2.34491,5.28496,6.88369,9.20203,10.80965,13.44774,3.92591,4.2456,7.5054,9.50389,7.14125,15.2773-.4086,6.49282-5.70234,11.8399-6.43958,18.30616-1.06587,9.41509,7.70083,17.67556,7.26562,27.14388-.32864,7.23011-5.88889,13.03909-11.40474,17.72879-4.31673,3.67734-9.01538,7.37225-11.92876,12.11541-.79936,1.30565-1.46553,2.70011-1.95404,4.19236-2.17614,6.73265-.12436,14.06934,2.63798,20.57994,2.75345,6.51071,6.26192,12.87027,7.12352,19.88732,.85265,7.01683-1.79422,15.11738-8.25158,17.99519,12.86143-1.10138,25.41195-5.58682,36.06168-12.87916,.95924-.65727,1.89191-1.33233,2.81564-2.02505,15.0997-11.36923,25.70503-27.79237,35.91064-43.79807,.84382-1.31455,1.67874-2.63798,2.52256-3.95253,2.26494-3.56176,4.53878-7.11463,6.81262-10.6764,6.48398-10.17894,13.04792-20.50903,16.58301-32.03808,3.25091-10.63194,3.8016-21.86792,5.13393-32.90851,.64838-5.40911,1.50109-10.80065,1.66096-16.24543,.25756-8.37594-1.17245-16.78734-4.08583-24.64804-2.85114-7.72756-7.13236-14.93089-12.64821-21.05972-5.64905-6.27965-12.55936-11.3869-20.16256-15.06414-7.36331-3.56176-15.37505-5.77342-23.53777-6.38623-2.73567-.20427-5.46251-.23984-8.18934-.11547-10.7563,.44411-21.3883,3.162-31.72712,6.50171-7.6032,3.67723-14.5135,8.78449-20.16256,15.06414-5.51585,6.12883-9.79707,13.33216-12.64821,21.05972,9.91249-5.29385,21.69026-7.11463,32.71302-4.86742Z" fill="#2f2e41"/><path d="M305.9183,320.93986l-51-20-1.29134,20-44.70866,7-21,95,19,59,142,4-5-20s23-26,9-68l-1.55478-10.68911c-4.06508-27.94742-20.84743-52.43522-45.44518-66.31087l-.00004-.00002Z" fill="#f77f00"/><circle cx="277.53303" cy="254.74218" r="45.29911" fill="#a0616a"/><path d="M192.03318,253.28549c.15987,5.44478,1.01258,10.83632,1.66096,16.24543,1.33233,11.0406,1.88302,22.27657,5.13393,32.90851,3.53509,11.52905,10.09903,21.85914,16.58301,32.03808,2.27384,3.56176,4.54767,7.11463,6.81262,10.6764,.84382,1.31455,1.67874,2.63798,2.52256,3.95253,10.20561,16.0057,20.81094,32.42884,35.91064,43.79807,.92373,.69273,1.8564,1.36778,2.81564,2.02505,10.64972,7.29234,23.20025,11.77778,36.06168,12.87916-6.45736-2.87782-9.10423-10.97836-8.25158-17.99519,.8616-7.01705,4.37007-13.37661,7.12352-19.88732,2.76234-6.5106,4.81413-13.84729,2.63798-20.57994-.48851-1.49225-1.15467-2.88671-1.95404-4.19236-2.91338-4.74316-7.61203-8.43807-11.92876-12.11541-5.51585-4.68971-11.0761-10.49869-11.40474-17.72879-.43522-9.46832-6.48398-6.29743-7.54985-15.71252-.73724-6.46625-9.3618-17.48907-9.7704-23.98188-.36415-5.77342,3.17984-19.73628,7.10574-23.98188,3.92596-4.24571,.31975-16.92048,2.66465-22.20545,2.34491-5.28485,27.93446-.86155,22.93379-3.74825l1.34122-1.90969c11.02276-2.24722,22.80054-.42644,32.71302,4.86742,2.15842,1.14573,4.21903,2.45149,6.17312,3.92596,4.71643-8.61578-.87933-19.54968-8.49136-25.75832-7.45216-6.09327-16.6363-9.61058-25.74943-12.71045-1.57216-.53291-3.15316-1.06582-4.74311-1.58105-10.33881-3.33971-20.97081-6.0576-31.72712-6.50171-2.72684-.12436-5.45367-.0888-8.18934,.11547-8.16272,.61282-16.17447,2.82447-23.53777,6.38623-7.6032,3.67723-14.5135,8.78449-20.16256,15.06414-5.51585,6.12883-9.79707,13.33216-12.64821,21.05972-2.91338,7.86071-4.3434,16.2721-4.08583,24.64804Z" fill="#2f2e41"/><path d="M982.76221,615.40997l-63.13989-132.66998c-4.70996-9.90002-14.84009-16.29999-25.80981-16.29999H96.29248c-3.03027,0-5.97998,.46997-8.76025,1.37-7.02979,2.25-13.00977,7.16998-16.5498,13.92999L3.30225,610.76001c-4.67993,8.90997-4.36987,19.38995,.83008,28.00995,5.18994,8.63,14.30005,13.81,24.37012,13.85004l613.40991,2.40997,5.91992,.03003,82.56006,.32001,5.19995,.01996,19.18994,.08002,10.3501,.03998,79.53003,.31,16.86987,.07001,95.31006,.37h.12012c9.83984,0,18.8501-4.95996,24.12988-13.26996,5.30005-8.35004,5.91992-18.67004,1.66992-27.59003Z" fill="#fff"/><path d="M982.76221,615.40997l-63.13989-132.66998c-4.70996-9.90002-14.84009-16.29999-25.80981-16.29999H96.29248c-3.03027,0-5.97998,.46997-8.76025,1.37-7.02979,2.25-13.00977,7.16998-16.5498,13.92999L3.30225,610.76001c-4.67993,8.90997-4.36987,19.38995,.83008,28.00995,5.18994,8.63,14.30005,13.81,24.37012,13.85004l613.40991,2.40997,5.91992,.03003,82.56006,.32001,5.19995,.01996,19.18994,.08002,10.3501,.03998,79.53003,.31,16.86987,.07001,95.31006,.37h.12012c9.83984,0,18.8501-4.95996,24.12988-13.26996,5.30005-8.35004,5.91992-18.67004,1.66992-27.59003Zm-4.19971,25.98004c-4.73022,7.44995-12.79004,11.87994-21.6001,11.87994h-.11011l-95.37988-.37994-16.48999-.06006-80.27002-.31995-10.53003-.04004-18.5-.07001-5.27002-.01996-82.84985-.33002-5.67017-.02002-613.38013-2.40997c-9.00977-.04004-17.16992-4.66998-21.80981-12.39001-4.65015-7.71997-4.92993-17.09998-.73999-25.08002l67.67993-129.00995c2.43994-4.65002,6.15991-8.33002,10.61011-10.70001,3.62988-1.94,7.75-3,12.04004-3H893.8125c9.81982,0,18.87988,5.72998,23.09985,14.58997l63.13989,132.66003c3.81006,8,3.25,17.22998-1.48975,24.70001Z" fill="#3f3d56"/><polygon points="283.4183 562.43986 434.4183 507.43986 358.9183 477.07372 208.4183 516.43986 283.4183 562.43986" fill="#f2f2f2"/><polygon points="513.4183 479.43986 496.4183 533.43986 695.4183 545.43986 678.4183 484.43986 513.4183 479.43986" fill="#f2f2f2"/><path id="uuid-bc099db1-a2ce-4512-8b55-449b58adbd20-615" d="M278.84556,488.67686c13.99155,1.38748,24.61695,9.73141,23.73249,18.63557-.88446,8.90417-12.94259,14.99522-26.93894,13.60537-5.59858-.4785-11.00117-2.29078-15.75574-5.28527l-59.20851-6.62746,3.7023-27.71853,57.97604,9.47633c5.25199-2.0025,10.90724-2.71781,16.49237-2.08602Z" fill="#a0616a"/><path d="M219.4183,333.43986l-10.5-5.5s-16.5,.5-27.5,11.5c-11,11-100,137-100,137,0,0-22,34,33,39s116,5,116,5l5-41-83-9,58.12205-77,8.87795-60Z" fill="#f77f00"/><g><g><g><path d="M531.44833,320.11979c-10.09009,2.98999-20.75,4.67993-31.76001,4.84009-.65002,.02002-1.30005,.03003-1.94995,.03003-9.96008,0-19.63013-1.22998-28.88013-3.55005l.23999-2.37012,5.38013-51.88989,.33997-3.32007-4.98999-14.96997h61.21997l-.97998,14.63013-.35999,5.32983,.53003,1.69019,13.5,43.02002,.59998,1.91992c-4.18005,1.79004-8.4801,3.33984-12.89001,4.63989Z" fill="#f77f00"/><path d="M468.85824,321.43986c-14.52991-3.62988-28.01001-9.94995-39.87988-18.37988-4.89001-2.65015-9.64001-5.52002-14.19006-8.56006l2.25-1.13013,56.53003-28.27002,.91003,2.08008,24.33997,55.80005,.87,1.97998c-.65002,.02002-1.30005,.03003-1.94995,.03003-9.96008,0-19.63013-1.22998-28.88013-3.55005Z" fill="#2f2e41"/><path d="M592.01834,278.51994c-.25,.33984-.51001,.66992-.77002,1-4.22003,5.35986-8.90009,10.33984-13.96002,14.88989l-.03992-2.66992-.14014-9.83008s4.04004-2.94995,9.03009-3.71997c1.19-.18994,2.44-.25,3.70001-.10986,.72998,.06982,1.44995,.20996,2.17999,.43994Z" fill="#2f2e41"/><path d="M577.2883,294.40983c-9.68005,8.72998-20.79993,15.88989-32.94995,21.07007-4.18005,1.79004-8.4801,3.33984-12.89001,4.63989l-.05005-2.07007-1.15991-47.50977-.17004-7.02002,56.07001,14.66992,2.97998,.78003,2.13,.55005c-4.22003,5.35986-8.90009,10.33984-13.96002,14.88989Z" fill="#2f2e41"/><circle cx="501.01501" cy="187.75753" r="44.91004" fill="#a0616a"/></g><path d="M531.40235,318.04999c-10.33984,3.12-21.27002,4.83002-32.58008,4.92999l.87012,1.97998c11.01001-.15997,21.66992-1.84998,31.76001-4.83997l-.05005-2.07001Zm-114.35986-24.67999c-23.05005-21.29999-37.68018-51.58002-38.27002-85.21997-23.53003,27.23999-.15015,62.19995,36.02002,86.34998,4.5498,3.03998,9.2998,5.90997,14.18994,8.56-4.18994-2.97003-8.18018-6.21002-11.93994-9.69Zm173.81982-161.39001c-21.81982-27.39996-55.44995-44.98999-93.11987-44.98999-65.61011,0-119,53.38-119,119,0,.72003,.01001,1.44,.03003,2.16003,.61987-.73004,1.27979-1.45001,1.96997-2.16003,33-34,52.48999-117,117-117,37.70996,0,71.30981,17.92999,92.71997,45.72003,15.21997,19.73999,24.28003,44.46997,24.28003,71.27997,0,3.89001-.19019,7.73999-.57007,11.52997-.23999,2.52002-.57007,5.02002-.97998,7.49005-2.97998,18.14996-10.1499,34.91998-20.47998,49.25-.93018,1.29999-1.89014,2.56995-2.87012,3.81995-.23999,.30005-.46997,.60004-.71997,.89001-3.63989,4.54999-7.61011,8.82001-11.86987,12.77002-9.77002,9.08002-21.09009,16.5-33.51001,21.82001-4,1.72998-8.12012,3.22998-12.34009,4.48999-10.33984,3.12-21.27002,4.83002-32.58008,4.92999-.35986,.01001-.71997,.01001-1.07983,.01001-9.06006,0-18.77002-1.39001-28.64014-3.91998-13.47998-3.45001-27.27002-9.01001-40.11987-16.01001,11.86987,8.42999,25.34985,14.75,39.87988,18.38,9.25,2.32001,18.91992,3.54999,28.88013,3.54999,.6499,0,1.30005-.01001,1.94995-.03003,11.01001-.15997,21.66992-1.84998,31.76001-4.83997,4.40991-1.29999,8.70996-2.85004,12.88989-4.64001,12.15015-5.17999,23.27002-12.33997,32.9502-21.07001,5.05981-4.54999,9.73975-9.52997,13.95996-14.89001,.25977-.32996,.52002-.65997,.77002-1,.33984-.44,.67993-.88995,1.00977-1.33997,11.31006-15.07001,19.11011-32.91003,22.21021-52.29999,.3999-2.48999,.71997-5.01001,.95996-7.56,.36011-3.73004,.54004-7.51001,.54004-11.33002,0-27.95001-9.67993-53.67999-25.88013-74.01001Z" fill="#e6e6e6"/></g><path d="M460.79223,211.64884c-8.08154-7.62354-13.71655-17.729-8.07767-39.27087,.4198-1.60376-.70526-3.3254-1.7918-4.57746-1.08654-1.25205-3.136-1.83394-4.42547-.79208,.91833-2.7044,13.50267-12.36417,14.421-15.06857-1.07258,1.42283-9.25516,4.47329-9.91099,2.81656s-.08084-3.51829,.49538-5.20437l3.43485-10.05081c.86397-2.52809,4.27206,.49239,5.98077-1.56139,3.06114-3.67932-.43218-7.55778,4.24156-8.58933,15.29628-3.37608,31.51236-6.39233,46.37234-1.43702,6.49104,2.16455,12.39402,5.76055,18.23366,9.32671l10.68545,6.5254c6.12983,3.74336,12.78774,8.18417,14.46698,15.16756l-11.22005-4.00984c2.49926,5.32151,5.02061,10.70897,6.16369,16.47596,1.14308,5.76699-1.94858,27.48149-4.94364,32.54058-2.63123,4.44452-4.49408-7.49203-5.35936-2.40003,.99082-10.00255-3.51172-20.3783-11.49399-26.487-1.63715-1.25288-3.50394-2.45787-4.23206-4.38655-.81205-2.15099,.00219-4.73762-1.10663-6.75174-1.37866-2.50426-4.97876-2.74294-7.66313-1.76002-2.68437,.98292-5.03102,2.83028-7.81196,3.49238-7.37249,1.7553-14.0791-5.21537-21.63951-5.73958-7.20222-.49937-13.6448,5.13857-16.63963,11.70761-2.99482,6.56905-11.27918,5.14707-12.05372,12.32492-.77454,7.17784,10.53536,21.3829,6,27l-2.12607,.70898Z" fill="#2f2e41"/><path d="M455.12232,278.60999l-3.34985-2.60999-.78003-.60004c-.75-.58997-1.73999-.78998-2.67017-.56l-3.91992,.98004c-.40991,.09998-.8501-.02002-1.1499-.32001l-4.40015-4.40002c-.30005-.29999-.41992-.73999-.32007-1.14996l.97998-3.92004c.24023-.92999,.03027-1.90997-.55981-2.66998l-3.20996-4.13c-.08008-.09998-.17017-.20001-.26001-.28998-1.22021-1.22003-3.18994-1.22003-4.41016,0l-1.84985,1.84998c-1.33008,1.32001-1.90991,3.31-1.26001,5.15002,1.65991,4.71997,4.35986,9.01001,7.90991,12.53998,1.26001,1.26001,2.61011,2.41998,4.04004,3.46002,2.59985,1.88,5.45996,3.38,8.5,4.45001,1.84985,.64996,3.83008,.06995,5.15015-1.25l1.84985-1.86005c1.33008-1.32001,1.18994-3.51001-.29004-4.66998Zm-1.05981,3.33002l-1.8501,1.84998c-.87012,.85999-2.09009,1.17999-3.16992,.79999-2.55005-.88995-4.96021-2.10999-7.19019-3.63-1.65991-1.10999-3.20996-2.39996-4.62988-3.82996-3.34009-3.33002-5.89014-7.37-7.46021-11.82001-.37988-1.08002-.05981-2.29999,.80029-3.16998l1.85986-1.85004c.03003-.03998,.07007-.07001,.10986-.09998,.53027-.41003,1.29004-.32001,1.7002,.20996l3.20996,4.13c.22998,.29004,.31006,.67999,.21997,1.04004l-.97998,3.91998c-.27002,1.06,.05005,2.19,.82007,2.96002l4.3999,4.39996c.77002,.78003,1.8999,1.09003,2.95996,.82001l3.91992-.97998c.36011-.09003,.75-.01001,1.04004,.21997l.05005,.04004,4.08008,3.16998c.04004,.02997,.07983,.07001,.11011,.09998,.47998,.48004,.47998,1.23999,0,1.72003Z" fill="#ccc"/><g><path d="M494.1598,269.5719c.49417,0,.89477,.4006,.89477,.89477v1.78955c0,3.95335,3.20483,7.15818,7.15818,7.15818s7.15818-3.20483,7.15818-7.15818v-1.78955c0-.49417,.4006-.89477,.89477-.89477s.89477,.4006,.89477,.89477v1.78955c.00006,4.59524-3.48075,8.44346-8.05295,8.90299v3.62383h5.36864c.49417,0,.89477,.4006,.89477,.89477s-.4006,.89477-.89477,.89477h-12.52682c-.49417,0-.89477-.4006-.89477-.89477s.4006-.89477,.89477-.89477h5.36864v-3.62383c-4.57221-.45952-8.05301-4.30775-8.05295-8.90299v-1.78955c0-.49417,.4006-.89477,.89477-.89477Z" fill="#ccc"/><path d="M502.21241,257.94c-2.95996,0-5.37012,2.39996-5.37012,5.37v8.95001c0,2.95996,2.41016,5.35999,5.37012,5.35999,2.96997,0,5.36987-2.40002,5.36987-5.35999v-8.95001c0-2.97003-2.3999-5.37-5.36987-5.37Zm3.58008,14.32001c0,1.96997-1.6001,3.57996-3.58008,3.57996s-3.58008-1.60999-3.58008-3.57996v-8.95001c0-1.98004,1.6001-3.58002,3.58008-3.58002s3.58008,1.59998,3.58008,3.58002v8.95001Z" fill="#ccc"/></g><g><path d="M564.14234,258.28998c-2.81006-.95001-5.86011,.54999-6.81006,3.35999l1.51001,1.51001c.1001-1.89996,1.68018-3.39001,3.59009-3.38,1.96997,.01001,3.57007,1.62,3.56006,3.59003v6.94l1.78979,1.78998v-8.72998c0-2.29004-1.46973-4.34003-3.63989-5.08002Zm4.54004,26.56h-5.36987v-3.63c1.56982-.14996,3.06982-.71997,4.34985-1.64996l-1.29004-1.29004c-1.12988,.76001-2.48999,1.20001-3.95996,1.20001-3.94995,0-7.15991-3.21002-7.15991-7.15997v-1.79004c0-.15997-.04004-.32001-.13013-.45001-.1499-.25995-.42993-.43994-.76001-.43994-.15991,0-.31006,.03998-.43994,.12-.27002,.14996-.45996,.44-.45996,.76996v1.79004c0,4.58997,3.48999,8.44,8.06006,8.89996v3.63h-5.37012c-.5,0-.8999,.40002-.8999,.89001,0,.5,.3999,.90002,.8999,.90002h12.53003c.48999,0,.88989-.40002,.88989-.90002,0-.48999-.3999-.89001-.88989-.89001Zm1.79004-15.20996c-.5,0-.90015,.39996-.90015,.88995v1.79004c0,.47998-.0498,.95996-.13989,1.42999l.09009,.08997,1.35986,1.37c.1001-.31,.18994-.62,.26001-.94,.15015-.62994,.21997-1.27997,.21997-1.94995v-1.79004c0-.48999-.3999-.88995-.88989-.88995Z" fill="#ccc"/><path d="M566.1023,272.95001l-13.78979-13.79004-1.27002,1.27002,11.61987,11.62,9.86011,9.84998,1.25977-1.26996-7.67993-7.67999Zm-2.36987,2.69995c-1.83008,.73004-3.91016-.16998-4.64014-2.00995-.16992-.42004-.26001-.87006-.26001-1.32001v-1.57001l-1.78979-1.79004v3.36005c0,2.95996,2.40991,5.37,5.36987,5.37,.92993,0,1.84985-.23999,2.65991-.70001l-1.33984-1.34003Z" fill="#ccc"/></g></g><path id="uuid-cb65f836-e7d9-440e-b153-5c66ba7afb8d-616" d="M804.94665,468.41864c-11.87098,8.81514-26.04175,9.83542-31.65052,2.27974-5.60877-7.55569-.53151-20.82408,11.34488-29.64077,4.69582-3.58698,10.18237-5.99725,16.00064-7.02912l50.76949-36.71489,16.7214,24.19187-51.825,33.62597c-2.67147,5.27284-6.56712,9.82905-11.36088,13.2872Z" fill="#ffb6b6"/><path d="M836.93156,169.41582s40.95426,1.29351,48.7153,29.75066c7.76104,28.45715,23.28312,89.11228,20.69611,173.32993,0,0,12.93507,54.32729-20.69611,51.74028l-46.56625,20.69611-31.04417-41.39222,25.87014-31.04417,3.02497-203.08059Z" fill="#f77f00"/></svg>