<?xml version="1.0" encoding="UTF-8" standalone="no"?> <!-- Created with Inkscape (http://www.inkscape.org/) --> <svg xmlns:inkscape="http://www.inkscape.org/namespaces/inkscape" xmlns:sodipodi="http://sodipodi.sourceforge.net/DTD/sodipodi-0.dtd" xmlns="http://www.w3.org/2000/svg" xmlns:svg="http://www.w3.org/2000/svg" width="120.46738mm" height="20.000002mm" viewBox="0 0 120.46738 20.000002" version="1.1" id="svg2492" inkscape:version="1.1 (c68e22c387, 2021-05-23)" sodipodi:docname="halopsa-red-grey.svg"><defs id="defs2489"></defs><g inkscape:label="Layer 1" inkscape:groupmode="layer" id="layer1" transform="translate(-46.011526,-162.12675)"><path style="fill:#6e6e6e;fill-opacity:1;stroke-width:0.168648" d="" id="path4634" transform="scale(0.26458333)"></path><g id="g6899" transform="translate(-6.8152515,-12.873253)"><path style="fill:#f8384b;fill-opacity:1;stroke-width:0.154632" d="m 70.534645,194.61113 c 0.137302,-0.21365 0.24964,-0.51802 0.24964,-0.67637 0,-0.15835 0.10118,-0.42431 0.224844,-0.591 0.123664,-0.1667 0.227034,-0.44711 0.229713,-0.62318 0.0027,-0.17603 0.06529,-0.38682 0.139132,-0.46839 0.07384,-0.0816 0.277363,-0.56991 0.452263,-1.08514 0.174901,-0.51526 0.464216,-1.32327 0.642922,-1.79558 0.178707,-0.47231 0.380274,-1.03921 0.447925,-1.25977 0.06765,-0.22056 0.194344,-0.53673 0.281537,-0.70261 0.149284,-0.28401 1.115719,-2.86859 1.455578,-3.89273 0.0855,-0.25762 0.246336,-0.6792 0.357426,-0.93682 0.111092,-0.25763 0.380621,-0.96024 0.598951,-1.56135 0.21833,-0.60114 0.495742,-1.35643 0.616469,-1.67848 0.120729,-0.32201 0.331127,-0.88412 0.467554,-1.24907 0.136425,-0.36499 0.306945,-0.80411 0.378932,-0.97587 0.07198,-0.17174 0.276004,-0.71782 0.453372,-1.21352 L 77.853388,175 l 2.776855,0.0426 2.776856,0.0426 0.184388,0.39033 c 0.101413,0.2147 0.302858,0.70652 0.447655,1.09296 0.144799,0.38644 0.35728,0.924 0.472183,1.19461 0.114902,0.27062 0.208913,0.57017 0.208913,0.6657 0,0.0955 0.06523,0.2957 0.144946,0.44481 0.21743,0.40669 1.743783,4.51296 1.958004,5.26749 0.04877,0.17174 0.181314,0.45084 0.294561,0.62024 0.11325,0.1694 0.2081,0.45043 0.210779,0.62454 0.0027,0.17412 0.10605,0.45296 0.229714,0.61966 0.123664,0.16669 0.224843,0.40199 0.224843,0.52287 0,0.1209 0.09422,0.4412 0.209376,0.71181 0.58751,1.38058 1.016596,2.54757 1.016202,2.76378 -3.4e-4,0.13311 0.05777,0.30878 0.128909,0.39035 0.07115,0.0817 0.291869,0.60502 0.490503,1.1632 0.198635,0.5582 0.450117,1.19054 0.558848,1.40523 0.108733,0.21469 0.198119,0.47014 0.198638,0.56766 4.73e-4,0.0976 0.103891,0.37858 0.229713,0.62455 0.431741,0.84401 0.451078,0.83756 -2.511652,0.83756 h -2.742308 l -0.258357,-0.89779 c -0.142096,-0.49376 -0.349411,-1.14369 -0.460697,-1.44425 -0.111286,-0.30056 -0.240956,-0.67072 -0.288155,-0.82255 -0.07938,-0.25538 -0.358285,-0.27292 -3.719478,-0.2342 l -3.633664,0.0419 -0.550364,1.63944 -0.550363,1.63943 -2.807616,0.0426 L 70.285006,195 Z m 12.270049,-7.2304 c -0.06083,-0.15029 -0.160549,-0.48452 -0.221587,-0.74279 -0.06104,-0.25825 -0.184006,-0.60955 -0.273257,-0.78068 -0.181471,-0.34794 -1.258058,-3.55084 -1.37726,-4.09743 -0.143093,-0.65612 -0.440582,-0.35467 -0.847469,0.85875 -0.223166,0.66554 -0.487862,1.45597 -0.588213,1.75652 -0.100351,0.30058 -0.240763,0.68702 -0.312026,0.85875 -0.133697,0.32222 -0.743479,2.25979 -0.743479,2.36239 0,0.0317 1.006626,0.0577 2.236948,0.0577 2.070467,0 2.228717,-0.0203 2.126343,-0.27323 z" id="path2843"></path><path style="fill:#f8384b;fill-opacity:1;stroke-width:0.154688" d="M 91.254143,185.00001 V 175 h 2.603419 2.603421 v 7.8125 7.81251 h 3.062845 3.062852 V 192.8125 195 h -5.666271 -5.666266 z" id="path2882"></path><path style="fill:#f8384b;fill-opacity:1;stroke-width:0.154688" d="M 52.826778,184.99999 V 175 h 2.526848 2.526848 v 3.90624 3.90626 h 3.598847 3.598844 V 178.90624 175 h 2.60342 2.603421 V 184.99999 195 h -2.603421 -2.60342 v -4.14062 -4.14064 H 61.479321 57.880474 V 190.85938 195 h -2.526848 -2.526848 z" id="path3151"></path><g id="Logo_1_" transform="matrix(0.26458333,0,0,0.25445293,80.637071,167.11196)"><path class="st0" d="m 120.66841,32.556947 c -20.885334,0 -37.828041,16.942697 -37.828041,37.828037 0,20.885339 16.942707,37.828046 37.828041,37.828046 20.88534,0 37.82805,-16.942707 37.82805,-37.828046 0,-20.88534 -16.94271,-37.828037 -37.82805,-37.828037 z m 0,57.434681 c -2.5041,0 -4.90165,-0.479509 -7.13938,-1.331973 l -6.97954,3.356573 0.10656,-7.832003 c -3.56969,-3.569687 -5.8074,-8.524627 -5.8074,-14.012356 0,-10.92218 8.8443,-19.766483 19.76648,-19.766483 10.92218,0 19.76648,8.844303 19.76648,19.766483 0.0532,10.922179 -8.79102,19.819759 -19.7132,19.819759 z" id="path4771" style="fill:#f8384b;fill-opacity:1;stroke-width:0.532789"></path><g id="g4779"><path class="st0" d="M 180.7,108 H 161.4 V 33.6 h 30.8 c 8.3,0 14.7,2.2 19.2,6.5 4.4,4.3 6.7,10.5 6.7,18.3 0,7.9 -2.2,14 -6.7,18.3 -4.4,4.3 -10.8,6.5 -19.2,6.5 H 180.8 V 108 Z m 0,-40.2 h 6.4 c 7.1,0 10.7,-3.1 10.7,-9.3 0,-6.2 -3.6,-9.3 -10.7,-9.3 h -6.4 z" id="path4773" style="fill:#6e6e6e;fill-opacity:1"></path><path class="st0" d="m 263.6,52.2 c -2.1,-1.7 -4.2,-3 -6.3,-3.8 -2.1,-0.8 -4.1,-1.2 -6.1,-1.2 -2.5,0 -4.5,0.6 -6.1,1.8 -1.6,1.2 -2.4,2.7 -2.4,4.6 0,1.3 0.4,2.4 1.2,3.3 0.8,0.9 1.8,1.6 3.1,2.2 1.3,0.6 2.7,1.2 4.3,1.6 1.6,0.5 3.2,1 4.8,1.5 6.3,2.1 10.9,4.9 13.9,8.4 2.9,3.5 4.4,8.1 4.4,13.8 0,3.8 -0.6,7.3 -1.9,10.4 -1.3,3.1 -3.2,5.7 -5.6,7.9 -2.5,2.2 -5.5,3.9 -9.1,5.1 -3.6,1.2 -7.6,1.8 -12.2,1.8 -9.4,0 -18.1,-2.8 -26.1,-8.4 l 8.3,-15.6 c 2.9,2.6 5.8,4.5 8.6,5.7 2.8,1.3 5.6,1.9 8.4,1.9 3.2,0 5.5,-0.7 7.1,-2.2 1.5,-1.4 2.3,-3.1 2.3,-4.9 0,-1.1 -0.2,-2.1 -0.6,-2.9 -0.4,-0.8 -1.1,-1.6 -2,-2.3 -0.9,-0.7 -2.1,-1.3 -3.6,-1.9 -1.5,-0.6 -3.3,-1.2 -5.4,-2 -2.5,-0.8 -5,-1.7 -7.3,-2.6 -2.4,-1 -4.5,-2.2 -6.4,-3.8 -1.9,-1.6 -3.4,-3.6 -4.5,-6 -1.2,-2.4 -1.7,-5.4 -1.7,-9.1 0,-3.7 0.6,-7 1.8,-10 1.2,-3 2.9,-5.6 5.1,-7.7 2.2,-2.1 4.9,-3.8 8.1,-5 3.2,-1.2 6.8,-1.8 10.7,-1.8 3.7,0 7.5,0.5 11.5,1.5 4,1 7.9,2.5 11.5,4.5 z" id="path4775" style="fill:#6e6e6e;fill-opacity:1"></path><path class="st0" d="m 325.1,95.1 h -27.6 l -4.4,12.9 h -20.6 l 28.3,-74.4 h 21.1 L 350.2,108 H 329.6 Z M 320,80.4 311.3,55.6 302.6,80.4 Z" id="path4777" style="fill:#6e6e6e;fill-opacity:1"></path></g></g></g><path style="fill:#999999;fill-opacity:1;stroke-width:0.954016" d="" id="path5470" transform="scale(0.26458333)"></path></g><style type="text/css" id="style4769"> .st0{fill:#FFFFFF;} </style></svg> 