<svg xmlns="http://www.w3.org/2000/svg" viewBox="0 0 390 140"><defs><style>.e{fill:#fff;}.f{fill:#101a30;}.g{fill:#3ba1c4;}</style></defs><g id="a"/><g id="b"><g id="c"><g><rect class="e" width="390" height="140"/><g id="d"><g><path class="g" d="M306.9 61.35c-1.4 1.23-2.26 2.92-2.57 5.06h15.51c-.31-2.1-1.17-3.77-2.58-5.03-1.4-1.25-3.12-1.88-5.15-1.88s-3.8.62-5.21 1.85m19.28 19.71c-2.96 3.57-7.28 5.35-12.97 5.35-3.54.0-6.69-.74-9.41-2.19-2.74-1.46-4.85-3.48-6.32-6.08-1.49-2.58-2.23-5.53-2.23-8.82s.74-6.18 2.2-8.79 3.46-4.65 6.02-6.11c2.55-1.46 5.41-2.19 8.57-2.19s5.87.69 8.37 2.1c2.5 1.4 4.45 3.4 5.89 6.01 1.42 2.62 2.13 5.65 2.13 9.11.0.13-.07.99-.17 2.58h-23.82c.42 2.07 1.44 3.69 3.04 4.89 1.59 1.19 3.58 1.78 5.96 1.78 1.65.0 3.09-.25 4.36-.76.3-.13.61-.26.9-.43l7.48 3.57z"/><path class="f" d="M90.16 56.37c2.4 2.47 3.6 6.13 3.6 10.98v19.01h-9.13V68.84c0-2.63-.55-4.6-1.64-5.89-1.09-1.3-2.67-1.94-4.74-1.94-2.3.0-4.14.75-5.5 2.25-1.37 1.5-2.05 3.73-2.05 6.7v16.41h-9.13V55.95l8.72-4.17v5.28c1.21-1.4 2.71-2.48 4.5-3.24 1.79-.76 3.77-1.14 5.91-1.14 3.9.0 7.05 1.24 9.45 3.7"/><polygon class="f" points="100.55 55.94 100.55 86.36 109.67 86.36 109.67 51.78 100.55 55.94"/><polygon class="f" points="109.67 41.19 109.67 48.99 100.55 53.16 100.55 45.35 109.67 41.19"/><polygon class="f" points="155.34 45.36 155.34 53.17 164.47 48.98 164.47 41.18 155.34 45.36"/><path class="f" d="M145.28 56.37c2.4 2.47 3.6 6.13 3.6 10.98v19.01h-9.13V68.84c0-2.63-.55-4.6-1.64-5.89-1.09-1.3-2.67-1.94-4.74-1.94-2.3.0-4.14.75-5.5 2.25-1.37 1.5-2.05 3.73-2.05 6.7v16.41h-9.13V55.95l8.72-4.17v5.28c1.21-1.4 2.71-2.48 4.5-3.24 1.79-.76 3.77-1.14 5.91-1.14 3.9.0 7.05 1.24 9.45 3.7"/><path class="f" d="M164.47 51.86V86.3c0 3.87-1.05 6.92-3.13 9.17-2.09 2.24-5 3.36-8.75 3.36-3.2.0-5.63-.62-7.31-1.85l2.45-6.97c1.05.78 2.34 1.17 3.86 1.17 1.17.0 2.08-.4 2.75-1.2.66-.8 1-2.01 1-3.61V56.05l9.13-4.18z"/><path class="f" d="M203.38 55.93v30.42h-8.72v-3.83c-2.26 2.88-5.54 4.32-9.83 4.32-2.97.0-5.65-.7-8.05-2.1-2.4-1.4-4.28-3.39-5.65-5.99-1.37-2.59-2.05-5.59-2.05-9.01s.68-6.42 2.05-9.01 3.25-4.59 5.65-5.99c2.4-1.4 5.08-2.1 8.05-2.1 4.02.0 7.16 1.34 9.42 4.01v-4.91l9.13 4.17zm-11.24 20.52c1.52-1.67 2.28-3.9 2.28-6.7s-.76-5.03-2.28-6.7-3.43-2.5-5.74-2.5-4.27.83-5.79 2.5c-1.52 1.67-2.28 3.9-2.28 6.7s.76 5.03 2.28 6.7 3.45 2.5 5.79 2.5 4.21-.83 5.74-2.5"/><path class="g" d="M219.33 84.2c-3.41-1.93-6.09-4.6-8.02-7.99s-2.9-7.21-2.9-11.44.97-8.05 2.9-11.45c1.93-3.39 4.6-6.06 8.02-7.99 3.41-1.93 7.25-2.9 11.5-2.9s8.07.97 11.47 2.9c3.39 1.93 6.07 4.6 8.02 7.99 1.95 3.39 2.93 7.21 2.93 11.45s-.98 8.05-2.93 11.44c-1.95 3.39-4.62 6.06-8.02 7.99-3.39 1.93-7.22 2.9-11.47 2.9s-8.09-.97-11.5-2.9m18.05-7.37c1.95-1.17 3.48-2.81 4.59-4.9 1.11-2.1 1.67-4.48 1.67-7.16s-.56-5.06-1.67-7.16c-1.11-2.1-2.64-3.73-4.59-4.91-1.95-1.17-4.14-1.76-6.55-1.76s-4.6.59-6.56 1.76c-1.95 1.17-3.48 2.81-4.59 4.91-1.11 2.1-1.67 4.48-1.67 7.16s.56 5.06 1.67 7.16c1.11 2.1 2.64 3.73 4.59 4.9 1.95 1.17 4.13 1.76 6.56 1.76s4.6-.59 6.55-1.76"/><path class="g" d="M286.86 56.37c2.4 2.47 3.6 6.13 3.6 10.98v19.01h-9.13V68.84c0-2.63-.55-4.6-1.64-5.89-1.09-1.3-2.67-1.94-4.74-1.94-2.3.0-4.14.75-5.5 2.25-1.37 1.5-2.05 3.73-2.05 6.7v16.41h-9.13V55.95l8.72-4.17v5.28c1.21-1.4 2.71-2.48 4.5-3.24 1.79-.76 3.77-1.14 5.91-1.14 3.9.0 7.05 1.24 9.45 3.7"/></g></g></g></g></g></svg>