<?xml version="1.0" standalone="no"?>
<!DOCTYPE svg PUBLIC "-//W3C//DTD SVG 20010904//EN"
 "http://www.w3.org/TR/2001/REC-SVG-20010904/DTD/svg10.dtd">
<svg version="1.0" xmlns="http://www.w3.org/2000/svg"
 width="1055.000000pt" height="1055.000000pt" viewBox="0 0 1055.000000 1055.000000"
 preserveAspectRatio="xMidYMid meet">
<metadata>
Created by potrace 1.14, written by Peter Selinger 2001-2017
</metadata>
<g transform="translate(0.000000,1055.000000) scale(0.100000,-0.100000)"
fill="#000000" stroke="none">
<path d="M5231 10280 c-296 -23 -609 -94 -874 -196 -269 -104 -607 -300 -837
-485 -514 -414 -912 -1011 -1104 -1658 l-15 -51 403 0 402 0 33 83 c52 128
165 341 246 462 526 786 1403 1191 2291 1060 580 -86 1111 -399 1500 -881 137
-170 290 -432 375 -641 l33 -83 402 0 403 0 -15 50 c-154 518 -435 1000 -809
1388 -510 529 -1180 862 -1899 941 -134 15 -407 21 -535 11z"/>
<path d="M2120 7025 l0 -445 399 0 400 0 3 43 3 42 2663 3 2662 2 0 -170 0
-170 -3223 0 c-3533 0 -3276 4 -3391 -58 -76 -41 -157 -126 -197 -207 -33 -67
-34 -74 -34 -185 0 -109 2 -119 32 -182 55 -117 158 -208 286 -252 l62 -21
1470 -5 1470 -5 67 -33 c119 -58 195 -158 218 -284 29 -158 -64 -328 -220
-402 l-65 -31 -600 -6 c-447 -4 -610 -9 -640 -18 -122 -39 -243 -141 -291
-246 -75 -164 -45 -342 81 -474 31 -32 83 -73 115 -90 117 -62 78 -61 1391
-61 1338 0 1246 5 1335 -73 63 -56 94 -123 94 -207 -1 -110 -53 -194 -155
-248 l-50 -27 -535 -5 c-473 -5 -540 -7 -578 -22 -225 -90 -292 -351 -133
-521 52 -56 112 -89 189 -106 36 -7 242 -11 636 -11 670 0 644 3 733 -85 40
-41 55 -65 69 -110 41 -141 -25 -281 -163 -343 -35 -16 -145 -17 -1593 -22
l-1555 -5 -56 -28 c-67 -32 -132 -100 -162 -165 -32 -71 -29 -171 6 -244 32
-65 99 -131 165 -161 l47 -22 2096 -3 2097 -2 73 57 c883 679 1480 1596 1654
2540 55 297 55 295 55 1968 l0 1545 -3465 0 -3465 0 0 -445z"/>
<path d="M2123 4738 c4 -372 8 -467 26 -594 89 -648 336 -1233 763 -1802 80
-107 103 -132 117 -125 9 4 253 9 542 11 l525 3 -196 197 c-108 108 -241 253
-295 322 -362 453 -575 922 -657 1444 -18 112 -21 192 -25 559 l-5 427 -400 0
-400 0 5 -442z"/>
<path d="M4260 1116 c0 -13 1323 -917 1335 -912 13 5 1300 890 1319 908 6 4
-589 8 -1322 8 -733 0 -1332 -2 -1332 -4z"/>
</g>
</svg>
