<svg xmlns="http://www.w3.org/2000/svg" width="357" height="128" viewBox="0 0 357 128" fill="none"><g clip-path="url(#clip0_5707_5475)"><path fill-rule="evenodd" clip-rule="evenodd" d="M32.6183 112.736L15.8549 64.3652L0 80.1914L32.6183 112.736Z" fill="#E72525"></path><path fill-rule="evenodd" clip-rule="evenodd" d="M49.1152 31.1879L80.0823 0.291016C82.3031 11.5276 98.0787 21.8865 103.479 29.3534C105.606 32.3028 105.642 35.5617 103.313 37.094C98.4464 35.6121 94.142 35.13 90.7461 36.2162C88.1721 37.0653 85.8288 38.058 84.9637 39.9212C84.019 41.9497 84.7184 46.3092 88.2371 45.4891C89.3689 45.2227 89.9312 42.8777 89.7294 41.6548C94.7477 38.5328 105.058 39.5973 105.851 54.071C105.909 57.5312 104.164 60.4879 99.3836 62.5883C91.3445 65.4371 84.6535 63.9479 78.5612 60.5527L49.1296 31.1879H49.1152Z" fill="#8AEFDD"></path><path fill-rule="evenodd" clip-rule="evenodd" d="M80.2163 0.296436L49.2812 31.1614H49.2956L73.161 54.9725C73.201 54.9741 73.2413 54.9757 73.2815 54.977C62.5423 44.2622 73.4056 13.8727 80.3014 0.520743C80.2849 0.444209 80.2689 0.367633 80.2536 0.291016L80.2163 0.296436Z" fill="#71D0BB"></path><path fill-rule="evenodd" clip-rule="evenodd" d="M48.5391 31.7559L77.7036 92.3338L96.7526 111.34C92.4266 107.023 92.4266 99.9593 96.7526 95.6429C101.078 91.3268 108.159 91.3268 112.485 95.6429L112.918 96.0746L112.961 96.0315L48.5391 31.7559Z" fill="#B5CE00"></path><path fill-rule="evenodd" clip-rule="evenodd" d="M77.7177 92.3338L48.5529 31.7559L32.7773 47.4956L77.7177 92.3338Z" fill="#6FBA2C"></path><path fill-rule="evenodd" clip-rule="evenodd" d="M96.7041 112.26L35.9884 83.1616L16.9395 64.1556C21.2655 68.472 28.3457 68.472 32.6718 64.1556C36.9978 59.8395 36.9978 52.7753 32.6718 48.4592L32.2392 48.0275L32.2824 47.9844L96.7041 112.26Z" fill="#9A1C56"></path><path fill-rule="evenodd" clip-rule="evenodd" d="M35.9883 83.1641L96.7042 112.262L80.9286 128.002L35.9883 83.1641Z" fill="#E5016F"></path><path fill-rule="evenodd" clip-rule="evenodd" d="M15.8516 64.3654L32.6148 112.736L48.4699 96.9097L15.8516 64.3654Z" fill="#F29100"></path><path fill-rule="evenodd" clip-rule="evenodd" d="M176.249 46.8543C170.993 41.6861 164.135 39.0605 157.278 39.0605C139.253 39.0605 130.279 52.3139 130.279 66.6577C130.279 80.057 138.091 92.6503 157.278 92.6503C166.252 92.6503 172.601 89.2258 177.635 83.4743V61.9968H155.746V70.5893H168.807V79.6193C164.79 82.8214 161.288 83.6967 157.278 83.6967C144.579 83.6967 139.692 75.0348 139.692 66.6577C139.692 56.1759 146.333 47.8753 157.278 47.8753C161.726 47.8753 166.837 49.6951 170.269 52.9738L176.249 46.8611V46.8543ZM199.634 54.863C188.175 54.863 181.025 63.3097 181.025 73.5762C181.025 83.8424 188.029 92.2891 199.704 92.2891C211.379 92.2891 218.459 83.919 218.459 73.5762C218.459 63.2333 211.087 54.863 199.634 54.863ZM199.704 62.9416C205.684 62.9416 209.485 68.1859 209.485 73.5691C209.485 78.9525 206.2 84.1273 199.704 84.1273C193.208 84.1273 189.923 79.0289 189.923 73.5691C189.923 68.1095 193.278 62.9416 199.704 62.9416ZM222.428 55.5855V91.4763H231.333V72.5481C231.333 65.9213 235.635 63.4485 240.307 63.4485C243.223 63.4485 244.901 64.2474 246.725 65.7756L250.734 58.0583C248.764 56.0925 245.187 54.6338 241.468 54.6338C237.751 54.6338 234.096 55.2868 231.326 59.7324L230.67 55.5855H222.428ZM287.626 76.7019H259.534C260.119 81.1405 263.984 84.3496 270.263 84.3496C273.55 84.3496 277.852 83.1131 279.9 81.0016L285.594 86.6071C281.799 90.5387 275.596 92.435 270.124 92.435C257.717 92.435 250.352 84.7873 250.352 73.2843C250.352 61.7815 257.795 54.5018 269.47 54.5018C281.146 54.5018 289.027 61.9274 287.642 76.7089L287.626 76.7019ZM259.68 69.3458H279.091C278.506 64.6851 274.858 62.358 269.749 62.358C264.931 62.358 260.99 64.6851 259.68 69.3458ZM292.332 40.5887V91.4833H301.162V40.5956H292.332V40.5887ZM323.744 54.8562C312.286 54.8562 305.136 63.3026 305.136 73.5691C305.136 83.8356 312.14 92.2822 323.815 92.2822C335.491 92.2822 342.57 83.912 342.57 73.5691C342.57 63.2262 335.198 54.8562 323.744 54.8562ZM323.815 62.9345C329.795 62.9345 333.596 68.1788 333.596 73.5622C333.596 78.9454 330.311 84.1204 323.815 84.1204C317.319 84.1204 314.032 79.0218 314.032 73.5622C314.032 68.1024 317.388 62.9345 323.815 62.9345Z" fill="white"></path><path fill-rule="evenodd" clip-rule="evenodd" d="M352.052 82.8613C353.298 82.8613 354.427 83.3685 355.247 84.1811C356.07 84.9939 356.571 86.1261 356.571 87.3695C356.571 88.6128 356.063 89.738 355.247 90.5577C354.434 91.3775 353.298 91.8776 352.052 91.8776C350.806 91.8776 349.679 91.3704 348.857 90.5577C348.043 89.7451 347.533 88.6128 347.533 87.3695C347.533 86.1261 348.043 85.0009 348.857 84.1811C349.673 83.3685 350.806 82.8613 352.052 82.8613ZM354.754 84.6743C354.063 83.9868 353.103 83.556 352.052 83.556C351.001 83.556 350.041 83.9797 349.35 84.6743C348.662 85.3619 348.23 86.3207 348.23 87.3695C348.23 88.4183 348.655 89.3768 349.35 90.0646C350.041 90.7522 351.001 91.183 352.052 91.183C353.103 91.183 354.063 90.7593 354.754 90.0646C355.444 89.3768 355.874 88.4183 355.874 87.3695C355.874 86.3207 355.451 85.3619 354.754 84.6743Z" fill="white"></path><path fill-rule="evenodd" clip-rule="evenodd" d="M353.459 89.6571L352.039 88.0386H350.988V89.6571H350.348V85.0449H352.471C352.958 85.0449 353.34 85.1838 353.639 85.4547C353.932 85.7257 354.085 86.0869 354.085 86.5382C354.085 86.9273 353.975 87.2538 353.744 87.5177C353.513 87.7816 353.207 87.9414 352.819 88.0039L354.281 89.6502H353.459V89.6571ZM352.492 85.6422H350.995V87.4345H352.492C352.784 87.4345 353.02 87.351 353.193 87.1911C353.369 87.0315 353.452 86.8091 353.452 86.5382C353.452 86.2673 353.369 86.0452 353.193 85.8853C353.02 85.7257 352.791 85.6422 352.492 85.6422Z" fill="white"></path></g><defs><clipPath id="clip0_5707_5475"><rect width="357" height="128" fill="white"></rect></clipPath></defs></svg>