<svg xmlns="http://www.w3.org/2000/svg" viewBox="0 0 170.52 45.55"><defs><style>.cls-1{fill:#000;}.cls-2{fill:#000;}</style></defs><g id="Layer_2" data-name="Layer 2"><g id="Layer_1-2" data-name="Layer 1"><path class="cls-1" d="M13.33,23.46a6.09,6.09,0,0,1,4.74-1.95q5.38,0,5.4,6.7v.39L35,28.07V26.31q0-7.32-3.74-10.94a13.5,13.5,0,0,0-9.84-3.6,15.93,15.93,0,0,0-5.44.92,12.53,12.53,0,0,0-4.4,2.67l0-15.12L0,.27.07,29.69l11.5-.54C11.59,26.64,12.16,24.73,13.33,23.46Z"/><polygon class="cls-1" points="0.11 45.13 11.6 45.11 11.57 34.84 0.09 35.76 0.11 45.13"/><polygon class="cls-1" points="23.51 45.08 34.99 45.05 34.97 32.97 23.48 33.89 23.51 45.08"/><path class="cls-1" d="M60.7,33.83a5.7,5.7,0,0,1-4.44,1.92,5,5,0,0,1-4.06-1.68,5.93,5.93,0,0,1-1.07-2.39l-11.67.93c.31,4,1.5,7.08,3.66,9.22,2.53,2.49,5.9,3.73,10.14,3.72a14.12,14.12,0,0,0,5.38-1,11.75,11.75,0,0,0,4.34-3V45l10.94,0,0-15.1-11.84.94A6.68,6.68,0,0,1,60.7,33.83Z"/><polygon class="cls-1" points="73.86 12.19 62.37 12.21 62.4 26.79 73.89 26.26 73.86 12.19"/><polygon class="cls-1" points="50.76 12.24 39.27 12.27 39.31 27.87 50.79 27.33 50.76 12.24"/><path class="cls-1" d="M102.07,28.44a8.12,8.12,0,0,1-1.92,5.78,6.36,6.36,0,0,1-4.89,2.1,6.45,6.45,0,0,1-5-2.07,8.05,8.05,0,0,1-1.91-5.55l-11.58.92a17.91,17.91,0,0,0,2,7.83,15.13,15.13,0,0,0,5.85,5.94,16.32,16.32,0,0,0,8.17,2.07q6.4,0,9.61-3.83v3.26l11,0,0-18.16L102,27.61C102,27.91,102.07,28.13,102.07,28.44Z"/><path class="cls-1" d="M90.27,22.79a6.52,6.52,0,0,1,5-2.07,6.45,6.45,0,0,1,4.93,2,6.57,6.57,0,0,1,1.3,2.22l11.92-.55L113.31,0,101.82,0l0,14.93q-3.23-3.37-9.08-3.36a16.44,16.44,0,0,0-8.16,2.07,15,15,0,0,0-5.82,5.91,17.14,17.14,0,0,0-1.86,6.54l11.83-.55A6.87,6.87,0,0,1,90.27,22.79Z"/><path class="cls-1" d="M141,24.49v3.32c0,2.62-.56,4.56-1.71,5.84a5.72,5.72,0,0,1-4.44,1.91,4.91,4.91,0,0,1-4.06-1.68q-1.4-1.7-1.4-5.38V25.42l-11.48.92V30.4q0,7.5,3.8,11.24t10.14,3.72a14.12,14.12,0,0,0,5.38-1,11.75,11.75,0,0,0,4.34-3V44.8l10.95,0-.06-21.2Z"/><polygon class="cls-1" points="152.46 12 140.97 12.03 141 23.14 152.48 22.61 152.46 12"/><polygon class="cls-1" points="129.36 12.05 117.87 12.08 117.9 24.22 129.39 23.68 129.36 12.05"/><polygon class="cls-2" points="164.93 13.88 165.69 19.22 170.52 21.63 165.67 24 164.88 29.33 161.13 25.46 155.81 26.35 158.34 21.59 155.84 16.81 161.15 17.73 164.93 13.88"/></g></g></svg>