<?xml version="1.0" encoding="UTF-8"?>
<svg width="180px" height="40px" viewBox="0 0 180 40" version="1.1" xmlns="http://www.w3.org/2000/svg" xmlns:xlink="http://www.w3.org/1999/xlink">
    <title>Hudu_Horizontal_Primary Logo_AW_RGB</title>
    <g id="Round-4-Design" stroke="none" stroke-width="1" fill="none" fill-rule="evenodd">
        <g id="Hudu-Homepage-Design-R4" transform="translate(-100, -83)">
            <g id="Hudu_Horizontal_Primary-Logo_AW_RGB" transform="translate(100, 83)">
                <path d="M79.3519125,38.5399755 L79.3519125,28.5094768 C79.3519125,26.3409387 78.8610767,23.4329427 74.7016873,23.4329427 C72.7022242,23.4329427 71.3153121,24.0875448 70.4192359,25.1933646 C69.6435281,26.1335134 69.5632825,26.9955409 69.5632825,28.3869073 L69.5632825,38.5413224 C69.5632825,39.1258848 67.6895469,39.5986531 65.3824849,39.5986531 C63.0754229,39.5986531 61.2016873,39.1258848 61.2016873,38.5413224 L61.2016873,11.4319029 C61.2016873,10.8473404 63.0647235,10.3745722 65.361086,10.3745722 C67.6574486,10.3745722 69.5218222,10.8473404 69.5218222,11.4319029 L69.5218222,21.4273817 C70.8271512,19.9525064 72.7851447,17.987353 77.8432945,17.987353 C83.5554463,17.987353 87.4700959,20.6879237 87.4700959,27.2393331 L87.4700959,38.5372817 C87.4700959,39.1218441 85.6525322,39.5946123 83.4123416,39.5946123 C81.172151,39.5946123 79.3545873,39.1218441 79.3545873,38.5372817 L79.3505751,38.5372817 L79.3519125,38.5372817 L79.3519125,38.5399755 Z" id="Path" fill="#130136"></path>
                <path d="M171.888504,38.5386286 L171.888504,36.4482118 C170.787801,37.7574161 169.113342,39.6 164.341402,39.6 C154.879104,39.6 154.879104,33.1320995 154.879104,30.8813995 L154.879104,18.5584463 C154.879104,17.9738838 156.696668,17.5011156 158.935521,17.5011156 C161.174374,17.5011156 162.993275,17.9738838 162.993275,18.5584463 L162.993275,30.2267973 C162.993275,31.7407332 163.034735,34.5261597 167.194134,34.5261597 C170.129787,34.5261597 171.885829,33.0122238 171.885829,30.3911213 L171.885829,18.5611401 C171.885829,17.9765777 173.703393,17.5038094 175.942246,17.5038094 C178.181099,17.5038094 180,17.9765777 180,18.5611401 L180,38.5386286 C180,39.123191 178.182436,39.5959592 175.942246,39.5959592 C173.702055,39.5959592 171.885829,39.123191 171.885829,38.5386286 L171.885829,38.5359347 L171.887166,38.5359347 L171.888504,38.5386286 Z" id="Path" fill="#130136"></path>
                <path d="M109.851941,38.5386286 L109.851941,36.4482118 C108.751238,37.7574161 107.076779,39.6 102.306176,39.6 C92.8438786,39.6 92.8438786,33.1320995 92.8438786,30.8813995 L92.8438786,18.5584463 C92.8438786,17.9738838 94.6614422,17.5011156 96.9029702,17.5011156 C99.1444983,17.5011156 100.959387,17.9738838 100.959387,18.5584463 L100.959387,30.2267973 C100.959387,31.7407332 101.000847,34.5261597 105.160246,34.5261597 C108.095899,34.5261597 109.851941,33.0122238 109.851941,30.3911213 L109.851941,18.5611401 C109.851941,17.9765777 111.669504,17.5038094 113.909695,17.5038094 C116.149886,17.5038094 117.967449,17.9765777 117.967449,18.5611401 L117.967449,38.5386286 C117.967449,39.123191 116.149886,39.5959592 113.909695,39.5959592 C111.669504,39.5959592 109.851941,39.123191 109.851941,38.5386286 L109.851941,38.5359347 L109.851941,38.5359347 L109.851941,38.5386286 Z" id="Path" fill="#130136"></path>
                <path d="M145.097161,10.3759191 C142.811498,10.3759191 140.956486,10.8486874 140.956486,11.4332498 L140.956486,21.7560297 C139.937367,20.0764229 137.366832,18.3577555 133.329139,18.3577555 C127.781491,18.3577555 122.641758,21.9217006 122.641758,29.2866485 C122.641758,36.6515964 128.02624,39.5959592 132.961346,39.5959592 C136.918793,39.5959592 139.121536,38.3743046 140.956486,36.4899662 L140.956486,38.5386286 C140.956486,39.123191 142.810161,39.5959592 145.097161,39.5959592 C147.384162,39.5959592 149.237836,39.123191 149.237836,38.5386286 L149.237836,11.429209 C149.237836,10.8446466 147.384162,10.3718784 145.097161,10.3718784 L145.097161,10.3745722 L145.097161,10.3745722 L145.097161,10.3759191 Z M135.97992,34.2837145 C132.552094,34.2837145 130.840187,32.237746 130.840187,28.8798793 C130.840187,25.1125495 133.042929,23.476044 135.898337,23.476044 C138.508994,23.476044 140.873566,24.6626788 140.873566,29.0442033 C140.873566,32.8505937 138.6307,34.2837145 135.97992,34.2837145 Z" id="Shape" fill="#130136"></path>
                <path d="M24.7567948,14.4826722 L24.7594697,14.4853661 C25.8855834,15.2962107 27.2283604,15.751469 28.613935,15.7932235 C35.6688637,16.0073835 37.8983549,16.3723983 37.8983549,16.3723983 C38.383841,16.426275 38.8653148,16.4855394 39.3401015,16.5555791 C39.7065566,16.6094558 39.9820666,16.2201965 39.8068636,15.8888547 C38.26481,12.974124 35.3264823,9.23238569 31.37171,6.08194438 C24.4946591,0.605375598 17.1535209,-1.01227298 15.8950019,0.586518746 C14.6351454,2.18665739 17.8824187,9.00340963 24.7554574,14.4813253 L24.7554574,14.4813253 L24.7567948,14.4826722 Z M54.5814224,26.8675837 L54.5814224,26.8608491 L48.394484,21.768152 C45.7691143,19.6050016 42.0109437,18.6715874 37.9264409,18.2257575 C37.9264409,18.2257575 34.1094235,17.6021344 20.6174575,17.5132379 C9.25333815,17.4378104 2.42042234,18.4048976 2.42042234,18.4048976 C-0.862961554,18.7618309 -0.183548512,20.3633164 0.858307314,21.6617454 C2.0700164,23.1689467 3.48100215,24.4512127 5.03509261,25.4883396 C7.48124704,27.1208043 10.2497214,28.0973199 13.0944292,28.4098049 C14.2379295,28.5337213 15.3867795,28.5444967 16.5195804,28.4448247 C19.1703612,28.2118079 22.0511795,27.1814156 24.3301555,25.8196815 C24.6123527,25.6526636 24.7795311,25.3415255 24.7795311,25.0128775 L24.7795311,24.9509193 C24.7795311,24.495661 24.4518614,24.2936233 24.0479584,24.511824 L24.0399338,24.5158648 C22.7011691,25.2310783 20.8555195,25.826416 19.2974168,25.9624548 C18.9991705,25.9880462 18.6982494,26.0015154 18.4000031,26.0055561 L18.3879662,26.0055561 C18.0910574,26.0042092 17.7901363,25.9853524 17.49189,25.9624548 C15.9351247,25.8250691 14.4158073,25.3980961 13.0797175,24.6815357 C12.2291138,24.2276243 11.4547434,23.6632657 10.7927169,23.0046227 C10.7900421,23.000582 10.7846923,22.9965412 10.7820175,22.9925005 C10.3968384,22.5978535 10.6081519,21.9243945 11.1444603,21.8031718 C12.3508197,21.5310944 16.8699863,20.7040867 24.1255291,21.6455824 L24.1255291,21.6482763 C27.5399809,22.0914123 30.1747126,24.1872168 30.1747126,27.7444273 L30.17605,27.7444273 L30.17605,31.7703654 C30.17605,36.0454833 33.6239375,39.5111034 37.8742812,39.5111034 L45.8185991,39.5111034 C48.2366676,39.5111034 50.4808705,38.2463474 51.740727,36.165359 L55.1899518,30.4800179 C55.9121625,29.2920362 55.6486894,27.7484681 54.5787476,26.8675837 L54.5787476,26.8675837 L54.5814224,26.8675837 Z M46.6023315,26.994194 C46.5247607,27.0534584 44.9144983,28.2468278 43.3069107,27.8535277 C42.9484802,27.7767534 42.6261603,27.6097355 42.3386134,27.4171263 C41.3489172,26.747708 40.8005721,25.6445821 40.7764984,25.5826239 C40.6828785,25.399443 40.7337007,25.1798954 40.8982043,25.0586728 L40.8995417,25.0586728 C40.9690879,25.0074899 42.5793503,23.8141205 44.1949624,24.1979921 C45.80255,24.5899453 46.6785648,26.3921216 46.7213625,26.4742836 C46.8149824,26.6574645 46.748111,26.8743183 46.6023315,26.9928471 L46.6023315,26.9928471 L46.6023315,26.994194 Z" id="Shape" fill="#6136FF"></path>
            </g>
        </g>
    </g>
</svg>