<svg width="285" height="105" viewBox="0 0 285 105" fill="none" xmlns="http://www.w3.org/2000/svg">
<path d="M64.9029 66.7702H74.9386C78.1815 66.7702 80.426 67.6207 81.8533 69.0443C83.0958 70.2868 83.7318 71.8953 83.7318 73.9882V74.0474C83.7318 77.3236 82.0049 79.4757 79.3648 80.5961L84.427 87.9953H77.6638L73.3892 81.5686H70.7823V87.9953H64.8992V66.7702H64.9029ZM74.6945 76.9575C76.6654 76.9575 77.8487 75.9887 77.8487 74.4393V74.3802C77.8487 72.6829 76.6062 71.8324 74.6649 71.8324H70.7823V76.9575H74.6945Z" fill="#001822"></path>
<path d="M86.3979 65.8605H92.3698V70.1055H86.3979V65.8605ZM86.52 71.592H92.2515V87.9952H86.52V71.592Z" fill="#001822"></path>
<path d="M95.376 91.0274L97.2249 87.2076C98.985 88.1764 100.741 88.7533 102.956 88.7533C105.807 88.7533 107.231 87.3297 107.231 84.719V84.083C106.077 85.4179 104.561 86.5383 102.198 86.5383C98.1641 86.5383 94.8916 83.6282 94.8916 78.9284V78.8692C94.8916 74.1398 98.227 71.2297 101.988 71.2297C104.472 71.2297 105.929 72.2318 107.142 73.5334V71.5921H112.903V84.0535C112.903 87.056 112.238 89.1785 110.781 90.6022C109.294 92.1182 106.991 92.9059 103.563 92.9059C100.409 92.9059 97.7426 92.2403 95.376 91.0274ZM107.261 78.9284V78.8692C107.261 77.0499 105.837 75.6855 103.896 75.6855C101.954 75.6855 100.531 77.0499 100.531 78.8988V78.958C100.531 80.7773 101.925 82.1121 103.896 82.1121C105.867 82.1121 107.261 80.7477 107.261 78.9284Z" fill="#001822"></path>
<path d="M115.991 65.8605H121.752V73.8366C122.813 72.4721 124.329 71.2297 126.663 71.2297C130.15 71.2297 132.243 73.5334 132.243 77.2644V87.9989H126.511V79.1133C126.511 77.294 125.572 76.3252 124.178 76.3252C122.784 76.3252 121.752 77.294 121.752 79.1133V87.9989H115.991V65.8642V65.8605Z" fill="#001822"></path>
<path d="M136.247 82.8997V76.1994H134.306V71.592H136.247V67.4395H141.979V71.592H145.799V76.1994H141.979V81.7793C141.979 82.933 142.493 83.4174 143.554 83.4174C144.312 83.4174 145.04 83.2066 145.736 82.8701V87.3592C144.704 87.9361 143.339 88.328 141.735 88.328C138.277 88.328 136.247 86.8119 136.247 82.8997Z" fill="#001822"></path>
<path d="M156.049 79.8676V79.8084C156.049 75.1382 159.868 71.226 165.115 71.226C170.363 71.226 174.153 75.0753 174.153 79.7456V79.8047C174.153 84.475 170.333 88.3872 165.056 88.3872C159.78 88.3872 156.052 84.5378 156.052 79.8676H156.049ZM168.569 79.8676V79.8084C168.569 77.7784 167.083 76.0774 165.053 76.0774C163.023 76.0774 161.625 77.7451 161.625 79.7456V79.8047C161.625 81.8052 163.082 83.5025 165.112 83.5025C167.142 83.5025 168.569 81.8348 168.569 79.8639V79.8676Z" fill="#6D6E71"></path>
<path d="M177.455 76.1994H175.543V71.6512H177.455V71.3184C177.455 69.4399 177.88 68.0422 178.849 67.0734C179.818 66.1046 181.182 65.6497 183.153 65.6497C184.88 65.6497 186.004 65.8309 186.884 66.1046V70.1684C186.219 69.9576 185.579 69.8356 184.732 69.8356C183.671 69.8356 183.094 70.32 183.094 71.3813V71.7769H186.884V76.2031H183.216V87.9989H177.455V76.2031V76.1994Z" fill="#6D6E71"></path>
<path d="M197.404 66.7702H208.29C210.96 66.7702 212.839 67.4358 214.081 68.6486C214.932 69.5287 215.446 70.6491 215.446 72.106V72.1652C215.446 74.6205 214.052 76.0774 212.169 76.8946C214.747 77.7451 216.385 79.1983 216.385 82.0788V82.138C216.385 85.7766 213.412 87.9915 208.35 87.9915H197.404V66.7665V66.7702ZM209.655 73.3189C209.655 72.1356 208.716 71.4996 206.985 71.4996H203.136V75.2306H206.834C208.623 75.2306 209.655 74.6242 209.655 73.3817V73.3226V73.3189ZM207.625 79.3536H203.136V83.2658H207.684C209.503 83.2658 210.505 82.5669 210.505 81.3245V81.2653C210.505 80.1116 209.596 79.3536 207.625 79.3536Z" fill="#231F20"></path>
<path d="M218.115 79.8676V79.8084C218.115 75.1382 221.935 71.226 227.182 71.226C232.429 71.226 236.219 75.0753 236.219 79.7456V79.8047C236.219 84.475 232.4 88.3872 227.123 88.3872C221.846 88.3872 218.119 84.5378 218.119 79.8676H218.115ZM230.636 79.8676V79.8084C230.636 77.7784 229.149 76.0774 227.119 76.0774C225.089 76.0774 223.691 77.7451 223.691 79.7456V79.8047C223.691 81.8052 225.148 83.5025 227.178 83.5025C229.208 83.5025 230.636 81.8348 230.636 79.8639V79.8676Z" fill="#231F20"></path>
<path d="M238.005 79.8676V79.8084C238.005 75.1382 241.825 71.226 247.072 71.226C252.319 71.226 256.11 75.0753 256.11 79.7456V79.8047C256.11 84.475 252.29 88.3872 247.013 88.3872C241.736 88.3872 238.009 84.5378 238.009 79.8676H238.005ZM250.53 79.8676V79.8084C250.53 77.7784 249.043 76.0774 247.013 76.0774C244.983 76.0774 243.585 77.7451 243.585 79.7456V79.8047C243.585 81.8052 245.042 83.5025 247.072 83.5025C249.102 83.5025 250.53 81.8348 250.53 79.8639V79.8676Z" fill="#231F20"></path>
<path d="M258.532 71.5921H264.293V73.8366C265.354 72.4721 266.87 71.2297 269.174 71.2297C271.355 71.2297 273.023 72.1985 273.903 73.8994C275.327 72.2613 276.994 71.2297 279.391 71.2297C282.877 71.2297 285 73.4113 285 77.2348V87.9989H279.239V79.0837C279.239 77.294 278.359 76.3252 276.994 76.3252C275.63 76.3252 274.628 77.294 274.628 79.0837V87.9989H268.896V79.0837C268.896 77.294 267.987 76.3252 266.622 76.3252C265.258 76.3252 264.289 77.294 264.289 79.0837V87.9989H258.528V71.5957H258.532V71.5921Z" fill="#231F20"></path>
<path d="M105.73 44.6983C105.73 44.6983 25.3924 27.3633 46.5731 104.136C46.5731 104.136 34.4593 40.8749 105.73 44.6983Z" fill="#6D6E71"></path>
<path d="M0 59.4376C0 59.4376 80.3372 76.7726 59.1565 0C59.1565 0 71.2703 63.261 0 59.4376Z" fill="#F15A29"></path>
<path d="M1.83032 25.6882C1.83032 25.6882 62.991 70.1832 27.0711 3.38715C27.0711 3.38715 51.846 53.1107 1.83032 25.6882Z" fill="#FDBC4D"></path>
<path d="M11.9734 48.4109C11.9734 48.4109 58.247 60.4212 45.5933 16.0445C43.3118 32.6141 49.6497 49.1985 11.9734 48.4109Z" fill="#F2684B"></path>
</svg>