
<svg width="286" height="104" viewBox="0 0 286 104" fill="none" xmlns="http://www.w3.org/2000/svg">
<g clip-path="url(#clip0_10_197)">
<path d="M65.1265 66.6989H75.1831C78.4487 66.6989 80.6752 67.5483 82.1225 68.9517C83.3842 70.2074 84.015 71.7954 84.015 73.9006V73.9744C84.015 77.2614 82.2709 79.4034 79.6362 80.5113L84.7201 87.8977H77.9291L73.6245 81.4716H70.9897V87.8977H65.0894L65.1265 66.6989ZM74.9604 76.8551C76.9272 76.8551 78.1147 75.8949 78.1147 74.3437V74.2699C78.1147 72.571 76.853 71.7216 74.9233 71.7216H71.0268V76.8551H74.9604Z" fill="white"/>
<path d="M86.724 65.7755H92.6986V70.0227H86.724V65.7755ZM86.8353 71.4999H92.5872V87.8977H86.8353V71.4999Z" fill="white"/>
<path d="M95.7044 90.9261L97.5599 87.1221C99.3411 88.0823 101.085 88.6732 103.312 88.6732C106.169 88.6732 107.616 87.2329 107.616 84.6477V84.0198C106.466 85.3494 104.945 86.4573 102.57 86.4573C98.5247 86.4573 95.222 83.5397 95.222 78.8494V78.7755C95.222 74.0482 98.5618 71.1306 102.347 71.1306C104.833 71.1306 106.318 72.1278 107.505 73.4204V71.4999H113.294V83.946C113.294 86.9374 112.626 89.0795 111.179 90.4829C109.695 91.9971 107.394 92.7727 103.943 92.7727C100.751 92.8096 98.0794 92.1448 95.7044 90.9261ZM107.654 78.8494V78.7755C107.654 76.9658 106.206 75.5994 104.277 75.5994C102.347 75.5994 100.9 76.9658 100.9 78.8124V78.8863C100.9 80.696 102.31 82.0255 104.277 82.0255C106.243 82.0255 107.654 80.659 107.654 78.8494Z" fill="white"/>
<path d="M116.411 65.7755H122.2V73.7528C123.276 72.3863 124.798 71.1306 127.136 71.1306C130.624 71.1306 132.739 73.4204 132.739 77.1505V87.8607H126.987V78.9971C126.987 77.1874 126.06 76.2272 124.65 76.2272C123.239 76.2272 122.2 77.1874 122.2 78.9971V87.8607H116.411V65.7755Z" fill="white"/>
<path d="M136.747 82.8011V76.1165H134.817V71.5H136.747V67.3636H142.499V71.5H146.321V76.1165H142.499V81.6932C142.499 82.8381 143.019 83.3182 144.095 83.3182C144.837 83.3182 145.579 83.0966 146.284 82.7642V87.233C145.245 87.8239 143.872 88.1932 142.276 88.1932C138.751 88.2301 136.747 86.7159 136.747 82.8011Z" fill="white"/>
<path d="M156.6 79.7727V79.6988C156.6 75.0454 160.423 71.1306 165.692 71.1306C170.962 71.1306 174.747 74.9715 174.747 79.6249V79.6988C174.747 84.3522 170.925 88.267 165.618 88.267C160.311 88.267 156.6 84.4261 156.6 79.7727ZM169.18 79.7727V79.6988C169.18 77.6675 167.696 75.9687 165.655 75.9687C163.614 75.9687 162.204 77.6306 162.204 79.6249V79.6988C162.204 81.6931 163.651 83.392 165.692 83.392C167.733 83.392 169.18 81.73 169.18 79.7727Z" fill="white"/>
<path d="M178.087 76.1165H176.157V71.5738H178.087V71.2415C178.087 69.3579 178.495 67.9545 179.497 66.9943C180.499 66.0341 181.835 65.554 183.801 65.554C185.546 65.554 186.659 65.7386 187.549 65.9971V70.0596C186.882 69.838 186.251 69.7273 185.397 69.7273C184.321 69.7273 183.764 70.2074 183.764 71.2784V71.6846H187.549V76.1165H183.876V87.8977H178.087V76.1165Z" fill="white"/>
<path d="M198.088 66.6989H208.999C211.67 66.6989 213.563 67.3636 214.825 68.5824C215.678 69.4687 216.198 70.5767 216.198 72.054V72.1278C216.198 74.5653 214.788 76.0426 212.895 76.8551C215.493 77.7045 217.125 79.1449 217.125 82.0256V82.0994C217.125 85.7187 214.157 87.9346 209.073 87.9346H198.088V66.6989ZM210.409 73.2358C210.409 72.054 209.481 71.4261 207.737 71.4261H203.878V75.1562H207.588C209.37 75.1562 210.409 74.5653 210.409 73.3096V73.2358ZM208.368 79.2557H203.878V83.1704H208.442C210.26 83.1704 211.262 82.4687 211.262 81.25V81.1761C211.262 80.0312 210.334 79.2557 208.368 79.2557Z" fill="white"/>
<path d="M218.907 79.7727V79.6988C218.907 75.0454 222.729 71.1306 227.998 71.1306C233.268 71.1306 237.053 74.9715 237.053 79.6249V79.6988C237.053 84.3522 233.231 88.267 227.924 88.267C222.618 88.267 218.907 84.4261 218.907 79.7727ZM231.45 79.7727V79.6988C231.45 77.6675 229.965 75.9687 227.924 75.9687C225.883 75.9687 224.473 77.6306 224.473 79.6249V79.6988C224.473 81.6931 225.92 83.392 227.961 83.392C230.002 83.392 231.45 81.73 231.45 79.7727Z" fill="white"/>
<path d="M238.834 79.7727V79.6988C238.834 75.0454 242.657 71.1306 247.926 71.1306C253.196 71.1306 256.981 74.9715 256.981 79.6249V79.6988C256.981 84.3522 253.158 88.267 247.852 88.267C242.545 88.267 238.871 84.4261 238.834 79.7727ZM251.414 79.7727V79.6988C251.414 77.6675 249.93 75.9687 247.889 75.9687C245.848 75.9687 244.438 77.6306 244.438 79.6249V79.6988C244.438 81.6931 245.885 83.392 247.926 83.392C249.967 83.392 251.414 81.73 251.414 79.7727Z" fill="white"/>
<path d="M259.467 71.4999H265.256V73.7528C266.332 72.3863 267.854 71.1306 270.154 71.1306C272.344 71.1306 274.014 72.0908 274.904 73.7897C276.314 72.1647 278.022 71.1306 280.396 71.1306C283.885 71.1306 286.037 73.3096 286.037 77.1136V87.8977H280.248V78.9971C280.248 77.2244 279.357 76.2272 277.984 76.2272C276.611 76.2272 275.609 77.1874 275.609 78.9971V87.8977H269.858V78.9971C269.858 77.2244 268.93 76.2272 267.557 76.2272C266.184 76.2272 265.219 77.1874 265.219 78.9971V87.8977H259.43L259.467 71.4999Z" fill="white"/>
<path d="M106.095 44.6505C106.095 44.6505 25.4569 27.3295 46.7204 104C46.7575 104 34.5857 40.8096 106.095 44.6505Z" fill="white"/>
<path d="M0 59.3494C0 59.3494 80.6381 76.6705 59.3746 0C59.3746 0 71.5093 63.1903 0 59.3494Z" fill="white"/>
<path d="M1.81836 25.6676C1.81836 25.6676 63.1968 70.0966 27.1639 3.39771C27.1639 3.39771 52.027 53.0341 1.81836 25.6676Z" fill="white"/>
<path d="M12.0233 48.3438C12.0233 48.3438 58.4469 60.3466 45.7555 16.0284C43.4548 32.5739 49.8375 49.1563 12.0233 48.3438Z" fill="white"/>
</g>
<defs>
<clipPath id="clip0_10_197">
<rect width="286" height="104" fill="white"/>
</clipPath>
</defs>
</svg>
