<svg id="Layer_1" data-name="Layer 1" xmlns="http://www.w3.org/2000/svg" xmlns:xlink="http://www.w3.org/1999/xlink" viewBox="0 0 500 500"><defs><style>.cls-1{fill:#fff;}.cls-2{fill:url(#linear-gradient);}</style><linearGradient id="linear-gradient" x1="173.84" y1="176.09" x2="330.63" y2="332.88" gradientUnits="userSpaceOnUse"><stop offset="0" stop-color="#3e65b0"/><stop offset="0.06" stop-color="#4360ad"/><stop offset="0.36" stop-color="#5650a2"/><stop offset="0.67" stop-color="#61459c"/><stop offset="1" stop-color="#65429a"/></linearGradient></defs><rect class="cls-1" width="500" height="500"/><path class="cls-2" d="M193.11,383.2Q166.7,376,150,362.81a27.16,27.16,0,0,1-8.35-9.13,28.59,28.59,0,0,1,3.49-29.32q6-7.37,13.79-7.37a26.45,26.45,0,0,1,8.35,1.35,53.19,53.19,0,0,1,9.9,4.86A130.84,130.84,0,0,0,211,338.54a137.42,137.42,0,0,0,37.67,4.85q25.64,0,39.22-8.54t13.59-24.47q0-12-12.62-19.41T244,277q-36.12-7.38-57.67-17.86t-31.45-26q-9.9-15.53-9.9-37.67a73.39,73.39,0,0,1,14.17-44.07q14.18-19.6,39.22-30.68t56.5-11.07q55.14,0,90.87,27.57a31,31,0,0,1,8.35,9.51,25.53,25.53,0,0,1,2.52,11.85,26.26,26.26,0,0,1-6,17.09q-6,7.38-13.79,7.37a26.5,26.5,0,0,1-8-1.16,55.45,55.45,0,0,1-10.29-5,163.21,163.21,0,0,0-29.32-15.14q-13.39-5.06-34-5-23.69,0-37.28,9.12t-13.59,25.05q0,9.32,5.24,15.34t17.48,10.68q12.22,4.65,34.75,9.71,52.82,11.64,75.92,29.9t23.11,50.09q0,24.86-13.79,43.88t-38.83,29.51q-25,10.49-58.06,10.49A217.16,217.16,0,0,1,193.11,383.2Z"/></svg>