<?xml version="1.0" encoding="utf-8"?>
<!-- Generator: Adobe Illustrator 24.0.1, SVG Export Plug-In . SVG Version: 6.00 Build 0)  -->
<svg version="1.1" id="Layer_1" xmlns="http://www.w3.org/2000/svg" xmlns:xlink="http://www.w3.org/1999/xlink" x="0px" y="0px"
	 viewBox="0 0 365.1 224.4" style="enable-background:new 0 0 365.1 224.4;" xml:space="preserve">
<style type="text/css">
	.st0{fill:#EFCCA3;}
	.st1{fill:#CCAC8D;}
	.st2{fill:#FFFFFF;}
	.st3{fill:#56332B;}
	.st4{fill:#442823;}
	.st5{fill:#7F4A41;}
	.st6{fill:#331712;}
</style>
<g id="XMLID_1_">
	<path id="XMLID_2_" class="st0" d="M305.4,70c-0.6-12.5,1.1-23.6-4.6-33C287.1,13.6,252.9,0,184.6,0v2h-1.4h1.4V0
		C116.2,0,80.3,13.7,66.7,37.3c-5.4,9.7-4.8,20.5-5.7,33c-0.6,10-5.1,20.5-3.1,31.9c2.3,14.8,3.1,29.6,5.4,43.3
		c1.7,11.1,17.1,20.5,18.5,31.1c4,29.1,34.2,42.4,102.6,42.4v2.3h-1.7h0.3h1.7V219c68.4,0,97.4-13.4,101.1-42.4
		c1.4-10.8,15.7-19.9,17.4-31.1c2.3-13.7,3.1-28.5,5.4-43.3C310.6,90.8,306,80,305.4,70z"/>
	<path id="XMLID_3_" class="st1" d="M183.5,80.3c12.2,0.3,20.8,8,28.8,15.1c9.4,8.3,25.4,14,31.9,21.1c6.6,7.1,15.1,14.2,18.2,25.4
		c3.1,11.1,4,25.4,4,29.1s2,2.8,7.7,0c13.4-6.6,28.2-24.2,28.2-24.2c-1.7,11.1-16.2,21.1-17.7,31.6c-3.4,29.1-31.6,43-101.4,43h-0.3
		h1.7"/>
	<path id="XMLID_4_" class="st1" d="M228.5,58c2.6,8.8,11.7,38.7-6,28.8c0,0,7.4,4.3,12,20.5c4.8,16.2,16.5,18.2,16.5,18.2
		s19.1,3.7,33.3-8.5c12-10.3,14-28.5,8.8-42.4c-5.1-13.7-14.2-17.9-27.6-20.8C252.2,50.6,225.4,48.1,228.5,58z"/>
	<circle id="XMLID_5_" cx="262.4" cy="90.5" r="25.1"/>
	<circle id="XMLID_6_" class="st2" cx="255.9" cy="79.4" r="6.6"/>
	<path id="XMLID_7_" class="st0" d="M224.2,89.4c0,0,22.5,15.4,34.8,30.5c12.2,15.1,12,17.9,12,17.9l-8.8,4c0,0-12.5-23.6-27.9-32.5
		c-15.7-8.8-17.4-16.2-17.4-16.2L224.2,89.4z"/>
	<path id="XMLID_8_" class="st1" d="M184.4,80.3c-12.2,0.3-21.4,8-29.6,15.1c-9.4,8.3-25.9,14-32.5,21.1
		c-6.6,7.1-15.4,14.2-18.5,25.4c-3.1,11.1-4.3,25.4-4.3,29.1s0.6,4-7.7,0c-13.4-6.3-28.2-24.2-28.2-24.2
		c1.7,11.1,16.2,21.1,17.7,31.6c4,29.1,32.2,43,102,43h0.3h1.1"/>
	<path id="XMLID_9_" class="st3" d="M250.4,128.4c-13.7-16.8-35.6-32.5-66.1-32.5H184c-30.5,0-52.4,15.7-66.1,32.5
		c-14.2,17.4-13.1,24.2-13.1,40.7c0,59.8,21.1,42.7,35,50.1c14.2,7.1,29.1,4.8,44.2,4.8h0.3c15.4,0,29.9,2,44.2-5.1
		c14-7.1,35,10.5,35-49.3C263.8,153.2,264.7,145.8,250.4,128.4z"/>
	<path id="XMLID_10_" class="st4" d="M182.9,110.7c0,0-2,27.6-6,33l7.4-1.7L182.9,110.7z"/>
	<path id="XMLID_11_" class="st4" d="M184.9,110.7c0,0,2,27.6,6,33l-7.4-1.7L184.9,110.7z"/>
	<path id="XMLID_12_" class="st3" d="M161,104.2c-2.8-6.6,7.4-17.1,23.6-17.4c16.2,0,26.5,10.5,23.6,17.4
		c-2.8,6.8-13.1,8.8-23.6,9.1C174.4,113,163.8,111,161,104.2z"/>
	<path id="XMLID_13_" d="M184.6,110.7c0-1.1,9.7-1.4,14.8-4.8c0,0-10.5,3.4-12.8,2c-2.3-1.1-2.8-4.6-2.8-4.6s-0.9,3.4-2.6,4.6
		c-2,1.1-14-2-14-2s16,4,16,4.8c0,0.9-0.3,3.7-0.3,5.7c0,7.1,0,24.8,1.1,26.2c1.7,2.6,1.1-19.1,1.1-26.2
		C184.9,114.2,184.9,111.9,184.6,110.7z"/>
	<path id="XMLID_14_" class="st5" d="M185.2,148.9c4.8,0,13.4,3.4,21.1,8.8c-7.4-8.3-16.2-14-21.1-14c-5.1,0-16,6.3-23.6,15.4
		C169.5,152.9,179.8,148.9,185.2,148.9z"/>
	<path id="XMLID_15_" class="st4" d="M183.2,199.3c-10.8,0-21.4-3.4-31.1-6c-2-0.6-4,0.9-6,0.3c-17.9-5.7-32.5-15.4-41.3-27.6
		c0,0.9,0,2,0,2.8c0,59.8,21.1,43,35,50.1c14.2,7.1,29.1,4.8,44.2,4.8h0.3c15.4,0,29.9,2,44.2-5.1c14-7.1,35,10.3,35-49.6
		c0-2.3,0-4.6,0.3-6.6c-8.3,13.4-23.4,23.9-42.2,30.2c-1.7,0.6-5.7-0.9-7.4-0.6C204,195.6,194.9,199.3,183.2,199.3z"/>
	<path id="XMLID_16_" class="st4" d="M156.1,167.2c0,0-7.1,21.4-2.3,30.8l-6.6-2.8C147.3,195.1,152.2,173.4,156.1,167.2z"/>
	<path id="XMLID_17_" class="st4" d="M212.6,167.2c0,0,7.1,21.4,2.3,30.8l6.6-2.8C221.4,195.1,216.3,173.4,212.6,167.2z"/>
	<path id="XMLID_18_" class="st1" d="M137.9,58c-2.6,8.8-11.7,38.7,6,28.8c0,0-7.4,4.3-12,20.5c-4.6,16.2-16.5,18.2-16.5,18.2
		s-19.1,3.7-33.3-8.5c-12-10.3-14-28.5-8.8-42.4c5.1-14,14.2-17.9,27.6-20.8C114.3,50.6,140.8,48.1,137.9,58z"/>
	<path id="XMLID_19_" d="M184.4,143.8c7.7,0,31.6,16.5,31.9,36.7c0-0.3,0-0.6,0-1.1c0-21.1-19.4-37.9-31.9-37.9
		s-31.9,17.1-31.9,37.9c0,0.3,0,0.6,0,1.1C152.7,160.3,176.7,143.8,184.4,143.8z"/>
	
		<ellipse id="XMLID_20_" transform="matrix(0.9683 -0.2497 0.2497 0.9683 -19.0222 50.5)" class="st6" cx="189.5" cy="100.2" rx="2.3" ry="4.3"/>
	
		<ellipse id="XMLID_21_" transform="matrix(0.2963 -0.9551 0.9551 0.2963 28.9918 239.7666)" class="st6" cx="177.2" cy="100.2" rx="4.3" ry="2.3"/>
	<circle id="XMLID_22_" cx="105.4" cy="90.5" r="25.1"/>
	<circle id="XMLID_23_" class="st2" cx="112" cy="79.4" r="6.6"/>
	<path id="XMLID_24_" class="st5" d="M191.8,90.8c0-0.3-6.6,2.8-8.3,3.1c-1.7-0.3-8.3-3.4-8.3-3.1c0,0,5.4,0,8.3,0
		C186.3,90.8,191.8,90.8,191.8,90.8z"/>
	<path id="XMLID_25_" class="st0" d="M141.9,89.4c0,0-22.5,15.4-34.8,30.5c-12.2,15.1-12,17.9-12,17.9l8.8,4
		c0,0,12.5-23.6,27.9-32.5c15.4-8.8,17.4-16.2,17.4-16.2L141.9,89.4z"/>
	<path id="XMLID_26_" class="st1" d="M92.6,43.8c0,0-7.7,21.1-24.8,29.9C67.8,73.7,94.6,70.6,92.6,43.8z"/>
	<path id="XMLID_27_" class="st1" d="M272.4,43.8c0,0,7.7,21.1,24.8,29.9C297.2,73.7,270.4,70.6,272.4,43.8z"/>
	<path id="XMLID_28_" class="st1" d="M223.7,83.1c0,0-16.8-17.7-39.3-18.2c-0.3,0,0.6,0,0.3,0s0.3,0,0.3,0
		c-22.8,0.6-39.3,18.2-39.3,18.2c19.7-13.7,36.5-13.4,39.3-13.4C184.6,69.7,204,69.4,223.7,83.1z"/>
	<path id="XMLID_29_" class="st1" d="M204,46.1c0,0-8.5-12-19.9-12.2h0.3h0.3c-8.5,0.3-19.7,12.2-19.7,12.2
		c9.7-9.4,19.7-9.1,19.7-9.1S194,36.7,204,46.1z"/>
	<path id="XMLID_30_" class="st1" d="M105.4,133.5c0,0-13.4,6.6-23.1,2.6H82c-8.5-4.8-12.8-19.4-12.8-19.4S77.8,142.4,105.4,133.5z"
		/>
	<path id="XMLID_31_" class="st1" d="M261.6,133.5c0,0,13.4,6.6,23.1,2.6c11.4-4.8,13.1-19.4,13.1-19.4S289.2,142.4,261.6,133.5z"/>
	<path id="XMLID_32_" class="st1" d="M120.8,42.4c7.4-1.4,19.7-1.7,29.3,1.4c12.2,4.3,2.3,19.9,4.8,20.8c2.6,0.9,6-10.8,28.8-9.7
		c23.1,1.1,25.6,11.4,28.8,9.7c3.1-1.7-3.1-28.5,31.3-22.2c0,0-36.2-9.7-34.5,16.5c0,0-20.8-16-49.9-1.7
		C159.9,57.2,167.3,32.7,120.8,42.4z"/>
	<path id="XMLID_33_" class="st1" d="M247,42.4c0.6,0,0.9,0.3,1.1,0.3C248.4,42.7,247.9,42.4,247,42.4z"/>
	<path id="XMLID_34_" class="st1" d="M247,42.4"/>
	<path id="XMLID_35_" class="st1" d="M110.9,7.3c0,0-30.8,38.7-35.3,53.6c-4.6,15.1-8,76.9-12,85.7l-14.2-61l26.2-63.5L110.9,7.3z"
		/>
	<path id="XMLID_36_" class="st1" d="M255.6,7.3c0,0,30.8,38.7,35.3,53.6c4.6,15.1,8,76.9,12,85.7l14.2-61l-26.2-63.5L255.6,7.3z"/>
	<path id="XMLID_37_" class="st3" d="M254.1,7.3c0,0,33,27.6,42.7,59.5s5.7,70.7,13.1,75.5c10.6,6.9,22.6-33.8,26.6-38.1
		c6.3-6.8,27.1-24.2,28.5-27.3s-42.2-50.7-61.2-60.1C280.6,5.9,252.2,5.1,254.1,7.3z"/>
	<path id="XMLID_38_" class="st4" d="M282.4,24.4c0,0,39,49.9,38.5,112l15.7-31.9C336.2,104.5,322.5,63.7,282.4,24.4z"/>
	<path id="XMLID_39_" class="st3" d="M110.9,7.3c0,0-33,27.6-42.7,59.5s-5.7,70.7-13.1,75.5c-10.6,6.9-22.6-33.8-26.6-38.1
		C22.2,97.4,1.4,80,0,76.9s42.2-50.7,61.2-60.1C84.4,5.9,112.8,5.1,110.9,7.3z"/>
	<path id="XMLID_40_" class="st4" d="M82.6,24.4c0,0-39,49.9-38.5,112l-15.4-31.9C28.8,104.5,42.5,63.7,82.6,24.4z"/>
	<path id="XMLID_41_" class="st1" d="M61.6,137.5c0,0,2.8,15.4,7.4,20.2c4.6,4.8,1.4-3.7,1.4-3.7s-4.8-2.6-4-22.2
		C67.3,112.2,61.6,137.5,61.6,137.5z"/>
	<path id="XMLID_42_" class="st1" d="M304.6,137.5c0,0-2.8,15.4-7.4,20.2c-4.6,4.8-1.4-3.7-1.4-3.7s4.8-2.6,4-22.2
		C298.9,112.2,304.6,137.5,304.6,137.5z"/>
	<circle id="XMLID_43_" class="st4" cx="154.7" cy="125.8" r="2.3"/>
	<circle id="XMLID_44_" class="st4" cx="141.6" cy="139.5" r="2.3"/>
	<circle id="XMLID_45_" class="st4" cx="137.3" cy="125.8" r="2.3"/>
	<circle id="XMLID_46_" class="st4" cx="210.3" cy="125.8" r="2.3"/>
	<circle id="XMLID_47_" class="st4" cx="223.4" cy="139.5" r="2.3"/>
	<circle id="XMLID_48_" class="st4" cx="227.7" cy="125.8" r="2.3"/>
</g>
</svg>
